<svg width="65" height="64" viewBox="0 0 65 64" fill="none" xmlns="http://www.w3.org/2000/svg">
<path d="M30.9151 43.974C37.6135 44.5964 43.5435 39.6713 44.166 32.9788C44.7884 26.2737 39.8632 20.3504 33.1649 19.728C26.4724 19.1056 20.5492 24.024 19.9267 30.7232C19.3035 37.4156 24.2227 43.3516 30.9151 43.974ZM21.4006 30.8622C21.9475 24.9771 27.1525 20.6557 33.0309 21.2018C38.9092 21.7479 43.2315 26.9538 42.6845 32.8389C42.1375 38.7181 36.9325 43.0395 31.0474 42.4925C25.1758 41.9464 20.8544 36.7414 21.4006 30.8622ZM30.9151 43.974C37.6135 44.5964 43.5435 39.6713 44.166 32.9788C44.7884 26.2737 39.8632 20.3504 33.1649 19.728C26.4724 19.1056 20.5492 24.024 19.9267 30.7232C19.3035 37.4156 24.2227 43.3516 30.9151 43.974ZM21.4006 30.8622C21.9475 24.9771 27.1525 20.6557 33.0309 21.2018C38.9092 21.7479 43.2315 26.9538 42.6845 32.8389C42.1375 38.7181 36.9325 43.0395 31.0474 42.4925C25.1758 41.9464 20.8544 36.7414 21.4006 30.8622ZM30.9151 43.974C37.6135 44.5964 43.5435 39.6713 44.166 32.9788C44.7884 26.2737 39.8632 20.3504 33.1649 19.728C26.4724 19.1056 20.5492 24.024 19.9267 30.7232C19.3035 37.4156 24.2227 43.3516 30.9151 43.974ZM21.4006 30.8622C21.9475 24.9771 27.1525 20.6557 33.0309 21.2018C38.9092 21.7479 43.2315 26.9538 42.6845 32.8389C42.1375 38.7181 36.9325 43.0395 31.0474 42.4925C25.1758 41.9464 20.8544 36.7414 21.4006 30.8622ZM29.6635 57.4029C43.7852 58.7122 56.2805 48.3276 57.5957 34.2245C58.905 20.1155 48.5332 7.60752 34.4174 6.29821C20.3143 4.9889 7.80711 15.3676 6.4978 29.4766C5.1817 43.5797 15.5604 56.0936 29.6635 57.4029ZM18.0391 30.551C18.7573 22.8223 25.6211 17.1221 33.3429 17.8403C41.0648 18.5586 46.7659 25.4223 46.0477 33.151C45.3294 40.8797 38.4589 46.574 30.737 45.8557C23.0219 45.1375 17.3208 38.2729 18.0391 30.551ZM19.9267 30.7232C19.3035 37.4156 24.2227 43.3516 30.9151 43.974C37.6135 44.5964 43.5435 39.6713 44.166 32.9788C44.7884 26.2737 39.8632 20.3504 33.1649 19.728C26.4724 19.1056 20.5492 24.024 19.9267 30.7232ZM21.4006 30.8622C21.9475 24.9771 27.1525 20.6557 33.0309 21.2018C38.9092 21.7479 43.2315 26.9538 42.6845 32.8389C42.1375 38.7181 36.9325 43.0395 31.0474 42.4925C25.1758 41.9464 20.8544 36.7414 21.4006 30.8622ZM30.9151 43.974C37.6135 44.5964 43.5435 39.6713 44.166 32.9788C44.7884 26.2737 39.8632 20.3504 33.1649 19.728C26.4724 19.1056 20.5492 24.024 19.9267 30.7232C19.3035 37.4156 24.2227 43.3516 30.9151 43.974ZM21.4006 30.8622C21.9475 24.9771 27.1525 20.6557 33.0309 21.2018C38.9092 21.7479 43.2315 26.9538 42.6845 32.8389C42.1375 38.7181 36.9325 43.0395 31.0474 42.4925C25.1758 41.9464 20.8544 36.7414 21.4006 30.8622ZM30.9151 43.974C37.6135 44.5964 43.5435 39.6713 44.166 32.9788C44.7884 26.2737 39.8632 20.3504 33.1649 19.728C26.4724 19.1056 20.5492 24.024 19.9267 30.7232C19.3035 37.4156 24.2227 43.3516 30.9151 43.974ZM21.4006 30.8622C21.9475 24.9771 27.1525 20.6557 33.0309 21.2018C38.9092 21.7479 43.2315 26.9538 42.6845 32.8389C42.1375 38.7181 36.9325 43.0395 31.0474 42.4925C25.1758 41.9464 20.8544 36.7414 21.4006 30.8622Z" fill="#455A64"/>
<path d="M29.4097 6.90357L39.2337 7.81686L39.3372 0.811537L30.5986 0L29.4097 6.90357Z" fill="#455A64"/>
<path d="M47.8008 11.9519L54.1023 19.544L59.1284 14.6638L53.5239 7.91113L47.8008 11.9519Z" fill="#455A64"/>
<path d="M57.237 28.5259L56.3237 38.35L63.3291 38.4534L64.1406 29.7148L57.237 28.5259Z" fill="#455A64"/>
<path d="M52.1893 46.918L44.5972 53.2195L49.4774 58.2455L56.23 52.6403L52.1893 46.918Z" fill="#455A64"/>
<path d="M35.6155 56.3537L25.7906 55.4404L25.688 62.4458L34.4258 63.2573L35.6155 56.3537Z" fill="#455A64"/>
<path d="M17.2216 51.3058L10.9201 43.7136L5.89404 48.5939L11.4993 55.3465L17.2216 51.3058Z" fill="#455A64"/>
<path d="M7.78674 34.7315L8.69918 24.9074L1.69471 24.804L0.882324 33.5426L7.78674 34.7315Z" fill="#455A64"/>
<path d="M12.8332 16.3392L20.4262 10.0377L15.546 5.01245L8.79248 10.6169L12.8332 16.3392Z" fill="#455A64"/>
</svg>
