<svg width="109" height="109" viewBox="0 0 109 109" fill="none" xmlns="http://www.w3.org/2000/svg">
<path d="M28.0211 54.624C28.0211 69.258 39.9236 81.1596 54.5465 81.1596C69.1855 81.1596 81.0881 69.2571 81.0881 54.624C81.0881 39.9909 69.1855 28.0825 54.5465 28.0825C39.9227 28.0833 28.0211 39.9909 28.0211 54.624ZM33.6679 54.624C33.6679 43.081 43.0137 33.7301 54.5457 33.7301C66.0997 33.7301 75.4446 43.081 75.4446 54.624C75.4446 66.1619 66.0988 75.512 54.5457 75.512C43.0137 75.5128 33.6679 66.1619 33.6679 54.624ZM28.0211 54.624C28.0211 69.258 39.9236 81.1596 54.5465 81.1596C69.1855 81.1596 81.0881 69.2571 81.0881 54.624C81.0881 39.9909 69.1855 28.0825 54.5465 28.0825C39.9227 28.0833 28.0211 39.9909 28.0211 54.624ZM33.6679 54.624C33.6679 43.081 43.0137 33.7301 54.5457 33.7301C66.0997 33.7301 75.4446 43.081 75.4446 54.624C75.4446 66.1619 66.0988 75.512 54.5457 75.512C43.0137 75.5128 33.6679 66.1619 33.6679 54.624ZM9.82129 54.624C9.82129 79.3263 29.8536 99.3543 54.5457 99.3543C79.2589 99.3543 99.2861 79.3271 99.2861 54.624C99.2861 29.9158 79.2589 9.88354 54.5457 9.88354C29.8544 9.88354 9.82129 29.9167 9.82129 54.624ZM25.4745 54.624C25.4745 38.5909 38.5176 25.5368 54.5457 25.5368C70.5847 25.5368 83.6388 38.5909 83.6388 54.624C83.6388 70.6631 70.5847 83.7062 54.5457 83.7062C38.5176 83.7062 25.4745 70.6631 25.4745 54.624ZM28.0211 54.624C28.0211 69.258 39.9236 81.1596 54.5465 81.1596C69.1855 81.1596 81.0881 69.2571 81.0881 54.624C81.0881 39.9909 69.1855 28.0825 54.5465 28.0825C39.9227 28.0833 28.0211 39.9909 28.0211 54.624ZM33.6679 54.624C33.6679 43.081 43.0137 33.7301 54.5457 33.7301C66.0997 33.7301 75.4446 43.081 75.4446 54.624C75.4446 66.1619 66.0988 75.512 54.5457 75.512C43.0137 75.5128 33.6679 66.1619 33.6679 54.624Z" fill="#FFC727"/>
<path d="M49.3037 10.6968H59.5459L58.5257 0.472412H50.323L49.3037 10.6968Z" fill="#FFC727"/>
<path d="M71.9697 13.9549L80.8398 19.076L85.0688 9.71236L77.9651 5.6106L71.9697 13.9549Z" fill="#FFC727"/>
<path d="M89.9697 28.1096L95.0908 36.9797L103.435 30.9852L99.3333 23.8806L89.9697 28.1096Z" fill="#FFC727"/>
<path d="M98.4824 49.3679V59.6109L108.706 58.5908V50.3881L98.4824 49.3679Z" fill="#FFC727"/>
<path d="M95.2235 72.0352L90.1016 80.9052L99.4652 85.1342L103.567 78.0297L95.2235 72.0352Z" fill="#FFC727"/>
<path d="M81.0683 90.0356L72.1982 95.1567L78.1936 103.501L85.2973 99.3993L81.0683 90.0356Z" fill="#FFC727"/>
<path d="M59.8094 98.5471H49.5664L50.5866 108.771H58.7893L59.8094 98.5471Z" fill="#FFC727"/>
<path d="M37.143 95.289L28.2721 90.168L24.0439 99.5316L31.1477 103.633L37.143 95.289Z" fill="#FFC727"/>
<path d="M19.1431 81.134L14.0221 72.2639L5.67773 78.2584L9.77952 85.363L19.1431 81.134Z" fill="#FFC727"/>
<path d="M10.6312 59.8756V49.6326L0.407715 50.6527V58.8554L10.6312 59.8756Z" fill="#FFC727"/>
<path d="M13.8897 37.2087L19.0108 28.3386L9.64718 24.1096L5.54541 31.2142L13.8897 37.2087Z" fill="#FFC727"/>
<path d="M28.0444 19.2083L36.9145 14.0872L30.92 5.74292L23.8154 9.8447L28.0444 19.2083Z" fill="#FFC727"/>
</svg>
