<svg width="66" height="66" viewBox="0 0 66 66" fill="none" xmlns="http://www.w3.org/2000/svg">
<path d="M6.27734 33.2409C6.27734 47.9732 18.2257 59.9215 32.958 59.9215C47.6962 59.9215 59.6386 47.9732 59.6386 33.2409C59.6386 18.5027 47.6971 6.5603 32.958 6.5603C18.2257 6.5603 6.27734 18.5018 6.27734 33.2409ZM20.4949 33.2409C20.4949 26.3577 26.0748 20.7779 32.958 20.7779C39.8412 20.7779 45.421 26.3577 45.421 33.2409C45.421 40.1241 39.8412 45.698 32.958 45.698C26.0748 45.698 20.4949 40.1233 20.4949 33.2409Z" fill="#C7C7C7"/>
<path d="M27.8281 7.66608H38.0881L37.5208 0.403809H28.3954L27.8281 7.66608Z" fill="#C7C7C7"/>
<path d="M47.3574 11.1235L54.6129 18.3782L59.3473 12.8416L52.894 6.38916L47.3574 11.1235Z" fill="#C7C7C7"/>
<path d="M58.7207 27.3772V37.6372L65.983 37.0698V27.9445L58.7207 27.3772Z" fill="#C7C7C7"/>
<path d="M55.2644 46.9055L48.0098 54.1602L53.5464 58.8945L59.9988 52.4421L55.2644 46.9055Z" fill="#C7C7C7"/>
<path d="M39.0118 58.2705H28.751L29.3183 65.5328H38.4445L39.0118 58.2705Z" fill="#C7C7C7"/>
<path d="M19.4822 54.8131L12.2275 47.5576L7.49316 53.0951L13.9456 59.5475L19.4822 54.8131Z" fill="#C7C7C7"/>
<path d="M8.11761 38.5595V28.2996L0.854492 28.8669V37.9922L8.11761 38.5595Z" fill="#C7C7C7"/>
<path d="M11.5742 19.0309L18.8297 11.7754L13.2923 7.04102L6.83984 13.4943L11.5742 19.0309Z" fill="#C7C7C7"/>
<path d="M38.9776 27.2193L30.7503 25.0137L24.7295 31.0404L26.9351 39.2609L35.1556 41.4666L41.1824 35.4458L38.9776 27.2193ZM32.9568 35.941C31.4618 35.941 30.2567 34.736 30.2567 33.241C30.2567 31.7519 31.4626 30.5409 32.9568 30.5409C34.445 30.5409 35.6568 31.7519 35.6568 33.241C35.6568 34.7351 34.4459 35.941 32.9568 35.941Z" fill="#C7C7C7"/>
</svg>
