<svg width="64" height="64" viewBox="0 0 64 64" fill="none" xmlns="http://www.w3.org/2000/svg">
<path d="M5.87744 32.6917C5.87744 46.9593 17.4492 58.5311 31.7168 58.5311C45.9904 58.5311 57.5563 46.9593 57.5563 32.6917C57.5563 18.4182 45.9904 6.85229 31.7168 6.85229C17.4492 6.85229 5.87744 18.4182 5.87744 32.6917ZM19.6464 32.6917C19.6464 26.0256 25.0507 20.6213 31.7168 20.6213C38.383 20.6213 43.7873 26.0256 43.7873 32.6917C43.7873 39.3578 38.383 44.7562 31.7168 44.7562C25.0507 44.7562 19.6464 39.3578 19.6464 32.6917Z" fill="#EBEBEB"/>
<path d="M26.748 7.9232H36.6849L36.1363 0.889893H27.2975L26.748 7.9232Z" fill="#EBEBEB"/>
<path d="M45.6621 11.2712L52.6886 18.2977L57.2738 12.9358L51.024 6.68604L45.6621 11.2712Z" fill="#EBEBEB"/>
<path d="M56.668 27.0125V36.9493L63.7021 36.3998V27.562L56.668 27.0125Z" fill="#EBEBEB"/>
<path d="M53.32 45.9263L46.2935 52.9528L51.6562 57.5379L57.906 51.2882L53.32 45.9263Z" fill="#EBEBEB"/>
<path d="M37.579 56.9324H27.6421L28.1907 63.9665H37.0295L37.579 56.9324Z" fill="#EBEBEB"/>
<path d="M18.6649 53.5846L11.6384 46.5581L7.05322 51.92L13.303 58.1698L18.6649 53.5846Z" fill="#EBEBEB"/>
<path d="M7.65965 37.8431V27.9062L0.625488 28.4557V37.2936L7.65965 37.8431Z" fill="#EBEBEB"/>
<path d="M11.0084 18.9303L18.034 11.9037L12.6721 7.3186L6.42236 13.5675L11.0084 18.9303Z" fill="#EBEBEB"/>
</svg>
