<svg width="34" height="35" viewBox="0 0 34 35" fill="none" xmlns="http://www.w3.org/2000/svg">
<path d="M7.72189 28.9252C8.44693 28.4749 9.35429 28.5004 10.0853 28.9413C10.2837 29.0609 10.4855 29.1762 10.6916 29.2865C10.8993 29.3984 11.1088 29.5036 11.3191 29.6028C12.0882 29.9657 12.6089 30.7052 12.6352 31.5557L12.7259 34.4618L22.1922 34.1676L22.1031 31.2623C22.0768 30.4101 22.5432 29.6291 23.292 29.2203C23.7041 28.9956 24.1052 28.748 24.4928 28.4792C25.1907 27.995 26.0947 27.9271 26.8434 28.3282L29.3993 29.6986L33.8768 21.35L31.3209 19.9797C30.5721 19.5786 30.1286 18.7874 30.1456 17.9385C30.1557 17.467 30.1396 16.9964 30.0989 16.5283C30.0251 15.6786 30.4169 14.8586 31.142 14.4083L33.6113 12.876L28.6192 4.82761L26.1362 6.36587C25.4146 6.81277 24.5114 6.78733 23.7847 6.34807C23.5863 6.2285 23.3844 6.11318 23.1792 6.00294C22.9732 5.8927 22.7663 5.78753 22.5568 5.68917C21.7851 5.32453 21.2627 4.58254 21.2365 3.72945L21.1491 0.820801L11.6829 1.11506L11.7745 4.01352C11.8016 4.86576 11.3361 5.64677 10.5881 6.05551C10.1751 6.28192 9.77235 6.53039 9.38397 6.80175C8.68606 7.28766 7.78125 7.3555 7.03162 6.95355L4.47744 5.58317L0 13.9326L2.55502 15.3029C3.30466 15.7049 3.74901 16.4961 3.73035 17.3466C3.72017 17.8198 3.73459 18.293 3.7753 18.7628C3.84822 19.6125 3.45475 20.4317 2.73056 20.8811L0.265424 22.4083L5.2576 30.4567L7.72189 28.9252ZM10.0946 13.9767C12.1196 10.2014 16.8277 8.78013 20.603 10.8052C24.3783 12.8302 25.7928 17.5349 23.7677 21.3102C21.7427 25.0855 17.0448 26.5033 13.2695 24.4792C9.49421 22.4533 8.06956 17.752 10.0946 13.9767Z" fill="#EBEBEB"/>
</svg>
