<svg width="440" height="440" viewBox="0 0 440 440" fill="none" xmlns="http://www.w3.org/2000/svg">
<path d="M81.5197 279.088L68.4666 279.333L61.8534 279.432C59.6446 279.473 57.4253 279.465 55.2103 279.48L54.8196 279.483L54.8178 279.088L54.7703 267.971L54.7686 267.529L55.2103 267.531L68.3646 267.586C72.7496 267.59 77.1338 267.685 81.5188 267.73L81.7608 267.733L81.759 267.971C81.7423 269.853 81.6834 271.726 81.6438 273.581L81.5197 279.088ZM81.5197 279.088L81.3947 273.478C81.3551 271.627 81.2962 269.794 81.2794 267.971L81.5197 268.211C77.1346 268.256 72.7505 268.351 68.3654 268.355L55.2112 268.411L55.6503 267.971L55.6028 279.088L55.2103 278.696C57.3804 278.712 59.5461 278.703 61.7223 278.744L68.2634 278.843L81.5197 279.088Z" fill="#EBEBEB"/>
<path d="M66.8429 293.105L53.7899 293.351L47.1767 293.45C44.9679 293.491 42.7485 293.483 40.5336 293.498L40.1428 293.501L40.1411 293.105L40.0936 281.988L40.0918 281.547L40.5336 281.548L53.6878 281.604C58.0728 281.608 62.457 281.702 66.842 281.748L67.084 281.751L67.0823 281.988C67.0656 283.871 67.0066 285.744 66.967 287.598L66.8429 293.105ZM66.8429 293.105L66.718 287.495C66.6784 285.644 66.6194 283.812 66.6027 281.988L66.8429 282.229C62.4579 282.274 58.0737 282.369 53.6887 282.373L40.5344 282.428L40.9736 281.989L40.926 293.106L40.5336 292.714C42.7036 292.73 44.8693 292.721 47.0456 292.762L53.5866 292.861L66.8429 293.105Z" fill="#EBEBEB"/>
<path d="M66.8429 52.5481L53.7899 52.7936L47.1767 52.8921C44.9679 52.9335 42.7485 52.9247 40.5336 52.9405L40.1428 52.9432L40.1411 52.5481L40.0936 41.431L40.0918 40.9893L40.5336 40.991L53.6878 41.0465C58.0728 41.0509 62.457 41.145 66.842 41.1908L67.084 41.1934L67.0823 41.431C67.0656 43.3133 67.0066 45.1869 66.967 47.041L66.8429 52.5481ZM66.8429 52.5481L66.718 46.9381C66.6784 45.0874 66.6194 43.2544 66.6027 41.431L66.8429 41.6713C62.4579 41.7161 58.0737 41.8112 53.6887 41.8156L40.5344 41.8701L40.9736 41.431L40.926 52.5481L40.5336 52.1556C42.7036 52.1714 44.8693 52.1626 47.0456 52.204L53.5866 52.3025L66.8429 52.5481Z" fill="#EBEBEB"/>
<path d="M399.464 52.5481L386.411 52.7936L379.798 52.8921C377.589 52.9335 375.37 52.9247 373.155 52.9405L372.764 52.9432L372.762 52.5481L372.715 41.431L372.713 40.9893L373.155 40.991L386.309 41.0465C390.694 41.0509 395.078 41.145 399.463 41.1908L399.705 41.1934L399.703 41.431C399.687 43.3133 399.628 45.1869 399.588 47.041L399.464 52.5481ZM399.464 52.5481L399.339 46.9381C399.299 45.0874 399.24 43.2544 399.224 41.431L399.464 41.6713C395.079 41.7161 390.694 41.8112 386.31 41.8156L373.156 41.871L373.595 41.4319L373.547 52.5489L373.155 52.1565C375.325 52.1723 377.49 52.1635 379.667 52.2049L386.208 52.3034L399.464 52.5481Z" fill="#EBEBEB"/>
<path d="M384.789 66.5666L371.736 66.8121L365.122 66.9107C362.914 66.9521 360.694 66.9433 358.479 66.9591L358.089 66.9617L358.087 66.5666L358.039 55.4496L358.038 55.0078L358.479 55.0096L371.634 55.065C376.019 55.0694 380.403 55.1636 384.788 55.2093L385.03 55.212L385.028 55.4496C385.011 57.3319 384.952 59.2054 384.913 61.0596L384.789 66.5666ZM384.789 66.5666L384.664 60.9566C384.624 59.106 384.565 57.2729 384.548 55.4496L384.789 55.6898C380.404 55.7347 376.02 55.8297 371.634 55.8341L358.48 55.8896L358.919 55.4505L358.872 66.5675L358.479 66.175C360.649 66.1909 362.815 66.1821 364.991 66.2234L371.532 66.322L384.789 66.5666Z" fill="#EBEBEB"/>
<path d="M317.407 196.625L304.354 196.87L297.741 196.969C295.532 197.01 293.313 197.002 291.098 197.017L290.707 197.02L290.706 196.625L290.658 185.508L290.656 185.066L291.098 185.068L304.252 185.123C308.637 185.128 313.021 185.223 317.406 185.267L317.648 185.27L317.647 185.508C317.63 187.39 317.571 189.264 317.531 191.118L317.407 196.625ZM317.407 196.625L317.282 191.015C317.243 189.163 317.184 187.331 317.167 185.508L317.407 185.748C313.022 185.793 308.637 185.888 304.253 185.892L291.099 185.948L291.538 185.509L291.49 196.626L291.098 196.234C293.268 196.249 295.434 196.241 297.61 196.282L304.151 196.381L317.407 196.625Z" fill="#EBEBEB"/>
<path d="M302.733 210.643L289.68 210.888L283.066 210.987C280.858 211.028 278.638 211.019 276.423 211.035L276.032 211.038L276.031 210.643L275.983 199.526L275.981 199.084L276.423 199.086L289.577 199.141C293.962 199.146 298.347 199.241 302.732 199.286L302.974 199.288L302.972 199.526C302.955 201.408 302.896 203.282 302.857 205.136L302.733 210.643ZM302.733 210.643L302.608 205.033C302.568 203.182 302.509 201.349 302.492 199.526L302.733 199.766C298.348 199.811 293.963 199.906 289.578 199.91L276.424 199.966L276.863 199.527L276.816 210.644L276.423 210.251C278.593 210.267 280.759 210.258 282.935 210.3L289.476 210.398L302.733 210.643Z" fill="#EBEBEB"/>
<path d="M288.113 196.624L275.06 196.87L268.447 196.969C266.238 197.01 264.019 197.002 261.804 197.017L261.413 197.02L261.412 196.624L261.364 185.507L261.362 185.066L261.804 185.067L274.958 185.123C279.343 185.127 283.728 185.222 288.113 185.267L288.355 185.27L288.353 185.507C288.336 187.39 288.277 189.263 288.238 191.117L288.113 196.624ZM288.113 196.624L287.988 191.014C287.949 189.163 287.89 187.331 287.873 185.507L288.113 185.748C283.728 185.793 279.343 185.888 274.959 185.892L261.805 185.947L262.244 185.508L262.197 196.625L261.804 196.234C263.974 196.249 266.14 196.241 268.316 196.282L274.857 196.381L288.113 196.624Z" fill="#EBEBEB"/>
<path d="M399.464 293.105L386.411 293.351L379.798 293.45C377.589 293.491 375.37 293.483 373.155 293.498L372.764 293.501L372.762 293.105L372.715 281.988L372.713 281.547L373.155 281.548L386.309 281.604C390.694 281.608 395.079 281.702 399.463 281.748L399.705 281.751L399.703 281.988C399.687 283.871 399.628 285.744 399.588 287.598L399.464 293.105ZM399.464 293.105L399.339 287.495C399.299 285.644 399.24 283.812 399.224 281.988L399.464 282.229C395.079 282.274 390.695 282.369 386.31 282.373L373.156 282.428L373.595 281.989L373.547 293.106L373.155 292.714C375.325 292.73 377.49 292.721 379.667 292.762L386.208 292.861L399.464 293.105Z" fill="#EBEBEB"/>
<path d="M175.935 85.6071L162.882 85.8527L156.268 85.9512C154.06 85.9926 151.84 85.9838 149.625 85.9996L149.235 86.0023L149.233 85.6071L149.185 74.4901L149.184 74.0483L149.625 74.0501L162.78 74.1055C167.165 74.1099 171.549 74.2041 175.934 74.2499L176.176 74.2525L176.174 74.4901C176.157 76.3724 176.098 78.2459 176.059 80.1001L175.935 85.6071ZM175.935 85.6071L175.81 79.9971C175.77 78.1465 175.711 76.3135 175.694 74.4901L175.935 74.7303C171.55 74.7752 167.166 74.8703 162.78 74.8747L149.626 74.9301L150.065 74.491L150.018 85.608L149.625 85.2155C151.795 85.2314 153.961 85.2226 156.137 85.2639L162.678 85.3625L175.935 85.6071Z" fill="#EBEBEB"/>
<path d="M372.437 159.254L377.617 150.902L375.059 149.318C374.307 148.852 373.899 148.002 373.975 147.12C374.016 146.633 374.032 146.142 374.022 145.651C374.002 144.768 374.464 143.947 375.241 143.53L377.893 142.108L373.246 133.444L370.596 134.866C369.818 135.283 368.879 135.213 368.155 134.709C367.751 134.428 367.334 134.169 366.905 133.934C366.129 133.509 365.646 132.699 365.674 131.815L365.769 128.807L355.946 128.502L355.855 131.52C355.829 132.406 355.286 133.176 354.485 133.554C354.268 133.657 354.052 133.765 353.839 133.88C353.625 133.994 353.416 134.114 353.211 134.238C352.457 134.694 351.519 134.72 350.77 134.256L348.194 132.66L343.013 141.012L345.576 142.602C346.327 143.069 346.735 143.92 346.658 144.802C346.616 145.287 346.6 145.776 346.61 146.266C346.628 147.147 346.167 147.968 345.39 148.384L342.738 149.806L347.384 158.469L350.036 157.047C350.814 156.63 351.752 156.701 352.476 157.203C352.878 157.482 353.294 157.739 353.722 157.972C354.499 158.396 354.983 159.207 354.956 160.091L354.863 163.106L364.687 163.412L364.781 160.396C364.808 159.514 365.349 158.747 366.147 158.369C366.365 158.266 366.582 158.156 366.798 158.041C367.011 157.927 367.221 157.807 367.427 157.683C368.186 157.225 369.126 157.199 369.88 157.666L372.437 159.254ZM364.12 153.052C360.202 155.154 355.327 153.681 353.226 149.764C351.124 145.846 352.592 140.964 356.511 138.862C360.428 136.761 365.314 138.236 367.416 142.153C369.516 146.072 368.038 150.952 364.12 153.052Z" fill="#EBEBEB"/>
<path d="M89.3451 253.889L94.5257 245.537L91.9675 243.952C91.2151 243.485 90.8077 242.635 90.8834 241.754C90.9256 241.266 90.9406 240.776 90.93 240.284C90.9106 239.401 91.3718 238.58 92.1497 238.163L94.8011 236.741L90.1547 228.078L87.5042 229.5C86.7262 229.917 85.7873 229.846 85.063 229.342C84.6591 229.061 84.242 228.803 83.8134 228.568C83.0373 228.143 82.5542 227.332 82.5823 226.449L82.6774 223.441L72.8539 223.135L72.7633 226.154C72.7369 227.039 72.1939 227.809 71.3931 228.188C71.1758 228.29 70.9602 228.399 70.7472 228.513C70.5334 228.628 70.3239 228.747 70.1189 228.871C69.3647 229.327 68.4275 229.354 67.6786 228.89L65.102 227.293L59.9214 235.646L62.484 237.236C63.2355 237.703 63.643 238.554 63.5664 239.436C63.5242 239.921 63.5083 240.41 63.518 240.899C63.5365 241.78 63.0754 242.601 62.2983 243.017L59.646 244.439L64.2924 253.103L66.9447 251.681C67.7218 251.264 68.6598 251.334 69.3841 251.837C69.7862 252.116 70.2025 252.373 70.6302 252.606C71.4072 253.03 71.8912 253.84 71.8639 254.725L71.7715 257.74L81.595 258.045L81.6891 255.029C81.7164 254.148 82.2576 253.38 83.0549 253.004C83.2731 252.901 83.4905 252.791 83.7061 252.675C83.9199 252.561 84.1294 252.441 84.3353 252.317C85.0938 251.86 86.0346 251.833 86.7878 252.3L89.3451 253.889ZM81.0274 247.687C77.1096 249.788 72.2344 248.316 70.133 244.398C68.0315 240.48 69.4994 235.598 73.418 233.497C77.3358 231.395 82.2215 232.87 84.323 236.788C86.4244 240.706 84.9451 245.585 81.0274 247.687Z" fill="#EBEBEB"/>
<path d="M189.962 93.9294L186.521 87.9656L184.696 89.0199C184.16 89.3305 183.5 89.3006 182.98 88.9618C182.693 88.7744 182.396 88.6028 182.089 88.4461C181.538 88.1663 181.183 87.6092 181.183 86.9915V84.8848H174.296V86.9924C174.296 87.6101 173.942 88.1672 173.391 88.447C173.084 88.6028 172.786 88.7752 172.5 88.9627C171.98 89.3006 171.32 89.3314 170.784 89.0208L168.958 87.9665L165.518 93.9303L167.351 94.9854C167.888 95.2952 168.184 95.8848 168.152 96.5043C168.144 96.6724 168.139 96.8413 168.139 97.0112C168.139 97.181 168.144 97.35 168.152 97.518C168.184 98.1349 167.89 98.7219 167.356 99.0308L165.518 100.093L168.958 106.057L170.789 105.002C171.326 104.692 171.986 104.723 172.506 105.061C172.792 105.248 173.087 105.42 173.394 105.575C173.944 105.856 174.297 106.412 174.297 107.03V109.138H181.184V107.03C181.184 106.412 181.538 105.856 182.088 105.575C182.393 105.42 182.69 105.248 182.975 105.061C183.494 104.723 184.155 104.692 184.692 105.002L186.522 106.057L189.963 100.093L188.133 99.0369C187.597 98.728 187.303 98.1402 187.334 97.5224C187.342 97.3535 187.346 97.1836 187.346 97.012C187.346 96.8422 187.342 96.6732 187.334 96.5052C187.302 95.8856 187.598 95.2952 188.135 94.9854L189.962 93.9294ZM183.38 97.0112C183.38 100.125 180.857 102.648 177.743 102.648C174.628 102.648 172.1 100.125 172.1 97.0112C172.1 93.8968 174.628 91.3686 177.743 91.3686C180.857 91.3686 183.38 93.8968 183.38 97.0112Z" fill="#EBEBEB"/>
<path d="M78.1748 267.379C66.6741 278.638 64.7442 296.056 67.1678 311.312C67.2302 311.658 67.7662 311.564 67.7662 311.239C67.7662 307.766 67.6614 304.324 67.672 300.893C67.7345 300.736 67.7873 300.589 67.8506 300.431C70.8514 298.249 73.6111 295.783 75.3218 292.404C77.242 288.627 77.997 284.366 79.4666 280.421C79.603 280.043 79.2 280.154 78.9369 280.349C71.9418 285.507 69.7118 291.06 67.7046 298.479C67.7987 294.628 68.0926 290.778 68.9216 286.927C70.4326 279.886 73.4228 272.908 78.481 267.683C78.6685 267.484 78.3746 267.179 78.1748 267.379Z" fill="#263238"/>
<path d="M80.3365 268.691C82.3147 268.758 83.5555 271.92 85.0973 272.843C85.913 273.334 86.7077 273.304 87.2806 272.5C88.8082 270.368 86.7121 267.736 84.7409 266.265C86.1506 266.845 87.3202 267.863 88.8399 268.152C89.7604 268.321 90.4758 267.979 90.6906 267.044C91.3602 264.136 87.7135 262.843 85.2117 262.782C86.4243 261.939 89.9012 259.646 88.0541 258.519C86.1823 257.388 82.1026 260.666 80.7721 261.744C78.8167 263.331 76.4838 265.703 76.3958 268.184C76.2814 271.082 78.8141 269.299 80.3365 268.691Z" fill="#FFC727"/>
<path opacity="0.1" d="M80.3365 268.691C82.3147 268.758 83.5555 271.92 85.0973 272.843C85.913 273.334 86.7077 273.304 87.2806 272.5C88.8082 270.368 86.7121 267.736 84.7409 266.265C86.1506 266.845 87.3202 267.863 88.8399 268.152C89.7604 268.321 90.4758 267.979 90.6906 267.044C91.3602 264.136 87.7135 262.843 85.2117 262.782C86.4243 261.939 89.9012 259.646 88.0541 258.519C86.1823 257.388 82.1026 260.666 80.7721 261.744C78.8167 263.331 76.4838 265.703 76.3958 268.184C76.2814 271.082 78.8141 269.299 80.3365 268.691Z" fill="black"/>
<path d="M79.765 269.179C82.295 268.029 87.1535 269.684 87.5671 268.727C88.4049 266.779 84.5214 265.441 82.4253 265.182C84.356 264.66 88.0546 263.826 87.9411 261.964C87.8021 259.691 82.2677 261.646 79.4667 263.794C75.9379 266.5 75.9608 269.111 76.5442 269.633C77.3441 270.351 79.347 269.369 79.765 269.179Z" fill="#FFC727"/>
<path d="M51.986 266.264C63.9056 277.077 66.4981 294.409 64.6562 309.747C64.6069 310.096 64.0684 310.022 64.0561 309.697C63.9241 306.226 63.8977 302.783 63.7569 299.355C63.6882 299.2 63.6301 299.056 63.5606 298.9C60.4789 296.833 57.6277 294.475 55.7902 291.163C53.7275 287.462 52.8105 283.234 51.1931 279.347C51.0426 278.974 51.4492 279.069 51.7202 279.254C58.9063 284.144 61.3465 289.607 63.6345 296.944C63.3934 293.099 62.9534 289.263 61.9793 285.446C60.2017 278.468 56.9483 271.609 51.6956 266.58C51.4976 266.388 51.7792 266.072 51.986 266.264Z" fill="#263238"/>
<path d="M49.8759 267.658C47.9012 267.799 46.7827 271.007 45.277 271.987C44.4806 272.509 43.686 272.509 43.0823 271.728C41.4745 269.654 43.4686 266.946 45.3826 265.401C43.9957 266.033 42.8658 267.095 41.3584 267.442C40.4449 267.645 39.7172 267.332 39.4664 266.406C38.6867 263.525 42.2815 262.094 44.7789 261.939C43.5346 261.142 39.9733 258.984 41.7764 257.787C43.6033 256.585 47.8053 259.704 49.1754 260.733C51.1897 262.244 53.6106 264.525 53.7937 267.001C54.0181 269.892 51.4203 268.207 49.8759 267.658Z" fill="#FFC727"/>
<path opacity="0.1" d="M49.8759 267.658C47.9012 267.799 46.7827 271.007 45.277 271.987C44.4806 272.509 43.686 272.509 43.0823 271.728C41.4745 269.654 43.4686 266.946 45.3826 265.401C43.9957 266.033 42.8658 267.095 41.3584 267.442C40.4449 267.645 39.7172 267.332 39.4664 266.406C38.6867 263.525 42.2815 262.094 44.7789 261.939C43.5346 261.142 39.9733 258.984 41.7764 257.787C43.6033 256.585 47.8053 259.704 49.1754 260.733C51.1897 262.244 53.6106 264.525 53.7937 267.001C54.0181 269.892 51.4203 268.207 49.8759 267.658Z" fill="black"/>
<path d="M50.4668 268.123C47.8955 267.07 43.1021 268.909 42.6533 267.968C41.7425 266.053 45.5714 264.57 47.6561 264.231C45.7069 263.782 41.9792 263.091 42.0223 261.226C42.0743 258.949 47.679 260.692 50.5601 262.732C54.1892 265.301 54.2658 267.911 53.7026 268.456C52.9299 269.203 50.891 268.298 50.4668 268.123Z" fill="#FFC727"/>
<path d="M64.1761 294.822C65.0561 300.521 66.1473 306.414 67.8773 311.92C68.0428 312.421 68.7873 312.293 68.7107 311.752C67.9275 306.483 66.5002 301.311 65.7178 296.043C64.9223 290.712 64.4973 285.307 64.8026 279.915C65.3042 271.037 67.7154 261.593 73.5093 254.645C73.6369 254.481 73.3668 254.247 73.2357 254.4C61.6364 267.924 63.4818 284.506 63.4923 285.992C61.8502 280.393 60.158 273.976 53.9469 268.275C53.6794 268.028 53.47 268.145 53.5149 268.563C54.6254 278.948 57.5127 284.37 63.5337 289.922C63.7026 291.567 63.9147 293.205 64.1761 294.822Z" fill="#263238"/>
<path d="M73.6126 256.2C75.699 255.273 78.5775 257.93 80.642 258.111C81.735 258.21 82.5446 257.779 82.7346 256.657C83.2468 253.674 79.747 252.001 76.961 251.465C78.7157 251.357 80.4414 251.825 82.1635 251.36C83.2037 251.071 83.7739 250.358 83.5266 249.279C82.7575 245.924 78.3232 246.418 75.6964 247.615C76.5306 246.129 78.9832 242 76.4998 241.761C73.9883 241.529 71.4055 246.983 70.5678 248.773C69.3375 251.404 68.1108 255.037 69.2689 257.657C70.6091 260.721 72.3392 257.596 73.6126 256.2Z" fill="#FFC727"/>
<path opacity="0.1" d="M73.6126 256.2C75.699 255.273 78.5775 257.93 80.642 258.111C81.735 258.21 82.5446 257.779 82.7346 256.657C83.2468 253.674 79.747 252.001 76.961 251.465C78.7157 251.357 80.4414 251.825 82.1635 251.36C83.2037 251.071 83.7739 250.358 83.5266 249.279C82.7575 245.924 78.3232 246.418 75.6964 247.615C76.5306 246.129 78.9832 242 76.4998 241.761C73.9883 241.529 71.4055 246.983 70.5678 248.773C69.3375 251.404 68.1108 255.037 69.2689 257.657C70.6091 260.721 72.3392 257.596 73.6126 256.2Z" fill="black"/>
<path d="M73.2645 256.995C75.3105 254.528 81.1853 253.799 81.1317 252.598C81.0199 250.155 76.3181 250.723 74.0125 251.509C75.7522 249.994 79.1701 247.268 78.115 245.394C76.8267 243.105 72.0685 247.919 70.2434 251.558C67.944 256.142 69.2816 258.839 70.151 259.088C71.3434 259.429 72.9274 257.402 73.2645 256.995Z" fill="#FFC727"/>
<path d="M56.5442 297.948L51.4287 337.034H82.5578C81.9163 333.571 76.1224 297.903 76.1224 297.903L56.5442 297.948Z" fill="#FFC727"/>
<path d="M38.1689 337.166L83.6262 336.952L129.084 336.875L220 336.727L310.915 336.874L356.373 336.951L401.831 337.166L356.373 337.382L310.915 337.459L220 337.605L129.084 337.458L83.6262 337.38L38.1689 337.166Z" fill="#263238"/>
<path d="M220 413.701C292.444 413.701 351.17 405.398 351.17 395.155C351.17 384.912 292.444 376.609 220 376.609C147.557 376.609 88.8301 384.912 88.8301 395.155C88.8301 405.398 147.557 413.701 220 413.701Z" fill="#EBEBEB"/>
<path d="M138.666 200.351L133.202 178.853L90.049 189.82L84.3457 167.38L118.831 88.7859L135.936 84.4387L152.566 149.875L166.375 146.365L172.118 168.962L158.309 172.471L163.773 193.97L138.666 200.351ZM109.1 160.922L130.442 155.499L123.383 127.723L109.1 160.922Z" fill="#263238"/>
<path d="M262.261 128.584C262.261 135.708 261.181 142.265 259.023 148.256C256.863 154.247 253.894 159.428 250.117 163.8C246.337 168.172 241.885 171.572 236.76 174C231.631 176.429 226.045 177.643 220.001 177.643C213.955 177.643 208.344 176.429 203.162 174C197.981 171.571 193.501 168.171 189.724 163.8C185.944 159.428 183.004 154.247 180.9 148.256C178.795 142.265 177.743 135.708 177.743 128.584C177.743 121.46 178.795 114.903 180.9 108.912C183.005 102.921 185.944 97.7408 189.724 93.369C193.501 88.9971 197.981 85.5722 203.162 83.0879C208.344 80.6063 213.955 79.3638 220.001 79.3638C226.045 79.3638 231.63 80.6063 236.76 83.0879C241.885 85.5722 246.337 88.9971 250.117 93.369C253.894 97.7408 256.863 102.921 259.023 108.912C261.181 114.903 262.261 121.46 262.261 128.584ZM236.193 128.584C236.193 121.03 234.68 114.903 231.659 110.207C228.636 105.512 224.751 103.164 220.002 103.164C215.036 103.164 211.069 105.512 208.102 110.207C205.132 114.903 203.649 121.03 203.649 128.584C203.649 136.14 205.132 142.241 208.102 146.88C211.069 151.522 215.036 153.843 220.002 153.843C224.751 153.843 228.636 151.523 231.659 146.88C234.681 142.241 236.193 136.14 236.193 128.584Z" fill="#263238"/>
<path d="M308.744 196.208L312.291 174.312L268.34 167.191L272.043 144.336L334.97 85.9697L352.391 88.7919L341.594 155.44L355.659 157.718L351.93 180.733L337.865 178.455L334.318 200.351L308.744 196.208ZM297.321 148.268L319.057 151.789L323.64 123.5L297.321 148.268Z" fill="#263238"/>
<path d="M183.636 63.7659C181.787 63.7659 180.11 63.4043 178.606 62.6818C177.1 61.9593 175.809 60.9992 174.731 59.8024C173.652 58.6065 172.817 57.2372 172.225 55.6972C171.632 54.1572 171.336 52.5811 171.336 50.969C171.336 49.2864 171.649 47.6751 172.278 46.1343C172.905 44.5943 173.771 43.2311 174.873 42.0458C175.974 40.8604 177.284 39.9188 178.801 39.2192C180.317 38.5205 181.965 38.1711 183.742 38.1711C185.567 38.1711 187.231 38.5443 188.737 39.2905C190.242 40.0367 191.528 41.0144 192.594 42.2235C193.661 43.4327 194.49 44.8072 195.083 46.3472C195.675 47.8881 195.972 49.4519 195.972 51.0403C195.972 52.7237 195.663 54.3279 195.048 55.8574C194.431 57.3859 193.578 58.7367 192.488 59.9098C191.397 61.0828 190.094 62.0191 188.578 62.7179C187.06 63.4166 185.413 63.7659 183.636 63.7659ZM176.312 50.9681C176.312 52.0584 176.478 53.1135 176.81 54.1317C177.141 55.1507 177.621 56.0519 178.249 56.8333C178.877 57.6156 179.648 58.2431 180.56 58.7174C181.472 59.1917 182.509 59.4284 183.671 59.4284C184.855 59.4284 185.904 59.1855 186.817 58.6998C187.729 58.2149 188.499 57.5681 189.128 56.762C189.755 55.9568 190.23 55.0504 190.55 54.0428C190.87 53.0352 191.029 52.0109 191.029 50.9672C191.029 49.8778 190.857 48.8227 190.514 47.8036C190.17 46.7846 189.684 45.8843 189.057 45.102C188.428 44.3197 187.658 43.6984 186.747 43.2355C185.834 42.7735 184.809 42.5421 183.672 42.5421C182.486 42.5421 181.432 42.785 180.507 43.2707C179.583 43.7565 178.813 44.3963 178.197 45.19C177.58 45.9847 177.113 46.8849 176.793 47.8916C176.473 48.901 176.312 49.9253 176.312 50.9681Z" fill="#263238"/>
<path d="M207.88 63.9436C206.363 63.9436 205.001 63.6831 203.793 63.1613C202.584 62.6403 201.558 61.9345 200.717 61.0466C199.876 60.1578 199.23 59.1326 198.779 57.971C198.329 56.8103 198.104 55.5889 198.104 54.3093C198.104 53.0061 198.329 51.7741 198.779 50.6125C199.229 49.4517 199.876 48.4265 200.717 47.5377C201.558 46.6489 202.584 45.9441 203.793 45.4222C205.001 44.9013 206.363 44.6399 207.88 44.6399C209.397 44.6399 210.754 44.9013 211.951 45.4222C213.147 45.9441 214.167 46.6489 215.008 47.5377C215.85 48.4265 216.496 49.4517 216.946 50.6125C217.396 51.7741 217.621 53.0061 217.621 54.3093C217.621 55.5889 217.396 56.8103 216.946 57.971C216.496 59.1326 215.856 60.1569 215.027 61.0466C214.197 61.9354 213.178 62.6412 211.97 63.1613C210.76 63.6822 209.397 63.9436 207.88 63.9436ZM203.01 54.3093C203.01 55.1392 203.134 55.8916 203.383 56.5665C203.632 57.2424 203.975 57.8285 204.413 58.3265C204.851 58.8237 205.367 59.2092 205.959 59.482C206.552 59.7548 207.191 59.8912 207.879 59.8912C208.567 59.8912 209.206 59.7548 209.799 59.482C210.391 59.2101 210.907 58.8246 211.345 58.3265C211.783 57.8285 212.127 57.2362 212.375 56.5489C212.624 55.8617 212.748 55.104 212.748 54.2741C212.748 53.4689 212.624 52.7227 212.375 52.0345C212.126 51.3473 211.783 50.755 211.345 50.2569C210.906 49.7589 210.39 49.3743 209.799 49.1015C209.206 48.8287 208.567 48.6923 207.879 48.6923C207.191 48.6923 206.552 48.8349 205.959 49.1191C205.367 49.4033 204.851 49.7949 204.413 50.2921C203.974 50.7902 203.631 51.3825 203.383 52.0697C203.134 52.7579 203.01 53.5041 203.01 54.3093Z" fill="#263238"/>
<path d="M231.981 63.9436C230.511 63.9436 229.232 63.618 228.142 62.9659C227.052 62.3147 226.198 61.4321 225.582 60.318V71.1604H220.819V44.9602H224.978V48.159C225.665 47.0696 226.554 46.2098 227.644 45.5815C228.734 44.9541 229.99 44.6399 231.411 44.6399C232.668 44.6399 233.829 44.8951 234.895 45.4046C235.962 45.9141 236.881 46.6014 237.651 47.4665C238.421 48.3315 239.025 49.3505 239.464 50.5236C239.903 51.6966 240.122 52.9356 240.122 54.2389C240.122 55.5897 239.92 56.8578 239.517 58.0423C239.114 59.2277 238.551 60.259 237.828 61.1355C237.105 62.0129 236.246 62.6993 235.251 63.1973C234.256 63.6945 233.166 63.9436 231.981 63.9436ZM230.382 59.8912C231.093 59.8912 231.75 59.7372 232.355 59.4292C232.958 59.1212 233.474 58.7067 233.901 58.1849C234.327 57.6639 234.659 57.0593 234.896 56.3712C235.134 55.6839 235.252 54.9737 235.252 54.2389C235.252 53.4566 235.121 52.728 234.861 52.053C234.6 51.3772 234.239 50.7911 233.777 50.293C233.315 49.7958 232.769 49.4042 232.142 49.12C231.513 48.8357 230.832 48.6932 230.098 48.6932C229.648 48.6932 229.186 48.7706 228.712 48.9246C228.238 49.0786 227.8 49.2977 227.397 49.5829C226.994 49.8671 226.633 50.1997 226.313 50.5781C225.993 50.9574 225.749 51.3728 225.584 51.8225V56.1952C226.011 57.2617 226.663 58.1444 227.539 58.8431C228.414 59.5418 229.363 59.8912 230.382 59.8912Z" fill="#263238"/>
<path d="M250.396 63.9438C248.833 63.9438 247.303 63.6947 245.811 63.1975C244.317 62.7003 243.038 61.9884 241.971 61.0644L243.749 58.0786C244.887 58.8846 245.995 59.4945 247.073 59.909C248.151 60.3243 249.223 60.5311 250.29 60.5311C251.237 60.5311 251.984 60.3534 252.529 59.9978C253.074 59.6423 253.347 59.1328 253.347 58.4693C253.347 57.8058 253.028 57.32 252.387 57.012C251.747 56.704 250.704 56.3485 249.258 55.9454C248.05 55.6137 247.019 55.2934 246.165 54.9854C245.312 54.6774 244.624 54.328 244.103 53.9364C243.582 53.5457 243.203 53.0951 242.966 52.5856C242.728 52.0761 242.611 51.4654 242.611 50.7543C242.611 49.8066 242.794 48.9538 243.162 48.1944C243.529 47.4367 244.044 46.7899 244.708 46.2566C245.372 45.7234 246.149 45.315 247.036 45.0308C247.925 44.7466 248.89 44.604 249.933 44.604C251.332 44.604 252.64 44.8055 253.862 45.2086C255.082 45.6116 256.202 46.2628 257.221 47.1639L255.301 50.0433C254.353 49.3322 253.435 48.8113 252.545 48.4795C251.656 48.1478 250.774 47.9823 249.897 47.9823C249.091 47.9823 248.415 48.1486 247.871 48.4795C247.325 48.8113 247.052 49.3446 247.052 50.0794C247.052 50.4111 247.117 50.6839 247.249 50.8969C247.378 51.1098 247.586 51.2999 247.871 51.4654C248.155 51.6317 248.528 51.7918 248.99 51.945C249.452 52.0998 250.027 52.2591 250.714 52.4246C251.994 52.7563 253.089 53.0881 254.002 53.4198C254.914 53.7516 255.66 54.1309 256.241 54.5568C256.822 54.9836 257.249 55.4755 257.522 56.0317C257.794 56.5887 257.93 57.2584 257.93 58.0407C257.93 59.8658 257.255 61.3055 255.903 62.3598C254.556 63.4166 252.719 63.9438 250.396 63.9438Z" fill="#263238"/>
<path d="M261.948 54.0964V38.0989H266.712V54.0964H261.948ZM261.948 63.5881V58.2201H266.712V63.5881H261.948Z" fill="#263238"/>
<path d="M238.13 276.184H206.88V278.744H238.13V276.184Z" fill="#37474F"/>
<path d="M238.13 279.519H206.88V282.078H238.13V279.519Z" fill="#37474F"/>
<path d="M238.13 282.854H206.88V285.414H238.13V282.854Z" fill="#37474F"/>
<path d="M238.13 286.188H206.88V288.748H238.13V286.188Z" fill="#37474F"/>
<path d="M238.13 289.522H206.88V292.082H238.13V289.522Z" fill="#37474F"/>
<path d="M251.658 356.043H192.244V358.603H251.658V356.043Z" fill="#37474F"/>
<path d="M251.658 359.377H192.244V361.937H251.658V359.377Z" fill="#37474F"/>
<path d="M251.658 362.712H192.244V365.272H251.658V362.712Z" fill="#37474F"/>
<path d="M251.658 366.046H192.244V368.606H251.658V366.046Z" fill="#37474F"/>
<path d="M251.658 369.381H192.244V371.941H251.658V369.381Z" fill="#37474F"/>
<path d="M166.176 255.023C166.205 254.677 153.172 250.311 153.172 250.311L153.942 205.532L171.224 201.823L166.176 255.023Z" fill="#FFC727"/>
<path opacity="0.2" d="M166.176 255.023C166.205 254.677 153.172 250.311 153.172 250.311L153.942 205.532L171.224 201.823L166.176 255.023Z" fill="black"/>
<path d="M285.553 272.6C285.644 272.265 299.385 272.651 299.385 272.651L314.072 230.341L299.121 220.912L285.553 272.6Z" fill="#FFC727"/>
<path opacity="0.2" d="M285.553 272.6C285.644 272.265 299.385 272.651 299.385 272.651L314.072 230.341L299.121 220.912L285.553 272.6Z" fill="black"/>
<path d="M163.667 271.512C163.667 271.512 168.499 199.09 172.737 175.265C172.737 175.265 260.224 181.882 307.452 199.934C307.452 199.934 283.104 284.526 281.843 288.724C281.843 288.724 220.236 276.588 163.667 271.512Z" fill="#FFC727"/>
<path opacity="0.1" d="M241.756 184.937C240.334 193.657 238.894 202.374 237.404 211.083L232.895 237.2L232.652 236.831L261.966 243.795L276.608 247.343L291.232 250.962L276.53 247.671L261.845 244.311L232.505 237.458L232.208 237.389L232.262 237.088L236.93 210.999C238.499 202.305 240.119 193.619 241.756 184.937Z" fill="black"/>
<path opacity="0.1" d="M238.539 189.907C238.555 190.706 237.918 191.527 237.002 191.607C236.559 191.65 236.077 191.508 235.716 191.194C235.355 190.88 235.139 190.396 235.137 189.907C235.139 189.419 235.353 188.934 235.715 188.62C236.075 188.303 236.559 188.164 237.002 188.205C237.918 188.285 238.555 189.108 238.539 189.907ZM238.539 189.907C238.535 189.504 238.357 189.108 238.057 188.854C237.756 188.6 237.361 188.496 237.003 188.537C236.265 188.622 235.786 189.285 235.797 189.907C235.785 190.529 236.263 191.196 237.003 191.279C237.361 191.32 237.756 191.216 238.057 190.962C238.357 190.706 238.535 190.31 238.539 189.907Z" fill="black"/>
<path opacity="0.1" d="M237.002 200.683C237.018 201.482 236.381 202.304 235.466 202.383C235.022 202.425 234.54 202.283 234.179 201.969C233.818 201.655 233.603 201.171 233.6 200.683C233.603 200.194 233.817 199.709 234.178 199.395C234.538 199.078 235.022 198.939 235.466 198.981C236.383 199.062 237.019 199.885 237.002 200.683ZM237.002 200.683C236.999 200.28 236.82 199.884 236.52 199.629C236.219 199.375 235.825 199.271 235.467 199.313C234.728 199.398 234.25 200.061 234.26 200.683C234.249 201.305 234.726 201.971 235.467 202.055C235.825 202.095 236.22 201.991 236.521 201.736C236.821 201.483 236.999 201.086 237.002 200.683Z" fill="black"/>
<path opacity="0.1" d="M235.112 212.069C235.127 212.868 234.49 213.69 233.575 213.77C233.132 213.812 232.649 213.671 232.289 213.356C231.928 213.042 231.712 212.558 231.709 212.069C231.712 211.581 231.926 211.096 232.288 210.782C232.648 210.465 233.132 210.326 233.575 210.367C234.492 210.448 235.128 211.27 235.112 212.069ZM235.112 212.069C235.108 211.666 234.929 211.27 234.629 211.016C234.328 210.762 233.934 210.658 233.576 210.699C232.838 210.785 232.359 211.447 232.369 212.069C232.358 212.692 232.836 213.358 233.576 213.441C233.934 213.483 234.329 213.378 234.63 213.124C234.929 212.868 235.108 212.472 235.112 212.069Z" fill="black"/>
<path opacity="0.1" d="M233.219 223.456C233.236 224.255 232.598 225.076 231.683 225.156C231.239 225.197 230.757 225.056 230.396 224.742C230.036 224.428 229.82 223.944 229.817 223.456C229.819 222.967 230.035 222.482 230.396 222.168C230.755 221.851 231.239 221.712 231.683 221.754C232.6 221.834 233.236 222.657 233.219 223.456ZM233.219 223.456C233.216 223.053 233.037 222.657 232.736 222.402C232.435 222.148 232.041 222.044 231.683 222.085C230.945 222.171 230.466 222.833 230.476 223.456C230.465 224.078 230.943 224.744 231.683 224.828C232.041 224.868 232.436 224.764 232.737 224.51C233.037 224.255 233.216 223.859 233.219 223.456Z" fill="black"/>
<path opacity="0.1" d="M239.666 241.614C239.683 242.413 239.045 243.234 238.13 243.314C237.686 243.356 237.204 243.215 236.843 242.901C236.482 242.587 236.267 242.103 236.264 241.614C236.266 241.126 236.481 240.641 236.842 240.327C237.202 240.01 237.686 239.871 238.13 239.912C239.046 239.992 239.682 240.815 239.666 241.614ZM239.666 241.614C239.663 241.211 239.484 240.815 239.183 240.561C238.882 240.307 238.488 240.203 238.13 240.244C237.391 240.329 236.913 240.992 236.923 241.614C236.912 242.236 237.39 242.903 238.13 242.986C238.488 243.028 238.883 242.923 239.184 242.668C239.484 242.413 239.662 242.017 239.666 241.614Z" fill="black"/>
<path opacity="0.1" d="M250.414 244.236C250.431 245.035 249.793 245.857 248.877 245.936C248.434 245.977 247.952 245.837 247.591 245.522C247.23 245.208 247.014 244.724 247.012 244.236C247.014 243.748 247.229 243.263 247.59 242.948C247.95 242.632 248.434 242.493 248.877 242.534C249.794 242.615 250.431 243.437 250.414 244.236ZM250.414 244.236C250.41 243.833 250.232 243.437 249.932 243.183C249.631 242.928 249.236 242.824 248.878 242.866C248.14 242.951 247.661 243.614 247.672 244.236C247.66 244.858 248.138 245.524 248.878 245.608C249.236 245.648 249.631 245.544 249.932 245.289C250.232 245.035 250.41 244.639 250.414 244.236Z" fill="black"/>
<path opacity="0.1" d="M261.161 246.858C261.177 247.657 260.54 248.478 259.624 248.558C259.181 248.6 258.699 248.459 258.338 248.145C257.977 247.831 257.761 247.347 257.759 246.858C257.761 246.37 257.975 245.885 258.337 245.571C258.697 245.254 259.181 245.115 259.624 245.156C260.54 245.236 261.177 246.059 261.161 246.858ZM261.161 246.858C261.157 246.455 260.979 246.059 260.679 245.805C260.378 245.551 259.983 245.447 259.625 245.488C258.887 245.573 258.408 246.236 258.419 246.858C258.407 247.48 258.885 248.147 259.625 248.23C259.983 248.271 260.379 248.167 260.68 247.912C260.979 247.657 261.156 247.26 261.161 246.858Z" fill="black"/>
<path opacity="0.1" d="M271.908 249.48C271.925 250.279 271.287 251.1 270.372 251.18C269.928 251.221 269.446 251.081 269.085 250.766C268.725 250.452 268.509 249.968 268.506 249.48C268.509 248.991 268.723 248.507 269.085 248.192C269.444 247.876 269.928 247.737 270.372 247.778C271.289 247.858 271.924 248.681 271.908 249.48ZM271.908 249.48C271.905 249.077 271.726 248.681 271.426 248.426C271.125 248.172 270.731 248.068 270.373 248.11C269.635 248.195 269.156 248.858 269.166 249.48C269.155 250.102 269.633 250.768 270.373 250.852C270.731 250.892 271.126 250.788 271.427 250.534C271.726 250.279 271.905 249.883 271.908 249.48Z" fill="black"/>
<path opacity="0.1" d="M282.652 252.219C282.607 253.017 281.909 253.787 280.99 253.796C280.545 253.804 280.075 253.626 279.738 253.285C279.402 252.944 279.225 252.445 279.26 251.958C279.299 251.471 279.551 251.005 279.936 250.719C280.319 250.431 280.812 250.329 281.251 250.405C282.159 250.555 282.73 251.425 282.652 252.219ZM282.652 252.219C282.679 251.817 282.532 251.409 282.252 251.132C281.971 250.854 281.586 250.721 281.226 250.735C280.483 250.763 279.954 251.387 279.917 252.008C279.857 252.628 280.283 253.328 281.015 253.469C281.368 253.538 281.77 253.464 282.09 253.233C282.409 253.002 282.618 252.621 282.652 252.219Z" fill="black"/>
<path opacity="0.1" d="M231.327 234.842C231.343 235.641 230.706 236.463 229.79 236.542C229.347 236.584 228.865 236.443 228.504 236.128C228.143 235.814 227.927 235.33 227.925 234.842C227.927 234.353 228.142 233.869 228.503 233.554C228.863 233.238 229.347 233.098 229.79 233.14C230.707 233.22 231.344 234.043 231.327 234.842ZM231.327 234.842C231.323 234.439 231.145 234.043 230.844 233.788C230.543 233.534 230.149 233.43 229.79 233.472C229.052 233.557 228.573 234.22 228.584 234.842C228.572 235.464 229.05 236.13 229.79 236.214C230.149 236.254 230.544 236.15 230.844 235.895C231.146 235.641 231.323 235.245 231.327 234.842Z" fill="black"/>
<path opacity="0.2" d="M213.229 253.708C223.432 244.535 224.266 228.827 215.092 218.625C205.919 208.422 190.211 207.588 180.009 216.761C169.806 225.935 168.972 241.642 178.145 251.845C187.319 262.048 203.026 262.882 213.229 253.708Z" fill="black"/>
<path d="M215.244 242.289C219.139 231.998 213.955 220.498 203.664 216.603C193.373 212.707 181.873 217.892 177.978 228.183C174.083 238.473 179.267 249.973 189.558 253.869C199.849 257.764 211.349 252.58 215.244 242.289Z" fill="#263238"/>
<path d="M195.417 227.91L190.76 227.156L190.005 231.813L194.663 232.568L195.417 227.91Z" fill="#FFC727"/>
<path d="M191.514 222.498L186.856 221.744L186.102 226.402L190.76 227.156L191.514 222.498Z" fill="#FFC727"/>
<path d="M210.145 225.516L205.488 224.761L204.733 229.419L209.391 230.174L210.145 225.516Z" fill="#FFC727"/>
<path d="M188.513 241.024L183.855 240.269L183.101 244.927L187.759 245.681L188.513 241.024Z" fill="#FFC727"/>
<path d="M207.145 244.042L202.487 243.287L201.732 247.945L206.39 248.699L207.145 244.042Z" fill="#FFC727"/>
<path d="M193.926 237.121L189.268 236.367L188.514 241.024L193.171 241.779L193.926 237.121Z" fill="#FFC727"/>
<path d="M199.33 233.27L194.672 232.515L193.917 237.173L198.575 237.928L199.33 233.27Z" fill="#FFC727"/>
<path d="M204.733 229.419L200.075 228.665L199.321 233.322L203.978 234.077L204.733 229.419Z" fill="#FFC727"/>
<path d="M203.247 238.627L198.589 237.872L197.834 242.53L202.492 243.285L203.247 238.627Z" fill="#FFC727"/>
<path d="M282.506 261.379C291.202 250.766 289.648 235.113 279.035 226.417C268.422 217.721 252.769 219.275 244.073 229.888C235.377 240.501 236.931 256.154 247.544 264.85C258.157 273.546 273.81 271.992 282.506 261.379Z" fill="#FFC727"/>
<path opacity="0.2" d="M282.506 261.379C291.202 250.766 289.648 235.113 279.035 226.417C268.422 217.721 252.769 219.275 244.073 229.888C235.377 240.501 236.931 256.154 247.544 264.85C258.157 273.546 273.81 271.992 282.506 261.379Z" fill="black"/>
<path opacity="0.2" d="M287.462 251.392C287.347 251.882 287.217 252.354 287.07 252.827L238.646 242.498C238.76 241.634 238.915 240.77 239.118 239.898C242.29 226.553 255.683 218.303 269.037 221.473C282.383 224.645 290.633 238.038 287.462 251.392Z" fill="black"/>
<path d="M270.967 264.032C281.12 259.79 285.912 248.12 281.67 237.967C277.428 227.814 265.758 223.022 255.605 227.264C245.452 231.506 240.66 243.176 244.902 253.329C249.144 263.482 260.813 268.274 270.967 264.032Z" fill="#263238"/>
<path d="M268.305 234.759L263.714 233.668L258.284 256.518L262.875 257.609L268.305 234.759Z" fill="#FFC727"/>
<path d="M288.903 250.925L238.039 238.836C241.376 224.793 255.47 216.117 269.514 219.454C283.557 222.792 292.241 236.882 288.903 250.925Z" fill="#FFC727"/>
<path opacity="0.2" d="M288.903 250.925L238.039 238.836C241.376 224.793 255.47 216.117 269.514 219.454C283.557 222.792 292.241 236.882 288.903 250.925Z" fill="black"/>
<path opacity="0.1" d="M220.065 260.412C220.194 258.426 220.923 256.411 222.364 254.819C223.074 254.016 224.022 253.386 225.066 253.002C226.115 252.617 227.248 252.549 228.322 252.641C229.416 252.768 230.533 253.154 231.445 253.844C232.339 254.548 233.024 255.465 233.427 256.454C234.257 258.423 234.348 260.528 233.946 262.48C233.615 260.529 233.111 258.634 232.194 257.079C231.285 255.512 229.848 254.538 228.134 254.386C226.386 254.169 224.681 254.638 223.307 255.799C221.934 256.956 220.885 258.613 220.065 260.412Z" fill="black"/>
<path d="M170.471 209.739C170.677 207.085 170.975 204.443 171.227 201.796C171.51 199.152 171.8 196.509 172.121 193.872C172.427 191.232 172.771 188.597 173.109 185.961C173.439 183.324 173.821 180.695 174.175 178.061L174.269 177.358L174.982 177.403C180.714 177.764 186.434 178.226 192.146 178.814C195.002 179.107 197.854 179.439 200.703 179.805C203.546 180.214 206.394 180.59 209.22 181.108L192.045 180.045L174.888 178.935L175.695 178.277C175.305 180.905 174.942 183.537 174.53 186.162C174.123 188.788 173.723 191.415 173.285 194.037C172.862 196.66 172.409 199.28 171.947 201.898C171.455 204.511 171.009 207.132 170.471 209.739Z" fill="white"/>
<path d="M174.603 229.817C175.179 226.626 176.63 223.586 178.578 220.938C179.063 220.272 179.615 219.657 180.145 219.023C180.72 218.43 181.317 217.856 181.907 217.275C182.55 216.752 183.2 216.234 183.86 215.731C184.561 215.287 185.254 214.823 185.966 214.396C186.717 214.035 187.463 213.664 188.221 213.321L190.581 212.504L193.024 212C193.844 211.88 194.678 211.855 195.5 211.793C198.813 211.708 202.073 212.414 205.065 213.626C201.88 213.029 198.707 212.699 195.579 212.997C192.458 213.287 189.426 214.22 186.714 215.748C183.982 217.239 181.562 219.297 179.518 221.687C177.482 224.089 175.797 226.81 174.603 229.817Z" fill="white"/>
<path d="M243.133 236.528C244.145 233.447 246.001 230.637 248.296 228.283C248.868 227.69 249.5 227.157 250.113 226.603C250.764 226.095 251.435 225.609 252.1 225.114C252.809 224.684 253.523 224.261 254.247 223.855C255.003 223.511 255.753 223.147 256.518 222.823C257.312 222.57 258.102 222.305 258.899 222.07L261.35 221.587L263.84 221.425C264.669 221.419 265.497 221.509 266.32 221.561C269.613 221.934 272.744 223.085 275.54 224.698C272.468 223.667 269.371 222.901 266.232 222.765C263.101 222.623 259.969 223.128 257.073 224.266C254.161 225.366 251.479 227.07 249.124 229.155C246.775 231.254 244.731 233.715 243.133 236.528Z" fill="white"/>
<path d="M166.443 316.142C160.079 316.142 146.147 314.711 137.181 303.184C125.711 288.437 129.857 260.14 130.038 258.942L135.018 259.698C134.977 259.97 131.02 287.057 141.157 300.092C151.069 312.835 169.046 311.006 169.227 310.984L169.793 315.988C169.597 316.012 168.364 316.142 166.443 316.142Z" fill="#FFC727"/>
<path opacity="0.4" d="M166.443 316.142C160.079 316.142 146.147 314.711 137.181 303.184C125.711 288.437 129.857 260.14 130.038 258.942L135.018 259.698C134.977 259.97 131.02 287.057 141.157 300.092C151.069 312.835 169.046 311.006 169.227 310.984L169.793 315.988C169.597 316.012 168.364 316.142 166.443 316.142Z" fill="white"/>
<path d="M136.485 263.125C135.577 263.125 134.649 263.049 133.705 262.896C125.304 261.536 121.585 256.509 119.944 252.532C118.3 248.545 117.919 243.723 118.814 238.2L129.468 239.927C128.913 243.348 129.074 246.364 129.921 248.416C130.524 249.88 131.697 251.638 135.431 252.243C137.136 252.519 138.98 252.373 140.91 249.461C142.4 247.214 143.296 244.155 143.609 242.217L154.262 243.943C154.016 245.467 152.972 250.8 149.905 255.425C146.57 260.456 141.875 263.125 136.485 263.125Z" fill="#FFC727"/>
<path d="M176.967 330.558C176.948 330.328 167.942 328.889 167.942 328.889L163.57 299.493L174.479 295.184L176.967 330.558Z" fill="#FFC727"/>
<path opacity="0.2" d="M176.967 330.558C176.948 330.328 167.942 328.889 167.942 328.889L163.57 299.493L174.479 295.184L176.967 330.558Z" fill="black"/>
<path d="M266.021 330.612C266.044 330.383 275.081 329.143 275.081 329.143L280.101 299.851L269.29 295.301L266.021 330.612Z" fill="#FFC727"/>
<path opacity="0.2" d="M266.021 330.612C266.044 330.383 275.081 329.143 275.081 329.143L280.101 299.851L269.29 295.301L266.021 330.612Z" fill="black"/>
<path d="M173.221 288.601C173.221 288.601 246.072 285.486 270.682 289.588C270.682 289.588 263.455 360.081 263.064 361.448C263.064 361.448 190.596 361.253 179.267 361.448C179.267 361.448 173.127 314.573 173.221 288.601Z" fill="#FFC727"/>
<path opacity="0.2" d="M195.35 307.917C195.35 307.917 235.119 306.347 248.554 308.415C248.554 308.415 244.609 343.961 244.396 344.65C244.396 344.65 204.835 344.552 198.651 344.65C198.65 344.65 195.932 320.322 195.35 307.917Z" fill="black"/>
<path opacity="0.2" d="M200.785 344.635C199.874 344.635 199.152 344.647 198.647 344.653C198.647 344.653 195.933 320.32 195.346 307.915C195.346 307.915 196.251 307.88 197.83 307.827L200.785 344.635Z" fill="black"/>
<path d="M212.519 316.689C210.289 315.987 207.914 317.224 207.212 319.451C206.509 321.683 207.748 324.055 209.977 324.758C212.204 325.46 214.577 324.224 215.279 321.994C215.981 319.768 214.746 317.391 212.519 316.689ZM214.789 321.84C214.172 323.798 212.087 324.884 210.131 324.267C208.175 323.651 207.088 321.567 207.706 319.608C208.323 317.652 210.407 316.565 212.365 317.183C214.319 317.799 215.406 319.883 214.789 321.84ZM212.519 316.689C210.289 315.987 207.914 317.224 207.212 319.451C206.509 321.683 207.748 324.055 209.977 324.758C212.204 325.46 214.577 324.224 215.279 321.994C215.981 319.768 214.746 317.391 212.519 316.689ZM214.789 321.84C214.172 323.798 212.087 324.884 210.131 324.267C208.175 323.651 207.088 321.567 207.706 319.608C208.323 317.652 210.407 316.565 212.365 317.183C214.319 317.799 215.406 319.883 214.789 321.84ZM212.519 316.689C210.289 315.987 207.914 317.224 207.212 319.451C206.509 321.683 207.748 324.055 209.977 324.758C212.204 325.46 214.577 324.224 215.279 321.994C215.981 319.768 214.746 317.391 212.519 316.689ZM214.789 321.84C214.172 323.798 212.087 324.884 210.131 324.267C208.175 323.651 207.088 321.567 207.706 319.608C208.323 317.652 210.407 316.565 212.365 317.183C214.319 317.799 215.406 319.883 214.789 321.84ZM213.928 312.22C209.228 310.74 204.224 313.351 202.743 318.044C201.263 322.74 203.869 327.748 208.567 329.227C213.26 330.706 218.269 328.098 219.749 323.402C221.23 318.709 218.622 313.699 213.928 312.22ZM215.908 322.192C215.098 324.764 212.349 326.196 209.779 325.386C207.209 324.576 205.777 321.827 206.586 319.255C207.397 316.683 210.148 315.253 212.717 316.062C215.285 316.873 216.718 319.622 215.908 322.192ZM215.279 321.995C215.981 319.768 214.746 317.392 212.519 316.69C210.289 315.988 207.914 317.225 207.212 319.452C206.509 321.684 207.748 324.056 209.977 324.759C212.204 325.461 214.577 324.224 215.279 321.995ZM214.789 321.84C214.172 323.798 212.087 324.884 210.131 324.267C208.175 323.651 207.088 321.567 207.706 319.608C208.323 317.652 210.407 316.565 212.365 317.183C214.319 317.799 215.406 319.883 214.789 321.84ZM212.519 316.689C210.289 315.987 207.914 317.224 207.212 319.451C206.509 321.683 207.748 324.055 209.977 324.758C212.204 325.46 214.577 324.224 215.279 321.994C215.981 319.768 214.746 317.391 212.519 316.689ZM214.789 321.84C214.172 323.798 212.087 324.884 210.131 324.267C208.175 323.651 207.088 321.567 207.706 319.608C208.323 317.652 210.407 316.565 212.365 317.183C214.319 317.799 215.406 319.883 214.789 321.84ZM212.519 316.689C210.289 315.987 207.914 317.224 207.212 319.451C206.509 321.683 207.748 324.055 209.977 324.758C212.204 325.46 214.577 324.224 215.279 321.994C215.981 319.768 214.746 317.391 212.519 316.689ZM214.789 321.84C214.172 323.798 212.087 324.884 210.131 324.267C208.175 323.651 207.088 321.567 207.706 319.608C208.323 317.652 210.407 316.565 212.365 317.183C214.319 317.799 215.406 319.883 214.789 321.84Z" fill="#FFC727"/>
<path d="M210.313 329.389L207.044 328.359L206.495 330.73L209.404 331.647L210.313 329.389Z" fill="#FFC727"/>
<path d="M204.439 326.327L202.855 323.287L200.791 324.576L202.199 327.28L204.439 326.327Z" fill="#FFC727"/>
<path d="M202.449 320.006L203.479 316.737L201.108 316.188L200.191 319.096L202.449 320.006Z" fill="#FFC727"/>
<path d="M205.511 314.13L208.552 312.547L207.262 310.482L204.558 311.891L205.511 314.13Z" fill="#FFC727"/>
<path d="M211.832 312.141L215.102 313.171L215.65 310.799L212.743 309.883L211.832 312.141Z" fill="#FFC727"/>
<path d="M217.708 315.203L219.292 318.243L221.357 316.955L219.948 314.251L217.708 315.203Z" fill="#FFC727"/>
<path d="M219.698 321.524L218.667 324.793L221.039 325.342L221.955 322.434L219.698 321.524Z" fill="#FFC727"/>
<path d="M216.635 327.399L213.594 328.983L214.883 331.048L217.587 329.64L216.635 327.399Z" fill="#FFC727"/>
<path d="M226.898 329.131C225.58 328.272 223.815 328.646 222.957 329.963C222.098 331.283 222.472 333.046 223.791 333.904C225.108 334.762 226.87 334.389 227.729 333.071C228.587 331.755 228.215 329.989 226.898 329.131ZM227.439 332.882C226.685 334.041 225.136 334.368 223.979 333.614C222.822 332.861 222.494 331.312 223.249 330.154C224.002 328.997 225.551 328.669 226.709 329.423C227.865 330.177 228.192 331.725 227.439 332.882ZM226.898 329.131C225.58 328.272 223.815 328.646 222.957 329.963C222.098 331.283 222.472 333.046 223.791 333.904C225.108 334.762 226.87 334.389 227.729 333.071C228.587 331.755 228.215 329.989 226.898 329.131ZM227.439 332.882C226.685 334.041 225.136 334.368 223.979 333.614C222.822 332.861 222.494 331.312 223.249 330.154C224.002 328.997 225.551 328.669 226.709 329.423C227.865 330.177 228.192 331.725 227.439 332.882ZM226.898 329.131C225.58 328.272 223.815 328.646 222.957 329.963C222.098 331.283 222.472 333.046 223.791 333.904C225.108 334.762 226.87 334.389 227.729 333.071C228.587 331.755 228.215 329.989 226.898 329.131ZM227.439 332.882C226.685 334.041 225.136 334.368 223.979 333.614C222.822 332.861 222.494 331.312 223.249 330.154C224.002 328.997 225.551 328.669 226.709 329.423C227.865 330.177 228.192 331.725 227.439 332.882ZM228.62 326.489C225.839 324.679 222.122 325.467 220.313 328.243C218.505 331.022 219.289 334.74 222.068 336.549C224.844 338.356 228.564 337.571 230.372 334.793C232.182 332.017 231.397 328.296 228.62 326.489ZM228.101 333.313C227.11 334.835 225.068 335.267 223.549 334.277C222.029 333.287 221.596 331.245 222.587 329.724C223.578 328.202 225.62 327.772 227.14 328.762C228.659 329.751 229.091 331.792 228.101 333.313ZM227.729 333.071C228.587 331.754 228.215 329.99 226.898 329.132C225.58 328.273 223.815 328.647 222.957 329.964C222.098 331.284 222.472 333.046 223.791 333.905C225.108 334.763 226.87 334.389 227.729 333.071ZM227.439 332.882C226.685 334.041 225.136 334.368 223.979 333.614C222.822 332.861 222.494 331.312 223.249 330.154C224.002 328.997 225.551 328.669 226.709 329.423C227.865 330.177 228.192 331.725 227.439 332.882ZM226.898 329.131C225.58 328.272 223.815 328.646 222.957 329.963C222.098 331.283 222.472 333.046 223.791 333.904C225.108 334.762 226.87 334.389 227.729 333.071C228.587 331.755 228.215 329.989 226.898 329.131ZM227.439 332.882C226.685 334.041 225.136 334.368 223.979 333.614C222.822 332.861 222.494 331.312 223.249 330.154C224.002 328.997 225.551 328.669 226.709 329.423C227.865 330.177 228.192 331.725 227.439 332.882ZM226.898 329.131C225.58 328.272 223.815 328.646 222.957 329.963C222.098 331.283 222.472 333.046 223.791 333.904C225.108 334.762 226.87 334.389 227.729 333.071C228.587 331.755 228.215 329.989 226.898 329.131ZM227.439 332.882C226.685 334.041 225.136 334.368 223.979 333.614C222.822 332.861 222.494 331.312 223.249 330.154C224.002 328.997 225.551 328.669 226.709 329.423C227.865 330.177 228.192 331.725 227.439 332.882Z" fill="#DBDBDB"/>
<path d="M223.172 336.969L221.238 335.709L220.454 337.148L222.175 338.269L223.172 336.969Z" fill="#DBDBDB"/>
<path d="M219.915 333.92L219.438 331.662L217.866 332.125L218.291 334.133L219.915 333.92Z" fill="#DBDBDB"/>
<path d="M219.769 329.461L221.028 327.527L219.589 326.743L218.469 328.464L219.769 329.461Z" fill="#DBDBDB"/>
<path d="M222.817 326.205L225.076 325.728L224.613 324.156L222.604 324.58L222.817 326.205Z" fill="#DBDBDB"/>
<path d="M227.276 326.058L229.209 327.317L229.994 325.878L228.274 324.758L227.276 326.058Z" fill="#DBDBDB"/>
<path d="M230.533 329.106L231.01 331.364L232.581 330.901L232.157 328.893L230.533 329.106Z" fill="#DBDBDB"/>
<path d="M230.68 333.565L229.421 335.499L230.86 336.283L231.98 334.563L230.68 333.565Z" fill="#DBDBDB"/>
<path d="M227.631 336.822L225.373 337.299L225.835 338.87L227.844 338.446L227.631 336.822Z" fill="#DBDBDB"/>
<path d="M268.923 353.245L271.724 353.766L279.731 299.534L276.541 298.948L268.923 353.245Z" fill="#FFC727"/>
<path d="M244.395 344.651L248.553 308.415L276.54 298.948C276.54 298.948 268.923 353.831 268.923 353.245L244.395 344.651Z" fill="#FFC727"/>
<path opacity="0.4" d="M244.395 344.651L248.553 308.415L276.54 298.948C276.54 298.948 268.923 353.831 268.923 353.245L244.395 344.651Z" fill="white"/>
<path d="M176.564 309.883C176.108 306.881 175.861 303.855 175.674 300.826C175.588 299.31 175.549 297.793 175.515 296.276C175.486 294.759 175.459 293.24 175.504 291.722L175.516 291.324L175.904 291.302C181.464 291.004 187.021 290.639 192.584 290.396C198.146 290.122 203.707 289.872 209.273 289.698C203.725 290.201 198.174 290.628 192.621 291.031C187.07 291.465 181.513 291.777 175.959 292.155L176.358 291.735L176.336 296.267L176.388 300.801C176.396 302.314 176.424 303.826 176.468 305.338L176.564 309.883Z" fill="white"/>
<path d="M252.456 308.947C254.19 308.123 255.951 307.357 257.733 306.651C259.509 305.927 261.302 305.243 263.116 304.614C264.932 303.994 266.754 303.387 268.608 302.872C270.457 302.351 272.325 301.87 274.233 301.557L274.702 301.481L274.618 301.929C274.179 304.275 273.72 306.617 273.177 308.947C273.38 306.564 273.667 304.193 273.974 301.827L274.359 302.198C272.51 302.639 270.676 303.154 268.848 303.695C267.021 304.241 265.199 304.817 263.383 305.408L252.456 308.947Z" fill="white"/>
<path opacity="0.1" d="M188.676 288.748L189.147 297.811L189.551 306.876L190.249 325.011L190.796 343.152L191.014 352.224L191.164 361.298L190.691 352.235L190.288 343.169L189.59 325.034L189.045 306.894L188.826 297.822L188.676 288.748Z" fill="black"/>
<path opacity="0.1" d="M186.08 294.211C186.254 294.991 185.791 295.922 184.91 296.181C184.484 296.31 183.984 296.267 183.568 296.03C183.151 295.793 182.844 295.362 182.746 294.883C182.651 294.403 182.766 293.886 183.058 293.507C183.348 293.126 183.795 292.893 184.238 292.846C185.152 292.744 185.938 293.425 186.08 294.211ZM186.08 294.211C185.996 293.817 185.743 293.464 185.399 293.274C185.054 293.083 184.646 293.06 184.303 293.171C183.597 293.401 183.258 294.145 183.392 294.754C183.503 295.365 184.103 295.924 184.845 295.86C185.204 295.829 185.571 295.65 185.815 295.34C186.06 295.031 186.156 294.607 186.08 294.211Z" fill="black"/>
<path opacity="0.1" d="M186.704 305.078C186.878 305.858 186.415 306.79 185.534 307.048C185.108 307.177 184.608 307.135 184.192 306.897C183.775 306.66 183.468 306.229 183.37 305.75C183.275 305.271 183.39 304.753 183.682 304.374C183.972 303.993 184.419 303.76 184.862 303.713C185.776 303.611 186.562 304.292 186.704 305.078ZM186.704 305.078C186.62 304.684 186.367 304.331 186.023 304.141C185.678 303.951 185.27 303.927 184.927 304.039C184.221 304.268 183.882 305.013 184.016 305.621C184.127 306.232 184.727 306.791 185.469 306.727C185.828 306.696 186.195 306.516 186.44 306.207C186.684 305.898 186.781 305.474 186.704 305.078Z" fill="black"/>
<path opacity="0.1" d="M187.099 316.614C187.273 317.394 186.81 318.325 185.929 318.584C185.503 318.713 185.003 318.67 184.587 318.433C184.17 318.196 183.863 317.765 183.765 317.286C183.671 316.807 183.785 316.289 184.077 315.91C184.367 315.528 184.815 315.296 185.257 315.249C186.171 315.147 186.957 315.828 187.099 316.614ZM187.099 316.614C187.015 316.22 186.762 315.867 186.418 315.677C186.073 315.487 185.665 315.463 185.322 315.575C184.616 315.804 184.277 316.548 184.411 317.156C184.522 317.768 185.123 318.326 185.864 318.262C186.223 318.231 186.59 318.052 186.834 317.742C187.079 317.433 187.175 317.01 187.099 316.614Z" fill="black"/>
<path opacity="0.1" d="M187.496 328.149C187.67 328.929 187.207 329.86 186.326 330.119C185.9 330.248 185.4 330.205 184.984 329.968C184.567 329.731 184.26 329.3 184.162 328.821C184.067 328.341 184.182 327.824 184.474 327.445C184.764 327.064 185.211 326.83 185.654 326.784C186.568 326.682 187.354 327.363 187.496 328.149ZM187.496 328.149C187.412 327.754 187.16 327.402 186.815 327.212C186.47 327.021 186.062 326.998 185.719 327.109C185.013 327.339 184.674 328.083 184.808 328.692C184.919 329.303 185.519 329.862 186.261 329.798C186.62 329.767 186.987 329.588 187.231 329.278C187.476 328.969 187.572 328.545 187.496 328.149Z" fill="black"/>
<path opacity="0.1" d="M187.891 339.685C188.066 340.465 187.603 341.396 186.722 341.655C186.295 341.783 185.795 341.741 185.379 341.504C184.963 341.267 184.656 340.836 184.557 340.357C184.463 339.877 184.577 339.36 184.87 338.981C185.16 338.6 185.607 338.366 186.05 338.32C186.963 338.218 187.75 338.898 187.891 339.685ZM187.891 339.685C187.808 339.29 187.554 338.938 187.21 338.747C186.865 338.557 186.458 338.534 186.115 338.645C185.408 338.875 185.069 339.619 185.203 340.228C185.315 340.84 185.915 341.398 186.657 341.334C187.016 341.303 187.383 341.123 187.627 340.814C187.871 340.504 187.967 340.08 187.891 339.685Z" fill="black"/>
<path opacity="0.1" d="M188.288 351.219C188.463 352 188 352.931 187.119 353.19C186.692 353.318 186.192 353.276 185.776 353.038C185.36 352.802 185.053 352.37 184.954 351.892C184.86 351.413 184.974 350.895 185.267 350.515C185.557 350.133 186.003 349.901 186.447 349.854C187.36 349.752 188.146 350.433 188.288 351.219ZM188.288 351.219C188.205 350.825 187.951 350.472 187.607 350.282C187.262 350.092 186.855 350.068 186.512 350.18C185.805 350.41 185.466 351.153 185.6 351.762C185.712 352.375 186.312 352.933 187.054 352.868C187.413 352.838 187.78 352.657 188.024 352.348C188.268 352.039 188.364 351.615 188.288 351.219Z" fill="black"/>
<path d="M191.85 368.859L150.6 381.359L152.061 386.179L193.31 373.679L191.85 368.859Z" fill="#FFC727"/>
<path opacity="0.4" d="M191.85 368.859L150.6 381.359L152.061 386.179L193.31 373.679L191.85 368.859Z" fill="white"/>
<path d="M172.114 373.203L167.315 374.729L169.582 381.859L174.382 380.332L172.114 373.203Z" fill="#FFC727"/>
<path d="M151.739 393.239L141.095 347.146L108.966 354.763L124.786 399.684L151.739 393.239Z" fill="#FFC727"/>
<path d="M158.869 390.896L151.74 393.239L141.095 347.146L151.349 349.587L158.869 390.896Z" fill="#FFC727"/>
<path opacity="0.2" d="M158.869 390.896L151.74 393.239L141.095 347.146L151.349 349.587L158.869 390.896Z" fill="black"/>
<path d="M192.599 376.735C195.619 376.735 198.067 374.287 198.067 371.267C198.067 368.247 195.619 365.798 192.599 365.798C189.579 365.798 187.13 368.247 187.13 371.267C187.13 374.287 189.579 376.735 192.599 376.735Z" fill="#FFC727"/>
<path d="M248.868 368.725L247.397 373.542L288.621 386.128L290.092 381.312L248.868 368.725Z" fill="#FFC727"/>
<path opacity="0.4" d="M248.868 368.725L247.397 373.542L288.621 386.128L290.092 381.312L248.868 368.725Z" fill="white"/>
<path d="M268.633 373.091L266.35 380.215L271.146 381.752L273.429 374.628L268.633 373.091Z" fill="#FFC727"/>
<path d="M288.957 393.2L299.7 347.128L331.812 354.814L315.896 399.702L288.957 393.2Z" fill="#FFC727"/>
<path d="M281.833 390.841L288.956 393.2L299.699 347.128L289.44 349.548L281.833 390.841Z" fill="#FFC727"/>
<path opacity="0.2" d="M281.833 390.841L288.956 393.2L299.699 347.128L289.44 349.548L281.833 390.841Z" fill="black"/>
<path d="M242.674 371.128C242.668 374.148 245.111 376.602 248.131 376.609C251.151 376.615 253.605 374.172 253.612 371.152C253.618 368.132 251.175 365.678 248.155 365.671C245.134 365.664 242.68 368.108 242.674 371.128Z" fill="#FFC727"/>
<path d="M283.944 314.276C284.074 314.155 297.323 301.866 312.91 306.069C328.848 310.37 342.008 334.376 342.138 334.619L346.568 332.225C345.992 331.159 332.267 306.068 314.22 301.208C295.866 296.258 281.095 310.038 280.475 310.628L283.944 314.276Z" fill="#FFC727"/>
<path opacity="0.4" d="M283.944 314.276C284.074 314.155 297.323 301.866 312.91 306.069C328.848 310.37 342.008 334.376 342.138 334.619L346.568 332.225C345.992 331.159 332.267 306.068 314.22 301.208C295.866 296.258 281.095 310.038 280.475 310.628L283.944 314.276Z" fill="white"/>
<path d="M336.264 358.787L345.808 353.748C344.892 352.013 343.764 349.032 343.601 346.34C343.388 342.852 344.773 341.625 346.3 340.818C349.644 339.052 351.639 339.752 353.002 340.555C354.915 341.684 356.86 343.994 358.478 347.06L368.022 342.021C365.41 337.074 362.203 333.453 358.488 331.26C354.783 329.076 348.786 327.301 341.261 331.274C335.395 334.37 332.4 339.954 332.828 346.995C333.165 352.535 335.543 357.421 336.264 358.787Z" fill="#FFC727"/>
<path d="M285.956 297.46C288.024 296.031 290.142 294.684 292.267 293.35C294.387 292.008 296.542 290.725 298.697 289.442C300.863 288.178 303.029 286.915 305.231 285.71L308.535 283.906C309.652 283.332 310.754 282.733 311.886 282.182C310.856 282.905 309.797 283.578 308.754 284.277L305.575 286.293C303.454 287.635 301.3 288.918 299.144 290.199C296.978 291.463 294.811 292.725 292.609 293.929C290.413 295.144 288.208 296.343 285.956 297.46Z" fill="#263238"/>
<path d="M280.475 318.053C283.437 319.741 286.245 321.646 289.015 323.604C291.769 325.584 294.485 327.617 297.044 329.87C294.08 328.184 291.273 326.279 288.504 324.319C285.751 322.338 283.035 320.305 280.475 318.053Z" fill="#263238"/>
<path d="M285.34 315.52C287.627 316.214 289.878 316.999 292.122 317.797C294.372 318.586 296.596 319.439 298.82 320.293C301.037 321.166 303.253 322.041 305.444 322.979L308.73 324.388C309.813 324.888 310.908 325.36 311.981 325.885C310.836 325.546 309.709 325.154 308.573 324.791L305.198 323.61C302.949 322.82 300.724 321.968 298.502 321.113C296.286 320.239 294.069 319.364 291.879 318.426C289.684 317.495 287.495 316.553 285.34 315.52Z" fill="#263238"/>
<path d="M291.835 299.391C294.027 298.822 296.234 298.348 298.444 297.887C300.652 297.417 302.873 297.016 305.094 296.614C307.317 296.233 309.542 295.854 311.778 295.541L315.133 295.076C316.256 294.953 317.375 294.799 318.504 294.703C317.41 294.997 316.306 295.234 315.207 295.501L311.895 296.207C309.686 296.676 307.466 297.079 305.246 297.479C303.021 297.858 300.797 298.238 298.561 298.55C296.327 298.873 294.089 299.18 291.835 299.391Z" fill="#263238"/>
<path d="M239.025 313.092C239.396 311.312 239.994 309.577 240.766 307.922C241.54 306.27 242.487 304.685 243.675 303.276C244.866 301.882 246.332 300.653 248.097 299.973C249.861 299.315 251.881 299.32 253.65 300.027C255.441 300.725 256.854 302.23 257.615 303.96C258.01 304.824 258.257 305.751 258.359 306.698C258.448 307.644 258.41 308.628 258.034 309.573C257.842 310.038 257.542 310.507 257.061 310.819C256.829 310.981 256.545 311.074 256.266 311.117C255.991 311.156 255.71 311.144 255.389 311.033C254.801 310.782 254.506 310.309 254.252 309.882C254.026 309.439 253.852 308.985 253.733 308.526C253.239 306.69 253.189 304.821 253.276 302.974C253.538 299.295 254.504 295.615 256.487 292.449C257.487 290.884 258.742 289.443 260.302 288.391C261.842 287.331 263.646 286.602 265.486 286.391C266.392 286.172 267.327 286.192 268.252 286.147C268.716 286.098 269.176 286.21 269.638 286.234C270.097 286.295 270.567 286.287 271.013 286.42C272.842 286.748 274.56 287.482 276.165 288.37C277.761 289.289 279.182 290.47 280.479 291.752C281.765 293.046 282.934 294.462 283.874 296.021C281.793 293.051 279.113 290.473 275.954 288.746C274.364 287.92 272.684 287.242 270.914 286.967C270.482 286.846 270.029 286.868 269.587 286.818C269.143 286.805 268.7 286.704 268.255 286.764C267.367 286.829 266.473 286.824 265.606 287.058C263.832 287.308 262.186 288.021 260.738 289.016C259.282 290.012 258.109 291.378 257.165 292.874C255.297 295.901 254.382 299.475 254.154 303.027C254.054 304.802 254.099 306.617 254.543 308.303C254.755 309.109 255.136 310.017 255.691 310.271C255.762 310.278 255.81 310.316 255.896 310.319C255.983 310.312 256.075 310.331 256.157 310.31C256.324 310.283 256.487 310.238 256.627 310.137C256.915 309.956 257.144 309.634 257.298 309.264C257.607 308.516 257.663 307.629 257.586 306.775C257.5 305.915 257.28 305.062 256.924 304.27C256.228 302.686 254.993 301.319 253.394 300.648C251.803 299.973 249.94 299.918 248.288 300.493C246.628 301.088 245.195 302.232 244 303.559C241.602 306.243 239.985 309.6 239.025 313.092Z" fill="#263238"/>
<path d="M157.71 335.898C158.559 334.298 159.808 332.912 161.266 331.818C162.722 330.723 164.394 329.874 166.194 329.458C167.984 329.029 169.907 329.022 171.698 329.566C173.489 330.102 175.103 331.152 176.395 332.491C177.696 333.829 178.668 335.453 179.336 337.18C179.992 338.911 180.385 340.766 180.246 342.662C180.152 343.595 179.963 344.602 179.224 345.409C178.858 345.806 178.293 346.068 177.741 346.077C177.212 346.072 176.711 345.994 176.225 345.734C175.742 345.485 175.355 345.052 175.134 344.573C174.91 344.094 174.826 343.586 174.803 343.095C174.768 342.109 174.981 341.173 175.27 340.282C175.861 338.499 176.831 336.892 177.964 335.435C179.104 333.981 180.445 332.685 181.948 331.607C184.929 329.442 188.727 328.239 192.432 328.724C194.261 328.971 196.075 329.499 197.676 330.432C199.291 331.334 200.691 332.586 201.832 334.017C202.973 335.454 203.862 337.069 204.546 338.751C205.231 340.435 205.736 342.192 205.984 343.986C205.245 340.459 203.795 337.034 201.485 334.301C200.341 332.935 198.962 331.763 197.397 330.937C195.846 330.081 194.105 329.621 192.353 329.425C188.833 329.042 185.262 330.164 182.422 332.266C179.586 334.352 177.265 337.264 176.092 340.558C175.816 341.379 175.623 342.238 175.649 343.065C175.668 343.886 175.957 344.675 176.616 345.007C176.927 345.186 177.348 345.255 177.716 345.262C178.072 345.252 178.389 345.11 178.643 344.847C179.157 344.311 179.377 343.435 179.456 342.593C179.594 340.874 179.238 339.095 178.623 337.452C178 335.805 177.074 334.269 175.878 332.983C174.683 331.699 173.179 330.698 171.514 330.153C169.851 329.599 168.029 329.554 166.297 329.92C162.832 330.657 159.622 332.824 157.71 335.898Z" fill="#263238"/>
<path d="M116.996 123.382C116.896 119.761 116.128 116.115 114.443 112.939C113.599 111.365 112.48 109.911 111.01 108.937C109.543 107.985 107.722 107.593 106.015 107.87C104.302 108.139 102.777 109.173 101.723 110.543C101.188 111.228 100.77 112.003 100.482 112.818C100.202 113.629 100.045 114.504 100.167 115.304C100.227 115.699 100.373 116.066 100.61 116.312C100.723 116.443 100.87 116.525 101.026 116.591C101.1 116.631 101.195 116.635 101.276 116.662C101.361 116.679 101.415 116.654 101.487 116.664C102.086 116.55 102.674 115.759 103.072 115.027C103.905 113.496 104.382 111.743 104.708 109.997C105.334 106.493 105.299 102.804 104.207 99.4191C103.649 97.7409 102.834 96.1332 101.658 94.8193C100.489 93.5081 99.0614 92.4222 97.3982 91.7561C96.6124 91.3231 95.743 91.1145 94.8964 90.8382C94.4784 90.6745 94.0243 90.6675 93.5896 90.5733C93.1487 90.5161 92.714 90.3877 92.2652 90.4009C90.4814 90.2451 88.688 90.5029 86.9465 90.9262C83.4661 91.8493 80.2488 93.7132 77.519 96.1006C78.8038 94.8114 80.277 93.7149 81.8346 92.7645C83.4001 91.83 85.0615 91.023 86.8303 90.51C88.6 90.0304 90.4454 89.7277 92.2986 89.8456C92.7642 89.8227 93.2174 89.9433 93.6776 89.9934C94.1317 90.0797 94.606 90.0805 95.0442 90.2389C95.9313 90.5038 96.8456 90.7071 97.6719 91.1357C99.409 91.7798 100.986 92.9185 102.229 94.3151C103.492 95.709 104.367 97.4074 104.965 99.1657C106.135 102.713 106.195 106.518 105.571 110.153C105.215 111.968 104.72 113.77 103.802 115.436C103.577 115.853 103.299 116.253 102.974 116.629C102.626 116.983 102.227 117.373 101.596 117.476C101.258 117.507 100.982 117.451 100.725 117.347C100.464 117.238 100.21 117.082 100.023 116.869C99.6317 116.451 99.4513 115.923 99.3765 115.427C99.2357 114.42 99.4337 113.456 99.7461 112.557C100.071 111.661 100.533 110.82 101.122 110.076C102.274 108.578 104.005 107.453 105.91 107.204C107.798 106.94 109.76 107.417 111.317 108.477C112.868 109.558 113.999 111.103 114.823 112.741C115.641 114.392 116.181 116.158 116.538 117.947C116.894 119.737 117.06 121.564 116.996 123.382Z" fill="#263238"/>
<path d="M311.316 169.286C307.771 168.538 304.046 168.434 300.564 169.332C298.837 169.786 297.163 170.535 295.872 171.736C294.604 172.94 293.798 174.62 293.668 176.344C293.53 178.073 294.18 179.798 295.266 181.142C295.807 181.822 296.464 182.408 297.188 182.879C297.912 183.34 298.726 183.698 299.533 183.766C299.931 183.799 300.322 183.743 300.616 183.57C300.769 183.492 300.883 183.368 300.985 183.232C301.041 183.169 301.066 183.078 301.112 183.005C301.149 182.928 301.137 182.868 301.164 182.802C301.193 182.192 300.56 181.436 299.942 180.879C298.647 179.712 297.054 178.839 295.433 178.114C292.172 176.688 288.576 175.861 285.029 176.133C283.268 176.285 281.514 176.702 279.961 177.538C278.413 178.368 277.025 179.504 275.989 180.965C275.384 181.629 274.979 182.425 274.513 183.184C274.256 183.552 274.144 183.992 273.951 184.393C273.792 184.808 273.566 185.201 273.475 185.64C272.907 187.338 272.739 189.142 272.744 190.934C272.83 194.533 273.892 198.097 275.576 201.309C274.622 199.759 273.9 198.071 273.339 196.334C272.796 194.594 272.399 192.79 272.313 190.95C272.26 189.117 272.396 187.252 272.943 185.477C273.03 185.019 273.252 184.606 273.409 184.17C273.599 183.749 273.711 183.288 273.967 182.899C274.431 182.098 274.842 181.257 275.452 180.553C276.484 179.013 277.959 177.746 279.607 176.864C281.258 175.96 283.113 175.506 284.962 175.334C288.685 175.025 292.399 175.854 295.788 177.309C297.47 178.078 299.107 178.98 300.512 180.262C300.865 180.578 301.189 180.942 301.479 181.346C301.742 181.766 302.027 182.246 301.981 182.884C301.932 183.219 301.814 183.475 301.652 183.701C301.486 183.929 301.273 184.139 301.023 184.271C300.526 184.555 299.971 184.607 299.47 184.564C298.458 184.465 297.567 184.048 296.766 183.535C295.97 183.01 295.26 182.364 294.673 181.617C293.485 180.148 292.796 178.202 292.997 176.292C293.181 174.395 294.103 172.597 295.496 171.331C296.909 170.075 298.675 169.337 300.46 168.917C302.257 168.508 304.1 168.394 305.923 168.464C307.747 168.534 309.563 168.799 311.316 169.286Z" fill="#263238"/>
<path d="M256.835 112.35C256.233 110.266 256.152 108.036 256.491 105.882C256.828 103.729 257.557 101.611 258.749 99.7558C259.923 97.899 261.561 96.293 263.541 95.2695C265.517 94.2382 267.768 93.7902 269.984 93.858C272.206 93.9178 274.39 94.4934 276.401 95.4103C278.403 96.3405 280.284 97.5971 281.741 99.3255C282.435 100.196 283.106 101.21 283.146 102.485C283.164 103.114 282.908 103.786 282.457 104.242C282.01 104.67 281.522 105.017 280.906 105.196C280.301 105.382 279.628 105.336 279.051 105.116C278.472 104.898 277.983 104.539 277.56 104.143C276.716 103.339 276.118 102.366 275.625 101.366C274.644 99.3554 274.129 97.1747 273.881 94.9862C273.639 92.7941 273.701 90.5686 274.082 88.3941C274.818 84.0574 277.053 79.8695 280.613 77.1873C282.377 75.8699 284.363 74.8034 286.507 74.2604C288.636 73.6787 290.877 73.5758 293.049 73.8407C295.225 74.1099 297.337 74.7409 299.334 75.6024C301.33 76.4648 303.236 77.5402 304.957 78.8602C301.382 76.4419 297.274 74.7101 292.999 74.2877C290.872 74.0712 288.702 74.2164 286.661 74.8174C284.606 75.3806 282.72 76.4446 281.046 77.7452C279.392 79.0696 277.984 80.6985 276.955 82.5509C275.918 84.3989 275.24 86.4414 274.882 88.534C274.196 92.7123 274.639 97.1624 276.404 100.988C276.858 101.928 277.416 102.832 278.142 103.53C278.855 104.225 279.796 104.681 280.677 104.402C281.11 104.29 281.536 103.991 281.868 103.676C282.18 103.357 282.342 102.943 282.336 102.488C282.325 101.564 281.768 100.622 281.126 99.8288C279.792 98.2272 277.991 96.9996 276.08 96.1038C274.158 95.2123 272.069 94.6676 269.958 94.5717C267.849 94.4749 265.711 94.8806 263.82 95.8178C261.924 96.7453 260.321 98.2422 259.145 100.014C256.797 103.564 255.877 108.12 256.835 112.35Z" fill="#263238"/>
<path d="M154.766 336.092C152.794 335.47 150.694 336.565 150.072 338.535C149.45 340.509 150.546 342.608 152.518 343.23C154.488 343.852 156.587 342.758 157.208 340.786C157.83 338.815 156.737 336.712 154.766 336.092ZM156.774 340.647C156.229 342.38 154.384 343.341 152.654 342.796C150.923 342.25 149.962 340.406 150.509 338.674C151.054 336.943 152.898 335.982 154.631 336.528C156.359 337.073 157.32 338.916 156.774 340.647ZM154.766 336.092C152.794 335.47 150.694 336.565 150.072 338.535C149.45 340.509 150.546 342.608 152.518 343.23C154.488 343.852 156.587 342.758 157.208 340.786C157.83 338.815 156.737 336.712 154.766 336.092ZM156.774 340.647C156.229 342.38 154.384 343.341 152.654 342.796C150.923 342.25 149.962 340.406 150.509 338.674C151.054 336.943 152.898 335.982 154.631 336.528C156.359 337.073 157.32 338.916 156.774 340.647ZM154.766 336.092C152.794 335.47 150.694 336.565 150.072 338.535C149.45 340.509 150.546 342.608 152.518 343.23C154.488 343.852 156.587 342.758 157.208 340.786C157.83 338.815 156.737 336.712 154.766 336.092ZM156.774 340.647C156.229 342.38 154.384 343.341 152.654 342.796C150.923 342.25 149.962 340.406 150.509 338.674C151.054 336.943 152.898 335.982 154.631 336.528C156.359 337.073 157.32 338.916 156.774 340.647ZM156.013 332.138C151.855 330.828 147.428 333.138 146.119 337.29C144.81 341.444 147.116 345.875 151.271 347.183C155.423 348.491 159.854 346.184 161.162 342.03C162.472 337.879 160.166 333.446 156.013 332.138ZM157.764 340.959C157.047 343.235 154.616 344.502 152.343 343.786C150.07 343.069 148.802 340.637 149.519 338.362C150.236 336.087 152.669 334.822 154.942 335.538C157.214 336.254 158.481 338.686 157.764 340.959ZM157.208 340.785C157.83 338.814 156.737 336.712 154.766 336.091C152.794 335.47 150.694 336.564 150.072 338.535C149.45 340.508 150.546 342.607 152.518 343.229C154.488 343.851 156.587 342.757 157.208 340.785ZM156.774 340.647C156.229 342.38 154.384 343.341 152.654 342.796C150.923 342.25 149.962 340.406 150.509 338.674C151.054 336.943 152.898 335.982 154.631 336.528C156.359 337.073 157.32 338.916 156.774 340.647ZM154.766 336.092C152.794 335.47 150.694 336.565 150.072 338.535C149.45 340.509 150.546 342.608 152.518 343.23C154.488 343.852 156.587 342.758 157.208 340.786C157.83 338.815 156.737 336.712 154.766 336.092ZM156.774 340.647C156.229 342.38 154.384 343.341 152.654 342.796C150.923 342.25 149.962 340.406 150.509 338.674C151.054 336.943 152.898 335.982 154.631 336.528C156.359 337.073 157.32 338.916 156.774 340.647ZM154.766 336.092C152.794 335.47 150.694 336.565 150.072 338.535C149.45 340.509 150.546 342.608 152.518 343.23C154.488 343.852 156.587 342.758 157.208 340.786C157.83 338.815 156.737 336.712 154.766 336.092ZM156.774 340.647C156.229 342.38 154.384 343.341 152.654 342.796C150.923 342.25 149.962 340.406 150.509 338.674C151.054 336.943 152.898 335.982 154.631 336.528C156.359 337.073 157.32 338.916 156.774 340.647Z" fill="#455A64"/>
<path d="M152.814 347.326L149.921 346.415L149.437 348.513L152.009 349.323L152.814 347.326Z" fill="#455A64"/>
<path d="M147.616 344.617L146.215 341.927L144.389 343.068L145.634 345.46L147.616 344.617Z" fill="#455A64"/>
<path d="M145.856 339.025L146.768 336.133L144.67 335.648L143.859 338.22L145.856 339.025Z" fill="#455A64"/>
<path d="M148.566 333.828L151.255 332.427L150.115 330.6L147.723 331.846L148.566 333.828Z" fill="#455A64"/>
<path d="M154.156 332.068L157.049 332.978L157.535 330.881L154.961 330.071L154.156 332.068Z" fill="#455A64"/>
<path d="M159.354 334.776L160.755 337.466L162.582 336.326L161.336 333.934L159.354 334.776Z" fill="#455A64"/>
<path d="M161.115 340.368L160.203 343.26L162.301 343.746L163.112 341.173L161.115 340.368Z" fill="#455A64"/>
<path d="M158.405 345.566L155.715 346.967L156.856 348.794L159.249 347.548L158.405 345.566Z" fill="#455A64"/>
<path d="M300.672 310.946C304.639 305.601 303.521 298.05 298.176 294.083C292.829 290.115 285.278 291.233 281.312 296.577C277.344 301.924 278.462 309.475 283.809 313.443C289.153 317.41 296.704 316.294 300.672 310.946ZM295.513 307.117C293.658 309.615 290.134 310.137 287.637 308.285C285.139 306.431 284.617 302.906 286.471 300.407C288.324 297.911 291.849 297.389 294.347 299.243C296.843 301.096 297.365 304.621 295.513 307.117Z" fill="#263238"/>
<path d="M285.967 314.422L282.245 311.66L280.496 314.448L283.806 316.905L285.967 314.422Z" fill="#263238"/>
<path d="M279.813 307.91L279.134 303.324L275.925 304.058L276.529 308.137L279.813 307.91Z" fill="#263238"/>
<path d="M280.066 298.954L282.829 295.231L280.041 293.482L277.584 296.792L280.066 298.954Z" fill="#263238"/>
<path d="M286.578 292.8L291.164 292.12L290.43 288.912L286.351 289.516L286.578 292.8Z" fill="#263238"/>
<path d="M295.535 293.052L299.257 295.815L301.006 293.028L297.696 290.571L295.535 293.052Z" fill="#263238"/>
<path d="M301.689 299.565L302.368 304.151L305.576 303.417L304.973 299.338L301.689 299.565Z" fill="#263238"/>
<path d="M301.436 308.522L298.673 312.244L301.461 313.994L303.918 310.683L301.436 308.522Z" fill="#263238"/>
<path d="M294.925 314.676L290.339 315.354L291.073 318.562L295.152 317.96L294.925 314.676Z" fill="#263238"/>
<path d="M286.673 304.341L289.234 307.571L293.312 306.965L294.826 303.135L292.267 299.907L288.19 300.509L286.673 304.341ZM291.527 302.689C292.108 303.12 292.229 303.936 291.798 304.516C291.368 305.095 290.551 305.218 289.97 304.787C289.392 304.357 289.27 303.537 289.7 302.959C290.131 302.379 290.949 302.26 291.527 302.689Z" fill="#263238"/>
<path d="M309.707 76.208C307.982 75.6642 306.143 76.6225 305.599 78.3464C305.056 80.0739 306.014 81.9104 307.74 82.4543C309.464 82.9981 311.3 82.0407 311.844 80.315C312.388 78.5911 311.431 76.751 309.707 76.208ZM311.465 80.1944C310.987 81.7107 309.374 82.5511 307.858 82.0741C306.344 81.5971 305.504 79.9832 305.98 78.467C306.457 76.9525 308.071 76.1121 309.588 76.5891C311.101 77.066 311.942 78.6799 311.465 80.1944ZM309.707 76.208C307.982 75.6642 306.143 76.6225 305.599 78.3464C305.056 80.0739 306.014 81.9104 307.74 82.4543C309.464 82.9981 311.3 82.0407 311.844 80.315C312.388 78.5911 311.431 76.751 309.707 76.208ZM311.465 80.1944C310.987 81.7107 309.374 82.5511 307.858 82.0741C306.344 81.5971 305.504 79.9832 305.98 78.467C306.457 76.9525 308.071 76.1121 309.588 76.5891C311.101 77.066 311.942 78.6799 311.465 80.1944ZM309.707 76.208C307.982 75.6642 306.143 76.6225 305.599 78.3464C305.056 80.0739 306.014 81.9104 307.74 82.4543C309.464 82.9981 311.3 82.0407 311.844 80.315C312.388 78.5911 311.431 76.751 309.707 76.208ZM311.465 80.1944C310.987 81.7107 309.374 82.5511 307.858 82.0741C306.344 81.5971 305.504 79.9832 305.98 78.467C306.457 76.9525 308.071 76.1121 309.588 76.5891C311.101 77.066 311.942 78.6799 311.465 80.1944ZM310.799 72.7487C307.161 71.603 303.287 73.6243 302.141 77.257C300.996 80.8914 303.013 84.7687 306.65 85.9135C310.284 87.0584 314.16 85.0397 315.305 81.4044C316.451 77.7718 314.432 73.8927 310.799 72.7487ZM312.331 80.4672C311.704 82.4578 309.576 83.5675 307.586 82.94C305.597 82.3126 304.488 80.1847 305.115 78.1942C305.743 76.2036 307.872 75.0957 309.861 75.7231C311.849 76.3497 312.958 78.4775 312.331 80.4672ZM311.845 80.315C312.389 78.5911 311.432 76.751 309.708 76.208C307.982 75.6642 306.144 76.6225 305.6 78.3464C305.056 80.0739 306.015 81.9104 307.74 82.4543C309.464 82.9972 311.301 82.0407 311.845 80.315ZM311.465 80.1944C310.987 81.7107 309.374 82.5511 307.858 82.0741C306.344 81.5971 305.504 79.9832 305.98 78.467C306.457 76.9525 308.071 76.1121 309.588 76.5891C311.101 77.066 311.942 78.6799 311.465 80.1944ZM309.707 76.208C307.982 75.6642 306.143 76.6225 305.599 78.3464C305.056 80.0739 306.014 81.9104 307.74 82.4543C309.464 82.9981 311.3 82.0407 311.844 80.315C312.388 78.5911 311.431 76.751 309.707 76.208ZM311.465 80.1944C310.987 81.7107 309.374 82.5511 307.858 82.0741C306.344 81.5971 305.504 79.9832 305.98 78.467C306.457 76.9525 308.071 76.1121 309.588 76.5891C311.101 77.066 311.942 78.6799 311.465 80.1944ZM309.707 76.208C307.982 75.6642 306.143 76.6225 305.599 78.3464C305.056 80.0739 306.014 81.9104 307.74 82.4543C309.464 82.9981 311.3 82.0407 311.844 80.315C312.388 78.5911 311.431 76.751 309.707 76.208ZM311.465 80.1944C310.987 81.7107 309.374 82.5511 307.858 82.0741C306.344 81.5971 305.504 79.9832 305.98 78.467C306.457 76.9525 308.071 76.1121 309.588 76.5891C311.101 77.066 311.942 78.6799 311.465 80.1944Z" fill="#263238"/>
<path d="M308.001 86.0387L305.471 85.2415L305.046 87.0771L307.297 87.7864L308.001 86.0387Z" fill="#263238"/>
<path d="M303.451 83.6681L302.226 81.3149L300.627 82.312L301.718 84.4055L303.451 83.6681Z" fill="#263238"/>
<path d="M301.912 78.7751L302.71 76.2442L300.874 75.8201L300.165 78.0711L301.912 78.7751Z" fill="#263238"/>
<path d="M304.283 74.2263L306.637 73.0004L305.639 71.4023L303.546 72.4927L304.283 74.2263Z" fill="#263238"/>
<path d="M309.175 72.6864L311.706 73.4837L312.131 71.648L309.88 70.9387L309.175 72.6864Z" fill="#263238"/>
<path d="M313.724 75.057L314.95 77.411L316.548 76.4131L315.458 74.3196L313.724 75.057Z" fill="#263238"/>
<path d="M315.264 79.9502L314.467 82.4811L316.302 82.9061L317.012 80.6551L315.264 79.9502Z" fill="#263238"/>
<path d="M312.893 84.4988L310.54 85.7246L311.537 87.3227L313.63 86.2324L312.893 84.4988Z" fill="#263238"/>
<path d="M276.078 201.929C274.353 201.386 272.514 202.344 271.97 204.068C271.427 205.795 272.385 207.632 274.111 208.176C275.835 208.72 277.671 207.762 278.215 206.036C278.758 204.312 277.802 202.472 276.078 201.929ZM277.835 205.916C277.357 207.432 275.744 208.272 274.229 207.796C272.715 207.319 271.875 205.705 272.351 204.188C272.828 202.674 274.442 201.834 275.959 202.31C277.471 202.787 278.313 204.401 277.835 205.916ZM276.078 201.929C274.353 201.386 272.514 202.344 271.97 204.068C271.427 205.795 272.385 207.632 274.111 208.176C275.835 208.72 277.671 207.762 278.215 206.036C278.758 204.312 277.802 202.472 276.078 201.929ZM277.835 205.916C277.357 207.432 275.744 208.272 274.229 207.796C272.715 207.319 271.875 205.705 272.351 204.188C272.828 202.674 274.442 201.834 275.959 202.31C277.471 202.787 278.313 204.401 277.835 205.916ZM276.078 201.929C274.353 201.386 272.514 202.344 271.97 204.068C271.427 205.795 272.385 207.632 274.111 208.176C275.835 208.72 277.671 207.762 278.215 206.036C278.758 204.312 277.802 202.472 276.078 201.929ZM277.835 205.916C277.357 207.432 275.744 208.272 274.229 207.796C272.715 207.319 271.875 205.705 272.351 204.188C272.828 202.674 274.442 201.834 275.959 202.31C277.471 202.787 278.313 204.401 277.835 205.916ZM277.169 198.47C273.532 197.324 269.657 199.346 268.511 202.978C267.366 206.614 269.383 210.49 273.02 211.635C276.654 212.78 280.53 210.761 281.675 207.126C282.821 203.493 280.802 199.614 277.169 198.47ZM278.702 206.189C278.074 208.179 275.946 209.289 273.957 208.661C271.968 208.035 270.858 205.906 271.486 203.916C272.113 201.925 274.243 200.817 276.231 201.445C278.219 202.071 279.328 204.199 278.702 206.189ZM278.215 206.036C278.758 204.312 277.802 202.472 276.078 201.929C274.353 201.386 272.514 202.344 271.97 204.068C271.427 205.795 272.385 207.632 274.111 208.176C275.835 208.72 277.671 207.762 278.215 206.036ZM277.835 205.916C277.357 207.432 275.744 208.272 274.229 207.796C272.715 207.319 271.875 205.705 272.351 204.188C272.828 202.674 274.442 201.834 275.959 202.31C277.471 202.787 278.313 204.401 277.835 205.916ZM276.078 201.929C274.353 201.386 272.514 202.344 271.97 204.068C271.427 205.795 272.385 207.632 274.111 208.176C275.835 208.72 277.671 207.762 278.215 206.036C278.758 204.312 277.802 202.472 276.078 201.929ZM277.835 205.916C277.357 207.432 275.744 208.272 274.229 207.796C272.715 207.319 271.875 205.705 272.351 204.188C272.828 202.674 274.442 201.834 275.959 202.31C277.471 202.787 278.313 204.401 277.835 205.916ZM276.078 201.929C274.353 201.386 272.514 202.344 271.97 204.068C271.427 205.795 272.385 207.632 274.111 208.176C275.835 208.72 277.671 207.762 278.215 206.036C278.758 204.312 277.802 202.472 276.078 201.929ZM277.835 205.916C277.357 207.432 275.744 208.272 274.229 207.796C272.715 207.319 271.875 205.705 272.351 204.188C272.828 202.674 274.442 201.834 275.959 202.31C277.471 202.787 278.313 204.401 277.835 205.916Z" fill="#263238"/>
<path d="M274.372 211.76L271.841 210.963L271.417 212.798L273.668 213.508L274.372 211.76Z" fill="#263238"/>
<path d="M269.821 209.389L268.597 207.036L266.998 208.033L268.088 210.127L269.821 209.389Z" fill="#263238"/>
<path d="M268.282 204.497L269.081 201.966L267.245 201.542L266.536 203.793L268.282 204.497Z" fill="#263238"/>
<path d="M270.653 199.948L273.007 198.723L272.01 197.124L269.916 198.214L270.653 199.948Z" fill="#263238"/>
<path d="M275.545 198.408L278.076 199.206L278.501 197.37L276.25 196.661L275.545 198.408Z" fill="#263238"/>
<path d="M280.095 200.778L281.321 203.132L282.919 202.135L281.828 200.041L280.095 200.778Z" fill="#263238"/>
<path d="M281.634 205.671L280.837 208.202L282.673 208.627L283.382 206.376L281.634 205.671Z" fill="#263238"/>
<path d="M279.263 210.22L276.91 211.446L277.907 213.044L280 211.954L279.263 210.22Z" fill="#263238"/>
<path d="M83.6158 102.953C84.9728 97.3841 81.5575 91.7688 75.9888 90.4119C70.4184 89.0549 64.8023 92.4702 63.4453 98.0388C62.0884 103.609 65.5036 109.225 71.074 110.582C76.6436 111.938 82.2589 108.523 83.6158 102.953ZM78.2408 101.643C77.6063 104.246 74.9857 105.841 72.3844 105.206C69.7813 104.572 68.1868 101.951 68.8213 99.3483C69.4549 96.747 72.0764 95.1533 74.6794 95.7878C77.2798 96.4214 78.8744 99.042 78.2408 101.643Z" fill="#263238"/>
<path d="M73.1145 110.636L69.2363 109.69L68.7822 112.488L72.2309 113.328L73.1145 110.636Z" fill="#263238"/>
<path d="M66.0523 107.531L63.9782 104.12L61.6787 105.777L63.5232 108.81L66.0523 107.531Z" fill="#263238"/>
<path d="M63.2524 100.34L64.1975 96.4628L61.4 96.0078L60.5596 99.4574L63.2524 100.34Z" fill="#263238"/>
<path d="M66.3576 93.2774L69.7676 91.2032L68.1115 88.9038L65.0781 90.7492L66.3576 93.2774Z" fill="#263238"/>
<path d="M73.5483 90.4789L77.4265 91.424L77.8815 88.6265L74.4319 87.7861L73.5483 90.4789Z" fill="#263238"/>
<path d="M80.6104 93.5835L82.6845 96.9944L84.9839 95.3373L83.1395 92.304L80.6104 93.5835Z" fill="#263238"/>
<path d="M83.41 100.774L82.4648 104.652L85.2624 105.106L86.1028 101.657L83.41 100.774Z" fill="#263238"/>
<path d="M80.3045 107.837L76.8945 109.911L78.5516 112.211L81.5849 110.365L80.3045 107.837Z" fill="#263238"/>
<path d="M70.2996 102.401L73.4122 104.106L76.4438 102.26L76.3619 98.7142L73.2511 97.0105L70.2178 98.8532L70.2996 102.401ZM73.597 99.4648C74.2024 99.6118 74.5711 100.219 74.4233 100.824C74.2763 101.427 73.6691 101.799 73.0637 101.651C72.4609 101.504 72.0904 100.894 72.2374 100.291C72.3852 99.6866 72.9942 99.3179 73.597 99.4648Z" fill="#263238"/>
<path d="M318.202 210.266C315.834 206.661 314.504 202.607 314.504 198.321C314.504 183.189 331.121 170.92 351.606 170.92C372.092 170.92 388.694 183.19 388.694 198.321C388.694 213.453 372.092 225.723 351.606 225.723C341.673 225.723 332.668 222.845 326.015 218.142L313.235 221.391L318.202 210.266Z" fill="white"/>
<path d="M318.202 210.266C315.969 206.938 314.569 203.009 314.422 198.973C314.311 194.945 315.303 190.869 317.372 187.384C319.394 183.873 322.276 180.912 325.533 178.531C328.792 176.137 332.462 174.328 336.293 173.057C340.125 171.776 344.117 171.009 348.144 170.687C352.177 170.392 356.237 170.642 360.223 171.301C361.213 171.504 362.218 171.64 363.196 171.899L366.126 172.688L368.989 173.699C369.941 174.042 370.845 174.506 371.776 174.904C375.43 176.642 378.856 178.919 381.737 181.794C384.611 184.658 386.929 188.156 388.152 192.072C389.371 195.973 389.46 200.255 388.273 204.178C387.118 208.114 384.854 211.649 382.019 214.55C379.177 217.463 375.779 219.781 372.143 221.559C368.509 223.357 364.593 224.529 360.622 225.25C356.643 225.933 352.584 226.225 348.555 225.941C344.527 225.687 340.526 224.951 336.693 223.686C332.864 222.425 329.179 220.664 325.9 218.306L326.066 218.337L313.26 221.486L313.066 221.533L313.148 221.353L318.202 210.266ZM318.202 210.266L313.323 221.429L313.212 221.296L325.966 217.946L326.054 217.923L326.132 217.977C332.712 222.52 340.649 224.884 348.593 225.309C352.574 225.555 356.578 225.229 360.489 224.522C364.396 223.796 368.245 222.636 371.804 220.86C375.364 219.106 378.681 216.827 381.436 213.984C384.186 211.153 386.36 207.727 387.459 203.942C388.592 200.168 388.483 196.071 387.314 192.329C386.151 188.569 383.928 185.18 381.141 182.387C378.349 179.584 375.009 177.346 371.432 175.631C370.52 175.239 369.635 174.78 368.701 174.442L365.893 173.44L363.014 172.657C362.054 172.398 361.065 172.264 360.092 172.06C356.171 171.395 352.172 171.154 348.195 171.409C344.224 171.692 340.28 172.413 336.49 173.643C332.701 174.863 329.067 176.614 325.834 178.945C322.602 181.263 319.754 184.158 317.7 187.575C315.61 190.974 314.567 194.973 314.613 198.966C314.693 202.968 316.021 206.904 318.202 210.266Z" fill="#263238"/>
<path d="M332.52 202.808V204.845H324.217V192.887H332.368V194.926H326.542V197.805H331.577V199.692H326.542V202.807L332.52 202.808Z" fill="#263238"/>
<path d="M334.34 204.846V192.888H339.629C340.179 192.888 340.686 193.003 341.152 193.234C341.617 193.465 342.019 193.767 342.356 194.143C342.693 194.52 342.957 194.947 343.147 195.423C343.338 195.9 343.433 196.381 343.433 196.863C343.433 197.638 343.239 198.342 342.852 198.977C342.466 199.611 341.94 200.069 341.278 200.349L344.007 204.846H341.396L338.955 200.837H336.664V204.846H334.34ZM336.664 198.799H339.578C339.791 198.799 339.99 198.749 340.175 198.648C340.361 198.547 340.52 198.409 340.656 198.235C340.79 198.062 340.897 197.857 340.975 197.621C341.054 197.385 341.094 197.132 341.094 196.863C341.094 196.582 341.048 196.325 340.959 196.089C340.869 195.853 340.749 195.649 340.597 195.475C340.445 195.3 340.271 195.166 340.075 195.07C339.878 194.975 339.679 194.926 339.476 194.926H336.665V198.799H336.664Z" fill="#263238"/>
<path d="M345.538 204.846V192.888H350.826C351.376 192.888 351.884 193.003 352.35 193.234C352.815 193.465 353.216 193.767 353.554 194.143C353.891 194.52 354.155 194.947 354.345 195.423C354.536 195.9 354.631 196.381 354.631 196.863C354.631 197.638 354.437 198.342 354.05 198.977C353.664 199.611 353.138 200.069 352.476 200.349L355.204 204.846H352.593L350.151 200.837H347.861V204.846H345.538ZM347.863 198.799H350.775C350.988 198.799 351.188 198.749 351.373 198.648C351.559 198.547 351.718 198.409 351.853 198.235C351.988 198.062 352.094 197.857 352.173 197.621C352.252 197.385 352.292 197.132 352.292 196.863C352.292 196.582 352.246 196.325 352.157 196.089C352.066 195.853 351.947 195.649 351.794 195.475C351.643 195.3 351.469 195.166 351.273 195.07C351.075 194.975 350.877 194.926 350.674 194.926H347.863V198.799Z" fill="#263238"/>
<path d="M361.84 204.929C360.965 204.929 360.171 204.758 359.457 204.416C358.743 204.074 358.132 203.619 357.621 203.052C357.11 202.485 356.715 201.837 356.433 201.107C356.154 200.378 356.014 199.631 356.014 198.868C356.014 198.07 356.162 197.307 356.46 196.577C356.757 195.847 357.167 195.202 357.688 194.64C358.211 194.079 358.831 193.633 359.55 193.302C360.268 192.971 361.048 192.804 361.89 192.804C362.754 192.804 363.543 192.981 364.257 193.335C364.97 193.689 365.579 194.152 366.084 194.725C366.589 195.297 366.982 195.949 367.263 196.678C367.543 197.409 367.683 198.149 367.683 198.901C367.683 199.698 367.537 200.459 367.246 201.183C366.954 201.907 366.549 202.547 366.033 203.103C365.517 203.659 364.899 204.103 364.181 204.434C363.462 204.764 362.682 204.929 361.84 204.929ZM358.37 198.867C358.37 199.383 358.449 199.883 358.606 200.365C358.764 200.849 358.992 201.275 359.288 201.646C359.586 202.016 359.951 202.314 360.383 202.538C360.815 202.763 361.306 202.875 361.857 202.875C362.418 202.875 362.915 202.761 363.347 202.53C363.779 202.301 364.143 201.994 364.441 201.612C364.739 201.23 364.963 200.801 365.116 200.324C365.267 199.847 365.343 199.361 365.343 198.868C365.343 198.352 365.261 197.852 365.099 197.369C364.936 196.887 364.706 196.459 364.409 196.089C364.111 195.718 363.746 195.423 363.314 195.205C362.882 194.986 362.396 194.876 361.858 194.876C361.295 194.876 360.796 194.991 360.359 195.222C359.921 195.452 359.556 195.755 359.264 196.131C358.972 196.507 358.75 196.934 358.599 197.411C358.446 197.887 358.37 198.373 358.37 198.867Z" fill="#263238"/>
<path d="M369.47 204.846V192.888H374.759C375.309 192.888 375.816 193.003 376.282 193.234C376.747 193.465 377.149 193.767 377.486 194.143C377.823 194.52 378.087 194.947 378.277 195.423C378.468 195.9 378.563 196.381 378.563 196.863C378.563 197.638 378.369 198.342 377.982 198.977C377.596 199.611 377.07 200.069 376.408 200.349L379.137 204.846H376.526L374.084 200.837H371.794V204.846H369.47ZM371.794 198.799H374.707C374.92 198.799 375.12 198.749 375.305 198.648C375.491 198.547 375.651 198.409 375.785 198.235C375.92 198.062 376.027 197.857 376.105 197.621C376.184 197.385 376.224 197.132 376.224 196.863C376.224 196.582 376.178 196.325 376.089 196.089C375.998 195.853 375.879 195.649 375.727 195.475C375.575 195.3 375.401 195.166 375.205 195.07C375.008 194.975 374.809 194.926 374.606 194.926H371.795V198.799H371.794Z" fill="#263238"/>
</svg>
