<svg width="676" height="266" viewBox="0 0 676 266" fill="none" xmlns="http://www.w3.org/2000/svg">
<path d="M480.31 79.7388H200.621V264.723H480.31V79.7388Z" fill="#16B57F"/>
<path opacity="0.4" d="M480.31 79.7388H200.621V264.723H480.31V79.7388Z" fill="white"/>
<path opacity="0.5" d="M315.549 238.299H200.619V264.725H315.549V238.299Z" fill="#16B57F"/>
<path opacity="0.5" d="M480.307 238.299H365.377V264.725H480.307V238.299Z" fill="#16B57F"/>
<path d="M481.991 73.717H198.953V79.7394H481.991V73.717Z" fill="#16B57F"/>
<path opacity="0.5" d="M480.308 79.7388H200.619V87.8265L480.308 84.8347V79.7388Z" fill="#16B57F"/>
<path d="M480.312 92.0452H200.625V99.7444H480.312V92.0452Z" fill="white"/>
<path opacity="0.5" d="M480.312 99.7444H200.625V102.352L480.312 101.048V99.7444Z" fill="#16B57F"/>
<path d="M480.312 167.379H200.625V175.079H480.312V167.379Z" fill="white"/>
<path opacity="0.5" d="M480.312 175.078H200.625V177.686L480.312 176.382V175.078Z" fill="#16B57F"/>
<path d="M252.798 111.756H231.252V160.793H252.798V111.756Z" fill="white"/>
<path d="M250.227 114.217H233.82V158.333H250.227V114.217Z" fill="#455A64"/>
<g opacity="0.1">
<path d="M250.227 126.318L233.82 146.683V158.331L250.227 137.965V126.318Z" fill="white"/>
<path d="M250.227 117.602L233.82 137.967V143.077L250.227 122.712V117.602Z" fill="white"/>
</g>
<path d="M255.261 108.012H228.793V111.756H255.261V108.012Z" fill="white"/>
<path d="M231.252 113.278V111.756H252.798V112.517L231.252 113.278Z" fill="#EBEBEB"/>
<path d="M292.188 111.753H270.643V160.79H292.188V111.753Z" fill="white"/>
<path d="M289.614 114.214H273.207V158.33H289.614V114.214Z" fill="#455A64"/>
<g opacity="0.1">
<path d="M289.612 126.319L273.205 146.684V158.333L289.612 137.967V126.319Z" fill="white"/>
<path d="M289.612 117.6L273.205 137.965V143.075L289.612 122.71V117.6Z" fill="white"/>
</g>
<path d="M294.648 108.011H268.18V111.755H294.648V108.011Z" fill="white"/>
<path d="M270.643 113.275V111.753H292.188V112.514L270.643 113.275Z" fill="#EBEBEB"/>
<path d="M331.552 111.755H310.006V160.792H331.552V111.755Z" fill="white"/>
<path d="M328.981 114.217H312.574V158.332H328.981V114.217Z" fill="#455A64"/>
<g opacity="0.1">
<path d="M328.981 126.317L312.574 146.682V158.331L328.981 137.965V126.317Z" fill="white"/>
<path d="M328.981 117.601L312.574 137.966V143.076L328.981 122.711V117.601Z" fill="white"/>
</g>
<path d="M334.015 108.012H307.547V111.756H334.015V108.012Z" fill="white"/>
<path d="M310.006 113.277V111.755H331.552V112.516L310.006 113.277Z" fill="#EBEBEB"/>
<path d="M370.917 111.756H349.371V160.792H370.917V111.756Z" fill="white"/>
<path d="M368.346 114.217H351.939V158.332H368.346V114.217Z" fill="#455A64"/>
<g opacity="0.1">
<path d="M368.361 126.319L351.955 146.684V158.332L368.361 137.966V126.319Z" fill="white"/>
<path d="M368.361 117.599L351.955 137.964V143.075L368.361 122.71V117.599Z" fill="white"/>
</g>
<path d="M373.38 108.012H346.912V111.756H373.38V108.012Z" fill="white"/>
<path d="M349.371 113.278V111.756H370.917V112.516L349.371 113.278Z" fill="#EBEBEB"/>
<path d="M410.29 111.753H388.744V160.79H410.29V111.753Z" fill="white"/>
<path d="M407.719 114.214H391.312V158.33H407.719V114.214Z" fill="#455A64"/>
<g opacity="0.1">
<path d="M407.717 126.318L391.311 146.683V158.332L407.717 137.965V126.318Z" fill="white"/>
<path d="M407.717 117.6L391.311 137.965V143.075L407.717 122.71V117.6Z" fill="white"/>
</g>
<path d="M412.753 108.011H386.285V111.755H412.753V108.011Z" fill="white"/>
<path d="M388.744 113.275V111.753H410.29V112.514L388.744 113.275Z" fill="#EBEBEB"/>
<path d="M449.667 111.756H428.121V160.792H449.667V111.756Z" fill="white"/>
<path d="M447.092 114.217H430.686V158.332H447.092V114.217Z" fill="#455A64"/>
<g opacity="0.1">
<path d="M447.09 126.317L430.684 146.682V158.331L447.09 137.965V126.317Z" fill="white"/>
<path d="M447.09 117.601L430.684 137.966V143.076L447.09 122.711V117.601Z" fill="white"/>
</g>
<path d="M452.126 108.012H425.658V111.756H452.126V108.012Z" fill="white"/>
<path d="M428.121 113.278V111.756H449.667V112.516L428.121 113.278Z" fill="#EBEBEB"/>
<path d="M252.798 186.756H231.252V235.793H252.798V186.756Z" fill="white"/>
<path d="M250.227 189.217H233.82V233.333H250.227V189.217Z" fill="#455A64"/>
<g opacity="0.1">
<path d="M250.227 201.318L233.82 221.684V233.331L250.227 212.967V201.318Z" fill="white"/>
<path d="M250.227 192.6L233.82 212.966V218.076L250.227 197.712V192.6Z" fill="white"/>
</g>
<path d="M255.261 183.011H228.793V186.755H255.261V183.011Z" fill="white"/>
<path d="M231.252 188.279V186.756H252.798V187.518L231.252 188.279Z" fill="#EBEBEB"/>
<path d="M292.19 186.754H270.645V235.79H292.19V186.754Z" fill="white"/>
<path d="M289.616 189.216H273.209V233.331H289.616V189.216Z" fill="#455A64"/>
<g opacity="0.1">
<path d="M289.614 201.32L273.207 221.686V233.333L289.614 212.969V201.32Z" fill="white"/>
<path d="M289.614 192.601L273.207 212.967V218.077L289.614 197.712V192.601Z" fill="white"/>
</g>
<path d="M294.65 183.012H268.182V186.755H294.65V183.012Z" fill="white"/>
<path d="M270.645 188.277V186.754H292.19V187.515L270.645 188.277Z" fill="#EBEBEB"/>
<path d="M410.292 186.754H388.746V235.79H410.292V186.754Z" fill="white"/>
<path d="M407.721 189.216H391.314V233.331H407.721V189.216Z" fill="#455A64"/>
<g opacity="0.1">
<path d="M407.719 201.319L391.312 221.685V233.333L407.719 212.968V201.319Z" fill="white"/>
<path d="M407.719 192.6L391.312 212.966V218.076L407.719 197.712V192.6Z" fill="white"/>
</g>
<path d="M412.755 183.012H386.287V186.755H412.755V183.012Z" fill="white"/>
<path d="M388.746 188.277V186.754H410.292V187.515L388.746 188.277Z" fill="#EBEBEB"/>
<path d="M449.667 186.756H428.121V235.793H449.667V186.756Z" fill="white"/>
<path d="M447.092 189.217H430.686V233.333H447.092V189.217Z" fill="#455A64"/>
<g opacity="0.1">
<path d="M447.09 201.318L430.684 221.684V233.331L447.09 212.967V201.318Z" fill="white"/>
<path d="M447.09 192.6L430.684 212.966V218.076L447.09 197.712V192.6Z" fill="white"/>
</g>
<path d="M452.126 183.011H425.658V186.755H452.126V183.011Z" fill="white"/>
<path d="M428.121 188.279V186.756H449.667V187.518L428.121 188.279Z" fill="#EBEBEB"/>
<path d="M313.115 205.054H367.867L340.491 186.031L313.115 205.054Z" fill="white"/>
<path d="M319.52 203.003H361.462L340.491 188.43L319.52 203.003Z" fill="#16B57F"/>
<path opacity="0.5" d="M319.52 203.003H361.462L340.491 188.43L319.52 203.003Z" fill="white"/>
<path opacity="0.5" d="M340.486 188.428L339.346 189.219L359.127 203.001H361.457L340.486 188.428Z" fill="#16B57F"/>
<path d="M367.865 208.553H313.115V210.412H367.865V208.553Z" fill="white"/>
<path d="M366.386 205.053H314.592V208.552H366.386V205.053Z" fill="#16B57F"/>
<path opacity="0.7" d="M366.386 205.053H314.592V208.552H366.386V205.053Z" fill="white"/>
<path d="M322.33 212.559H314.908L314.264 210.408H322.975L322.33 212.559Z" fill="white"/>
<path d="M322.102 212.562H315.164V213.272H322.102V212.562Z" fill="#16B57F"/>
<path opacity="0.7" d="M322.102 212.562H315.164V213.272H322.102V212.562Z" fill="white"/>
<path d="M314.908 262.573H322.33L322.975 264.723H314.264L314.908 262.573Z" fill="white"/>
<path d="M315.162 262.573H322.1V261.862H315.162V262.573Z" fill="#16B57F"/>
<path opacity="0.7" d="M315.162 262.573H322.1V261.862H315.162V262.573Z" fill="white"/>
<path d="M321.701 213.271H315.553V261.863H321.701V213.271Z" fill="white"/>
<path opacity="0.3" d="M316.963 214.344H316.648V260.788H316.963V214.344Z" fill="#16B57F"/>
<path opacity="0.3" d="M318.178 214.344H317.863V260.788H318.178V214.344Z" fill="#16B57F"/>
<path opacity="0.3" d="M319.373 214.344H319.059V260.788H319.373V214.344Z" fill="#16B57F"/>
<path opacity="0.3" d="M320.584 214.344H320.27V260.788H320.584V214.344Z" fill="#16B57F"/>
<path d="M366.394 212.561H358.972L358.328 210.41H367.038L366.394 212.561Z" fill="white"/>
<path d="M366.137 212.56H359.199V213.271H366.137V212.56Z" fill="#16B57F"/>
<path opacity="0.7" d="M366.137 212.56H359.199V213.271H366.137V212.56Z" fill="white"/>
<path d="M358.972 262.574H366.394L367.038 264.725H358.328L358.972 262.574Z" fill="white"/>
<path d="M359.203 262.574H366.141V261.864H359.203V262.574Z" fill="#16B57F"/>
<path opacity="0.7" d="M359.203 262.574H366.141V261.864H359.203V262.574Z" fill="white"/>
<path d="M365.749 213.271H359.6V261.863H365.749V213.271Z" fill="white"/>
<path opacity="0.3" d="M361.029 214.346H360.715V260.79H361.029V214.346Z" fill="#16B57F"/>
<path opacity="0.3" d="M362.244 214.346H361.93V260.79H362.244V214.346Z" fill="#16B57F"/>
<path opacity="0.3" d="M363.437 214.346H363.123V260.79H363.437V214.346Z" fill="#16B57F"/>
<path opacity="0.3" d="M364.65 214.346H364.336V260.79H364.65V214.346Z" fill="#16B57F"/>
<path d="M340.22 213.849H324.191V264.725H340.22V213.849Z" fill="#16B57F"/>
<path d="M356.753 213.849H340.725V264.725H356.753V213.849Z" fill="#16B57F"/>
<path d="M336.882 217.284H327.506V247.111H336.882V217.284Z" fill="white"/>
<path d="M336.083 218.122H328.289V246.274H336.083V218.122Z" fill="#455A64"/>
<path d="M353.437 217.285H344.061V247.112H353.437V217.285Z" fill="white"/>
<path d="M352.65 218.124H344.855V246.275H352.65V218.124Z" fill="#455A64"/>
<path d="M210.918 58.7212H36.2812V264.716H210.918V58.7212Z" fill="#16B57F"/>
<path opacity="0.6" d="M210.918 58.7212H36.2812V264.716H210.918V58.7212Z" fill="white"/>
<path opacity="0.5" d="M210.918 238.292H36.2812V264.718H210.918V238.292Z" fill="#16B57F"/>
<path d="M212.599 52.7002H34.6152V58.7226H212.599V52.7002Z" fill="#16B57F"/>
<path opacity="0.5" d="M210.918 58.7209H36.2812V66.8087L210.918 63.8169V58.7209Z" fill="#16B57F"/>
<path d="M210.914 71.0276H36.2812V78.7279H210.914V71.0276Z" fill="white"/>
<path opacity="0.5" d="M210.915 78.7288H36.2812V81.3365L210.915 80.0326V78.7288Z" fill="#16B57F"/>
<path d="M210.914 146.364H36.2812V154.064H210.914V146.364Z" fill="white"/>
<path opacity="0.5" d="M210.915 154.064H36.2812V156.671L210.915 155.367V154.064Z" fill="#16B57F"/>
<path d="M75.3135 90.7383H53.7676V139.775H75.3135V90.7383Z" fill="white"/>
<path d="M72.7408 93.1975H56.334V137.313H72.7408V93.1975Z" fill="#455A64"/>
<g opacity="0.1">
<path d="M72.7388 105.302L56.332 125.669V137.316L72.7388 116.951V105.302Z" fill="white"/>
<path d="M72.7388 96.583L56.332 116.949V122.059L72.7388 101.693V96.583Z" fill="white"/>
</g>
<path d="M77.7767 86.9944H51.3086V90.7378H77.7767V86.9944Z" fill="white"/>
<path d="M53.7676 92.2613V90.7383H75.3135V91.4998L53.7676 92.2613Z" fill="#EBEBEB"/>
<path d="M114.683 90.7378H93.1367V139.775H114.683V90.7378Z" fill="white"/>
<path d="M112.11 93.1975H95.7031V137.313H112.11V93.1975Z" fill="#455A64"/>
<g opacity="0.1">
<path d="M112.124 105.303L95.7168 125.669V137.317L112.124 116.952V105.303Z" fill="white"/>
<path d="M112.124 96.584L95.7168 116.95V122.06L112.124 101.694V96.584Z" fill="white"/>
</g>
<path d="M117.144 86.9944H90.6758V90.7378H117.144V86.9944Z" fill="white"/>
<path d="M93.1367 92.2608V90.7378H114.683V91.4993L93.1367 92.2608Z" fill="#EBEBEB"/>
<path d="M154.052 90.7371H132.506V139.774H154.052V90.7371Z" fill="white"/>
<path d="M151.481 93.1982H135.074V137.314H151.481V93.1982Z" fill="#455A64"/>
<g opacity="0.1">
<path d="M151.479 105.303L135.072 125.669V137.317L151.479 116.952V105.303Z" fill="white"/>
<path d="M151.479 96.5837L135.072 116.95V122.06L151.479 101.694V96.5837Z" fill="white"/>
</g>
<path d="M156.515 86.9951H130.047V90.7385H156.515V86.9951Z" fill="white"/>
<path d="M132.506 92.2601V90.7371H154.053V91.4986L132.506 92.2601Z" fill="#EBEBEB"/>
<path d="M193.431 90.7383H171.885V139.775H193.431V90.7383Z" fill="white"/>
<path d="M190.852 93.1975H174.445V137.313H190.852V93.1975Z" fill="#455A64"/>
<g opacity="0.1">
<path d="M190.856 105.302L174.449 125.669V137.316L190.856 116.951V105.302Z" fill="white"/>
<path d="M190.856 96.583L174.449 116.949V122.059L190.856 101.693V96.583Z" fill="white"/>
</g>
<path d="M195.89 86.9944H169.422V90.7378H195.89V86.9944Z" fill="white"/>
<path d="M171.885 92.2613V90.7383H193.431V91.4998L171.885 92.2613Z" fill="#EBEBEB"/>
<path d="M75.3135 165.626H53.7676V214.663H75.3135V165.626Z" fill="white"/>
<path d="M72.7408 168.087H56.334V212.203H72.7408V168.087Z" fill="#455A64"/>
<g opacity="0.1">
<path d="M72.7388 180.189L56.332 200.554V212.201L72.7388 191.836V180.189Z" fill="white"/>
<path d="M72.7388 171.47L56.332 191.836V196.947L72.7388 176.582V171.47Z" fill="white"/>
</g>
<path d="M77.7767 161.882H51.3086V165.625H77.7767V161.882Z" fill="white"/>
<path d="M53.7676 167.149V165.626H75.3135V166.387L53.7676 167.149Z" fill="#EBEBEB"/>
<path d="M114.683 165.627H93.1367V214.663H114.683V165.627Z" fill="white"/>
<path d="M112.11 168.088H95.7031V212.204H112.11V168.088Z" fill="#455A64"/>
<g opacity="0.1">
<path d="M112.124 180.191L95.7168 200.556V212.204L112.124 191.839V180.191Z" fill="white"/>
<path d="M112.124 171.471L95.7168 191.837V196.947L112.124 176.582V171.471Z" fill="white"/>
</g>
<path d="M117.144 161.883H90.6758V165.626H117.144V161.883Z" fill="white"/>
<path d="M93.1367 167.15V165.627H114.683V166.388L93.1367 167.15Z" fill="#EBEBEB"/>
<path d="M154.052 165.624H132.506V214.661H154.052V165.624Z" fill="white"/>
<path d="M151.481 168.086H135.074V212.202H151.481V168.086Z" fill="#455A64"/>
<g opacity="0.1">
<path d="M151.479 180.19L135.072 200.555V212.202L151.479 191.837V180.19Z" fill="white"/>
<path d="M151.479 171.471L135.072 191.837V196.947L151.479 176.582V171.471Z" fill="white"/>
</g>
<path d="M156.515 161.882H130.047V165.626H156.515V161.882Z" fill="white"/>
<path d="M132.506 167.147V165.624H154.053V166.386L132.506 167.147Z" fill="#EBEBEB"/>
<path d="M193.431 165.627H171.885V214.663H193.431V165.627Z" fill="white"/>
<path d="M190.852 168.088H174.445V212.204H190.852V168.088Z" fill="#455A64"/>
<g opacity="0.1">
<path d="M190.856 180.189L174.449 200.554V212.202L190.856 191.837V180.189Z" fill="white"/>
<path d="M190.856 171.471L174.449 191.837V196.948L190.856 176.583V171.471Z" fill="white"/>
</g>
<path d="M195.89 161.883H169.422V165.626H195.89V161.883Z" fill="white"/>
<path d="M171.885 167.15V165.627H193.431V166.388L171.885 167.15Z" fill="#EBEBEB"/>
<path d="M644.638 58.7209H470.002V264.715H644.638V58.7209Z" fill="#16B57F"/>
<path opacity="0.6" d="M644.638 58.7209H470.002V264.715H644.638V58.7209Z" fill="white"/>
<path opacity="0.5" d="M644.638 238.292H470.002V264.718H644.638V238.292Z" fill="#16B57F"/>
<path d="M646.319 52.7002H468.336V58.7226H646.319V52.7002Z" fill="#16B57F"/>
<path opacity="0.5" d="M644.638 58.7209H470.002V66.8087L644.638 63.8169V58.7209Z" fill="#16B57F"/>
<path d="M644.635 71.0276H470.002V78.7279H644.635V71.0276Z" fill="white"/>
<path opacity="0.5" d="M644.635 78.7288H470.002V81.3365L644.635 80.0326V78.7288Z" fill="#16B57F"/>
<path d="M644.635 146.364H470.002V154.064H644.635V146.364Z" fill="white"/>
<path opacity="0.5" d="M644.635 154.064H470.002V156.671L644.635 155.367V154.064Z" fill="#16B57F"/>
<path d="M509.03 90.7368H487.484V139.774H509.03V90.7368Z" fill="white"/>
<path d="M506.46 93.1973H490.053V137.313H506.46V93.1973Z" fill="#455A64"/>
<g opacity="0.1">
<path d="M506.46 105.302L490.053 125.668V137.316L506.46 116.951V105.302Z" fill="white"/>
<path d="M506.46 96.5828L490.053 116.949V122.059L506.46 101.693V96.5828Z" fill="white"/>
</g>
<path d="M511.493 86.9941H485.025V90.7375H511.493V86.9941Z" fill="white"/>
<path d="M487.484 92.2598V90.7368H509.03V91.4983L487.484 92.2598Z" fill="#EBEBEB"/>
<path d="M548.417 90.7366H526.871V139.773H548.417V90.7366Z" fill="white"/>
<path d="M545.846 93.1978H529.439V137.313H545.846V93.1978Z" fill="#455A64"/>
<g opacity="0.1">
<path d="M545.848 105.303L529.441 125.669V137.316L545.848 116.951V105.303Z" fill="white"/>
<path d="M545.848 96.5833L529.441 116.949V122.06L545.848 101.694V96.5833Z" fill="white"/>
</g>
<path d="M550.88 86.9946H524.412V90.738H550.88V86.9946Z" fill="white"/>
<path d="M526.871 92.2596V90.7366H548.418V91.4981L526.871 92.2596Z" fill="#EBEBEB"/>
<path d="M587.774 90.7366H566.229V139.773H587.774V90.7366Z" fill="white"/>
<path d="M585.2 93.1978H568.793V137.313H585.2V93.1978Z" fill="#455A64"/>
<g opacity="0.1">
<path d="M585.197 105.303L568.791 125.669V137.316L585.197 116.951V105.303Z" fill="white"/>
<path d="M585.197 96.5833L568.791 116.949V122.06L585.197 101.694V96.5833Z" fill="white"/>
</g>
<path d="M590.234 86.9946H563.766V90.738H590.234V86.9946Z" fill="white"/>
<path d="M566.229 92.2596V90.7366H587.774V91.4981L566.229 92.2596Z" fill="#EBEBEB"/>
<path d="M627.147 90.7378H605.602V139.775H627.147V90.7378Z" fill="white"/>
<path d="M624.577 93.1973H608.17V137.313H624.577V93.1973Z" fill="#455A64"/>
<g opacity="0.1">
<path d="M624.594 105.303L608.188 125.669V137.316L624.594 116.951V105.303Z" fill="white"/>
<path d="M624.594 96.5835L608.188 116.95V122.06L624.594 101.694V96.5835Z" fill="white"/>
</g>
<path d="M629.611 86.9941H603.143V90.7375H629.611V86.9941Z" fill="white"/>
<path d="M605.602 92.2608V90.7378H627.147V91.4993L605.602 92.2608Z" fill="#EBEBEB"/>
<path d="M509.03 165.626H487.484V214.663H509.03V165.626Z" fill="white"/>
<path d="M506.46 168.088H490.053V212.204H506.46V168.088Z" fill="#455A64"/>
<g opacity="0.1">
<path d="M506.46 180.19L490.053 200.555V212.202L506.46 191.837V180.19Z" fill="white"/>
<path d="M506.46 171.471L490.053 191.837V196.948L506.46 176.583V171.471Z" fill="white"/>
</g>
<path d="M511.493 161.883H485.025V165.626H511.493V161.883Z" fill="white"/>
<path d="M487.484 167.149V165.626H509.03V166.387L487.484 167.149Z" fill="#EBEBEB"/>
<path d="M548.417 165.624H526.871V214.66H548.417V165.624Z" fill="white"/>
<path d="M545.846 168.086H529.439V212.202H545.846V168.086Z" fill="#455A64"/>
<g opacity="0.1">
<path d="M545.848 180.192L529.441 200.557V212.204L545.848 191.839V180.192Z" fill="white"/>
<path d="M545.848 171.471L529.441 191.837V196.948L545.848 176.583V171.471Z" fill="white"/>
</g>
<path d="M550.88 161.882H524.412V165.625H550.88V161.882Z" fill="white"/>
<path d="M526.871 167.147V165.624H548.418V166.385L526.871 167.147Z" fill="#EBEBEB"/>
<path d="M587.774 165.624H566.229V214.66H587.774V165.624Z" fill="white"/>
<path d="M585.2 168.086H568.793V212.202H585.2V168.086Z" fill="#455A64"/>
<g opacity="0.1">
<path d="M585.197 180.19L568.791 200.555V212.202L585.197 191.837V180.19Z" fill="white"/>
<path d="M585.197 171.47L568.791 191.836V196.947L585.197 176.582V171.47Z" fill="white"/>
</g>
<path d="M590.234 161.882H563.766V165.625H590.234V161.882Z" fill="white"/>
<path d="M566.229 167.147V165.624H587.774V166.385L566.229 167.147Z" fill="#EBEBEB"/>
<path d="M627.147 165.625H605.602V214.662H627.147V165.625Z" fill="white"/>
<path d="M624.577 168.087H608.17V212.203H624.577V168.087Z" fill="#455A64"/>
<g opacity="0.1">
<path d="M624.594 180.19L608.188 200.555V212.202L624.594 191.837V180.19Z" fill="white"/>
<path d="M624.594 171.469L608.188 191.835V196.946L624.594 176.581V171.469Z" fill="white"/>
</g>
<path d="M629.611 161.882H603.143V165.625H629.611V161.882Z" fill="white"/>
<path d="M605.602 167.149V165.625H627.147V166.387L605.602 167.149Z" fill="#EBEBEB"/>
<path d="M225.727 79.7374H455.216L340.471 0L225.727 79.7374Z" fill="#16B57F"/>
<path opacity="0.8" d="M225.727 79.7374H455.216L340.471 0L225.727 79.7374Z" fill="white"/>
<path d="M252.582 71.1331H428.383L340.482 10.0505L252.582 71.1331Z" fill="#16B57F"/>
<path opacity="0.4" d="M252.582 71.1331H428.383L340.482 10.0505L252.582 71.1331Z" fill="white"/>
<path opacity="0.5" d="M340.462 10.0461L335.684 13.3667L418.596 71.1287H428.362L340.462 10.0461Z" fill="#16B57F"/>
<path d="M302.055 56.2088C302.055 56.283 301.89 56.3239 301.56 56.3328C301.151 56.3427 300.904 56.4113 300.816 56.5375C300.786 56.5774 300.767 56.6593 300.758 56.7866V62.9849C300.758 65.2905 299.658 66.4438 297.461 66.4438C296.333 66.4438 295.457 66.0985 294.835 65.4078C294.368 64.8931 294.135 63.9778 294.135 62.665V57.0622C294.135 56.7512 294.086 56.5619 293.987 56.4933C293.891 56.4257 293.583 56.3715 293.069 56.3328C292.961 56.3239 292.908 56.2841 292.908 56.2165C292.908 56.1291 292.996 56.0859 293.171 56.0859H293.287C293.374 56.0859 293.447 56.0859 293.506 56.0859H294.41C295.266 56.0959 295.898 56.0959 296.307 56.0859C296.851 56.0859 297.066 56.0859 296.949 56.0859H297.256C297.421 56.0859 297.504 56.1346 297.504 56.232C297.504 56.3195 297.353 56.3638 297.052 56.3638C296.624 56.3638 296.395 56.4423 296.366 56.5973C296.346 56.7047 296.336 56.8065 296.336 56.905V62.3695C296.336 63.1587 296.352 63.6601 296.38 63.8748C296.448 64.508 296.628 64.9662 296.921 65.2484C297.28 65.5993 297.752 65.7742 298.335 65.7742C298.997 65.7742 299.483 65.5606 299.795 65.1322C300.174 64.6175 300.364 63.6933 300.364 62.3607V57.5459C300.364 57.4584 300.364 57.3466 300.364 57.2105C300.364 57.0744 300.364 56.9913 300.364 56.9626C300.364 56.7091 300.291 56.5442 300.148 56.4667C300.052 56.4091 299.864 56.3793 299.585 56.3793C299.238 56.3693 299.066 56.3117 299.066 56.2044C299.066 56.1258 299.134 56.0881 299.269 56.0881C299.415 56.0881 299.629 56.0948 299.911 56.1103C300.194 56.1247 300.407 56.1324 300.553 56.1324C300.563 56.1324 300.646 56.118 300.802 56.0893C300.967 56.0893 301.118 56.0893 301.254 56.0893H301.605C301.904 56.0848 302.055 56.1258 302.055 56.2088Z" fill="white"/>
<path d="M313.447 56.2588C313.447 56.3075 313.412 56.3374 313.34 56.3462C313.268 56.3562 313.014 56.3706 312.576 56.3905C312.318 56.4005 312.171 56.4536 312.133 56.551C312.096 56.6097 312.08 56.9207 312.09 57.4841V59.1764C312.09 60.3043 312.09 61.7775 312.09 63.5972V66.0777C312.09 66.2426 312.057 66.3256 311.988 66.3256C311.882 66.3256 311.174 65.5209 309.865 63.9115C308.558 62.3022 307.12 60.4604 305.554 58.3884V59.4687C305.554 59.8383 305.554 60.1593 305.554 60.4316C305.554 60.7039 305.554 60.8688 305.554 60.9275V65.4645C305.554 65.6692 305.618 65.7954 305.746 65.8441C305.952 65.9227 306.193 65.9603 306.469 65.9603C306.792 65.9603 306.973 65.9847 307.014 66.0334C307.024 66.0433 307.029 66.0633 307.029 66.092C307.029 66.1695 306.956 66.2083 306.811 66.2083C306.723 66.2083 306.65 66.2038 306.591 66.1939C306.008 66.174 305.644 66.1651 305.497 66.1651C305.157 66.1651 304.71 66.1751 304.155 66.1939C303.883 66.2038 303.767 66.2083 303.805 66.2083C303.659 66.2083 303.586 66.1695 303.586 66.092C303.586 66.0245 303.8 65.9758 304.228 65.9459C304.724 65.9072 305.011 65.8297 305.089 65.7124C305.138 65.6349 305.162 65.2851 305.162 64.6631V58.6762C305.162 58.0641 305.153 57.6955 305.134 57.5682C305.076 57.141 304.906 56.8299 304.623 56.6362C304.41 56.4912 304.011 56.4082 303.427 56.3883C303.272 56.3783 303.193 56.3319 303.193 56.2499C303.193 56.1581 303.262 56.1105 303.398 56.1105C303.456 56.1105 303.665 56.1204 304.025 56.1393C304.201 56.1492 304.462 56.1536 304.813 56.1536C305.532 56.1536 306.115 56.1393 306.563 56.1094L311.683 62.704V56.9141C311.683 56.6805 311.644 56.5311 311.567 56.468C311.488 56.4049 311.323 56.3684 311.071 56.3584L310.443 56.3285C310.327 56.3197 310.268 56.2854 310.268 56.2267C310.268 56.1481 310.356 56.1094 310.531 56.1094H310.851C310.909 56.1094 311.007 56.1094 311.143 56.1094C311.269 56.1094 311.382 56.1094 311.478 56.1094C312.461 56.1094 313.034 56.1149 313.2 56.1238C313.365 56.137 313.447 56.1813 313.447 56.2588Z" fill="white"/>
<path d="M319.848 66.0883C319.848 66.1713 319.785 66.2123 319.658 66.2123C319.59 66.2123 319.527 66.2078 319.468 66.1979C318.885 66.1691 318.383 66.1536 317.965 66.1536C317.528 66.1536 316.886 66.168 316.04 66.1979C315.758 66.2078 315.549 66.2123 315.413 66.2123C315.266 66.2123 315.193 66.168 315.193 66.0806C315.193 66.0319 315.221 66.0031 315.274 65.9931C315.327 65.9831 315.515 65.9732 315.835 65.9643C316.138 65.9068 316.312 65.816 316.361 65.6943C316.41 65.5725 316.434 65.1807 316.434 64.5199V57.5025C316.434 57.3176 316.434 57.1372 316.434 56.9623C316.424 56.7874 316.42 56.7044 316.42 56.7144C316.42 56.472 316.176 56.3491 315.69 56.3491C315.418 56.3491 315.282 56.3159 315.282 56.2473C315.282 56.1798 315.302 56.1399 315.341 56.1311C315.378 56.1222 315.505 56.1167 315.719 56.1167C315.622 56.1167 315.798 56.1167 316.245 56.1167C316.692 56.1167 317.075 56.1167 317.397 56.1167H318.141C318.297 56.1167 318.517 56.1167 318.805 56.1167C319.092 56.1167 319.293 56.1167 319.409 56.1167H319.555C319.682 56.1167 319.745 56.1532 319.745 56.2274C319.745 56.2816 319.723 56.317 319.679 56.3303C319.636 56.3436 319.487 56.3547 319.234 56.3646C318.932 56.3846 318.747 56.4476 318.68 56.5539L318.637 56.8306V65.0611C318.637 65.4795 318.683 65.7264 318.776 65.8049C318.868 65.8824 319.182 65.9356 319.716 65.9654C319.804 65.9754 319.848 66.0164 319.848 66.0883Z" fill="white"/>
<path d="M330.744 56.2591C330.744 56.3266 330.695 56.3654 330.599 56.3742C330.083 56.3941 329.76 56.4517 329.628 56.548C329.498 56.6443 329.354 56.9177 329.199 57.3693C329.12 57.5807 329.004 57.9017 328.849 58.3344C328.333 59.7634 327.502 62.1763 326.354 65.5699C326.199 66.0569 326.088 66.2993 326.019 66.2993C325.932 66.2993 325.859 66.2119 325.8 66.037C325.674 65.6385 325.513 65.1858 325.318 64.68C325.026 63.8919 324.633 62.8471 324.137 61.5432C323.924 60.9688 323.593 60.1187 323.145 58.9897C322.901 58.3776 322.658 57.6969 322.415 56.9476C322.289 56.5391 322.027 56.3399 321.628 56.3488H321.146C321.029 56.3488 320.971 56.3078 320.971 56.2248C320.971 56.1418 321.146 56.1008 321.496 56.1008H323.963C324.069 56.1008 324.2 56.1008 324.355 56.1008C324.521 56.1008 324.706 56.1008 324.91 56.1008H325.727C325.912 56.1008 326.005 56.1451 326.005 56.2325C326.005 56.3111 325.834 56.3543 325.493 56.3643C324.94 56.3742 324.662 56.4617 324.662 56.6266C324.662 56.6465 324.746 56.9044 324.912 57.4003C325.655 59.6195 326.31 61.4347 326.878 62.846C327.004 62.5349 327.238 61.8874 327.579 60.9057C327.665 60.6433 327.871 60.0501 328.192 59.1259C328.64 57.8043 328.865 56.9985 328.865 56.7096C328.865 56.5358 328.792 56.4351 328.647 56.4052C328.588 56.3964 328.364 56.3864 327.975 56.3764C327.78 56.3764 327.684 56.3277 327.684 56.2314C327.684 56.1451 327.751 56.1008 327.889 56.1008H328.574H329.085H329.464C329.56 56.1008 329.672 56.1008 329.799 56.1008C329.935 56.1008 330.091 56.1008 330.266 56.1008H330.528C330.671 56.1008 330.744 56.154 330.744 56.2591Z" fill="white"/>
<path d="M340.103 63.6453C340.103 63.6652 340.098 64.1179 340.088 65.0023C340.078 65.4694 340.071 65.8047 340.066 66.0095C340.061 66.2132 340.058 66.3106 340.058 66.3006C337.49 66.1844 335.244 66.1501 333.318 66.1988H332.092C331.918 66.1988 331.83 66.1622 331.83 66.0881C331.83 66.0327 331.852 66.0006 331.895 65.9918C331.94 65.9829 332.088 65.9685 332.34 65.9497C332.797 65.9198 333.046 65.7892 333.084 65.5568C333.104 65.4306 333.114 65.29 333.114 65.134V57.748C333.114 57.1658 333.11 56.8448 333.1 56.7861C333.09 56.6312 333.041 56.5249 332.954 56.4662C332.866 56.4076 332.686 56.3788 332.413 56.3788C332.112 56.3788 331.962 56.3356 331.962 56.2482C331.962 56.1508 332.096 56.1021 332.362 56.1021C332.63 56.1021 333.002 56.0977 333.478 56.0877C335.268 56.049 336.731 56.039 337.869 56.0589H338.862C339.075 56.0589 339.339 56.0445 339.65 56.0146L339.782 57.6052C339.829 58.111 339.855 58.422 339.855 58.5394C339.855 58.6368 339.806 58.6855 339.709 58.6855C339.611 58.6855 339.548 58.5593 339.518 58.3058C339.431 57.6351 339.159 57.1459 338.705 56.8404C338.252 56.5338 337.581 56.3799 336.692 56.3799C336.42 56.3799 335.951 56.3943 335.288 56.4242V60.7276C336.363 60.7376 337.04 60.6623 337.319 60.5018C337.598 60.3413 337.786 59.9263 337.883 59.2544C337.932 58.8947 338.006 58.7143 338.104 58.7143C338.191 58.7143 338.235 58.8017 338.235 58.9766C338.235 59.1526 338.221 59.5123 338.192 60.0569C338.182 60.2417 338.178 60.4896 338.178 60.8007C338.178 61.6374 338.187 62.2695 338.207 62.6978C338.217 62.7554 338.222 62.8295 338.222 62.917C338.222 63.0332 338.178 63.0918 338.089 63.0918C338.021 63.0918 337.978 63.0697 337.958 63.0265C337.938 62.9834 337.909 62.8251 337.87 62.5528C337.773 61.8621 337.638 61.4316 337.466 61.2611C337.296 61.0918 336.903 61.0065 336.287 61.0065H335.29V65.9088H336.228C337.3 65.8888 337.954 65.8645 338.189 65.8357C338.481 65.797 338.764 65.6896 339.037 65.5147C339.281 65.3199 339.45 65.1118 339.541 64.8883C339.633 64.6647 339.735 64.2507 339.841 63.6475C339.871 63.5014 339.92 63.4283 339.989 63.4283C340.064 63.4261 340.103 63.4992 340.103 63.6453Z" fill="white"/>
<path d="M351.62 65.6273C351.62 66.1719 351.265 66.4442 350.556 66.4442C349.661 66.4442 348.945 66.1609 348.411 65.5953C347.992 65.1569 347.753 64.6887 347.694 64.1918L347.549 62.9919C347.452 62.2315 347.275 61.7002 347.017 61.397C346.759 61.0948 346.343 60.9487 345.77 60.9587V64.2803C345.77 65.0507 345.774 65.4657 345.784 65.5233C345.784 65.6893 345.853 65.8044 345.988 65.8675C346.125 65.9306 346.382 65.9627 346.76 65.9627C346.994 65.9627 347.111 66.007 347.111 66.0944C347.111 66.1719 347.052 66.2107 346.936 66.2107H345.521H345.287C345.112 66.2107 344.947 66.2107 344.792 66.2107H343.741C343.644 66.2107 343.532 66.2107 343.405 66.2107C343.299 66.2107 343.23 66.2107 343.202 66.2107H342.531C342.394 66.2107 342.326 66.1763 342.326 66.1066C342.326 66.028 342.525 65.9804 342.925 65.9627C343.255 65.9428 343.451 65.8653 343.508 65.7292C343.537 65.6606 343.553 65.4558 343.553 65.1149V57.5794C343.553 57.0714 343.543 56.7726 343.523 56.6796C343.503 56.5877 343.439 56.5158 343.332 56.4671C343.195 56.4095 342.977 56.3796 342.675 56.3796C342.461 56.3796 342.355 56.3353 342.355 56.2479C342.355 56.1804 342.398 56.1383 342.487 56.1239C342.573 56.1096 342.807 56.1018 343.187 56.1018H343.45C343.625 56.1018 343.794 56.1018 343.96 56.1018H344.441C344.451 56.1018 344.553 56.1018 344.748 56.1018C344.933 56.1018 345.109 56.1018 345.274 56.1018H346.119C347.481 56.1018 348.411 56.2092 348.906 56.4228C349.295 56.5888 349.607 56.8412 349.839 57.181C350.073 57.5219 350.19 57.896 350.19 58.3044C350.19 59.2386 349.703 59.9293 348.73 60.3765C348.302 60.5713 347.671 60.7174 346.834 60.8137L346.819 60.9011C347.878 60.9697 348.647 61.2487 349.124 61.7401C349.601 62.2304 349.888 63.0263 349.986 64.1254C350.063 65.0009 350.185 65.5477 350.351 65.7668C350.516 65.986 350.686 66.0955 350.861 66.0955C351.006 66.0955 351.08 66.0568 351.08 65.9793C351.08 65.9406 351.024 65.8875 350.912 65.8188C350.8 65.7513 350.745 65.6539 350.745 65.5277C350.745 65.2654 350.891 65.1337 351.182 65.1337C351.474 65.1315 351.62 65.2975 351.62 65.6273ZM347.929 58.2602C347.929 57.0061 347.434 56.3774 346.441 56.3774C346.12 56.3774 345.921 56.4848 345.844 56.6984C345.795 56.8345 345.771 57.3647 345.771 58.2889V60.7107C346.53 60.7207 347.078 60.5314 347.419 60.1418C347.76 59.7533 347.929 59.1257 347.929 58.2602Z" fill="white"/>
<path d="M360.122 63.3224C360.122 64.2079 359.807 64.9396 359.18 65.5184C358.552 66.0973 357.753 66.3862 356.78 66.3862C356.186 66.3862 355.37 66.187 354.33 65.7885C354.251 65.7586 354.182 65.7442 354.125 65.7442C353.959 65.7442 353.833 65.9191 353.745 66.2689C353.715 66.3762 353.677 66.4294 353.629 66.4294C353.55 66.4294 353.512 66.3607 353.512 66.2257C353.512 66.0995 353.536 65.8759 353.585 65.555C353.623 65.2926 353.643 64.986 353.643 64.6363C353.643 64.354 353.639 64.1304 353.629 63.9655C353.609 63.6346 353.6 63.4398 353.6 63.3822C353.6 63.2262 353.649 63.1487 353.746 63.1487C353.844 63.1487 353.931 63.3579 354.009 63.7762C354.145 64.4957 354.451 65.0558 354.928 65.4542C355.443 65.8815 355.998 66.0962 356.591 66.0962C357.117 66.0962 357.558 65.9302 357.919 65.6003C358.279 65.2694 358.459 64.8665 358.459 64.3894C358.459 63.981 358.343 63.6545 358.11 63.4121C357.934 63.2372 357.37 62.8919 356.417 62.3772C355.358 61.8127 354.637 61.2493 354.259 60.6848C353.908 60.1701 353.733 59.5569 353.733 58.8464C353.733 58.0107 354.03 57.3178 354.623 56.7677C355.217 56.2187 355.966 55.9431 356.871 55.9431C357.357 55.9431 357.877 56.0593 358.432 56.2928C358.616 56.3703 358.747 56.4091 358.826 56.4091C358.972 56.4091 359.069 56.2829 359.118 56.0294C359.138 55.942 359.181 55.8977 359.25 55.8977C359.346 55.8977 359.396 55.9608 359.396 56.0881C359.396 56.1368 359.386 56.2729 359.367 56.4965C359.347 56.7201 359.338 56.9049 359.338 57.051C359.338 57.5569 359.358 57.9852 359.397 58.335C359.407 58.3638 359.411 58.4025 359.411 58.4512C359.411 58.5386 359.374 58.5829 359.295 58.5829C359.208 58.5829 359.12 58.4269 359.033 58.1158C358.945 57.8048 358.791 57.496 358.573 57.1894C358.354 56.8828 358.133 56.6625 357.91 56.5264C357.618 56.3504 357.277 56.2641 356.889 56.2641C356.344 56.2641 355.911 56.3958 355.59 56.6581C355.27 56.9204 355.109 57.2802 355.109 57.7373C355.109 58.1369 355.259 58.4888 355.56 58.7954C355.863 59.102 356.442 59.4939 357.297 59.9709C358.349 60.5542 359.043 61.0213 359.385 61.3711C359.873 61.8824 360.122 62.5344 360.122 63.3224Z" fill="white"/>
<path d="M366.985 66.0883C366.985 66.1713 366.921 66.2123 366.795 66.2123C366.726 66.2123 366.663 66.2078 366.605 66.1979C366.021 66.1691 365.52 66.1536 365.102 66.1536C364.664 66.1536 364.022 66.168 363.177 66.1979C362.895 66.2078 362.685 66.2123 362.549 66.2123C362.403 66.2123 362.33 66.168 362.33 66.0806C362.33 66.0319 362.358 66.0031 362.411 65.9931C362.465 65.9831 362.652 65.9732 362.973 65.9643C363.274 65.9068 363.449 65.816 363.498 65.6943C363.546 65.5725 363.572 65.1807 363.572 64.5199V57.5025C363.572 57.3176 363.572 57.1372 363.572 56.9623C363.562 56.7874 363.556 56.7044 363.556 56.7144C363.556 56.472 363.313 56.3491 362.827 56.3491C362.555 56.3491 362.419 56.3159 362.419 56.2473C362.419 56.1798 362.439 56.1399 362.477 56.1311C362.516 56.1222 362.642 56.1167 362.856 56.1167C362.76 56.1167 362.934 56.1167 363.382 56.1167C363.829 56.1167 364.213 56.1167 364.534 56.1167H365.279C365.434 56.1167 365.655 56.1167 365.942 56.1167C366.228 56.1167 366.43 56.1167 366.547 56.1167H366.693C366.819 56.1167 366.884 56.1532 366.884 56.2274C366.884 56.2816 366.86 56.317 366.817 56.3303C366.774 56.3436 366.625 56.3547 366.372 56.3646C366.071 56.3846 365.886 56.4476 365.819 56.5539L365.775 56.8306V65.0611C365.775 65.4795 365.821 65.7264 365.914 65.8049C366.006 65.8824 366.32 65.9356 366.856 65.9654C366.94 65.9754 366.985 66.0164 366.985 66.0883Z" fill="white"/>
<path d="M377.51 58.8148C377.51 58.8923 377.477 58.931 377.408 58.931C377.301 58.931 377.204 58.744 377.116 58.3688C376.941 57.6283 376.697 57.1236 376.387 56.8546C376.076 56.5856 375.579 56.4506 374.899 56.4506C374.636 56.4506 374.407 56.4506 374.214 56.4506V65.3209C374.224 65.5644 374.292 65.7193 374.419 65.788C374.547 65.8555 374.891 65.9141 375.451 65.9628C375.56 65.9728 375.613 66.0171 375.613 66.0946C375.613 66.192 375.535 66.2407 375.379 66.2407C375.35 66.2407 375.277 66.2351 375.161 66.2263C375.015 66.2163 374.893 66.2119 374.796 66.2119L373.293 66.1676L370.812 66.2407C370.675 66.2407 370.607 66.2008 370.607 66.1233C370.607 66.0647 370.627 66.0304 370.666 66.0204C370.704 66.0115 370.865 66.0016 371.148 65.9916C371.683 65.9717 371.97 65.8455 372.009 65.6109C372.029 65.4836 372.039 64.4941 372.039 62.6401V56.4506C371.931 56.4506 371.805 56.4506 371.659 56.4506C370.882 56.4506 370.314 56.5934 369.96 56.8789C369.605 57.1645 369.373 57.6692 369.267 58.3942C369.198 58.8192 369.111 59.0329 369.005 59.0329C368.917 59.0329 368.873 58.9742 368.873 58.858C368.873 58.7805 368.893 58.5138 368.932 58.0555C369.009 57.1025 369.058 56.4506 369.078 56.1008H369.297H370.361C370.389 56.1008 370.728 56.1086 371.375 56.123C372.022 56.1374 372.846 56.1451 373.848 56.1451C374.402 56.1451 374.899 56.1418 375.336 56.134C375.773 56.1274 376.172 56.123 376.532 56.123C376.853 56.123 377.096 56.1152 377.262 56.1008C377.291 56.7295 377.364 57.5331 377.48 58.5104C377.5 58.6754 377.51 58.7772 377.51 58.8148Z" fill="white"/>
<path d="M388.046 56.2549C388.046 56.3191 387.983 56.3556 387.856 56.3656C387.283 56.3955 386.937 56.463 386.82 56.5704C386.714 56.5903 386.344 57.3175 385.711 58.7531C385.575 59.0652 385.371 59.5146 385.099 60.1001C384.766 60.783 384.57 61.2291 384.513 61.4394C384.456 61.6486 384.428 62.0316 384.428 62.5872V65.527C384.428 65.693 384.499 65.8026 384.639 65.8557C384.781 65.91 385.06 65.9409 385.477 65.9509C385.691 65.9509 385.798 65.9974 385.798 66.0893C385.798 66.1623 385.706 66.2 385.52 66.2C385.482 66.2 385.37 66.1955 385.184 66.1856C384.959 66.1856 384.647 66.1811 384.248 66.1712L383.077 66.1568C383.048 66.1568 382.92 66.1623 382.696 66.1712C382.423 66.1811 382.179 66.1856 381.964 66.1856L381.042 66.2C380.887 66.2 380.809 66.1612 380.809 66.0837C380.809 66.0062 380.876 65.9675 381.012 65.9675C381.703 65.9576 382.081 65.8945 382.15 65.7782C382.219 65.7107 382.252 65.5547 382.252 65.3123V61.86C381.981 61.1217 381.506 60.1222 380.827 58.8593C380.546 58.2672 380.149 57.5245 379.636 56.6301C379.499 56.4553 379.263 56.3678 378.923 56.3678H378.763C378.725 56.3678 378.677 56.3678 378.618 56.3678C378.424 56.3678 378.328 56.3147 378.328 56.2073C378.328 56.1199 378.43 56.0756 378.635 56.0756C378.605 56.0756 378.647 56.08 378.759 56.09C378.87 56.1 379.059 56.1044 379.32 56.1044L381.042 56.1188C381.11 56.1188 381.217 56.1188 381.362 56.1188C381.538 56.09 381.752 56.0756 382.005 56.0756H382.865C382.962 56.0756 383.065 56.0756 383.172 56.0756C383.279 56.0756 383.328 56.0756 383.318 56.0756C383.513 56.0756 383.61 56.1143 383.61 56.1918C383.61 56.2494 383.587 56.2837 383.544 56.2936C383.5 56.3036 383.328 56.3136 383.026 56.3224C382.49 56.3424 382.223 56.4586 382.223 56.6733C382.223 56.8294 382.256 56.9888 382.325 57.1492C382.394 57.3097 382.622 57.7857 383.009 58.576C383.349 59.2589 383.757 60.058 384.233 60.9756C384.533 60.4399 384.959 59.5533 385.512 58.3181C385.937 57.3894 386.148 56.8426 386.148 56.6766C386.148 56.4619 386.006 56.3545 385.725 56.3545C385.297 56.3645 385.083 56.3202 385.083 56.2228C385.083 56.1155 385.175 56.0667 385.36 56.0767L385.768 56.0988C386.041 56.1132 386.502 56.121 387.155 56.121H387.709C387.934 56.1166 388.046 56.163 388.046 56.2549Z" fill="white"/>
<path d="M441.954 79.7378H239V87.53H441.954V79.7378Z" fill="#16B57F"/>
<path opacity="0.7" d="M441.954 79.7378H239V87.53H441.954V79.7378Z" fill="white"/>
<path d="M273.861 94.5436H249.648L247.547 87.5295H275.963L273.861 94.5436Z" fill="#16B57F"/>
<path opacity="0.8" d="M273.861 94.5436H249.648L247.547 87.5295H275.963L273.861 94.5436Z" fill="white"/>
<path d="M273.081 94.542H250.449V96.8608H273.081V94.542Z" fill="#16B57F"/>
<path opacity="0.7" d="M273.081 94.542H250.449V96.8608H273.081V94.542Z" fill="white"/>
<path d="M249.648 257.707H273.861L275.963 264.722H247.547L249.648 257.707Z" fill="#16B57F"/>
<path opacity="0.8" d="M249.648 257.707H273.861L275.963 264.722H247.547L249.648 257.707Z" fill="white"/>
<path d="M250.448 257.707H273.08V255.388H250.448V257.707Z" fill="#16B57F"/>
<path opacity="0.7" d="M250.448 257.707H273.08V255.388H250.448V257.707Z" fill="white"/>
<path d="M271.783 96.8643H251.723V255.389H271.783V96.8643Z" fill="#16B57F"/>
<path opacity="0.8" d="M271.783 96.8643H251.723V255.389H271.783V96.8643Z" fill="white"/>
<path opacity="0.3" d="M256.36 100.366H255.336V251.883H256.36V100.366Z" fill="#16B57F"/>
<path opacity="0.3" d="M260.299 100.366H259.275V251.883H260.299V100.366Z" fill="#16B57F"/>
<path opacity="0.3" d="M264.241 100.366H263.217V251.883H264.241V100.366Z" fill="#16B57F"/>
<path opacity="0.3" d="M268.182 100.366H267.158V251.883H268.182V100.366Z" fill="#16B57F"/>
<path d="M313.228 94.5446H289.015L286.914 87.5305H315.33L313.228 94.5446Z" fill="#16B57F"/>
<path opacity="0.8" d="M313.228 94.5446H289.015L286.914 87.5305H315.33L313.228 94.5446Z" fill="white"/>
<path d="M312.425 94.5422H289.793V96.8611H312.425V94.5422Z" fill="#16B57F"/>
<path opacity="0.7" d="M312.425 94.5422H289.793V96.8611H312.425V94.5422Z" fill="white"/>
<path d="M289.015 257.708H313.228L315.33 264.723H286.914L289.015 257.708Z" fill="#16B57F"/>
<path opacity="0.8" d="M289.015 257.708H313.228L315.33 264.723H286.914L289.015 257.708Z" fill="white"/>
<path d="M289.8 257.706H312.432V255.387H289.8V257.706Z" fill="#16B57F"/>
<path opacity="0.7" d="M289.8 257.706H312.432V255.387H289.8V257.706Z" fill="white"/>
<path d="M311.16 96.8621H291.1V255.387H311.16V96.8621Z" fill="#16B57F"/>
<path opacity="0.8" d="M311.16 96.8621H291.1V255.387H311.16V96.8621Z" fill="white"/>
<path opacity="0.3" d="M295.713 100.367H294.689V251.884H295.713V100.367Z" fill="#16B57F"/>
<path opacity="0.3" d="M299.655 100.367H298.631V251.884H299.655V100.367Z" fill="#16B57F"/>
<path opacity="0.3" d="M303.596 100.367H302.572V251.884H303.596V100.367Z" fill="#16B57F"/>
<path opacity="0.3" d="M307.536 100.367H306.512V251.884H307.536V100.367Z" fill="#16B57F"/>
<path d="M391.99 94.5446H367.777L365.676 87.5305H394.091L391.99 94.5446Z" fill="#16B57F"/>
<path opacity="0.8" d="M391.99 94.5446H367.777L365.676 87.5305H394.091L391.99 94.5446Z" fill="white"/>
<path d="M391.182 94.5422H368.551V96.8611H391.182V94.5422Z" fill="#16B57F"/>
<path opacity="0.7" d="M391.182 94.5422H368.551V96.8611H391.182V94.5422Z" fill="white"/>
<path d="M367.777 257.708H391.99L394.091 264.723H365.676L367.777 257.708Z" fill="#16B57F"/>
<path opacity="0.8" d="M367.777 257.708H391.99L394.091 264.723H365.676L367.777 257.708Z" fill="white"/>
<path d="M368.556 257.706H391.188V255.387H368.556V257.706Z" fill="#16B57F"/>
<path opacity="0.7" d="M368.556 257.706H391.188V255.387H368.556V257.706Z" fill="white"/>
<path d="M389.914 96.8623H369.854V255.387H389.914V96.8623Z" fill="#16B57F"/>
<path opacity="0.8" d="M389.914 96.8623H369.854V255.387H389.914V96.8623Z" fill="white"/>
<path opacity="0.3" d="M374.469 100.367H373.445V251.884H374.469V100.367Z" fill="#16B57F"/>
<path opacity="0.3" d="M378.411 100.367H377.387V251.884H378.411V100.367Z" fill="#16B57F"/>
<path opacity="0.3" d="M382.35 100.367H381.326V251.884H382.35V100.367Z" fill="#16B57F"/>
<path opacity="0.3" d="M386.295 100.367H385.271V251.884H386.295V100.367Z" fill="#16B57F"/>
<path d="M431.344 94.5446H407.13L405.029 87.5305H433.445L431.344 94.5446Z" fill="#16B57F"/>
<path opacity="0.8" d="M431.344 94.5446H407.13L405.029 87.5305H433.445L431.344 94.5446Z" fill="white"/>
<path d="M430.561 94.5449H407.93V96.8638H430.561V94.5449Z" fill="#16B57F"/>
<path opacity="0.7" d="M430.561 94.5449H407.93V96.8638H430.561V94.5449Z" fill="white"/>
<path d="M407.13 257.708H431.344L433.445 264.723H405.029L407.13 257.708Z" fill="#16B57F"/>
<path opacity="0.8" d="M407.13 257.708H431.344L433.445 264.723H405.029L407.13 257.708Z" fill="white"/>
<path d="M407.931 257.706H430.562V255.387H407.931V257.706Z" fill="#16B57F"/>
<path opacity="0.7" d="M407.931 257.706H430.562V255.387H407.931V257.706Z" fill="white"/>
<path d="M429.266 96.8621H409.205V255.387H429.266V96.8621Z" fill="#16B57F"/>
<path opacity="0.8" d="M429.266 96.8621H409.205V255.387H429.266V96.8621Z" fill="white"/>
<path opacity="0.3" d="M413.844 100.37H412.82V251.888H413.844V100.37Z" fill="#16B57F"/>
<path opacity="0.3" d="M417.784 100.37H416.76V251.888H417.784V100.37Z" fill="#16B57F"/>
<path opacity="0.3" d="M421.725 100.37H420.701V251.888H421.725V100.37Z" fill="#16B57F"/>
<path opacity="0.3" d="M425.666 100.37H424.643V251.888H425.666V100.37Z" fill="#16B57F"/>
<path d="M-23 265.146C246.4 264.288 548.601 264.281 818 265.146C548.6 266.01 246.399 266.004 -23 265.146Z" fill="#263238"/>
<path d="M-5.00781 264.723H38.1991L33.1408 242.412C29.0598 242.147 23.9374 241.105 19.3395 238.102L32.729 240.592L26.5528 213.324C24.669 212.435 22.7962 211.293 21.0529 209.821L26.1167 211.422L25.2988 207.79C22.6966 206.635 20.0291 205.016 17.6792 202.749L24.7808 205.522L16.6023 169.427L11.9801 189.825L16.1319 188.788C16.1319 188.788 14.4417 189.989 11.6514 191.273L5.02133 220.496L9.8317 219.295C9.8317 219.295 7.85929 220.697 4.6616 222.098L0.0681934 242.33L9.45426 239.992C9.21296 240.163 5.26152 242.901 -0.414397 244.455L-1.20912 247.976L13.2109 244.379C13.2109 244.379 6.80447 248.937 -1.62086 249.785L-2.76313 254.831L2.03505 253.635C2.03505 253.635 0.0626583 255.037 -3.12838 256.432L-5.00781 264.723Z" fill="#455A64"/>
<path d="M2.95092 235.852C5.3406 236.764 14.1932 240.369 16.1047 241.419C16.1058 241.016 16.108 240.613 16.1091 240.21C13.974 238.954 11.8311 237.711 9.6894 236.465C7.39159 235.128 4.92331 233.933 2.78045 232.358C2.6753 232.282 2.73397 232.066 2.87786 232.127C5.23988 233.111 7.43364 234.57 9.63737 235.862C11.8134 237.138 13.9652 238.452 16.1102 239.779C16.1202 236.697 16.129 233.617 16.149 230.535C12.6989 229.151 9.23338 227.305 6.06116 225.407C5.95047 225.341 6.02463 225.138 6.15192 225.192C9.51784 226.582 13.0177 228.22 16.1523 230.121C16.1633 228.52 16.1036 216.182 16.5009 200.56C14.4012 199.501 12.2407 198.567 10.1421 197.503C10.0048 197.433 10.1011 197.193 10.2484 197.249C12.3779 198.08 14.4278 199.067 16.5164 199.984C16.6304 195.727 16.792 191.474 17.0521 187.223C17.061 187.084 17.2658 187.082 17.2713 187.223C17.5668 195.124 17.5414 210.412 17.4429 218.32C19.6167 216.585 21.9356 215.05 24.1481 213.366C24.2334 213.301 24.3175 213.446 24.2323 213.511C21.919 215.271 19.7551 217.222 17.434 218.977C17.4285 219.424 17.4229 219.87 17.4174 220.317C19.775 219.239 22.1669 218.236 24.5499 217.216C24.737 217.136 24.903 217.404 24.7126 217.495C22.2853 218.659 19.8669 219.844 17.4086 220.943C17.3521 224.861 16.9957 238.994 16.8496 245.832C21.3002 243.581 25.7874 241.387 30.2989 239.264C30.4705 239.183 30.621 239.426 30.4505 239.523C26.0486 242.043 21.4873 244.33 16.8385 246.36C16.7179 252.043 16.6006 258.779 16.5275 264.461C16.5231 264.806 15.9874 264.807 15.9918 264.461C16.0704 257.214 16.0825 248.911 16.1025 241.664C13.7548 241.084 4.88901 237.287 2.78268 236.248C2.56795 236.139 2.72069 235.763 2.95092 235.852Z" fill="#37474F"/>
<path d="M507.473 264.723H550.68L545.621 242.412C541.54 242.147 536.418 241.105 531.82 238.102L545.21 240.592L539.032 213.324C537.148 212.435 535.276 211.293 533.532 209.821L538.596 211.422L537.777 207.79C535.175 206.635 532.507 205.016 530.157 202.749L537.259 205.522L529.081 169.427L524.458 189.825L528.609 188.788C528.609 188.788 526.919 189.989 524.128 191.273L517.498 220.496L522.309 219.295C522.309 219.295 520.336 220.697 517.139 222.098L512.546 242.33L521.932 239.992C521.691 240.163 517.74 242.901 512.064 244.455L511.269 247.976L525.689 244.379C525.689 244.379 519.283 248.937 510.856 249.785L509.714 254.831L514.513 253.635C514.513 253.635 512.541 255.037 509.35 256.432L507.473 264.723Z" fill="#455A64"/>
<path d="M515.432 235.852C517.822 236.764 526.675 240.369 528.586 241.419C528.587 241.016 528.589 240.613 528.591 240.21C526.455 238.954 524.313 237.711 522.171 236.465C519.873 235.128 517.405 233.933 515.262 232.358C515.157 232.282 515.215 232.066 515.359 232.127C517.721 233.111 519.915 234.57 522.119 235.862C524.295 237.138 526.447 238.452 528.593 239.779C528.602 236.697 528.612 233.617 528.633 230.535C525.183 229.151 521.717 227.305 518.545 225.407C518.435 225.341 518.508 225.138 518.636 225.192C522.001 226.582 525.501 228.22 528.636 230.121C528.647 228.52 528.587 216.182 528.985 200.56C526.885 199.501 524.723 198.567 522.626 197.503C522.489 197.433 522.585 197.193 522.732 197.249C524.86 198.08 526.911 199.067 529 199.984C529.113 195.727 529.276 191.474 529.536 187.223C529.545 187.084 529.749 187.082 529.755 187.223C530.051 195.124 530.025 210.412 529.927 218.32C532.1 216.585 534.419 215.05 536.632 213.366C536.717 213.301 536.801 213.446 536.716 213.511C534.403 215.271 532.238 217.222 529.918 218.977C529.912 219.424 529.907 219.87 529.901 220.317C532.259 219.239 534.651 218.236 537.034 217.216C537.221 217.136 537.387 217.404 537.196 217.495C534.769 218.659 532.351 219.844 529.892 220.943C529.836 224.861 529.479 238.994 529.333 245.832C533.784 243.581 538.271 241.387 542.783 239.264C542.954 239.183 543.104 239.426 542.934 239.523C538.532 242.043 533.971 244.33 529.322 246.36C529.202 252.043 529.083 258.779 529.011 264.461C529.007 264.806 528.471 264.807 528.475 264.461C528.554 257.214 528.566 248.911 528.586 241.664C526.238 241.084 517.373 237.287 515.267 236.248C515.049 236.139 515.202 235.763 515.432 235.852Z" fill="#37474F"/>
<path d="M615.594 264.721H658.801L653.742 242.41C649.663 242.145 644.539 241.103 639.941 238.1L653.331 240.59L647.153 213.322C645.269 212.433 643.397 211.291 641.653 209.819L646.717 211.42L645.898 207.788C643.296 206.633 640.628 205.014 638.279 202.747L645.38 205.52L637.202 169.426L632.579 189.823L636.73 188.787C636.73 188.787 635.04 189.987 632.25 191.271L625.62 220.494L630.43 219.293C630.43 219.293 628.458 220.695 625.26 222.096L620.668 242.328L630.054 239.99C629.812 240.161 625.861 242.899 620.185 244.453L619.39 247.974L633.81 244.377C633.81 244.377 627.404 248.935 618.978 249.783L617.836 254.829L622.636 253.633C622.636 253.633 620.663 255.035 617.472 256.43L615.594 264.721Z" fill="#455A64"/>
<path d="M623.554 235.852C625.943 236.764 634.795 240.369 636.708 241.42C636.709 241.017 636.711 240.614 636.712 240.211C634.577 238.955 632.434 237.712 630.292 236.466C627.994 235.128 625.526 233.934 623.383 232.359C623.278 232.283 623.337 232.067 623.481 232.128C625.843 233.112 628.037 234.571 630.24 235.862C632.416 237.139 634.568 238.452 636.714 239.779C636.723 236.698 636.733 233.618 636.753 230.536C633.303 229.152 629.837 227.305 626.665 225.408C626.554 225.342 626.629 225.139 626.756 225.192C630.122 226.583 633.622 228.221 636.756 230.122C636.767 228.521 636.708 216.183 637.105 200.56C635.005 199.501 632.845 198.568 630.746 197.503C630.609 197.434 630.705 197.193 630.852 197.25C632.982 198.081 635.032 199.067 637.12 199.985C637.234 195.728 637.396 191.474 637.656 187.224C637.665 187.085 637.87 187.082 637.875 187.224C638.171 195.125 638.145 210.413 638.047 218.321C640.221 216.585 642.54 215.05 644.752 213.367C644.837 213.301 644.921 213.446 644.836 213.512C642.523 215.272 640.359 217.223 638.038 218.977C638.032 219.425 638.027 219.871 638.021 220.318C640.379 219.24 642.771 218.237 645.154 217.216C645.34 217.137 645.507 217.405 645.317 217.495C642.889 218.66 640.471 219.845 638.013 220.944C637.956 224.861 637.6 238.995 637.454 245.833C641.904 243.581 646.391 241.388 650.904 239.265C651.076 239.184 651.225 239.426 651.056 239.524C646.654 242.044 642.092 244.331 637.444 246.361C637.323 252.043 637.205 258.78 637.133 264.462C637.128 264.806 636.592 264.808 636.597 264.462C636.675 257.215 636.688 248.912 636.708 241.664C634.36 241.084 625.494 237.288 623.388 236.249C623.171 236.14 623.324 235.764 623.554 235.852Z" fill="#37474F"/>
<path d="M189.438 264.721H155.479L159.454 247.187C162.662 246.979 166.688 246.16 170.301 243.799L159.777 245.757L164.632 224.325C166.113 223.626 167.584 222.728 168.954 221.571L164.974 222.829L165.617 219.974C167.663 219.067 169.759 217.794 171.606 216.012L166.025 218.192L172.453 189.823L176.086 205.854L172.823 205.039C172.823 205.039 174.151 205.983 176.345 206.992L181.556 229.96L177.775 229.016C177.775 229.016 179.326 230.117 181.838 231.218L185.448 247.119L178.07 245.282C178.261 245.416 181.365 247.568 185.827 248.789L186.451 251.557L175.118 248.729C175.118 248.729 180.153 252.31 186.776 252.977L187.673 256.943L183.901 256.003C183.901 256.003 185.452 257.104 187.96 258.201L189.438 264.721Z" fill="#37474F"/>
<path d="M183.195 242.03C181.317 242.748 174.359 245.58 172.857 246.406C172.856 246.089 172.854 245.773 172.853 245.456C174.531 244.469 176.216 243.491 177.898 242.512C179.704 241.46 181.644 240.523 183.328 239.284C183.41 239.223 183.365 239.055 183.251 239.102C181.395 239.875 179.67 241.022 177.938 242.037C176.228 243.04 174.536 244.073 172.85 245.115C172.842 242.693 172.835 240.272 172.819 237.851C175.53 236.763 178.253 235.312 180.747 233.821C180.833 233.769 180.776 233.61 180.676 233.652C178.031 234.744 175.28 236.032 172.816 237.526C172.808 236.267 172.855 226.57 172.542 214.291C174.192 213.458 175.89 212.724 177.539 211.888C177.648 211.833 177.571 211.644 177.456 211.689C175.783 212.343 174.171 213.117 172.53 213.839C172.44 210.493 172.313 207.15 172.109 203.81C172.103 203.7 171.941 203.698 171.936 203.81C171.704 210.019 171.724 222.035 171.801 228.251C170.092 226.887 168.271 225.68 166.532 224.357C166.464 224.306 166.399 224.42 166.465 224.471C168.284 225.855 169.985 227.388 171.808 228.767C171.813 229.118 171.817 229.469 171.821 229.821C169.969 228.974 168.088 228.186 166.215 227.383C166.069 227.32 165.937 227.531 166.088 227.603C167.996 228.518 169.897 229.45 171.829 230.313C171.873 233.393 172.153 244.5 172.269 249.875C168.771 248.106 165.243 246.381 161.697 244.712C161.562 244.648 161.445 244.84 161.579 244.916C165.039 246.896 168.624 248.694 172.277 250.29C172.373 254.756 172.464 260.05 172.522 264.517C172.525 264.788 172.946 264.788 172.944 264.517C172.882 258.82 172.873 252.295 172.856 246.598C174.701 246.142 181.67 243.158 183.325 242.341C183.496 242.257 183.376 241.962 183.195 242.03Z" fill="#455A64"/>
<path d="M685.965 264.721H652.006L655.982 247.187C659.188 246.979 663.215 246.16 666.829 243.799L656.305 245.757L661.16 224.325C662.64 223.626 664.113 222.728 665.482 221.571L661.501 222.829L662.145 219.974C664.19 219.067 666.286 217.794 668.133 216.012L662.551 218.192L668.979 189.823L672.612 205.854L669.349 205.039C669.349 205.039 670.677 205.983 672.871 206.992L678.082 229.96L674.301 229.016C674.301 229.016 675.852 230.117 678.364 231.218L681.974 247.119L674.597 245.282C674.786 245.416 677.892 247.568 682.353 248.789L682.978 251.557L671.645 248.729C671.645 248.729 676.68 252.31 683.302 252.977L684.2 256.943L680.427 256.003C680.427 256.003 681.978 257.104 684.486 258.201L685.965 264.721Z" fill="#37474F"/>
<path d="M679.71 242.03C677.832 242.748 670.874 245.58 669.372 246.406C669.371 246.089 669.369 245.773 669.368 245.456C671.046 244.469 672.73 243.491 674.414 242.512C676.22 241.46 678.159 240.523 679.844 239.284C679.926 239.223 679.881 239.055 679.767 239.102C677.91 239.875 676.186 241.022 674.454 242.037C672.744 243.04 671.052 244.073 669.366 245.115C669.358 242.693 669.351 240.272 669.335 237.851C672.046 236.763 674.77 235.312 677.264 233.821C677.35 233.769 677.293 233.61 677.192 233.652C674.547 234.744 671.796 236.032 669.332 237.526C669.323 236.267 669.371 226.57 669.058 214.291C670.708 213.458 672.407 212.724 674.055 211.888C674.164 211.833 674.087 211.644 673.971 211.689C672.298 212.343 670.686 213.117 669.045 213.839C668.955 210.493 668.828 207.15 668.624 203.81C668.617 203.7 668.456 203.698 668.452 203.81C668.22 210.019 668.24 222.035 668.317 228.251C666.608 226.887 664.786 225.68 663.047 224.357C662.979 224.306 662.914 224.42 662.98 224.471C664.799 225.855 666.5 227.388 668.323 228.767C668.327 229.118 668.332 229.469 668.336 229.821C666.483 228.974 664.603 228.186 662.73 227.383C662.584 227.32 662.452 227.531 662.603 227.603C664.511 228.518 666.411 229.45 668.343 230.313C668.387 233.393 668.667 244.5 668.782 249.875C665.285 248.106 661.757 246.381 658.211 244.712C658.076 244.648 657.958 244.84 658.092 244.916C661.552 246.896 665.137 248.694 668.791 250.29C668.886 254.756 668.978 260.05 669.036 264.517C669.039 264.788 669.46 264.788 669.457 264.517C669.395 258.82 669.387 252.295 669.37 246.598C671.215 246.142 678.184 243.158 679.839 242.341C680.012 242.257 679.892 241.962 679.71 242.03Z" fill="#455A64"/>
<path d="M64.718 264.721H18.1895L20.4596 252.485C30.2087 251.849 37.8105 245.238 37.8105 245.238L20.847 250.415L27.1084 216.665C31.4174 214.627 34.1679 212.232 34.1679 212.232L27.5501 214.246L28.5728 208.744C34.3694 206.668 38.3529 203.289 38.5931 203.079L29.0919 205.969L35.0202 174.01C37.2837 172.616 38.6086 171.461 38.6086 171.461L35.3069 172.468L41.4598 139.3L50.2714 186.82L42.6154 183.162C45.1489 186.146 48.0168 188.276 50.8215 189.795V189.803L59.1218 234.549L46.2492 229.582C50.4884 233.961 55.4482 236.145 59.6177 237.224L60.4699 241.796L53.5422 240.223C55.9363 242.137 58.471 243.447 60.9348 244.331L64.718 264.721Z" fill="#37474F"/>
<path d="M56.926 223.941C54.1434 225.004 44.247 229.007 42.0201 230.231C42.019 229.762 42.0156 229.293 42.0145 228.825C44.5016 227.36 46.9976 225.912 49.4913 224.461C52.1676 222.904 53.9463 222.347 56.4423 220.512C56.564 220.422 56.4965 220.172 56.3283 220.242C53.5766 221.389 52.1189 222.254 49.5522 223.758C47.0175 225.245 44.5116 226.776 42.0123 228.32C42.0012 224.731 41.9902 221.143 41.9669 217.555C45.9859 215.943 50.0215 213.791 53.7161 211.583C53.8445 211.507 53.7582 211.27 53.6099 211.332C49.6894 212.951 45.614 214.859 41.9625 217.073C41.9492 215.207 41.9426 213.342 41.9227 211.476C41.8197 201.868 41.8009 192.251 41.5563 182.642C44.0013 181.409 46.5194 180.321 48.9622 179.082C49.1227 179.001 49.0098 178.72 48.8382 178.787C46.3589 179.755 43.9703 180.904 41.5375 181.973C41.4058 177.015 41.2165 172.061 40.9143 167.111C40.9044 166.947 40.6653 166.946 40.6586 167.111C40.3155 176.313 40.3443 185.526 40.4594 194.737C37.9269 192.716 35.2273 190.927 32.6495 188.967C32.5499 188.892 32.4525 189.06 32.551 189.135C35.2462 191.185 37.7664 193.457 40.4683 195.502C40.4749 196.022 40.4804 196.542 40.4882 197.062C37.7421 195.807 34.9562 194.639 32.1813 193.451C31.9644 193.358 31.7695 193.669 31.992 193.775C34.8189 195.131 37.6369 196.512 40.4993 197.792C40.5646 202.354 40.642 206.917 40.7007 211.477C40.8047 219.443 40.9796 227.408 41.1501 235.373C35.9667 232.752 30.7402 230.196 25.486 227.723C25.2856 227.629 25.1119 227.911 25.31 228.024C30.4358 230.96 35.7487 233.623 41.1634 235.987C41.3039 242.605 41.4412 257.802 41.5264 264.421C41.5319 264.823 42.1551 264.824 42.1507 264.421C42.0588 255.98 42.0444 238.959 42.0212 230.517C44.7551 229.842 54.6669 225.614 57.1208 224.403C57.3731 224.276 57.1949 223.838 56.926 223.941Z" fill="#455A64"/>
<path d="M589.07 264.719H542.541L544.811 252.483C554.56 251.848 562.162 245.236 562.162 245.236L545.199 250.413L551.46 216.663C555.769 214.625 558.52 212.23 558.52 212.23L551.902 214.245L552.924 208.742C558.721 206.666 562.704 203.287 562.945 203.078L553.444 205.968L559.372 174.008C561.634 172.614 562.96 171.459 562.96 171.459L559.658 172.467L565.811 139.298L574.623 186.818L566.967 183.16C569.501 186.144 572.368 188.275 575.173 189.793V189.801L583.473 234.547L570.601 229.58C574.84 233.959 579.8 236.144 583.969 237.222L584.822 241.794L577.894 240.221C580.288 242.135 582.823 243.445 585.286 244.329L589.07 264.719Z" fill="#37474F"/>
<path d="M581.296 223.941C578.514 225.004 568.617 229.007 566.39 230.231C566.389 229.762 566.386 229.293 566.385 228.825C568.872 227.36 571.368 225.912 573.861 224.461C576.538 222.904 578.317 222.347 580.813 220.512C580.934 220.422 580.867 220.172 580.698 220.242C577.947 221.389 576.489 222.254 573.922 223.758C571.388 225.245 568.882 226.776 566.382 228.32C566.371 224.731 566.36 221.143 566.337 217.555C570.356 215.943 574.392 213.791 578.086 211.583C578.215 211.507 578.129 211.27 577.98 211.332C574.06 212.951 569.984 214.859 566.333 217.073C566.319 215.207 566.313 213.342 566.293 211.476C566.19 201.868 566.171 192.251 565.926 182.642C568.372 181.409 570.89 180.321 573.332 179.082C573.493 179.001 573.38 178.72 573.208 178.787C570.729 179.755 568.341 180.904 565.908 181.973C565.776 177.015 565.587 172.061 565.285 167.111C565.275 166.947 565.036 166.946 565.029 167.111C564.686 176.313 564.715 185.526 564.83 194.737C562.297 192.716 559.598 190.927 557.02 188.967C556.92 188.892 556.823 189.06 556.921 189.135C559.616 191.185 562.137 193.457 564.838 195.502C564.845 196.022 564.851 196.542 564.858 197.062C562.112 195.807 559.326 194.639 556.552 193.451C556.335 193.358 556.14 193.669 556.362 193.775C559.189 195.131 562.007 196.512 564.87 197.792C564.935 202.354 565.012 206.917 565.071 211.477C565.175 219.443 565.35 227.408 565.519 235.373C560.336 232.752 555.109 230.196 549.855 227.723C549.655 227.629 549.481 227.911 549.679 228.024C554.805 230.96 560.118 233.623 565.533 235.987C565.673 242.605 565.81 257.802 565.896 264.421C565.901 264.823 566.524 264.824 566.52 264.421C566.428 255.98 566.414 238.959 566.391 230.517C569.125 229.842 579.037 225.614 581.49 224.403C581.742 224.276 581.564 223.838 581.296 223.941Z" fill="#455A64"/>
<path d="M123.053 264.721H89.0938L93.0695 247.187C96.2772 246.979 100.303 246.16 103.917 243.799L93.3928 245.757L98.2474 224.325C99.7283 223.626 101.199 222.728 102.57 221.571L98.5894 222.829L99.2325 219.974C101.278 219.067 103.374 217.794 105.221 216.012L99.6398 218.192L106.068 189.823L109.701 205.854L106.438 205.039C106.438 205.039 107.766 205.983 109.96 206.992L115.171 229.96L111.39 229.016C111.39 229.016 112.941 230.117 115.453 231.218L119.063 247.119L111.686 245.282C111.875 245.416 114.981 247.568 119.442 248.789L120.067 251.557L108.733 248.729C108.733 248.729 113.768 252.31 120.39 252.977L121.288 256.943L117.515 256.003C117.515 256.003 119.066 257.104 121.574 258.201L123.053 264.721Z" fill="#455A64"/>
<path d="M116.794 242.03C114.916 242.748 107.958 245.58 106.456 246.406C106.455 246.089 106.453 245.773 106.451 245.456C108.129 244.469 109.814 243.491 111.498 242.512C113.304 241.46 115.243 240.523 116.928 239.284C117.01 239.223 116.964 239.055 116.851 239.102C114.995 239.875 113.271 241.022 111.539 242.037C109.828 243.04 108.137 244.073 106.45 245.115C106.443 242.693 106.436 240.272 106.419 237.851C109.131 236.763 111.854 235.312 114.348 233.821C114.434 233.769 114.376 233.61 114.277 233.652C111.632 234.744 108.881 236.032 106.417 237.526C106.408 236.267 106.456 226.57 106.143 214.291C107.793 213.458 109.491 212.724 111.14 211.888C111.249 211.833 111.172 211.644 111.056 211.689C109.382 212.343 107.771 213.117 106.129 213.839C106.04 210.493 105.912 207.15 105.709 203.81C105.702 203.7 105.541 203.698 105.537 203.81C105.305 210.019 105.325 222.035 105.402 228.251C103.693 226.887 101.871 225.68 100.132 224.357C100.065 224.306 99.9996 224.42 100.066 224.471C101.885 225.855 103.586 227.388 105.409 228.767C105.413 229.118 105.418 229.469 105.422 229.821C103.569 228.974 101.689 228.186 99.8159 227.383C99.6698 227.32 99.5381 227.531 99.6875 227.603C101.596 228.518 103.496 229.45 105.429 230.313C105.473 233.393 105.753 244.5 105.868 249.875C102.371 248.106 98.843 246.381 95.2966 244.712C95.1616 244.648 95.0443 244.84 95.1782 244.916C98.6382 246.896 102.223 248.694 105.877 250.29C105.972 254.756 106.064 260.05 106.122 264.517C106.125 264.788 106.546 264.788 106.543 264.517C106.481 258.82 106.472 252.295 106.456 246.598C108.301 246.142 115.27 243.158 116.924 242.341C117.095 242.257 116.975 241.962 116.794 242.03Z" fill="#37474F"/>
</svg>
