<svg width="374" height="243" viewBox="0 0 374 243" fill="none" xmlns="http://www.w3.org/2000/svg">
<path d="M145.596 148.187L144.66 152.957L143.652 158.082L134.455 204.827H119.414L128.611 158.082L129.619 152.957L130.555 148.187H145.596Z" fill="#EBEBEB"/>
<path d="M143.417 148.187C142.625 152.921 141.772 157.649 140.911 162.375L138.258 176.544L135.479 190.696L134.045 197.766L132.551 204.828L133.775 197.73L135.056 190.64L137.709 176.471L140.489 162.318C141.439 157.605 142.398 152.891 143.417 148.187Z" fill="#C7C7C7"/>
<path d="M144.661 152.957L143.652 158.082H128.611L129.62 152.957H144.661Z" fill="#C7C7C7"/>
<path d="M219.846 148.187L220.782 152.957L221.79 158.082L230.988 204.827H246.028L236.831 158.082L235.823 152.957L234.887 148.187H219.846Z" fill="#EBEBEB"/>
<path d="M222.073 148.187C222.865 152.921 223.718 157.649 224.579 162.375L227.231 176.544L230.011 190.696L231.445 197.766L232.938 204.828L231.715 197.73L230.434 190.64L227.781 176.471L225.001 162.318C224.051 157.605 223.092 152.891 222.073 148.187Z" fill="#C7C7C7"/>
<path d="M220.781 152.957H235.822L236.831 158.082H221.79L220.781 152.957Z" fill="#C7C7C7"/>
<path d="M145.05 135.037H133.125L134.607 125.822H143.568L145.05 135.037Z" fill="#C7C7C7"/>
<path d="M150.201 119.237C150.201 124.324 145.225 128.449 139.088 128.449C132.95 128.449 127.974 124.325 127.974 119.237C127.974 114.148 132.95 110.024 139.088 110.024C145.225 110.024 150.201 114.149 150.201 119.237Z" fill="#DBDBDB"/>
<path d="M147.536 119.237C147.536 123.104 143.754 126.24 139.087 126.24C134.422 126.24 130.639 123.105 130.639 119.237C130.639 115.368 134.422 112.233 139.087 112.233C143.754 112.233 147.536 115.369 147.536 119.237Z" fill="white"/>
<path d="M146.15 118.832C146.001 117.121 144.952 115.546 143.392 114.533C141.828 113.516 139.758 113.047 137.71 113.3C135.731 113.545 133.931 114.519 132.826 115.933C131.706 117.346 131.328 119.2 131.935 120.983C132.424 122.447 133.655 123.714 135.234 124.446C136.81 125.19 138.695 125.418 140.405 125.105C142.127 124.805 143.677 124.005 144.744 122.903C145.819 121.807 146.461 120.425 146.53 119.001C146.534 118.934 146.505 118.877 146.463 118.875C146.423 118.875 146.387 118.927 146.382 118.996C146.353 119.574 146.201 120.141 145.987 120.685C145.757 121.226 145.436 121.733 145.054 122.205C144.657 122.67 144.19 123.09 143.67 123.465C143.139 123.832 142.55 124.145 141.916 124.405C140.124 125.118 137.988 125.169 136.15 124.519C134.314 123.883 132.833 122.563 132.238 120.962C131.598 119.268 131.914 117.457 132.977 116.06C134.033 114.665 135.799 113.7 137.732 113.466C140.402 113.148 143.097 113.96 144.731 115.776C145.125 116.224 145.434 116.716 145.674 117.233C145.903 117.753 146.042 118.299 146.117 118.859C146.122 118.875 146.133 118.88 146.143 118.875C146.151 118.869 146.155 118.85 146.15 118.832Z" fill="#EBEBEB"/>
<path d="M145.162 118.838C145.012 117.366 144.103 116.033 142.768 115.169C141.428 114.306 139.674 113.901 137.915 114.101C136.219 114.297 134.658 115.12 133.688 116.334C132.706 117.544 132.358 119.154 132.868 120.709C133.277 121.987 134.352 123.099 135.731 123.736C137.106 124.383 138.753 124.578 140.241 124.295C141.736 124.027 143.077 123.326 143.996 122.365C144.922 121.41 145.474 120.217 145.541 118.984C145.544 118.925 145.515 118.876 145.474 118.874C145.434 118.874 145.397 118.919 145.392 118.979C145.267 120.998 143.718 122.769 141.534 123.647C139.996 124.272 138.138 124.328 136.546 123.767C134.953 123.22 133.667 122.068 133.165 120.681C132.626 119.212 132.915 117.647 133.842 116.456C134.763 115.263 136.291 114.45 137.938 114.268C140.218 114.022 142.49 114.691 143.908 116.232C144.247 116.613 144.515 117.03 144.727 117.47C144.927 117.913 145.052 118.379 145.127 118.861C145.132 118.874 145.143 118.88 145.153 118.874C145.162 118.87 145.166 118.854 145.162 118.838Z" fill="#EBEBEB"/>
<path d="M144.172 118.844C144.023 117.612 143.253 116.521 142.143 115.805C141.028 115.096 139.589 114.756 138.118 114.904C136.707 115.049 135.383 115.723 134.549 116.738C133.704 117.744 133.386 119.109 133.8 120.437C134.13 121.528 135.047 122.488 136.228 123.028C137.403 123.578 138.811 123.738 140.077 123.487C141.346 123.25 142.477 122.648 143.249 121.828C144.026 121.014 144.49 120.013 144.552 118.967C144.555 118.918 144.526 118.876 144.484 118.875C144.444 118.875 144.408 118.913 144.403 118.963C144.283 120.664 142.978 122.135 141.153 122.891C139.869 123.429 138.289 123.488 136.944 123.017C135.594 122.558 134.502 121.574 134.094 120.399C133.654 119.157 133.917 117.837 134.707 116.852C135.495 115.862 136.783 115.2 138.145 115.07C139.099 114.986 140.021 115.073 140.87 115.339C141.717 115.607 142.492 116.06 143.086 116.688C143.371 117.001 143.596 117.344 143.779 117.707C143.951 118.073 144.063 118.459 144.137 118.863C144.142 118.874 144.153 118.88 144.163 118.875C144.172 118.87 144.176 118.857 144.172 118.844Z" fill="#EBEBEB"/>
<path d="M143.183 118.85C143.033 117.858 142.404 117.008 141.519 116.442C140.628 115.886 139.507 115.612 138.322 115.707C137.196 115.803 136.109 116.327 135.411 117.141C134.704 117.944 134.416 119.064 134.733 120.165C134.984 121.069 135.744 121.875 136.725 122.32C137.699 122.773 138.868 122.898 139.913 122.68C140.956 122.474 141.877 121.971 142.502 121.293C143.13 120.618 143.504 119.809 143.563 118.952C143.565 118.911 143.537 118.878 143.495 118.876C143.455 118.876 143.418 118.907 143.414 118.948C143.298 120.331 142.237 121.5 140.772 122.136C139.743 122.586 138.44 122.65 137.341 122.268C136.235 121.897 135.337 121.081 135.023 120.12C134.682 119.104 134.919 118.03 135.573 117.251C136.226 116.463 137.275 115.954 138.352 115.873C139.109 115.824 139.832 115.897 140.497 116.1C141.162 116.307 141.781 116.655 142.263 117.146C142.494 117.392 142.677 117.662 142.832 117.947C142.977 118.236 143.074 118.542 143.148 118.868C143.153 118.876 143.164 118.882 143.174 118.877C143.183 118.871 143.187 118.861 143.183 118.85Z" fill="#EBEBEB"/>
<path d="M232.061 135.037H220.136L221.618 125.822H230.579L232.061 135.037Z" fill="#C7C7C7"/>
<path d="M237.212 119.237C237.212 124.324 232.236 128.449 226.098 128.449C219.96 128.449 214.984 124.325 214.984 119.237C214.984 114.148 219.96 110.024 226.098 110.024C232.236 110.024 237.212 114.149 237.212 119.237Z" fill="#DBDBDB"/>
<path d="M234.547 119.237C234.547 123.104 230.765 126.24 226.098 126.24C221.432 126.24 217.649 123.105 217.649 119.237C217.649 115.368 221.432 112.233 226.098 112.233C230.765 112.233 234.547 115.369 234.547 119.237Z" fill="white"/>
<path d="M233.16 118.832C233.011 117.121 231.962 115.546 230.401 114.533C228.837 113.516 226.767 113.047 224.719 113.3C222.74 113.545 220.94 114.519 219.834 115.933C218.715 117.346 218.336 119.2 218.943 120.983C219.432 122.447 220.663 123.714 222.242 124.446C223.818 125.19 225.704 125.418 227.413 125.105C229.135 124.805 230.686 124.005 231.752 122.903C232.827 121.807 233.469 120.425 233.537 119.001C233.542 118.934 233.512 118.877 233.47 118.875C233.43 118.875 233.394 118.927 233.389 118.996C233.36 119.574 233.208 120.141 232.995 120.685C232.764 121.226 232.444 121.733 232.061 122.205C231.664 122.67 231.198 123.09 230.676 123.465C230.145 123.832 229.558 124.145 228.923 124.405C227.131 125.118 224.995 125.169 223.156 124.519C221.32 123.883 219.84 122.563 219.244 120.962C218.605 119.268 218.92 117.457 219.984 116.06C221.039 114.665 222.805 113.7 224.738 113.466C227.408 113.148 230.103 113.96 231.737 115.776C232.131 116.224 232.441 116.716 232.681 117.233C232.91 117.753 233.049 118.299 233.123 118.859C233.129 118.875 233.14 118.88 233.15 118.875C233.16 118.869 233.164 118.85 233.16 118.832Z" fill="#EBEBEB"/>
<path d="M232.17 118.838C232.021 117.366 231.112 116.033 229.776 115.169C228.436 114.306 226.682 113.901 224.923 114.101C223.228 114.297 221.667 115.12 220.696 116.334C219.714 117.544 219.366 119.154 219.876 120.709C220.286 121.987 221.36 123.099 222.739 123.736C224.115 124.383 225.762 124.578 227.25 124.295C228.746 124.027 230.086 123.326 231.006 122.365C231.932 121.41 232.484 120.217 232.55 118.984C232.553 118.925 232.524 118.876 232.483 118.874C232.443 118.874 232.406 118.919 232.401 118.979C232.276 120.998 230.727 122.769 228.543 123.647C227.006 124.272 225.147 124.328 223.555 123.767C221.962 123.22 220.676 122.068 220.175 120.681C219.635 119.212 219.925 117.647 220.851 116.456C221.773 115.263 223.3 114.45 224.947 114.268C227.227 114.022 229.499 114.691 230.917 116.232C231.257 116.613 231.525 117.03 231.736 117.47C231.936 117.913 232.061 118.379 232.136 118.861C232.141 118.874 232.152 118.88 232.161 118.874C232.171 118.87 232.174 118.854 232.17 118.838Z" fill="#EBEBEB"/>
<path d="M231.182 118.844C231.033 117.612 230.263 116.521 229.153 115.805C228.038 115.096 226.6 114.756 225.128 114.904C223.718 115.049 222.394 115.723 221.559 116.738C220.714 117.744 220.397 119.109 220.81 120.437C221.14 121.528 222.058 122.488 223.238 123.028C224.413 123.578 225.821 123.738 227.087 123.487C228.357 123.25 229.487 122.648 230.26 121.828C231.036 121.014 231.499 120.013 231.562 118.967C231.566 118.918 231.537 118.876 231.494 118.875C231.454 118.875 231.418 118.913 231.414 118.963C231.293 120.664 229.988 122.135 228.163 122.891C226.879 123.429 225.299 123.488 223.953 123.017C222.604 122.558 221.512 121.574 221.104 120.399C220.664 119.157 220.927 117.837 221.717 116.852C222.505 115.862 223.793 115.2 225.155 115.07C226.109 114.986 227.03 115.073 227.879 115.339C228.726 115.607 229.501 116.06 230.095 116.688C230.38 117.001 230.606 117.344 230.789 117.707C230.961 118.073 231.072 118.459 231.147 118.863C231.152 118.874 231.163 118.88 231.173 118.875C231.182 118.87 231.186 118.857 231.182 118.844Z" fill="#EBEBEB"/>
<path d="M230.192 118.85C230.042 117.858 229.413 117.008 228.527 116.442C227.637 115.886 226.515 115.612 225.33 115.707C224.204 115.803 223.118 116.327 222.419 117.141C221.712 117.944 221.424 119.064 221.742 120.165C221.993 121.069 222.752 121.875 223.734 122.32C224.708 122.773 225.876 122.898 226.921 122.68C227.964 122.474 228.885 121.971 229.51 121.293C230.139 120.618 230.512 119.809 230.571 118.952C230.574 118.911 230.546 118.878 230.503 118.876C230.463 118.876 230.427 118.907 230.423 118.948C230.306 120.331 229.246 121.5 227.78 122.136C226.751 122.586 225.448 122.65 224.349 122.268C223.243 121.897 222.345 121.081 222.032 120.12C221.691 119.104 221.927 118.03 222.581 117.251C223.235 116.463 224.284 115.954 225.36 115.873C226.116 115.824 226.84 115.897 227.505 116.1C228.169 116.307 228.788 116.655 229.271 117.146C229.502 117.392 229.685 117.662 229.84 117.947C229.984 118.236 230.082 118.542 230.155 118.868C230.161 118.876 230.172 118.882 230.182 118.877C230.192 118.871 230.195 118.861 230.192 118.85Z" fill="#EBEBEB"/>
<path d="M257.654 130.34H107.792V154.1H257.654V130.34Z" fill="#DBDBDB"/>
<path d="M138.592 130.34L127.716 154.101H108.363L119.239 130.34H138.592Z" fill="#EBEBEB"/>
<path d="M178.265 130.34L167.388 154.101H148.028L158.904 130.34H178.265Z" fill="#EBEBEB"/>
<path d="M217.931 130.34L207.054 154.101H187.702L198.578 130.34H217.931Z" fill="#EBEBEB"/>
<path d="M257.603 130.34L246.727 154.101H227.367L238.244 130.34H257.603Z" fill="#EBEBEB"/>
<path d="M254.618 176.069H110.824V191.106H254.618V176.069Z" fill="#DBDBDB"/>
<path d="M140.377 176.069L129.941 191.106H111.372L121.808 176.069H140.377Z" fill="#EBEBEB"/>
<path d="M178.444 176.069L168.008 191.106H149.432L159.868 176.069H178.444Z" fill="#EBEBEB"/>
<path d="M216.503 176.069L206.066 191.106H187.498L197.933 176.069H216.503Z" fill="#EBEBEB"/>
<path d="M254.57 176.069L244.134 191.106H225.559L235.994 176.069H254.57Z" fill="#EBEBEB"/>
<path d="M186.999 243C284.815 243 364.11 237.507 364.11 230.73C364.11 223.954 284.815 218.46 186.999 218.46C89.1838 218.46 9.88867 223.954 9.88867 230.73C9.88867 237.507 89.1838 243 186.999 243Z" fill="#EBEBEB"/>
<path d="M0.984863 204.828L47.4892 204.657L93.9935 204.596L187.002 204.478L280.011 204.595L326.515 204.657L373.019 204.828L326.515 205.001L280.011 205.062L187.002 205.179L93.9935 205.062L47.4892 204.999L0.984863 204.828Z" fill="#263238"/>
<path d="M241.132 223.813L245.855 196.885L247.225 197.397L249.412 198.22L258.886 201.767L267.383 204.948L272.973 207.042L281.464 210.222L286.123 211.968C289.79 213.614 288.994 218.153 284.913 218.866L282.947 219.091L282.941 219.09L279.846 219.44L270.616 220.48L264.537 221.167L255.3 222.212L251.439 222.647L241.132 223.813Z" fill="#FFC727"/>
<path opacity="0.1" d="M247.459 197.638C247.459 197.638 246.772 199.195 245.727 200.546C242.844 204.268 240.758 211.896 242.331 220.687C242.464 221.43 242.613 222.747 243.03 223.462L245.004 223.353C245.004 223.353 254.21 206.603 284.315 211.263L281.469 210.198L272.978 207.022L267.387 204.929L258.891 201.746L247.459 197.638Z" fill="black"/>
<path d="M270.616 220.48L272.974 207.042L281.464 210.222L279.847 219.439L270.616 220.48Z" fill="#EBEBEB"/>
<path d="M255.301 222.211L258.887 201.767L267.383 204.948L264.538 221.166L255.301 222.211Z" fill="#EBEBEB"/>
<path d="M158.268 223.142H126.649L127.047 221.989L127.691 220.146L130.456 212.169L132.937 205.014L134.569 200.307L137.05 193.157L138.412 189.233C139.797 186.108 145.127 186.108 146.512 189.233L147.042 190.756V190.761L147.874 193.157L150.349 200.307L151.981 205.014L154.462 212.169L155.499 215.159L158.268 223.142Z" fill="#FFC727"/>
<path d="M159.399 229.944H117.843L124.468 216.34H166.024L159.399 229.944Z" fill="#FFC727"/>
<path d="M150.347 200.307H134.567L137.049 193.157H147.872L150.347 200.307Z" fill="#EBEBEB"/>
<path d="M154.46 212.169H130.454L132.936 205.014H151.979L154.46 212.169Z" fill="#EBEBEB"/>
<path d="M126.207 221.317C128.771 222.311 131.485 222.924 134.221 223.34C136.962 223.74 139.742 223.902 142.52 223.863C143.906 223.787 145.3 223.78 146.678 223.601C147.368 223.527 148.065 223.489 148.751 223.385C149.435 223.274 150.121 223.172 150.81 223.073C151.153 223.019 151.5 222.978 151.841 222.914L152.859 222.703L154.905 222.294C156.26 221.99 157.593 221.616 158.97 221.317C157.695 221.821 156.407 222.322 155.088 222.76L153.07 223.333L152.056 223.612C151.715 223.698 151.365 223.758 151.02 223.832C150.328 223.975 149.635 224.115 148.939 224.247C148.241 224.375 147.529 224.439 146.824 224.538C145.414 224.75 143.978 224.767 142.55 224.861C139.684 224.882 136.808 224.67 134.026 224.099C131.256 223.53 128.531 222.675 126.207 221.317Z" fill="#263238"/>
<path opacity="0.1" d="M127.292 221.771C127.292 221.771 129.177 222.098 130.876 222.737C135.555 224.499 144.616 225.089 154.508 222.629C155.344 222.421 156.838 222.121 157.602 221.691L157.202 220.147C157.202 220.147 136.664 215.195 137.852 190.761L137.021 193.158L134.545 200.307L132.913 205.015L130.432 212.169L127.292 221.771Z" fill="black"/>
<path d="M232.53 223.761L238.738 188.371L254.61 196.045L248.401 231.435L232.53 223.761Z" fill="#FFC727"/>
<path d="M248.344 210.692C247.456 217.232 244.6 222.333 241.963 222.087C239.328 221.841 237.91 216.34 238.798 209.801C239.686 203.262 242.544 198.16 245.18 198.406C247.816 198.653 249.233 204.154 248.344 210.692Z" fill="#263238"/>
<path d="M259.381 234.378C260.853 234.783 302.835 234.681 304.434 233.84C305.038 233.526 305.378 228.452 305.577 222.318C305.622 220.992 305.654 219.629 305.68 218.234C305.712 216.589 305.737 214.922 305.75 213.303C305.801 206.035 305.68 199.635 305.68 199.635H278.349L278.361 213.303L278.368 218.234L278.51 222.318C278.51 222.318 262.458 228.319 260.826 229.399C259.202 230.475 257.917 233.979 259.381 234.378Z" fill="#D3766A"/>
<path d="M259.381 234.378C260.853 234.783 302.835 234.681 304.434 233.84C305.038 233.526 305.378 228.452 305.577 222.317C305.622 220.992 305.654 219.629 305.68 218.233C305.712 216.589 305.737 214.922 305.75 213.303H278.361L278.368 218.233L278.51 222.317C278.51 222.317 262.458 228.318 260.826 229.399C259.202 230.475 257.917 233.978 259.381 234.378Z" fill="white"/>
<path d="M259.254 234.43C260.212 234.69 278.094 234.744 291.114 234.52C294.126 234.467 296.882 234.398 299.104 234.318C302.168 234.201 304.224 234.063 304.558 233.887C305.297 233.493 305.65 226.049 305.817 218.196H278.35L278.492 222.301C278.492 222.301 262.35 228.334 260.706 229.42C259.075 230.506 257.783 234.02 259.254 234.43Z" fill="#FFC727"/>
<path d="M259.854 233.029C266.931 232.868 295.49 232.771 302.5 233.058C302.556 233.06 302.556 233.093 302.5 233.095C295.49 233.381 266.93 233.285 259.854 233.124C259.705 233.121 259.704 233.032 259.854 233.029Z" fill="#263238"/>
<path d="M277.486 221.001C280.27 220.563 283.677 220.909 285.81 222.549C285.893 222.612 285.783 222.709 285.692 222.685C282.942 221.974 280.375 221.519 277.498 221.292C277.296 221.276 277.287 221.032 277.486 221.001Z" fill="#263238"/>
<path d="M275.479 222.009C278.262 221.572 281.669 221.918 283.803 223.558C283.886 223.621 283.776 223.718 283.685 223.694C280.935 222.983 278.368 222.529 275.491 222.301C275.288 222.285 275.28 222.041 275.479 222.009Z" fill="#263238"/>
<path d="M273.473 223.019C276.256 222.581 279.663 222.927 281.797 224.567C281.88 224.631 281.77 224.728 281.679 224.704C278.929 223.992 276.362 223.538 273.485 223.31C273.282 223.294 273.274 223.05 273.473 223.019Z" fill="#263238"/>
<path d="M271.467 224.028C274.25 223.59 277.658 223.936 279.791 225.576C279.873 225.639 279.764 225.736 279.673 225.712C276.923 225.001 274.356 224.546 271.479 224.319C271.276 224.303 271.268 224.059 271.467 224.028Z" fill="#263238"/>
<path d="M314.797 103.088C314.797 103.088 307.41 163.649 307.237 164.415C307.211 164.516 307.159 165.683 307.089 167.583C306.691 178.009 306.02 220.827 306.02 220.827H275.882C275.882 220.827 277.535 172.013 278.666 163.031C280.105 151.573 289.174 103.088 289.174 103.088H314.797Z" fill="#263238"/>
<path d="M303.644 166.55C304.574 153.429 305.96 140.33 307.836 127.278C308.894 119.92 310.167 112.588 311.433 105.253C311.444 105.189 311.566 105.192 311.555 105.255C309.223 118.31 307.57 131.466 306.147 144.608C304.726 157.734 303.732 170.888 303.083 184.055C302.716 191.516 302.439 207.907 302.148 215.37C302.141 215.547 301.809 215.541 301.815 215.363C302.24 202.063 302.702 179.834 303.644 166.55Z" fill="#455A64"/>
<path d="M277.472 216.754C278.26 216.668 279.119 216.695 279.919 216.672C280.824 216.646 281.73 216.641 282.634 216.612C284.38 216.556 286.125 216.52 287.872 216.496C291.389 216.449 294.916 216.466 298.432 216.558C299.4 216.583 300.368 216.614 301.335 216.643C302.366 216.675 303.401 216.753 304.432 216.749C304.51 216.749 304.508 216.826 304.43 216.825C302.658 216.82 300.865 216.952 299.093 217.005C297.348 217.057 295.604 217.084 293.857 217.104C290.34 217.145 286.811 217.119 283.298 217.011C282.331 216.981 281.362 216.97 280.394 216.946C279.877 216.932 279.362 216.908 278.845 216.892C278.384 216.877 277.926 216.903 277.468 216.854C277.388 216.845 277.395 216.761 277.472 216.754Z" fill="#455A64"/>
<path d="M314.797 103.088C314.797 103.088 307.41 163.649 307.237 164.415C307.211 164.517 307.159 165.683 307.089 167.583L292.881 103.088H314.797Z" fill="#455A64"/>
<path d="M306.747 234.531C308.262 234.8 349.977 230.874 351.455 229.892C352.014 229.525 351.679 224.45 351.064 218.335C350.933 217.014 344.293 195.781 344.293 195.781L316.161 198.271L324.161 220.801C324.161 220.801 309.003 228.227 307.525 229.45C306.051 230.668 305.238 234.267 306.747 234.531Z" fill="#D3766A"/>
<path d="M351.459 229.894C349.98 230.871 308.262 234.797 306.744 234.533C305.237 234.269 306.048 230.671 307.527 229.453C309.006 228.227 324.162 220.8 324.162 220.8L321.552 213.444L348.724 210.155C349.922 214.114 351.013 217.835 351.062 218.332C351.681 224.454 352.009 229.525 351.459 229.894Z" fill="white"/>
<path d="M306.629 234.594C307.615 234.767 325.396 233.19 338.308 231.782C341.295 231.454 344.025 231.135 346.223 230.853C349.253 230.457 351.277 230.132 351.586 229.928C352.137 229.556 351.871 224.346 351.065 218.336C350.874 216.914 350.368 215.371 349.94 214.216L322.9 217.242L324.141 220.786C324.141 220.786 308.897 228.253 307.406 229.482C305.93 230.711 305.113 234.321 306.629 234.594Z" fill="#FFC727"/>
<path d="M307.04 233.147C314.052 232.342 342.426 229.645 349.431 229.292C349.488 229.289 349.492 229.321 349.436 229.328C342.507 230.252 314.108 232.759 307.053 233.243C306.905 233.253 306.893 233.164 307.04 233.147Z" fill="#263238"/>
<path d="M322.971 219.585C325.68 218.897 329.112 218.931 331.45 220.366C331.541 220.421 331.444 220.527 331.351 220.512C328.524 220.056 325.911 219.838 323.022 219.873C322.818 219.876 322.778 219.634 322.971 219.585Z" fill="#263238"/>
<path d="M321.111 220.771C323.819 220.082 327.252 220.117 329.59 221.551C329.681 221.607 329.584 221.713 329.491 221.698C326.663 221.241 324.051 221.023 321.162 221.059C320.958 221.062 320.917 220.82 321.111 220.771Z" fill="#263238"/>
<path d="M319.25 221.957C321.958 221.269 325.391 221.303 327.729 222.738C327.82 222.793 327.723 222.899 327.63 222.884C324.802 222.428 322.19 222.21 319.301 222.246C319.097 222.248 319.056 222.007 319.25 221.957Z" fill="#263238"/>
<path d="M317.39 223.142C320.098 222.454 323.531 222.488 325.869 223.923C325.96 223.979 325.863 224.085 325.77 224.07C322.941 223.613 320.33 223.395 317.441 223.431C317.236 223.434 317.195 223.192 317.39 223.142Z" fill="#263238"/>
<path d="M288.805 102.754C288.805 102.754 290.122 109.255 294.392 113.701C295.413 114.765 298.548 115.756 300.17 116.737C300.17 116.737 305.543 164.325 306.279 171.337C307.286 180.945 320.707 220.389 320.707 220.389L351.787 215.978C351.787 215.978 338.779 175.666 336.117 166.391C335.504 164.254 330.676 120.401 330.828 119.461C332.639 108.273 326.198 101.319 326.198 101.319L288.805 102.754Z" fill="#263238"/>
<path d="M313.572 103.766C314.138 105.523 315.526 107.062 317.261 108.156C319.211 109.386 321.552 109.899 323.957 110.058C324.364 110.085 324.396 110.593 323.97 110.595C319.056 110.619 314.091 108.015 313.37 103.792C313.354 103.696 313.543 103.675 313.572 103.766Z" fill="#455A64"/>
<path d="M293.807 113.515C295.614 114.049 297.259 114.915 298.883 115.748C300.57 116.613 302.129 117.626 303.757 118.561C303.82 118.597 303.767 118.682 303.698 118.649C301.991 117.835 300.212 117.128 298.522 116.286C296.88 115.468 295.178 114.677 293.733 113.625C293.677 113.584 293.732 113.492 293.807 113.515Z" fill="#455A64"/>
<path d="M293.115 105.023C293.378 105.956 293.704 106.877 294.001 107.803C294.279 108.672 294.498 109.561 294.825 110.418C295.143 111.249 295.617 112.004 296.431 112.575C296.864 112.88 297.337 113.145 297.796 113.421C298.044 113.571 298.31 113.713 298.567 113.863C298.528 113.74 298.495 113.615 298.461 113.488C298.366 113.134 298.273 112.779 298.181 112.425C297.976 111.638 297.78 110.85 297.59 110.061C297.216 108.511 296.864 106.943 296.386 105.412C296.366 105.35 296.479 105.322 296.502 105.383C297.056 106.898 297.657 108.393 298.15 109.922C298.392 110.672 299.314 114.386 299.36 114.65C299.407 114.922 299.45 115.195 299.477 115.469C299.503 115.74 299.584 116.04 299.524 116.309C299.509 116.378 299.409 116.371 299.371 116.326C299.37 116.327 299.369 116.328 299.367 116.329C299.19 116.097 299.131 115.787 299.036 115.527C298.938 115.263 298.851 114.995 298.778 114.725C298.752 114.628 298.73 114.529 298.707 114.429C298.25 114.222 297.82 113.942 297.391 113.708C296.928 113.457 296.458 113.212 296.018 112.932C295.176 112.397 294.63 111.722 294.283 110.894C293.921 110.035 293.774 109.121 293.603 108.226C293.402 107.169 293.238 106.104 293 105.052C292.985 104.99 293.097 104.96 293.115 105.023Z" fill="#455A64"/>
<path d="M322.022 215.547C322.778 215.34 330.469 213.972 332.18 213.677C335.624 213.084 347.491 211.515 348.504 211.35C348.58 211.338 348.595 211.414 348.518 211.426C346.777 211.697 341.643 212.702 338.196 213.344C334.765 213.983 322.502 215.623 322.041 215.646C321.961 215.649 321.949 215.567 322.022 215.547Z" fill="#455A64"/>
<path d="M337.527 188.209C335.336 181.169 332.95 174.148 331.428 166.982C330.663 163.382 330.232 159.749 329.883 156.107C329.532 152.454 329.193 148.799 328.848 145.144C328.502 141.481 328.154 137.818 327.8 134.155C327.442 130.457 327.043 126.754 327.006 123.04C326.945 117.019 328.264 110.483 325.141 104.808C324.785 104.161 324.361 103.542 323.894 102.947C323.801 102.828 323.583 102.94 323.669 103.062C327.51 108.568 326.506 115.204 326.361 121.285C326.276 124.882 326.57 128.472 326.902 132.056C327.241 135.719 327.586 139.383 327.935 143.045C328.285 146.708 328.634 150.371 328.984 154.034C329.329 157.636 329.651 161.247 330.246 164.828C331.423 171.91 333.757 178.828 335.925 185.734C338.156 192.84 340.354 199.968 342.837 207.017C343.148 207.898 343.444 208.783 343.745 209.666C343.771 209.744 343.912 209.708 343.889 209.63C341.849 202.474 339.743 195.329 337.527 188.209Z" fill="#455A64"/>
<path d="M293.843 43.3282C296.136 41.2799 299.989 40.8476 303.714 41.5139C307.438 42.1803 311.865 43.7549 312.177 48.7C312.43 52.7145 310.781 56.5954 310.715 61.0675C310.649 65.5396 316.793 76.5567 306.454 81.6811C297.167 86.2846 278.63 81.5503 278.258 71.7078C277.963 63.9052 289.784 56.9195 291.077 53.8561C292.371 50.7934 291.329 45.5741 293.843 43.3282Z" fill="#263238"/>
<path d="M292.074 47.6956C291.957 49.9246 291.506 52.1718 290.294 54.2575C289.995 54.7769 289.575 55.2781 289.105 55.7146C288.641 56.1568 288.153 56.5708 287.667 56.9841C286.682 57.8009 285.707 58.6121 284.786 59.4571C282.937 61.1364 281.32 62.9647 280.172 64.9751C279.023 66.9834 278.385 69.1688 278.254 71.3999C278.15 70.283 278.235 69.1569 278.449 68.0448C278.684 66.9349 279.079 65.8446 279.601 64.7916C280.641 62.6779 282.296 60.7758 284.162 59.0571C285.103 58.2002 286.104 57.3862 287.094 56.5792C288.088 55.7674 289.094 54.9997 289.721 54.036C290.379 53.0779 290.834 52.0242 291.196 50.9565C291.587 49.8915 291.852 48.7978 292.074 47.6956Z" fill="#263238"/>
<path d="M311.845 52.063C311.727 54.337 311.5 56.6039 311.532 58.8646C311.561 59.9935 311.617 61.121 311.821 62.2331C312.009 63.331 312.401 64.4353 312.724 65.5516C313.044 66.6686 313.334 67.7968 313.539 68.9369C313.721 70.0792 313.821 71.2341 313.747 72.3877C313.649 73.5405 313.373 74.6841 312.87 75.7695C312.302 76.8386 311.467 77.8094 310.414 78.6051C311.33 77.7131 312.066 76.7367 312.494 75.6661C312.905 74.5949 313.103 73.4842 313.123 72.3652C313.125 70.1221 312.593 67.8917 311.934 65.6781C311.628 64.5668 311.237 63.4618 311.062 62.2963C310.899 61.147 310.851 59.9963 310.912 58.8526C311.01 56.5646 311.394 54.3082 311.845 52.063Z" fill="#263238"/>
<path d="M303.134 67.0746C302.017 70.869 288.722 106.421 286.089 106.913C278.338 108.361 269.029 109.422 269.168 104.152C269.384 95.8816 288.143 74.1067 297.129 66.8686C303.044 62.1027 304.237 63.3293 303.134 67.0746Z" fill="#D3766A"/>
<path d="M285.396 76.9326L299.2 79.6635C299.2 79.6635 303.157 68.5613 303.8 65.6968C304.443 62.8324 301.737 62.8549 297.559 66.2522C293.38 69.6487 285.396 76.9326 285.396 76.9326Z" fill="#EBEBEB"/>
<path d="M287.522 75.6295C287.427 75.6119 287.382 75.6611 287.476 75.6808C292.186 76.6874 297.684 77.5759 299.712 77.7108C299.744 77.713 299.747 77.6757 299.72 77.668C297.77 77.1274 288.568 75.8249 287.522 75.6295Z" fill="#263238"/>
<path d="M289.995 90.4496L287.428 107.982C287.428 107.982 321.789 107.728 330.301 107.063C330.301 107.063 322.415 74.5373 313.01 66.4655C308.307 62.4278 302.932 62.8426 299.582 65.7949C298.734 66.5421 288.698 78.0948 287.73 82.4523C286.888 86.2967 289.995 90.4496 289.995 90.4496Z" fill="#EBEBEB"/>
<path d="M287.423 107.98L289.994 90.4488C289.994 90.4488 286.891 86.2987 287.732 82.4522C288.699 78.0933 298.732 66.5398 299.582 65.7947C299.901 65.5143 300.24 65.25 300.597 65.0173L296.2 75.5135L309.25 64.1899C310.098 64.4852 311.278 64.9857 313.009 66.4674C322.414 74.5357 330.301 107.065 330.301 107.065C321.785 107.731 287.423 107.98 287.423 107.98Z" fill="#FFC727"/>
<path d="M327.671 97.5719L288.805 98.5651L289.211 95.7689L326.83 94.8157C327.13 95.7696 327.41 96.6911 327.671 97.5719Z" fill="#EBEBEB"/>
<path d="M329.082 102.428L288.079 103.469L288.495 100.673L328.289 99.6638C328.589 100.665 328.85 101.594 329.082 102.428Z" fill="#EBEBEB"/>
<path d="M307.494 65.3012C307.29 65.8509 303.778 69.296 300.708 69.0029C299.708 68.9059 300.102 64.3593 300.102 64.3593L300.039 64.0184L299.154 59.2426L306.111 56.0717L307.113 55.6562C307.113 55.6562 307.251 56.9764 307.403 58.6212C307.41 58.6979 307.418 58.7738 307.425 58.8553C307.437 58.9481 307.449 59.036 307.455 59.1224C307.481 59.3677 307.507 59.6187 307.527 59.8689C307.542 60.0594 307.559 60.2443 307.566 60.4446C307.581 60.6457 307.589 60.8404 307.603 61.0414C307.688 63.0251 307.576 65.0671 307.494 65.3012Z" fill="#D3766A"/>
<path d="M307.401 58.621C305.469 62.2742 301.735 63.5978 300.037 64.0189L299.152 59.2431L306.109 56.0722L307.111 55.6567C307.111 55.6567 307.249 56.9762 307.401 58.621Z" fill="#263238"/>
<path d="M291.056 51.2375C289.169 59.5715 294.978 61.4497 297.146 61.785C299.115 62.0894 305.865 62.9181 308.78 54.7901C311.695 46.6621 307.617 43.2999 303.159 42.4065C298.702 41.5131 292.944 42.9028 291.056 51.2375Z" fill="#D3766A"/>
<path d="M293.732 49.1661C293.971 49.1957 294.197 49.1893 294.437 49.1985C294.708 49.2083 294.923 49.2392 295.164 49.1176C295.294 49.0523 295.344 48.8723 295.279 48.762C295.128 48.5054 294.8 48.4245 294.474 48.402C294.121 48.3774 293.841 48.433 293.549 48.5982C293.266 48.7577 293.416 49.1268 293.732 49.1661Z" fill="#263238"/>
<path d="M300.635 50.3787C300.403 50.3231 300.2 50.2402 299.977 50.1657C299.725 50.0813 299.515 50.0363 299.356 49.8423C299.271 49.7383 299.315 49.5569 299.43 49.4789C299.695 49.2969 300.034 49.3362 300.341 49.4269C300.675 49.5253 300.902 49.6729 301.086 49.9232C301.263 50.1671 300.941 50.4518 300.635 50.3787Z" fill="#263238"/>
<path d="M298.651 52.3049C298.661 52.2838 298.698 52.3401 298.692 52.3633C298.541 52.927 298.481 53.5941 299.057 53.8802C299.075 53.8894 299.066 53.9175 299.044 53.9111C298.308 53.7031 298.398 52.8188 298.651 52.3049Z" fill="#263238"/>
<path d="M299.397 51.8087C300.514 51.9127 300.18 53.7565 299.145 53.6595C298.128 53.5646 298.461 51.7215 299.397 51.8087Z" fill="#263238"/>
<path d="M299.817 51.9602C299.992 52.0889 300.149 52.2962 300.38 52.3447C300.647 52.401 300.886 52.233 301.097 52.0699C301.119 52.053 301.136 52.0713 301.131 52.0959C301.074 52.4502 300.845 52.7918 300.378 52.7876C299.953 52.7841 299.71 52.434 299.669 52.0657C299.66 51.9968 299.747 51.9082 299.817 51.9602Z" fill="#263238"/>
<path d="M294.688 51.6753C294.687 51.6528 294.63 51.6957 294.627 51.7196C294.55 52.2939 294.347 52.9406 293.69 53.0572C293.67 53.0608 293.667 53.0896 293.69 53.0896C294.467 53.0903 294.727 52.2292 294.688 51.6753Z" fill="#263238"/>
<path d="M294.176 51.0057C293.079 50.8054 292.676 52.6394 293.693 52.8249C294.692 53.007 295.095 51.1737 294.176 51.0057Z" fill="#263238"/>
<path d="M293.687 51.0564C293.491 51.1274 293.279 51.2778 293.068 51.2574C292.823 51.2342 292.688 51.0086 292.576 50.7949C292.564 50.7731 292.543 50.7858 292.537 50.8097C292.448 51.1583 292.508 51.5449 292.899 51.6736C293.256 51.791 293.594 51.5309 293.771 51.197C293.804 51.1358 293.766 51.0283 293.687 51.0564Z" fill="#263238"/>
<path d="M297.799 56.9503C297.638 57.0909 297.481 57.2821 297.229 57.3081C296.987 57.3327 296.699 57.2512 296.474 57.1872C296.452 57.1809 296.431 57.2013 296.445 57.2174C296.636 57.4332 297.023 57.5598 297.343 57.5021C297.656 57.4466 297.801 57.2153 297.866 56.9742C297.876 56.9405 297.821 56.9299 297.799 56.9503Z" fill="#263238"/>
<path d="M295.12 54.4065C295.12 54.4065 294.812 55.2387 294.734 55.6401C294.727 55.6774 294.84 55.7111 295.003 55.7413C295.011 55.7449 295.014 55.7477 295.022 55.7442C295.856 55.9698 296.765 55.8405 297.398 55.3315C297.44 55.2971 297.386 55.2472 297.337 55.2662C296.622 55.5691 295.897 55.5748 295.136 55.4834C295.124 55.3674 295.722 54.0726 295.646 54.0578C295.385 54.0037 294.834 54.0831 294.506 54.1169C295.087 52.368 296.002 50.7104 296.55 48.9615C296.568 48.899 296.462 48.8652 296.429 48.9187C295.321 50.5994 294.599 52.5999 293.942 54.3931C293.857 54.6167 294.913 54.4494 295.12 54.4065Z" fill="#263238"/>
<path d="M295.091 55.6822C295.091 55.6822 295.447 56.2853 296.053 56.5763C296.276 56.6838 296.528 56.752 296.811 56.7337C297.393 56.6979 297.502 56.2782 297.481 55.9015C297.464 55.5922 297.355 55.3103 297.355 55.3103C297.355 55.3103 296.404 55.815 295.091 55.6822Z" fill="#263238"/>
<path d="M296.053 56.5762C296.276 56.6837 296.528 56.7519 296.811 56.7336C297.393 56.6978 297.501 56.2781 297.48 55.9014C296.874 55.8606 296.21 56.1052 296.053 56.5762Z" fill="#FF9BBC"/>
<path d="M307.039 55.1824C307.039 55.1824 309.577 52.7312 310.94 53.5066C312.303 54.2819 310.175 57.9625 308.42 58.3456C306.665 58.7287 306.205 57.3889 306.205 57.3889L307.039 55.1824Z" fill="#D3766A"/>
<path d="M310.299 54.5491C310.327 54.5491 310.328 54.5814 310.303 54.587C309.068 54.8879 308.334 55.749 307.784 56.6586C308.181 56.3233 308.685 56.1637 309.231 56.5602C309.26 56.5813 309.225 56.6185 309.192 56.6101C308.717 56.4836 308.357 56.525 307.991 56.8203C307.73 57.0297 307.537 57.306 307.339 57.5555C307.273 57.6392 307.088 57.5759 307.14 57.4782C307.144 57.4712 307.149 57.4635 307.153 57.4564C307.272 56.2003 308.659 54.5414 310.299 54.5491Z" fill="#263238"/>
<path d="M308.392 54.4881C307.306 54.304 304.884 51.4676 305.553 47.0715C305.553 47.0715 305.282 51.0536 305.54 51.6729C305.797 52.2922 304.187 50.0779 304.667 46.526C304.667 46.526 302.06 47.6598 299.964 47.8897C297.869 48.1188 296.638 47.9572 296.515 47.8194C296.392 47.6816 299.491 47.2584 300.425 46.5871C300.425 46.5871 294.708 48.0176 292.211 47.8813C291.922 47.8651 292.421 42.953 296.597 41.3376C300.772 39.7223 306.439 42.6725 307.841 44.1676C307.841 44.1676 309.713 44.6196 311.386 47.2071C313.058 49.7953 309.563 54.6864 308.392 54.4881Z" fill="#263238"/>
<path d="M292.096 45.6755C292.096 45.6755 295.8 36.5852 305.604 39.2591C315.409 41.9338 311.878 51.0713 311.878 51.0713L292.096 45.6755Z" fill="#FFC727"/>
<path d="M312.867 50.6376L291.612 44.8396L291.099 46.1316L312.354 51.9296L312.867 50.6376Z" fill="#FFC727"/>
<path d="M302.087 47.6844L297.662 46.4775L302.25 37.8271L306.676 39.0341L302.087 47.6844Z" fill="#FFC727"/>
<path opacity="0.1" d="M302.087 47.6844L297.662 46.4775L302.25 37.8271L306.676 39.0341L302.087 47.6844Z" fill="black"/>
<path d="M305.787 106.238L286.006 112.955L264.89 70.2259C263.571 67.5576 265.112 64.509 268.33 63.4159L276.455 60.6569C279.674 59.5638 283.351 60.841 284.67 63.5087L305.787 106.238Z" fill="#455A64"/>
<path d="M302.58 107.329L289.248 111.856L291.415 116.242L304.747 111.715L302.58 107.329Z" fill="#455A64"/>
<path d="M300.199 113.26L295.966 114.697L319.286 161.886L323.519 160.448L300.199 113.26Z" fill="#EBEBEB"/>
<path d="M327.696 163.865C327.696 163.865 328.686 172.005 328.406 172.1L327.006 172.576C326.981 172.584 326.981 172.584 326.981 172.584L325.581 173.059C325.301 173.154 319.117 166.778 319.117 166.778L319.263 161.899L323.462 160.472L327.696 163.865Z" fill="#EBEBEB"/>
<path d="M270.907 69.7481L267.452 70.9214L285.62 107.683L289.075 106.51L270.907 69.7481Z" fill="#263238"/>
<path d="M277.32 67.572L273.865 68.7454L292.033 105.507L295.488 104.334L277.32 67.572Z" fill="#263238"/>
<path d="M283.695 65.3958L280.241 66.5688L298.409 103.326L301.863 102.153L283.695 65.3958Z" fill="#263238"/>
<path d="M298.194 86.8884C299.514 87.9281 298.687 89.3325 298.687 89.3325C298.687 89.3325 300.119 89.5392 300.938 90.4769C301.876 91.551 300.255 93.2415 300.255 93.2415C300.255 93.2415 301.653 93.6999 302.398 94.7627C303.172 95.8656 301.829 97.7649 301.829 97.7649C301.829 97.7649 302.849 98.7849 302.698 100.086C302.439 102.312 298.753 103.835 296.422 104.824C294.09 105.812 286.36 106.806 284.911 107.12L277.128 94.7704C277.128 94.7704 286.061 87.8718 289.002 87.0325C291.478 86.3254 296.712 85.7216 298.194 86.8884Z" fill="#D3766A"/>
<path d="M278.183 93.97C275.515 95.6647 267.513 102.206 269.394 105.535C271.274 108.864 277.707 108.528 286.634 106.826L278.183 93.97Z" fill="#D3766A"/>
<path d="M298.457 89.178C295.606 89.4064 292.992 90.3209 290.319 91.111C290.26 91.1286 290.294 91.2059 290.353 91.1877C293 90.3765 295.807 90.011 298.486 89.2883C298.561 89.2687 298.535 89.1723 298.457 89.178Z" fill="#263238"/>
<path d="M300.105 93.1002C299.462 93.1677 298.847 93.4116 298.254 93.6155C297.614 93.8348 296.98 94.0639 296.349 94.3001C295.087 94.7739 293.838 95.2723 292.608 95.8002C292.553 95.8234 292.583 95.8986 292.642 95.8768C293.9 95.4065 295.168 94.951 296.449 94.5251C297.09 94.3121 297.734 94.1033 298.379 93.898C298.98 93.7068 299.632 93.5473 300.17 93.2485C300.249 93.2042 300.201 93.0904 300.105 93.1002Z" fill="#263238"/>
<path d="M301.775 97.7833C301.214 97.8233 300.64 98.1214 300.138 98.3203C299.569 98.5459 298.998 98.7695 298.425 98.9902C297.281 99.4316 296.135 99.8724 294.972 100.28C294.915 100.3 294.948 100.376 295.006 100.357C296.19 99.9476 297.381 99.5511 298.56 99.1329C299.14 98.9276 299.718 98.7196 300.294 98.5094C300.784 98.3301 301.421 98.153 301.804 97.8304C301.826 97.8121 301.803 97.7818 301.775 97.7833Z" fill="#263238"/>
<path d="M277.832 94.0803C276.865 94.7228 276.067 95.1888 275.181 95.9494C274.973 96.1272 274.764 96.3058 274.557 96.4857C274.465 96.5328 274.375 96.5813 274.285 96.6305C273.905 96.8365 273.534 97.053 273.179 97.2878C272.493 97.7433 271.856 98.2459 271.247 98.7724C271.203 98.8103 271.272 98.8644 271.318 98.8286C271.959 98.3204 272.655 97.8628 273.38 97.441C273.475 97.3855 273.572 97.3342 273.667 97.2793C273.319 97.5999 272.978 97.9267 272.663 98.2669C271.82 99.178 271.031 100.092 270.328 101.084C270.296 101.129 270.381 101.167 270.415 101.123C271.715 99.3924 277.386 94.7635 278.005 94.2089C278.641 93.6381 278.305 93.7668 277.832 94.0803Z" fill="#263238"/>
<path d="M314.629 66.8231C324.281 74.1765 332.507 88.4271 332.524 91.9333C332.545 96.3745 323.853 117.674 319.481 121.45C317.796 122.905 302.863 112.63 304.679 111.086C307.763 108.466 316.367 91.3745 316.45 90.1844C316.502 89.4372 312.101 77.7748 309.197 71.3219C305.207 62.455 311.705 64.5955 314.629 66.8231Z" fill="#D3766A"/>
<path d="M288.906 129.112C290.301 129.993 291.873 129.853 291.873 129.853C291.873 129.853 291.793 131.243 292.86 132.243C294.082 133.388 296.785 132.299 296.785 132.299C296.785 132.299 297.054 133.719 298.31 134.682C299.613 135.681 302.528 134.904 302.528 134.904C302.528 134.904 303.656 136.111 305.46 136.296C308.546 136.613 311.542 133.553 313.47 131.625C315.398 129.696 318.692 122.727 319.481 121.452L304.679 111.088C304.679 111.088 293.069 117.699 291.19 120.234C289.606 122.368 286.922 127.858 288.906 129.112Z" fill="#D3766A"/>
<path d="M291.845 129.786C292.872 127.181 294.648 124.784 296.393 122.487C296.432 122.436 296.528 122.487 296.488 122.538C294.72 124.805 293.642 127.519 291.986 129.84C291.942 129.905 291.817 129.856 291.845 129.786Z" fill="#263238"/>
<path d="M296.63 132.123C296.884 131.539 297.369 131.027 297.795 130.524C298.253 129.982 298.723 129.447 299.203 128.917C300.164 127.858 301.154 126.816 302.181 125.8C302.226 125.755 302.32 125.801 302.276 125.851C301.32 126.908 300.384 127.977 299.483 129.067C299.032 129.612 298.587 130.16 298.146 130.711C297.735 131.224 297.355 131.793 296.814 132.221C296.735 132.284 296.592 132.211 296.63 132.123Z" fill="#263238"/>
<path d="M302.567 134.857C302.763 134.342 303.312 133.882 303.709 133.463C304.158 132.988 304.605 132.51 305.048 132.031C305.935 131.073 306.822 130.114 307.668 129.131C307.71 129.081 307.805 129.132 307.763 129.181C306.909 130.184 306.073 131.197 305.208 132.193C304.784 132.683 304.356 133.17 303.925 133.655C303.558 134.068 303.157 134.618 302.623 134.895C302.593 134.911 302.557 134.883 302.567 134.857Z" fill="#263238"/>
<path d="M313.112 81.5996L326.698 76.5919C326.698 76.5919 319.276 68.7289 313.558 65.9235C307.841 63.1181 307.064 65.7238 308.221 69.6532C309.379 73.5827 313.112 81.5996 313.112 81.5996Z" fill="#EBEBEB"/>
<path d="M313.141 79.3358C313.051 79.3675 313.049 79.4286 313.139 79.3998C317.677 77.9496 322.776 76.0243 324.521 75.1576C324.548 75.1442 324.524 75.1119 324.497 75.1189C322.531 75.6187 314.129 78.9907 313.141 79.3358Z" fill="#263238"/>
<path d="M309.206 72.6982C310.406 75.711 311.778 78.8488 313.061 81.7625C313.084 81.8152 313.62 81.5207 313.848 81.4139C313.934 81.3731 313.858 81.3112 313.77 81.3422C313.549 81.4216 313.488 81.4307 313.249 81.4849C311.954 78.5403 310.651 75.5964 309.249 72.6848C309.238 72.663 309.197 72.675 309.206 72.6982Z" fill="#263238"/>
<path d="M104.127 195.879C102.615 196.27 59.7139 195.508 58.0984 194.623C57.4887 194.293 57.2563 189.102 57.1927 182.831C57.1766 181.476 57.1749 180.082 57.1809 178.655C57.1851 176.974 57.197 175.27 57.2207 173.616C57.3344 166.188 57.6049 159.649 57.6049 159.649L85.5355 160.078L85.2107 174.046L85.092 179.084L84.8545 183.255C84.8545 183.255 101.122 189.639 102.764 190.77C104.399 191.894 105.632 195.494 104.127 195.879Z" fill="#F7A9A0"/>
<path d="M104.127 195.879C102.615 196.27 59.7139 195.508 58.0984 194.623C57.4887 194.293 57.2563 189.102 57.1927 182.831C57.1766 181.475 57.1749 180.082 57.1809 178.655C57.1851 176.974 57.197 175.27 57.2207 173.616L85.2107 174.045L85.092 179.084L84.8545 183.255C84.8545 183.255 101.122 189.639 102.764 190.77C104.399 191.894 105.632 195.494 104.127 195.879Z" fill="white"/>
<path d="M104.256 195.934C103.272 196.186 84.9957 195.959 71.6949 195.527C68.6175 195.425 65.803 195.311 63.5337 195.195C60.4054 195.028 58.3083 194.854 57.9708 194.67C57.2246 194.256 57.0338 186.643 57.0423 178.615L85.1111 179.045L84.8728 183.238C84.8728 183.238 101.231 189.656 102.886 190.792C104.529 191.927 105.768 195.538 104.256 195.934Z" fill="#FFC727"/>
<path d="M103.675 194.493C96.4474 194.218 67.2635 193.672 60.0936 193.855C60.0351 193.856 60.0343 193.889 60.0928 193.892C67.2491 194.295 96.4372 194.645 103.672 194.592C103.825 194.59 103.828 194.499 103.675 194.493Z" fill="#263238"/>
<path d="M85.9297 181.925C83.0948 181.434 79.6053 181.734 77.3878 183.376C77.3021 183.44 77.4124 183.54 77.5048 183.518C80.3312 182.834 82.9651 182.41 85.9102 182.222C86.1179 182.209 86.1324 181.96 85.9297 181.925Z" fill="#263238"/>
<path d="M87.959 182.988C85.125 182.497 81.6346 182.797 79.4171 184.439C79.3314 184.503 79.4417 184.603 79.5341 184.581C82.3605 183.897 84.9944 183.473 87.9395 183.285C88.1481 183.272 88.1617 183.023 87.959 182.988Z" fill="#263238"/>
<path d="M89.9858 184.05C87.1518 183.56 83.6615 183.86 81.4439 185.502C81.3583 185.566 81.4685 185.666 81.561 185.643C84.3873 184.959 87.0212 184.535 89.9663 184.348C90.1741 184.335 90.1894 184.085 89.9858 184.05Z" fill="#263238"/>
<path d="M92.0132 185.113C89.1792 184.622 85.6888 184.922 83.4713 186.564C83.3856 186.628 83.4959 186.728 83.5883 186.706C86.4147 186.022 89.0486 185.598 91.9937 185.41C92.2014 185.397 92.2159 185.148 92.0132 185.113Z" fill="#263238"/>
<path d="M91.3255 176.564C90.2401 175.267 88.143 175.804 86.9338 176.611C84.9757 177.917 83.2373 179.98 82.4114 181.937C82.391 181.985 82.4292 182.015 82.4758 182.023C82.4792 182.202 82.6692 182.396 82.9142 182.325C85.2827 181.645 87.9166 181.162 89.9628 179.9C91.1585 179.164 92.3525 177.789 91.3255 176.564ZM86.252 180.686C85.097 181.043 83.9276 181.352 82.7887 181.745C83.674 180.708 84.5017 179.645 85.5125 178.683C85.995 178.224 86.5013 177.76 87.0559 177.359C87.9183 176.736 91.306 175.436 90.737 178.015C90.4241 179.437 87.6283 180.26 86.252 180.686Z" fill="#263238"/>
<path d="M75.1954 181.192C77.5198 182.062 80.2173 182.067 82.7062 182.313C82.9648 182.338 83.0997 182.115 83.0564 181.939C83.0997 181.923 83.1302 181.887 83.098 181.844C81.787 180.079 79.5576 178.371 77.3078 177.441C75.9188 176.868 73.731 176.715 73.0051 178.173C72.3182 179.553 73.8386 180.683 75.1954 181.192ZM73.954 179.487C72.7337 177.067 76.3776 177.737 77.3816 178.194C78.0261 178.487 78.64 178.851 79.2302 179.214C80.4658 179.975 81.5478 180.867 82.6799 181.724C81.4664 181.542 80.2444 181.447 79.0242 181.302C77.569 181.129 74.6264 180.82 73.954 179.487Z" fill="#263238"/>
<path opacity="0.2" d="M82.2967 195.806C78.6851 195.73 75.0319 195.631 71.6925 195.524C68.6159 195.428 65.8023 195.314 63.5322 195.195C60.4065 195.028 58.3068 194.855 57.9718 194.667C57.318 194.305 57.0848 188.424 57.0518 181.576C63.4185 185.104 75.9316 192.193 82.2967 195.806Z" fill="black"/>
<path d="M87.6115 182.968L55.7386 182.995C55.7386 182.995 57.4855 123.521 57.1429 122.133C56.3203 118.826 38.1943 66.3889 38.1943 66.3889L63.3638 66.7474L71.9583 66.8725C71.9583 66.8725 71.2155 75.6044 71.5182 76.5309C75.7234 89.2526 83.9338 110.973 85.6103 119.026C88.5155 132.981 87.6115 182.968 87.6115 182.968Z" fill="#263238"/>
<path d="M86.5777 178.552C81.6067 178.446 63.9937 178.011 57.3649 178.422C57.314 178.424 57.314 178.494 57.3641 178.501C59.6359 178.807 81.6042 178.722 86.5768 178.666C86.6701 178.665 86.671 178.554 86.5777 178.552Z" fill="#37474F"/>
<path d="M59.6422 120.819C58.6907 117.605 51.5921 97.5755 49.4204 91.2483C47.2503 84.9268 45.2126 78.5695 43.3394 72.1826C43.1019 71.3721 42.8611 70.5645 42.6016 69.7589C42.5795 69.6914 42.4617 69.7209 42.4769 69.7884C43.1927 73.0044 44.1399 76.1936 45.0523 79.3751C45.9648 82.5594 46.9374 85.7296 47.961 88.8907C50.0174 95.241 52.2561 101.551 54.6941 107.808C55.9093 110.927 57.9139 117.331 58.9807 120.488C60.0458 123.64 58.3049 175.436 58.416 176.276C58.4473 176.513 58.8645 176.518 58.8696 176.274C59.0062 170.17 60.5826 123.996 59.6422 120.819Z" fill="#37474F"/>
<path d="M63.3668 66.7446C63.3668 66.7446 57.2112 122.401 57.1434 122.13C56.3496 118.929 39.3099 69.6196 38.2397 66.5373C38.205 66.4388 38.1914 66.3896 38.1914 66.3896L63.3668 66.7446Z" fill="#37474F"/>
<path d="M71.0699 198.927C69.557 199.317 26.6567 198.556 25.0413 197.671C24.4316 197.341 24.1992 192.149 24.1356 185.878C24.1195 184.523 24.1178 183.129 24.1237 181.704C24.1288 180.022 24.1399 178.318 24.1645 176.664C24.2781 169.236 24.5486 162.698 24.5486 162.698L52.4792 163.127L52.1544 177.094L52.0348 182.133L51.7974 186.304C51.7974 186.304 68.0646 192.688 69.7071 193.818C71.3429 194.941 72.5759 198.542 71.0699 198.927Z" fill="#F7A9A0"/>
<path d="M71.0699 198.927C69.557 199.317 26.6567 198.556 25.0413 197.671C24.4316 197.341 24.1992 192.15 24.1356 185.879C24.1195 184.523 24.1178 183.129 24.1237 181.704C24.1288 180.022 24.1399 178.319 24.1645 176.665L52.1544 177.094L52.0348 182.133L51.7974 186.304C51.7974 186.304 68.0646 192.688 69.7071 193.818C71.3429 194.942 72.5759 198.542 71.0699 198.927Z" fill="white"/>
<path d="M71.1984 198.983C70.2147 199.234 51.9386 199.008 38.6377 198.576C35.5603 198.474 32.7458 198.36 30.4766 198.244C27.3483 198.076 25.2512 197.902 24.9137 197.717C24.1683 197.303 23.9766 189.691 23.9851 181.662L52.0531 182.093L51.8148 186.286C51.8148 186.286 68.1727 192.704 69.8289 193.84C71.4714 194.975 72.7112 198.587 71.1984 198.983Z" fill="#FFC727"/>
<path d="M70.6163 197.541C63.3888 197.265 34.2049 196.72 27.035 196.903C26.9765 196.904 26.9757 196.937 27.0342 196.941C34.1913 197.343 63.3786 197.693 70.6146 197.639C70.7672 197.639 70.7689 197.547 70.6163 197.541Z" fill="#263238"/>
<path d="M52.8715 184.973C50.0374 184.482 46.5471 184.783 44.3296 186.425C44.2431 186.489 44.3541 186.588 44.4466 186.566C47.273 185.882 49.9068 185.458 52.852 185.271C53.0606 185.257 53.075 185.008 52.8715 184.973Z" fill="#263238"/>
<path d="M54.9004 186.035C52.0664 185.545 48.576 185.845 46.3585 187.487C46.2728 187.55 46.3831 187.651 46.4755 187.628C49.3019 186.944 51.9358 186.52 54.8809 186.333C55.0895 186.32 55.1039 186.071 54.9004 186.035Z" fill="#263238"/>
<path d="M56.9281 187.098C54.0941 186.607 50.6037 186.908 48.3862 188.55C48.2997 188.614 48.4108 188.713 48.5032 188.691C51.3296 188.007 53.9635 187.583 56.9094 187.395C57.1172 187.383 57.1316 187.133 56.9281 187.098Z" fill="#263238"/>
<path d="M58.9546 188.16C56.1206 187.669 52.6302 187.97 50.4127 189.612C50.327 189.676 50.4373 189.775 50.5297 189.753C53.3561 189.069 55.99 188.645 58.9351 188.457C59.1437 188.445 59.1581 188.195 58.9546 188.16Z" fill="#263238"/>
<path d="M58.2694 179.611C57.184 178.315 55.0868 178.852 53.8776 179.658C51.9196 180.964 50.1812 183.027 49.3552 184.984C49.3349 185.033 49.373 185.062 49.4197 185.071C49.4231 185.25 49.613 185.444 49.8581 185.373C52.2265 184.693 54.8604 184.21 56.9067 182.949C58.1015 182.211 59.2955 180.837 58.2694 179.611ZM53.195 183.733C52.04 184.091 50.8706 184.4 49.7317 184.792C50.617 183.756 51.4438 182.693 52.4555 181.731C52.938 181.271 53.4443 180.808 53.9989 180.407C54.8613 179.783 58.249 178.484 57.68 181.063C57.3671 182.485 54.5721 183.307 53.195 183.733Z" fill="#263238"/>
<path d="M42.1373 184.239C44.4617 185.11 47.1592 185.115 49.6481 185.36C49.9059 185.385 50.0415 185.163 49.9983 184.987C50.0415 184.97 50.0721 184.935 50.0399 184.891C48.7288 183.126 46.4995 181.418 44.2497 180.489C42.8607 179.915 40.6728 179.762 39.947 181.22C39.2601 182.601 40.7805 183.732 42.1373 184.239ZM40.8959 182.535C39.6756 180.115 43.3195 180.785 44.3235 181.242C44.968 181.535 45.5828 181.899 46.1721 182.262C47.4077 183.023 48.4897 183.915 49.6218 184.771C48.4083 184.589 47.1863 184.495 45.9652 184.35C44.5109 184.177 41.5683 183.869 40.8959 182.535Z" fill="#263238"/>
<path d="M53.6759 185.659L22.7485 185.185C22.7485 185.185 31.4329 92.7181 30.3534 87.8193C28.5853 79.8002 30.0914 70.6473 34.7452 66.3018L64.8831 66.7643C64.8831 66.7643 65.3241 73.7845 62.1195 77.9241C62.1195 77.9241 59.26 79.3616 57.871 79.9942L53.6759 185.659Z" fill="#263238"/>
<path d="M52.8237 181.108C48.1342 180.934 49.4826 180.929 44.7914 180.799C42.495 180.735 27.4083 180.328 25.2544 180.581C25.2069 180.586 25.2052 180.652 25.2518 180.66C27.3888 180.997 42.4823 181.186 44.7796 181.213C49.4732 181.269 48.1266 181.211 52.8203 181.222C52.9085 181.222 52.9119 181.111 52.8237 181.108Z" fill="#37474F"/>
<path d="M64.0243 76.8276C61.0241 77.9221 58.1723 79.3659 55.4587 80.8582C55.3518 80.9166 55.4426 81.0501 55.5587 80.9995C58.4547 79.7293 61.4142 78.4992 64.2202 77.1032C64.4398 76.9935 64.2541 76.7433 64.0243 76.8276Z" fill="#37474F"/>
<path d="M60.1957 76.4085C60.0049 76.8886 59.8649 77.3835 59.7538 77.8784C59.6682 78.2629 59.5385 78.6811 59.6368 79.0677C59.6555 79.1429 59.7827 79.1401 59.8268 79.0853C60.1058 78.7402 60.1889 78.2917 60.322 77.8988C60.4763 77.4426 60.6426 76.9892 60.7808 76.5294C60.8715 76.2244 60.3127 76.1126 60.1957 76.4085Z" fill="#37474F"/>
<path d="M59.9772 73.9982C60.0671 73.5821 60.1578 73.1666 60.2579 72.7526C60.3622 72.3245 60.4996 71.895 60.564 71.4613C60.5742 71.3931 60.7065 71.4156 60.6921 71.4852C60.6039 71.9014 60.5852 72.3323 60.536 72.7533C60.486 73.1765 60.4283 73.5975 60.3673 74.0193C60.2545 74.8045 60.0739 75.5953 59.8686 76.3699C60.3596 76.2806 60.8634 76.1759 61.2645 75.9144C61.7003 75.6304 61.8894 75.1517 62.0327 74.7243C62.1922 74.2492 62.327 73.7677 62.4949 73.2946C62.6806 72.7709 62.8986 72.2472 62.9715 71.7031C62.9808 71.6343 63.1114 71.6567 63.0995 71.7263C62.907 72.8581 62.7222 73.9877 62.2575 75.08C62.0751 75.5088 61.9488 75.9446 61.4748 76.1815C60.966 76.436 60.3579 76.5063 59.7788 76.5696C59.7126 76.5977 59.6117 76.5759 59.6185 76.5007C59.694 75.6684 59.8 74.82 59.9772 73.9982Z" fill="#37474F"/>
<path d="M35.2533 87.5739C35.0786 85.7343 34.7581 83.9067 34.5579 82.0692C34.1551 78.3739 34.5707 74.6926 35.6061 71.0866C35.6256 71.0191 35.4975 70.991 35.4806 71.0585C34.6733 74.2428 33.9609 77.4242 34.0805 80.6929C34.1992 83.932 34.82 87.136 34.8106 90.3829C34.8005 93.6705 34.4155 96.9504 34.0881 100.225C33.7591 103.519 33.4293 106.812 33.0994 110.106C31.7748 123.344 30.5308 136.589 29.2613 149.832C28.9069 153.528 28.5719 157.225 28.231 160.922C27.8842 164.685 27.3601 173.965 27.1066 177.732C27.0845 178.057 27.6705 178.042 27.7095 177.729C28.538 171.089 29.2037 158.9 29.8651 152.247C30.5189 145.662 31.132 139.073 31.7655 132.486C32.3981 125.899 33.0231 119.311 33.643 112.724C33.9525 109.431 34.251 106.137 34.5537 102.844C34.8556 99.5632 35.2211 96.2812 35.3542 92.9922C35.4263 91.1856 35.4237 89.3748 35.2533 87.5739Z" fill="#37474F"/>
<path d="M46.2974 71.022C46.2762 70.9813 46.21 70.9665 46.1787 71.0101C45.9226 71.3615 45.9531 71.9485 45.8641 72.3527C45.7547 72.8433 45.6198 73.3269 45.4197 73.7972C45.0135 74.7539 44.4759 75.6024 43.555 76.2912C41.6249 77.7337 39.0733 78.2384 36.6124 78.6981C36.5208 78.7149 36.5522 78.8183 36.6336 78.8246C38.0726 78.9322 39.5431 78.6988 40.9143 78.3368C42.1252 78.0169 43.2955 77.5685 44.2461 76.8578C45.1907 76.1513 45.7894 75.234 46.0854 74.2127C46.2372 73.6904 46.2889 73.1343 46.3254 72.5987C46.3432 72.3379 46.3517 72.0771 46.3567 71.8163C46.361 71.5605 46.4195 71.2589 46.2974 71.022Z" fill="#37474F"/>
<path d="M64.1024 32.2166C68.6324 44.3078 77.7951 56.0693 80.6325 57.6727C85.0285 60.1569 105.868 62.2853 112.726 61.6204C114.971 61.4025 114.141 48.4973 112.086 47.4436C110.03 46.3899 89.7705 46.179 88.3959 45.7256C87.6633 45.4838 76.8606 35.1534 70.7813 29.7633C65.1124 24.7373 62.727 28.5451 64.1024 32.2166Z" fill="#F7A9A0"/>
<path d="M79.982 37.5078L68.4077 45.245C68.4077 45.245 63.3528 36.1821 62.95 30.6851C62.5463 25.1882 65.6992 25.8032 69.3888 28.4498C73.0785 31.0971 79.982 37.5078 79.982 37.5078Z" fill="#EBEBEB"/>
<path d="M77.9235 36.3986C78.0007 36.3494 77.9838 36.2897 77.9049 36.3361C73.9558 38.6895 69.6106 41.6207 68.186 42.8249C68.1639 42.8431 68.197 42.8698 68.2207 42.8572C69.9718 41.9623 77.0722 36.9399 77.9235 36.3986Z" fill="#263238"/>
<path d="M29.8015 69.1852C29.8804 69.2963 73.6321 76.5928 74.1197 76.2856C74.8015 75.8526 75.6088 38.2912 70.3673 29.2902C69.0563 27.0394 63.1254 24.7443 60.0904 26.3723C51.2975 31.0883 48.6491 35.767 45.8134 39.4883C43.7146 42.246 40.8484 47.0575 38.1297 52.0245C33.637 60.2038 29.5225 68.7846 29.8015 69.1852Z" fill="#EBEBEB"/>
<path d="M59.3254 26.3474C59.3254 26.3474 63.1482 39.5422 63.5391 42.82C64.0742 47.309 60.109 75.8053 60.109 75.8053L29.0137 69.6166C29.0137 69.6166 41.1002 42.3322 50.0805 33.348C57.1495 26.2771 59.3254 26.3474 59.3254 26.3474Z" fill="#FFC727"/>
<path d="M69.3896 28.45C69.3896 28.45 70.6218 40.1545 70.983 41.9358C71.3434 43.717 70.6226 77.3855 70.6226 77.3855L74.7549 76.7648C74.7549 76.7648 75.2951 53.4646 73.9417 41.3622C72.5875 29.2604 69.3896 28.45 69.3896 28.45Z" fill="#FFC727"/>
<path d="M61.5774 64.645L33.4688 60.421C33.8927 59.581 34.3405 58.7016 34.8103 57.7935L61.9141 61.8663C61.8055 62.8103 61.6851 63.7389 61.5774 64.645Z" fill="#EBEBEB"/>
<path d="M74.8601 66.6412L70.8423 66.0374C70.8626 65.1179 70.8745 64.1725 70.8881 63.2151L74.855 63.8112C74.8601 64.784 74.8635 65.7316 74.8601 66.6412Z" fill="#EBEBEB"/>
<path d="M60.9547 69.5183L31.1865 65.0455C31.5707 64.2498 32.0048 63.3676 32.4755 62.4165L61.3041 66.7487C61.1811 67.7265 61.0607 68.6551 60.9547 69.5183Z" fill="#EBEBEB"/>
<path d="M74.8341 71.604L70.751 70.9904C70.7713 70.1082 70.7891 69.1641 70.8103 68.1765L74.857 68.7846C74.8451 69.7982 74.8417 70.745 74.8341 71.604Z" fill="#EBEBEB"/>
<path d="M121.716 16.063C127.725 11.3618 136.197 10.164 143.45 12.3754L130.908 22.1891L134.926 29.7414L143.791 33.5028L156.342 23.6828C158.587 29.8258 156.649 36.7602 150.641 41.4621C142.185 48.0782 128.848 47.7661 120.859 40.7501C112.876 33.7411 113.261 22.6797 121.716 16.063Z" fill="#455A64"/>
<path d="M62.5874 110.367C56.5785 115.069 48.1069 116.266 40.854 114.055L53.3959 104.241L49.3773 96.6881L40.5131 92.9274L27.9627 102.747C25.7172 96.6044 27.6557 89.67 33.6638 84.968C42.1192 78.352 55.4566 78.6641 63.4456 85.6801C71.4278 92.6891 71.0437 103.751 62.5874 110.367Z" fill="#455A64"/>
<path d="M50.2055 85.3466L63.0884 96.6604L137.607 38.3553L124.724 27.0414L50.2055 85.3466Z" fill="#455A64"/>
<path d="M75.9088 71.5262L81.2144 76.1855L111.903 52.1742L106.597 47.5148L75.9088 71.5262Z" fill="#37474F"/>
<path d="M52.1847 34.3209C47.8056 43.594 47.234 57.4249 51.3477 61.4282C57.8137 67.7201 69.494 73.4118 75.2197 74.843C78.5617 75.6781 83.7328 59.8719 80.8089 59.0079C76.1966 57.645 65.2532 53.9489 63.7692 53.111C62.2852 52.2731 61.1743 42.496 59.692 35.3015C58.0808 27.4806 54.4141 29.5999 52.1847 34.3209Z" fill="#F7A9A0"/>
<path d="M73.7368 74.3768C83.622 77.7375 95.3922 76.5432 97.3205 75.9823C98.9648 75.5092 99.8069 75.2519 99.8069 75.2519C102.777 74.4506 103.519 73.0433 103.519 73.0433C103.519 73.0433 107.281 72.954 107.594 71.0596C107.952 68.9361 102.598 69.4773 99.4338 68.2816C92.1842 65.543 82.8045 59.9694 80.8083 59.0078L73.7368 74.3768Z" fill="#F7A9A0"/>
<path d="M89.4036 69.8381C91.5566 70.6086 93.647 71.4127 95.9145 71.9378C98.4026 72.5135 100.913 72.7223 103.463 72.9873C103.542 72.9957 103.536 73.0878 103.457 73.0899C98.7502 73.2157 93.3366 72.0074 89.3162 69.99C89.2179 69.9415 89.295 69.7995 89.4036 69.8381Z" fill="#263238"/>
<path d="M86.7736 73.2247C88.919 73.8784 92.6969 75.0073 99.8099 75.1887C99.8328 75.1894 99.8396 75.2224 99.8133 75.2246C95.1764 75.6161 90.8898 75.0242 86.7007 73.4061C86.5709 73.3554 86.6303 73.1811 86.7736 73.2247Z" fill="#263238"/>
<path d="M90.9501 64.5239C90.1767 63.8575 90.5931 63.5166 92.5579 63.7429C94.5464 63.9685 102.066 66.2503 102.803 64.0016C103.548 61.7459 92.8411 58.6628 89.5347 58.4927C86.2284 58.3162 80.8071 59.0079 80.8071 59.0079C82.7448 59.9555 87.179 62.6252 90.9501 64.5239Z" fill="#F7A9A0"/>
<path d="M62.2089 45.7519L47.3867 46.7276C47.3867 46.7276 49.3804 36.8808 52.7885 32.1536C56.1966 27.4264 58.3802 29.4079 59.6259 33.3191C60.8725 37.2302 62.2089 45.7519 62.2089 45.7519Z" fill="#EBEBEB"/>
<path d="M61.2639 43.8738C61.3614 43.8695 61.3877 43.8119 61.291 43.814C56.4286 43.9103 50.8462 44.299 48.85 44.6273C48.8195 44.6322 48.8288 44.6695 48.8568 44.6702C50.9115 44.7489 60.1929 43.9223 61.2639 43.8738Z" fill="#263238"/>
<path d="M66.8028 32.5903C64.9194 32.6128 61.1169 29.6008 59.6821 27.1068C59.5846 26.9352 60.0094 25.2004 60.4054 23.0719C60.6395 21.7799 60.8634 20.3361 60.9524 19.0068L70.8749 21.498C70.8749 21.498 69.6987 24.2388 69.5596 26.5578C69.5503 26.7518 69.5613 26.9331 69.5918 27.1068C69.5935 27.1321 69.6003 27.163 69.6003 27.1974C69.7343 28.2434 69.7513 32.5552 66.8028 32.5903Z" fill="#F7A9A0"/>
<path d="M69.5906 27.1075C69.5898 27.1321 69.5966 27.163 69.6033 27.1995C69.2845 27.2192 68.9368 27.2199 68.5603 27.196C62.7388 26.8186 61.6898 20.8049 61.5117 19.1523L70.877 21.4973C70.877 21.4973 69.6983 24.2388 69.5584 26.5549C69.5541 26.7518 69.5652 26.9359 69.5906 27.1075Z" fill="#263238"/>
<path d="M61.5303 7.73019C59.8292 10.4864 59.8716 19.1817 61.9678 21.4297C65.0071 24.6885 70.8879 25.828 74.4563 22.6282C77.9153 19.5268 77.6185 8.19483 75.1924 6.07478C71.6189 2.95234 64.0437 3.65949 61.5303 7.73019Z" fill="#F7A9A0"/>
<path d="M70.9712 14.1474C70.9644 14.1256 70.9177 14.1769 70.9194 14.2008C70.972 14.7849 70.9135 15.4619 70.2851 15.6784C70.2656 15.6847 70.269 15.7142 70.2928 15.7107C71.0678 15.5926 71.134 14.6935 70.9712 14.1474Z" fill="#263238"/>
<path d="M70.3098 13.5583C69.1709 13.5266 69.1794 15.4175 70.2343 15.447C71.2731 15.4752 71.2647 13.5843 70.3098 13.5583Z" fill="#263238"/>
<path d="M74.7299 14.033C74.7349 14.0105 74.785 14.0604 74.785 14.0843C74.7655 14.6699 74.8613 15.344 75.5015 15.5366C75.521 15.5422 75.5193 15.5718 75.4956 15.5689C74.7154 15.4804 74.5984 14.5855 74.7299 14.033Z" fill="#263238"/>
<path d="M75.3589 13.4192C76.4952 13.344 76.5919 15.2335 75.5395 15.3023C74.5041 15.3712 74.4066 13.4817 75.3589 13.4192Z" fill="#263238"/>
<path d="M69.4058 12.6965C69.7161 12.6312 69.9892 12.5271 70.2877 12.4357C70.6252 12.3324 70.9059 12.2797 71.1264 12.028C71.2442 11.8931 71.1942 11.6513 71.0467 11.5444C70.7032 11.2942 70.2521 11.3356 69.8408 11.446C69.3939 11.5655 69.0861 11.7532 68.8317 12.0793C68.5841 12.395 68.9962 12.783 69.4058 12.6965Z" fill="#263238"/>
<path d="M76.1501 12.6806C75.8338 12.6385 75.5506 12.5569 75.2428 12.4887C74.8951 12.4121 74.6093 12.3798 74.3625 12.1464C74.2294 12.0213 74.2531 11.7766 74.388 11.6586C74.7017 11.3837 75.1554 11.39 75.5777 11.4688C76.0365 11.5538 76.363 11.7169 76.6538 12.022C76.9345 12.3172 76.5673 12.7355 76.1501 12.6806Z" fill="#263238"/>
<path d="M69.9228 19.6035C70.0924 19.7406 70.262 19.9283 70.519 19.9459C70.7649 19.962 71.0532 19.8693 71.2779 19.7961C71.3 19.7891 71.3229 19.8088 71.3084 19.8257C71.1261 20.0513 70.7403 20.1933 70.413 20.1462C70.0924 20.1012 69.9338 19.8721 69.855 19.6303C69.844 19.5958 69.8982 19.5832 69.9228 19.6035Z" fill="#263238"/>
<path d="M70.6601 17.8475C71.0578 18.355 71.6404 18.6305 72.2696 18.7297C72.5503 18.7753 72.8462 18.7824 73.1354 18.7599C73.1922 18.7585 73.249 18.7535 73.3007 18.7437C73.3525 18.7381 73.3991 18.7332 73.4559 18.7233C73.5382 18.7128 73.5831 18.6565 73.5975 18.5919V18.5877C73.5967 18.5659 73.5967 18.549 73.5908 18.5279C73.5908 18.5279 73.5908 18.5279 73.5908 18.5237L73.5891 18.4724C73.6018 18.0211 73.5458 17.3357 73.5458 17.3357C73.7451 17.418 74.7601 17.7926 74.7432 17.5572C74.5939 15.6072 74.4286 13.4387 73.7833 11.5246C73.7654 11.4606 73.6476 11.4754 73.6544 11.54C73.7078 13.419 74.1598 15.2768 74.2505 17.1635C73.9266 17.063 73.3983 16.8753 73.1133 16.8809C73.0362 16.8999 73.2499 18.2046 73.2244 18.407C73.2244 18.407 73.2244 18.4154 73.2202 18.4288C72.3069 18.5286 71.6166 18.3016 70.7271 17.7954C70.6728 17.761 70.6177 17.8011 70.6601 17.8475Z" fill="#263238"/>
<path d="M72.8111 18.5324C72.8111 18.5324 72.3311 19.0736 71.6714 19.2697C71.428 19.3428 71.1668 19.3724 70.8912 19.3126C70.3264 19.1917 70.3103 18.7622 70.4121 18.3946C70.4943 18.0923 70.6622 17.8315 70.6622 17.8315C70.6622 17.8315 71.4899 18.4691 72.8111 18.5324Z" fill="#263238"/>
<path d="M71.6728 19.2704C71.4294 19.3435 71.1683 19.373 70.8927 19.3133C70.3279 19.1924 70.3118 18.7629 70.4135 18.3953C71.019 18.4445 71.6194 18.7833 71.6728 19.2704Z" fill="#FF9BBC"/>
<path d="M76.4203 8.46064C76.3202 8.20126 76.0404 7.54823 75.6359 7.51238C75.1262 7.46036 74.715 8.13097 73.7398 8.27788C72.366 8.49509 70.1366 7.10117 68.2371 7.38586C66.3893 7.66211 65.0876 9.04829 64.4414 11.7567C63.7936 14.4686 60.9638 16.4797 60.4151 14.6303C60.4007 14.5628 60.3677 14.444 60.3159 14.2732C60.3134 11.6344 60.7264 9.0258 61.5311 7.72959C64.042 3.661 71.6232 2.95174 75.1932 6.07769C75.7054 6.52124 76.1176 7.3732 76.4203 8.46064Z" fill="#263238"/>
<path d="M62.223 14.9151C62.223 14.9151 60.4388 11.8812 58.8132 12.3662C57.1876 12.852 58.1662 17.0394 59.8189 17.8112C61.4717 18.583 62.3638 17.329 62.3638 17.329L62.223 14.9151Z" fill="#F7A9A0"/>
<path d="M59.1301 13.5605C59.1021 13.5549 59.0903 13.5865 59.1132 13.5984C60.2656 14.1734 60.7337 15.2046 61 16.245C60.7057 15.8197 60.2469 15.547 59.5677 15.8281C59.5321 15.8429 59.555 15.8886 59.5906 15.8872C60.1121 15.864 60.4623 15.9835 60.7388 16.3631C60.9347 16.6316 61.0424 16.9528 61.1628 17.2495C61.2026 17.3479 61.4112 17.3254 61.3892 17.215C61.3875 17.2066 61.3858 17.1982 61.3832 17.1897C61.6639 15.8928 60.7905 13.9119 59.1301 13.5605Z" fill="#263238"/>
<path d="M77.6392 9.09038C77.6392 9.09038 76.3748 0.544802 67.1732 1.41925C57.9715 2.2937 59.0739 10.8548 59.0739 10.8548L77.6392 9.09038Z" fill="#FFC727"/>
<path d="M58.4707 11.5233L78.4175 9.62769L78.2498 8.41532L58.3031 10.3109L58.4707 11.5233Z" fill="#FFC727"/>
<path d="M68.421 9.35264L72.5745 8.9583L70.4367 0.665771L66.2832 1.06082L68.421 9.35264Z" fill="#FFC727"/>
<path opacity="0.1" d="M68.421 9.35264L72.5745 8.9583L70.4367 0.665771L66.2832 1.06082L68.421 9.35264Z" fill="black"/>
<path d="M103.753 57.3532C103.924 55.4166 106.579 56.6924 106.579 56.6924C106.579 56.6924 103.291 54.0923 104.399 52.1529C105.473 50.2859 108.614 51.9209 108.842 52.0355C108.669 51.897 105.724 49.4424 107.079 47.588C108.491 45.662 111.304 47.7518 111.486 47.8875C111.373 47.7139 109.922 45.3998 111.338 44.1851C113.774 42.0988 118.589 48.4217 121.345 48.9728L125.45 46.2194C125.109 47.0172 124.662 47.7736 124.92 49.4979C125.161 51.1111 125.337 52.1866 124.918 53.1433C124.226 54.7158 122.419 54.6125 122.419 54.6125C122.419 54.6125 123.897 56.2679 122.885 57.7553C122.364 58.518 120.428 58.5039 120.428 58.5039C120.428 58.5039 121.545 59.8704 120.545 61.1469C119.751 62.1683 117.933 61.9954 117.933 61.9954C117.933 61.9954 118.271 63.7197 117.051 64.5442C114.595 66.213 103.39 61.4998 103.753 57.3532Z" fill="#F7A9A0"/>
<path d="M122.403 48.4596L125.376 46.2819C125.507 46.2229 125.644 46.161 125.773 46.1097C130.334 44.2708 136.212 46.5666 133.538 48.6115C131.506 50.1692 126.956 49.1893 125.153 51.0352L125.149 51.031L122.403 48.4596Z" fill="#F7A9A0"/>
<path d="M117.642 62.0059C117.681 62.0193 117.666 62.0664 117.624 62.0586C113.482 61.2538 109.229 59.3179 106.428 56.6369C106.337 56.549 106.469 56.3866 106.592 56.4675C110.116 58.7731 113.467 60.5867 117.642 62.0059Z" fill="#263238"/>
<path d="M120.473 58.5468C120.518 58.5623 120.488 58.6248 120.437 58.6143C116.175 57.7658 111.458 55.4764 108.668 52.0707C108.572 51.954 108.627 51.7698 108.75 51.897C110.812 54.0445 116.707 57.285 120.473 58.5468Z" fill="#263238"/>
<path d="M111.39 47.5942C114.218 50.7743 117.99 52.8824 122.241 54.587C122.296 54.6095 122.253 54.6714 122.201 54.6636C119.847 54.2995 117.275 52.9794 115.378 51.8118C113.56 50.6934 112.192 49.3818 111.256 47.6765C111.22 47.6097 111.329 47.526 111.39 47.5942Z" fill="#263238"/>
<path d="M117.976 69.3103L98.9465 225.775H94.3062L112.873 73.1371H64.5881L31.0081 225.775H26.3145L60.7331 69.3103H117.976Z" fill="#FFC727"/>
<path d="M113.033 102.948H57.5181V106.775H113.033V102.948Z" fill="#FFC727"/>
<path d="M105.568 133.973H50.0532V137.8H105.568V133.973Z" fill="#FFC727"/>
<path d="M101.905 164.999H42.0967V168.826H101.905V164.999Z" fill="#FFC727"/>
<path d="M99.0748 196.024H35.9751V199.851H99.0748V196.024Z" fill="#FFC727"/>
<g opacity="0.5">
<path d="M117.976 69.3103L98.9465 225.775H94.3062L112.873 73.1371H64.5881L31.0081 225.775H26.3145L60.7331 69.3103H117.976Z" fill="black"/>
<path d="M113.033 102.948H57.5181V106.775H113.033V102.948Z" fill="black"/>
<path d="M105.568 133.973H50.0532V137.8H105.568V133.973Z" fill="black"/>
<path d="M101.905 164.999H42.0967V168.826H101.905V164.999Z" fill="black"/>
<path d="M99.0748 196.024H35.9751V199.851H99.0748V196.024Z" fill="black"/>
</g>
<path d="M156.649 238.314H151.948L114.174 73.1368H65.9037L88.6419 238.314H84.0025L60.7334 69.3101H117.998L156.649 238.314Z" fill="#FFC727"/>
<path opacity="0.2" d="M156.649 238.314H151.948L114.174 73.1368H65.9037L88.6419 238.314H84.0025L60.7334 69.3101H117.998L156.649 238.314Z" fill="black"/>
<path d="M120.239 64.7473H57.6714V69.3101H120.239V64.7473Z" fill="#FFC727"/>
<path opacity="0.2" d="M120.239 64.7473H57.6714V69.3101H120.239V64.7473Z" fill="black"/>
<path d="M17.3411 201.381H14.9438V232.443H17.3411V201.381Z" fill="#FFC727"/>
<path d="M47.3788 218.495L45.4038 217.923L46.4341 217.533L45.9219 216.693L46.9548 216.299L46.4409 215.463L47.4738 215.069L46.9599 214.232L47.9919 213.839L47.4797 212.998L48.5109 212.609L47.9987 211.768L49.0307 211.375L48.5168 210.538L49.5497 210.145L49.0375 209.304L50.0687 208.915L49.5565 208.074L50.5885 207.68L50.0746 206.844L51.1075 206.45L50.5936 205.614L51.6256 205.22L51.1134 204.379L52.1446 203.99L51.6324 203.149L52.6652 202.756L52.1513 201.919L53.1834 201.526L52.6712 200.685L53.7023 200.296L53.1901 199.455L54.223 199.062L53.7083 198.224L54.7411 197.832L54.2289 196.991L55.2601 196.601L54.7479 195.761L55.7782 195.371L55.266 194.531L56.2989 194.137L55.785 193.3L56.817 192.907L56.3048 192.066L57.336 191.677L56.8238 190.836L57.8567 190.442L57.3428 189.606L58.3748 189.213L57.8626 188.371L58.8938 187.983L58.3816 187.141L59.4128 186.753L58.8997 185.911L60.8756 186.484L47.3788 218.495Z" fill="#C7C7C7"/>
<path d="M60.8936 186.496L63.77 179.673L61.78 179.097L58.9035 185.919L60.8936 186.496Z" fill="#37474F"/>
<path d="M47.3779 218.495L47.902 217.252L55.2686 219.386C55.9928 219.595 56.7882 219.278 57.0409 218.677L68.8332 190.709C69.0867 190.108 68.7026 189.449 67.9784 189.24L60.6262 187.11L61.1503 185.866L68.5025 187.996C70.0535 188.445 70.8752 189.857 70.3324 191.143L58.5402 219.112C57.9983 220.397 56.2947 221.078 54.7437 220.628L47.3779 218.495Z" fill="#263238"/>
<path d="M68.5492 201.381H66.1519V232.443H68.5492V201.381Z" fill="#FFC727"/>
<path d="M66.2778 203.852H17.3423V205.448H66.2778V203.852Z" fill="#FFC727"/>
<path d="M16.7013 198.12L29.6384 195.794L26.628 184.289L13.6909 186.615L16.7013 198.12ZM17.596 194.194L15.8966 187.701L25.1627 186.035L26.8621 192.528L17.596 194.194Z" fill="#263238"/>
<path d="M32.4563 225.478L32.4325 225.473L33.239 225.116L33.2364 225.076L33.2331 225.074L32.3681 224.908L33.1712 224.548L33.1644 224.507L32.2926 224.341L33.1025 223.981L33.0957 223.94L32.2282 223.776L33.027 223.415L33.0244 223.375L32.1527 223.209L32.9617 222.849L32.9558 222.808L32.0866 222.639L32.893 222.277L32.8871 222.241L32.8896 222.237L32.0187 222.072L32.8209 221.712L32.8158 221.676L31.9466 221.508L32.7531 221.145L32.7472 221.109L32.7497 221.106L31.878 220.94L32.681 220.58L32.6759 220.545L32.6751 220.539L31.8067 220.376L32.6123 220.013L32.6072 219.977L31.738 219.809L32.5445 219.446L32.5411 219.406L31.6634 219.242L32.4724 218.881L32.4665 218.84L31.5981 218.677L32.4037 218.314L32.4012 218.275L31.526 218.107L32.3316 217.745L32.3265 217.708L31.4573 217.539L32.2629 217.177L32.2613 217.143L31.3887 216.972L32.1917 216.613L32.1892 216.574L31.3174 216.408L32.123 216.046L32.1205 216.006L31.2487 215.84L32.0586 215.481L32.0552 215.441L31.1801 215.273L31.9831 214.914L31.9806 214.875L31.1114 214.706L31.917 214.343L31.9119 214.307L31.0367 214.139L31.8423 213.777L31.8398 213.737L30.9681 213.572L31.777 213.212L31.7745 213.173L30.8994 213.005L31.7084 212.644L31.7058 212.605L30.8307 212.438L31.6405 212.077L31.6346 212.041L30.7594 211.873L31.5718 211.51L31.5659 211.474L30.6908 211.305L31.4964 210.943L31.4913 210.907L30.6221 210.738L31.4319 210.378L31.426 210.341L30.5508 210.174L31.3564 209.811L31.359 209.809L31.3539 209.772L30.4813 209.601L31.2903 209.241L31.2852 209.205L30.4101 209.037L31.2224 208.674L31.2165 208.638L30.3414 208.47L31.1504 208.11L31.1453 208.073L30.2702 207.905L31.0825 207.542L31.0766 207.506L30.2015 207.338L31.0104 206.978L31.0054 206.941L30.1302 206.773L30.9409 206.405L30.9367 206.374L30.0615 206.206L30.8731 205.838L30.8646 205.805L29.9929 205.639L30.801 205.273L30.7959 205.237L29.9208 205.069L30.7323 204.706L30.7272 204.669L29.8521 204.502L30.6611 204.142L30.6585 204.102L29.7809 203.938L30.5924 203.574L30.5898 203.535L29.7147 203.367L30.5212 203.01L30.5186 202.97L29.6435 202.802L30.4516 202.438L30.4499 202.403L29.5748 202.235L30.3872 201.872L30.3846 201.838L29.5036 201.671L30.3117 201.306L30.3092 201.267L29.434 201.099L30.2464 200.741L30.2439 200.701L29.3628 200.534L30.1743 200.171L30.1692 200.135L29.2941 199.967L30.1056 199.603L30.1039 199.57L29.2288 199.402L30.0412 199.039L30.0293 199.003L29.1542 198.835L29.9657 198.472L29.9606 198.436L29.0855 198.268L29.897 197.904L29.8953 197.871L29.0143 197.703L29.8283 197.337L29.8207 197.304L28.9456 197.136L29.7597 196.77L29.7546 196.734L28.8735 196.566L29.685 196.203L29.6375 195.794L16.7021 198.12L25.8877 226.607L32.4563 225.478Z" fill="#C7C7C7"/>
<g opacity="0.3">
<path d="M19.6953 207.397L29.5695 200.573L30.1096 200.2L30.1732 200.155L30.1698 200.135L29.2947 199.967L30.1062 199.603L30.1045 199.57L29.2294 199.402L30.0418 199.039L30.0299 199.003L29.1548 198.835L29.9663 198.472L29.9612 198.436L29.3583 198.321L19.061 205.435L19.6953 207.397Z" fill="white"/>
<path d="M27.2246 226.38L31.8521 225.582L32.7256 224.978L32.3686 224.908L33.1716 224.549L33.1648 224.507L32.2931 224.341L33.1029 223.981L33.0962 223.94L32.2287 223.776L33.0275 223.415L33.0249 223.375L32.1532 223.21L32.9622 222.85L32.9562 222.808L32.517 222.723L27.2246 226.38Z" fill="white"/>
<path d="M31.645 216.262L32.1233 216.046L32.1208 216.007L32.0351 215.989L31.645 216.262Z" fill="white"/>
<path d="M24.8409 223.361L31.6181 218.68L31.6698 218.643L32.2482 218.247L31.5265 218.107L32.3321 217.745L32.327 217.708L31.4578 217.54L32.2634 217.178L32.2617 217.143L31.3891 216.972L32.1922 216.613L32.1896 216.574L31.4095 216.425L24.21 221.397L24.8409 223.361Z" fill="white"/>
<path d="M18.5407 203.821L29.0033 196.589L29.345 196.355L29.6757 196.128L29.6367 195.794L27.9848 196.092L18.2227 202.838L18.5407 203.821Z" fill="white"/>
<path d="M31.2798 213.631L30.9686 213.572L31.7776 213.212L31.775 213.173L31.2247 213.068L23.2925 218.547L23.4477 219.039L31.2798 213.631Z" fill="white"/>
<path d="M18.0046 202.16L26.3617 196.383L25.1864 196.597L17.8452 201.665L18.0046 202.16Z" fill="white"/>
</g>
<path d="M21.7861 211.504L27.907 210.081L32.3149 223.103C32.6312 224.038 31.974 225.009 30.8462 225.271L28.8101 225.745C27.6823 226.007 26.5112 225.462 26.1949 224.527L21.7861 211.504Z" fill="#37474F"/>
<path d="M22.7991 211.277L26.9238 210.317L26.4646 208.96L22.3399 209.92L22.7991 211.277Z" fill="#37474F"/>
<path d="M23.7358 209.588L25.0454 209.283L20.1026 194.684L18.793 194.988L23.7358 209.588Z" fill="#EBEBEB"/>
<path d="M17.6919 193.86C17.6919 193.86 17.7351 191.427 17.8216 191.407L18.255 191.307C18.2626 191.305 18.2626 191.305 18.2626 191.305L18.6959 191.204C18.7824 191.184 20.3461 193.243 20.3461 193.243L20.1019 194.68L18.8028 194.982L17.6919 193.86Z" fill="#EBEBEB"/>
<path d="M30.5802 223.276L31.6489 223.028L27.7982 211.654L26.7294 211.902L30.5802 223.276Z" fill="#263238"/>
<path d="M28.5943 223.737L29.6631 223.489L25.8123 212.115L24.7436 212.363L28.5943 223.737Z" fill="#263238"/>
<path d="M26.6402 224.198L27.709 223.949L23.8597 212.575L22.7909 212.823L26.6402 224.198Z" fill="#263238"/>
<path d="M35.9266 209.293L29.5776 209.031L30.39 195.522C30.4485 194.552 31.4441 193.806 32.6143 193.853L34.7267 193.941C35.8969 193.989 36.7975 194.814 36.7398 195.784L35.9266 209.293Z" fill="#37474F"/>
<path d="M34.8869 209.264L30.6079 209.087L30.5232 210.495L34.8022 210.671L34.8869 209.264Z" fill="#37474F"/>
<path d="M33.3542 210.61L31.9956 210.554L31.0846 225.699L32.4432 225.755L33.3542 210.61Z" fill="#EBEBEB"/>
<path d="M33.0458 227.102C33.0458 227.102 32.0723 229.398 31.9824 229.394L31.533 229.376C31.5245 229.376 31.5245 229.376 31.5245 229.376L31.0751 229.357C30.9852 229.354 30.2915 226.99 30.2915 226.99L31.0742 225.692L32.4225 225.747L33.0458 227.102Z" fill="#EBEBEB"/>
<path d="M32.0906 195.829L30.9819 195.783L30.2722 207.583L31.3809 207.628L32.0906 195.829Z" fill="#263238"/>
<path d="M34.1512 195.914L33.0425 195.868L32.3328 207.667L33.4415 207.713L34.1512 195.914Z" fill="#263238"/>
<path d="M36.2166 195.997L35.1079 195.951L34.3996 207.75L35.5083 207.796L36.2166 195.997Z" fill="#263238"/>
<path d="M41.8509 224.557L47.2861 224.013L43.218 196.067L37.7828 196.611L41.8509 224.557Z" fill="#263238"/>
<path d="M37.5413 199.601L44.3169 198.924L43.4993 193.307L36.7237 193.985L37.5413 199.601Z" fill="#C7C7C7"/>
<path d="M43.5381 193.577C43.5381 193.577 49.9939 189.725 53.3613 189.388L54.7715 199.08L44.2758 198.651L43.5381 193.577Z" fill="#C7C7C7"/>
<g opacity="0.2">
<path d="M54.01 193.868L49.636 198.869H49.6292L46.9741 198.76L53.6224 191.183L54.01 193.868Z" fill="white"/>
<path d="M52.8615 189.465L44.7894 198.673L44.278 198.651L44.1602 197.825L51.0586 189.949C51.6946 189.731 52.3111 189.558 52.8615 189.465Z" fill="white"/>
<path d="M49.6361 190.492L44.0232 196.895L43.9248 196.221L48.521 190.976C48.8881 190.807 49.2621 190.644 49.6361 190.492Z" fill="white"/>
</g>
<path d="M55.0401 194.385L50.9097 193.833L49.8703 199.176L54.0008 199.728L55.0401 194.385Z" fill="#EBEBEB"/>
<path d="M54.7176 195.993C54.7176 195.993 57.0861 196.31 57.5126 196.367C57.9383 196.423 59.8879 195.049 61.1989 195.224C62.5099 195.399 61.3931 195.25 62.638 195.417C63.8828 195.583 68.9233 197.335 68.4001 200.025C67.8769 202.714 68.088 201.627 68.088 201.627C68.088 201.627 67.642 200.118 66.5142 199.694C65.2142 199.204 63.9931 199.859 63.5835 200.581C63.0713 201.486 62.6057 202.929 62.6057 202.929L57.4762 202.243C57.4762 202.243 57.3235 200.09 56.9954 199.356C56.6672 198.622 54.2368 198.466 54.2368 198.466L54.7176 195.993Z" fill="#EBEBEB"/>
<path d="M61.5903 202.787L58.4058 202.361L56.5509 211.89L59.7354 212.316L61.5903 202.787Z" fill="#EBEBEB"/>
<path d="M61.4101 207.966L56.6685 207.332L52.5416 228.545L57.2832 229.179L61.4101 207.966Z" fill="#263238"/>
<path d="M66.1528 211.013H17.3428V232.443H66.1528V211.013Z" fill="#FFC727"/>
<g opacity="0.1">
<path d="M17.3433 213.491C19.7109 213.407 22.0776 213.368 24.4453 213.335C26.8129 213.302 29.1796 213.305 31.5473 213.288L38.6493 213.334C41.0169 213.367 43.3836 213.406 45.7513 213.491C43.3836 213.576 41.0169 213.614 38.6493 213.647L31.5473 213.695C29.1796 213.678 26.8129 213.681 24.4453 213.647C22.0776 213.615 19.7109 213.576 17.3433 213.491Z" fill="black"/>
<path d="M28.917 215.439C32.0198 215.355 35.1227 215.316 38.2263 215.283L47.5357 215.236L56.845 215.282C59.9479 215.315 63.0507 215.354 66.1544 215.439C63.0515 215.523 59.9479 215.562 56.845 215.595L47.5357 215.642L38.2263 215.594C35.1227 215.563 32.0198 215.524 28.917 215.439Z" fill="black"/>
<path d="M57.8718 218.372C55.0149 218.456 52.158 218.496 49.3011 218.528L40.7303 218.576L32.1596 218.529C29.3027 218.496 26.4458 218.456 23.5889 218.372C26.4458 218.288 29.3027 218.248 32.1596 218.215L40.7303 218.169L49.3011 218.217C52.158 218.248 55.0149 218.288 57.8718 218.372Z" fill="black"/>
<path d="M17.3433 219.547C19.1588 219.462 20.9752 219.423 22.7908 219.391C24.6064 219.357 26.4228 219.36 28.2384 219.343C30.0539 219.359 31.8704 219.357 33.6859 219.39C35.5015 219.423 37.3179 219.462 39.1335 219.547C37.3179 219.632 35.5015 219.67 33.6859 219.703C31.8704 219.736 30.0539 219.734 28.2384 219.75C26.4228 219.734 24.6064 219.736 22.7908 219.703C20.9744 219.67 19.1588 219.631 17.3433 219.547Z" fill="black"/>
<path d="M17.3433 220.962L22.7917 220.863L28.2409 220.806L39.1386 220.758L50.0362 220.805L55.4846 220.862L60.9339 220.962L55.4846 221.061L50.0362 221.118L39.1386 221.165L28.2409 221.118L22.7917 221.061L17.3433 220.962Z" fill="black"/>
<path d="M66.1532 222.077C64.1612 222.162 62.1693 222.201 60.1773 222.233C58.1854 222.267 56.1934 222.263 54.2023 222.281C52.2104 222.265 50.2184 222.267 48.2265 222.235C46.2345 222.202 44.2426 222.162 42.2515 222.078C44.2434 221.994 46.2354 221.954 48.2265 221.921C50.2184 221.889 52.2104 221.89 54.2023 221.874C56.1943 221.891 58.1862 221.888 60.1773 221.922C62.1701 221.953 64.1612 221.993 66.1532 222.077Z" fill="black"/>
<path d="M35.7974 223.794C37.6367 223.71 39.4768 223.671 41.3161 223.638C43.1555 223.605 44.9956 223.608 46.8349 223.591C48.6742 223.607 50.5144 223.605 52.3537 223.638C54.193 223.671 56.0332 223.709 57.8725 223.794C56.0332 223.879 54.193 223.918 52.3537 223.951C50.5144 223.984 48.6742 223.982 46.8349 223.998C44.9956 223.981 43.1555 223.984 41.3161 223.95C39.4768 223.917 37.6375 223.878 35.7974 223.794Z" fill="black"/>
<path d="M17.3433 226.972C20.3757 226.888 23.4073 226.848 26.4398 226.816L35.5363 226.768L44.6328 226.815C47.6652 226.848 50.6968 226.888 53.7292 226.972C50.6968 227.057 47.6652 227.096 44.6328 227.129L35.5363 227.176L26.4398 227.128C23.4073 227.095 20.3757 227.056 17.3433 226.972Z" fill="black"/>
<path d="M66.1535 229.126C64.12 229.211 62.0856 229.25 60.0521 229.282C58.0186 229.316 55.9843 229.313 53.9508 229.33C51.9173 229.314 49.8829 229.316 47.8494 229.283C45.8159 229.25 43.7824 229.211 41.748 229.126C43.7816 229.041 45.8159 229.003 47.8494 228.969C49.8829 228.937 51.9173 228.939 53.9508 228.923C55.9843 228.94 58.0186 228.937 60.0521 228.971C62.0865 229.003 64.12 229.043 66.1535 229.126Z" fill="black"/>
<path d="M17.3433 230.934C19.0435 230.85 20.7446 230.81 22.4448 230.778C24.1451 230.744 25.8462 230.748 27.5464 230.73C29.2466 230.746 30.9477 230.744 32.648 230.777C34.3482 230.81 36.0493 230.85 37.7495 230.934C36.0493 231.019 34.3482 231.058 32.648 231.091C30.9477 231.123 29.2466 231.122 27.5464 231.138C25.8462 231.121 24.1451 231.124 22.4448 231.09C20.7446 231.057 19.0435 231.018 17.3433 230.934Z" fill="black"/>
</g>
</svg>
