<svg width="16" height="16" viewBox="0 0 16 16" fill="none" xmlns="http://www.w3.org/2000/svg">
<g clip-path="url(#clip0_3363_4266)">
<path d="M14.6667 12H4.00004C3.64642 12 3.30728 11.8595 3.05723 11.6095C2.80718 11.3594 2.66671 11.0203 2.66671 10.6666V4.66665C2.66671 4.31302 2.52623 3.97389 2.27618 3.72384C2.02613 3.47379 1.687 3.33331 1.33337 3.33331" stroke="#020617" stroke-width="1.25" stroke-linecap="round" stroke-linejoin="round"/>
<path d="M11.3333 9.33331V2.66665C11.3333 2.31302 11.1929 1.97389 10.9428 1.72384C10.6928 1.47379 10.3536 1.33331 10 1.33331H9.33333C8.97971 1.33331 8.64057 1.47379 8.39052 1.72384C8.14048 1.97389 8 2.31302 8 2.66665V9.33331" stroke="#020617" stroke-width="1.25" stroke-linecap="round" stroke-linejoin="round"/>
<path d="M13.3334 4H6.00004C5.63185 4 5.33337 4.29848 5.33337 4.66667V8.66667C5.33337 9.03486 5.63185 9.33333 6.00004 9.33333H13.3334C13.7016 9.33333 14 9.03486 14 8.66667V4.66667C14 4.29848 13.7016 4 13.3334 4Z" stroke="#020617" stroke-width="1.25" stroke-linecap="round" stroke-linejoin="round"/>
<path d="M12 14.6667C12.7363 14.6667 13.3333 14.0697 13.3333 13.3333C13.3333 12.597 12.7363 12 12 12C11.2636 12 10.6666 12.597 10.6666 13.3333C10.6666 14.0697 11.2636 14.6667 12 14.6667Z" stroke="#020617" stroke-width="1.25" stroke-linecap="round" stroke-linejoin="round"/>
<path d="M5.99996 14.6667C6.73634 14.6667 7.33329 14.0697 7.33329 13.3333C7.33329 12.597 6.73634 12 5.99996 12C5.26358 12 4.66663 12.597 4.66663 13.3333C4.66663 14.0697 5.26358 14.6667 5.99996 14.6667Z" stroke="#020617" stroke-width="1.25" stroke-linecap="round" stroke-linejoin="round"/>
</g>
<defs>
<clipPath id="clip0_3363_4266">
<rect width="16" height="16" fill="white"/>
</clipPath>
</defs>
</svg>
