<svg width="16" height="16" viewBox="0 0 16 16" fill="none" xmlns="http://www.w3.org/2000/svg">
<path d="M1.33337 13.3334V8.00002C1.33337 7.6464 1.47385 7.30726 1.7239 7.05721C1.97395 6.80716 2.31309 6.66669 2.66671 6.66669H13.3334C13.687 6.66669 14.0261 6.80716 14.2762 7.05721C14.5262 7.30726 14.6667 7.6464 14.6667 8.00002V13.3334" stroke="#020617" stroke-width="1.25" stroke-linecap="round" stroke-linejoin="round"/>
<path d="M2.66663 6.66669V4.00002C2.66663 3.6464 2.8071 3.30726 3.05715 3.05721C3.3072 2.80716 3.64634 2.66669 3.99996 2.66669H12C12.3536 2.66669 12.6927 2.80716 12.9428 3.05721C13.1928 3.30726 13.3333 3.6464 13.3333 4.00002V6.66669" stroke="#020617" stroke-width="1.25" stroke-linecap="round" stroke-linejoin="round"/>
<path d="M8 2.66669V6.66669" stroke="#020617" stroke-width="1.25" stroke-linecap="round" stroke-linejoin="round"/>
<path d="M1.33337 12H14.6667" stroke="#020617" stroke-width="1.25" stroke-linecap="round" stroke-linejoin="round"/>
</svg>
