<svg width="16" height="16" viewBox="0 0 16 16" fill="none" xmlns="http://www.w3.org/2000/svg">
<path d="M9.33337 10.6667H6.00004M12.6667 10.6667H14.6667V8.56666C14.6672 8.40801 14.611 8.25439 14.5084 8.13342C14.4057 8.01244 14.2633 7.93204 14.1067 7.90666L10.6667 7.33333L8.86671 4.93333C8.80461 4.85053 8.72409 4.78333 8.63152 4.73704C8.53895 4.69075 8.43687 4.66666 8.33337 4.66666H3.49337C3.24489 4.66493 3.00086 4.73267 2.78883 4.86225C2.57679 4.99183 2.40519 5.17808 2.29337 5.39999L1.76004 6.48666C1.48014 7.04306 1.33404 7.65715 1.33337 8.27999V10.6667H2.66671" stroke="#020617" stroke-width="1.25" stroke-linecap="round" stroke-linejoin="round"/>
<path d="M4.33329 12.6666C5.25377 12.6666 5.99996 11.9205 5.99996 11C5.99996 10.0795 5.25377 9.33331 4.33329 9.33331C3.41282 9.33331 2.66663 10.0795 2.66663 11C2.66663 11.9205 3.41282 12.6666 4.33329 12.6666Z" stroke="#020617" stroke-width="1.25" stroke-linecap="round" stroke-linejoin="round"/>
<path d="M11 12.6666C11.9205 12.6666 12.6667 11.9205 12.6667 11C12.6667 10.0795 11.9205 9.33331 11 9.33331C10.0796 9.33331 9.33337 10.0795 9.33337 11C9.33337 11.9205 10.0796 12.6666 11 12.6666Z" stroke="#020617" stroke-width="1.25" stroke-linecap="round" stroke-linejoin="round"/>
</svg>
