<svg width="32" height="32" viewBox="0 0 32 32" fill="none" xmlns="http://www.w3.org/2000/svg">
<path d="M13.125 0V13.125H24.9242L27.1664 15.3673L29.5583 13.125H32V0H13.125ZM30.125 11.25H28.8167L27.2086 12.7577L25.7008 11.25H15V1.875H30.125V11.25Z" fill="black"/>
<path d="M4.6875 16.4867L2.42419 18.75H0V32H18.75V18.75H6.95081L4.6875 16.4867ZM16.875 30.125H1.875V20.625H3.20081L4.6875 19.1383L6.17419 20.625H16.875V30.125Z" fill="black"/>
<path d="M9.375 3.75C9.375 1.68225 7.69275 0 5.625 0C3.55725 0 1.875 1.68225 1.875 3.75C1.875 5.81775 3.55725 7.5 5.625 7.5C7.69275 7.5 9.375 5.81775 9.375 3.75ZM5.625 5.625C4.59113 5.625 3.75 4.78387 3.75 3.75C3.75 2.71613 4.59113 1.875 5.625 1.875C6.65887 1.875 7.5 2.71613 7.5 3.75C7.5 4.78387 6.65887 5.625 5.625 5.625Z" fill="black"/>
<path d="M11.25 12.1875C11.25 9.60281 9.14719 7.5 6.5625 7.5H4.6875C2.10281 7.5 0 9.60281 0 12.1875V13.125H11.25V12.1875ZM2.03562 11.25C2.4225 10.1587 3.46519 9.375 4.6875 9.375H6.5625C7.78481 9.375 8.82744 10.1587 9.21437 11.25H2.03562Z" fill="black"/>
<path d="M30.125 22.625C30.125 20.5573 28.4427 18.875 26.375 18.875C24.3073 18.875 22.625 20.5573 22.625 22.625C22.625 24.6927 24.3073 26.375 26.375 26.375C28.4427 26.375 30.125 24.6927 30.125 22.625ZM26.375 24.5C25.3411 24.5 24.5 23.6589 24.5 22.625C24.5 21.5911 25.3411 20.75 26.375 20.75C27.4089 20.75 28.25 21.5911 28.25 22.625C28.25 23.6589 27.4089 24.5 26.375 24.5Z" fill="black"/>
<path d="M27.3125 26.375H25.4375C22.8528 26.375 20.75 28.4778 20.75 31.0625V32H32V31.0625C32 28.4778 29.8972 26.375 27.3125 26.375ZM22.7856 30.125C23.1725 29.0337 24.2152 28.25 25.4375 28.25H27.3125C28.5348 28.25 29.5774 29.0337 29.9644 30.125H22.7856Z" fill="black"/>
<path d="M16.875 3.75H28.125V5.625H16.875V3.75Z" fill="black"/>
<path d="M3.75 22.5H15V24.375H3.75V22.5Z" fill="black"/>
<path d="M16.875 7.5H24.375V9.375H16.875V7.5Z" fill="black"/>
<path d="M3.75 26.25H11.25V28.125H3.75V26.25Z" fill="black"/>
</svg>
