<svg width="32" height="32" viewBox="0 0 32 32" fill="none" xmlns="http://www.w3.org/2000/svg">
<path d="M18.6764 24.9836C19.3059 24.321 19.6934 23.4264 19.6934 22.4425C19.6934 20.406 18.0366 18.7491 16 18.7491C13.9634 18.7491 12.3066 20.406 12.3066 22.4425C12.3066 23.4264 12.6941 24.321 13.3236 24.9836C11.7349 25.9088 10.6641 27.6296 10.6641 29.5967V31.9991H21.3359V29.5967C21.3359 27.6296 20.2651 25.9088 18.6764 24.9836ZM14.1816 22.4425C14.1816 21.4399 14.9973 20.6241 16 20.6241C17.0027 20.6241 17.8184 21.4399 17.8184 22.4425C17.8184 23.4451 17.0026 24.2608 16 24.2608C14.9974 24.2608 14.1816 23.4451 14.1816 22.4425ZM19.4609 30.1241H12.5391V29.5968C12.5391 27.6885 14.0916 26.1359 16 26.1359C17.9084 26.1359 19.4609 27.6885 19.4609 29.5968V30.1241Z" fill="black"/>
<path d="M10.8146 11.5862L9.48875 10.2604L7.77462 11.9745H1.60038V13.8495H5.89962L3.36169 16.3874H0V18.2624H2.8125V21.0749H4.6875V17.7133L7.22538 15.1753V19.4745H9.10038V13.3004L10.8146 11.5862Z" fill="black"/>
<path d="M16 0.812566C14.6424 -0.332747 12.604 -0.266247 11.3256 1.01219C10.6723 1.6655 10.3125 2.53407 10.3125 3.45807C10.3125 4.38194 10.6723 5.25057 11.3256 5.90382L16 10.5782L20.6744 5.90375C21.3277 5.2505 21.6875 4.38194 21.6875 3.45807C21.6875 2.53413 21.3277 1.6655 20.6744 1.01225C19.3959 -0.266184 17.3574 -0.332622 16 0.812566ZM19.3486 4.578L16 7.92663L12.6514 4.578C12.3522 4.27882 12.1875 3.88107 12.1875 3.45807C12.1875 3.03494 12.3522 2.63719 12.6514 2.33807C12.9601 2.02932 13.3657 1.87494 13.7714 1.87494C14.177 1.87494 14.5826 2.02932 14.8914 2.33813L16 3.44663L17.1086 2.33807C17.7262 1.7205 18.7311 1.7205 19.3486 2.33807C19.6478 2.63719 19.8125 3.03494 19.8125 3.45807C19.8125 3.88107 19.6478 4.27882 19.3486 4.578Z" fill="black"/>
<path d="M22.625 9.43665V22.5616H32V9.43665H22.625ZM30.125 20.6866H24.5V11.3116H30.125V20.6866Z" fill="black"/>
<path d="M26.375 13.1866H28.25V15.0616H26.375V13.1866Z" fill="black"/>
<path d="M28.25 5.62415V7.56165H30.125V5.62415C30.125 3.5564 28.4427 1.87415 26.375 1.87415H24.4375V3.74915H26.375C27.4089 3.74915 28.25 4.59027 28.25 5.62415Z" fill="black"/>
<path d="M3.75 26.3741V24.4366H1.875V26.3741C1.875 28.4419 3.55725 30.1241 5.625 30.1241H7.5625V28.2491H5.625C4.59113 28.2491 3.75 27.408 3.75 26.3741Z" fill="black"/>
<path d="M3.75 5.62415C3.75 4.59027 4.59113 3.74915 5.625 3.74915H7.5625V1.87415H5.625C3.55725 1.87415 1.875 3.5564 1.875 5.62415V7.56165H3.75V5.62415Z" fill="black"/>
<path d="M28.25 26.3741C28.25 27.408 27.4089 28.2491 26.375 28.2491H24.4375V30.1241H26.375C28.4427 30.1241 30.125 28.4419 30.125 26.3741V24.4366H28.25V26.3741Z" fill="black"/>
</svg>
