<svg width="16" height="17" viewBox="0 0 16 17" fill="none" xmlns="http://www.w3.org/2000/svg">
<path d="M2.66671 13.9532H13.3334C13.687 13.9532 14.0261 13.8127 14.2762 13.5627C14.5262 13.3126 14.6667 12.9735 14.6667 12.6199V5.95321C14.6667 5.59958 14.5262 5.26045 14.2762 5.0104C14.0261 4.76035 13.687 4.61987 13.3334 4.61987H8.04671C7.8271 4.61874 7.61117 4.56337 7.41811 4.4587C7.22504 4.35403 7.06082 4.20329 6.94004 4.01987L6.39337 3.21987C6.27259 3.03646 6.10837 2.88572 5.91531 2.78105C5.72225 2.67637 5.50632 2.62101 5.28671 2.61987H2.66671C2.31309 2.61987 1.97395 2.76035 1.7239 3.0104C1.47385 3.26045 1.33337 3.59958 1.33337 3.95321V12.6199C1.33337 13.3532 1.93337 13.9532 2.66671 13.9532Z" stroke="#020617" stroke-width="1.25" stroke-linecap="round" stroke-linejoin="round"/>
</svg>
