<svg width="32" height="20" viewBox="0 0 32 20" fill="none" xmlns="http://www.w3.org/2000/svg">
<path d="M32 7.08739L16 0.177368L0 7.08739L2.85594 8.32078V16.0268H4.72123V9.12633L6.77628 10.0138V16.7089L7.07516 16.9857C7.2002 17.1015 10.2044 19.8225 16.0001 19.8225C21.7957 19.8225 24.7999 17.1015 24.9249 16.9857L25.2238 16.7089V10.0139L32 7.08739ZM16 2.20916L27.2954 7.08739L16 11.9656L4.70463 7.08739L16 2.20916ZM23.3584 15.8507C22.5374 16.4458 20.0527 17.9573 16 17.9573C11.9442 17.9573 9.45887 16.4436 8.64157 15.8511V10.8195L16 13.9974L23.3584 10.8195V15.8507Z" fill="black"/>
</svg>
