<svg width="32" height="30" viewBox="0 0 32 30" fill="none" xmlns="http://www.w3.org/2000/svg">
<path d="M28.7941 12.6895C28.3446 11.8553 27.7874 11.0919 27.13 10.4092L28.5329 8.68569L26.6441 7.14819C24.8787 5.71125 22.4589 5.58056 20.5849 6.69594C20.9092 6.08006 21.0938 5.37962 21.0938 4.63656C21.0938 2.19056 19.1037 0.200562 16.6577 0.200562C14.2117 0.200562 12.2218 2.19056 12.2218 4.63656C12.2218 5.59944 12.5311 6.49094 13.0543 7.21887C7.92769 7.51619 3.782 11.5299 3.27869 16.5996C2.4715 16.3849 1.875 15.6481 1.875 14.7742V14.0501H0V14.7742C0 16.6796 1.42338 18.2576 3.26238 18.5037C3.49019 21.2837 4.8115 23.842 6.97194 25.6478L9.05625 29.7994H14.8647V27.0766H18.4392V29.7994H24.2489L26.3447 25.605C27.3381 24.7627 28.1767 23.729 28.7936 22.588L32 21.613V13.6644L28.7941 12.6895ZM16.6577 2.07556C18.0698 2.07556 19.2187 3.22444 19.2187 4.63656C19.2187 6.04869 18.0698 7.19756 16.6577 7.19756C15.2456 7.19756 14.0967 6.04869 14.0967 4.63656C14.0967 3.22444 15.2456 2.07556 16.6577 2.07556ZM30.125 20.2233L27.4787 21.028C26.8704 22.3723 25.8074 23.6273 24.8456 24.4101L23.0897 27.9244H20.3142V25.2016H12.9896V27.9244H10.2129L8.46656 24.446C6.18694 22.6613 5.102 20.2472 5.102 17.6386C5.102 12.9169 8.94338 9.07556 13.665 9.07556L20.6021 9.09431L20.8761 8.82425C22.1239 7.58619 24.0947 7.49075 25.4603 8.60231L25.895 8.95612L24.5582 10.5985C25.8659 11.5834 26.9771 13.2234 27.4787 14.2492L30.125 15.054V20.2233Z" fill="black"/>
<path d="M23.8281 14.8878H25.7031V16.7628H23.8281V14.8878Z" fill="black"/>
<path d="M12.9023 12.0691L14.161 13.4589C14.8461 12.8384 15.7328 12.4967 16.6578 12.4967C17.5828 12.4967 18.4694 12.8384 19.1545 13.4589L20.4132 12.0691C19.3826 11.1358 18.0489 10.6217 16.6578 10.6217C15.2668 10.6217 13.933 11.1358 12.9023 12.0691Z" fill="black"/>
</svg>
