<svg width="16" height="16" viewBox="0 0 16 16" fill="none" xmlns="http://www.w3.org/2000/svg">
<g clip-path="url(#clip0_3363_4292)">
<path d="M3.20004 1.53335C3.20242 1.57524 3.21791 1.61532 3.24432 1.64792C3.27073 1.68052 3.30672 1.70399 3.34721 1.715C3.38769 1.72602 3.43062 1.72403 3.4699 1.7093C3.50919 1.69458 3.54286 1.66787 3.56613 1.63296C3.5894 1.59805 3.60111 1.55671 3.59959 1.51478C3.59807 1.47285 3.5834 1.43246 3.55766 1.39932C3.53192 1.36619 3.49641 1.34199 3.45616 1.33015C3.41591 1.31831 3.37295 1.31943 3.33337 1.33335H2.66671C2.31309 1.33335 1.97395 1.47382 1.7239 1.72387C1.47385 1.97392 1.33337 2.31306 1.33337 2.66668V6.00001C1.33337 7.06088 1.7548 8.0783 2.50495 8.82844C3.25509 9.57859 4.27251 10 5.33337 10C6.39424 10 7.41166 9.57859 8.1618 8.82844C8.91195 8.0783 9.33337 7.06088 9.33337 6.00001V2.66668C9.33337 2.31306 9.1929 1.97392 8.94285 1.72387C8.6928 1.47382 8.35366 1.33335 8.00004 1.33335H7.33337C7.32024 1.34648 7.30982 1.36207 7.30272 1.37923C7.29561 1.39638 7.29195 1.41477 7.29195 1.43335C7.29195 1.45192 7.29561 1.47031 7.30272 1.48747C7.30982 1.50462 7.32024 1.52021 7.33337 1.53335C7.34651 1.54648 7.3621 1.5569 7.37925 1.564C7.39641 1.57111 7.4148 1.57477 7.43337 1.57477C7.45195 1.57477 7.47034 1.57111 7.48749 1.564C7.50465 1.5569 7.52024 1.54648 7.53337 1.53335" stroke="#020617" stroke-width="1.25" stroke-linecap="round" stroke-linejoin="round"/>
<path d="M5.33337 10V10.6667C5.33337 11.7275 5.7548 12.7449 6.50495 13.4951C7.25509 14.2452 8.27251 14.6667 9.33337 14.6667C10.3942 14.6667 11.4117 14.2452 12.1618 13.4951C12.9119 12.7449 13.3334 11.7275 13.3334 10.6667V8" stroke="#020617" stroke-width="1.25" stroke-linecap="round" stroke-linejoin="round"/>
<path d="M13.3333 7.99998C14.0697 7.99998 14.6667 7.40303 14.6667 6.66665C14.6667 5.93027 14.0697 5.33331 13.3333 5.33331C12.597 5.33331 12 5.93027 12 6.66665C12 7.40303 12.597 7.99998 13.3333 7.99998Z" stroke="#020617" stroke-width="1.25" stroke-linecap="round" stroke-linejoin="round"/>
</g>
<defs>
<clipPath id="clip0_3363_4292">
<rect width="16" height="16" fill="white"/>
</clipPath>
</defs>
</svg>
