<svg width="16" height="16" viewBox="0 0 16 16" fill="none" xmlns="http://www.w3.org/2000/svg">
<path d="M13.3333 8.00002V5.33335H3.99996C3.64634 5.33335 3.3072 5.19288 3.05715 4.94283C2.8071 4.69278 2.66663 4.35364 2.66663 4.00002C2.66663 3.26669 3.26663 2.66669 3.99996 2.66669H12V5.33335" stroke="#020617" stroke-width="1.25" stroke-linecap="round" stroke-linejoin="round"/>
<path d="M2.66663 4V12C2.66663 12.7333 3.26663 13.3333 3.99996 13.3333H13.3333V10.6667" stroke="#020617" stroke-width="1.25" stroke-linecap="round" stroke-linejoin="round"/>
<path d="M12 8C11.6463 8 11.3072 8.14048 11.0572 8.39052C10.8071 8.64057 10.6666 8.97971 10.6666 9.33333C10.6666 10.0667 11.2666 10.6667 12 10.6667H14.6666V8H12Z" stroke="#020617" stroke-width="1.25" stroke-linecap="round" stroke-linejoin="round"/>
</svg>
