<svg width="148" height="70" viewBox="0 0 148 70" fill="none" xmlns="http://www.w3.org/2000/svg">
<path d="M29.7087 49.3659C29.2726 49.3664 28.8545 49.5399 28.5461 49.8483C28.2377 50.1566 28.0643 50.5748 28.0638 51.0109V54.8593C28.0643 55.2954 28.2377 55.7135 28.5461 56.0219C28.8545 56.3303 29.2726 56.5038 29.7087 56.5043H31.7952C32.2313 56.5038 32.6494 56.3303 32.9578 56.0219C33.2662 55.7135 33.4396 55.2954 33.4401 54.8593V51.0109C33.4396 50.5748 33.2662 50.1566 32.9578 49.8483C32.6494 49.5399 32.2313 49.3664 31.7952 49.3659H29.7087Z" fill="#3F3D56"/>
<path d="M68.2772 56.6322H66.1908C65.7207 56.6317 65.2701 56.4447 64.9377 56.1123C64.6053 55.78 64.4184 55.3293 64.4178 54.8592V51.0108C64.4184 50.5408 64.6053 50.0901 64.9377 49.7577C65.2701 49.4254 65.7207 49.2384 66.1908 49.2379H68.2772C68.7473 49.2384 69.1979 49.4254 69.5303 49.7577C69.8627 50.0901 70.0496 50.5408 70.0502 51.0108V54.8592C70.0496 55.3293 69.8627 55.78 69.5303 56.1123C69.1979 56.4447 68.7473 56.6317 68.2772 56.6322Z" fill="#3F3D56"/>
<path d="M66.8928 53.5511H30.965C29.3299 53.5511 27.9997 52.5871 27.9997 51.4023V44.4936L29.783 42.6155H68.4218L69.8582 44.4975V51.4023C69.8582 52.5871 68.5279 53.5511 66.8928 53.5511Z" fill="#CCCCCC"/>
<path d="M68.2541 46.0716H29.9879L29.599 40.1088L29.8464 39.4987L31.2848 35.959H66.6981L68.6431 39.9785L68.2541 46.0716Z" fill="#CCCCCC"/>
<path d="M68.5782 39.9914L68.2927 44.4716H59.8736V41.1434L68.3387 39.4973L68.5782 39.9914Z" fill="white"/>
<path d="M38.2404 41.1433V44.4715H29.948L29.6638 40.1192L29.9058 39.5228L38.2404 41.1433Z" fill="white"/>
<path d="M66.4846 36.9831H31.4979L35.2295 24.5445C35.3817 24.0308 35.6951 23.5796 36.1234 23.2578C36.5517 22.9359 37.0723 22.7604 37.608 22.7571L60.7786 22.5364C61.3384 22.531 61.884 22.7131 62.3284 23.0537C62.7728 23.3943 63.0904 23.8738 63.2306 24.4158L66.4846 36.9831Z" fill="#CCCCCC"/>
<path d="M63.7913 35.8071L34.1855 35.456C34.1481 35.4556 34.1113 35.4464 34.0781 35.4291C34.0449 35.4119 34.0162 35.3871 33.9943 35.3567C33.9724 35.3263 33.958 35.2912 33.9521 35.2543C33.9462 35.2173 33.9492 35.1795 33.9606 35.1438L36.7988 26.2887C36.8142 26.2404 36.8446 26.1983 36.8856 26.1685C36.9265 26.1386 36.9759 26.1225 37.0266 26.1225H60.8391C60.8898 26.1225 60.9391 26.1386 60.9801 26.1684C61.021 26.1983 61.0514 26.2404 61.0669 26.2886L64.0219 35.4948C64.0335 35.5309 64.0364 35.5692 64.0302 35.6066C64.0241 35.6441 64.0091 35.6795 63.9866 35.71C63.9641 35.7405 63.9346 35.7652 63.9007 35.7821C63.8667 35.799 63.8293 35.8075 63.7913 35.8071Z" fill="white"/>
<path d="M52.9813 24.0544H45.0014C44.9342 24.0544 44.8732 23.9882 44.8422 23.8816C44.8114 23.7724 44.8158 23.6563 44.8549 23.5498L45.513 21.8857C45.5465 21.8009 45.6013 21.7502 45.6595 21.7502H52.3232C52.3814 21.7502 52.4361 21.8009 52.4697 21.8857L53.1277 23.5498C53.1668 23.6563 53.1713 23.7724 53.1404 23.8816C53.1095 23.9882 53.0485 24.0544 52.9813 24.0544Z" fill="#232334"/>
<path d="M31.5199 36.7272H26.2715V35.5736C26.272 35.2007 26.4203 34.8432 26.684 34.5795C26.9477 34.3158 27.3052 34.1675 27.6781 34.1671H31.5199V36.7272Z" fill="#CCCCCC"/>
<path d="M71.7143 36.7272H66.466V34.1671H70.3077C70.6807 34.1675 71.0382 34.3158 71.3019 34.5795C71.5656 34.8432 71.7139 35.2007 71.7143 35.5736V36.7272Z" fill="#CCCCCC"/>
<path d="M25.6576 54.7099L0 63.9269L0.108918 64.2301L25.7665 55.013L25.6576 54.7099Z" fill="#3F3D56"/>
<path d="M72.1666 54.7103L72.0577 55.0135L97.716 64.2282L97.8249 63.925L72.1666 54.7103Z" fill="#3F3D56"/>
<path d="M50.4186 61.3935H48.8829V59.4098H50.4186V61.3935ZM50.4186 57.4261H48.8829V55.4424H50.4186V57.4261Z" fill="#E6E6E6"/>
<path d="M50.4186 69.6105H48.8829V67.6269H50.4186V69.6105ZM50.4186 65.6431H48.8829V63.6595H50.4186V65.6431Z" fill="#E6E6E6"/>
<path d="M117.899 62.7581H116.208L115.403 56.2339H117.899V62.7581Z" fill="#FFB8B8"/>
<path d="M118.331 64.3978H112.877V64.3288C112.877 63.766 113.101 63.2264 113.499 62.8284C113.897 62.4304 114.437 62.2066 115 62.2059H118.331L118.331 64.3978Z" fill="#2F2E41"/>
<path d="M139.711 59.553L138.261 60.4242L134.211 55.2464L136.351 53.9606L139.711 59.553Z" fill="#FFB8B8"/>
<path d="M136.25 63.5453L136.215 63.4861C135.926 63.0033 135.84 62.4255 135.976 61.8794C136.112 61.3333 136.459 60.8635 136.941 60.5731L139.797 58.8576L140.925 60.7364L136.25 63.5453Z" fill="#2F2E41"/>
<path d="M118.339 61.4118L118.31 61.4117C117.487 61.409 116.665 61.3617 115.847 61.2699C115.536 61.2391 115.198 61.2057 114.79 61.1723L114.776 61.1697C114.498 61.0871 114.491 58.4806 114.608 49.5586C114.669 44.9888 114.737 39.8095 114.656 36.511L114.655 36.4786L114.679 36.4572C117.697 33.8329 121.572 32.8491 125.59 33.6872L125.62 33.6934L125.636 33.7196C127.298 36.5324 129.808 40.584 132.235 44.5023C137.807 53.4968 139.401 56.1421 139.226 56.3417L139.205 56.358C138.825 56.5482 138.539 56.6947 138.296 56.8192C137.483 57.2362 137.146 57.4088 135.338 58.1536L135.293 58.172L135.26 58.1363C129.607 51.941 124.902 45.0204 121.991 38.6229C121.651 40.807 121.239 43.659 120.802 46.6724C119.548 55.3376 118.701 61.0436 118.359 61.391L118.339 61.4118Z" fill="#2F2E41"/>
<path d="M127.121 8.84512C127.69 6.49409 128.172 3.84239 127.099 1.67706C126.353 0.174655 123.597 -0.33129 122.017 0.209968C120.437 0.751226 119.295 2.2197 118.792 3.8208C118.29 5.4219 118.348 7.14721 118.567 8.81166C121.473 8.75584 124.379 8.70001 127.121 8.84512Z" fill="#2F2E41"/>
<path d="M122.217 8.84452C124.088 8.84452 125.605 7.32738 125.605 5.45589C125.605 3.5844 124.088 2.06726 122.217 2.06726C120.345 2.06726 118.828 3.5844 118.828 5.45589C118.828 7.32738 120.345 8.84452 122.217 8.84452Z" fill="#FFB8B8"/>
<path d="M126.359 4.75779C126.37 4.18747 126.266 3.6208 126.053 3.09146C125.841 2.56212 125.524 2.08091 125.122 1.67641C124.72 1.27192 124.24 0.952392 123.712 0.736827C123.184 0.521263 122.618 0.414054 122.048 0.421573C121.477 0.429093 120.914 0.551186 120.392 0.780598C119.87 1.01001 119.399 1.34206 119.007 1.75702C118.616 2.17197 118.312 2.66137 118.114 3.19613C117.915 3.73089 117.826 4.3001 117.852 4.86994C120.752 4.8761 123.653 4.88226 126.359 4.75779Z" fill="#2F2E41"/>
<path d="M119.862 37.1774C123.234 37.1624 126.583 37.7231 129.765 38.8354C129.876 33.4939 128.037 28.1424 124.712 24.139L124.687 24.1091L124.7 24.0724C125.588 21.5062 126.506 18.8537 127.326 16.2143L127.314 16.17C126.739 14.1248 125.504 12.0581 123.539 9.85167C123.326 9.63087 123.037 9.49937 122.73 9.48385C122.424 9.46832 122.123 9.56993 121.888 9.76807C118.396 12.9696 116.497 17.7666 116.933 22.287L116.934 22.3003L116.93 22.3132C115.392 27.5254 114.833 30.2026 114.34 32.5646C113.981 34.2877 113.67 35.7796 113.045 37.9114C115.285 37.424 117.57 37.178 119.862 37.1774Z" fill="#3F3D56"/>
<path opacity="0.1" d="M124.826 20.7007L119.821 31.597L116.962 28.7028L124.826 20.7007Z" fill="black"/>
<path d="M113.592 26.7529L113.941 27.4309C113.944 27.4372 113.945 27.4445 113.942 27.4512C113.94 27.4579 113.936 27.4635 113.929 27.4667L113.912 27.4754L115.73 31.0076C115.781 31.1053 115.79 31.219 115.756 31.3237C115.723 31.4284 115.649 31.5155 115.551 31.5658L113.344 32.7017C113.296 32.7266 113.243 32.7417 113.189 32.7462C113.135 32.7507 113.08 32.7444 113.028 32.7278C112.976 32.7112 112.928 32.6845 112.887 32.6494C112.845 32.6142 112.811 32.5712 112.786 32.5228L111.032 29.1145L111.02 29.1207C111.016 29.123 111.01 29.1234 111.006 29.1219C111.001 29.1204 110.997 29.1171 110.995 29.1127L110.796 28.7268C110.795 28.7246 110.794 28.7222 110.794 28.7198C110.794 28.7173 110.794 28.7148 110.795 28.7125C110.796 28.7101 110.797 28.7079 110.798 28.7061C110.8 28.7042 110.802 28.7026 110.804 28.7015L110.816 28.6952L110.742 28.5499L110.729 28.5562C110.725 28.5586 110.719 28.559 110.714 28.5574C110.709 28.5558 110.705 28.5523 110.703 28.5476L110.507 28.167C110.505 28.1624 110.504 28.157 110.506 28.152C110.507 28.1471 110.511 28.143 110.515 28.1406L110.528 28.1342L110.426 27.9358L110.413 27.9423C110.409 27.9444 110.404 27.9448 110.4 27.9434C110.395 27.942 110.392 27.9389 110.39 27.9348L110.283 27.727C110.281 27.7229 110.28 27.7181 110.282 27.7137C110.283 27.7093 110.286 27.7056 110.29 27.7035L110.303 27.697L110.086 27.2765C110.036 27.1787 110.027 27.065 110.06 26.9604C110.094 26.8557 110.167 26.7687 110.265 26.7184L112.472 25.5825C112.57 25.5322 112.684 25.5228 112.788 25.5563C112.893 25.5898 112.98 25.6636 113.03 25.7613L113.539 26.7501L113.556 26.7414C113.562 26.7382 113.57 26.7376 113.576 26.7397C113.583 26.7419 113.589 26.7466 113.592 26.7529Z" fill="#3F3D56"/>
<path d="M112.891 25.9251L115.57 31.1291C115.601 31.1911 115.607 31.2632 115.586 31.3296C115.565 31.396 115.518 31.4513 115.456 31.4832L113.343 32.5705C113.281 32.6024 113.209 32.6085 113.143 32.5874C113.077 32.5663 113.021 32.5197 112.99 32.4578L112.989 32.4571L110.311 27.2531C110.295 27.2224 110.285 27.1889 110.283 27.1545C110.28 27.1201 110.284 27.0854 110.294 27.0526C110.305 27.0197 110.322 26.9892 110.344 26.9628C110.366 26.9365 110.394 26.9148 110.424 26.899L110.741 26.7362L110.761 26.7768C110.774 26.8021 110.792 26.8246 110.814 26.8429C110.836 26.8613 110.861 26.8752 110.888 26.8839C110.915 26.8926 110.944 26.8959 110.972 26.8935C111 26.8912 111.028 26.8833 111.053 26.8703L112.128 26.3173C112.179 26.291 112.217 26.2455 112.235 26.1908C112.252 26.1361 112.247 26.0767 112.221 26.0256L112.2 25.9851L112.537 25.8117C112.599 25.7797 112.671 25.7737 112.738 25.795C112.804 25.8162 112.859 25.863 112.891 25.925L112.891 25.9251Z" fill="#232334"/>
<path d="M113.668 32.2826C113.87 32.2685 114.067 32.2103 114.244 32.1119C114.421 32.0136 114.575 31.8775 114.694 31.7133C114.813 31.5492 114.895 31.3609 114.933 31.1617C114.972 30.9626 114.966 30.7574 114.917 30.5607L119.041 27.8588L116.689 26.8427L113.133 29.5643C112.808 29.6692 112.533 29.8896 112.36 30.1839C112.186 30.4781 112.127 30.8257 112.193 31.1608C112.259 31.4958 112.445 31.7951 112.717 32.0019C112.989 32.2086 113.327 32.3085 113.668 32.2826Z" fill="#FFB8B8"/>
<path d="M117.636 30.3362L117.584 30.2994C116.602 29.5771 115.513 28.83 114.459 28.1076L114.396 28.0642L114.446 28.0059C116.695 25.3745 118.946 22.626 121.124 19.9672C121.122 19.9629 121.121 19.9598 121.12 19.9576L121.14 19.9472L121.149 19.9366L121.153 19.9404L121.167 19.9338L121.107 19.9383L120.436 14.6746C119.83 13.8475 119.714 12.2054 120.508 11.0592C121.331 9.87175 123.072 9.47436 124.234 10.2084C124.539 10.4128 124.793 10.683 124.979 10.999C125.165 11.3151 125.277 11.6689 125.308 12.0342C125.351 12.3597 125.321 12.6908 125.22 13.0032C125.119 13.3155 124.949 13.6014 124.723 13.8399C125.009 16.6256 125.02 19.1155 125.03 21.524L125.03 21.5481L125.015 21.5679C122.694 24.5173 120.144 27.4511 117.678 30.2883L117.636 30.3362Z" fill="#3F3D56"/>
<path d="M48.9467 15.9663C53.1547 15.9663 56.5659 12.555 56.5659 8.34699C56.5659 4.13898 53.1547 0.727722 48.9467 0.727722C44.7387 0.727722 41.3274 4.13898 41.3274 8.34699C41.3274 12.555 44.7387 15.9663 48.9467 15.9663Z" fill="#232334"/>
<path d="M48.2205 11.5632L45.9401 8.63099L47.2662 7.59951L48.346 8.98787L51.9938 5.13715L53.2136 6.29285L48.2205 11.5632Z" fill="white"/>
<path d="M147.839 64.6083H109.332C109.289 64.6083 109.248 64.5913 109.218 64.5611C109.188 64.5309 109.171 64.4899 109.171 64.4472C109.171 64.4045 109.188 64.3635 109.218 64.3333C109.248 64.303 109.289 64.2861 109.332 64.2861H147.839C147.882 64.2861 147.923 64.303 147.953 64.3333C147.983 64.3635 148 64.4045 148 64.4472C148 64.4899 147.983 64.5309 147.953 64.5611C147.923 64.5913 147.882 64.6083 147.839 64.6083Z" fill="#3F3D56"/>
</svg>
