<svg width="137" height="125" viewBox="0 0 137 125" fill="none" xmlns="http://www.w3.org/2000/svg">
<path d="M69.4321 30.909H19.2629C15.9984 30.909 13.352 33.5554 13.352 36.8199V86.3502C13.352 89.6147 15.9984 92.2611 19.2629 92.2611H69.4321C72.6966 92.2611 75.343 89.6147 75.343 86.3502V36.8199C75.343 33.5554 72.6966 30.909 69.4321 30.909Z" fill="#F2F2F2"/>
<path d="M29.7983 32.1244C25.7588 32.1244 21.8849 33.729 19.0286 36.5853C16.1723 39.4416 14.5676 43.3156 14.5676 47.355V86.3501C14.5676 86.9667 14.6891 87.5772 14.925 88.1469C15.161 88.7165 15.5068 89.2342 15.9428 89.6702C16.3788 90.1062 16.8965 90.452 17.4661 90.688C18.0358 90.9239 18.6463 91.0454 19.2629 91.0454H51.2822C57.3411 91.0454 63.1519 88.6385 67.4362 84.3542C71.7205 80.0699 74.1274 74.2591 74.1274 68.2001V36.8197C74.1274 35.5744 73.6327 34.3802 72.7522 33.4996C71.8716 32.6191 70.6773 32.1244 69.4321 32.1244H29.7983Z" fill="white"/>
<path d="M129.891 10.6598H4.6338C4.57518 10.6598 4.51896 10.6365 4.47751 10.5951C4.43606 10.5536 4.41278 10.4974 4.41278 10.4388C4.41278 10.3802 4.43606 10.324 4.47751 10.2825C4.51896 10.2411 4.57518 10.2178 4.6338 10.2178H129.891C129.949 10.2178 130.005 10.2411 130.047 10.2825C130.088 10.324 130.112 10.3802 130.112 10.4388C130.112 10.4974 130.088 10.5536 130.047 10.5951C130.005 10.6365 129.949 10.6598 129.891 10.6598Z" fill="#E6E6E6"/>
<path d="M10.9007 4.0249C11.933 4.0249 12.7698 3.16945 12.7698 2.1142C12.7698 1.05894 11.933 0.203491 10.9007 0.203491C9.86848 0.203491 9.03168 1.05894 9.03168 2.1142C9.03168 3.16945 9.86848 4.0249 10.9007 4.0249Z" fill="#E6E6E6"/>
<path d="M17.3574 4.0249C18.3896 4.0249 19.2264 3.16945 19.2264 2.1142C19.2264 1.05894 18.3896 0.203491 17.3574 0.203491C16.3251 0.203491 15.4883 1.05894 15.4883 2.1142C15.4883 3.16945 16.3251 4.0249 17.3574 4.0249Z" fill="#E6E6E6"/>
<path d="M23.8141 4.0249C24.8463 4.0249 25.6831 3.16945 25.6831 2.1142C25.6831 1.05894 24.8463 0.203491 23.8141 0.203491C22.7818 0.203491 21.945 1.05894 21.945 2.1142C21.945 3.16945 22.7818 4.0249 23.8141 4.0249Z" fill="#E6E6E6"/>
<path d="M31.1766 3.62402C31.1471 3.62406 31.118 3.61819 31.0908 3.60678C31.0637 3.59536 31.0391 3.57862 31.0186 3.55754L29.7574 2.26835C29.717 2.22707 29.6944 2.17159 29.6944 2.11382C29.6944 2.05604 29.717 2.00056 29.7574 1.95928L31.0186 0.670193C31.0388 0.649116 31.063 0.632254 31.0898 0.620584C31.1165 0.608914 31.1454 0.602666 31.1746 0.602201C31.2038 0.601736 31.2328 0.607064 31.2599 0.617876C31.287 0.628688 31.3118 0.644769 31.3326 0.665191C31.3535 0.685613 31.3701 0.709971 31.3815 0.736856C31.3929 0.763741 31.3989 0.79262 31.3991 0.821825C31.3993 0.85103 31.3937 0.879982 31.3826 0.907006C31.3715 0.93403 31.3552 0.958589 31.3346 0.979267L30.2246 2.11381L31.3346 3.24846C31.365 3.27957 31.3856 3.31895 31.3937 3.36169C31.4018 3.40442 31.3972 3.44861 31.3803 3.48871C31.3634 3.52881 31.3351 3.56304 31.2989 3.58711C31.2626 3.61118 31.2201 3.62402 31.1766 3.62402Z" fill="#E6E6E6"/>
<path d="M33.2958 3.62402C33.2523 3.62402 33.2097 3.61118 33.1735 3.58711C33.1373 3.56304 33.1089 3.52881 33.0921 3.48871C33.0752 3.44861 33.0705 3.40442 33.0787 3.36168C33.0868 3.31895 33.1073 3.27957 33.1378 3.24846L34.2476 2.11381L33.1378 0.979267C33.1171 0.958589 33.1008 0.934027 33.0898 0.907003C33.0787 0.879978 33.0731 0.851026 33.0732 0.821821C33.0734 0.792616 33.0794 0.763738 33.0908 0.736853C33.1022 0.709967 33.1188 0.68561 33.1397 0.665188C33.1606 0.644766 33.1853 0.628684 33.2124 0.617873C33.2396 0.607061 33.2686 0.601736 33.2978 0.602201C33.327 0.602666 33.3558 0.608914 33.3826 0.620584C33.4093 0.632254 33.4335 0.649113 33.4538 0.670189L34.7148 1.95927C34.7552 2.00056 34.7778 2.05604 34.7778 2.11381C34.7778 2.17159 34.7552 2.22707 34.7148 2.26835L33.4538 3.55754C33.4332 3.57862 33.4086 3.59536 33.3815 3.60678C33.3544 3.6182 33.3252 3.62406 33.2958 3.62402Z" fill="#E6E6E6"/>
<path d="M118.721 0.4245H116.376C116.312 0.424481 116.249 0.436989 116.191 0.461307C116.132 0.485624 116.079 0.521277 116.034 0.566227C115.989 0.611177 115.953 0.664541 115.929 0.723275C115.904 0.782008 115.892 0.844958 115.892 0.908527V3.25572C115.892 3.31929 115.904 3.38224 115.929 3.44097C115.953 3.49971 115.989 3.55308 116.034 3.59802C116.079 3.64297 116.132 3.67863 116.191 3.70294C116.249 3.72726 116.312 3.73977 116.376 3.73975H118.721C118.849 3.73987 118.973 3.68899 119.064 3.59825C119.155 3.50751 119.207 3.38433 119.207 3.25572V0.908527C119.207 0.779914 119.155 0.656733 119.064 0.565997C118.973 0.475261 118.849 0.424376 118.721 0.4245Z" fill="#E6E6E6"/>
<path d="M112.974 0.4245H110.629C110.566 0.424481 110.503 0.436989 110.444 0.461307C110.385 0.485624 110.332 0.521277 110.287 0.566227C110.242 0.611177 110.207 0.664541 110.182 0.723275C110.158 0.782008 110.145 0.844958 110.145 0.908527V3.25572C110.145 3.31929 110.158 3.38224 110.182 3.44097C110.207 3.49971 110.242 3.55308 110.287 3.59802C110.332 3.64297 110.385 3.67863 110.444 3.70294C110.503 3.72726 110.566 3.73977 110.629 3.73975H112.974C113.103 3.73987 113.226 3.68899 113.318 3.59825C113.409 3.50751 113.46 3.38433 113.461 3.25572V0.908527C113.46 0.779914 113.409 0.656733 113.318 0.565997C113.226 0.475261 113.103 0.424376 112.974 0.4245Z" fill="#E6E6E6"/>
<path d="M124.136 0.535279H121.791C121.727 0.535259 121.664 0.547768 121.605 0.572085C121.547 0.596403 121.493 0.632056 121.448 0.677006C121.403 0.721955 121.368 0.77532 121.344 0.834054C121.319 0.892787 121.307 0.955737 121.307 1.01931V3.3665C121.307 3.43007 121.319 3.49302 121.344 3.55175C121.368 3.61049 121.403 3.66385 121.448 3.7088C121.493 3.75375 121.547 3.78941 121.605 3.81372C121.664 3.83804 121.727 3.85055 121.791 3.85053H124.136C124.264 3.85065 124.388 3.79977 124.479 3.70903C124.57 3.61829 124.621 3.49511 124.622 3.3665V1.01931C124.621 0.890693 124.57 0.767512 124.479 0.676776C124.388 0.58604 124.264 0.535155 124.136 0.535279Z" fill="#E6E6E6"/>
<path d="M77.1088 3.97842H61.8586C61.3311 3.97842 60.8251 3.76885 60.4521 3.39581C60.079 3.02278 59.8695 2.51683 59.8695 1.98927C59.8695 1.46172 60.079 0.95577 60.4521 0.582732C60.8251 0.209694 61.3311 0.00012207 61.8586 0.00012207H77.1088C77.6363 0.00012207 78.1423 0.209694 78.5153 0.582732C78.8883 0.95577 79.0979 1.46172 79.0979 1.98927C79.0979 2.51683 78.8883 3.02278 78.5153 3.39581C78.1423 3.76885 77.6363 3.97842 77.1088 3.97842Z" fill="#E6E6E6"/>
<path d="M51.9992 70.1506H17.9643C17.7696 70.1506 17.5829 70.0733 17.4453 69.9356C17.3076 69.798 17.2303 69.6113 17.2303 69.4166C17.2303 69.222 17.3076 69.0353 17.4453 68.8977C17.5829 68.76 17.7696 68.6827 17.9643 68.6827H51.9992C52.1939 68.6827 52.3806 68.76 52.5182 68.8977C52.6559 69.0353 52.7332 69.222 52.7332 69.4166C52.7332 69.6113 52.6559 69.798 52.5182 69.9356C52.3806 70.0733 52.1939 70.1506 51.9992 70.1506Z" fill="#F2F2F2"/>
<path d="M51.9993 49.2154H0.73524C0.638748 49.2155 0.543167 49.1967 0.453972 49.1599C0.364776 49.1231 0.283715 49.069 0.215425 49.0008C0.147135 48.9327 0.092961 48.8517 0.0559961 48.7626C0.0190312 48.6734 0 48.5779 0 48.4814C0 48.3849 0.0190312 48.2894 0.0559961 48.2002C0.092961 48.1111 0.147135 48.0301 0.215425 47.962C0.283715 47.8938 0.364776 47.8398 0.453972 47.8029C0.543167 47.7661 0.638748 47.7473 0.73524 47.7474H51.9993C52.1937 47.7478 52.3801 47.8253 52.5175 47.9629C52.6548 48.1005 52.732 48.287 52.732 48.4814C52.732 48.6758 52.6548 48.8623 52.5175 48.9999C52.3801 49.1376 52.1937 49.215 51.9993 49.2154Z" fill="#F2F2F2"/>
<path d="M52.0004 54.4563H0.734173C0.539583 54.4566 0.353082 54.5342 0.215605 54.6719C0.0781288 54.8096 0.000915527 54.9962 0.000915527 55.1908C0.000915527 55.3854 0.0781288 55.5721 0.215605 55.7098C0.353082 55.8475 0.539583 55.925 0.734173 55.9254H52.0004C52.195 55.925 52.3815 55.8475 52.5189 55.7098C52.6564 55.5721 52.7336 55.3854 52.7336 55.1908C52.7336 54.9962 52.6564 54.8096 52.5189 54.6719C52.3815 54.5342 52.195 54.4566 52.0004 54.4563Z" fill="#F2F2F2"/>
<path d="M51.9994 62.6354H0.735308C0.540649 62.6354 0.353961 62.5581 0.216316 62.4204C0.0786708 62.2828 0.00134277 62.0961 0.00134277 61.9014C0.00134277 61.7068 0.0786708 61.5201 0.216316 61.3825C0.353961 61.2448 0.540649 61.1675 0.735308 61.1675H51.9994C52.194 61.1675 52.3807 61.2448 52.5183 61.3825C52.656 61.5201 52.7333 61.7068 52.7333 61.9014C52.7333 62.0961 52.656 62.2828 52.5183 62.4204C52.3807 62.5581 52.194 62.6354 51.9994 62.6354Z" fill="#F2F2F2"/>
<path d="M95.1669 121.275L92.8133 121.275L91.6939 112.197L95.1674 112.197L95.1669 121.275Z" fill="#A0616A"/>
<path d="M95.2498 123.73L88.0124 123.73V123.638C88.0125 122.891 88.3093 122.175 88.8376 121.647C89.3658 121.118 90.0823 120.822 90.8294 120.822L92.1516 119.819L94.6181 120.822L95.2499 120.822L95.2498 123.73Z" fill="#2F2E41"/>
<path d="M118.847 121.275L116.494 121.275L115.374 112.197L118.848 112.197L118.847 121.275Z" fill="#A0616A"/>
<path d="M118.93 123.73L111.693 123.73V123.638C111.693 122.891 111.99 122.175 112.518 121.647C113.046 121.118 113.763 120.822 114.51 120.822L115.832 119.819L118.299 120.822L118.93 120.822L118.93 123.73Z" fill="#2F2E41"/>
<path d="M97.0872 69.1225C97.0872 69.1225 95.5416 70.7629 95.4763 71.8271C95.411 72.8914 96.2165 70.9583 95.411 72.8914C94.6056 74.8245 94.6056 73.5357 94.6056 74.8245C94.6056 76.1132 92.8988 77.3716 92.8988 77.3716L90.0844 88.9512L91.7059 116.064H95.2499C98.5435 106.024 100.076 98.2716 98.3107 94.7999L103.232 83.8606C103.232 83.8606 112.532 112.962 112.912 113.305C113.292 113.648 113.292 113.164 113.292 113.648C113.292 114.131 112.809 113.648 113.292 114.131L115.548 116.386L118.93 116.064C118.93 116.064 119.383 94.9945 115.613 91.3532C115.613 91.3532 116.484 80.0772 115.613 80.1089C114.742 80.1405 114.742 81.5903 114.742 80.1405C114.742 78.6907 115.774 78.3038 115.774 78.3038L112.874 68.12L97.0872 69.1225Z" fill="#2F2E41"/>
<path d="M115.348 46.6754L112.073 60.3895L112.846 65.4905L113.774 71.6016L110.565 71.3939L105.599 71.0712L96.3782 70.4745L95.5715 43.411L99.8018 38.9907L100.558 36.8446L106.673 36.807L108.136 39.3841L111.898 40.4538C112.382 40.7606 112.836 41.1113 113.255 41.5014C114.183 42.3612 115.006 43.453 115.39 44.5713C115.506 44.8972 115.58 45.2367 115.609 45.5814L115.348 46.6754Z" fill="#E6E6E6"/>
<path d="M86.8816 81.4717C87.1281 81.3355 87.342 81.1474 87.5085 80.9204C87.6751 80.6934 87.7904 80.4329 87.8464 80.157C87.9024 79.881 87.8978 79.5962 87.833 79.3222C87.7681 79.0482 87.6444 78.7916 87.4706 78.5701L92.1356 70.0774L90.1037 68.2095L84.6369 78.337C84.2858 78.6573 84.0644 79.0952 84.0146 79.5679C83.9649 80.0405 84.0902 80.515 84.3669 80.9014C84.6436 81.2878 85.0524 81.5593 85.5159 81.6644C85.9794 81.7695 86.4653 81.7009 86.8816 81.4717Z" fill="#E6E6E6"/>
<path d="M98.2595 41.7563L97.1721 61.2355L91.9334 73.4769L88.5237 77.9986L88.9113 75.9497L86.561 74.7737L86.3403 74.6642L90.8525 57.1535L91.2681 50.3489C91.3398 49.178 91.6537 48.0346 92.1899 46.9912C92.7262 45.9477 93.4732 45.027 94.3836 44.287L96.9933 42.1671L98.2595 41.7563Z" fill="#E6E6E6"/>
<path d="M86.8816 81.4717C87.1281 81.3355 87.342 81.1474 87.5085 80.9204C87.6751 80.6934 87.7904 80.4329 87.8464 80.157C87.9024 79.881 87.8978 79.5962 87.833 79.3222C87.7681 79.0482 87.6444 78.7916 87.4706 78.5701L92.1356 70.0774L90.1037 68.2095L84.6369 78.337C84.2858 78.6573 84.0644 79.0952 84.0146 79.5679C83.9649 80.0405 84.0902 80.515 84.3669 80.9014C84.6436 81.2878 85.0524 81.5593 85.5159 81.6644C85.9794 81.7695 86.4653 81.7009 86.8816 81.4717Z" fill="#A0616A"/>
<path d="M98.2595 41.7563L97.1721 61.2355L91.9334 73.4769L88.5237 77.9986L88.9113 75.9497L86.561 74.7737L86.3403 74.6642L90.8525 57.1535L91.2681 50.3489C91.3398 49.178 91.6537 48.0346 92.1899 46.9912C92.7262 45.9477 93.4732 45.027 94.3836 44.287L96.9933 42.1671L98.2595 41.7563Z" fill="#E6E6E6"/>
<path d="M103.309 42.428H53.1393C49.8749 42.428 47.2285 45.0744 47.2285 48.3389V74.2204C47.2285 77.4849 49.8749 80.1313 53.1393 80.1313H103.309C106.573 80.1313 109.219 77.4849 109.219 74.2204V48.3389C109.219 45.0744 106.573 42.428 103.309 42.428Z" fill="white"/>
<path d="M103.309 80.3523H53.1393C51.5136 80.3505 49.955 79.7039 48.8054 78.5543C47.6559 77.4047 47.0093 75.8461 47.0074 74.2204V48.3388C47.0093 46.7131 47.6559 45.1545 48.8054 44.0049C49.955 42.8554 51.5136 42.2088 53.1393 42.2069H103.309C104.934 42.2088 106.493 42.8554 107.642 44.005C108.792 45.1545 109.439 46.7131 109.44 48.3388V74.2204C109.439 75.8461 108.792 77.4047 107.642 78.5543C106.493 79.7038 104.934 80.3505 103.309 80.3523ZM53.1393 42.6489C51.6303 42.6489 50.183 43.2484 49.116 44.3155C48.0489 45.3825 47.4494 46.8298 47.4494 48.3388V58.0127C47.4494 63.8203 49.7565 69.39 53.8631 73.4966C57.9697 77.6032 63.5395 79.9103 69.3471 79.9103H103.309C104.818 79.9103 106.265 79.3109 107.332 78.2438C108.399 77.1768 108.998 75.7296 108.998 74.2205V48.3388C108.998 47.5916 108.851 46.8517 108.565 46.1614C108.279 45.4711 107.86 44.8438 107.332 44.3155C106.803 43.7871 106.176 43.368 105.486 43.0821C104.796 42.7961 104.056 42.6489 103.308 42.6489L53.1393 42.6489Z" fill="#3F3D56"/>
<path d="M66.3995 69.8995H54.6856C54.2584 69.8995 53.912 70.2458 53.912 70.673C53.912 71.1003 54.2584 71.4466 54.6856 71.4466H66.3995C66.8267 71.4466 67.173 71.1003 67.173 70.673C67.173 70.2458 66.8267 69.8995 66.3995 69.8995Z" fill="#232334"/>
<path d="M101.762 67.7995H93.5845C93.1573 67.7995 92.811 68.1458 92.811 68.5731V72.7724C92.811 73.1996 93.1573 73.5459 93.5845 73.5459H101.762C102.189 73.5459 102.536 73.1996 102.536 72.7724V68.5731C102.536 68.1458 102.189 67.7995 101.762 67.7995Z" fill="#232334"/>
<path d="M57.8903 56.97C60.0875 56.97 61.8686 55.1889 61.8686 52.9917C61.8686 50.7946 60.0875 49.0134 57.8903 49.0134C55.6932 49.0134 53.912 50.7946 53.912 52.9917C53.912 55.1889 55.6932 56.97 57.8903 56.97Z" fill="#232334"/>
<path d="M103.392 35.6679C106.151 35.6679 108.387 33.4314 108.387 30.6725C108.387 27.9137 106.151 25.6772 103.392 25.6772C100.633 25.6772 98.3967 27.9137 98.3967 30.6725C98.3967 33.4314 100.633 35.6679 103.392 35.6679Z" fill="#A0616A"/>
<path d="M107.49 33.2547C107.529 33.5532 106.989 33.5847 106.867 33.3095C106.746 33.0342 106.904 32.7223 107.057 32.4634L107.413 31.8625C107.48 31.7494 107.52 31.6218 107.527 31.4905C107.535 31.3591 107.512 31.2278 107.458 31.1075C107.405 30.9872 107.324 30.8813 107.222 30.7987C107.119 30.7162 106.998 30.6593 106.87 30.6328C107.196 29.8994 106.842 28.9841 106.192 28.5129C105.542 28.0417 104.576 28.9233 103.788 29.0745C102.999 29.2257 102.368 28.6225 101.65 28.9801L102.082 27.9851L99.6924 29.0144L100.247 27.8951C99.6445 27.9279 99.3878 28.6623 99.2676 29.2542C99.1396 29.8847 98.8037 30.673 98.1182 30.5423C97.9556 30.5061 97.8066 30.4246 97.6882 30.3074C97.5699 30.1902 97.4871 30.0419 97.4493 29.8797C96.9197 27.8373 98.4575 25.6044 100.496 25.2462C100.714 24.6443 101.119 24.128 101.652 23.773C102.185 23.418 102.817 23.2428 103.457 23.2733C104.096 23.3037 104.709 23.5381 105.206 23.9422C105.702 24.3462 106.056 24.8987 106.216 25.5186L106.885 24.7002L107.015 25.8597C107.495 25.8087 107.949 26.1478 108.182 26.5707C108.416 26.9936 108.306 27.5396 108.53 27.9675C109.534 29.8852 109.202 32.0442 107.651 33.5151" fill="#2F2E41"/>
<path d="M125.01 120.387C125.113 120.392 125.215 120.365 125.302 120.31C125.389 120.255 125.456 120.175 125.496 120.08C125.536 119.985 125.545 119.88 125.523 119.78C125.502 119.679 125.449 119.588 125.374 119.518L125.339 119.381C125.344 119.37 125.349 119.359 125.353 119.348C125.457 119.104 125.63 118.896 125.852 118.749C126.073 118.603 126.333 118.526 126.598 118.527C126.864 118.528 127.123 118.607 127.344 118.755C127.564 118.903 127.736 119.112 127.838 119.358C128.244 120.336 128.761 121.317 128.889 122.352C128.945 122.809 128.921 123.273 128.819 123.722C129.773 121.64 130.269 119.377 130.272 117.087C130.272 116.512 130.24 115.938 130.176 115.367C130.124 114.899 130.05 114.434 129.957 113.972C129.445 111.468 128.347 109.12 126.752 107.123C125.98 106.702 125.356 106.054 124.963 105.267C124.821 104.984 124.72 104.682 124.665 104.371C124.752 104.382 124.993 103.056 124.927 102.974C125.049 102.79 125.266 102.699 125.398 102.519C126.058 101.625 126.966 101.781 127.44 102.996C128.453 103.507 128.462 104.355 127.841 105.17C127.446 105.689 127.391 106.391 127.044 106.946C127.08 106.992 127.117 107.036 127.153 107.081C127.805 107.92 128.374 108.821 128.851 109.771C128.735 108.707 128.873 107.63 129.254 106.63C129.641 105.698 130.365 104.913 131.003 104.107C131.171 103.891 131.4 103.729 131.661 103.643C131.921 103.557 132.202 103.55 132.466 103.623C132.731 103.696 132.968 103.845 133.147 104.053C133.327 104.26 133.44 104.517 133.474 104.789C133.476 104.801 133.477 104.813 133.478 104.825C133.383 104.878 133.291 104.935 133.2 104.995C133.086 105.071 132.998 105.18 132.947 105.307C132.896 105.434 132.884 105.574 132.914 105.708C132.943 105.841 133.013 105.963 133.113 106.057C133.213 106.151 133.339 106.212 133.474 106.233L133.488 106.235C133.454 106.576 133.395 106.915 133.31 107.247C134.128 110.411 132.362 111.563 129.839 111.615C129.784 111.644 129.73 111.672 129.674 111.699C130.153 113.057 130.453 114.47 130.568 115.905C130.632 116.751 130.628 117.602 130.556 118.447L130.56 118.417C130.743 117.477 131.245 116.628 131.981 116.015C133.074 115.117 134.618 114.786 135.797 114.065C135.923 113.984 136.068 113.941 136.217 113.941C136.366 113.94 136.512 113.983 136.638 114.062C136.764 114.142 136.864 114.256 136.927 114.391C136.99 114.526 137.013 114.677 136.993 114.824L136.988 114.856C136.813 114.927 136.642 115.01 136.476 115.103C136.381 115.156 136.289 115.213 136.198 115.273C136.084 115.349 135.996 115.458 135.944 115.585C135.893 115.712 135.882 115.852 135.912 115.986C135.941 116.12 136.011 116.241 136.111 116.335C136.211 116.429 136.337 116.49 136.472 116.511L136.486 116.513C136.496 116.514 136.505 116.516 136.515 116.517C136.214 117.234 135.793 117.895 135.268 118.469C134.757 121.231 132.56 121.493 130.209 120.689H130.208C129.95 121.809 129.576 122.9 129.093 123.943H125.11C125.096 123.899 125.083 123.853 125.07 123.809C125.439 123.832 125.809 123.81 126.172 123.743C125.877 123.381 125.581 123.015 125.286 122.653C125.279 122.646 125.273 122.639 125.267 122.631C125.117 122.446 124.966 122.262 124.816 122.076L124.816 122.076C124.808 121.507 124.873 120.939 125.01 120.387Z" fill="#F2F2F2"/>
<path d="M63.4459 123.955C63.4458 123.99 63.4525 124.024 63.4657 124.056C63.4788 124.088 63.4982 124.117 63.5227 124.141C63.5471 124.166 63.5761 124.185 63.6081 124.198C63.6401 124.212 63.6743 124.218 63.7089 124.218H136.708C136.778 124.218 136.845 124.19 136.894 124.141C136.944 124.092 136.971 124.025 136.971 123.955C136.971 123.885 136.944 123.818 136.894 123.769C136.845 123.72 136.778 123.692 136.708 123.692H63.7089C63.6743 123.692 63.64 123.699 63.6081 123.712C63.5761 123.725 63.5471 123.744 63.5227 123.769C63.4982 123.793 63.4788 123.822 63.4657 123.854C63.4525 123.886 63.4458 123.921 63.4459 123.955Z" fill="#CCCCCC"/>
<path d="M105.52 80.2896C105.761 80.1447 105.968 79.9492 106.127 79.7164C106.285 79.4836 106.391 79.2192 106.437 78.9415C106.483 78.6637 106.469 78.3792 106.394 78.1077C106.319 77.8362 106.187 77.5842 106.005 77.369L110.365 68.7158L108.269 66.9213L103.165 77.2367C102.825 77.5692 102.62 78.0148 102.587 78.4889C102.554 78.963 102.696 79.4327 102.986 79.809C103.276 80.1853 103.695 80.4421 104.162 80.5307C104.629 80.6193 105.112 80.5335 105.52 80.2896Z" fill="#A0616A"/>
<path d="M115.39 44.5713L115.609 45.5814L115.085 59.6999L112.846 65.4905L110.565 71.3939L110.284 72.121L107.038 76.7602L107.352 74.6981L104.96 73.6063L104.737 73.5068L105.599 71.0712L107.581 65.4751L108.439 63.0527L108.625 55.8454L108.797 49.0314C108.827 47.8587 109.1 46.705 109.599 45.6432C110.097 44.5814 110.811 43.6347 111.695 42.8629L113.255 41.5014C114.183 42.3612 115.005 43.453 115.39 44.5713Z" fill="#E6E6E6"/>
<path d="M63.228 79.8419L52.8672 79.6209C51.5783 79.619 50.3429 79.106 49.4317 78.1945C48.5205 77.283 48.008 76.0473 48.0065 74.7585L47.5645 63.926C48.8367 72.7574 53.7255 78.3595 63.228 79.8419Z" fill="#232334"/>
</svg>
