<svg width="132" height="111" viewBox="0 0 132 111" fill="none" xmlns="http://www.w3.org/2000/svg">
<path d="M54.39 25.9212H53.7907V9.50253C53.7907 8.25461 53.5449 7.01891 53.0673 5.86599C52.5898 4.71307 51.8898 3.6655 51.0074 2.78309C50.125 1.90068 49.0774 1.20071 47.9245 0.723159C46.7715 0.245605 45.5359 -0.00018701 44.2879 -0.000183105H9.50273C8.25481 -0.00018701 7.01911 0.245605 5.86619 0.723159C4.71326 1.20071 3.66569 1.90068 2.78328 2.78309C1.90087 3.6655 1.2009 4.71307 0.723347 5.86599C0.245791 7.01892 -1.95208e-06 8.25461 0 9.50253V99.5768C-1.17125e-06 100.825 0.245793 102.06 0.723349 103.213C1.20091 104.366 1.90087 105.414 2.78328 106.296C3.66569 107.179 4.71326 107.879 5.86619 108.356C7.01911 108.834 8.25481 109.079 9.50273 109.079H44.2879C45.5359 109.079 46.7715 108.834 47.9245 108.356C49.0774 107.879 50.125 107.179 51.0074 106.296C51.8898 105.414 52.5898 104.366 53.0673 103.213C53.5449 102.06 53.7907 100.825 53.7907 99.5768V37.6083H54.39V25.9212Z" fill="#E6E6E6"/>
<path d="M44.6714 2.47198H40.1308C40.3396 2.98392 40.4193 3.53936 40.3629 4.08936C40.3064 4.63936 40.1156 5.16704 39.8072 5.62593C39.4988 6.08482 39.0823 6.46082 38.5944 6.72081C38.1064 6.98081 37.5621 7.11682 37.0092 7.11686H17.0812C16.5283 7.11682 15.9839 6.98081 15.4959 6.72081C15.008 6.46082 14.5915 6.08482 14.2831 5.62593C13.9747 5.16704 13.7839 4.63936 13.7275 4.08936C13.6711 3.53936 13.7508 2.98392 13.9596 2.47198H9.71862C8.78669 2.47198 7.86389 2.65554 7.0029 3.01217C6.14191 3.3688 5.3596 3.89153 4.70063 4.5505C4.04165 5.20947 3.51893 5.99178 3.1623 6.85277C2.80566 7.71376 2.6221 8.63656 2.6221 9.56848V99.5106C2.6221 100.443 2.80566 101.365 3.16229 102.226C3.51893 103.087 4.04165 103.87 4.70062 104.529C5.3596 105.188 6.14191 105.71 7.0029 106.067C7.86389 106.424 8.78669 106.607 9.71862 106.607H44.6714C45.6033 106.607 46.5261 106.424 47.3871 106.067C48.2481 105.71 49.0304 105.188 49.6894 104.529C50.3484 103.87 50.8711 103.087 51.2277 102.226C51.5843 101.365 51.7679 100.443 51.7679 99.5106V9.56848C51.7679 8.63656 51.5843 7.71376 51.2277 6.85277C50.8711 5.99178 50.3483 5.20947 49.6894 4.5505C49.0304 3.89153 48.2481 3.3688 47.3871 3.01217C46.5261 2.65554 45.6033 2.47198 44.6714 2.47198Z" fill="white"/>
<path d="M16.8974 20.7562H14.8104C14.7371 20.7562 14.6667 20.7853 14.6148 20.8372C14.5629 20.8891 14.5338 20.9595 14.5338 21.0328V21.9489C14.5338 22.0222 14.5629 22.0926 14.6148 22.1445C14.6667 22.1964 14.7371 22.2255 14.8104 22.2255H15.1563V23.598H16.5515V22.2255H16.8974C16.9707 22.2255 17.0411 22.1964 17.093 22.1445C17.1449 22.0926 17.174 22.0222 17.174 21.9489V21.0328C17.174 20.9595 17.1449 20.8891 17.093 20.8372C17.0411 20.7853 16.9707 20.7562 16.8974 20.7562Z" fill="#E6E6E6"/>
<path d="M18.9875 29.1396C17.7094 27.2694 17.0561 25.0426 17.121 22.7784C17.1221 22.7261 17.1052 22.6751 17.073 22.6339C17.0408 22.5927 16.9953 22.564 16.9444 22.5525V22.1567H14.7403V22.547H14.7099C14.6499 22.5471 14.5924 22.571 14.5501 22.6135C14.5077 22.656 14.484 22.7135 14.4841 22.7735C14.4841 22.779 14.4843 22.7845 14.4847 22.79C14.6583 25.2104 14.072 27.3811 12.7257 29.3019C12.6482 29.4123 12.6086 29.5448 12.6129 29.6796L12.8539 37.1345C12.8597 37.3008 12.9294 37.4584 13.0487 37.5745C13.1679 37.6906 13.3273 37.7561 13.4937 37.7574H18.479C18.6472 37.756 18.8083 37.689 18.9279 37.5706C19.0475 37.4522 19.1161 37.2918 19.1192 37.1236L19.2121 29.8854C19.2148 29.6198 19.1365 29.3596 18.9875 29.1396Z" fill="#E6E6E6"/>
<path d="M18.1985 31.6157H13.8592C13.7949 31.6157 13.7315 31.6296 13.6731 31.6564C13.6147 31.6832 13.5629 31.7223 13.521 31.7711C13.4792 31.8198 13.4484 31.8771 13.4308 31.9388C13.4132 32.0006 13.4091 32.0654 13.4188 32.1289L14.0746 36.3911H17.8399L18.6363 32.1433C18.6484 32.0789 18.6461 32.0127 18.6297 31.9494C18.6133 31.886 18.5831 31.827 18.5413 31.7766C18.4995 31.7263 18.4471 31.6857 18.3878 31.6579C18.3286 31.6301 18.2639 31.6157 18.1985 31.6157Z" fill="white"/>
<path d="M40.1288 43.0883H38.0419C37.9685 43.0883 37.8981 43.1175 37.8462 43.1694C37.7943 43.2212 37.7652 43.2916 37.7652 43.365V44.281C37.7652 44.3544 37.7943 44.4248 37.8462 44.4767C37.8981 44.5285 37.9685 44.5577 38.0419 44.5577H38.3877V45.9302H39.7829V44.5577H40.1288C40.2022 44.5577 40.2725 44.5285 40.3244 44.4767C40.3763 44.4248 40.4055 44.3544 40.4055 44.281V43.365C40.4055 43.2916 40.3763 43.2212 40.3244 43.1694C40.2725 43.1175 40.2022 43.0883 40.1288 43.0883Z" fill="#E6E6E6"/>
<path d="M42.219 51.4717C40.9409 49.6015 40.2875 47.3748 40.3524 45.1105C40.3536 45.0583 40.3366 45.0072 40.3044 44.9661C40.2722 44.9249 40.2268 44.8962 40.1758 44.8847V44.4889H37.9717V44.8792H37.9414C37.9117 44.8792 37.8823 44.8851 37.8548 44.8965C37.8274 44.9079 37.8025 44.9246 37.7815 44.9456C37.7606 44.9667 37.7439 44.9916 37.7326 45.0191C37.7213 45.0465 37.7155 45.0759 37.7155 45.1056C37.7155 45.1111 37.7157 45.1166 37.7161 45.1221C37.8898 47.5426 37.3034 49.7132 35.9571 51.6341C35.8796 51.7444 35.8401 51.877 35.8443 52.0118L36.0853 59.4667C36.0911 59.633 36.1609 59.7906 36.2801 59.9067C36.3993 60.0227 36.5588 60.0882 36.7251 60.0896H41.7104C41.8787 60.0882 42.0398 60.0212 42.1594 59.9028C42.2789 59.7844 42.3476 59.624 42.3506 59.4557L42.4435 52.2176C42.4463 51.9519 42.3679 51.6917 42.219 51.4717Z" fill="#E6E6E6"/>
<path d="M41.4299 53.9478H37.0906C37.0264 53.9478 36.9629 53.9617 36.9045 53.9885C36.8462 54.0154 36.7943 54.0545 36.7525 54.1032C36.7106 54.152 36.6799 54.2092 36.6622 54.271C36.6446 54.3327 36.6405 54.3976 36.6503 54.4611L37.306 58.7233H41.0713L41.8677 54.4754C41.8798 54.4111 41.8775 54.3449 41.8611 54.2815C41.8447 54.2181 41.8145 54.1592 41.7727 54.1088C41.7309 54.0584 41.6785 54.0179 41.6192 53.9901C41.56 53.9622 41.4953 53.9478 41.4299 53.9478Z" fill="white"/>
<path d="M13.9632 74.6595H12.9733C12.9385 74.6595 12.9051 74.6733 12.8805 74.6979C12.8559 74.7225 12.8421 74.7559 12.8421 74.7907V75.2252C12.8421 75.26 12.8559 75.2934 12.8805 75.318C12.9051 75.3426 12.9385 75.3565 12.9733 75.3565H13.1374V76.0075H13.7992V75.3565H13.9632C13.998 75.3565 14.0314 75.3426 14.056 75.318C14.0807 75.2934 14.0945 75.26 14.0945 75.2252V74.7907C14.0945 74.7559 14.0807 74.7225 14.056 74.6979C14.0314 74.6733 13.998 74.6595 13.9632 74.6595Z" fill="#E6E6E6"/>
<path d="M14.9547 78.6359C14.3485 77.7488 14.0385 76.6925 14.0693 75.6185C14.0699 75.5937 14.0618 75.5695 14.0466 75.5499C14.0313 75.5304 14.0097 75.5168 13.9856 75.5114V75.3236H12.9401V75.5087H12.9257C12.9116 75.5088 12.8976 75.5116 12.8846 75.517C12.8716 75.5224 12.8598 75.5303 12.8498 75.5403C12.8399 75.5502 12.832 75.5621 12.8266 75.5751C12.8213 75.5881 12.8185 75.6021 12.8185 75.6162C12.8185 75.6188 12.8186 75.6214 12.8188 75.624C12.9153 76.7199 12.6196 77.8146 11.9844 78.7129C11.9477 78.7652 11.9289 78.8281 11.9309 78.892L12.0452 82.4283C12.048 82.5071 12.0811 82.5819 12.1376 82.637C12.1942 82.692 12.2698 82.7231 12.3487 82.7237H14.7135C14.7933 82.7231 14.8697 82.6913 14.9264 82.6351C14.9832 82.579 15.0157 82.5029 15.0172 82.4231L15.0612 78.9897C15.0625 78.8637 15.0254 78.7402 14.9547 78.6359Z" fill="#E6E6E6"/>
<path d="M14.6146 79.9359H12.3582V81.0641H14.6146V79.9359Z" fill="white"/>
<path d="M18.5714 74.6595H17.5815C17.5467 74.6595 17.5133 74.6733 17.4887 74.6979C17.4641 74.7225 17.4503 74.7559 17.4503 74.7907V75.2252C17.4503 75.26 17.4641 75.2934 17.4887 75.318C17.5133 75.3426 17.5467 75.3565 17.5815 75.3565H17.7455V76.0075H18.4074V75.3565H18.5714C18.6062 75.3565 18.6396 75.3426 18.6642 75.318C18.6888 75.2934 18.7027 75.26 18.7027 75.2252V74.7907C18.7027 74.7559 18.6888 74.7225 18.6642 74.6979C18.6396 74.6733 18.6062 74.6595 18.5714 74.6595Z" fill="#E6E6E6"/>
<path d="M19.5629 78.6359C18.9567 77.7488 18.6467 76.6925 18.6775 75.6185C18.6781 75.5937 18.67 75.5695 18.6548 75.5499C18.6395 75.5304 18.6179 75.5168 18.5937 75.5114V75.3236H17.5483V75.5087H17.5338C17.5198 75.5088 17.5058 75.5116 17.4928 75.517C17.4798 75.5224 17.468 75.5303 17.458 75.5403C17.4481 75.5502 17.4402 75.5621 17.4348 75.5751C17.4294 75.5881 17.4267 75.6021 17.4267 75.6162C17.4267 75.6188 17.4268 75.6214 17.427 75.624C17.5235 76.7199 17.2278 77.8146 16.5926 78.7129C16.5559 78.7652 16.5371 78.8281 16.5391 78.892L16.6534 82.4283C16.6562 82.5071 16.6893 82.5819 16.7458 82.637C16.8024 82.692 16.878 82.7231 16.9569 82.7237H19.3217C19.4015 82.7231 19.4779 82.6913 19.5346 82.6351C19.5914 82.579 19.6239 82.5029 19.6254 82.4231L19.6694 78.9897C19.6707 78.8637 19.6336 78.7402 19.5629 78.6359Z" fill="#E6E6E6"/>
<path d="M19.2225 79.9359H16.9662V81.0641H19.2225V79.9359Z" fill="white"/>
<path d="M23.1796 74.6595H22.1897C22.1549 74.6595 22.1215 74.6733 22.0969 74.6979C22.0723 74.7225 22.0584 74.7559 22.0584 74.7907V75.2252C22.0584 75.26 22.0723 75.2934 22.0969 75.318C22.1215 75.3426 22.1549 75.3565 22.1897 75.3565H22.3537V76.0075H23.0156V75.3565H23.1796C23.2144 75.3565 23.2478 75.3426 23.2724 75.318C23.297 75.2934 23.3109 75.26 23.3109 75.2252V74.7907C23.3109 74.7559 23.297 74.7225 23.2724 74.6979C23.2478 74.6733 23.2144 74.6595 23.1796 74.6595Z" fill="#E6E6E6"/>
<path d="M24.1711 78.6359C23.5648 77.7488 23.2549 76.6925 23.2857 75.6185C23.2863 75.5937 23.2782 75.5695 23.2629 75.5499C23.2477 75.5304 23.2261 75.5168 23.2019 75.5114V75.3236H22.1564V75.5087H22.142C22.1279 75.5088 22.114 75.5116 22.101 75.517C22.088 75.5224 22.0762 75.5303 22.0662 75.5403C22.0563 75.5502 22.0484 75.5621 22.043 75.5751C22.0376 75.5881 22.0349 75.6021 22.0349 75.6162C22.0349 75.6188 22.035 75.6214 22.0352 75.624C22.1317 76.7199 21.836 77.8146 21.2008 78.7129C21.1641 78.7652 21.1453 78.8281 21.1473 78.892L21.2616 82.4283C21.2644 82.5071 21.2975 82.5819 21.354 82.637C21.4106 82.692 21.4862 82.7231 21.5651 82.7237H23.9299C24.0097 82.7231 24.0861 82.6913 24.1428 82.6351C24.1995 82.579 24.2321 82.5029 24.2335 82.4231L24.2776 78.9897C24.2789 78.8637 24.2418 78.7402 24.1711 78.6359Z" fill="#E6E6E6"/>
<path d="M23.8307 79.9359H21.5744V81.0641H23.8307V79.9359Z" fill="white"/>
<path d="M36.5033 66.0201H34.4164C34.38 66.0201 34.3441 66.0273 34.3105 66.0412C34.2769 66.0551 34.2464 66.0755 34.2207 66.1012C34.195 66.1269 34.1746 66.1574 34.1607 66.1909C34.1468 66.2245 34.1397 66.2605 34.1397 66.2968V67.2128C34.1397 67.2862 34.1688 67.3566 34.2207 67.4085C34.2726 67.4604 34.343 67.4895 34.4164 67.4895H34.7622V68.862H36.1575V67.4895H36.5033C36.5767 67.4895 36.647 67.4604 36.6989 67.4085C36.7508 67.3566 36.78 67.2862 36.78 67.2128V66.2968C36.78 66.2605 36.7728 66.2245 36.7589 66.1909C36.745 66.1574 36.7246 66.1269 36.6989 66.1012C36.6732 66.0755 36.6427 66.0551 36.6092 66.0412C36.5756 66.0273 36.5396 66.0201 36.5033 66.0201Z" fill="#E6E6E6"/>
<path d="M38.5935 74.4035C37.3154 72.5333 36.662 70.3065 36.7269 68.0423C36.7281 67.99 36.7111 67.939 36.6789 67.8978C36.6467 67.8567 36.6013 67.8279 36.5503 67.8165V67.4207H34.3462V67.811H34.3159C34.2862 67.811 34.2568 67.8169 34.2294 67.8283C34.2019 67.8397 34.177 67.8564 34.156 67.8774C34.1351 67.8984 34.1184 67.9234 34.1071 67.9508C34.0958 67.9783 34.09 68.0077 34.09 68.0374C34.09 68.0429 34.0902 68.0484 34.0906 68.0539C34.2643 70.4744 33.6779 72.645 32.3316 74.5658C32.2541 74.6762 32.2146 74.8087 32.2188 74.9435L32.4598 82.3985C32.4656 82.5647 32.5354 82.7224 32.6546 82.8384C32.7738 82.9545 32.9333 83.02 33.0997 83.0213H38.0849C38.2532 83.02 38.4143 82.9529 38.5339 82.8345C38.6535 82.7161 38.7221 82.5557 38.7251 82.3875L38.818 75.1493C38.8208 74.8837 38.7424 74.6235 38.5935 74.4035Z" fill="#E6E6E6"/>
<path d="M37.8044 76.8796H33.4651C33.4009 76.8796 33.3374 76.8935 33.279 76.9203C33.2207 76.9472 33.1688 76.9863 33.127 77.0351C33.0852 77.0838 33.0544 77.141 33.0367 77.2028C33.0191 77.2646 33.015 77.3294 33.0248 77.3929L33.6805 81.6551H37.4458L38.2423 77.4072C38.2543 77.3429 38.2521 77.2767 38.2356 77.2133C38.2192 77.15 38.189 77.091 38.1472 77.0406C38.1054 76.9903 38.053 76.9497 37.9938 76.9219C37.9345 76.8941 37.8698 76.8796 37.8044 76.8796Z" fill="white"/>
<path d="M37.6426 38.7168H25.2025C26.0722 34.0145 25.8721 28.3364 25.2025 22.2299H37.6426C36.9907 28.3364 36.7959 34.0145 37.6426 38.7168Z" fill="#E6E6E6"/>
<path d="M31.4974 33.0216C33.153 33.0216 34.495 31.6796 34.495 30.024C34.495 28.3685 33.153 27.0264 31.4974 27.0264C29.8419 27.0264 28.4998 28.3685 28.4998 30.024C28.4998 31.6796 29.8419 33.0216 31.4974 33.0216Z" fill="white"/>
<path d="M26.2518 60.5995H13.8117C14.6814 55.8972 14.4813 50.2191 13.8117 44.1126H26.2518C25.6 50.2191 25.4052 55.8972 26.2518 60.5995Z" fill="#E6E6E6"/>
<path d="M20.1066 54.9039C21.7622 54.9039 23.1043 53.5618 23.1043 51.9063C23.1043 50.2508 21.7622 48.9087 20.1066 48.9087C18.4511 48.9087 17.109 50.2508 17.109 51.9063C17.109 53.5618 18.4511 54.9039 20.1066 54.9039Z" fill="white"/>
<path d="M44.6869 39.7663H32.2468C33.1166 35.064 32.9165 29.3859 32.2468 23.2794H44.6869C44.0351 29.3859 43.8403 35.064 44.6869 39.7663Z" fill="#E6E6E6"/>
<path d="M38.5418 34.0707C40.1973 34.0707 41.5394 32.7286 41.5394 31.0731C41.5394 29.4176 40.1973 28.0755 38.5418 28.0755C36.8862 28.0755 35.5442 29.4176 35.5442 31.0731C35.5442 32.7286 36.8862 34.0707 38.5418 34.0707Z" fill="white"/>
<path d="M44.6869 39.0168H32.2468C33.1166 34.3146 32.9165 28.6364 32.2468 22.53H44.6869C44.0351 28.6364 43.8403 34.3146 44.6869 39.0168Z" fill="#E6E6E6"/>
<path d="M38.5418 33.3213C40.1973 33.3213 41.5394 31.9792 41.5394 30.3237C41.5394 28.6681 40.1973 27.326 38.5418 27.326C36.8862 27.326 35.5442 28.6681 35.5442 30.3237C35.5442 31.9792 36.8862 33.3213 38.5418 33.3213Z" fill="white"/>
<path d="M44.6869 39.7663H32.2468C33.1166 35.064 32.9165 29.3859 32.2468 23.2794H44.6869C44.0351 29.3859 43.8403 35.064 44.6869 39.7663Z" fill="#E6E6E6"/>
<path d="M38.5418 34.0707C40.1973 34.0707 41.5394 32.7286 41.5394 31.0731C41.5394 29.4176 40.1973 28.0755 38.5418 28.0755C36.8862 28.0755 35.5442 29.4176 35.5442 31.0731C35.5442 32.7286 36.8862 34.0707 38.5418 34.0707Z" fill="white"/>
<path d="M47.5346 37.818H6.76715V42.3144H47.5346V37.818Z" fill="#E6E6E6"/>
<path d="M47.5346 60.1501H6.76715V64.6465H47.5346V60.1501Z" fill="#E6E6E6"/>
<path d="M47.5346 82.4822H6.76715V86.9786H47.5346V82.4822Z" fill="#E6E6E6"/>
<path d="M118.451 100.724L108.295 93.5404C111.72 90.2035 114.836 85.4522 117.815 80.0801L127.972 87.2636C123.913 91.8727 120.475 96.396 118.451 100.724Z" fill="#232334"/>
<path d="M118.454 93.0758C120.11 93.0758 121.452 91.7338 121.452 90.0782C121.452 88.4227 120.11 87.0806 118.454 87.0806C116.799 87.0806 115.457 88.4227 115.457 90.0782C115.457 91.7338 116.799 93.0758 118.454 93.0758Z" fill="white"/>
<path d="M69.458 67.9437H68.3431C68.3039 67.9437 68.2663 67.9593 68.2386 67.987C68.2109 68.0147 68.1953 68.0523 68.1953 68.0915V68.5809C68.1953 68.6003 68.1991 68.6195 68.2066 68.6375C68.214 68.6554 68.2249 68.6717 68.2386 68.6854C68.2523 68.6991 68.2686 68.71 68.2866 68.7174C68.3045 68.7249 68.3237 68.7287 68.3431 68.7287H68.5279V69.4619H69.2732V68.7287H69.458C69.4972 68.7287 69.5348 68.7131 69.5625 68.6854C69.5902 68.6577 69.6058 68.6201 69.6058 68.5809V68.0915C69.6058 68.0523 69.5902 68.0147 69.5625 67.987C69.5348 67.9593 69.4972 67.9437 69.458 67.9437Z" fill="#E6E6E6"/>
<path d="M70.5747 72.4222C69.8919 71.4231 69.5429 70.2336 69.5775 69.024C69.5782 68.9961 69.5691 68.9688 69.5519 68.9468C69.5347 68.9248 69.5104 68.9095 69.4832 68.9033V68.6919H68.3057V68.9004H68.2895C68.2736 68.9004 68.2579 68.9036 68.2433 68.9097C68.2286 68.9158 68.2153 68.9247 68.2041 68.9359C68.1929 68.9471 68.184 68.9605 68.178 68.9751C68.1719 68.9898 68.1688 69.0055 68.1689 69.0214C68.1689 69.0243 68.169 69.0272 68.1692 69.0302C68.2779 70.2645 67.9449 71.4972 67.2295 72.5089C67.1881 72.5679 67.167 72.6387 67.1692 72.7107L67.298 76.6933C67.3011 76.7821 67.3384 76.8663 67.4021 76.9283C67.4657 76.9903 67.5509 77.0253 67.6398 77.026H70.303C70.3929 77.0253 70.4789 76.9895 70.5428 76.9262C70.6067 76.863 70.6434 76.7773 70.645 76.6874L70.6946 72.8207C70.6961 72.6787 70.6542 72.5398 70.5747 72.4222Z" fill="#232334"/>
<path opacity="0.2" d="M69.2255 68.1031C69.2255 68.1877 69.1919 68.2688 69.1321 68.3286C69.0723 68.3884 68.9912 68.422 68.9066 68.422C68.822 68.422 68.7409 68.3884 68.6811 68.3286C68.6213 68.2688 68.5877 68.1877 68.5877 68.1031" fill="black"/>
<path d="M70.0559 73.1897H67.8077V74.6885H70.0559V73.1897Z" fill="white"/>
<path d="M104.738 83.5017H102.651C102.578 83.5017 102.508 83.5309 102.456 83.5827C102.404 83.6346 102.375 83.705 102.375 83.7784V84.6944C102.375 84.7678 102.404 84.8382 102.456 84.8901C102.508 84.9419 102.578 84.9711 102.651 84.9711H102.997V86.3436H104.392V84.9711H104.738C104.812 84.9711 104.882 84.9419 104.934 84.8901C104.986 84.8382 105.015 84.7678 105.015 84.6944V83.7784C105.015 83.705 104.986 83.6346 104.934 83.5827C104.882 83.5309 104.812 83.5017 104.738 83.5017Z" fill="#E6E6E6"/>
<path d="M106.829 91.8851C105.551 90.0149 104.897 87.7882 104.962 85.5239C104.963 85.4717 104.946 85.4206 104.914 85.3794C104.882 85.3383 104.836 85.3095 104.785 85.2981V84.9023H102.581V85.2926H102.551C102.521 85.2926 102.492 85.2985 102.465 85.3099C102.437 85.3213 102.412 85.338 102.391 85.359C102.37 85.3801 102.354 85.405 102.342 85.4325C102.331 85.4599 102.325 85.4893 102.325 85.519C102.325 85.5245 102.325 85.53 102.326 85.5355C102.499 87.956 101.913 90.1266 100.567 92.0474C100.489 92.1578 100.45 92.2904 100.454 92.4251L100.695 99.8801C100.701 100.046 100.771 100.204 100.89 100.32C101.009 100.436 101.168 100.502 101.335 100.503H106.32C106.488 100.502 106.649 100.435 106.769 100.316C106.889 100.198 106.957 100.037 106.96 99.8691L107.053 92.631C107.056 92.3653 106.978 92.1051 106.829 91.8851Z" fill="#232334"/>
<path opacity="0.2" d="M104.303 83.8005C104.303 83.9588 104.24 84.1106 104.128 84.2226C104.016 84.3345 103.865 84.3974 103.706 84.3974C103.548 84.3974 103.396 84.3345 103.284 84.2226C103.172 84.1106 103.109 83.9588 103.109 83.8005" fill="black"/>
<path d="M106.039 94.3616H101.7C101.636 94.3616 101.572 94.3755 101.514 94.4023C101.456 94.4292 101.404 94.4683 101.362 94.5171C101.32 94.5658 101.289 94.623 101.272 94.6848C101.254 94.7466 101.25 94.8114 101.26 94.8749L101.915 99.1371H105.681L106.477 94.8892C106.489 94.8249 106.487 94.7587 106.471 94.6953C106.454 94.632 106.424 94.573 106.382 94.5226C106.34 94.4723 106.288 94.4317 106.229 94.4039C106.169 94.3761 106.105 94.3616 106.039 94.3616Z" fill="white"/>
<path d="M98.784 100.712H86.3439C87.2136 96.0097 87.0135 90.3315 86.3439 84.2251H98.784C98.1321 90.3316 97.9373 96.0097 98.784 100.712Z" fill="#232334"/>
<path d="M92.6388 95.0168C94.2944 95.0168 95.6365 93.6747 95.6365 92.0192C95.6365 90.3637 94.2944 89.0216 92.6388 89.0216C90.9833 89.0216 89.6412 90.3637 89.6412 92.0192C89.6412 93.6747 90.9833 95.0168 92.6388 95.0168Z" fill="white"/>
<path d="M47.9011 48.8256L50.6938 48.5717L52.471 44.2559L49.2975 42.4786L47.9011 48.8256Z" fill="#FFB8B8"/>
<path d="M73.5306 60.6743C73.6234 60.4427 73.6599 60.1924 73.637 59.9439C73.6142 59.6955 73.5326 59.456 73.399 59.2453C73.2654 59.0345 73.0837 58.8585 72.8687 58.7318C72.6538 58.6051 72.4118 58.5313 72.1627 58.5164L67.8267 58.2579L67.1882 60.3809L71.652 61.6068C72.025 61.7092 72.4226 61.6708 72.7691 61.4988C73.1156 61.3268 73.3866 61.0333 73.5306 60.6743Z" fill="#FFB8B8"/>
<path d="M68.8747 61.6424L68.827 57.6587L59.1956 56.1219L51.7757 47.6121C51.3897 47.1694 50.8562 46.8815 50.2742 46.8019C49.6922 46.7224 49.1011 46.8564 48.6104 47.1793C48.3132 47.3747 48.0627 47.6331 47.8764 47.9361C47.6901 48.239 47.5726 48.5792 47.5322 48.9326C47.4919 49.286 47.5296 49.6439 47.6428 49.9811C47.756 50.3182 47.9418 50.6264 48.1872 50.8839L54.3086 58.4171L68.8747 61.6424Z" fill="#575A89"/>
<path d="M45.743 106.457H48.2818L54.579 77.9857L61.1028 86.7811L64.9111 105.822H67.3229L66.8152 85.3847L58.3101 63.5509H49.932C47.6425 67.6944 45.8465 71.9657 47.901 76.3719L45.743 106.457Z" fill="#2F2E41"/>
<path d="M63.3547 108.186C63.3266 108.276 63.318 108.371 63.3295 108.464C63.3409 108.558 63.3721 108.648 63.4209 108.728C63.4698 108.808 63.5353 108.877 63.6129 108.931C63.6906 108.984 63.7787 109.02 63.8714 109.036L70.0839 110.139C70.3294 110.184 70.5828 110.137 70.7964 110.008C71.01 109.879 71.169 109.676 71.2434 109.438C71.3159 109.211 71.3057 108.965 71.2149 108.744C71.124 108.523 70.9582 108.341 70.7466 108.23C69.3806 107.529 68.205 106.507 67.3205 105.252C66.6377 105.887 65.8746 105.828 65.0642 105.359L64.2046 105.466L63.3547 108.186Z" fill="#2F2E41"/>
<path d="M44.5675 108.186C44.5394 108.276 44.5308 108.371 44.5422 108.464C44.5536 108.558 44.5848 108.648 44.6337 108.728C44.6826 108.808 44.748 108.877 44.8257 108.931C44.9034 108.984 44.9915 109.02 45.0841 109.036L51.2966 110.139C51.5421 110.184 51.7956 110.137 52.0092 110.008C52.2228 109.879 52.3818 109.676 52.4562 109.438C52.5286 109.211 52.5185 108.965 52.4277 108.744C52.3368 108.523 52.171 108.341 51.9594 108.23C50.5934 107.529 49.4178 106.507 48.5333 105.252C47.8505 105.887 47.0873 105.828 46.277 105.359L45.4174 105.466L44.5675 108.186Z" fill="#2F2E41"/>
<path d="M52.5344 45.8425C54.4974 45.8425 56.0887 44.2512 56.0887 42.2882C56.0887 40.3252 54.4974 38.7338 52.5344 38.7338C50.5713 38.7338 48.98 40.3252 48.98 42.2882C48.98 44.2512 50.5713 45.8425 52.5344 45.8425Z" fill="#FFB8B8"/>
<path d="M49.3609 64.503L58.6276 64.2492L55.9062 55.6841C57.5974 52.9728 55.8953 50.2643 53.4865 47.5564L51.5824 46.287L48.5358 46.0331C47.2167 47.4446 46.495 49.3117 46.5217 51.2433C46.582 55.3797 47.3144 59.8826 49.3609 64.503Z" fill="#575A89"/>
<path d="M70.6514 70.2683C70.8279 70.0919 70.9599 69.8761 71.0366 69.6386C71.1133 69.4012 71.1325 69.149 71.0926 68.9027C71.0527 68.6564 70.9548 68.4231 70.807 68.222C70.6593 68.021 70.4659 67.8579 70.2427 67.7463L66.358 65.8028L64.9359 67.5035L68.5574 70.3865C68.8601 70.6274 69.2408 70.7485 69.627 70.7267C70.0132 70.7049 70.3778 70.5417 70.6514 70.2683Z" fill="#FFB8B8"/>
<path d="M65.9901 69.3268L67.5134 65.6455L59.2631 60.4438L55.7892 49.7012C55.6084 49.1423 55.2312 48.6678 54.7275 48.3657C54.2237 48.0636 53.6275 47.9543 53.0493 48.058C52.6992 48.1209 52.3672 48.2598 52.0768 48.4651C51.7863 48.6703 51.5445 48.9369 51.3684 49.2459C51.1923 49.5549 51.0862 49.8988 51.0576 50.2533C51.029 50.6078 51.0786 50.9643 51.203 51.2975L53.8673 60.6314L65.9901 69.3268Z" fill="#575A89"/>
<path d="M46.695 40.8921C46.695 42.2751 47.5931 44.4169 48.726 45.335C49.4883 45.9528 50.4956 45.9267 50.884 45.0811C51.2825 44.2137 52.6558 42.1747 55.0731 40.8921C58.2954 39.1823 53.9303 36.257 50.884 36.703C48.5949 37.0382 46.695 38.5785 46.695 40.8921Z" fill="#2F2E41"/>
<path d="M48.8532 38.9879C50.2553 38.9879 51.392 37.8512 51.392 36.4491C51.392 35.0469 50.2553 33.9103 48.8532 33.9103C47.451 33.9103 46.3144 35.0469 46.3144 36.4491C46.3144 37.8512 47.451 38.9879 48.8532 38.9879Z" fill="#2F2E41"/>
<path d="M51.7726 35.5602C51.7724 34.9202 51.5302 34.3039 51.0947 33.8348C50.6592 33.3658 50.0625 33.0787 49.4242 33.031C49.4873 33.0263 49.5504 33.0214 49.6146 33.0214C50.288 33.0214 50.9337 33.2889 51.4098 33.765C51.886 34.2411 52.1535 34.8869 52.1535 35.5602C52.1535 36.2336 51.886 36.8793 51.4098 37.3555C50.9337 37.8316 50.288 38.0991 49.6146 38.0991C49.5504 38.0991 49.4873 38.0941 49.4242 38.0894C50.0625 38.0418 50.6592 37.7547 51.0947 37.2857C51.5302 36.8166 51.7724 36.2003 51.7726 35.5602Z" fill="#2F2E41"/>
<path d="M52.5978 43.5577C52.9132 43.5577 53.169 43.2167 53.169 42.7961C53.169 42.3754 52.9132 42.0344 52.5978 42.0344C52.2823 42.0344 52.0265 42.3754 52.0265 42.7961C52.0265 43.2167 52.2823 43.5577 52.5978 43.5577Z" fill="#FFB8B8"/>
<path d="M124.531 101.801H85.0092L76.6401 62.2379H69.4977V60.4628H78.079L86.4481 100.026H124.531V101.801Z" fill="#3F3D56"/>
<path d="M90.8008 109.029C92.9018 109.029 94.605 107.326 94.605 105.225C94.605 103.124 92.9018 101.421 90.8008 101.421C88.6999 101.421 86.9967 103.124 86.9967 105.225C86.9967 107.326 88.6999 109.029 90.8008 109.029Z" fill="#3F3D56"/>
<path d="M119.205 109.029C121.306 109.029 123.009 107.326 123.009 105.225C123.009 103.124 121.306 101.421 119.205 101.421C117.104 101.421 115.401 103.124 115.401 105.225C115.401 107.326 117.104 109.029 119.205 109.029Z" fill="#3F3D56"/>
<path d="M123.81 100.965H85.3579L78.5734 67.4368H130.177C130.44 67.4368 130.7 67.4939 130.94 67.604C131.179 67.7142 131.391 67.8749 131.562 68.075C131.734 68.2751 131.859 68.5099 131.931 68.7633C132.003 69.0166 132.019 69.2825 131.978 69.5427L125.611 99.4248C125.545 99.8547 125.327 100.247 124.997 100.529C124.666 100.812 124.245 100.967 123.81 100.965ZM85.7755 100.458H123.81C124.124 100.459 124.428 100.347 124.666 100.143C124.905 99.9393 125.062 99.6563 125.11 99.346L131.477 69.4639C131.506 69.2762 131.495 69.0842 131.443 68.9014C131.391 68.7185 131.3 68.549 131.177 68.4045C131.053 68.2601 130.9 68.1441 130.727 68.0646C130.555 67.9851 130.367 67.944 130.177 67.944H79.1891L85.7755 100.458Z" fill="#3F3D56"/>
<path d="M92.8332 100.858L88.3901 67.7319L88.8904 67.6493L93.3335 100.775L92.8332 100.858Z" fill="#3F3D56"/>
<path d="M117.538 100.603L117.038 100.522L121.351 67.6498L121.852 67.7309L117.538 100.603Z" fill="#3F3D56"/>
<path d="M105.768 67.6907H105.26V100.816H105.768V67.6907Z" fill="#3F3D56"/>
<path d="M81.1643 76.5671L81.163 77.0743L130.261 77.1932L130.262 76.6859L81.1643 76.5671Z" fill="#3F3D56"/>
<path d="M126.797 92.2351L83.6638 92.53L83.6673 93.0372L126.801 92.7423L126.797 92.2351Z" fill="#3F3D56"/>
<path d="M70.2584 62.6186C71.7991 62.6186 73.0481 61.9373 73.0481 61.0969C73.0481 60.2565 71.7991 59.5753 70.2584 59.5753C68.7177 59.5753 67.4687 60.2565 67.4687 61.0969C67.4687 61.9373 68.7177 62.6186 70.2584 62.6186Z" fill="#3F3D56"/>
</svg>
