<svg width="148" height="128" viewBox="0 0 148 128" fill="none" xmlns="http://www.w3.org/2000/svg">
<path d="M0 126.254C0 126.441 0.149513 126.59 0.335694 126.59H147.664C147.85 126.59 148 126.441 148 126.254C148 126.068 147.85 125.919 147.664 125.919H0.335694C0.149511 125.919 0 126.068 0 126.254Z" fill="#3F3C57"/>
<path d="M48.0689 13.555L49.6711 20.8659L46.2633 31.042L40.7729 20.1086L41.5347 13.7657L48.0689 13.555Z" fill="#FDB4B4"/>
<path d="M49.9687 20.4872H40.4889V31.9413H49.9687V20.4872Z" fill="#232334"/>
<path d="M46.0705 17.2376C49.646 17.2376 52.5445 14.3391 52.5445 10.7636C52.5445 7.18808 49.646 4.28955 46.0705 4.28955C42.495 4.28955 39.5964 7.18808 39.5964 10.7636C39.5964 14.3391 42.495 17.2376 46.0705 17.2376Z" fill="#FDB4B4"/>
<path d="M40.4351 15.5776C40.4351 15.5776 35.6094 6.66525 39.9604 2.37637C44.3114 -1.9125 47.8042 0.9136 47.8042 0.9136L49.7987 0.832993C49.7987 0.832993 50.2146 2.40263 50.8854 1.55292C51.5561 0.703208 52.7682 3.79775 52.7682 3.79775C55.0179 7.84925 47.2192 8.75686 47.2192 8.75686C47.2192 8.75686 47.7823 10.5507 47.2099 10.9264C46.6375 11.3021 45.1082 12.7153 45.1082 12.7153L43.7393 13.7492L42.9259 12.5097C42.9259 12.5097 42.0762 11.839 41.6469 12.1207C41.2176 12.4025 41.8081 16.1097 41.8081 16.1097L40.4351 15.5776Z" fill="#2E2E41"/>
<path d="M32.6686 81.1447L30.1934 118.066L36.2782 118.273L44.3226 81.4541L32.6686 81.1447Z" fill="#2E2E41"/>
<path d="M47.4166 80.9385L44.9414 117.86L51.0263 118.066L59.0707 81.2479L47.4166 80.9385Z" fill="#2E2E41"/>
<path d="M31.1781 89.5802L34.4173 49.3673L29.4498 28.4275C29.0215 25.3148 30.9828 22.3695 34.0097 21.5664L38.8706 20.2768L41.022 18.1252L45.9156 28.9319L48.9719 18.1335L51.3554 19.867L58.4248 22.9859L58.4215 23.0589L57.2876 48.354L59.8188 89.2221L59.7065 89.2236L31.1781 89.5802Z" fill="#E8E9EA"/>
<path d="M50.6356 117.647L52.3975 122.907C52.3975 122.907 59.2904 123.844 59.3977 125.978C59.5049 128.112 50.0298 126.876 44.4816 127.155C38.9333 127.434 43.5518 121.426 43.5518 121.426L44.1431 117.973L50.6356 117.647Z" fill="#2E2E41"/>
<path d="M36.247 117.268L38.0089 122.528C38.0089 122.528 44.9019 123.465 45.0091 125.599C45.1164 127.733 35.6413 126.498 30.093 126.776C24.5448 127.055 29.1633 121.047 29.1633 121.047L29.7545 117.594L36.247 117.268Z" fill="#2E2E41"/>
<path d="M27.651 68.2236C27.5763 67.1865 27.7511 66.1467 28.1608 65.191L26.8458 54.404L31.9969 53.9285L32.776 64.9218C33.2936 65.8231 33.5879 66.8353 33.6342 67.8737C33.7857 70.4711 32.5691 72.6539 30.9167 72.7503C29.2643 72.8468 27.8021 70.8201 27.651 68.2236Z" fill="#FDB4B4"/>
<path d="M60.2764 69.8069C60.213 68.7691 60.3991 67.7312 60.8192 66.7801L59.6219 55.9795L64.7778 55.5601L65.437 66.5612C65.9448 67.4681 66.2281 68.4835 66.263 69.5223C66.3862 72.1212 65.1459 74.2906 63.4925 74.369C61.8392 74.4474 60.3992 72.4049 60.2764 69.8069Z" fill="#FDB4B4"/>
<path d="M26.8246 63.8976L26.8072 63.8046L24.1226 49.4006L27.2947 25.9453C27.5777 23.8512 29.4476 22.3427 31.5562 22.5113C32.6573 22.5995 33.6453 23.1217 34.3384 23.9821C35.0313 24.8425 35.3311 25.9192 35.1826 27.0139L32.7952 44.6051L34.2983 63.4205L26.8246 63.8976Z" fill="#E8E9EA"/>
<path d="M58.6855 63.5595L53.2881 27.5315C53.0076 26.4751 53.1718 25.3695 53.7529 24.43C54.334 23.4906 55.2498 22.85 56.3317 22.6262C58.4014 22.1981 60.4452 23.4633 60.9854 25.5061L66.1706 63.1071L58.6855 63.5595Z" fill="#E8E9EA"/>
<path d="M46.074 32.2253C46.44 32.2253 46.7366 31.9286 46.7366 31.5627C46.7366 31.1967 46.44 30.9 46.074 30.9C45.708 30.9 45.4114 31.1967 45.4114 31.5627C45.4114 31.9286 45.708 32.2253 46.074 32.2253Z" fill="#D6D7D8"/>
<path d="M46.074 37.2423C46.44 37.2423 46.7366 36.9456 46.7366 36.5797C46.7366 36.2137 46.44 35.9171 46.074 35.9171C45.708 35.9171 45.4114 36.2137 45.4114 36.5797C45.4114 36.9456 45.708 37.2423 46.074 37.2423Z" fill="#D6D7D8"/>
<path d="M46.074 42.2594C46.44 42.2594 46.7366 41.9627 46.7366 41.5968C46.7366 41.2308 46.44 40.9341 46.074 40.9341C45.708 40.9341 45.4114 41.2308 45.4114 41.5968C45.4114 41.9627 45.708 42.2594 46.074 42.2594Z" fill="#D6D7D8"/>
<path d="M46.074 47.2764C46.44 47.2764 46.7366 46.9798 46.7366 46.6138C46.7366 46.2478 46.44 45.9512 46.074 45.9512C45.708 45.9512 45.4114 46.2478 45.4114 46.6138C45.4114 46.9798 45.708 47.2764 46.074 47.2764Z" fill="#D6D7D8"/>
<path d="M46.074 52.2935C46.44 52.2935 46.7366 51.9969 46.7366 51.6309C46.7366 51.2649 46.44 50.9683 46.074 50.9683C45.708 50.9683 45.4114 51.2649 45.4114 51.6309C45.4114 51.9969 45.708 52.2935 46.074 52.2935Z" fill="#D6D7D8"/>
<path d="M46.074 57.3105C46.44 57.3105 46.7366 57.0139 46.7366 56.6479C46.7366 56.282 46.44 55.9853 46.074 55.9853C45.708 55.9853 45.4114 56.282 45.4114 56.6479C45.4114 57.0139 45.708 57.3105 46.074 57.3105Z" fill="#D6D7D8"/>
<path d="M46.074 62.3276C46.44 62.3276 46.7366 62.031 46.7366 61.665C46.7366 61.299 46.44 61.0024 46.074 61.0024C45.708 61.0024 45.4114 61.299 45.4114 61.665C45.4114 62.031 45.708 62.3276 46.074 62.3276Z" fill="#D6D7D8"/>
<path d="M46.074 67.3448C46.44 67.3448 46.7366 67.0481 46.7366 66.6822C46.7366 66.3162 46.44 66.0195 46.074 66.0195C45.708 66.0195 45.4114 66.3162 45.4114 66.6822C45.4114 67.0481 45.708 67.3448 46.074 67.3448Z" fill="#D6D7D8"/>
<path d="M46.0747 71.2258L33.537 69.5549L33.2955 69.5229L26.8878 54.7481L23.0718 45.9516H33.0114L46.0747 71.2258Z" fill="#232334"/>
<path d="M96.3443 15.1624L104.315 10.7955V23.2722H95.0966L96.3443 15.1624Z" fill="#2E2E41"/>
<path d="M106.024 17.944L106.76 24.0692L101.458 34.6275L98.1673 24.8005L99.7145 17.7405L106.024 17.944Z" fill="#FDB4B4"/>
<path d="M107.034 24.4349H97.8799V35.4959H107.034V24.4349Z" fill="#232334"/>
<path d="M114.586 83.0109L116.977 118.666L111.101 118.865L103.332 83.3097L114.586 83.0109Z" fill="#2E2E41"/>
<path d="M100.344 82.8118L102.735 118.467L96.8587 118.666L89.0903 83.1106L100.344 82.8118Z" fill="#2E2E41"/>
<path d="M120.795 90.5731L120.655 90.5727L83.2212 90.4504L83.2548 90.3179L92.8788 52.1874L90.468 32.9442C90.0112 29.2979 91.9632 25.8513 95.3253 24.3681L96.539 23.8327L98.8449 22.1558L101.795 32.5791L106.518 22.1477L108.599 24.2283L113.292 25.4735C116.217 26.2494 118.112 29.0954 117.7 32.0934L117.695 32.1142L110.528 52.5638L120.795 90.5731Z" fill="#E8E9EA"/>
<path d="M97.236 118.26L103.506 118.576L104.077 121.91C104.077 121.91 108.537 127.712 103.179 127.443C97.821 127.173 88.671 128.366 88.7746 126.305C88.8781 124.245 95.5345 123.34 95.5345 123.34L97.236 118.26Z" fill="#2E2E41"/>
<path d="M111.131 117.895L117.4 118.21L117.971 121.544C117.971 121.544 122.431 127.346 117.074 127.077C111.716 126.808 102.566 128.001 102.669 125.94C102.773 123.879 109.429 122.974 109.429 122.974L111.131 117.895Z" fill="#2E2E41"/>
<path d="M116.872 70.1676C116.726 72.6749 115.314 74.6321 113.719 74.539C112.123 74.4459 110.948 72.338 111.094 69.8297C111.139 68.8269 111.423 67.8495 111.923 66.9791L112.676 56.363L117.65 56.8222L116.38 67.2391C116.776 68.1619 116.944 69.1661 116.872 70.1676Z" fill="#FDB4B4"/>
<path d="M91.3099 69.2141C91.1106 71.7178 89.6573 73.6445 88.0639 73.5174C86.4706 73.3903 85.3409 71.2579 85.5405 68.7533C85.6065 67.7517 85.9115 66.7805 86.4298 65.921L87.408 55.3233L92.3714 55.8883L90.8801 66.2758C91.256 67.2068 91.4033 68.2144 91.3099 69.2141Z" fill="#FDB4B4"/>
<path d="M117.673 65.9939L110.449 65.5327L110.458 65.4245L111.901 47.3595L109.596 30.3724C109.452 29.3143 109.742 28.2735 110.411 27.4419C111.081 26.6102 112.036 26.1054 113.101 26.0202C115.139 25.8595 116.946 27.3154 117.22 29.3395L120.283 51.9905L120.28 52.0074L117.673 65.9939Z" fill="#E8E9EA"/>
<path d="M92.5126 65.3019L85.2769 64.8644L85.2927 64.7502L90.2823 28.5621C90.807 26.5746 92.7834 25.3521 94.7832 25.7656C95.829 25.9819 96.7141 26.6011 97.2758 27.5092C97.8375 28.4174 97.9963 29.4859 97.7227 30.5182L92.5126 65.3019Z" fill="#E8E9EA"/>
<path d="M101.641 35.7701C101.994 35.7701 102.281 35.4837 102.281 35.1302C102.281 34.7768 101.994 34.4904 101.641 34.4904C101.288 34.4904 101.001 34.7768 101.001 35.1302C101.001 35.4837 101.288 35.7701 101.641 35.7701Z" fill="#D6D7D8"/>
<path d="M101.641 40.615C101.994 40.615 102.281 40.3286 102.281 39.9752C102.281 39.6218 101.994 39.3353 101.641 39.3353C101.288 39.3353 101.001 39.6218 101.001 39.9752C101.001 40.3286 101.288 40.615 101.641 40.615Z" fill="#D6D7D8"/>
<path d="M101.641 45.46C101.994 45.46 102.281 45.1735 102.281 44.8201C102.281 44.4667 101.994 44.1802 101.641 44.1802C101.288 44.1802 101.001 44.4667 101.001 44.8201C101.001 45.1735 101.288 45.46 101.641 45.46Z" fill="#D6D7D8"/>
<path d="M101.641 50.3049C101.994 50.3049 102.281 50.0184 102.281 49.665C102.281 49.3116 101.994 49.0251 101.641 49.0251C101.288 49.0251 101.001 49.3116 101.001 49.665C101.001 50.0184 101.288 50.3049 101.641 50.3049Z" fill="#D6D7D8"/>
<path d="M101.641 55.1498C101.994 55.1498 102.281 54.8634 102.281 54.51C102.281 54.1565 101.994 53.8701 101.641 53.8701C101.288 53.8701 101.001 54.1565 101.001 54.51C101.001 54.8634 101.288 55.1498 101.641 55.1498Z" fill="#D6D7D8"/>
<path d="M101.641 59.9947C101.994 59.9947 102.281 59.7082 102.281 59.3548C102.281 59.0014 101.994 58.7149 101.641 58.7149C101.288 58.7149 101.001 59.0014 101.001 59.3548C101.001 59.7082 101.288 59.9947 101.641 59.9947Z" fill="#D6D7D8"/>
<path d="M101.641 64.8397C101.994 64.8397 102.281 64.5532 102.281 64.1998C102.281 63.8464 101.994 63.5599 101.641 63.5599C101.288 63.5599 101.001 63.8464 101.001 64.1998C101.001 64.5532 101.288 64.8397 101.641 64.8397Z" fill="#D6D7D8"/>
<path d="M101.641 69.6845C101.994 69.6845 102.281 69.398 102.281 69.0446C102.281 68.6912 101.994 68.4047 101.641 68.4047C101.288 68.4047 101.001 68.6912 101.001 69.0446C101.001 69.398 101.288 69.6845 101.641 69.6845Z" fill="#D6D7D8"/>
<path d="M102.612 21.07C105.918 21.07 108.598 18.3904 108.598 15.0848C108.598 11.7792 105.918 9.09955 102.612 9.09955C99.3069 9.09955 96.6272 11.7792 96.6272 15.0848C96.6272 18.3904 99.3069 21.07 102.612 21.07Z" fill="#FDB4B4"/>
<path d="M105.749 8.09777C106.036 8.68107 105.581 9.40969 104.979 9.65493C104.377 9.90017 103.697 9.8008 103.055 9.69872C102.413 9.59664 101.732 9.49984 101.132 9.74942C100.355 10.0723 99.9177 10.8824 99.5405 11.6341C98.8363 13.0375 98.1321 14.4408 97.4279 15.8441C97.0839 16.5298 96.732 17.2462 96.7254 18.0133C96.7133 19.4214 97.8302 20.5466 98.4312 21.82C99.163 23.3705 99.1026 25.2706 98.274 26.7714C97.4454 28.2723 95.8696 29.3358 94.1677 29.5426C93.7199 29.597 93.246 29.5911 92.8434 29.3877C92.4408 29.1843 92.1335 28.74 92.208 28.2951C92.3539 27.425 93.6834 27.2217 93.9276 26.3739C94.0551 25.9313 93.8294 25.4587 93.525 25.113C93.2207 24.7673 92.8358 24.4977 92.5455 24.1401C91.8761 23.3156 91.8315 22.0429 92.4416 21.1736C92.8001 20.6627 93.3546 20.2831 93.5863 19.7036C93.7838 19.2096 93.712 18.6544 93.6372 18.1277C93.5411 17.4509 93.445 16.7741 93.3489 16.0973C93.2368 15.3077 93.1263 14.4897 93.348 13.7236C93.8558 11.9679 95.8382 11.1433 97.0008 9.7331C97.541 9.07777 97.9044 8.28964 98.4587 7.64611C99.3887 6.56617 100.853 5.97042 102.273 6.09426C103.693 6.21811 105.032 7.05836 105.761 8.28301" fill="#2E2E41"/>
<path d="M104.804 8.2085C104.512 8.31307 104.403 8.69393 104.487 8.99286C104.572 9.29178 104.792 9.52929 104.994 9.76539C107.275 12.4357 107.806 16.4747 106.291 19.6435C105.888 20.4864 105.351 21.2796 105.134 22.1882C104.975 22.8493 104.984 23.5745 104.617 24.1469C104.244 24.7296 103.504 25.12 103.431 25.8082C103.384 26.2499 103.653 26.6788 104.014 26.9378C104.375 27.1967 104.815 27.3152 105.249 27.4118C106.376 27.6628 107.528 27.7999 108.682 27.8202C109.058 27.8268 109.446 27.8187 109.792 27.6687C110.137 27.5188 110.431 27.1936 110.435 26.8173C110.439 26.5216 110.268 26.2487 110.246 25.9537C110.181 25.0698 111.37 24.5996 111.602 23.7442C111.754 23.1817 111.454 22.603 111.134 22.1159C110.815 21.6288 110.45 21.1173 110.458 20.5346C110.465 19.9769 110.815 19.4857 110.951 18.9447C111.14 18.1964 110.908 17.4137 110.679 16.677C110.484 16.0506 110.289 15.4243 110.094 14.798C109.887 14.1321 109.68 13.4663 109.473 12.8005C109.111 11.6381 108.731 10.442 107.948 9.50971C107.165 8.57741 105.868 7.96636 104.712 8.347" fill="#2E2E41"/>
<path d="M108.883 31.4015L108.472 31.282C109.327 28.3515 107.484 22.8829 107.466 22.828L107.87 22.6901C107.948 22.9195 109.775 28.3427 108.883 31.4015Z" fill="#3F3C57"/>
<path d="M108.678 34.7675C109.663 34.7675 110.462 33.9683 110.462 32.9825C110.462 31.9967 109.663 31.1976 108.678 31.1976C107.692 31.1976 106.893 31.9967 106.893 32.9825C106.893 33.9683 107.692 34.7675 108.678 34.7675Z" fill="#3F3C57"/>
<path d="M96.9492 39.3018H95.8667C95.7486 39.3018 95.6531 39.2061 95.6531 39.0881C95.6531 38.9701 95.7486 38.8745 95.8667 38.8745H96.9492C97.2476 38.8745 97.5278 38.7582 97.7386 38.5471C97.9491 38.336 98.0649 38.0555 98.0643 37.7573L98.0511 31.0896C98.0511 29.6412 96.8731 28.4631 95.425 28.4631C93.9769 28.4631 92.7987 29.6412 92.7987 31.0892L92.8118 37.3302C92.8131 37.9391 93.3095 38.4382 93.9183 38.4429L94.6613 38.4485C94.7792 38.4494 94.8742 38.5457 94.8733 38.6638C94.8725 38.7812 94.7769 38.8758 94.6597 38.8758H94.658L93.915 38.8702C93.0728 38.8637 92.3862 38.1732 92.3845 37.331L92.3713 31.0896C92.3713 29.4056 93.7412 28.0358 95.425 28.0358C97.1086 28.0358 98.4785 29.4056 98.4785 31.0892L98.4916 37.7565C98.4924 38.169 98.3324 38.557 98.0409 38.8489C97.7496 39.1409 97.3617 39.3018 96.9492 39.3018Z" fill="#3F3C57"/>
<path d="M94.6598 39.4194C95.078 39.4194 95.4171 39.0804 95.4171 38.6621C95.4171 38.2439 95.078 37.9048 94.6598 37.9048C94.2415 37.9048 93.9025 38.2439 93.9025 38.6621C93.9025 39.0804 94.2415 39.4194 94.6598 39.4194Z" fill="#3F3C57"/>
<path d="M95.8667 39.8454C96.2849 39.8454 96.624 39.5063 96.624 39.0881C96.624 38.6699 96.2849 38.3308 95.8667 38.3308C95.4484 38.3308 95.1094 38.6699 95.1094 39.0881C95.1094 39.5063 95.4484 39.8454 95.8667 39.8454Z" fill="#3F3C57"/>
<path d="M52.1489 28.1988L51.7387 28.0792C52.5934 25.1487 50.7713 19.5954 50.7527 19.5405L51.2654 19.9271C51.3437 20.1565 53.0411 25.14 52.1489 28.1988Z" fill="#3F3C57"/>
<path d="M37.7289 28.7194L38.1391 28.5998C37.2844 25.6694 39.1273 20.2007 39.1458 20.1459L38.707 20.4398C38.6288 20.6692 36.8367 25.6606 37.7289 28.7194Z" fill="#3F3C57"/>
<path d="M51.9438 31.5647C52.9296 31.5647 53.7288 30.7656 53.7288 29.7798C53.7288 28.794 52.9296 27.9948 51.9438 27.9948C50.958 27.9948 50.1589 28.794 50.1589 29.7798C50.1589 30.7656 50.958 31.5647 51.9438 31.5647Z" fill="#3F3C57"/>
<path d="M39.6318 39.6961H38.5493C38.4312 39.6961 38.3357 39.6005 38.3357 39.4825C38.3357 39.3645 38.4312 39.2688 38.5493 39.2688H39.6318C39.9302 39.2688 40.2104 39.1526 40.4212 38.9414C40.6317 38.7304 40.7475 38.4498 40.7469 38.1517L40.7338 31.484C40.7338 30.0355 39.5557 28.8574 38.1076 28.8574C36.6596 28.8574 35.4813 30.0355 35.4813 31.4836L35.4944 37.7245C35.4957 38.3334 35.9921 38.8325 36.6009 38.8372L37.3439 38.8428C37.4618 38.8438 37.5568 38.9401 37.5559 39.0582C37.5551 39.1755 37.4595 39.2702 37.3423 39.2702H37.3406L36.5976 39.2645C35.7555 39.2581 35.0688 38.5675 35.0671 37.7254L35.054 31.484C35.054 29.7999 36.4238 28.4301 38.1076 28.4301C39.7913 28.4301 41.1611 29.7999 41.1611 31.4836L41.1742 38.1508C41.1751 38.5633 41.015 38.9513 40.7235 39.2432C40.4322 39.5353 40.0444 39.6961 39.6318 39.6961Z" fill="#3F3C57"/>
<path d="M37.3423 39.8138C37.7606 39.8138 38.0996 39.4748 38.0996 39.0565C38.0996 38.6383 37.7606 38.2993 37.3423 38.2993C36.9241 38.2993 36.585 38.6383 36.585 39.0565C36.585 39.4748 36.9241 39.8138 37.3423 39.8138Z" fill="#3F3C57"/>
<path d="M38.5493 40.2399C38.9675 40.2399 39.3066 39.9009 39.3066 39.4826C39.3066 39.0644 38.9675 38.7253 38.5493 38.7253C38.131 38.7253 37.792 39.0644 37.792 39.4826C37.792 39.9009 38.131 40.2399 38.5493 40.2399Z" fill="#3F3C57"/>
</svg>
