<svg width="148" height="74" viewBox="0 0 148 74" fill="none" xmlns="http://www.w3.org/2000/svg">
<path d="M40.4089 60.3237C44.4267 60.3237 47.6839 57.0666 47.6839 53.0487C47.6839 49.0309 44.4267 45.7737 40.4089 45.7737C36.391 45.7737 33.1339 49.0309 33.1339 53.0487C33.1339 57.0666 36.391 60.3237 40.4089 60.3237Z" fill="#E4E4E4"/>
<path opacity="0.2" d="M35.0373 48.1896C34.3587 49.7769 34.2666 51.5539 34.7775 53.2028C35.2885 54.8518 36.3691 56.2654 37.8263 57.1909C39.2835 58.1165 41.0224 58.4938 42.7322 58.2553C44.4419 58.0168 46.0112 57.1782 47.1595 55.8892C46.745 56.859 46.1246 57.7271 45.3412 58.4333C44.5579 59.1395 43.6304 59.667 42.623 59.9792C41.6156 60.2914 40.5523 60.3808 39.5069 60.2412C38.4615 60.1017 37.4589 59.7366 36.5686 59.1711C35.6783 58.6056 34.9216 57.8533 34.351 56.9664C33.7803 56.0794 33.4092 55.079 33.2636 54.0344C33.1179 52.9899 33.2011 51.9261 33.5074 50.9169C33.8136 49.9076 34.3356 48.977 35.0373 48.1896Z" fill="black"/>
<path d="M40.4289 53.0488H40.4488L40.8086 73.6745H40.0491L40.4289 53.0488Z" fill="#3F3D56"/>
<path d="M25.6894 46.7568C33.7902 46.7568 40.3571 40.1899 40.3571 32.0891C40.3571 23.9884 33.7902 17.4214 25.6894 17.4214C17.5887 17.4214 11.0217 23.9884 11.0217 32.0891C11.0217 40.1899 17.5887 46.7568 25.6894 46.7568Z" fill="#E4E4E4"/>
<path opacity="0.2" d="M14.8593 22.2922C13.4911 25.4926 13.3055 29.0752 14.3356 32.3999C15.3658 35.7245 17.5445 38.5745 20.4825 40.4406C23.4205 42.3067 26.9264 43.0674 30.3736 42.5866C33.8208 42.1058 36.9847 40.4149 39.3 37.8161C38.4642 39.7714 37.2133 41.5216 35.634 42.9455C34.0546 44.3694 32.1846 45.4329 30.1534 46.0623C28.1223 46.6917 25.9786 46.872 23.8708 46.5906C21.7631 46.3093 19.7417 45.5731 17.9467 44.433C16.1518 43.2929 14.6261 41.7761 13.4755 39.9879C12.3249 38.1996 11.5769 36.1826 11.2832 34.0765C10.9895 31.9705 11.1572 29.8258 11.7747 27.7909C12.3922 25.7561 13.4447 23.8799 14.8593 22.2922Z" fill="black"/>
<path d="M25.7297 32.0891H25.7701L26.4954 73.6744H24.9641L25.7297 32.0891Z" fill="#3F3D56"/>
<path d="M122.394 52.1501H55.1636V72.0801H122.394V52.1501Z" fill="#F0F0F0"/>
<path d="M92.6984 56.269H84.8593V72.0801H92.6984V56.269Z" fill="#CACACA"/>
<path d="M118.474 28.6329H59.0832V46.9684H118.474V28.6329Z" fill="#F0F0F0"/>
<path d="M124.496 29.7622H53.0619C52.9427 29.7622 52.8261 29.7265 52.7273 29.6598C52.6285 29.593 52.5519 29.4982 52.5073 29.3876C52.4628 29.277 52.4523 29.1556 52.4773 29.039C52.5023 28.9224 52.5616 28.8159 52.6476 28.7332L72.1705 9.96769V1.79382C72.1707 1.6353 72.2337 1.48333 72.3458 1.37124C72.4579 1.25915 72.6099 1.1961 72.7684 1.19592H76.6215C76.78 1.19609 76.932 1.25914 77.0441 1.37123C77.1562 1.48332 77.2192 1.6353 77.2194 1.79382V5.1147L78.694 3.69729C81.107 1.37782 84.3085 0.0576053 87.6551 0.00195542C91.0017 -0.0536944 94.2453 1.15935 96.7341 3.3973L124.895 28.7196C124.985 28.8005 125.049 28.9068 125.077 29.0244C125.105 29.142 125.097 29.2654 125.054 29.3783C125.011 29.4912 124.934 29.5884 124.834 29.6569C124.735 29.7255 124.617 29.7622 124.496 29.7622Z" fill="#CACACA"/>
<path d="M74.7614 33.2831C75.2587 33.2831 75.7511 33.3811 76.2105 33.5714C76.6699 33.7617 77.0874 34.0406 77.439 34.3922C77.7906 34.7439 78.0695 35.1613 78.2598 35.6207C78.4501 36.0801 78.5481 36.5726 78.5481 37.0698V42.1852H70.9747V37.0698C70.9747 36.5726 71.0726 36.0801 71.2629 35.6207C71.4532 35.1613 71.7322 34.7439 72.0838 34.3922C72.4354 34.0406 72.8529 33.7617 73.3123 33.5714C73.7717 33.3811 74.2641 33.2831 74.7614 33.2831Z" fill="white"/>
<path d="M88.7788 33.3496C89.7831 33.3496 90.7462 33.7486 91.4564 34.4587C92.1665 35.1688 92.5655 36.132 92.5655 37.1363V42.2517H84.9921V37.1363C84.9921 36.132 85.3911 35.1688 86.1012 34.4587C86.8113 33.7486 87.7745 33.3496 88.7788 33.3496Z" fill="white"/>
<path d="M102.796 33.4159C103.801 33.4159 104.764 33.8148 105.474 34.525C106.184 35.2351 106.583 36.1983 106.583 37.2026V42.3179H99.0095V37.2026C99.0095 36.1983 99.4085 35.2351 100.119 34.525C100.829 33.8148 101.792 33.4159 102.796 33.4159Z" fill="white"/>
<path d="M108.377 56.0696C109.381 56.0696 110.344 56.4686 111.054 57.1787C111.764 57.8889 112.163 58.852 112.163 59.8563V64.9717H104.59V59.8563C104.59 58.852 104.989 57.8889 105.699 57.1787C106.409 56.4686 107.372 56.0696 108.377 56.0696Z" fill="white"/>
<path d="M70.9083 56.0696C71.9126 56.0696 72.8757 56.4686 73.5859 57.1787C74.296 57.8889 74.695 58.852 74.695 59.8563V64.9717H67.1216V59.8563C67.1216 59.3591 67.2195 58.8666 67.4098 58.4072C67.6001 57.9478 67.8791 57.5304 68.2307 57.1787C68.5823 56.8271 68.9997 56.5482 69.4592 56.3579C69.9186 56.1676 70.411 56.0696 70.9083 56.0696Z" fill="white"/>
<path d="M132.216 52.4614L119.604 46.881C119.537 46.8511 119.463 46.8356 119.389 46.8356H59.2843C59.2157 46.8356 59.1477 46.8488 59.0842 46.8747L45.3564 52.4551C45.2422 52.5015 45.1477 52.5862 45.0891 52.6946C45.0304 52.803 45.0113 52.9284 45.0349 53.0494C45.0586 53.1703 45.1235 53.2793 45.2187 53.3577C45.3138 53.436 45.4333 53.4789 45.5565 53.4789H49.1182V71.8144H48.7196V73.6746H128.838V71.8144H128.174V53.4789H132.001C132.123 53.4789 132.241 53.437 132.336 53.3602C132.43 53.2835 132.496 53.1765 132.521 53.0573C132.546 52.9381 132.53 52.8138 132.474 52.7053C132.419 52.5968 132.328 52.5107 132.216 52.4614ZM127.111 71.8144H50.1811V53.4789H127.111V71.8144Z" fill="#CACACA"/>
<path d="M79.4782 41.4543H69.7789V43.0487H79.4782V41.4543Z" fill="#CACACA"/>
<path d="M93.6949 41.4543H83.9956V43.0487H93.6949V41.4543Z" fill="#CACACA"/>
<path d="M107.912 41.4543H98.2123V43.0487H107.912V41.4543Z" fill="#CACACA"/>
<path d="M113.226 64.4402H103.527V66.0346H113.226V64.4402Z" fill="#CACACA"/>
<path d="M75.6251 64.4402H65.9258V66.0346H75.6251V64.4402Z" fill="#CACACA"/>
<path d="M147.837 73.7559H0.162816C0.119635 73.7559 0.0782216 73.7387 0.0476877 73.7082C0.0171537 73.6776 0 73.6362 0 73.5931C0 73.5499 0.0171537 73.5085 0.0476877 73.4779C0.0782216 73.4474 0.119635 73.4302 0.162816 73.4302H147.837C147.88 73.4302 147.922 73.4474 147.952 73.4779C147.983 73.5085 148 73.5499 148 73.5931C148 73.6362 147.983 73.6776 147.952 73.7082C147.922 73.7387 147.88 73.7559 147.837 73.7559Z" fill="#3F3D56"/>
<path d="M110.693 28.3594C110.693 28.4637 110.692 28.5695 110.69 28.6737C110.688 28.7991 110.685 28.9228 110.68 29.0482C110.675 29.1572 110.671 29.2647 110.664 29.3722C110.644 29.732 110.614 30.0902 110.571 30.45C110.561 30.5412 110.55 30.6307 110.537 30.7219C110.527 30.7919 110.517 30.8636 110.506 30.9352C110.495 31.015 110.483 31.0948 110.47 31.1745C110.444 31.3439 110.415 31.5132 110.382 31.6825C110.366 31.7672 110.35 31.8519 110.332 31.9365C110.298 32.1042 110.26 32.2736 110.221 32.4413C110.218 32.4543 110.215 32.4689 110.211 32.482C110.192 32.565 110.172 32.6464 110.151 32.7294C110.145 32.7539 110.14 32.7767 110.132 32.8011C110.117 32.8629 110.101 32.9248 110.084 32.9867C110.062 33.073 110.039 33.1576 110.014 33.2439C109.975 33.3775 109.936 33.5093 109.896 33.6428C109.89 33.6567 109.886 33.6708 109.883 33.6852C109.804 33.9375 109.721 34.1866 109.63 34.4341C109.583 34.5644 109.532 34.6963 109.482 34.8265C109.432 34.9568 109.379 35.087 109.326 35.2157C109.274 35.341 109.22 35.4664 109.166 35.5901C109.153 35.6194 109.14 35.6487 109.125 35.678C109.068 35.8067 109.01 35.932 108.95 36.0574C108.948 36.059 108.948 36.0623 108.946 36.0639C108.899 36.1649 108.849 36.2658 108.798 36.3651C108.798 36.3681 108.797 36.371 108.795 36.3733C108.746 36.471 108.696 36.5686 108.643 36.6647L108.56 36.8226L108.551 36.8406C108.446 37.0343 108.339 37.2264 108.225 37.4169C108.201 37.4593 108.176 37.5016 108.152 37.5423C108.127 37.5846 108.101 37.6269 108.075 37.6676C108.059 37.697 108.041 37.7263 108.022 37.7556C107.987 37.8109 107.953 37.8679 107.917 37.9233C107.911 37.9347 107.903 37.9461 107.896 37.9575C107.834 38.0535 107.772 38.148 107.711 38.244C107.634 38.3596 107.556 38.4736 107.476 38.5876L105.708 41.4173L105.631 41.3538L105.61 41.3343H105.609L105.539 41.2757L105.346 41.1128C105.288 41.1698 105.231 41.2268 105.172 41.2822C105.149 41.3049 105.125 41.3261 105.102 41.3489C105.084 41.3652 105.068 41.3815 105.05 41.3977C101.993 44.383 97.9269 46.1116 93.6562 46.2415H93.6514C90.4184 46.3303 87.2181 45.575 84.3659 44.05C84.3024 44.0175 84.2406 43.9849 84.1787 43.9474C83.8075 43.7455 83.4444 43.5323 83.0878 43.3043C83.0862 43.3027 83.0846 43.3027 83.0829 43.3011C82.6694 43.008 82.2656 42.6954 81.8716 42.3632C79.7578 40.5815 78.0855 38.3343 76.9857 35.7979C75.886 33.2614 75.3888 30.5047 75.5332 27.744C75.538 27.6349 75.5446 27.5274 75.5527 27.4183C75.5788 27.0243 75.6189 26.6319 75.6732 26.2412C75.6878 26.1321 75.7041 26.023 75.7204 25.9155H110.527C110.596 26.4137 110.643 26.9147 110.669 27.4183C110.685 27.7326 110.693 28.0452 110.693 28.3594Z" fill="#F0F0F0"/>
<path d="M110.527 25.9156C109.901 21.7484 107.799 17.9444 104.606 15.195C101.412 12.4457 97.3379 10.9336 93.1238 10.9336C88.9097 10.9336 84.8356 12.4457 81.6419 15.195C78.4482 17.9444 76.347 21.7484 75.7204 25.9156C75.7041 26.0231 75.6878 26.1321 75.6732 26.2412C75.6195 26.632 75.5793 27.0244 75.5527 27.4184H110.669C110.643 26.9153 110.596 26.4144 110.527 25.9156Z" fill="#232334"/>
<path d="M94.2639 44.0494H84.1795V35.9825C84.3655 32.2958 87.5165 31.9981 90.4773 32.196C90.9745 32.196 91.4669 32.2939 91.9264 32.4841C92.3858 32.6744 92.8032 32.9533 93.1549 33.3049C93.5065 33.6565 93.7854 34.074 93.9757 34.5334C94.166 34.9928 94.2639 35.4852 94.2639 35.9825V44.0494Z" fill="#232334"/>
<path d="M84.1787 38.3141V38.3157C84.1787 38.3173 84.1803 38.3173 84.1819 38.3173L84.1787 38.3141ZM80.1229 25.9156C80.1164 25.9563 80.1083 25.997 80.1018 26.0377C80.1083 25.997 80.1164 25.9563 80.1246 25.9156H80.1229ZM79.9211 27.4184C79.9162 27.4803 79.9113 27.5421 79.908 27.604C79.9113 27.5421 79.9162 27.4803 79.9227 27.4184C79.9224 27.407 79.923 27.3955 79.9243 27.3842C79.9227 27.3956 79.9227 27.407 79.9211 27.4184ZM84.1787 38.3157C84.1787 38.3173 84.1803 38.3173 84.1819 38.3173L84.1787 38.3141V38.3157ZM80.1229 25.9156C80.1164 25.9563 80.1083 25.997 80.1018 26.0377C80.1083 25.997 80.1164 25.9563 80.1246 25.9156H80.1229ZM79.908 27.604C79.9113 27.5421 79.9162 27.4803 79.9227 27.4184C79.9224 27.407 79.923 27.3955 79.9243 27.3842C79.9227 27.3956 79.9227 27.407 79.9211 27.4184C79.9162 27.4803 79.9113 27.5421 79.908 27.604ZM130.208 57.5557C130.177 57.5221 130.143 57.4906 130.108 57.4612L130.106 57.4596L122.043 50.6555L121.835 50.4797L121.042 49.8105L120.843 49.6428L119.713 48.6887L119.404 48.4282L118.764 47.8877L118.437 47.6109L115.35 45.0074L113.58 43.5144L113.342 43.3141L108.127 38.9132C108.207 38.7993 108.285 38.6853 108.362 38.5697C108.424 38.4736 108.486 38.3792 108.547 38.2831C108.554 38.2717 108.562 38.2603 108.569 38.2489C108.604 38.1936 108.639 38.1366 108.673 38.0812C108.692 38.0519 108.71 38.0226 108.727 37.9933C108.753 37.9526 108.779 37.9103 108.803 37.8679C108.827 37.8272 108.852 37.7849 108.876 37.7426C108.99 37.5521 109.098 37.36 109.202 37.1662L109.212 37.1483L109.295 36.9904C109.347 36.8943 109.397 36.7966 109.446 36.6989C109.448 36.6967 109.449 36.6938 109.449 36.6908C109.5 36.5915 109.55 36.4905 109.598 36.3896C109.599 36.388 109.599 36.3847 109.601 36.3831C109.661 36.2577 109.72 36.1323 109.777 36.0037C109.791 35.9744 109.804 35.9451 109.817 35.9158C109.871 35.7921 109.925 35.6667 109.977 35.5413C110.031 35.4127 110.083 35.2824 110.133 35.1522C110.184 35.0219 110.234 34.8901 110.281 34.7598C110.371 34.5107 110.455 34.261 110.534 34.0108C110.537 33.9965 110.542 33.9824 110.547 33.9685C110.588 33.835 110.627 33.7031 110.666 33.5696C110.69 33.4833 110.713 33.3987 110.736 33.3124C110.752 33.2505 110.768 33.1886 110.783 33.1267C110.791 33.1023 110.796 33.0795 110.802 33.0551C110.824 32.9721 110.843 32.8907 110.863 32.8076C110.866 32.7946 110.869 32.78 110.872 32.7669C110.911 32.5992 110.949 32.4299 110.983 32.2622C111.001 32.1775 111.017 32.0929 111.034 32.0082C111.065 31.8389 111.095 31.6695 111.122 31.5002C111.135 31.4204 111.146 31.3407 111.157 31.2609C111.169 31.1893 111.179 31.1176 111.188 31.0476C111.201 30.9564 111.213 30.8669 111.222 30.7757C111.265 30.4159 111.296 30.0577 111.315 29.6978C111.322 29.5904 111.327 29.4829 111.332 29.3738C111.336 29.2485 111.34 29.1247 111.341 28.9994C111.343 28.8952 111.345 28.7893 111.345 28.6851C111.345 28.3709 111.336 28.0583 111.32 27.744C111.294 27.2409 111.247 26.74 111.179 26.2412C110.595 21.9778 108.497 18.0668 105.268 15.2229C102.038 12.379 97.8931 10.7923 93.5902 10.7528C89.2872 10.7133 85.1138 12.2236 81.8327 15.0077C78.5515 17.7917 76.3819 21.6636 75.7204 25.9156C75.7041 26.0231 75.6878 26.1322 75.6732 26.2412C75.6195 26.632 75.5793 27.0244 75.5527 27.4184C75.5446 27.5275 75.5381 27.6349 75.5332 27.744C75.3888 30.5048 75.886 33.2615 76.9857 35.7979C78.0855 38.3344 79.7578 40.5816 81.8716 42.3633C82.2656 42.6955 82.6694 43.0081 83.0829 43.3011C83.0846 43.3028 83.0862 43.3028 83.0878 43.3044C83.2262 43.4021 83.3646 43.4981 83.5046 43.5926C83.7277 43.7391 83.9524 43.8824 84.1787 44.0191C84.1966 44.0289 84.2145 44.0403 84.2324 44.0501C84.4278 44.1673 84.6248 44.2796 84.8218 44.3887H84.8234C85.5568 44.7919 86.318 45.1423 87.1013 45.4373C89.3993 46.3019 91.8502 46.6865 94.3026 46.5672H94.3075C97.1698 46.4288 99.9569 45.604 102.434 44.1624C102.793 43.954 103.148 43.731 103.495 43.4933C103.582 43.4346 103.669 43.3744 103.754 43.3142C103.858 43.2409 103.962 43.1644 104.067 43.0878C104.068 43.0878 104.068 43.0862 104.07 43.0862C104.078 43.0797 104.086 43.0737 104.094 43.0683C104.164 43.0146 104.236 42.9608 104.304 42.9087C104.322 42.8957 104.34 42.8827 104.358 42.868C104.363 42.8647 104.367 42.8609 104.371 42.8566C104.412 42.8273 104.451 42.7948 104.492 42.7638C104.532 42.7329 104.571 42.7003 104.612 42.6678C104.619 42.6634 104.626 42.6585 104.632 42.6531C104.677 42.6157 104.723 42.5798 104.768 42.5424C104.816 42.505 104.861 42.4659 104.905 42.4284C104.951 42.391 104.995 42.3535 105.04 42.3145C105.079 42.2819 105.12 42.2477 105.159 42.2119C105.172 42.2021 105.184 42.1907 105.197 42.1793C105.202 42.1745 105.207 42.1701 105.213 42.1663C105.267 42.1207 105.319 42.0735 105.371 42.0263C105.384 42.0149 105.395 42.0035 105.408 41.9921C105.488 41.9204 105.568 41.8488 105.646 41.7739C105.664 41.7576 105.683 41.7397 105.701 41.7234C105.719 41.7071 105.736 41.6909 105.753 41.6746C105.776 41.6518 105.801 41.6306 105.823 41.6078C105.882 41.5525 105.939 41.4955 105.998 41.4385L106.19 41.6013L106.26 41.6599H106.261L106.283 41.6795L106.359 41.743L107.496 42.7036L107.52 42.7247L107.54 42.7394L107.668 42.8485L107.925 43.0667L108.183 43.2832L108.22 43.3142L109.417 44.3236L109.583 44.4636L110.737 45.4373L116.713 50.4797L116.921 50.6556L125.099 57.5557L127.196 59.3255L127.976 59.9833C128.142 60.1234 128.333 60.2294 128.54 60.2954C128.746 60.3614 128.964 60.3861 129.18 60.3679C129.396 60.3498 129.607 60.2892 129.799 60.1897C129.992 60.0902 130.163 59.9536 130.303 59.7879C130.42 59.6504 130.513 59.4941 130.578 59.3255C130.696 59.0267 130.724 58.6998 130.659 58.3852C130.593 58.0706 130.436 57.7822 130.208 57.5557ZM83.0455 19.8132C84.6789 17.8776 86.8266 16.4435 89.2405 15.6767C91.6543 14.9099 94.2359 14.8417 96.6869 15.4798C99.1379 16.118 101.358 17.4366 103.092 19.2832C104.825 21.1298 106.001 23.4292 106.483 25.9156C106.504 26.0247 106.524 26.1321 106.542 26.2412C106.608 26.6304 106.657 27.0244 106.686 27.4184C106.695 27.5275 106.703 27.6349 106.708 27.744C106.722 27.9883 106.729 28.2341 106.729 28.4783C106.73 29.9598 106.484 31.4311 106.003 32.832V32.8337C105.464 34.4045 104.638 35.8611 103.565 37.1288C103.542 37.1548 103.52 37.1825 103.495 37.2086C103.28 37.4625 103.054 37.7068 102.821 37.9396C102.82 37.9412 102.818 37.9445 102.816 37.9461C102.736 38.0259 102.655 38.1073 102.574 38.1822C102.408 38.3434 102.238 38.4964 102.066 38.643C101.807 38.8693 101.541 39.0815 101.27 39.2796C101.178 39.3463 101.087 39.4115 100.994 39.4766C100.903 39.5417 100.81 39.6036 100.718 39.6655C100.532 39.7892 100.343 39.9081 100.153 40.0204C100.058 40.0774 99.9605 40.1327 99.8644 40.1865C99.7683 40.2418 99.6707 40.2939 99.573 40.3444C99.4753 40.3965 99.3776 40.447 99.2783 40.4958C99.0813 40.5951 98.8826 40.6879 98.6807 40.7742C98.5798 40.8198 98.4789 40.8621 98.3779 40.9012C98.3144 40.9273 98.2525 40.9533 98.189 40.9761C98.1642 40.9876 98.1386 40.9974 98.1125 41.0054C98.0783 41.0201 98.0441 41.0331 98.0099 41.0445C97.9988 41.0495 97.9874 41.0539 97.9758 41.0575C97.9057 41.0852 97.8373 41.1096 97.7657 41.1341C97.6631 41.1715 97.5605 41.2057 97.4563 41.2383C97.3522 41.2725 97.2496 41.305 97.1454 41.3343C97.0412 41.3669 96.9353 41.3962 96.8311 41.4239C96.7253 41.4532 96.6211 41.4809 96.5153 41.5053C96.4029 41.5346 96.2906 41.5606 96.1766 41.5851C96.0773 41.6079 95.9796 41.6274 95.8803 41.6453C95.7875 41.6648 95.6931 41.6811 95.6003 41.6974C95.47 41.7202 95.3397 41.7414 95.2079 41.7593C95.1362 41.7707 95.0662 41.7805 94.9946 41.787C94.9637 41.7918 94.9343 41.7951 94.905 41.7984C94.8138 41.8114 94.7227 41.8212 94.6331 41.8293C94.6087 41.8309 94.5859 41.8342 94.5631 41.8358C94.4638 41.8456 94.3628 41.8537 94.2635 41.8619C94.0502 41.8765 93.8386 41.8863 93.6253 41.8912C93.5178 41.8928 93.4087 41.8944 93.3013 41.8944C93.1938 41.8944 93.0863 41.8928 92.9789 41.8895C92.9789 41.8895 92.9789 41.8912 92.9773 41.8895C92.9756 41.8912 92.9756 41.8912 92.974 41.8895C92.9738 41.8897 92.9735 41.8899 92.9733 41.89C92.973 41.8902 92.9727 41.8902 92.9724 41.8902C92.9721 41.8902 92.9718 41.8902 92.9715 41.89C92.9712 41.8899 92.971 41.8897 92.9708 41.8895C92.9655 41.8912 92.9598 41.8912 92.9545 41.8895C92.878 41.8895 92.8014 41.8863 92.7265 41.8814C92.6712 41.8798 92.6142 41.8781 92.5572 41.8732C92.4807 41.87 92.4042 41.8651 92.3276 41.8586C92.3032 41.8586 92.2788 41.8554 92.2544 41.8537C92.2429 41.8534 92.2315 41.8524 92.2202 41.8505C92.142 41.844 92.0623 41.8374 91.9841 41.8293C91.945 41.826 91.9043 41.8228 91.8652 41.8179C91.7464 41.8049 91.6275 41.7902 91.5103 41.7739C91.3768 41.7577 91.2433 41.7381 91.1114 41.7137C91.0495 41.7055 90.9893 41.6941 90.929 41.6828C90.8493 41.6697 90.7695 41.6551 90.6897 41.6388C90.6067 41.6225 90.5237 41.6062 90.4406 41.5867C90.3738 41.572 90.3055 41.5574 90.2387 41.5411C90.2061 41.5346 90.1736 41.5265 90.1426 41.5183C89.9717 41.4776 89.8023 41.4337 89.6346 41.3848C89.5288 41.3555 89.423 41.3246 89.3188 41.292C89.1755 41.248 89.0339 41.2008 88.8922 41.1504C88.8369 41.1324 88.7831 41.1129 88.7277 41.0917C88.6724 41.0738 88.6187 41.0527 88.5633 41.0315C88.5129 41.0136 88.4624 40.994 88.4135 40.9745C88.3321 40.9436 88.2523 40.911 88.1725 40.8785C88.0081 40.8117 87.8469 40.7417 87.6857 40.6668C87.5945 40.6228 87.5034 40.5805 87.4138 40.5365C87.0605 40.3656 86.7126 40.1756 86.3702 39.9667C86.2855 39.9162 86.2009 39.8625 86.1162 39.8088C86.0103 39.7436 85.9078 39.6752 85.8052 39.6069C85.7482 39.5678 85.6929 39.5303 85.6375 39.4913C85.5349 39.4196 85.434 39.3463 85.3347 39.2731C85.2826 39.2356 85.2304 39.1966 85.18 39.1575C84.9992 39.0207 84.8218 38.8774 84.6476 38.7309C84.5646 38.6609 84.4815 38.5892 84.4001 38.516C84.3659 38.4867 84.3317 38.4557 84.2975 38.4248C84.2585 38.389 84.2194 38.3548 84.1819 38.3173L84.1787 38.3141C84.1217 38.2636 84.0647 38.2099 84.0093 38.1562C83.9231 38.0748 83.8384 37.9917 83.757 37.9071C83.6723 37.824 83.5909 37.7377 83.5111 37.6531C83.4297 37.5684 83.3516 37.4821 83.2751 37.3942C83.1969 37.3079 83.1204 37.22 83.0455 37.1304C82.9722 37.0458 82.9006 36.9578 82.8322 36.8715C82.6661 36.6664 82.5076 36.4574 82.3568 36.2447C82.2868 36.147 82.22 36.0493 82.1549 35.95C82.0849 35.849 82.0181 35.7465 81.9546 35.6439C81.8878 35.5413 81.8243 35.4371 81.7625 35.3313C81.7609 35.3277 81.7587 35.3244 81.756 35.3215C81.6339 35.1147 81.5166 34.9063 81.4075 34.6947C81.2952 34.4798 81.1894 34.2627 81.09 34.0434C81.0396 33.9343 80.9907 33.8236 80.9451 33.7129C80.8507 33.4898 80.7628 33.2668 80.6814 33.0405C80.6407 32.9314 80.6032 32.8223 80.5658 32.7116C80.5646 32.7042 80.5624 32.6971 80.5593 32.6904C80.4844 32.4657 80.416 32.2394 80.3557 32.0115C80.3541 32.0082 80.3541 32.005 80.3525 32.0017C80.3215 31.8894 80.2923 31.777 80.2662 31.663C80.2401 31.5637 80.2174 31.4644 80.1962 31.3635C80.1718 31.2511 80.1474 31.1388 80.1262 31.0248C80.1148 30.9662 80.1034 30.9076 80.0936 30.849C80.0838 30.8001 80.0757 30.7496 80.0675 30.7008C80.0594 30.652 80.0513 30.6015 80.0431 30.551C80.0268 30.4517 80.0122 30.3524 79.9992 30.2531C79.9829 30.1358 79.9699 30.0186 79.9568 29.8997C79.9422 29.7581 79.9292 29.6164 79.9178 29.4732C79.9096 29.3771 79.9047 29.2794 79.8999 29.1817C79.895 29.0922 79.8901 29.0026 79.8885 28.9131C79.8868 28.9083 79.8868 28.9032 79.8885 28.8984C79.8883 28.8982 79.8881 28.898 79.888 28.8977C79.8878 28.8974 79.8878 28.8971 79.8878 28.8968C79.8878 28.8965 79.8878 28.8962 79.888 28.8959C79.8881 28.8956 79.8883 28.8954 79.8885 28.8952C79.8868 28.8935 79.8868 28.8935 79.8885 28.8919C79.8883 28.8917 79.8881 28.8914 79.888 28.8912C79.8878 28.8909 79.8878 28.8906 79.8878 28.8903C79.8878 28.89 79.8878 28.8897 79.888 28.8894C79.8881 28.8891 79.8883 28.8889 79.8885 28.8887C79.8868 28.8528 79.8852 28.817 79.8852 28.7812C79.882 28.6754 79.8803 28.5696 79.8803 28.4637C79.8803 28.3676 79.882 28.2732 79.8836 28.1772C79.8868 28.0436 79.8917 27.9101 79.8982 27.7766C79.8982 27.7473 79.9015 27.7196 79.9031 27.6903C79.9047 27.661 79.9064 27.6333 79.908 27.604C79.9113 27.5421 79.9162 27.4803 79.9227 27.4184C79.9224 27.407 79.923 27.3955 79.9243 27.3842C79.9292 27.3142 79.9357 27.2442 79.9422 27.1742C79.9552 27.0342 79.9715 26.8925 79.9894 26.7525C79.9992 26.6825 80.0073 26.6125 80.0187 26.5425C80.0252 26.4936 80.0333 26.4432 80.0415 26.3927C80.048 26.3422 80.0562 26.2917 80.0659 26.2413C80.0773 26.1745 80.0888 26.1061 80.1018 26.0377C80.1083 25.997 80.1164 25.9563 80.1246 25.9156C80.1555 25.7528 80.1896 25.59 80.2271 25.4272C80.2645 25.2627 80.3069 25.0999 80.3525 24.9371C80.3964 24.7727 80.4453 24.6082 80.4974 24.4438C80.5218 24.3607 80.5479 24.2793 80.5772 24.1979C80.6309 24.0335 80.6879 23.8707 80.7514 23.7095C80.7807 23.6297 80.8116 23.5483 80.8458 23.4685C80.911 23.3073 80.9793 23.1461 81.0493 22.9882C81.0851 22.9084 81.121 22.8286 81.16 22.7489C81.2333 22.5909 81.3098 22.433 81.3929 22.2783C81.4727 22.1204 81.559 21.9657 81.6469 21.8127C81.7348 21.6596 81.826 21.5066 81.922 21.3551C81.966 21.2803 82.0148 21.2037 82.0653 21.1305C82.163 20.9807 82.2656 20.8309 82.3698 20.6843C82.5799 20.388 82.8062 20.0965 83.0455 19.8132ZM79.9211 27.4184C79.9162 27.4803 79.9113 27.5421 79.908 27.604C79.9113 27.5421 79.9162 27.4803 79.9227 27.4184C79.9224 27.407 79.923 27.3955 79.9243 27.3842C79.9227 27.3956 79.9227 27.407 79.9211 27.4184ZM80.1229 25.9156C80.1164 25.9563 80.1083 25.997 80.1018 26.0377C80.1083 25.997 80.1164 25.9563 80.1246 25.9156H80.1229ZM84.1787 38.3141V38.3157C84.1787 38.3173 84.1803 38.3173 84.1819 38.3173L84.1787 38.3141Z" fill="#3F3D56"/>
<path opacity="0.3" d="M84.6478 38.7307C82.0725 36.5575 80.4086 33.4953 79.9866 30.152C79.5646 26.8088 80.4153 23.4292 82.3698 20.6841C82.1131 20.9426 81.865 21.2134 81.6254 21.4963C80.4885 22.8436 79.6281 24.4017 79.0934 26.0815C78.5587 27.7614 78.36 29.5301 78.5089 31.2867C78.6577 33.0433 79.151 34.7534 79.9607 36.3194C80.7705 37.8853 81.8807 39.2764 83.228 40.4133C85.9491 42.7093 89.4708 43.8304 93.0184 43.5298C96.5661 43.2293 99.849 41.5318 102.145 38.8107C102.384 38.5274 102.609 38.2372 102.82 37.9403C100.443 40.3287 97.2549 41.7358 93.8883 41.8823C90.5218 42.0287 87.2233 40.9037 84.6478 38.7307Z" fill="black"/>
</svg>
