<svg width="128" height="120" viewBox="0 0 128 120" fill="none" xmlns="http://www.w3.org/2000/svg">
<path d="M60.3442 0.995164L56.4274 3.13228L8.17108 29.462L4.25424 31.5991C2.35366 32.6388 0.943141 34.3901 0.332124 36.4685C-0.278892 38.547 -0.0405039 40.7829 0.994991 42.6858L36.9303 108.547C37.9701 110.448 39.7213 111.858 41.7998 112.469C43.8782 113.08 46.1142 112.842 48.0171 111.806L48.0272 111.801L104.097 81.208L104.107 81.2025C106.008 80.1627 107.418 78.4115 108.029 76.333C108.64 74.2546 108.402 72.0186 107.366 70.1157L71.431 4.25444C70.3912 2.35386 68.64 0.943335 66.5615 0.332313C64.4831 -0.278709 62.2471 -0.0403255 60.3442 0.995164Z" fill="#F2F2F2"/>
<path d="M61.471 3.06027L56.8318 5.59153L10.0201 31.133L5.38094 33.6642C4.02749 34.4047 3.02302 35.6517 2.58789 37.1319C2.15277 38.612 2.32254 40.2042 3.05994 41.5593L38.9953 107.421C39.7357 108.774 40.9828 109.779 42.4629 110.214C43.943 110.649 45.5353 110.479 46.8904 109.742L46.9005 109.736L102.97 79.1432L102.98 79.1376C104.334 78.3972 105.338 77.1501 105.773 75.67C106.209 74.1899 106.039 72.5976 105.301 71.2426L69.3661 5.3813C68.6256 4.02787 67.3786 3.0234 65.8985 2.58827C64.4184 2.15314 62.8261 2.32289 61.471 3.06027Z" fill="white"/>
<path d="M62.2445 23.5037L41.3326 34.9136C41.0158 35.0865 40.6433 35.1264 40.2971 35.0246C39.9508 34.9228 39.6592 34.6877 39.4864 34.3709C39.3135 34.0541 39.2736 33.6816 39.3754 33.3353C39.4772 32.9891 39.7123 32.6975 40.0291 32.5246L60.941 21.1147C61.2578 20.9418 61.6303 20.9019 61.9765 21.0037C62.3228 21.1055 62.6144 21.3406 62.7872 21.6574C62.9601 21.9742 63 22.3467 62.8982 22.6929C62.7964 23.0392 62.5613 23.3308 62.2445 23.5037Z" fill="#F2F2F2"/>
<path d="M69.3713 24.8466L43.5321 38.945C43.2153 39.1178 42.8428 39.1577 42.4966 39.056C42.1504 38.9542 41.8587 38.719 41.6859 38.4022C41.513 38.0854 41.4731 37.7129 41.5749 37.3667C41.6767 37.0204 41.9118 36.7288 42.2286 36.556L68.0678 22.4576C68.2247 22.372 68.3969 22.3181 68.5745 22.2991C68.7522 22.28 68.9319 22.2962 69.1033 22.3466C69.2748 22.397 69.4346 22.4806 69.5737 22.5928C69.7128 22.705 69.8285 22.8434 69.9141 23.0003C69.9996 23.1572 70.0535 23.3294 70.0725 23.507C70.0916 23.6847 70.0754 23.8644 70.025 24.0358C69.9746 24.2073 69.891 24.3671 69.7788 24.5062C69.6666 24.6453 69.5282 24.761 69.3713 24.8466Z" fill="#F2F2F2"/>
<path d="M32.7355 30.164L13.456 40.6833C13.3042 40.7662 13.1916 40.9059 13.1428 41.0718C13.094 41.2377 13.1132 41.4162 13.1959 41.568L21.4056 56.6145C21.4885 56.7663 21.6282 56.8789 21.7941 56.9277C21.96 56.9765 22.1385 56.9573 22.2903 56.8746L41.5698 46.3552C41.7216 46.2724 41.8342 46.1327 41.883 45.9668C41.9317 45.8009 41.9126 45.6224 41.8298 45.4706L33.6201 30.4241C33.5373 30.2723 33.3976 30.1597 33.2317 30.1109C33.0658 30.0621 32.8873 30.0812 32.7355 30.164Z" fill="#F2F2F2"/>
<path d="M72.6205 42.5953L44.2561 58.0715C44.0993 58.1571 43.9271 58.211 43.7494 58.23C43.5717 58.2491 43.392 58.2329 43.2206 58.1825C43.0492 58.1321 42.8893 58.0485 42.7502 57.9363C42.6111 57.8241 42.4955 57.6856 42.4099 57.5288C42.3243 57.3719 42.2704 57.1997 42.2514 57.0221C42.2324 56.8444 42.2485 56.6647 42.2989 56.4932C42.3493 56.3218 42.433 56.162 42.5451 56.0229C42.6573 55.8838 42.7958 55.7681 42.9526 55.6825L71.317 40.2063C71.6338 40.0335 72.0063 39.9936 72.3525 40.0953C72.6987 40.1971 72.9904 40.4323 73.1632 40.7491C73.3361 41.0659 73.376 41.4384 73.2742 41.7846C73.1724 42.1309 72.9373 42.4225 72.6205 42.5953Z" fill="#F2F2F2"/>
<path d="M79.7473 43.9382L46.4557 62.1029C46.1389 62.2757 45.7664 62.3156 45.4201 62.2139C45.0739 62.1121 44.7823 61.8769 44.6094 61.5601C44.4366 61.2433 44.3966 60.8708 44.4984 60.5246C44.6002 60.1783 44.8354 59.8867 45.1522 59.7139L78.4438 41.5492C78.7606 41.3764 79.1331 41.3365 79.4793 41.4382C79.8256 41.54 80.1172 41.7752 80.2901 42.092C80.4629 42.4088 80.5028 42.7813 80.4011 43.1275C80.2993 43.4738 80.0641 43.7654 79.7473 43.9382Z" fill="#F2F2F2"/>
<path d="M33.4537 70.746C36.642 70.746 39.2266 68.1614 39.2266 64.9731C39.2266 61.7848 36.642 59.2001 33.4537 59.2001C30.2654 59.2001 27.6807 61.7848 27.6807 64.9731C27.6807 68.1614 30.2654 70.746 33.4537 70.746Z" fill="#F2F2F2"/>
<path d="M119.829 28.1334H55.9328C53.7664 28.1359 51.6895 28.9975 50.1576 30.5294C48.6257 32.0613 47.764 34.1383 47.7616 36.3047V111.332C47.764 113.498 48.6257 115.575 50.1576 117.107C51.6895 118.639 53.7664 119.501 55.9328 119.503H119.829C121.995 119.501 124.072 118.639 125.604 117.107C127.136 115.575 127.998 113.498 128 111.332V36.3047C127.998 34.1383 127.136 32.0613 125.604 30.5294C124.072 28.9975 121.995 28.1359 119.829 28.1334Z" fill="#E6E6E6"/>
<path d="M119.829 30.4856H55.933C54.3902 30.4873 52.9111 31.1009 51.8203 32.1918C50.7294 33.2827 50.1157 34.7618 50.114 36.3045V111.332C50.1157 112.874 50.7294 114.353 51.8203 115.444C52.9111 116.535 54.3902 117.149 55.933 117.15H119.829C121.372 117.149 122.851 116.535 123.942 115.444C125.032 114.353 125.646 112.874 125.648 111.332V36.3045C125.646 34.7618 125.032 33.2827 123.942 32.1919C122.851 31.101 121.372 30.4873 119.829 30.4856Z" fill="white"/>
<path d="M110.716 48.8021H86.8941C86.5332 48.8021 86.1871 48.6587 85.9319 48.4035C85.6768 48.1484 85.5334 47.8022 85.5334 47.4414C85.5334 47.0805 85.6768 46.7344 85.9319 46.4792C86.1871 46.224 86.5332 46.0806 86.8941 46.0806H110.716C110.895 46.0804 111.072 46.1155 111.237 46.1838C111.403 46.2521 111.553 46.3523 111.679 46.4786C111.806 46.605 111.906 46.7551 111.975 46.9203C112.043 47.0855 112.078 47.2625 112.078 47.4414C112.078 47.6202 112.043 47.7972 111.975 47.9624C111.906 48.1276 111.806 48.2777 111.679 48.4041C111.553 48.5305 111.403 48.6307 111.237 48.6989C111.072 48.7672 110.895 48.8023 110.716 48.8021Z" fill="#232334"/>
<path d="M116.329 53.3946H86.8941C86.5332 53.3946 86.1871 53.2512 85.9319 52.996C85.6768 52.7408 85.5334 52.3947 85.5334 52.0338C85.5334 51.6729 85.6768 51.3268 85.9319 51.0716C86.1871 50.8165 86.5332 50.6731 86.8941 50.6731H116.329C116.69 50.6731 117.036 50.8165 117.291 51.0716C117.547 51.3268 117.69 51.6729 117.69 52.0338C117.69 52.3947 117.547 52.7408 117.291 52.996C117.036 53.2512 116.69 53.3946 116.329 53.3946Z" fill="#232334"/>
<path d="M81.6222 40.5151H59.6596C59.4867 40.5152 59.3209 40.5839 59.1986 40.7062C59.0764 40.8284 59.0077 40.9942 59.0076 41.1671V58.3077C59.0077 58.4806 59.0764 58.6464 59.1986 58.7686C59.3209 58.8909 59.4867 58.9596 59.6596 58.9597H81.6222C81.7951 58.9596 81.961 58.8909 82.0832 58.7686C82.2055 58.6464 82.2742 58.4806 82.2742 58.3077V41.1671C82.2742 40.9942 82.2055 40.8284 82.0832 40.7062C81.9609 40.5839 81.7951 40.5152 81.6222 40.5151Z" fill="#E6E6E6"/>
<path d="M65.6839 51.0403C65.693 52.4873 65.1596 53.8852 64.1891 54.9585C63.2287 56.0124 61.7991 56.7113 60.3563 56.4221C59.0278 56.1559 57.9483 54.9947 58.083 53.5901C58.1053 53.2858 58.1937 52.9901 58.3421 52.7236C58.4904 52.457 58.6951 52.226 58.9419 52.0466C59.1887 51.8673 59.4716 51.7439 59.771 51.6851C60.0703 51.6263 60.3789 51.6335 60.6751 51.7062C61.9372 52.0337 62.44 53.8526 61.3884 54.7063C61.136 54.9111 60.7735 54.5529 61.0282 54.3461C61.7234 53.7817 61.5086 52.5471 60.6695 52.2374C59.6926 51.877 58.6575 52.6523 58.5873 53.6511C58.504 54.8352 59.4111 55.727 60.5236 55.937C61.7271 56.1641 62.9203 55.5481 63.7357 54.698C64.6703 53.7107 65.186 52.3997 65.1746 51.0403C65.1768 50.9743 65.2047 50.9118 65.2522 50.8659C65.2997 50.82 65.3632 50.7943 65.4292 50.7943C65.4953 50.7943 65.5588 50.82 65.6063 50.8659C65.6538 50.9118 65.6816 50.9743 65.6839 51.0403Z" fill="#2F2E41"/>
<path d="M70.6579 54.2785C75.6766 54.2785 79.745 50.2101 79.745 45.1914C79.745 40.1727 75.6766 36.1042 70.6579 36.1042C65.6392 36.1042 61.5707 40.1727 61.5707 45.1914C61.5707 50.2101 65.6392 54.2785 70.6579 54.2785Z" fill="#FDB4B4"/>
<path d="M70.1929 49.0689L70.1835 48.7293C70.8152 48.7117 71.3722 48.6721 71.7907 48.3663C71.9093 48.2747 72.0069 48.1586 72.0766 48.0259C72.1464 47.8933 72.1868 47.7471 72.195 47.5974C72.2024 47.506 72.1885 47.4141 72.1546 47.3288C72.1207 47.2436 72.0675 47.1673 71.9993 47.106C71.7215 46.8713 71.2744 46.9473 70.9486 47.0967L70.6676 47.2255L71.2065 43.288L71.5429 43.3341L71.0846 46.6835C71.5273 46.5533 71.9375 46.6094 72.2185 46.8466C72.3264 46.9408 72.411 47.0587 72.4658 47.191C72.5206 47.3233 72.5441 47.4665 72.5344 47.6094C72.5245 47.8105 72.4707 48.007 72.3768 48.1851C72.283 48.3632 72.1513 48.5187 71.991 48.6406C71.4533 49.0335 70.7544 49.0531 70.1929 49.0689Z" fill="#2F2E41"/>
<path d="M75.0356 43.6229H73.2067V43.9624H75.0356V43.6229Z" fill="#2F2E41"/>
<path d="M69.2628 43.6229H67.4339V43.9624H69.2628V43.6229Z" fill="#2F2E41"/>
<path d="M65.6244 58.9594C66.3055 58.5272 67.0417 58.1886 67.813 57.9526C67.7394 57.6909 67.7406 57.4139 67.8164 57.1528C67.9188 56.8231 68.1251 56.5353 68.4045 56.3324C68.6839 56.1295 69.0214 56.0224 69.3666 56.0271H71.5807C71.9265 56.0227 72.2646 56.1301 72.5445 56.3332C72.8244 56.5363 73.0313 56.8244 73.1344 57.1545C73.2102 57.415 73.2113 57.6915 73.1377 57.9526C73.9089 58.1889 74.645 58.5275 75.3263 58.9594H65.6244Z" fill="#2F2E41"/>
<path d="M81.0669 41.8188C80.9014 41.6183 80.6976 41.4526 80.4676 41.3315C80.2658 41.2261 80.0416 41.1708 79.8139 41.1702C79.5012 41.174 79.1976 41.2762 78.9463 41.4622C78.2552 41.9512 77.7764 43.0056 77.7764 44.2264C77.7764 45.7579 78.5302 47.028 79.5099 47.2487C79.6097 47.2711 79.7116 47.2825 79.8139 47.2827C80.9362 47.2827 81.8514 45.9125 81.8514 44.2264C81.8514 43.2484 81.544 42.3774 81.0669 41.8188Z" fill="#3F3D56"/>
<path d="M62.4033 41.3896H62.4016C62.1746 41.2486 61.9132 41.1729 61.646 41.1705C61.4183 41.1711 61.1941 41.2265 60.9923 41.3318C60.7623 41.453 60.5585 41.6186 60.393 41.8191L60.3912 41.8208C59.9159 42.3794 59.6085 43.2505 59.6085 44.2268C59.6085 45.5444 60.1654 46.6684 60.9465 47.098C61.1603 47.2178 61.4009 47.2815 61.646 47.283C61.7005 47.283 61.755 47.2796 61.809 47.2729H61.8107C62.8566 47.1472 63.6835 45.8296 63.6835 44.2268C63.6835 42.9432 63.1521 41.8412 62.4033 41.3896Z" fill="#3F3D56"/>
<path d="M61.0739 46.8056C61.1143 46.8055 61.1542 46.7959 61.1901 46.7774C61.2261 46.7589 61.2571 46.7321 61.2807 46.6993C61.3043 46.6665 61.3197 46.6285 61.3257 46.5885C61.3317 46.5485 61.3281 46.5077 61.3152 46.4694C60.8285 45.0219 60.6821 43.4816 60.8873 41.9683C61.0926 40.455 61.6441 39.0094 62.4989 37.7439C63.3537 36.4784 64.4888 35.427 65.816 34.6715C67.1432 33.916 68.6267 33.4767 70.1513 33.3877C71.6758 33.2988 73.2004 33.5626 74.6064 34.1586C76.0125 34.7547 77.2621 35.6669 78.2583 36.8244C79.2545 37.9819 79.9703 39.3536 80.3502 40.8327C80.7301 42.3119 80.7638 43.8587 80.4487 45.353C80.4347 45.4191 80.4476 45.4881 80.4845 45.5446C80.5214 45.6012 80.5792 45.6409 80.6453 45.6548C80.7114 45.6687 80.7803 45.6559 80.8369 45.619C80.8935 45.5821 80.9331 45.5242 80.9471 45.4582C81.2786 43.8871 81.2434 42.2607 80.8441 40.7055C80.4448 39.1502 79.6923 37.708 78.645 36.4909C77.5976 35.2739 76.2838 34.3147 74.8055 33.688C73.3271 33.0613 71.7242 32.7839 70.1213 32.8775C68.5183 32.971 66.9585 33.433 65.5632 34.2274C64.1678 35.0219 62.9744 36.1274 62.0758 37.458C61.1772 38.7887 60.5976 40.3087 60.3819 41.8998C60.1663 43.4909 60.3205 45.1104 60.8326 46.6322C60.8496 46.6827 60.8821 46.7266 60.9254 46.7577C60.9686 46.7888 61.0206 46.8055 61.0739 46.8056Z" fill="#3F3D56"/>
<path d="M75.2227 39.3039C75.5826 39.795 75.4052 40.4569 75.0261 40.8804C74.5327 41.4315 73.746 41.4662 73.063 41.364C72.2965 41.2492 71.4835 40.8901 70.7074 41.1321C70.046 41.3383 69.5742 41.9382 68.8871 42.0889C68.2777 42.2226 67.549 42.0457 67.3354 41.3961C67.2327 41.084 67.7244 40.9503 67.8265 41.2607C67.9648 41.6809 68.5615 41.6726 68.9033 41.5562C69.4512 41.3697 69.8734 40.9159 70.4119 40.6992C71.0468 40.4436 71.7357 40.559 72.3821 40.7046C72.9914 40.8418 73.6925 41.0452 74.2995 40.7889C74.7486 40.5993 75.106 40.0019 74.7829 39.5609C74.589 39.2962 75.0308 39.0418 75.2227 39.3039Z" fill="#2F2E41"/>
<path d="M110.68 70.531H78.3685C78.1898 70.531 78.0129 70.4958 77.8478 70.4274C77.6827 70.359 77.5327 70.2588 77.4064 70.1324C77.28 70.0061 77.1798 69.8561 77.1114 69.691C77.043 69.5259 77.0078 69.3489 77.0078 69.1702C77.0078 68.9915 77.043 68.8146 77.1114 68.6495C77.1798 68.4844 77.28 68.3344 77.4064 68.2081C77.5327 68.0817 77.6827 67.9815 77.8478 67.9131C78.0129 67.8447 78.1898 67.8095 78.3685 67.8095H110.68C111.041 67.8099 111.387 67.9535 111.641 68.2086C111.896 68.4637 112.039 68.8096 112.039 69.1702C112.039 69.5309 111.896 69.8767 111.641 70.1319C111.387 70.387 111.041 70.5306 110.68 70.531Z" fill="#E6E6E6"/>
<path d="M116.293 75.1234H78.3686C78.1898 75.1236 78.0127 75.0886 77.8474 75.0203C77.6821 74.952 77.532 74.8518 77.4054 74.7254C77.2789 74.5991 77.1786 74.449 77.1101 74.2838C77.0416 74.1186 77.0063 73.9415 77.0063 73.7627C77.0063 73.5839 77.0416 73.4068 77.1101 73.2416C77.1786 73.0764 77.2789 72.9264 77.4054 72.8C77.532 72.6736 77.6821 72.5734 77.8474 72.5051C78.0127 72.4368 78.1898 72.4018 78.3686 72.402H116.293C116.472 72.4018 116.649 72.4368 116.815 72.5051C116.98 72.5734 117.13 72.6736 117.257 72.8C117.383 72.9264 117.483 73.0764 117.552 73.2416C117.62 73.4068 117.656 73.5839 117.656 73.7627C117.656 73.9415 117.62 74.1186 117.552 74.2838C117.483 74.449 117.383 74.5991 117.257 74.7254C117.13 74.8518 116.98 74.952 116.815 75.0203C116.649 75.0886 116.472 75.1236 116.293 75.1234Z" fill="#E6E6E6"/>
<path d="M110.68 87.0369H78.3685C78.0077 87.0369 77.6616 86.8935 77.4064 86.6384C77.1512 86.3832 77.0078 86.0371 77.0078 85.6762C77.0078 85.3153 77.1512 84.9692 77.4064 84.714C77.6616 84.4588 78.0077 84.3154 78.3685 84.3154H110.68C111.041 84.3154 111.387 84.4588 111.642 84.714C111.898 84.9692 112.041 85.3153 112.041 85.6762C112.041 86.0371 111.898 86.3832 111.642 86.6384C111.387 86.8935 111.041 87.0369 110.68 87.0369Z" fill="#E6E6E6"/>
<path d="M116.293 91.6298H78.3685C78.0077 91.6298 77.6616 91.4864 77.4064 91.2312C77.1512 90.9761 77.0078 90.6299 77.0078 90.2691C77.0078 89.9082 77.1512 89.5621 77.4064 89.3069C77.6616 89.0517 78.0077 88.9083 78.3685 88.9083H116.293C116.654 88.9083 117 89.0517 117.255 89.3069C117.511 89.5621 117.654 89.9082 117.654 90.2691C117.654 90.6299 117.511 90.9761 117.255 91.2312C117 91.4864 116.654 91.6298 116.293 91.6298Z" fill="#E6E6E6"/>
<path d="M65.5802 77.1881C68.7685 77.1881 71.3531 74.6035 71.3531 71.4152C71.3531 68.2269 68.7685 65.6423 65.5802 65.6423C62.3919 65.6423 59.8073 68.2269 59.8073 71.4152C59.8073 74.6035 62.3919 77.1881 65.5802 77.1881Z" fill="#E6E6E6"/>
<path d="M65.5802 93.8279C68.7685 93.8279 71.3531 91.2433 71.3531 88.055C71.3531 84.8667 68.7685 82.282 65.5802 82.282C62.3919 82.282 59.8073 84.8667 59.8073 88.055C59.8073 91.2433 62.3919 93.8279 65.5802 93.8279Z" fill="#E6E6E6"/>
<path d="M110.68 103.677H78.3685C78.0077 103.677 77.6616 103.533 77.4064 103.278C77.1512 103.023 77.0078 102.677 77.0078 102.316C77.0078 101.955 77.1512 101.609 77.4064 101.354C77.6616 101.099 78.0077 100.955 78.3685 100.955H110.68C111.041 100.955 111.387 101.099 111.642 101.354C111.898 101.609 112.041 101.955 112.041 102.316C112.041 102.677 111.898 103.023 111.642 103.278C111.387 103.533 111.041 103.677 110.68 103.677Z" fill="#E6E6E6"/>
<path d="M116.293 108.269H78.3685C78.0077 108.269 77.6616 108.126 77.4064 107.871C77.1512 107.615 77.0078 107.269 77.0078 106.908C77.0078 106.548 77.1512 106.201 77.4064 105.946C77.6616 105.691 78.0077 105.548 78.3685 105.548H116.293C116.654 105.548 117 105.691 117.255 105.946C117.511 106.201 117.654 106.548 117.654 106.908C117.654 107.269 117.511 107.615 117.255 107.871C117 108.126 116.654 108.269 116.293 108.269Z" fill="#E6E6E6"/>
<path d="M65.5802 110.468C68.7685 110.468 71.3531 107.883 71.3531 104.695C71.3531 101.506 68.7685 98.9218 65.5802 98.9218C62.3919 98.9218 59.8073 101.506 59.8073 104.695C59.8073 107.883 62.3919 110.468 65.5802 110.468Z" fill="#E6E6E6"/>
</svg>
