<svg width="148" height="107" viewBox="0 0 148 107" fill="none" xmlns="http://www.w3.org/2000/svg">
<path d="M24.8353 102.317C24.7167 102.323 24.5993 102.292 24.499 102.228C24.3987 102.165 24.3204 102.072 24.2746 101.962C24.2288 101.853 24.2178 101.732 24.243 101.616C24.2683 101.5 24.3286 101.395 24.4157 101.314L24.4554 101.156C24.4502 101.144 24.4449 101.131 24.4396 101.118C24.3202 100.836 24.12 100.596 23.8642 100.427C23.6085 100.258 23.3086 100.169 23.0021 100.17C22.6957 100.171 22.3965 100.263 22.142 100.433C21.8875 100.604 21.6891 100.846 21.5717 101.129C21.1027 102.259 20.5055 103.39 20.3584 104.585C20.2937 105.113 20.321 105.648 20.4392 106.167C19.3375 103.763 18.7654 101.152 18.7617 98.5078C18.7615 97.8444 18.7984 97.1815 18.8721 96.5223C18.9331 95.9818 19.0177 95.4451 19.1259 94.9124C19.7164 92.0216 20.9842 89.312 22.8252 87.0063C23.7162 86.5202 24.4368 85.7725 24.8898 84.8642C25.054 84.5377 25.17 84.1892 25.2342 83.8294C25.1337 83.8426 24.8552 82.3118 24.931 82.2179C24.791 82.0053 24.5402 81.8997 24.3873 81.6922C23.6264 80.6607 22.5782 80.8408 22.0309 82.2426C20.8619 82.8326 20.8506 83.8111 21.5679 84.7522C22.0243 85.3509 22.087 86.161 22.4874 86.802C22.4462 86.8547 22.4033 86.9058 22.3621 86.9585C21.6091 87.9269 20.9528 88.9666 20.4026 90.063C20.5364 88.8348 20.3767 87.5923 19.9366 86.4379C19.4906 85.3619 18.6547 84.4558 17.9185 83.5257C17.0343 82.4084 15.221 82.896 15.0653 84.3123C15.0638 84.326 15.0623 84.3397 15.0608 84.3534C15.1702 84.4151 15.2772 84.4806 15.3819 84.5498C15.5135 84.6377 15.6155 84.7633 15.6744 84.9102C15.7334 85.057 15.7466 85.2182 15.7124 85.3727C15.6782 85.5272 15.5981 85.6677 15.4826 85.7759C15.3672 85.8841 15.2217 85.9548 15.0653 85.979L15.0493 85.9814C15.0883 86.3755 15.1571 86.7661 15.2553 87.1497C14.3109 90.8019 16.3498 92.1321 19.261 92.1919C19.3253 92.2249 19.3879 92.2578 19.4522 92.2891C18.8994 93.8557 18.5526 95.4875 18.4207 97.1435C18.3459 98.1205 18.3503 99.1019 18.4338 100.078L18.4289 100.044C18.218 98.958 17.6388 97.9784 16.7893 97.2703C15.5276 96.2339 13.7451 95.8522 12.3839 95.0191C12.2392 94.9262 12.071 94.8767 11.8991 94.8762C11.7272 94.8758 11.5588 94.9246 11.4137 95.0167C11.2685 95.1089 11.1528 95.2407 11.0801 95.3964C11.0074 95.5522 10.9808 95.7256 11.0034 95.896C11.0052 95.9081 11.0071 95.9202 11.009 95.9324C11.2119 96.015 11.4094 96.1102 11.6005 96.2174C11.7098 96.2791 11.8169 96.3446 11.9216 96.4138C12.0532 96.5017 12.1551 96.6273 12.2141 96.7742C12.273 96.921 12.2863 97.0822 12.252 97.2367C12.2178 97.3912 12.1377 97.5317 12.0223 97.6399C11.9068 97.7481 11.7614 97.8188 11.605 97.843L11.589 97.8454C11.5774 97.8471 11.5675 97.8487 11.556 97.8504C11.9027 98.6782 12.3893 99.4401 12.9945 100.103C13.585 103.291 16.1213 103.594 18.8342 102.665H18.8359C19.1336 103.959 19.5648 105.218 20.1228 106.422H24.7201C24.7366 106.371 24.7514 106.318 24.7662 106.267C24.3407 106.294 23.9135 106.268 23.4942 106.191C23.8352 105.773 24.1763 105.351 24.5174 104.932C24.525 104.925 24.5322 104.916 24.5389 104.908C24.7119 104.694 24.8865 104.481 25.0595 104.267L25.0596 104.267C25.0689 103.61 24.9934 102.955 24.8353 102.317Z" fill="#F2F2F2"/>
<path d="M30.123 106.319H37.5416C38.8104 102.047 37.5484 91.9506 39.2208 87.8238C42.4294 79.9113 46.5284 71.5625 54.179 67.699C57.4456 66.0494 61.0073 65.405 64.6447 65.4401C69.6695 65.4878 74.8355 66.8366 79.5651 68.6242C81.4999 69.3538 83.4169 70.156 85.3264 70.9759C92.5205 74.0672 99.6364 77.4342 107.373 78.3443C117.162 79.4951 128.673 75.1151 131.346 65.6808C133.387 58.4577 129.712 50.9589 125.857 44.5081C122.003 38.0572 117.695 31.1551 118.399 23.6863C118.401 23.6613 118.404 23.6337 118.409 23.6086C118.673 20.926 120.275 18.998 122.513 17.762H112.771C112.642 24.7293 116.673 30.8793 120.3 36.9516C124.155 43.3999 127.83 50.9012 125.789 58.1243C123.115 67.5561 100.975 56.5001 91.1854 55.3468C88.4208 55.0234 92.8124 56.1741 90.1764 55.3468C86.0421 54.0506 85.5837 65.939 81.5604 64.1941C79.0556 63.106 76.5482 62.0254 74.0081 61.0652C72.9563 60.6665 71.8817 60.293 70.7945 59.947C70.7935 59.9469 70.7926 59.9467 70.7917 59.9463C70.7909 59.9458 70.7901 59.9452 70.7895 59.9445C63.4894 57.6329 55.5058 56.7328 48.7608 60.0749C48.7154 60.0974 48.6674 60.12 48.622 60.1425C40.9714 64.0035 36.8724 72.3523 33.6638 80.2648C31.0127 86.8059 31.4297 99.4196 30.123 106.319Z" fill="#F2F2F2"/>
<path d="M73.8923 106.307C37.6868 107.073 36.8929 91.2142 36.8929 72.3505C36.8929 53.4869 53.5376 38.1408 73.9967 38.1408C94.4559 38.1408 111.101 53.4874 111.101 72.3505C111.101 91.2137 94.3514 106.307 73.8923 106.307ZM73.9967 39.0821C54.1004 39.0821 38.2489 54.0089 37.9138 72.3506C37.6022 89.4106 57.2587 110.699 73.9967 105.619C82.9729 96.5048 108.351 86.6878 110.08 72.3506C112.278 54.1186 93.8931 39.0821 73.9967 39.0821Z" fill="#3F3D56"/>
<path d="M1.08637e-06 106.346C-9.50278e-05 106.378 0.00618737 106.41 0.0184869 106.44C0.0307864 106.469 0.0488602 106.496 0.0716687 106.519C0.0944771 106.542 0.12157 106.56 0.151389 106.572C0.181208 106.585 0.213164 106.591 0.245419 106.591H147.755C147.82 106.591 147.882 106.565 147.928 106.519C147.974 106.473 148 106.411 148 106.346C148 106.28 147.974 106.218 147.928 106.172C147.882 106.126 147.82 106.1 147.755 106.1H0.245419C0.213164 106.1 0.181208 106.106 0.15139 106.119C0.121571 106.131 0.0944788 106.149 0.0716705 106.172C0.0488622 106.195 0.0307883 106.222 0.0184885 106.251C0.00618875 106.281 -9.42067e-05 106.313 1.08637e-06 106.346Z" fill="#CCCCCC"/>
<path d="M99.3941 103.205H96.8468L95.6351 93.3792L99.3947 93.3794L99.3941 103.205Z" fill="#A0616A"/>
<path d="M99.4838 105.862L91.6506 105.862V105.763C91.6506 104.954 91.9719 104.179 92.5436 103.607C93.1154 103.035 93.8909 102.714 94.6995 102.714L96.1305 101.628L98.8001 102.714L99.4839 102.714L99.4838 105.862Z" fill="#2F2E41"/>
<path d="M95.5236 80.4296C92.6147 77.6049 89.2718 75.2649 85.6221 73.4985L83.7607 75.5998L84.9463 73.1789C80.0614 70.9482 74.7585 69.78 69.3885 69.7516C64.0184 69.7233 58.7035 70.8353 53.7953 73.0143L54.7624 75.115L53.2774 73.2481C49.4434 75.0314 45.9349 77.4436 42.897 80.3847C42.5847 80.6757 42.3917 81.0724 42.3557 81.4978C42.3401 81.7289 42.3743 81.9606 42.456 82.1774C42.5377 82.3941 42.665 82.5907 42.8293 82.754C43.2973 82.9756 43.9643 83.4842 44.9553 84.8799C45.2592 85.1796 45.6682 85.3489 46.095 85.3515C46.5219 85.3541 46.9329 85.19 47.2405 84.894C53.1259 79.1969 60.996 76.0117 69.1872 76.0117C77.3783 76.0117 85.2484 79.1969 91.1338 84.894C91.4414 85.19 91.8524 85.3541 92.2793 85.3515C92.7061 85.3489 93.115 85.1796 93.4189 84.8799C94.4162 83.983 94.6492 82.7151 95.5059 82.7929C95.8076 82.5011 95.9907 82.108 96.0199 81.6893C96.0325 81.456 95.9948 81.2227 95.9091 81.0053C95.8235 80.7879 95.692 80.5916 95.5236 80.4296Z" fill="#232334"/>
<path d="M76.1027 83.4872L73.5554 83.487L72.3436 73.6617L76.1031 73.6619L76.1027 83.4872Z" fill="#A0616A"/>
<path d="M76.1923 86.1444L68.3591 86.1441V86.045C68.3591 85.2364 68.6804 84.461 69.2521 83.8892C69.8239 83.3174 70.5994 82.9962 71.408 82.9962L72.839 81.9106L75.5086 82.9963L76.1924 82.9963L76.1923 86.1444Z" fill="#2F2E41"/>
<path d="M102.307 47.3125L84.2291 49.2012L79.7873 53.5901L72.7217 55.8972C71.8322 56.1876 71.0525 56.7427 70.487 57.4883C69.9215 58.2339 69.5972 59.1344 69.5574 60.0693C69.3736 64.3786 69.0102 71.5329 68.6265 71.458C68.0778 71.3509 69.1745 74.0319 69.9427 73.8762C70.7108 73.7206 71.5096 75.4686 70.9786 75.7794C70.4475 76.0902 71.3321 78.7493 71.3321 78.7493L76.8655 77.8577C77.5582 72.6332 80.0879 67.1265 77.1064 63.2825C82.1557 61.644 86.6039 60.2738 89.8746 59.4293L91.6436 58.6953L95.3164 97.7193L100.51 97.8046C101.944 90.432 102.664 83.7965 101.543 79.0628C101.543 79.0628 101.704 64.8425 102.318 64.998C102.933 65.1535 102.412 63.3009 102.412 63.3009C102.412 63.3009 101.874 61.7232 102.535 61.0686C103.196 60.4141 102.783 56.5645 102.783 56.5645C103.875 52.9213 103.547 49.9132 102.307 47.3125Z" fill="#2F2E41"/>
<path d="M104.444 39.3498C104.623 38.5468 104.802 37.7438 104.981 36.9408C105.484 34.692 105.986 32.4443 106.487 30.1976C107.145 27.2539 107.806 24.2077 107.24 21.2455C107.155 20.7999 107.036 20.3616 106.885 19.9342C106.037 17.5093 104.165 15.3844 101.682 14.9369L101.276 13.4255L95.7365 12.7436L94.6881 14.1896C92.4313 14.0091 91.0917 16.2562 89.5349 18.108L88.9162 18.7267C88.4653 19.2906 88.3729 21.409 88.0913 22.0262C86.8395 24.771 88.5646 22.1036 88.5038 25.1196C88.441 28.245 87.8264 31.2777 87.7633 34.4029C87.7566 34.7382 87.035 34.9938 86.9108 35.5817C86.8438 35.8991 87.4029 36.4877 87.3181 36.8424C87.2458 37.1452 87.607 38.3621 87.5295 38.6751C87.1699 40.1269 86.3555 40.6986 86.3198 41.4144C86.3034 41.69 86.2624 41.9634 86.1971 42.2316C86.1525 42.4219 85.5281 42.1939 85.4673 42.3871C85.3651 42.7118 85.8147 43.4595 85.6914 43.7845C85.453 44.4135 85.6134 45.5243 85.4673 46.0991C84.8543 48.5122 85.0897 47.5546 83.7607 49.6601C87.1622 50.6884 88.6313 54.1322 92.1302 54.7521C92.2879 54.2423 92.4451 53.7313 92.6019 53.2189C93.0657 53.2487 93.5323 53.2765 93.9989 53.3021C94.0251 53.7469 94.0515 54.192 94.0779 54.6343C97.6246 54.8629 101.182 54.8823 104.731 54.6922C104.612 54.3356 104.517 53.9714 104.446 53.6021C104.252 52.5752 104.67 51.4616 104.715 50.4451C104.747 49.6922 104.389 49.0523 104.399 48.2413C104.402 48.0913 105.244 47.965 105.242 47.8122C105.228 46.4641 104.462 44.6604 104.715 43.3361C104.978 41.9749 104.144 40.7033 104.444 39.3502L104.444 39.3498Z" fill="#3F3D56"/>
<path d="M78.5308 6.7873C78.0611 6.78784 77.6108 6.97467 77.2787 7.30679C76.9466 7.63891 76.7597 8.08921 76.7592 8.5589V19.2338C76.7597 19.7034 76.9466 20.1537 77.2787 20.4859C77.6108 20.818 78.0611 21.0048 78.5308 21.0053H81.8333C82.303 21.0048 82.7533 20.818 83.0854 20.4859C83.4176 20.1537 83.6044 19.7034 83.6049 19.2337C84.1313 13.8699 83.9378 10.9752 83.6049 8.5589C83.6044 8.08921 83.4176 7.63891 83.0854 7.30679C82.7533 6.97466 82.303 6.78784 81.8333 6.78729L78.5308 6.7873Z" fill="#232334"/>
<path d="M78.1183 6.78729C77.6486 6.78784 77.1984 6.97466 76.8662 7.30678C76.5341 7.63889 76.3473 8.08917 76.3467 8.55885C76.157 12.755 76.0251 16.7568 76.3467 19.2337C76.3473 19.7034 76.5341 20.1537 76.8662 20.4859C77.1983 20.818 77.6486 21.0048 78.1183 21.0053H81.4209C81.8906 21.0048 82.3408 20.818 82.673 20.4859C83.0051 20.1537 83.1919 19.7034 83.1925 19.2337V8.5589C83.1919 8.08921 83.0051 7.63891 82.673 7.30679C82.3408 6.97467 81.8906 6.78785 81.4209 6.7873L78.1183 6.78729Z" fill="#3F3D56"/>
<path d="M86.6202 22.3233C86.6202 22.3233 89.7438 22.1966 88.154 23.5453C87.1194 24.423 84.7897 30.5328 82.3693 31.272C82.0843 31.3589 81.7844 31.3856 81.4885 31.3505C81.1927 31.3154 80.9073 31.2192 80.6506 31.0681C80.3938 30.917 80.1713 30.7142 79.997 30.4725C79.8227 30.2309 79.7005 29.9557 79.6382 29.6643L77.4442 19.4379L80.3101 19.002L82.0568 27.0958L86.6202 22.3233Z" fill="#A0616A"/>
<path d="M79.0357 20.1848C80.1552 20.1848 81.0627 19.2773 81.0627 18.1578C81.0627 17.0383 80.1552 16.1307 79.0357 16.1307C77.9162 16.1307 77.0087 17.0383 77.0087 18.1578C77.0087 19.2773 77.9162 20.1848 79.0357 20.1848Z" fill="#A0616A"/>
<path d="M90.8572 16.7353C92.7141 18.1298 93.2609 22.7026 92.0941 24.7104C89.8636 28.5483 85.4662 31.5032 85.2786 31.0928C85.0218 30.5309 84.5743 31.2855 84.5895 31.5325C84.6047 31.7795 83.7576 31.7059 83.8563 31.9673C83.955 32.2287 83.2864 32.2855 82.9961 32.4371C82.9961 32.4371 80.3388 32.482 79.5005 31.2694C78.6621 30.0568 78.5497 28.381 78.5497 28.381L77.509 27.1565L83.0269 23.9309L82.5722 26.1081L85.3248 22.9029L85.9074 21.617L86.8368 21.1424L87.1447 20.1735L88.0017 19.786L91.391 15.8395L90.8572 16.7353Z" fill="#3F3D56"/>
<path d="M106.104 54.3006C106.335 54.1478 106.531 53.9461 106.676 53.7097C106.821 53.4733 106.913 53.2079 106.944 52.9322C106.976 52.6566 106.947 52.3773 106.859 52.1142C106.771 51.8511 106.626 51.6105 106.435 51.4093L106.825 34.0691L103.399 34.6021L103.64 51.421C103.323 51.7644 103.144 52.2121 103.135 52.6791C103.126 53.1462 103.289 53.6002 103.593 53.9551C103.897 54.3101 104.32 54.5413 104.783 54.605C105.246 54.6686 105.716 54.5603 106.104 54.3006Z" fill="#A0616A"/>
<path d="M106.253 19.2883C106.253 19.2883 106.026 19.4601 107.191 21.236C107.423 21.5882 107.579 23.0083 107.689 24.8615C107.725 25.4652 108.068 25.8893 108.095 26.563C108.118 27.1348 107.824 27.9494 107.842 28.5423C107.851 28.8585 108.087 29.1337 108.095 29.4501C108.098 29.582 107.874 29.7559 107.878 29.8874C107.881 30.0291 107.884 30.1704 107.887 30.3113C107.968 33.8334 107.985 37.0144 108.064 36.9607C108.234 36.8461 107.813 37.4383 108.023 37.5371C108.234 37.636 107.843 38.1265 107.944 38.3808C108.067 38.6906 107.914 39.0323 107.818 39.3433C107.54 40.2412 107.48 41.0122 107.238 41.4387C107.525 41.6034 107.749 41.8589 107.875 42.165C108.001 42.4711 108.021 42.8103 107.933 43.1293L103.104 42.2562C102.515 41.313 102.6 40.3231 103.002 40.1506L102.882 37.0814L101.507 21.2025L105.538 19.4029L106.253 19.2883Z" fill="#3F3D56"/>
<path d="M76.2815 9.52515C76.2121 9.52515 76.1558 9.55818 76.1558 9.59879V10.1879C76.1558 10.2286 76.2121 10.2616 76.2815 10.2616C76.3508 10.2616 76.4072 10.2286 76.4072 10.1879V9.59879C76.4072 9.55818 76.3508 9.52515 76.2815 9.52515Z" fill="#3F3D56"/>
<path d="M76.2815 11.0864C76.2121 11.0864 76.1558 11.1194 76.1558 11.16V12.3015C76.1558 12.3421 76.2121 12.3751 76.2815 12.3751C76.3508 12.3751 76.4072 12.3421 76.4072 12.3015V11.16C76.4072 11.1194 76.3508 11.0864 76.2815 11.0864Z" fill="#3F3D56"/>
<path d="M83.293 11.2925C83.256 11.2968 83.2222 11.3153 83.1987 11.3442C83.1752 11.373 83.1639 11.4099 83.1673 11.447V13.8408C83.1634 13.8595 83.1638 13.8788 83.1683 13.8973C83.1728 13.9159 83.1814 13.9332 83.1934 13.9479C83.2055 13.9627 83.2206 13.9747 83.2379 13.9828C83.2551 13.991 83.2739 13.9953 83.293 13.9953C83.3121 13.9953 83.3309 13.991 83.3481 13.9828C83.3653 13.9747 83.3805 13.9627 83.3926 13.9479C83.4046 13.9332 83.4132 13.9159 83.4177 13.8973C83.4222 13.8788 83.4226 13.8595 83.4187 13.8408V11.447C83.4221 11.4099 83.4108 11.373 83.3873 11.3442C83.3638 11.3153 83.33 11.2968 83.293 11.2925Z" fill="#3F3D56"/>
<path d="M76.0753 12.9127C76.0059 12.9127 75.9496 12.9457 75.9496 12.9864V14.1279C75.9496 14.1685 76.0059 14.2015 76.0753 14.2015C76.1446 14.2015 76.201 14.1685 76.201 14.1279V12.9864C76.201 12.9457 76.1446 12.9127 76.0753 12.9127Z" fill="#3F3D56"/>
<path d="M98.1185 12.2081C100.978 12.2081 103.296 9.89031 103.296 7.03111C103.296 4.17191 100.978 1.85406 98.1185 1.85406C95.2593 1.85406 92.9415 4.17191 92.9415 7.03111C92.9415 9.89031 95.2593 12.2081 98.1185 12.2081Z" fill="#A0616A"/>
<path d="M103.899 9.40965C103.495 10.2185 103.11 10.7244 102.411 11.1765C102.376 11.0734 102.347 10.9681 102.326 10.8613C102.251 11.0275 102.179 11.1934 102.102 11.36C101.66 11.6069 102.137 11.226 101.414 11.502L100.805 10.4574C100.638 9.96149 100.875 9.42142 101.175 8.99228C101.476 8.5649 101.85 8.17308 102.013 7.6762C102.176 7.17933 102.031 6.52106 101.543 6.33612C101.061 6.15143 100.53 6.50181 100.018 6.44094C99.4275 6.37129 99.0257 5.75344 98.9937 5.15903C98.9616 4.56462 99.2042 3.99389 99.4415 3.44994C98.7263 3.96243 96.511 4.88061 95.305 4.92447C95.2725 4.54831 95.0987 4.19844 94.8185 3.94531C94.8676 4.28778 94.7842 4.63607 94.5853 4.91918C93.4046 4.85863 93.1827 6.57357 92.5731 5.95258C92.7634 5.85682 92.0621 3.72556 92.2523 3.62981C92.1059 3.22856 91.9597 2.82848 91.8138 2.42956C92.085 2.49794 92.3584 2.56769 92.6315 2.63569C92.6485 2.48983 92.6928 2.34848 92.7622 2.21905C92.9568 2.10808 93.1639 2.02065 93.3792 1.95857C93.4485 1.94005 93.5196 1.92114 93.5915 1.90575C93.6979 1.88206 93.8055 1.86451 93.9139 1.85319C93.7569 1.76217 93.5985 1.67327 93.4412 1.5805C93.4224 1.56985 93.4054 1.55883 93.3866 1.54819C93.6076 1.39626 93.8385 1.25922 94.0778 1.13798C95.0866 0.610238 96.1336 0.0724886 97.2707 0.00670762C98.0096 -0.0403315 98.742 0.17048 99.3428 0.603172C99.8608 0.97525 100.488 1.16396 101.125 1.13945C101.435 1.13709 101.742 1.20535 102.022 1.33905C101.894 1.46809 101.753 1.58465 101.603 1.68718C101.931 1.69571 102.258 1.70462 102.586 1.71491C102.954 2.0497 103.264 2.44278 103.504 2.87837C104.655 4.84446 104.918 7.37284 103.899 9.40965Z" fill="#2F2E41"/>
<path d="M87.2739 90.0645C87.2346 89.806 87.1342 89.5607 86.981 89.3488C86.8278 89.137 86.6262 88.9648 86.393 88.8467C84.2044 87.7265 81.9106 86.8251 79.545 86.1556L77.3312 89.074L78.9674 85.9946C72.9117 84.37 66.5466 84.2797 60.4472 85.7319L61.2985 88.0792L59.9078 85.8662C57.1614 86.5568 54.5022 87.5567 51.9811 88.8467C51.749 88.9655 51.5483 89.1375 51.3952 89.3487C51.2422 89.5599 51.1413 89.8043 51.1007 90.0619C51.06 90.3195 51.0808 90.583 51.1614 90.831C51.242 91.0791 51.38 91.3046 51.5643 91.4891C52.5214 91.5479 53.1534 92.4371 53.7842 93.709C54.0259 93.9475 54.3354 94.1055 54.6704 94.1613C55.0054 94.2171 55.3494 94.1679 55.6554 94.0206C59.883 92.0098 64.5056 90.9665 69.1871 90.9665C73.8686 90.9665 78.4912 92.0098 82.7188 94.0206C83.0247 94.168 83.3687 94.2171 83.7037 94.1614C84.0386 94.1056 84.3481 93.9476 84.5897 93.709C84.969 92.6807 85.7506 92.0726 86.8099 91.4891C86.9951 91.3057 87.1338 91.0808 87.2145 90.833C87.2952 90.5852 87.3156 90.3217 87.2739 90.0645Z" fill="#232334"/>
<path d="M75.0432 100.115C74.5585 100.038 74.0708 99.972 73.5801 99.9152L71.657 102.975L73.0899 99.863C70.7614 99.6251 68.4161 99.6004 66.0831 99.7893L67.55 102.975L65.5754 99.8333C64.8217 99.9048 64.0736 99.9985 63.331 100.115C63.0768 100.152 62.8383 100.261 62.643 100.428C62.4477 100.595 62.3034 100.814 62.2269 101.059C62.1453 101.306 62.1342 101.572 62.1947 101.825C62.2552 102.079 62.385 102.31 62.5695 102.494C63.3636 103.272 64.2392 104.352 65.6781 105.603C65.8185 105.745 65.9881 105.855 66.1752 105.925C66.3623 105.996 66.5624 106.025 66.7618 106.01C67.5592 105.951 68.3752 105.921 69.1871 105.921C69.999 105.921 70.8151 105.951 71.6125 106.01C71.8118 106.024 72.0119 105.995 72.1989 105.925C72.386 105.855 72.5556 105.745 72.6962 105.603C74.1821 104.334 74.933 103.171 75.8048 102.494C75.9894 102.31 76.1191 102.079 76.1796 101.825C76.2401 101.572 76.229 101.306 76.1474 101.059C76.0709 100.814 75.9267 100.595 75.7313 100.428C75.536 100.261 75.2975 100.152 75.0432 100.115Z" fill="#232334"/>
</svg>
