<svg width="147" height="90" viewBox="0 0 147 90" fill="none" xmlns="http://www.w3.org/2000/svg">
<path d="M7.95048 82.9709C8.01167 85.2547 8.39427 87.5185 9.087 89.6956C9.10236 89.7461 9.1194 89.7959 9.13599 89.8464H13.3769C13.3724 89.8011 13.3678 89.7506 13.3634 89.6956C13.0806 86.4449 14.696 66.8957 16.6453 63.5122C16.4745 63.7867 7.62166 72.6418 7.95048 82.9709Z" fill="#F1F1F1"/>
<path d="M8.26871 89.6956C8.30419 89.7461 8.34105 89.7967 8.37883 89.8464H11.5605C11.5364 89.8034 11.5084 89.7529 11.476 89.6956C10.9504 88.7471 9.39479 85.911 7.95079 82.9709C6.3996 79.8114 4.97527 76.5321 5.09521 75.3452C5.05805 75.6128 3.98419 83.7733 8.26871 89.6956Z" fill="#F1F1F1"/>
<path d="M100.816 18.5187C100.937 18.8189 101.123 19.0889 101.36 19.3096C101.597 19.5302 101.88 19.6963 102.188 19.7959C102.496 19.8956 102.822 19.9265 103.143 19.8865C103.465 19.8465 103.773 19.7365 104.048 19.5643L110.188 24.4896L110.568 20.4169L104.679 16.364C104.359 15.9225 103.888 15.6137 103.356 15.496C102.824 15.3784 102.267 15.4601 101.79 15.7257C101.314 15.9913 100.952 16.4223 100.772 16.937C100.593 17.4518 100.608 18.0146 100.816 18.5187Z" fill="#9F616A"/>
<path d="M110.325 20.0344L108.033 18.4152L105.434 21.4185L108.458 23.2105L110.325 20.0344Z" fill="#232334"/>
<path d="M109.823 18.9363L117.546 21.908L124.981 17.0397C125.749 16.5365 126.675 16.3302 127.584 16.4593C128.493 16.5883 129.325 17.0439 129.923 17.7409C130.521 18.438 130.844 19.3288 130.834 20.2472C130.823 21.1655 130.478 22.0486 129.864 22.7315L129.798 22.8054L118.363 28.9362L105.873 23.2301L109.823 18.9363Z" fill="#3F3D56"/>
<path d="M107.646 89.5393H27.1679L30.086 32.5598H42.6798L54.2929 40.6997H110.564L107.646 89.5393Z" fill="#E5E5E5"/>
<path d="M87.9454 72.1632L41.4303 53.007C41.2676 52.9398 41.1383 52.8108 41.0707 52.6484C41.003 52.486 41.0025 52.3034 41.0693 52.1406L62.1462 0.961729C62.2134 0.799111 62.3423 0.669786 62.5048 0.602121C62.6672 0.534456 62.8498 0.533979 63.0126 0.600795L109.528 19.757C109.69 19.8242 109.82 19.9531 109.887 20.1156C109.955 20.278 109.955 20.4606 109.889 20.6234L88.8117 71.8022C88.7445 71.9649 88.6156 72.0942 88.4532 72.1619C88.2908 72.2295 88.1081 72.23 87.9454 72.1632Z" fill="white"/>
<path d="M87.9454 72.1632L41.4303 53.007C41.2676 52.9398 41.1383 52.8108 41.0707 52.6484C41.003 52.486 41.0025 52.3034 41.0693 52.1406L62.1462 0.961729C62.2134 0.799111 62.3423 0.669786 62.5048 0.602121C62.6672 0.534456 62.8498 0.533979 63.0126 0.600795L109.528 19.757C109.69 19.8242 109.82 19.9531 109.887 20.1156C109.955 20.278 109.955 20.4606 109.889 20.6234L88.8117 71.8022C88.7445 71.9649 88.6156 72.0942 88.4532 72.1619C88.2908 72.2295 88.1081 72.23 87.9454 72.1632ZM62.9115 0.846258C62.8138 0.806162 62.7043 0.806445 62.6068 0.847045C62.5093 0.887645 62.432 0.965243 62.3917 1.06282L41.3148 52.2417C41.2747 52.3394 41.275 52.4489 41.3156 52.5464C41.3562 52.6438 41.4338 52.7212 41.5314 52.7615L88.0464 71.9177C88.1441 71.9578 88.2537 71.9575 88.3511 71.9169C88.4486 71.8763 88.526 71.7987 88.5663 71.7012L109.643 20.5223C109.683 20.4246 109.683 20.315 109.642 20.2176C109.602 20.1201 109.524 20.0428 109.427 20.0025L62.9115 0.846258Z" fill="#3F3D56"/>
<path d="M76.0491 25.9351L64.5124 21.184C64.3497 21.1168 64.2204 20.9878 64.1527 20.8254C64.0851 20.663 64.0846 20.4804 64.1514 20.3176L68.9026 8.78088C68.9698 8.61826 69.0987 8.48894 69.2611 8.42127C69.4235 8.35361 69.6062 8.35313 69.7689 8.41995L81.3057 13.1711C81.4683 13.2383 81.5976 13.3672 81.6653 13.5296C81.7329 13.6921 81.7334 13.8747 81.6666 14.0375L76.9155 25.5742C76.8483 25.7368 76.7193 25.8661 76.5569 25.9338C76.3945 26.0015 76.2119 26.0019 76.0491 25.9351ZM69.6679 8.66541C69.5702 8.62531 69.4606 8.6256 69.3632 8.6662C69.2657 8.7068 69.1883 8.7844 69.148 8.88197L64.3969 20.4187C64.3568 20.5164 64.3571 20.6259 64.3977 20.7234C64.4383 20.8208 64.5159 20.8982 64.6135 20.9385L76.1502 25.6897C76.2478 25.7298 76.3574 25.7295 76.4549 25.6889C76.5523 25.6483 76.6297 25.5707 76.67 25.4731L81.4211 13.9364C81.4612 13.8387 81.461 13.7291 81.4204 13.6317C81.3798 13.5342 81.3022 13.4569 81.2046 13.4166L69.6679 8.66541Z" fill="#F2F2F2"/>
<path d="M72.1541 25.9819L60.6174 21.2307C60.471 21.1703 60.3546 21.0542 60.2937 20.908C60.2328 20.7618 60.2324 20.5975 60.2925 20.451L65.0437 8.91426C65.1041 8.7679 65.2202 8.6515 65.3664 8.5906C65.5126 8.5297 65.6769 8.52928 65.8234 8.58941L77.3601 13.3406C77.5065 13.401 77.6229 13.5171 77.6838 13.6633C77.7447 13.8094 77.7451 13.9738 77.685 14.1203L72.9339 25.657C72.8734 25.8034 72.7573 25.9198 72.6111 25.9807C72.465 26.0416 72.3006 26.042 72.1541 25.9819Z" fill="#232334"/>
<path d="M94.3753 41.7363L58.2924 26.8763C58.2198 26.8465 58.1539 26.8026 58.0983 26.7472C58.0427 26.6919 57.9986 26.6261 57.9684 26.5537C57.9383 26.4813 57.9227 26.4037 57.9225 26.3252C57.9224 26.2468 57.9377 26.1691 57.9675 26.0966C57.9974 26.0241 58.0413 25.9581 58.0966 25.9025C58.152 25.847 58.2177 25.8028 58.2901 25.7727C58.3625 25.7425 58.4402 25.7269 58.5186 25.7267C58.597 25.7266 58.6747 25.7419 58.7473 25.7717L94.8302 40.6317C94.9767 40.692 95.0932 40.8081 95.1541 40.9543C95.215 41.1005 95.2154 41.265 95.155 41.4114C95.0947 41.5579 94.9787 41.6744 94.8325 41.7353C94.6862 41.7963 94.5218 41.7966 94.3753 41.7363Z" fill="#CCCCCC"/>
<path d="M84.0945 41.9523L56.7255 30.6809C56.653 30.6511 56.587 30.6072 56.5315 30.5519C56.4759 30.4965 56.4317 30.4308 56.4016 30.3584C56.3714 30.286 56.3558 30.2083 56.3557 30.1299C56.3555 30.0514 56.3708 29.9737 56.4007 29.9012C56.4305 29.8287 56.4744 29.7628 56.5297 29.7072C56.5851 29.6516 56.6508 29.6075 56.7232 29.5773C56.7957 29.5471 56.8733 29.5315 56.9517 29.5314C57.0302 29.5312 57.1079 29.5465 57.1804 29.5764L84.5494 40.8477C84.6959 40.908 84.8124 41.0241 84.8733 41.1703C84.9342 41.3165 84.9346 41.481 84.8743 41.6274C84.8139 41.7739 84.6979 41.8904 84.5517 41.9513C84.4054 42.0123 84.241 42.0126 84.0945 41.9523Z" fill="#CCCCCC"/>
<path d="M100.015 27.6944L84.0595 21.1237C83.987 21.0938 83.9211 21.05 83.8655 20.9946C83.8099 20.9393 83.7658 20.8735 83.7356 20.8011C83.7055 20.7287 83.6899 20.6511 83.6897 20.5726C83.6895 20.4942 83.7048 20.4165 83.7347 20.344C83.7646 20.2714 83.8084 20.2055 83.8638 20.1499C83.9191 20.0943 83.9849 20.0502 84.0573 20.0201C84.1297 19.9899 84.2073 19.9743 84.2858 19.9741C84.3642 19.974 84.4419 19.9893 84.5144 20.0191L100.469 26.5899C100.616 26.6502 100.732 26.7662 100.793 26.9124C100.854 27.0587 100.855 27.2231 100.794 27.3696C100.734 27.5161 100.618 27.6326 100.472 27.6935C100.325 27.7544 100.161 27.7547 100.015 27.6944Z" fill="#CCCCCC"/>
<path d="M94.4659 29.8592L82.4927 24.9283C82.3462 24.868 82.2297 24.752 82.1688 24.6057C82.1079 24.4595 82.1075 24.2951 82.1678 24.1486C82.2282 24.0021 82.3442 23.8856 82.4904 23.8247C82.6367 23.7638 82.8011 23.7634 82.9476 23.8238L94.9208 28.7546C95.0673 28.815 95.1838 28.931 95.2447 29.0772C95.3056 29.2235 95.3059 29.3879 95.2456 29.5344C95.1853 29.6809 95.0693 29.7974 94.923 29.8583C94.7768 29.9192 94.6123 29.9195 94.4659 29.8592Z" fill="#CCCCCC"/>
<path d="M91.2416 49.3456L55.1586 34.4856C55.0861 34.4558 55.0202 34.4119 54.9646 34.3566C54.909 34.3012 54.8649 34.2354 54.8347 34.163C54.8046 34.0906 54.7889 34.013 54.7888 33.9346C54.7886 33.8561 54.8039 33.7784 54.8338 33.7059C54.8637 33.6334 54.9075 33.5674 54.9629 33.5119C55.0182 33.4563 55.084 33.4122 55.1564 33.382C55.2288 33.3518 55.3064 33.3362 55.3849 33.3361C55.4633 33.3359 55.541 33.3512 55.6135 33.3811L91.6965 48.241C91.8429 48.3013 91.9595 48.4174 92.0204 48.5636C92.0813 48.7098 92.0816 48.8743 92.0213 49.0208C91.961 49.1672 91.8449 49.2837 91.6987 49.3447C91.5525 49.4056 91.388 49.4059 91.2416 49.3456Z" fill="#CCCCCC"/>
<path d="M80.9608 49.5616L53.5918 38.2903C53.5192 38.2604 53.4533 38.2165 53.3977 38.1612C53.3421 38.1058 53.298 38.0401 53.2679 37.9677C53.2377 37.8953 53.2221 37.8176 53.2219 37.7392C53.2218 37.6608 53.2371 37.5831 53.2669 37.5105C53.2968 37.438 53.3407 37.3721 53.396 37.3165C53.4514 37.2609 53.5171 37.2168 53.5895 37.1866C53.6619 37.1565 53.7396 37.1408 53.818 37.1407C53.8964 37.1405 53.9741 37.1558 54.0467 37.1857L81.4157 48.457C81.4882 48.4869 81.5542 48.5307 81.6097 48.5861C81.6653 48.6414 81.7094 48.7072 81.7396 48.7796C81.7698 48.852 81.7854 48.9297 81.7855 49.0081C81.7857 49.0865 81.7704 49.1642 81.7405 49.2368C81.7107 49.3093 81.6668 49.3752 81.6115 49.4308C81.5561 49.4864 81.4904 49.5305 81.4179 49.5607C81.3455 49.5908 81.2679 49.6064 81.1895 49.6066C81.111 49.6067 81.0333 49.5915 80.9608 49.5616Z" fill="#CCCCCC"/>
<path d="M88.1078 56.955L52.0249 42.0951C51.8784 42.0347 51.7619 41.9187 51.701 41.7725C51.64 41.6263 51.6397 41.4618 51.7 41.3153C51.7604 41.1689 51.8764 41.0523 52.0226 40.9914C52.1688 40.9305 52.3333 40.9302 52.4798 40.9905L88.5627 55.8505C88.7092 55.9108 88.8257 56.0268 88.8866 56.173C88.9475 56.3193 88.9479 56.4837 88.8875 56.6302C88.8272 56.7767 88.7112 56.8932 88.565 56.9541C88.4187 57.015 88.2543 57.0154 88.1078 56.955Z" fill="#CCCCCC"/>
<path d="M86.541 60.7597L50.458 45.8997C50.3116 45.8394 50.195 45.7233 50.1341 45.5771C50.0732 45.4309 50.0729 45.2664 50.1332 45.12C50.1935 44.9735 50.3096 44.857 50.4558 44.7961C50.602 44.7351 50.7665 44.7348 50.9129 44.7951L86.9959 59.6551C87.0684 59.685 87.1343 59.7288 87.1899 59.7842C87.2455 59.8395 87.2896 59.9053 87.3198 59.9777C87.3499 60.0501 87.3656 60.1277 87.3657 60.2062C87.3659 60.2846 87.3506 60.3623 87.3207 60.4348C87.2908 60.5073 87.247 60.5733 87.1916 60.6289C87.1363 60.6844 87.0705 60.7286 86.9981 60.7587C86.9257 60.7889 86.8481 60.8045 86.7696 60.8047C86.6912 60.8048 86.6135 60.7895 86.541 60.7597Z" fill="#CCCCCC"/>
<path d="M68.938 60.4771C69.6601 60.5152 70.3842 60.4932 71.1027 60.411C71.7496 60.3354 72.4236 60.2312 72.9907 59.8911C73.236 59.7512 73.4448 59.5554 73.6001 59.3196C73.7555 59.0838 73.853 58.8147 73.8847 58.5341C73.9098 58.2672 73.8492 57.9993 73.7118 57.7691C73.5745 57.5389 73.3674 57.3584 73.1206 57.2538C72.8703 57.1483 72.596 57.1126 72.327 57.1503C72.0579 57.188 71.8041 57.2977 71.5923 57.4679C71.3661 57.6644 71.1871 57.9094 71.0688 58.1847C70.9504 58.4599 70.8958 58.7584 70.9089 59.0577C70.9387 60.2871 71.9114 61.5012 72.9914 62.0125C74.2079 62.5885 75.8692 62.099 76.1807 60.6807C76.2455 60.3857 75.8437 60.2831 75.6758 60.4727C75.4464 60.7255 75.3223 61.0564 75.3287 61.3977C75.3351 61.7389 75.4715 62.0649 75.7102 62.309C75.9488 62.553 76.2716 62.6968 76.6127 62.7108C76.9537 62.7249 77.2873 62.6082 77.5452 62.3846L77.093 62.1983C77.2244 62.749 77.4985 63.2554 77.8878 63.6665C78.277 64.0776 78.7677 64.379 79.3104 64.5403C79.5782 64.6205 79.8559 64.6628 80.1354 64.666C80.4751 64.6669 80.8241 64.8374 81.149 64.9433L83.4903 65.706C83.8346 65.8182 84.0531 65.2955 83.7059 65.1823L81.5855 64.4915C81.2322 64.3764 80.8797 64.2581 80.5253 64.1461C80.272 64.0661 79.9946 64.1094 79.7304 64.0623C79.2358 63.9687 78.778 63.7364 78.4104 63.3926C78.0428 63.0487 77.7805 62.6075 77.6541 62.1202C77.6463 62.0718 77.6263 62.0261 77.5959 61.9876C77.5654 61.9491 77.5256 61.919 77.4802 61.9003C77.4348 61.8816 77.3854 61.8749 77.3366 61.8808C77.2879 61.8867 77.2415 61.905 77.2019 61.934C77.0537 62.075 76.8559 62.1517 76.6515 62.1475C76.447 62.1433 76.2525 62.0585 76.1103 61.9116C75.9681 61.7647 75.8896 61.5675 75.8921 61.363C75.8946 61.1586 75.9777 60.9634 76.1234 60.8199L75.6184 60.6119C75.4174 61.5269 74.3013 61.8703 73.4969 61.6057C72.5973 61.3098 71.8241 60.4488 71.5558 59.5469C71.484 59.3302 71.4577 59.1011 71.4785 58.8737C71.4993 58.6464 71.5667 58.4258 71.6766 58.2257C71.7745 58.0432 71.9272 57.8961 72.1132 57.805C72.2992 57.7139 72.5091 57.6834 72.7133 57.7179C72.8957 57.7437 73.0609 57.8393 73.1741 57.9846C73.2873 58.1299 73.3397 58.3135 73.32 58.4966C73.29 58.7027 73.2099 58.8982 73.0865 59.0659C72.9632 59.2337 72.8005 59.3686 72.6128 59.4587C72.1065 59.7304 71.5002 59.7981 70.9379 59.8598C70.2967 59.9295 69.6509 59.9479 69.0068 59.9147C68.6452 59.8965 68.5727 60.4586 68.938 60.4771Z" fill="#232334"/>
<path d="M107.646 44.5392V89.5392H27.1679V36.3993H39.7617L51.3742 44.5392H107.646Z" fill="white"/>
<path d="M64.9494 81.0922H32.0825V83.7031H64.9494V81.0922Z" fill="#232334"/>
<path d="M48.5159 76.0239H32.0825V78.6348H48.5159V76.0239Z" fill="#232334"/>
<path d="M107.799 89.6928H27.0142V36.2457H39.8101L51.4232 44.3857H107.799V89.6928ZM27.3214 89.3857H107.492V44.6928H51.3263L39.7132 36.5529H27.3214V89.3857Z" fill="#3F3D56"/>
<path d="M140.418 84.2615L137.695 85.2346L132.645 75.1942L136.664 73.7579L140.418 84.2615Z" fill="#9F616A"/>
<path d="M133.275 89.7909L133.236 89.6799C132.913 88.7734 132.963 87.7759 133.375 86.9062C133.786 86.0365 134.526 85.3656 135.432 85.0408L140.795 83.1241L142.056 86.653L133.275 89.7909Z" fill="#2F2E41"/>
<path d="M122.71 86.9547H119.819L118.443 75.8005L122.711 75.8007L122.71 86.9547Z" fill="#9F616A"/>
<path d="M123.448 89.758L114.123 89.7576V89.6397C114.123 89.1631 114.217 88.6911 114.4 88.2508C114.582 87.8105 114.849 87.4104 115.186 87.0734C115.524 86.7364 115.924 86.4691 116.364 86.2867C116.804 86.1043 117.276 86.0104 117.753 86.0104H117.753L123.448 86.0107L123.448 89.758Z" fill="#2F2E41"/>
<path d="M129.301 15.6942L128.043 13.2091C128.043 13.2091 123.358 14.3829 122.932 17.0983L129.301 15.6942Z" fill="#232334"/>
<path d="M134.49 44.1089L131.07 63.1946L140.151 79.2547L134.726 81.3775L125.527 65.8097L124.347 61.5639L123.64 83.7363L118.747 83.5877L116.504 62.8841L120.102 43.6373L134.49 44.1089Z" fill="#2F2E41"/>
<path d="M133.782 35.4863L133.664 24.2945C133.664 19.5512 130.542 16.0552 130.11 15.7318C129.906 15.082 129.541 14.6328 129.024 14.3977C127.983 13.9261 126.711 14.492 126.657 14.5175L122.839 15.9489L122.821 16.0013C122.781 16.121 118.928 28.7622 117.961 31.9349C117.823 32.39 117.744 32.6506 117.744 32.6506C117.744 32.6506 117.759 33.3842 117.786 34.5251C117.871 38.4479 118.073 47.1858 118.154 47.5526C118.154 47.5526 125.206 48.6216 127.998 48.6216C133.022 48.6216 136.212 47.6604 136.284 47.6439L136.399 47.62L133.782 35.4863Z" fill="#3F3D56"/>
<path d="M126.613 11.7941C129.114 10.4267 130.033 7.29052 128.666 4.78915C127.299 2.28777 124.163 1.36848 121.661 2.73584C119.16 4.1032 118.24 7.23943 119.608 9.7408C120.975 12.2422 124.111 13.1615 126.613 11.7941Z" fill="#9F616A"/>
<path opacity="0.2" d="M124.709 33.1176L117.786 34.525C117.759 33.3841 117.744 32.6504 117.744 32.6504C117.744 32.6504 117.823 32.3899 117.961 31.9348L124.709 33.1176Z" fill="black"/>
<path d="M104.207 31.6424C104.453 31.8532 104.742 32.0075 105.054 32.0944C105.366 32.1814 105.693 32.199 106.012 32.1458C106.332 32.0927 106.636 31.9701 106.902 31.7868C107.169 31.6035 107.393 31.3639 107.557 31.0849L115.275 32.6352L113.739 28.8437L106.646 27.9528C106.159 27.7078 105.599 27.65 105.072 27.7903C104.545 27.9306 104.088 28.2593 103.788 28.7141C103.487 29.1689 103.364 29.7182 103.441 30.2579C103.518 30.7976 103.791 31.2902 104.207 31.6424Z" fill="#9F616A"/>
<path d="M113.348 28.6159L110.568 28.2318L109.641 32.0941L113.15 32.295L113.348 28.6159Z" fill="#232334"/>
<path d="M112.397 27.8715L120.622 26.959L124.986 19.2172C125.436 18.4171 126.163 17.8085 127.03 17.5049C127.897 17.2014 128.844 17.2237 129.696 17.5677C130.548 17.9117 131.245 18.5538 131.658 19.3743C132.07 20.1947 132.17 21.1373 131.939 22.0261L131.914 22.1223L124.579 32.8246L110.863 33.501L112.397 27.8715Z" fill="#3F3D56"/>
<path d="M128.534 11.7465L124.249 11.9003C123.988 11.9096 123.279 9.09132 123.187 8.50666C123.113 8.12603 122.904 7.7851 122.598 7.54755C122.291 7.31001 121.909 7.19209 121.522 7.21582C121.201 7.24611 120.393 6.64696 119.558 5.9375C117.974 4.59059 118.056 2.0609 119.797 0.922757C119.844 0.89165 119.891 0.863247 119.937 0.837547C121.035 0.223041 122.319 0.0166823 123.577 0.000946116C124.718 -0.0133187 125.89 0.130227 126.895 0.670036C128.696 1.6378 129.655 3.75264 129.739 5.7957C129.823 7.83876 129.168 9.8365 128.425 11.7414" fill="#2F2E41"/>
<path d="M146.846 90H0.941914C0.901181 90 0.862116 89.9838 0.833314 89.955C0.804511 89.9262 0.78833 89.8871 0.78833 89.8464C0.78833 89.8057 0.804511 89.7666 0.833314 89.7378C0.862116 89.709 0.901181 89.6928 0.941914 89.6928H146.846C146.887 89.6928 146.926 89.709 146.955 89.7378C146.984 89.7666 147 89.8057 147 89.8464C147 89.8871 146.984 89.9262 146.955 89.955C146.926 89.9838 146.887 90 146.846 90Z" fill="#CBCBCB"/>
</svg>
