<svg width="148" height="108" viewBox="0 0 148 108" fill="none" xmlns="http://www.w3.org/2000/svg">
<path d="M12.3061 98.8927C10.0595 98.2721 9.10081 101.684 11.3418 102.324C13.5883 102.945 14.547 99.5331 12.3061 98.8927Z" fill="#3F3D56"/>
<path d="M24.7624 103.284C22.5158 102.663 21.5571 106.075 23.798 106.715C26.0445 107.336 27.0033 103.924 24.7624 103.284Z" fill="#3F3D56"/>
<path d="M29.8037 67.302L29.7689 67.2922L23.9822 83.0027L23.2193 82.7882L29.0475 66.9651C29.0601 66.7212 29.1558 66.489 29.3186 66.307C29.4814 66.125 29.7015 66.0041 29.9425 65.9645C32.8364 65.5068 34.0095 68.0758 34.0095 68.0758L33.9979 68.0928L28.0816 84.1549L27.3187 83.9405L33.0609 68.351C31.3128 66.622 29.8037 67.302 29.8037 67.302Z" fill="#3F3D56"/>
<path d="M23.1149 104.167C19.7039 104.115 15.4859 102.272 12.6099 100.89C11.8481 100.525 11.2397 99.9025 10.8921 99.1325C10.5445 98.3624 10.48 97.4944 10.71 96.6815L14.4373 83.4208C14.6036 82.8331 14.8877 82.2854 15.2723 81.8109C15.6569 81.3365 16.134 80.9452 16.6745 80.6608C17.199 80.3819 17.7754 80.2144 18.3676 80.1686C18.9599 80.1229 19.5552 80.2 20.1162 80.395C20.2493 80.4549 23.8703 81.4683 26.2664 82.1389C27.676 82.5334 28.6945 82.8184 28.7627 82.8414C28.8191 82.86 31.3523 83.7303 30.9027 86.7908C30.5575 89.1414 27.9516 97.8028 26.8472 101.418C26.6072 102.208 26.1213 102.9 25.4601 103.395C24.799 103.89 23.9972 104.16 23.1715 104.167C23.1528 104.167 23.1337 104.167 23.1149 104.167Z" fill="#232334"/>
<path d="M12.5272 98.7029L17.3594 82.347L28.7227 85.5583L28.7906 85.3182L17.1899 82.0397L17.155 82.158L12.2878 98.6321L12.5272 98.7029Z" fill="#3F3D56"/>
<path d="M166 2.72928H66.4634V49.9611H166V2.72928Z" fill="#E5E5E5"/>
<path d="M163.272 6.77936H69.4279V46.1864H163.272V6.77936Z" fill="white"/>
<path d="M165.958 0.000366211H66.421V4.22898H165.958V0.000366211Z" fill="#232334"/>
<path d="M69.5634 2.8906C69.9962 2.8906 70.3471 2.5397 70.3471 2.10685C70.3471 1.67399 69.9962 1.32309 69.5634 1.32309C69.1305 1.32309 68.7796 1.67399 68.7796 2.10685C68.7796 2.5397 69.1305 2.8906 69.5634 2.8906Z" fill="white"/>
<path d="M72.5382 2.8906C72.9711 2.8906 73.322 2.5397 73.322 2.10685C73.322 1.67399 72.9711 1.32309 72.5382 1.32309C72.1054 1.32309 71.7545 1.67399 71.7545 2.10685C71.7545 2.5397 72.1054 2.8906 72.5382 2.8906Z" fill="white"/>
<path d="M75.5132 2.8906C75.9461 2.8906 76.297 2.5397 76.297 2.10685C76.297 1.67399 75.9461 1.32309 75.5132 1.32309C75.0804 1.32309 74.7295 1.67399 74.7295 2.10685C74.7295 2.5397 75.0804 2.8906 75.5132 2.8906Z" fill="white"/>
<path d="M113.726 25.9362C113.728 27.7191 113.41 29.4879 112.787 31.1584C112.505 31.9236 112.158 32.6635 111.75 33.3702C110.44 35.6559 108.55 37.5552 106.271 38.8761C103.991 40.197 101.403 40.8926 98.7689 40.8926C96.1344 40.8926 93.5467 40.197 91.2673 38.8761C88.9879 37.5552 87.0976 35.6559 85.7877 33.3702C85.6551 33.1403 85.5294 32.907 85.4105 32.6703C84.3938 30.6534 83.8469 28.4325 83.8111 26.1741C83.7752 23.9157 84.2513 21.6786 85.2035 19.6305C86.1557 17.5824 87.5593 15.7765 89.3091 14.3483C91.0589 12.9201 93.1094 11.9067 95.3067 11.3841C97.5041 10.8615 99.7913 10.8433 101.997 11.3309C104.202 11.8184 106.268 12.7991 108.041 14.1993C109.813 15.5994 111.245 17.3828 112.23 19.4155C113.214 21.4482 113.726 23.6775 113.726 25.9362Z" fill="#F1F1F1"/>
<path d="M99.5465 28.4612C101.126 28.4612 102.406 27.1809 102.406 25.6017C102.406 24.0224 101.126 22.7422 99.5465 22.7422C97.9673 22.7422 96.687 24.0224 96.687 25.6017C96.687 27.1809 97.9673 28.4612 99.5465 28.4612Z" fill="#232334"/>
<path d="M85.4105 32.6702C86.6704 31.3087 88.3547 29.147 89.9343 30.7089C90.7271 31.4457 91.9678 33.2714 93.1555 32.0778L102.43 22.8034C102.605 22.631 102.812 22.4952 103.04 22.4041C103.267 22.313 103.511 22.2683 103.756 22.2727C104.002 22.2771 104.244 22.3305 104.468 22.4297C104.693 22.5289 104.895 22.672 105.063 22.8505L112.787 31.1584C112.505 31.9235 112.158 32.6634 111.75 33.3701H85.7878L85.4105 32.6702Z" fill="white"/>
<path d="M144.27 23.0057C144.167 23.0057 144.069 23.0464 143.996 23.1189C143.924 23.1914 143.883 23.2896 143.883 23.3921C143.883 23.4946 143.924 23.5929 143.996 23.6654C144.069 23.7378 144.167 23.7785 144.27 23.7785H148.324C148.427 23.7785 148.525 23.7378 148.598 23.6654C148.67 23.5929 148.711 23.4946 148.711 23.3921C148.711 23.2896 148.67 23.1914 148.598 23.1189C148.525 23.0464 148.427 23.0057 148.324 23.0057H144.27Z" fill="#232334"/>
<path d="M126.001 17.3302C125.951 17.3301 125.9 17.34 125.853 17.3594C125.806 17.3787 125.764 17.4072 125.728 17.4431C125.692 17.479 125.663 17.5216 125.644 17.5685C125.624 17.6155 125.614 17.6658 125.614 17.7166C125.614 17.7674 125.624 17.8177 125.644 17.8647C125.663 17.9116 125.692 17.9542 125.728 17.9901C125.764 18.026 125.806 18.0545 125.853 18.0738C125.9 18.0932 125.951 18.1031 126.001 18.103H148.502C148.604 18.1028 148.702 18.062 148.775 17.9896C148.847 17.9171 148.887 17.819 148.887 17.7166C148.887 17.6143 148.847 17.5161 148.775 17.4437C148.702 17.3712 148.604 17.3304 148.502 17.3302H126.001Z" fill="#E5E5E5"/>
<path d="M126.001 20.1679C125.951 20.1678 125.9 20.1777 125.853 20.1971C125.806 20.2164 125.764 20.2449 125.728 20.2808C125.692 20.3167 125.663 20.3593 125.644 20.4062C125.624 20.4532 125.614 20.5035 125.614 20.5543C125.614 20.6051 125.624 20.6554 125.644 20.7024C125.663 20.7493 125.692 20.7919 125.728 20.8278C125.764 20.8637 125.806 20.8922 125.853 20.9115C125.9 20.9309 125.951 20.9408 126.001 20.9407H148.502C148.604 20.9405 148.702 20.8997 148.775 20.8272C148.847 20.7548 148.887 20.6566 148.887 20.5543C148.887 20.4519 148.847 20.3538 148.775 20.2813C148.702 20.2089 148.604 20.1681 148.502 20.1679H126.001Z" fill="#E5E5E5"/>
<path d="M144.27 41.2148C144.167 41.2151 144.069 41.2559 143.997 41.3283C143.925 41.4008 143.884 41.4989 143.884 41.6013C143.884 41.7036 143.925 41.8018 143.997 41.8742C144.069 41.9466 144.167 41.9874 144.27 41.9877H148.325C148.375 41.9878 148.426 41.9779 148.473 41.9585C148.52 41.9391 148.562 41.9107 148.598 41.8748C148.634 41.8389 148.663 41.7963 148.682 41.7493C148.702 41.7024 148.712 41.6521 148.712 41.6013C148.712 41.5504 148.702 41.5001 148.682 41.4532C148.663 41.4063 148.634 41.3636 148.598 41.3277C148.562 41.2918 148.52 41.2634 148.473 41.244C148.426 41.2246 148.375 41.2147 148.325 41.2148H144.27Z" fill="#232334"/>
<path d="M126.001 35.5394C125.899 35.5394 125.801 35.5801 125.728 35.6525C125.656 35.725 125.615 35.8233 125.615 35.9258C125.615 36.0283 125.656 36.1266 125.728 36.199C125.801 36.2715 125.899 36.3122 126.001 36.3122H148.502C148.604 36.3122 148.703 36.2715 148.775 36.199C148.848 36.1266 148.888 36.0283 148.888 35.9258C148.888 35.8233 148.848 35.725 148.775 35.6525C148.703 35.5801 148.604 35.5394 148.502 35.5394H126.001Z" fill="#E5E5E5"/>
<path d="M126.001 38.377C125.951 38.3769 125.9 38.3868 125.853 38.4062C125.806 38.4256 125.764 38.454 125.728 38.4899C125.692 38.5258 125.663 38.5684 125.644 38.6154C125.624 38.6623 125.614 38.7126 125.614 38.7634C125.614 38.8142 125.624 38.8646 125.644 38.9115C125.663 38.9584 125.692 39.0011 125.728 39.037C125.764 39.0728 125.806 39.1013 125.853 39.1207C125.9 39.14 125.951 39.1499 126.001 39.1498H148.502C148.604 39.1498 148.703 39.1091 148.775 39.0367C148.848 38.9642 148.888 38.8659 148.888 38.7634C148.888 38.6609 148.848 38.5627 148.775 38.4902C148.703 38.4177 148.604 38.377 148.502 38.377H126.001Z" fill="#E5E5E5"/>
<path d="M139.508 13.0006H138.29L137.244 11.5018H136.801L137.326 13.0006H136.134L135.645 12.5113H135.231L135.438 13.4165L135.231 14.2078H135.645L136.134 13.7185L136.142 13.7056H137.34L136.801 15.2439H137.244L138.294 13.7389L138.306 13.7056H139.508C139.602 13.7056 139.691 13.6685 139.757 13.6024C139.823 13.5363 139.861 13.4466 139.861 13.3531C139.861 13.2596 139.823 13.17 139.757 13.1039C139.691 13.0378 139.602 13.0006 139.508 13.0006Z" fill="#E5E5E5"/>
<path d="M138.475 32.5571H136.55C136.377 32.5569 136.212 32.4883 136.09 32.3664C135.968 32.2445 135.9 32.0792 135.899 31.9068V30.1553C135.899 30.0389 135.937 29.9254 136.007 29.8326C136.077 29.7399 136.177 29.6729 136.289 29.6422C137.089 29.4302 137.931 29.4308 138.731 29.6439C138.845 29.6739 138.945 29.7408 139.016 29.8339C139.088 29.9271 139.126 30.0413 139.125 30.1586V31.9068C139.125 32.0792 139.057 32.2445 138.935 32.3664C138.813 32.4883 138.648 32.5569 138.475 32.5571Z" fill="#E5E5E5"/>
<path d="M138.756 30.219H136.269V31.1513H138.756V30.219Z" fill="white"/>
<path d="M136.58 32.0836C136.752 32.0836 136.891 31.9445 136.891 31.7728C136.891 31.6012 136.752 31.4621 136.58 31.4621C136.409 31.4621 136.269 31.6012 136.269 31.7728C136.269 31.9445 136.409 32.0836 136.58 32.0836Z" fill="white"/>
<path d="M138.445 32.0836C138.616 32.0836 138.756 31.9445 138.756 31.7728C138.756 31.6012 138.616 31.4621 138.445 31.4621C138.273 31.4621 138.134 31.6012 138.134 31.7728C138.134 31.9445 138.273 32.0836 138.445 32.0836Z" fill="white"/>
<path d="M138.996 33.4439H135.996L136.705 32.8527H138.287L138.996 33.4439ZM136.462 33.275H138.529L138.225 33.0216H136.766L136.462 33.275Z" fill="#E5E5E5"/>
<path d="M139.151 32.6753H135.84C135.793 32.6753 135.748 32.6566 135.715 32.6234C135.682 32.5901 135.663 32.545 135.663 32.498C135.663 32.4509 135.682 32.4058 135.715 32.3725C135.748 32.3393 135.793 32.3206 135.84 32.3206H139.151C139.198 32.3206 139.243 32.3393 139.277 32.3725C139.31 32.4058 139.328 32.4509 139.328 32.498C139.328 32.545 139.31 32.5901 139.277 32.6234C139.243 32.6566 139.198 32.6753 139.151 32.6753Z" fill="#E5E5E5"/>
<path d="M32.6383 68.6297C32.7427 68.417 32.7992 68.1841 32.8038 67.9473C32.8084 67.7105 32.7611 67.4755 32.6651 67.259C32.5691 67.0424 32.4268 66.8496 32.2482 66.694C32.0696 66.5384 31.8591 66.4238 31.6314 66.3584L31.32 60.6091L28.9149 62.389L29.5794 67.5757C29.4948 67.9655 29.5562 68.3727 29.7518 68.7202C29.9474 69.0677 30.2637 69.3314 30.6407 69.4613C31.0178 69.5912 31.4293 69.5783 31.7975 69.4251C32.1657 69.2718 32.4648 68.9888 32.6383 68.6297Z" fill="#FFB7B7"/>
<path d="M51.2702 69.6994C51.1342 69.5054 51.0425 69.284 51.0014 69.0507C50.9603 68.8174 50.9709 68.578 51.0323 68.3492C51.0938 68.1205 51.2047 67.908 51.3571 67.7267C51.5096 67.5455 51.7 67.3998 51.9148 67.3001L51.3362 61.5715L53.9869 62.9593L54.13 68.1865C54.2736 68.5585 54.2758 68.9703 54.1361 69.3439C53.9964 69.7174 53.7246 70.0267 53.372 70.2132C53.0195 70.3997 52.6109 70.4504 52.2235 70.3557C51.8361 70.261 51.4969 70.0275 51.2702 69.6994Z" fill="#FFB7B7"/>
<path d="M37.1244 104.918L39.0181 104.917L39.9192 97.6128H37.1241L37.1244 104.918Z" fill="#FFB7B7"/>
<path d="M36.6413 104.299L40.3709 104.299C41.0012 104.299 41.6059 104.55 42.0516 104.995C42.4974 105.441 42.7478 106.046 42.7478 106.676V106.753L36.6414 106.753L36.6413 104.299Z" fill="#2F2E41"/>
<path d="M46.6893 103.78L48.5411 104.177L50.9527 97.223L48.2196 96.6376L46.6893 103.78Z" fill="#FFB7B7"/>
<path d="M46.3465 103.074L49.9933 103.856C50.6097 103.988 51.1484 104.36 51.4909 104.889C51.8333 105.418 51.9515 106.062 51.8195 106.678L51.8033 106.753L45.8323 105.474L46.3465 103.074Z" fill="#2F2E41"/>
<path d="M33.7098 63.1146C33.7098 63.1146 31.695 69.3416 33.6682 76.3833L35.6765 84.8183L36.175 103.483L40.2419 102.177L41.8988 73.7087L49.5305 86.6626L45.5138 102.177L50.133 102.328L55.1211 85.5494L50.7355 69.8928L49.9322 66.077L33.7098 63.1146Z" fill="#2F2E41"/>
<path d="M50.1756 42.4346L46.1304 40.1289L39.1322 39.7243L34.278 42.2728L36.2507 55.8068C36.2507 55.8068 32.4883 61.2067 33.86 64.8045C35.5531 69.2451 50.358 71.5616 50.0684 67.228C49.6114 60.3891 48.9057 60.8608 48.3883 57.5072C47.8205 53.8274 51.7936 49.1092 51.7936 49.1092L50.1756 42.4346Z" fill="#CBCBCB"/>
<path d="M35.7747 43.6077L35.3238 41.6534C35.3238 41.6534 33.4001 41.9025 32.0669 45.6262C30.7338 49.3499 28.3639 57.1995 28.3639 57.1995L28.4877 60.0512C28.4877 60.0512 27.5744 61.1065 28.2045 61.5884C28.8346 62.0704 27.0663 62.7238 27.9618 63.4088C28.355 63.71 28.6528 64.1184 28.8193 64.5849C28.9858 65.0514 29.0139 65.556 28.9003 66.0381L31.651 65.1886L31.4488 60.6985L32.5385 57.1591L35.4511 48.3001L35.7747 43.6077Z" fill="#CBCBCB"/>
<path d="M48.6944 43.9409L49.3071 42.0457C49.3071 42.0457 50.4356 41.5839 51.2685 44.1861C52.1015 46.7883 52.4969 53.3734 52.4969 53.3734L54.1149 61.2229C54.1149 61.2229 54.7196 62.2226 54.3981 62.5092C54.0767 62.7958 55.8101 63.1987 54.8026 63.7295C53.7952 64.2603 54.8895 63.6152 54.5131 64.8255C54.2659 65.6204 54.5195 66.0382 54.5195 66.0382L51.4047 65.4115L50.5552 61.3878L48.6283 53.9069L48.6944 43.9409Z" fill="#CBCBCB"/>
<path d="M42.6465 38.0225C45.6135 38.0225 48.0186 35.6173 48.0186 32.6504C48.0186 29.6835 45.6135 27.2783 42.6465 27.2783C39.6796 27.2783 37.2744 29.6835 37.2744 32.6504C37.2744 35.6173 39.6796 38.0225 42.6465 38.0225Z" fill="#2F2E41"/>
<path d="M42.0947 29.3072C40.9387 28.135 39.5398 27.2304 37.9965 26.6571C37.0059 26.2901 35.9276 26.0634 34.8919 26.2718C33.8562 26.4802 32.8768 27.1967 32.5878 28.2129C32.3516 29.0438 32.5955 29.9385 32.9622 30.7207C33.3288 31.5029 33.8184 32.2282 34.1149 33.0396C34.4174 33.8675 34.5084 34.7579 34.3796 35.6299C34.2507 36.5018 33.9062 37.3278 33.3771 38.0329C32.8481 38.7379 32.1513 39.2997 31.3501 39.6671C30.5489 40.0346 29.6686 40.1961 28.7892 40.1371C29.8068 40.2735 30.7448 40.7517 31.7395 41.0063C32.7342 41.2608 33.9081 41.2436 34.6473 40.531C35.4294 39.777 35.445 38.5512 35.4072 37.4655C35.351 35.8517 35.2948 34.2378 35.2386 32.6239C35.2099 31.8009 35.1854 30.9515 35.4823 30.1833C35.7791 29.4151 36.4845 28.7424 37.308 28.7494C37.9321 28.7547 38.4846 29.1328 38.9851 29.5057C39.4856 29.8786 40.0154 30.2764 40.6371 30.3319C41.2588 30.3873 41.9686 29.9273 41.9221 29.3048L42.0947 29.3072Z" fill="#2F2E41"/>
<path d="M46.6568 36.5218C47.7044 34.6054 47.0001 32.2027 45.0838 31.1551C43.1674 30.1075 40.7647 30.8118 39.7171 32.7282C38.6695 34.6445 39.3738 37.0473 41.2902 38.0948C43.2065 39.1424 45.6092 38.4381 46.6568 36.5218Z" fill="#FFB7B7"/>
<path d="M48.7483 34.326H43.0382L42.9796 33.5062L42.6868 34.326H41.8076L41.6915 32.7011L41.1113 34.326H39.41V34.2455C39.4112 33.1143 39.8612 32.0298 40.661 31.2299C41.4609 30.43 42.5454 29.9801 43.6766 29.9788H44.4817C45.6129 29.9801 46.6974 30.43 47.4972 31.2299C48.2971 32.0298 48.747 33.1143 48.7483 34.2455V34.326Z" fill="#2F2E41"/>
<path d="M40.2726 37.2727L38.1874 35.1853L37.8358 30.5645H42.4386L42.3246 30.6782C40.7391 32.2616 39.0275 34.5853 40.2726 37.2727Z" fill="#2F2E41"/>
<path d="M67.7327 107.046H0.177311C0.130285 107.046 0.0851851 107.027 0.0519329 106.994C0.0186807 106.961 0 106.916 0 106.869C0 106.822 0.0186807 106.776 0.0519329 106.743C0.0851851 106.71 0.130285 106.691 0.177311 106.691H67.7327C67.7797 106.691 67.8248 106.71 67.858 106.743C67.8913 106.776 67.91 106.822 67.91 106.869C67.91 106.916 67.8913 106.961 67.858 106.994C67.8248 107.027 67.7797 107.046 67.7327 107.046Z" fill="#CBCBCB"/>
</svg>
