<svg width="71" height="105" viewBox="0 0 71 105" fill="none" xmlns="http://www.w3.org/2000/svg">
<path d="M53.514 18.1792L57.5057 33.5826L48.5122 35.9132L44.5205 20.5098C42.4642 19.3423 40.7764 17.1724 40.0653 14.4283C38.821 9.62687 41.0336 4.8998 45.0072 3.87006C48.9808 2.84033 53.2107 5.89786 54.4549 10.6993C55.1661 13.4434 54.7445 16.16 53.514 18.1792Z" fill="#FFB8B8"/>
<path d="M17.6777 6.11041C20.7389 5.16092 34.0468 1.63329 35.8322 4.29496C37.6177 6.95662 48.3589 5.56577 43.8732 20.6299C41.1882 29.6469 43.9621 39.5105 41.6877 48.6397C41.4582 49.561 41.1752 50.5401 40.445 51.1469C39.2069 52.1759 37.3572 51.6706 35.8459 51.1157C33.8556 50.3849 31.5888 49.3554 31.1119 47.2894C30.6787 45.4133 24.8335 43.5118 25.8473 41.8748C30.3132 34.6631 37.6978 25.1605 33.6445 17.7091C32.7328 16.0331 31.5985 14.3979 31.3532 12.5059C31.1079 10.6139 32.173 8.36554 34.0675 8.14015" fill="#090814"/>
<path d="M32.2227 49.1734L48.8145 46.323L46.4384 26.8447L57.6062 25.5648L64.494 50.935L38.0879 64.088" fill="#D6D6E3"/>
<path d="M32.5209 46.3624H8.26177C8.26177 46.3624 -2.51733 47.6317 2.74747 69.5987C8.01228 91.5657 15.6372 105 15.6372 105L48.3153 101.006L45.1383 76.7697C45.1383 76.7697 49.1322 54.8028 42.9597 51.7165C36.7872 48.6302 32.5209 46.3624 32.5209 46.3624Z" fill="#D6D6E3"/>
<path d="M12.3691 25.6845C12.3691 17.6133 18.9122 11.0702 26.9835 11.0702C35.0548 11.0702 41.5979 17.6133 41.5979 25.6845C41.5979 32.2304 37.294 37.7704 31.362 39.6309L28.5368 58.3021L14.1342 46.3C14.1342 46.3 17.2456 42.3369 18.9142 37.8682C14.9705 35.251 12.3691 30.7724 12.3691 25.6845Z" fill="#FFB8B8"/>
<path d="M37.7283 8.41296C37.8362 6.83448 36.984 5.30571 35.7997 4.25653C34.6155 3.20736 33.1291 2.56816 31.6434 2.02412C26.106 -0.00363047 19.8516 -0.91394 14.3594 1.23319C7.31526 3.987 2.89881 11.3263 1.55614 18.7695C0.213468 26.2126 1.42891 33.8518 2.64443 41.3167C2.93946 43.1286 3.36668 45.1525 4.90506 46.1541C5.88414 46.7917 7.11616 46.8667 8.28447 46.8757C13.6767 46.9174 27.3353 63.5601 32.3831 61.6632C29.5818 54.7317 20.9237 29.253 23.0124 22.0746C23.7582 19.5111 24.8987 16.9199 27.0205 15.2996C28.9263 13.8442 31.371 13.3558 33.6195 12.5224C35.868 11.689 38.1711 10.2358 38.7701 7.91382C38.4158 7.89268 38.0616 7.87153 37.7073 7.85038" fill="#090814"/>
<path d="M67.5185 66.8557H56.0367C54.3354 66.8557 52.9512 65.4715 52.9512 63.7701V33.1599C52.9512 31.4585 54.3354 30.0743 56.0367 30.0743H67.5185C69.2199 30.0743 70.6041 31.4585 70.6041 33.1599V63.7701C70.6041 65.4715 69.2199 66.8557 67.5185 66.8557Z" fill="#232334"/>
<path d="M56.4302 36.4504C57.5361 36.4504 58.4326 35.5539 58.4326 34.448C58.4326 33.3421 57.5361 32.4456 56.4302 32.4456C55.3242 32.4456 54.4277 33.3421 54.4277 34.448C54.4277 35.5539 55.3242 36.4504 56.4302 36.4504Z" fill="#090814"/>
<path d="M60.8559 38.8745C61.9618 38.8745 62.8584 37.978 62.8584 36.872C62.8584 35.7661 61.9618 34.8696 60.8559 34.8696C59.75 34.8696 58.8535 35.7661 58.8535 36.872C58.8535 37.978 59.75 38.8745 60.8559 38.8745Z" fill="#090814"/>
<path d="M56.4302 41.4038C57.5361 41.4038 58.4326 40.5073 58.4326 39.4013C58.4326 38.2954 57.5361 37.3989 56.4302 37.3989C55.3242 37.3989 54.4277 38.2954 54.4277 39.4013C54.4277 40.5073 55.3242 41.4038 56.4302 41.4038Z" fill="#090814"/>
<path d="M54.9044 66.7728L39.8017 75.6123L34.6406 66.7944L49.7433 57.9549C50.3624 55.4292 52.1527 52.9931 54.8432 51.4183C59.5509 48.6629 65.2158 49.5876 67.4961 53.4836C69.7764 57.3796 67.8087 62.7716 63.101 65.527C60.4104 67.1018 57.4097 67.4697 54.9044 66.7728Z" fill="#FFB8B8"/>
<path d="M15.729 53.5319L23.717 70.234L43.6155 61.8829L48.3164 73.3163L23.5355 88.207L1.70508 64.2073" fill="#D6D6E3"/>
<path d="M23.5173 88.3232L23.4672 88.2683L1.63672 64.2687L1.7711 64.1463L23.5514 88.091L48.2016 73.2789L43.5653 62.0022L23.6712 70.3513L23.634 70.2733L15.646 53.5712L15.8098 53.4928L23.7606 70.1169L43.6635 61.7639L43.6985 61.8485L48.4289 73.3541L48.3621 73.3943L23.5173 88.3232Z" fill="white"/>
</svg>
