<svg width="60" height="140" viewBox="0 0 60 140" fill="none" xmlns="http://www.w3.org/2000/svg">
<path d="M17.7639 77.2948C27.1787 77.2948 34.8109 75.3638 34.8109 72.9817C34.8109 70.5996 27.1787 68.6686 17.7639 68.6686C8.34903 68.6686 0.716797 70.5996 0.716797 72.9817C0.716797 75.3638 8.34903 77.2948 17.7639 77.2948Z" fill="#090814"/>
<path d="M14.3742 15.5761C15.4011 18.6569 12.3203 22.3539 12.3203 22.3539L16.6334 27.6939L23.4112 28.9262C23.4112 28.9262 27.9297 25.8454 26.2866 24.8185C24.6435 23.7916 24.4381 15.5761 24.4381 15.5761L14.3742 15.5761Z" fill="#9D616A"/>
<path d="M7.39391 75.3162L0 130.462L0.407145 130.517L7.80106 75.3708L7.39391 75.3162Z" fill="#090814"/>
<path d="M14.1711 76.1473L9.44727 130.575L9.85645 130.61L14.5803 76.1828L14.1711 76.1473Z" fill="#090814"/>
<path d="M27.1221 67.7241L26.7129 67.7614L32.4341 130.51L32.8432 130.472L27.1221 67.7241Z" fill="#090814"/>
<path d="M21.8103 66.6964L19.5098 130.688L19.9201 130.703L22.2207 66.7111L21.8103 66.6964Z" fill="#090814"/>
<path d="M32.0383 56.2427L19.5098 66.9228L40.87 72.2628C40.87 72.2628 33.2707 78.8352 30.6006 79.4514C27.9306 80.0675 22.1798 83.5591 22.1798 83.5591C22.1798 83.5591 31.6276 89.9261 32.2437 89.7207C32.8599 89.5153 36.3515 88.6937 36.3515 88.6937C36.3515 88.6937 55.247 75.549 59.1494 67.7443C63.0517 59.9396 39.4323 58.2966 39.4323 58.2966L32.0383 56.2427Z" fill="#090814"/>
<path d="M5.54416 68.7714C4.72263 71.4414 10.8842 74.3168 10.8842 74.3168C10.8842 74.3168 16.6351 81.9161 18.2781 82.7377C19.9212 83.5592 20.5374 88.4885 20.5374 88.4885C17.662 96.2932 20.5374 119.502 20.5374 122.788C20.5374 126.074 30.6013 122.788 30.6013 122.788C30.6013 122.788 28.7528 97.7309 31.4229 90.1689C34.0929 82.607 20.5374 63.4313 20.5374 63.4313C20.5374 63.4313 6.3657 66.1014 5.54416 68.7714Z" fill="#090814"/>
<path d="M11.0879 11.2557C11.0888 9.07616 11.9555 6.98626 13.4971 5.44562C15.0388 3.90497 17.1292 3.03974 19.3087 3.04022C21.4883 3.0407 23.5784 3.90685 25.1193 5.44817C26.6603 6.98949 27.526 9.07976 27.526 11.2593C27.526 13.4388 26.6603 15.5291 25.1193 17.0704C23.5784 18.6117 21.4883 19.4778 19.3087 19.4783C17.1292 19.4788 15.0388 18.6136 13.4971 17.0729C11.9555 15.5323 11.0888 13.4424 11.0879 11.2629V11.2557Z" fill="#9D616A"/>
<path d="M42.7191 58.5018L34.2217 55.5537C33.8961 52.5916 33.4128 48.948 32.9388 45.5703L35.5306 31.8015L35.7554 25.4441C34.3015 22.8997 24.71 19.4783 24.71 19.4783C24.71 19.4783 24.9008 20.1489 25.1676 21.2151C25.0912 21.2168 25.0171 21.242 24.9556 21.2874C24.9556 21.2874 26.0828 27.8992 20.1265 26.2561C18.4357 25.8392 16.9107 24.9202 15.7522 23.62C14.622 21.6915 14.0075 19.9913 14.2841 18.7509C14.2841 18.7509 2.77251 27.7521 1.95095 29.806C1.1294 31.8599 4.13188 49.4344 4.13188 49.4344C4.13188 49.4344 0.82022 67.5388 4.92797 72.2627C4.92797 72.2627 3.49025 69.798 11.0895 69.798C18.6888 69.798 22.3858 68.3603 22.5912 68.1549C22.7966 67.9496 26.6989 68.1549 26.6989 68.1549C26.6989 68.1549 26.7718 66.6611 26.8309 64.2902C30.7857 63.3177 34.0947 62.1959 34.5036 61.5826C34.5904 61.3581 34.628 61.1177 34.6138 60.8774L42.7191 58.5018Z" fill="white"/>
<path d="M30.6484 61.2277L31.4222 66.7174C31.4222 66.7174 37.7892 76.1652 41.0754 74.1113C44.3616 72.0575 36.1461 64.4582 36.1461 64.4582V61.9935L30.6484 61.2277Z" fill="#9D616A"/>
<path d="M23.8237 83.559C23.8237 83.559 16.6352 88.4883 16.4298 89.7206C16.2244 90.9529 31.423 105.741 34.9146 104.508C38.4061 103.276 30.6015 91.3637 30.6015 91.3637L32.8607 88.0775L23.8237 83.559Z" fill="#090814"/>
<path d="M21.5627 121.145C21.5627 121.145 18.4819 126.896 20.125 129.36C21.7681 131.825 23.0005 134.906 24.0274 137.165C25.0543 139.424 32.4482 140.451 35.7344 139.63C39.0206 138.808 31.8321 129.36 31.8321 129.36L29.9836 121.145H21.5627Z" fill="#090814"/>
<path d="M37.3783 29.9531C37.1729 25.0238 33.6813 23.5861 33.6813 23.5861L31.4221 48.8486L31.663 48.8652L31.4221 49.2594L29.9844 63.4311C31.6275 61.3772 36.7621 63.4311 36.7621 63.4311L37.3783 49.2594C37.3783 49.2594 37.5837 34.8823 37.3783 29.9531Z" fill="white"/>
<path d="M27.3145 68.7714L29.9845 70.8252C29.9845 70.8252 33.8868 76.5761 40.6646 73.0845C47.4423 69.5929 32.2437 64.6637 32.2437 64.6637L28.3414 63.4313L27.3145 68.7714Z" fill="#9D616A"/>
<path d="M0.61413 31.3911C-1.43974 33.8557 3.28416 50.492 4.51647 55.4213C5.74879 60.3506 16.8397 64.6637 19.5097 64.8691C22.1797 65.0745 24.8498 70.0037 26.6982 70.8253C28.5467 71.6469 28.7521 66.1014 29.7989 63.4974C30.8456 60.8935 23.8228 61.1721 23.8228 61.1721L13.5535 54.3944C13.5535 54.3944 12.5266 44.9466 11.705 37.7581C10.8835 30.5696 5.33805 27.8995 5.33805 27.8995C3.69495 26.8726 2.668 28.9264 0.61413 31.3911Z" fill="white"/>
<path d="M25.0977 6.81703C25.0977 6.81703 29.6219 9.48263 30.5936 9.45944C31.5652 9.43625 31.8006 8.51563 31.084 7.24601C30.3674 5.97639 27.0803 6.02627 27.0803 6.02627L25.0977 6.81703Z" fill="#090814"/>
<path opacity="0.1" d="M25.0977 6.81703C25.0977 6.81703 29.6219 9.48263 30.5936 9.45944C31.5652 9.43625 31.8006 8.51563 31.084 7.24601C30.3674 5.97639 27.0803 6.02627 27.0803 6.02627L25.0977 6.81703Z" fill="black"/>
<path d="M15.3371 6.44938L20.3762 4.32751L24.8112 4.45039L29.3749 6.37162C27.5846 5.64232 23.2389 8.06216 20.1663 11.1093C17.0938 14.1564 14.9592 12.1772 14.9592 12.1772L12.7109 10.2293L15.3371 6.44938Z" fill="#232334"/>
<path d="M10.371 8.61243C10.0354 6.16553 11.5835 3.96152 12.5678 2.83706C13.0076 2.3363 13.6117 2.00901 14.2714 1.91414C14.2971 1.88751 14.325 1.86025 14.3555 1.83349C15.4369 0.872959 19.2594 0.0508479 19.2594 0.0508479C20.3957 -0.26221 22.5697 0.97262 22.5697 0.97262L26.592 5.36583C24.5119 4.47189 21.5888 5.39948 21.5888 5.39948C18.6752 6.07266 15.9357 7.99492 13.9979 9.65845C12.9936 10.5129 12.0508 11.4373 11.1768 12.4248C11.1768 12.4248 10.8556 12.1465 10.371 8.61243Z" fill="#232334"/>
<path opacity="0.1" d="M12.9805 10.4193C21.4655 3.26963 26.2163 4.83258 26.4142 4.90238L26.2781 5.28989C26.2315 5.27373 21.5253 3.75641 13.2452 10.7334L12.9805 10.4193Z" fill="black"/>
<path d="M14.8888 2.42409C15.4782 2.0838 15.7721 1.4894 15.5452 1.09646C15.3183 0.703526 14.6566 0.660854 14.0672 1.00115C13.4778 1.34144 13.1839 1.93585 13.4108 2.32878C13.6376 2.72172 14.2994 2.76439 14.8888 2.42409Z" fill="#232334"/>
<path d="M13.0338 11.4548C13.1158 10.8936 12.9093 10.3988 12.5726 10.3496C12.2359 10.3004 11.8964 10.7155 11.8145 11.2767C11.7325 11.8379 11.939 12.3327 12.2757 12.3819C12.6124 12.4311 12.9519 12.016 13.0338 11.4548Z" fill="#9D616A"/>
<path opacity="0.2" d="M13.2188 42.8917L13.8407 54.5833L23.7599 60.7027L15.0362 54.1599L13.2188 42.8917Z" fill="black"/>
<path opacity="0.2" d="M29.9401 44.7094L29.2131 60.7028L28.8496 44.7094H29.9401Z" fill="black"/>
</svg>
