<svg width="78" height="139" viewBox="0 0 78 139" fill="none" xmlns="http://www.w3.org/2000/svg">
<path d="M37.3036 93.2106C46.7878 93.2106 54.4763 91.4258 54.4763 89.2241C54.4763 87.0224 46.7878 85.2375 37.3036 85.2375C27.8194 85.2375 20.1309 87.0224 20.1309 89.2241C20.1309 91.4258 27.8194 93.2106 37.3036 93.2106Z" fill="#3F3D56"/>
<path d="M51.0811 128.938L34.5215 130.163L34.5667 130.774L51.1263 129.55L51.0811 128.938Z" fill="#CACACA"/>
<path d="M23.651 126.828L23.3555 127.365L29.4886 130.738L29.7841 130.201L23.651 126.828Z" fill="#CACACA"/>
<path d="M40.9827 124.643H35.4629V125.256H40.9827V124.643Z" fill="#CACACA"/>
<path d="M21.0496 162.996L20.4375 162.954L25.0373 92.7302L25.6494 92.7719L21.0496 162.996Z" fill="#CACACA"/>
<path d="M43.7423 162.99L40.6758 98.2855L41.2885 98.2555L44.355 162.96L43.7423 162.99Z" fill="#CACACA"/>
<path d="M49.875 92.4185L49.2637 92.469L55.09 163L55.7013 162.949L49.875 92.4185Z" fill="#CACACA"/>
<path d="M30.5567 162.983L29.9434 162.968L31.7833 98.2634L32.3966 98.2781L30.5567 162.983Z" fill="#CACACA"/>
<path d="M27.6209 122.421L23.5479 124.834L12.3047 110.271L18.3164 106.711L27.6209 122.421Z" fill="#FFB6B6"/>
<path d="M30.9984 125.754L17.8652 133.532L17.7668 133.366C16.9639 132.011 16.7324 130.391 17.1232 128.865C17.514 127.339 18.4951 126.03 19.8508 125.227L19.8511 125.227L27.8724 120.476L30.9984 125.754Z" fill="#2F2E41"/>
<path d="M47.291 122.421L51.364 124.834L62.6073 110.271L56.5959 106.711L47.291 122.421Z" fill="#FFB6B6"/>
<path d="M47.0401 120.476L55.0614 125.227L55.0617 125.227C56.4174 126.03 57.3985 127.339 57.7893 128.865C58.1801 130.391 57.9486 132.011 57.1457 133.366L57.0473 133.532L43.9141 125.754L47.0401 120.476Z" fill="#2F2E41"/>
<path d="M50.0903 66.8583C50.0903 66.8583 36.8014 76.2182 23.8661 67.7719L23.6637 73.6598C23.6637 73.6598 -4.04398 85.411 0.504429 94.591C5.05284 103.771 14.6106 113.297 14.6106 113.297L19.8238 109.004L13.9973 94.2843L29.8458 87.5703L43.6624 87.6398L62.9284 95.4376L53.7288 109.237L61.8356 111.764C61.8356 111.764 81.1549 93.9777 77.0151 88.9179C73.6968 84.8622 53.8336 75.7691 53.8336 75.7691L50.0903 66.8583Z" fill="#2F2E41"/>
<path d="M54.7142 32.5211L43.212 28.7082L40.3689 24.6733H32.0892L29.6361 28.772L18.9705 32.5211C18.389 32.6873 17.8894 33.0624 17.5676 33.5745C17.2458 34.0865 17.1244 34.6994 17.2269 35.2954L21.9696 74.3515L29.6359 73.7382C29.6359 73.7382 39.9647 81.7977 46.1954 72.5116L46.5281 67.8288L52.9418 74.0449L56.4578 35.2954C56.5603 34.6994 56.439 34.0865 56.1171 33.5744C55.7953 33.0624 55.2957 32.6873 54.7142 32.5211Z" fill="#232334"/>
<path d="M45.8843 6.03572C42.4836 0.289477 35.7554 0.0216758 35.7554 0.0216758C35.7554 0.0216758 29.1992 -0.816721 24.9935 7.93487C21.0734 16.0921 15.6632 21.2081 24.1225 23.1177L25.6505 18.3618L26.5968 23.4717C27.8012 23.5584 29.0095 23.579 30.2162 23.5336C39.2755 23.2411 47.903 23.6192 47.6252 20.3683C47.256 16.0468 49.1566 11.5647 45.8843 6.03572Z" fill="#2F2E41"/>
<path d="M36.5375 23.115C41.449 23.115 45.4306 19.1334 45.4306 14.2219C45.4306 9.31046 41.449 5.32892 36.5375 5.32892C31.6261 5.32892 27.6445 9.31046 27.6445 14.2219C27.6445 19.1334 31.6261 23.115 36.5375 23.115Z" fill="#FFB8B8"/>
<path d="M44.6862 5.17513L38.0392 1.69336L28.8601 3.11777L26.9609 11.5057L31.6883 11.3239L33.0091 8.2423V11.2733L35.1907 11.1893L36.4565 6.28308L37.248 11.5057L45.003 11.3475L44.6862 5.17513Z" fill="#2F2E41"/>
<path opacity="0.2" d="M22.6387 40.9456L29.5384 67.9285C29.5384 67.9285 26.3185 44.3188 22.6387 40.9456Z" fill="black"/>
<path opacity="0.2" d="M43.2266 68.2353L50.1263 41.2523C46.4464 44.6255 43.2266 68.2353 43.2266 68.2353Z" fill="black"/>
<path d="M44.8337 91.808C45.2055 91.6117 45.5297 91.3363 45.7834 91.0011C46.0372 90.666 46.2144 90.2793 46.3026 89.8683C46.3908 89.4573 46.3878 89.0319 46.2938 88.6222C46.1998 88.2124 46.0171 87.8283 45.7586 87.4968L52.0224 70.365L47.2277 67.9241L41.5424 87.103C41.0143 87.5742 40.6774 88.2228 40.5956 88.9258C40.5137 89.6288 40.6926 90.3374 41.0983 90.9174C41.504 91.4973 42.1083 91.9083 42.7968 92.0724C43.4853 92.2366 44.21 92.1425 44.8337 91.808Z" fill="#FFB6B6"/>
<path d="M50.887 39.2602L43.8984 69.6504C43.831 69.9644 43.8894 70.2923 44.0612 70.5637C44.2329 70.8351 44.5042 71.0283 44.8169 71.1018L51.5472 72.0715C51.7128 72.1105 51.8847 72.1145 52.052 72.0835C52.2193 72.0524 52.3783 71.9869 52.5189 71.8911C52.6595 71.7952 52.7786 71.6712 52.8687 71.5269C52.9588 71.3825 53.0178 71.221 53.0421 71.0526L55.0898 39.393L50.887 39.2602Z" fill="#232334"/>
<path d="M28.8527 92.421C28.481 92.2248 28.1568 91.9494 27.903 91.6142C27.6492 91.2791 27.472 90.8924 27.3839 90.4814C27.2957 90.0703 27.2987 89.645 27.3927 89.2352C27.4867 88.8255 27.6694 88.4414 27.9279 88.1099L21.6641 70.9781L26.4588 68.5372L32.144 87.7161C32.6721 88.1873 33.009 88.8359 33.0909 89.5389C33.1727 90.2419 32.9939 90.9505 32.5882 91.5305C32.1825 92.1104 31.5781 92.5214 30.8897 92.6855C30.2012 92.8497 29.4764 92.7556 28.8527 92.421Z" fill="#FFB6B6"/>
<path d="M22.7986 39.8733L29.7871 70.2635C29.8545 70.5775 29.7961 70.9054 29.6243 71.1768C29.4526 71.4482 29.1813 71.6414 28.8686 71.7149L22.1383 72.6846C21.9727 72.7236 21.8008 72.7276 21.6335 72.6966C21.4662 72.6655 21.3072 72.6 21.1666 72.5042C21.026 72.4083 20.9069 72.2843 20.8169 72.14C20.7268 71.9956 20.6677 71.8341 20.6434 71.6657L17.9824 40.0061L22.7986 39.8733Z" fill="#232334"/>
</svg>
