<svg width="174" height="91" viewBox="0 0 174 91" fill="none" xmlns="http://www.w3.org/2000/svg">
<path d="M5.76172 57.1817L8.10116 67.0798L31.0762 71.3618V52.4905L5.76172 51.2806V57.1817Z" fill="#2F2E43"/>
<path d="M146.472 46.4077H29.2402V75.9388H146.472V46.4077Z" fill="#2F2E43"/>
<path d="M35.0042 72.1003C35.0042 80.4181 32.0299 87.1611 21.9632 87.1611C13.2692 87.1611 10.2949 80.4181 10.2949 72.1003C10.2949 63.7824 14.7608 57.0394 21.9632 57.0394C29.1655 57.0394 35.0042 63.7824 35.0042 72.1003Z" fill="#2F2E43"/>
<path d="M18.532 83.0266C21.5645 83.0266 24.0229 77.8041 24.0229 71.3619C24.0229 64.9196 21.5645 59.6971 18.532 59.6971C15.4994 59.6971 13.041 64.9196 13.041 71.3619C13.041 77.8041 15.4994 83.0266 18.532 83.0266Z" fill="white"/>
<path d="M18.5331 74.4628C20.6559 74.4628 22.3768 72.6118 22.3768 70.3284C22.3768 68.0451 20.6559 66.1941 18.5331 66.1941C16.4103 66.1941 14.6895 68.0451 14.6895 70.3284C14.6895 72.6118 16.4103 74.4628 18.5331 74.4628Z" fill="#2F2E43"/>
<path d="M144.823 88.0472C153.466 88.0472 160.472 79.5854 160.472 69.1473C160.472 58.7092 153.466 50.2474 144.823 50.2474C136.18 50.2474 129.174 58.7092 129.174 69.1473C129.174 79.5854 136.18 88.0472 144.823 88.0472Z" fill="#232334"/>
<path d="M70.6992 85.0942C77.3709 85.0942 82.7793 78.7479 82.7793 70.9193C82.7793 63.0907 77.3709 56.7444 70.6992 56.7444C64.0276 56.7444 58.6191 63.0907 58.6191 70.9193C58.6191 78.7479 64.0276 85.0942 70.6992 85.0942Z" fill="#2F2E43"/>
<path d="M92.6609 91C101.304 91 108.31 82.5382 108.31 72.1001C108.31 61.662 101.304 53.2002 92.6609 53.2002C84.0181 53.2002 77.0117 61.662 77.0117 72.1001C77.0117 82.5382 84.0181 91 92.6609 91Z" fill="#2F2E43"/>
<path d="M89.7777 84.7986C95.1605 84.7986 99.5241 78.5845 99.5241 70.919C99.5241 63.2535 95.1605 57.0394 89.7777 57.0394C84.3949 57.0394 80.0312 63.2535 80.0312 70.919C80.0312 78.5845 84.3949 84.7986 89.7777 84.7986Z" fill="white"/>
<path d="M143.131 84.2449C148.514 84.2449 152.878 78.0308 152.878 70.3653C152.878 62.6998 148.514 56.4857 143.131 56.4857C137.748 56.4857 133.385 62.6998 133.385 70.3653C133.385 78.0308 137.748 84.2449 143.131 84.2449Z" fill="#2F2E43"/>
<path d="M89.6383 74.7582C92.5192 74.7582 94.8547 72.2461 94.8547 69.1473C94.8547 66.0485 92.5192 63.5364 89.6383 63.5364C86.7573 63.5364 84.4219 66.0485 84.4219 69.1473C84.4219 72.2461 86.7573 74.7582 89.6383 74.7582Z" fill="#2F2E43"/>
<path d="M0 62.5994V40.1257C0 38.1526 1.48702 36.5531 3.32136 36.5531H7.75447C7.75447 36.5531 11.3937 13.0379 18.2574 9.78952C25.1211 6.5411 86.6197 -8.22443 120.389 6.24579L131.645 28.3941C131.645 28.3941 157.178 28.3941 159.924 34.5956C159.924 34.5956 172.004 31.3472 173.102 45.5221L170.082 62.0595L168.984 67.9657L109.407 65.8985L98.4252 64.422C98.4252 64.422 96.7779 50.8377 88.8161 50.8377C80.8542 50.8377 77.5596 52.9049 77.5596 52.9049C77.5596 52.9049 71.5196 63.536 73.4414 74.1672H28.7062C28.7062 74.1672 26.7684 57.6298 17.7083 57.3345C13.5828 57.2001 9.47188 55.5627 8.09915 67.0798L3.18214 66.4523C1.3671 66.2206 0 64.5654 0 62.5994Z" fill="#232334"/>
<path d="M129.545 27.9516H75.8308C74.0606 27.9516 72.5705 26.5872 72.2877 24.7076L70.2655 11.2609C70.1203 10.2948 70.3472 9.33751 70.9048 8.5652C71.4618 7.79361 72.2666 7.32051 73.1714 7.2327C102.364 4.39956 114.277 6.45116 118.044 7.46456C120.357 8.08662 122.302 9.86641 123.247 12.2254L129.545 27.9516Z" fill="white"/>
<path d="M51.9744 30.6525C51.5432 30.6525 51.1217 30.6429 50.7111 30.6226C50.02 30.5884 49.3748 30.238 48.9409 29.6613C48.5095 29.0878 48.3263 28.3413 48.4386 27.6133L50.615 13.4808C50.7876 12.3596 51.6402 11.4777 52.6881 11.336L63.1433 9.92059C64.3789 9.75274 65.5185 10.6136 65.7913 11.9222L68.6036 25.4162C68.7445 26.092 68.6321 26.786 68.2872 27.3704C67.9429 27.9537 67.4081 28.3577 66.7811 28.5078C63.3157 29.3374 57.0247 30.6523 51.9744 30.6525Z" fill="white"/>
<path d="M21.8443 33.3498C21.1912 33.3498 20.5713 33.0299 20.1629 32.4744C19.7239 31.8773 19.5877 31.0867 19.7984 30.3595C21.4826 24.5514 24.5845 14.6753 26.4376 13.7894C28.283 12.9072 37.7963 12.1216 43.3029 11.7319C43.9609 11.6863 44.5918 11.9607 45.0333 12.4873C45.4756 13.0146 45.6655 13.7187 45.5547 14.4192L43.0914 29.9953C42.925 31.0475 42.1175 31.8342 41.1276 31.9085L21.9942 33.3444C21.9441 33.3481 21.894 33.3498 21.8443 33.3498Z" fill="white"/>
<path d="M40.7715 69.1469V39.8639L44.8495 33.4143H70.7537L67.128 41.0924L67.964 69.1469H40.7715Z" stroke="#2F2E43" stroke-width="0.261403" stroke-miterlimit="10" stroke-linecap="round"/>
<path d="M32.4609 69.1469H40.7684" stroke="#2F2E43" stroke-width="0.261403" stroke-miterlimit="10" stroke-linecap="round"/>
<path d="M14.7598 57.1818C14.7598 57.1818 16.3371 37.2545 19.0825 36.2204L42.1445 34.3004" stroke="#2F2E43" stroke-width="0.261403" stroke-miterlimit="10" stroke-linecap="round"/>
<path d="M20.4512 43.1599H24.1223" stroke="#2F2E43" stroke-width="0.261403" stroke-miterlimit="10" stroke-linecap="round"/>
<path d="M48.1847 39.6496H43.4551V41.9783H48.1847V39.6496Z" stroke="#2F2E43" stroke-width="0.261403" stroke-miterlimit="10" stroke-linecap="round"/>
<path d="M70.752 33.4148L119.153 31.4952C119.153 31.4952 125.029 34.8862 126.346 45.7414L158.962 47.1467C158.962 47.1467 161.982 39.1733 159.923 34.596" stroke="#2F2E43" stroke-width="0.261403" stroke-miterlimit="10" stroke-linecap="round"/>
<path d="M116.82 53.2C120.308 53.2 123.135 50.1591 123.135 46.4079C123.135 42.6567 120.308 39.6157 116.82 39.6157C113.333 39.6157 110.506 42.6567 110.506 46.4079C110.506 50.1591 113.333 53.2 116.82 53.2Z" fill="#2F2E43"/>
<path d="M116.82 51.429C119.397 51.429 121.487 49.1813 121.487 46.4087C121.487 43.6361 119.397 41.3884 116.82 41.3884C114.242 41.3884 112.152 43.6361 112.152 46.4087C112.152 49.1813 114.242 51.429 116.82 51.429Z" fill="white"/>
<path d="M115.856 59.2547C116.766 59.2547 117.504 58.1308 117.504 56.7445C117.504 55.3582 116.766 54.2344 115.856 54.2344C114.946 54.2344 114.209 55.3582 114.209 56.7445C114.209 58.1308 114.946 59.2547 115.856 59.2547Z" fill="white"/>
<path d="M169.333 52.5588C171.911 52.5588 174.001 50.3112 174.001 47.5385C174.001 44.7659 171.911 42.5182 169.333 42.5182C166.756 42.5182 164.666 44.7659 164.666 47.5385C164.666 50.3112 166.756 52.5588 169.333 52.5588Z" fill="white"/>
<path d="M168.372 60.3845C169.282 60.3845 170.019 59.2607 170.019 57.8744C170.019 56.4881 169.282 55.3643 168.372 55.3643C167.462 55.3643 166.725 56.4881 166.725 57.8744C166.725 59.2607 167.462 60.3845 168.372 60.3845Z" fill="white"/>
<path d="M162.944 59.4019H123.135L123.958 53.3679C123.958 50.1766 126.364 47.5895 129.331 47.5895H157.352C160.44 47.5895 162.944 50.2825 162.944 53.6046V59.4019Z" fill="#2F2E43"/>
</svg>
