<svg width="94" height="133" viewBox="0 0 94 133" fill="none" xmlns="http://www.w3.org/2000/svg">
<path d="M62.9268 129.749L59.8514 129.749L58.3887 117.731L62.9274 117.731L62.9268 129.749Z" fill="#A0616A"/>
<path d="M63.0369 133L53.5801 133V132.878C53.5801 131.889 53.968 130.941 54.6582 130.241C55.3485 129.542 56.2847 129.149 57.2609 129.149L58.9885 127.821L62.2115 129.149L63.037 129.149L63.0369 133Z" fill="#2F2E41"/>
<path d="M93.8701 129.749L90.7951 129.749L89.332 117.731L93.871 117.731L93.8701 129.749Z" fill="#A0616A"/>
<path d="M93.9783 133L84.5215 133V132.878C84.5216 131.889 84.9094 130.941 85.5997 130.241C86.2899 129.542 87.2261 129.149 88.2023 129.149L89.9299 127.821L93.1529 129.149L93.9784 129.149L93.9783 133Z" fill="#2F2E41"/>
<path d="M65.4355 60.7048C65.4355 60.7048 63.4159 62.8766 63.3306 64.2855C63.2453 65.6945 64.2978 63.1352 63.2453 65.6945C62.1929 68.2537 62.1929 66.5476 62.1929 68.2537C62.1929 69.9599 59.9627 71.6259 59.9627 71.6259L56.2852 86.9563L58.404 122.851H63.0348C67.3384 109.56 69.3406 99.2955 67.0342 94.6993L73.4652 80.2168C73.4652 80.2168 85.6172 118.744 86.1136 119.198C86.6101 119.652 86.61 119.012 86.61 119.652C86.61 120.292 85.9786 119.652 86.61 120.292L89.557 123.278L93.9773 122.851C93.9773 122.851 94.5689 94.957 89.6422 90.1362L89.8527 75.2498C89.935 72.867 89.8527 72.867 89.8527 72.867L86.0639 59.3776L65.4355 60.7048Z" fill="#2F2E41"/>
<path d="M89.2983 30.9867L85.0184 49.1429L86.0292 55.8962L87.2421 63.9867L83.0488 63.7117L76.5596 63.2845L64.5111 62.4944L63.457 26.6649L68.9846 20.8128L69.9722 17.9716L77.9632 17.9219L79.875 21.3337L84.7903 22.7499C85.4221 23.1561 86.0157 23.6203 86.5635 24.1368C87.7764 25.275 88.8507 26.7205 89.3532 28.2011C89.5047 28.6326 89.6008 29.082 89.6391 29.5383L89.2983 30.9867Z" fill="#E6E6E6"/>
<path d="M52.102 77.0537C52.424 76.8734 52.7035 76.6243 52.9211 76.3238C53.1388 76.0233 53.2894 75.6785 53.3626 75.3131C53.4358 74.9478 53.4298 74.5708 53.345 74.208C53.2603 73.8453 53.0987 73.5056 52.8716 73.2123L58.9671 61.9687L56.3122 59.4958L49.1688 72.9036C48.71 73.3277 48.4207 73.9075 48.3557 74.5333C48.2907 75.159 48.4545 75.7872 48.8161 76.2987C49.1776 76.8102 49.7118 77.1696 50.3174 77.3088C50.9231 77.448 51.558 77.3572 52.102 77.0537Z" fill="#E6E6E6"/>
<path d="M66.9689 24.4744L65.5481 50.2631L58.7029 66.4696L54.2475 72.4559L54.754 69.7433L51.6829 68.1864L51.3945 68.0414L57.2904 44.8589L57.8335 35.8503C57.9272 34.3 58.3373 32.7863 59.0381 31.4049C59.7388 30.0235 60.7148 28.8045 61.9044 27.8249L65.3144 25.0183L66.9689 24.4744Z" fill="#E6E6E6"/>
<path d="M52.102 77.0537C52.424 76.8734 52.7035 76.6243 52.9211 76.3238C53.1388 76.0233 53.2894 75.6785 53.3626 75.3131C53.4358 74.9478 53.4298 74.5708 53.345 74.208C53.2603 73.8453 53.0987 73.5056 52.8716 73.2123L58.9671 61.9687L56.3122 59.4958L49.1688 72.9036C48.71 73.3277 48.4207 73.9075 48.3557 74.5333C48.2907 75.159 48.4545 75.7872 48.8161 76.2987C49.1776 76.8102 49.7118 77.1696 50.3174 77.3088C50.9231 77.448 51.558 77.3572 52.102 77.0537Z" fill="#A0616A"/>
<path d="M66.9689 24.4744L65.5481 50.2631L58.7029 66.4696L54.2475 72.4559L54.754 69.7433L51.6829 68.1864L51.3945 68.0414L57.2904 44.8589L57.8335 35.8503C57.9272 34.3 58.3373 32.7863 59.0381 31.4049C59.7388 30.0235 60.7148 28.8045 61.9044 27.8249L65.3144 25.0183L66.9689 24.4744Z" fill="#E6E6E6"/>
<path d="M73.5649 25.3638H8.01065C3.74506 25.3638 0.287109 28.8674 0.287109 33.1893V67.4541C0.287109 71.776 3.74506 75.2795 8.01065 75.2795H73.5649C77.8305 75.2795 81.2885 71.776 81.2885 67.4541V33.1893C81.2885 28.8674 77.8305 25.3638 73.5649 25.3638Z" fill="white"/>
<path d="M73.5666 75.5721H8.01235C5.88808 75.5697 3.8515 74.7136 2.34942 73.1917C0.847341 71.6698 0.00240926 69.6063 0 67.454V33.1892C0.00240927 31.0369 0.847338 28.9734 2.34942 27.4515C3.85151 25.9296 5.88808 25.0735 8.01235 25.0711H73.5666C75.6909 25.0736 77.7274 25.9297 79.2295 27.4516C80.7315 28.9735 81.5764 31.0369 81.5788 33.1892V67.454C81.5764 69.6063 80.7315 71.6697 79.2295 73.1916C77.7274 74.7135 75.6909 75.5696 73.5666 75.5721ZM8.01235 25.6563C6.04053 25.6563 4.14946 26.45 2.75518 27.8627C1.36089 29.2753 0.577588 31.1913 0.577588 33.1892V45.9964C0.577588 53.6852 3.59215 61.059 8.9581 66.4958C14.3241 71.9326 21.6019 74.9869 29.1905 74.9869H73.5667C75.5384 74.9869 77.4295 74.1933 78.8237 72.7806C80.218 71.3679 81.0013 69.452 81.0013 67.4542V33.1892C81.0013 32.2 80.809 31.2204 80.4353 30.3065C80.0617 29.3926 79.5141 28.5621 78.8237 27.8627C78.1333 27.1632 77.3137 26.6083 76.4117 26.2297C75.5096 25.8512 74.5429 25.6563 73.5665 25.6563L8.01235 25.6563Z" fill="#424242"/>
<path d="M25.3384 61.733H10.0323C9.47403 61.733 9.02148 62.1915 9.02148 62.7571C9.02148 63.3227 9.47403 63.7812 10.0323 63.7812H25.3384C25.8966 63.7812 26.3491 63.3227 26.3491 62.7571C26.3491 62.1915 25.8966 61.733 25.3384 61.733Z" fill="#2F5B50"/>
<path d="M71.5458 58.9532H60.8604C60.3022 58.9532 59.8496 59.4117 59.8496 59.9773V65.5368C59.8496 66.1024 60.3022 66.5609 60.8604 66.5609H71.5458C72.104 66.5609 72.5566 66.1024 72.5566 65.5368V59.9773C72.5566 59.4117 72.104 58.9532 71.5458 58.9532Z" fill="#2F5B50"/>
<path d="M14.2198 44.6158C17.0907 44.6158 19.4181 42.2578 19.4181 39.3489C19.4181 36.4401 17.0907 34.082 14.2198 34.082C11.3488 34.082 9.02148 36.4401 9.02148 39.3489C9.02148 42.2578 11.3488 44.6158 14.2198 44.6158Z" fill="#2F5B50"/>
<path d="M73.6737 16.414C77.2786 16.414 80.2009 13.4531 80.2009 9.80062C80.2009 6.14816 77.2786 3.18726 73.6737 3.18726C70.0688 3.18726 67.1465 6.14816 67.1465 9.80062C67.1465 13.4531 70.0688 16.414 73.6737 16.414Z" fill="#A0616A"/>
<path d="M79.0289 13.2189C79.0798 13.614 78.3744 13.6558 78.2154 13.2914C78.0563 12.927 78.2626 12.514 78.4632 12.1713L78.9288 11.3758C79.0165 11.2259 79.0676 11.0571 79.0778 10.8832C79.088 10.7093 79.0571 10.5355 78.9875 10.3762C78.918 10.2169 78.8119 10.0768 78.6781 9.96744C78.5443 9.8581 78.3866 9.78276 78.2182 9.74768C78.6443 8.77681 78.1819 7.56502 77.333 6.94121C76.4842 6.3174 75.2211 7.48458 74.1912 7.68474C73.1613 7.88491 72.3368 7.08627 71.398 7.55974L71.962 6.24238L68.8401 7.60519L69.5654 6.12326C68.7775 6.16675 68.442 7.13903 68.285 7.92254C68.1178 8.75734 67.6788 9.8009 66.7831 9.62796C66.5707 9.57996 66.3759 9.47216 66.2213 9.31697C66.0667 9.16177 65.9585 8.96549 65.9091 8.75072C65.2171 6.04674 67.2265 3.09066 69.8902 2.61641C70.1752 1.81952 70.7044 1.13601 71.4005 0.665981C72.0966 0.195955 72.923 -0.0358793 73.7586 0.00443093C74.5942 0.0447411 75.395 0.355078 76.0439 0.889989C76.6928 1.4249 77.1556 2.15627 77.3645 2.97698L78.2378 1.89355L78.4081 3.42864C79.0357 3.36105 79.6287 3.81001 79.9337 4.36988C80.2387 4.92974 80.0946 5.65258 80.3874 6.21907C81.6999 8.75801 81.2656 11.6163 79.2391 13.5636" fill="#2F2E41"/>
<path d="M76.4555 75.4887C76.771 75.2969 77.0416 75.0379 77.2486 74.7298C77.4556 74.4216 77.594 74.0715 77.6544 73.7038C77.7147 73.3361 77.6955 72.9595 77.598 72.6001C77.5006 72.2406 77.3272 71.9069 77.09 71.622L82.7874 60.166L80.0474 57.7903L73.3787 71.4468C72.9351 71.8871 72.6663 72.477 72.6233 73.1047C72.5803 73.7323 72.766 74.3542 73.1452 74.8524C73.5245 75.3506 74.071 75.6906 74.6811 75.8078C75.2912 75.9251 75.9225 75.8115 76.4555 75.4887Z" fill="#A0616A"/>
<path d="M89.3515 28.2012L89.6374 29.5385L88.953 48.2301L86.0275 55.8963L83.0471 63.7118L82.6804 64.6745L78.438 70.8163L78.8481 68.0863L75.7233 66.6408L75.4316 66.5092L76.5579 63.2846L79.1484 55.8759L80.2689 52.6689L80.5115 43.1271L80.7368 34.106C80.776 32.5535 81.1327 31.0261 81.7844 29.6203C82.4361 28.2146 83.3686 26.9612 84.5229 25.9394L86.5618 24.137C87.7747 25.2752 88.849 26.7207 89.3515 28.2012Z" fill="#E6E6E6"/>
<path d="M21.1954 74.8959L7.65729 74.6032C5.97321 74.6007 4.35887 73.9216 3.16827 72.7149C1.97766 71.5081 1.30799 69.8722 1.3061 68.1659L0.728516 53.8246C2.39084 65.5167 8.7789 72.9333 21.1954 74.8959Z" fill="#134639"/>
</svg>
