<svg width="123" height="117" viewBox="0 0 123 117" fill="none" xmlns="http://www.w3.org/2000/svg">
<path d="M53.8614 69.1562H51.5488V70.4169H53.8614V69.1562Z" fill="#3F3D56"/>
<path d="M58.4903 69.1562H56.1777V70.4169H58.4903V69.1562Z" fill="#3F3D56"/>
<path d="M63.1133 69.1562H60.8008V70.4169H63.1133V69.1562Z" fill="#3F3D56"/>
<path d="M67.7383 69.1562H65.4258V70.4169H67.7383V69.1562Z" fill="#3F3D56"/>
<path d="M72.3633 69.1562H70.0508V70.4169H72.3633V69.1562Z" fill="#3F3D56"/>
<path d="M76.9883 69.1562H74.6758V70.4169H76.9883V69.1562Z" fill="#3F3D56"/>
<path d="M81.6153 69.1562H79.3027V70.4169H81.6153V69.1562Z" fill="#3F3D56"/>
<path d="M86.2383 69.1562H83.9258V70.4169H86.2383V69.1562Z" fill="#3F3D56"/>
<path d="M90.8653 69.1562H88.5527V70.4169H90.8653V69.1562Z" fill="#3F3D56"/>
<path d="M95.4903 69.1562H93.1777V70.4169H95.4903V69.1562Z" fill="#3F3D56"/>
<path d="M100.115 69.1562H97.8027V70.4169H100.115V69.1562Z" fill="#3F3D56"/>
<path d="M105.414 69.9667C105.414 76.8446 102.49 83.4409 97.2856 88.3043C92.0813 93.1678 85.0228 95.9 77.6628 95.9C70.3029 95.9 63.2444 93.1678 58.0401 88.3043C52.8358 83.4409 49.9121 76.8446 49.9121 69.9667H105.414Z" fill="#3F3D56"/>
<path d="M104.074 70.1327L86.4219 20.9602C89.8767 19.8747 93.5267 19.4362 97.163 19.67C100.799 19.9037 104.351 20.8051 107.614 22.3225C110.877 23.8399 113.788 25.9436 116.181 28.5133C118.573 31.0829 120.4 34.0682 121.557 37.2982C121.744 37.8187 121.914 38.3428 122.064 38.8668C123.881 45.239 123.033 52.0187 119.691 57.8269C116.349 63.635 110.765 68.0353 104.074 70.1327Z" fill="#3F3D56"/>
<path d="M104.74 74.0188C106.656 74.0188 108.209 72.5675 108.209 70.7771C108.209 68.9868 106.656 67.5355 104.74 67.5355C102.825 67.5355 101.271 68.9868 101.271 70.7771C101.271 72.5675 102.825 74.0188 104.74 74.0188Z" fill="#3F3D56"/>
<path d="M69.4733 76.7203C69.2178 76.7203 68.9727 76.8152 68.792 76.9841C68.6113 77.1529 68.5098 77.382 68.5098 77.6208C68.5098 77.8596 68.6113 78.0887 68.792 78.2575C68.9727 78.4264 69.2178 78.5213 69.4733 78.5213H86.0467C86.3022 78.5213 86.5473 78.4264 86.728 78.2575C86.9087 78.0887 87.0103 77.8596 87.0103 77.6208C87.0103 77.382 86.9087 77.1529 86.728 76.9841C86.5473 76.8152 86.3022 76.7203 86.0467 76.7203H69.4733Z" fill="#232334"/>
<path d="M100.693 116.881L97.2425 117L84.8105 92.0149L87.956 90.6481L100.693 116.881Z" fill="#3F3D56"/>
<path d="M54.6348 116.881L58.0855 117L70.5174 92.0149L67.372 90.6481L54.6348 116.881Z" fill="#3F3D56"/>
<path d="M92.0177 102.474H63.4961V104.275H92.0177V102.474Z" fill="#3F3D56"/>
<path d="M87.1267 20.0421C86.9912 20.0421 86.8576 20.0718 86.7366 20.1289C86.6156 20.1859 86.5105 20.2686 86.4299 20.3704C86.3493 20.4722 86.2953 20.5903 86.2723 20.7151C86.2493 20.8399 86.258 20.968 86.2975 21.0891L87.0287 23.3284C87.096 23.5338 87.2478 23.7058 87.4507 23.8067C87.6537 23.9076 87.8912 23.929 88.111 23.8663C88.3309 23.8037 88.5152 23.662 88.6233 23.4724C88.7315 23.2829 88.7547 23.0609 88.6878 22.8554L87.9567 20.6161C87.9022 20.4501 87.7922 20.3047 87.6428 20.2014C87.4934 20.0981 87.3125 20.0422 87.1267 20.0421Z" fill="#232334"/>
<path d="M48.7539 70.4169C48.5239 70.4169 48.3033 70.5023 48.1407 70.6542C47.9781 70.8062 47.8867 71.0124 47.8867 71.2273C47.8867 71.4422 47.9781 71.6484 48.1407 71.8003C48.3033 71.9523 48.5239 72.0377 48.7539 72.0377H51.2592C51.4892 72.0377 51.7098 71.9523 51.8724 71.8003C52.0351 71.6484 52.1264 71.4422 52.1264 71.2273C52.1264 71.0124 52.0351 70.8062 51.8724 70.6542C51.7098 70.5023 51.4892 70.4169 51.2592 70.4169H48.7539Z" fill="#232334"/>
<path d="M69.4737 64.4739H59.0671C59.0016 64.4739 58.938 64.4757 58.8744 64.4811C58.1945 64.5265 57.5582 64.8107 57.0934 65.2767C56.6287 65.7426 56.3699 66.3557 56.3691 66.9927C56.3684 67.6297 56.6258 68.2433 57.0895 68.7102C57.5532 69.1771 58.1888 69.4626 58.8686 69.5093C58.9342 69.5147 58.9997 69.5165 59.0671 69.5165H69.4737C70.1892 69.5165 70.8755 69.2509 71.3814 68.7781C71.8874 68.3052 72.1717 67.6639 72.1717 66.9952C72.1717 66.3265 71.8874 65.6852 71.3814 65.2124C70.8755 64.7396 70.1892 64.4739 69.4737 64.4739Z" fill="#FF6584"/>
<path opacity="0.2" d="M58.0174 69.3166C59.7904 69.1041 61.1856 67.0132 61.1856 64.4739H60.8002C60.8002 66.9574 59.4165 68.9763 57.7168 68.9763V69.178L58.0174 69.3166Z" fill="black"/>
<path opacity="0.2" d="M61.7656 69.3364V68.9763C63.4658 68.9763 64.849 66.9565 64.849 64.4739H65.2345C65.2345 67.1551 63.6784 69.3364 61.7656 69.3364Z" fill="black"/>
<path opacity="0.2" d="M65.8105 69.3364V68.9763C67.5107 68.9763 68.894 66.9565 68.894 64.4739H69.2794C69.2794 67.1551 67.7233 69.3364 65.8105 69.3364Z" fill="black"/>
<path d="M88.3604 64.4739H77.9539C77.8883 64.4739 77.8247 64.4757 77.7611 64.4811C77.0812 64.5265 76.4449 64.8107 75.9801 65.2767C75.5154 65.7426 75.2566 66.3557 75.2559 66.9927C75.2551 67.6297 75.5125 68.2433 75.9762 68.7102C76.4399 69.1771 77.0756 69.4626 77.7554 69.5093C77.8209 69.5147 77.8864 69.5165 77.9539 69.5165H88.3604C89.0759 69.5165 89.7622 69.2509 90.2681 68.7781C90.7741 68.3052 91.0584 67.6639 91.0584 66.9952C91.0584 66.3265 90.7741 65.6852 90.2681 65.2124C89.7622 64.7396 89.0759 64.4739 88.3604 64.4739Z" fill="#FF6584"/>
<path opacity="0.2" d="M76.9041 69.3166C78.6771 69.1041 80.0724 67.0132 80.0724 64.4739H79.6869C79.6869 66.9574 78.3032 68.9763 76.6035 68.9763V69.178L76.9041 69.3166Z" fill="black"/>
<path opacity="0.2" d="M80.6504 69.3364V68.9763C82.3506 68.9763 83.7338 66.9565 83.7338 64.4739H84.1192C84.1192 67.1551 82.5631 69.3364 80.6504 69.3364Z" fill="black"/>
<path opacity="0.2" d="M84.6992 69.3364V68.9763C86.3994 68.9763 87.7826 66.9565 87.7826 64.4739H88.1681C88.1681 67.1551 86.612 69.3364 84.6992 69.3364Z" fill="black"/>
<path d="M68.7106 40.2616C67.3468 39.5731 65.6607 40.324 64.981 41.5428C64.1544 43.0253 64.8396 44.8076 65.8035 46.0747C66.8052 47.3915 68.1648 48.4783 68.8335 50C69.4731 51.432 69.549 53.0295 69.0475 54.5089C68.5461 55.9882 67.4998 57.2535 66.0945 58.0802C65.4672 58.451 66.0467 59.3864 66.6781 59.0132C68.0563 58.2086 69.1468 57.0384 69.8101 55.6519C70.4735 54.2655 70.6796 52.7258 70.4023 51.2294C70.2616 50.4533 69.9932 49.7023 69.6067 49.003C69.1876 48.2892 68.6828 47.6225 68.102 47.0157C67.0989 45.9062 65.8361 44.6832 65.7731 43.1395C65.7616 42.9393 65.7766 42.7385 65.8176 42.5417C65.8477 42.4042 65.8924 42.2698 65.9511 42.1407C66.0913 41.8633 66.2994 41.6207 66.5585 41.4324C66.7987 41.2533 67.083 41.1331 67.3855 41.0825C67.6391 41.0473 67.8982 41.0865 68.127 41.1947C68.7818 41.5252 69.3662 40.5926 68.7106 40.2616Z" fill="#E6E6E6"/>
<path d="M86.1103 46.7979C85.5295 46.6235 84.9091 46.5995 84.3149 46.7286C83.7208 46.8576 83.1752 47.1348 82.7363 47.5307C82.5094 47.7487 82.3414 48.014 82.2461 48.3048C82.1508 48.5955 82.131 48.9033 82.1882 49.2027C82.2984 49.8575 82.7408 50.4391 83.2208 50.9077C84.1599 51.8248 85.4743 52.4178 86.2616 53.4706C86.6108 53.9192 86.8299 54.4446 86.8977 54.9957C86.9382 55.4909 86.841 55.9875 86.6156 56.4372C86.0282 57.553 84.8621 58.312 83.6322 58.8005C83.3448 58.9147 83.2815 59.3107 83.4248 59.5397C83.5049 59.6606 83.6317 59.7482 83.7789 59.7842C83.9261 59.8203 84.0825 59.8022 84.2158 59.7336C86.479 58.8345 88.5729 56.8207 87.9487 54.3466C87.6203 53.0451 86.6139 52.1266 85.5301 51.3281C84.9919 50.9593 84.4835 50.5539 84.0092 50.1152C83.6345 49.7432 83.2451 49.2353 83.3139 48.7312C83.3415 48.5559 83.4333 48.395 83.5737 48.2759C83.7439 48.1304 83.9371 48.0105 84.1465 47.9201C84.4032 47.8051 84.6818 47.7388 84.9661 47.7251C85.2504 47.7113 85.5348 47.7503 85.8029 47.8398C85.9507 47.8766 86.108 47.8576 86.241 47.787C86.3741 47.7165 86.4721 47.5999 86.5141 47.4625C86.5517 47.3244 86.5307 47.1781 86.4554 47.0542C86.3801 46.9303 86.2564 46.8384 86.1103 46.7979Z" fill="#E6E6E6"/>
<path d="M77.3076 31.4271C76.9631 31.1521 76.5281 30.9956 76.0752 30.9836C75.6455 30.9912 75.2279 31.1174 74.8749 31.3463C74.0776 31.8876 73.5136 32.6773 73.2846 33.573C72.7003 35.6645 73.4624 37.9188 74.5213 39.7608C75.0567 40.6919 75.6802 41.5758 76.2191 42.5051C76.7386 43.3939 77.1375 44.3399 77.4065 45.321C77.9551 47.3327 78.0041 49.435 77.5497 51.4671C77.0869 53.4898 76.1135 55.4926 74.4574 56.8882C74.349 56.9895 74.2881 57.1269 74.2881 57.2702C74.2881 57.4135 74.349 57.5509 74.4574 57.6523C74.5659 57.7536 74.7129 57.8105 74.8663 57.8105C75.0196 57.8105 75.1666 57.7536 75.2751 57.6523C76.7449 56.4136 77.7279 54.7145 78.3213 52.9673C78.976 50.994 79.1674 48.9119 78.8826 46.8631C78.7539 45.8428 78.5053 44.8389 78.1414 43.8696C77.7471 42.893 77.2546 41.9536 76.6706 41.0639C75.5838 39.3467 74.4269 37.61 74.2696 35.5654C74.1922 34.5599 74.3269 33.5119 74.9924 32.7033C74.956 32.7476 75.0216 32.6711 75.0219 32.6708C75.0622 32.6257 75.1041 32.5817 75.1474 32.539C75.23 32.4561 75.3188 32.3789 75.4131 32.3078C75.393 32.3227 75.3418 32.3546 75.435 32.2943C75.4813 32.2643 75.5286 32.2355 75.5772 32.2088C75.6167 32.1871 75.6574 32.1678 75.6978 32.1477C75.7219 32.1363 75.7462 32.1255 75.7709 32.1154C75.7147 32.138 75.7178 32.1382 75.7804 32.116C75.8257 32.1028 76.0496 32.0575 75.9253 32.0722C75.9668 32.0676 76.0085 32.0651 76.0502 32.0646C76.0679 32.0643 76.2238 32.0718 76.1477 32.064C76.0586 32.0549 76.2181 32.0788 76.2193 32.0791C76.2692 32.0905 76.3182 32.105 76.366 32.1225C76.2458 32.0776 76.5633 32.2445 76.49 32.1912C76.6007 32.2884 76.7469 32.3424 76.8988 32.3424C77.0507 32.3424 77.1969 32.2884 77.3076 32.1912C77.5071 32.0048 77.5555 31.6072 77.3076 31.4271Z" fill="#E6E6E6"/>
<path d="M32.9135 112.627L28.5547 113.707L20.5488 79.1257L29.5333 78.3774L32.9135 112.627Z" fill="#FFB9B9"/>
<path d="M12.9696 113.158L8.51062 113.787L4.5918 78.5957L13.6098 78.7684L12.9696 113.158Z" fill="#FFB9B9"/>
<path d="M10.674 63.0818L11.0858 70.2642C11.1009 70.5283 11.0551 70.7925 10.9513 71.0386C10.8476 71.2848 10.6884 71.5072 10.4845 71.6907C10.2806 71.8743 10.0369 72.0147 9.76983 72.1025C9.50276 72.1902 9.21861 72.2232 8.93668 72.1993C8.47589 72.1601 8.04447 71.9709 7.71781 71.6647C7.39116 71.3584 7.19004 70.9547 7.14961 70.524L6.40422 62.583L0.533203 43.9621L0.711114 31.9915L7.64958 32.324L10.674 63.0818Z" fill="#FFB9B9"/>
<path d="M14.4103 80.7051C10.9348 79.5775 6.90222 79.3558 2.3125 80.0401C2.96341 72.8346 3.34039 66.1435 3.02414 60.7542H26.6861L14.4103 80.7051Z" fill="#2F2E41"/>
<path d="M30.9574 80.539C27.3752 82.3099 22.1935 83.1577 16.1909 83.5317L8.71875 61.2531L27.0434 60.9206L30.9574 80.539Z" fill="#2F2E41"/>
<path d="M40.1804 116.242L27.2898 116.688C25.6385 116.745 25.5515 115.42 25.8632 113.903L27.3893 109.831C30.8253 112.977 31.1489 113.153 32.6218 108.678L37.1171 111.996L40.4446 112.529C40.9105 112.604 41.3332 112.83 41.6376 113.168C41.9421 113.506 42.1087 113.934 42.108 114.375C42.1072 114.859 41.906 115.324 41.5466 115.672C41.1872 116.02 40.6975 116.224 40.1804 116.242Z" fill="#2F2E41"/>
<path d="M20.657 116.242L7.76636 116.688C6.1151 116.745 6.02802 115.42 6.33974 113.903L7.86588 109.831C11.3019 112.977 11.6254 113.153 13.0984 108.678L17.5937 111.996L20.9211 112.529C21.3871 112.604 21.8097 112.83 22.1142 113.168C22.4187 113.506 22.5853 113.934 22.5845 114.375C22.5837 114.859 22.3825 115.324 22.0231 115.672C21.6637 116.02 21.1741 116.224 20.657 116.242Z" fill="#2F2E41"/>
<path d="M23.6611 14.368C27.4931 14.368 30.5996 11.465 30.5996 7.8839C30.5996 4.30286 27.4931 1.39984 23.6611 1.39984C19.8291 1.39984 16.7227 4.30286 16.7227 7.8839C16.7227 11.465 19.8291 14.368 23.6611 14.368Z" fill="#FFB9B9"/>
<path d="M20.1017 19.356L11.918 17.0285L17.4332 9.38049L23.66 11.8744L20.1017 19.356Z" fill="#FFB9B9"/>
<path d="M27.7523 62.7493C19.3394 64.5169 10.0004 63.8157 1.95543 61.7518C3.88197 51.7125 2.95185 40.929 1.06589 32.1579C-0.410297 25.2925 3.48383 19.5316 9.96135 16.6959C11.3537 16.2292 12.8021 15.9244 14.2741 15.7883C18.8179 15.4121 22.816 18.596 23.29 22.8358L27.7523 62.7493Z" fill="#232334"/>
<path d="M5.87101 35.483L0 34.8179L1.77913 26.1725H5.87101V35.483Z" fill="#232334"/>
<path d="M23.5659 8.91072L22.5029 8.46925C22.2621 8.36953 22.0009 8.31994 21.7375 8.32392C21.4741 8.3279 21.2148 8.38536 20.9776 8.49231C20.7403 8.59926 20.5308 8.75315 20.3635 8.94331C20.1962 9.13347 20.0751 9.35535 20.0087 9.59357L18.5274 12.0948L14.8379 11.549L14.9668 6.25419C15.1348 5.25362 15.5207 4.29591 16.1007 3.44034C16.6808 2.58478 17.4425 1.84956 18.3388 1.2802C19.2352 0.710846 20.247 0.319461 21.3117 0.130273C22.3765 -0.0589158 23.4714 -0.0418812 24.5288 0.180322L24.6295 0.201612C26.4307 0.582389 28.769 1.81822 29.9897 3.11553L32.264 5.53265C32.3718 5.64732 32.4439 5.78742 32.4725 5.93772C32.5011 6.08803 32.4851 6.24278 32.4262 6.38517C32.3673 6.52755 32.2677 6.65212 32.1383 6.74533C32.009 6.83854 31.8547 6.89683 31.6924 6.91386L28.5819 7.2346L23.5659 8.91072Z" fill="#2F2E41"/>
<path d="M46.5799 53.1306L42.5958 56.3964C42.5381 56.4435 42.4628 56.4674 42.3863 56.4627C42.3099 56.458 42.2386 56.4251 42.188 56.3712C42.1375 56.3174 42.1119 56.247 42.1169 56.1756C42.1219 56.1041 42.157 56.0375 42.2145 55.9902L46.1987 52.7244L45.4362 51.9121L41.4521 55.1779C41.3944 55.225 41.3191 55.2489 41.2427 55.2442C41.1662 55.2394 41.0949 55.2066 41.0444 55.1527C40.9938 55.0989 40.9682 55.0285 40.9732 54.9571C40.9782 54.8856 41.0133 54.819 41.0708 54.7717L45.055 51.5059L44.2925 50.6936L40.3084 53.9593C40.2798 53.9828 40.2466 54.0007 40.2107 54.0122C40.1747 54.0236 40.1367 54.0283 40.0988 54.026C40.0609 54.0237 40.0239 54.0144 39.9898 53.9987C39.9557 53.9831 39.9253 53.9612 39.9002 53.9346C39.8752 53.9079 39.856 53.8768 39.8438 53.8432C39.8316 53.8096 39.8266 53.7741 39.8291 53.7387C39.8316 53.7032 39.8416 53.6686 39.8584 53.6368C39.8752 53.605 39.8986 53.5766 39.9271 53.5532L43.9113 50.2874L42.9582 49.272L37.3279 53.8871C36.8254 54.2992 36.4895 54.8601 36.3766 55.476C36.2636 56.0919 36.3805 56.7253 36.7075 57.2703L19.709 71.2039L21.2339 72.8285L38.2214 58.904C38.7396 59.2863 39.3847 59.4869 40.0447 59.471C40.7046 59.4552 41.3378 59.2239 41.8343 58.8172L47.533 54.146L46.5799 53.1306Z" fill="#E6E6E6"/>
<path d="M27.219 63.0818L27.6307 70.2642C27.6458 70.5283 27.6 70.7925 27.4962 71.0386C27.3925 71.2848 27.2333 71.5072 27.0294 71.6907C26.8256 71.8743 26.5818 72.0147 26.3147 72.1025C26.0477 72.1902 25.7635 72.2232 25.4816 72.1993C25.0208 72.1601 24.5894 71.9709 24.2627 71.6647C23.9361 71.3584 23.735 70.9547 23.6945 70.524L22.9491 62.583L17.0781 43.9621L17.256 31.9915L24.1945 32.324L27.219 63.0818Z" fill="#FFB9B9"/>
<path d="M24.7286 34.1528C22.6174 32.2603 19.8308 32.1908 16.7227 32.989V24.0539C16.7227 22.9843 17.1773 21.9585 17.9867 21.2021C18.796 20.4458 19.8938 20.0209 21.0383 20.0209C21.5651 20.0209 22.0866 20.1193 22.5721 20.3104C23.0577 20.5014 23.4974 20.7813 23.8655 21.1335C24.2336 21.4856 24.5226 21.903 24.7156 22.3611C24.9086 22.8192 25.0016 23.3087 24.9892 23.8009L24.7286 34.1528Z" fill="#232334"/>
</svg>
