<svg width="125" height="113" viewBox="0 0 125 113" fill="none" xmlns="http://www.w3.org/2000/svg">
<path d="M68.4874 0.871094C71.3388 0.871094 74.0734 2.08561 76.0896 4.24746C78.1058 6.40931 79.2386 9.34141 79.2386 12.3987V17.3167H57.7363V12.3987C57.7363 9.34141 58.869 6.40931 60.8853 4.24746C62.9015 2.08561 65.6361 0.871094 68.4874 0.871094Z" fill="#CACACA"/>
<path d="M68.5615 27.958C75.3297 27.958 80.8164 23.9156 80.8164 18.929C80.8164 13.9424 75.3297 9.90002 68.5615 9.90002C61.7933 9.90002 56.3066 13.9424 56.3066 18.929C56.3066 23.9156 61.7933 27.958 68.5615 27.958Z" fill="#CACACA"/>
<path d="M60.707 27.6758C60.707 27.6758 63.2678 42.0255 60.707 45.8955C58.1461 49.7655 68.5316 51.297 68.5316 51.297L79.2813 47.1051L80.7851 36.7856C80.7851 36.7856 74.2408 32.8348 75.5966 24.8538L60.707 27.6758Z" fill="#FFB9B9"/>
<path d="M92.4341 76.047C92.4341 76.047 93.1113 79.1909 89.4266 79.7553C87.2509 80.0985 85.0383 80.0702 82.8709 79.6714L82.0586 71.7743H90.6302L92.4341 76.047Z" fill="#FFB9B9"/>
<path d="M27.3698 72.0231C27.3698 72.0231 25.7422 79.1148 29.427 79.7555C33.1117 80.3961 46.6413 80.4007 46.6413 80.4007V72.0109L40.5152 73.4143L34.7648 67.5017L27.3698 72.0231Z" fill="#FFB9B9"/>
<path opacity="0.1" d="M61.498 32.3116L47.0991 35.576C47.0991 35.576 41.6105 35.8186 38.0766 43.6379C34.5427 51.4572 26.873 73.7895 26.873 73.7895C26.873 73.7895 33.4173 66.6947 41.0841 74.273L46.1972 64.3578L45.069 80.0788H84.6875V72.6606C84.6875 72.6606 92.9575 77.4169 92.3571 80.0773C92.3571 80.0773 99.4349 60.5244 97.9055 51.6388C97.4451 48.8918 97.1628 46.114 97.0604 43.3252C96.9701 41.0283 96.219 38.8177 94.9103 36.9968C93.6015 35.1759 91.7992 33.834 89.7508 33.1552C89.0053 32.9096 88.1858 32.6792 87.2753 32.4733C78.7791 30.5391 76.6053 32.4733 76.6053 32.4733C76.6053 32.4733 74.9593 38.215 74.9892 40.8174C75.0261 44.1626 70.5533 46.3806 70.5533 46.3806C70.5533 46.3806 63.9364 44.6874 63.6363 43.3176C63.3361 41.9477 60.9687 33.924 61.498 32.3116Z" fill="black"/>
<path d="M61.4974 31.9897L47.0986 35.2541C47.0986 35.2541 41.61 35.4967 38.076 43.316C34.5421 51.1353 26.8711 73.4706 26.8711 73.4706C26.8711 73.4706 33.4154 66.3759 41.0821 73.9542L46.1952 64.0389L45.067 79.7554H84.687V72.3387C84.687 72.3387 92.9569 77.095 92.3566 79.7554C92.3566 79.7554 99.4343 60.2025 97.905 51.3169C97.4446 48.5699 97.1622 45.7921 97.0599 43.0033C96.9696 40.7064 96.2185 38.4958 94.9097 36.6749C93.601 34.854 91.7987 33.5121 89.7502 32.8333C89.0048 32.5877 88.1853 32.3573 87.2748 32.1514C78.7786 30.2172 76.6048 32.1514 76.6048 32.1514C76.6048 32.1514 74.9587 37.8931 74.9886 40.4955C75.0256 43.8407 70.5527 46.0587 70.5527 46.0587C70.5527 46.0587 63.9359 44.3655 63.6357 42.9957C63.3355 41.6258 60.9682 33.6021 61.4974 31.9897Z" fill="#232334"/>
<path opacity="0.1" d="M76.212 31.3048C75.6072 29.4688 75.4716 27.4926 75.8193 25.5814L60.9297 28.4019C60.9297 28.4019 61.1445 29.6085 61.3878 31.4162C62.3498 32.4866 63.5049 33.336 64.7827 33.9127C66.0605 34.4895 67.4344 34.7815 68.8208 34.7711C70.2071 34.7607 71.5771 34.448 72.8472 33.8521C74.1173 33.2562 75.2612 32.3896 76.2092 31.3048H76.212Z" fill="black"/>
<path d="M78.7502 23.0812C78.7665 24.5209 78.5181 25.9499 78.0193 27.2867C77.5205 28.6235 76.781 29.8419 75.843 30.8722C74.905 31.9026 73.787 32.7247 72.5527 33.2918C71.3184 33.8588 69.992 34.1597 68.6493 34.1771C67.3065 34.1945 65.9738 33.9282 64.727 33.3934C63.4803 32.8585 62.344 32.0656 61.3831 31.0599C59.4423 29.0288 58.3336 26.2542 58.3008 23.3466C58.3022 23.2581 58.3022 23.1696 58.3022 23.0812C58.3015 21.4854 58.6257 19.9087 59.2522 18.4612C59.8788 17.0138 60.7925 15.7304 61.9296 14.7009C63.0668 13.6714 64.3998 12.9205 65.8357 12.5007C67.2715 12.0809 68.7755 12.0023 70.2427 12.2705C72.5077 12.684 74.5766 13.904 76.1153 15.7335C77.6541 17.5631 78.5728 19.8952 78.7232 22.3535C78.7412 22.5945 78.7502 22.8371 78.7502 23.0812Z" fill="#FFB9B9"/>
<path d="M64.9631 12.8044L64.9774 12.7953C63.0169 13.5718 61.3257 14.9743 60.1319 16.8135C58.938 18.6528 58.2989 20.8404 58.3008 23.0812C58.3008 23.1697 58.3008 23.2582 58.3008 23.3467C58.6187 23.3374 58.9313 23.2569 59.2184 23.1102C61.7109 21.8624 63.2019 18.0458 63.7937 15.3839C64.0071 14.4366 64.2077 13.3582 64.9631 12.8044Z" fill="#090814"/>
<path d="M72.7892 13.1127C71.9799 12.7141 71.1251 12.4315 70.2469 12.2722C70.9671 12.4499 71.6103 12.8831 72.0722 13.5017C72.2986 13.8318 72.4863 14.1904 72.6313 14.5695C71.2705 13.9315 69.7966 13.6182 68.3117 13.6511C66.8268 13.684 65.3663 14.0624 64.0312 14.7602C64.6729 16.2688 66.6632 17.091 67.992 17.6417C69.4469 18.2437 70.917 18.7944 72.4022 19.2937L71.0877 18.1497L74.0568 18.6561C74.0888 18.0225 74.0185 17.3878 73.8491 16.7798C74.4182 17.271 75.1722 17.4358 75.7896 17.8476C76.9462 18.6302 77.4285 20.1358 78.0588 21.44C78.2252 21.7848 78.4216 22.1371 78.7217 22.3553C78.6004 20.3848 77.9851 18.4859 76.941 16.8592C75.8968 15.2324 74.4624 13.9381 72.7892 13.1127Z" fill="#090814"/>
<path d="M57.1348 21.025C57.1348 21.025 67.6625 6.99112 79.842 21.025L78.7892 17.8811C78.7892 17.8811 73.0744 8.93298 69.0155 10.8642C64.9566 12.7954 60.9703 14.1698 60.9703 14.1698L57.1348 21.025Z" fill="#CACACA"/>
<path opacity="0.1" d="M48.4868 51.2574C48.4868 51.2574 46.2318 57.7069 49.3887 63.5112C52.5456 69.3154 46.6074 71.7348 46.6074 71.7348" fill="black"/>
<path opacity="0.1" d="M85.0291 45.4531C85.0291 45.4531 88.9386 50.7738 86.382 55.5301C83.8255 60.2864 83.9763 71.7347 83.9763 71.7347" fill="black"/>
<path d="M45.0278 76.4908H88.4861C89.4433 76.4908 90.3614 76.8986 91.0383 77.6243C91.7151 78.3501 92.0954 79.3345 92.0954 80.3608H41.4199C41.4199 79.3347 41.8 78.3506 42.4766 77.6249C43.1531 76.8992 44.0708 76.4912 45.0278 76.4908Z" fill="#090814"/>
<path d="M49.4508 49.886H84.0671C84.7958 49.886 85.5173 50.0399 86.1904 50.3388C86.8636 50.6378 87.4752 51.076 87.9905 51.6285C88.5057 52.1809 88.9144 52.8367 89.1932 53.5585C89.472 54.2803 89.6156 55.0539 89.6156 55.8351V77.3772H43.9023V55.8351C43.9023 54.2573 44.4869 52.7441 45.5274 51.6285C46.568 50.5128 47.9792 49.886 49.4508 49.886Z" fill="#090814"/>
<path d="M66.721 67.7442C68.2162 67.7442 69.4284 66.4446 69.4284 64.8414C69.4284 63.2381 68.2162 61.9385 66.721 61.9385C65.2258 61.9385 64.0137 63.2381 64.0137 64.8414C64.0137 66.4446 65.2258 67.7442 66.721 67.7442Z" fill="white"/>
<path opacity="0.1" d="M57.7363 14.6959C57.7363 14.6959 68.082 3.6091 79.24 14.493" stroke="black" stroke-width="0.215116" stroke-miterlimit="10"/>
<path d="M81.855 13.9897H80.8164V20.3035H81.855V13.9897Z" fill="#CACACA"/>
<path d="M79.4297 18.0748C80.379 18.0748 81.2895 18.4792 81.9607 19.1989C82.632 19.9187 83.0091 20.8949 83.0091 21.9128V22.1599C83.0091 23.1778 82.632 24.154 81.9607 24.8738C81.2895 25.5935 80.379 25.9979 79.4297 25.9979V18.0748Z" fill="#232334"/>
<path d="M80.3505 18.5704C80.3505 18.0919 79.9887 17.704 79.5425 17.704C79.0962 17.704 78.7344 18.0919 78.7344 18.5704V25.5035C78.7344 25.982 79.0962 26.3699 79.5425 26.3699C79.9887 26.3699 80.3505 25.982 80.3505 25.5035V18.5704Z" fill="#090814"/>
<path d="M55.0161 20.427H56.0547V14.1133H55.0161V20.427Z" fill="#CACACA"/>
<path d="M57.4414 26.1215C56.4921 26.1215 55.5816 25.7171 54.9104 24.9973C54.2391 24.2776 53.862 23.3014 53.862 22.2835V22.0364C53.862 21.5324 53.9546 21.0333 54.1344 20.5676C54.3143 20.102 54.578 19.6789 54.9104 19.3225C55.2427 18.9661 55.6373 18.6834 56.0716 18.4905C56.5059 18.2977 56.9713 18.1984 57.4414 18.1984V26.1215Z" fill="#232334"/>
<path d="M56.5167 25.6256C56.5167 26.1041 56.8784 26.4921 57.3247 26.4921C57.771 26.4921 58.1328 26.1041 58.1328 25.6256V18.6926C58.1328 18.214 57.771 17.8261 57.3247 17.8261C56.8784 17.8261 56.5167 18.214 56.5167 18.6926V25.6256Z" fill="#090814"/>
<path d="M80.6937 7.24119C79.2866 4.10492 76.2222 0.312712 69.6168 0.00915218V0H69.5371L67.1968 0.118983V0.131187C60.6354 0.454577 57.5852 4.23306 56.1825 7.35865C55.2482 9.47753 54.7522 11.7879 54.7285 14.1315L55.5366 14.1102L56.3447 14.0904C56.3795 12.0039 56.8271 9.94908 57.6578 8.06187C59.439 4.13848 62.7168 2.05322 67.3988 1.85949L69.4688 1.73593C74.1536 1.92814 77.4329 4.01644 79.2127 7.93831C80.0447 9.82622 80.4933 11.8821 80.5286 13.9698L81.3367 13.9897L82.1448 14.011C82.1215 11.6687 81.6265 9.35938 80.6937 7.24119Z" fill="#232334"/>
<path d="M117.61 80.4114H7.39453V112.14H117.61V80.4114Z" fill="#D6D6E3"/>
<path opacity="0.1" d="M117.61 82.5469H7.39453V85.9028H117.61V82.5469Z" fill="black"/>
<path d="M125 79.9536H0V84.0723H125V79.9536Z" fill="#D6D6E3"/>
</svg>
