<svg width="105" height="139" viewBox="0 0 105 139" fill="none" xmlns="http://www.w3.org/2000/svg">
<path d="M27.4784 41.4642V32.7014H26.1158V41.4642C25.725 41.6223 25.4013 41.9114 25.2003 42.282C24.9993 42.6525 24.9334 43.0815 25.0139 43.4953C25.0945 43.9091 25.3164 44.282 25.6417 44.5501C25.9671 44.8182 26.3755 44.9649 26.7971 44.9649C27.2187 44.9649 27.6271 44.8182 27.9525 44.5501C28.2778 44.282 28.4998 43.9091 28.5803 43.4953C28.6608 43.0815 28.5949 42.6525 28.3939 42.282C28.1929 41.9114 27.8692 41.6223 27.4784 41.4642Z" fill="#E6E6E6"/>
<path d="M30.6572 129.897H21.3468V16.8048H17.7131V129.897H8.40329C7.29982 129.897 6.20713 130.114 5.18761 130.536C4.1681 130.958 3.24172 131.577 2.4614 132.357C1.68107 133.137 1.06207 134.064 0.639741 135.083C0.217412 136.103 2.84673e-05 137.195 0 138.299H39.0601C39.0601 136.07 38.1748 133.933 36.599 132.357C35.0233 130.782 32.8861 129.896 30.6576 129.896L30.6572 129.897Z" fill="#E6E6E6"/>
<path d="M0.0195312 33.6095H39.0414L36.655 3.78332C36.5678 2.7549 36.0989 1.79635 35.3406 1.09621C34.5823 0.396069 33.5894 0.00502585 32.5573 0H6.50363C5.47154 0.00502585 4.47868 0.396069 3.72037 1.09621C2.96205 1.79635 2.49316 2.7549 2.40594 3.78332L0.0195312 33.6095Z" fill="#232334"/>
<path d="M54.352 85.9591C53.985 85.898 53.6094 85.9105 53.2473 85.9958C52.8851 86.0812 52.5434 86.2376 52.2422 86.456C51.941 86.6744 51.6861 86.9505 51.4925 87.2683C51.2989 87.586 51.1703 87.939 51.1142 88.3069L50.0156 95.5166L53.7536 96.5081L56.4926 89.7905C56.6517 89.4002 56.721 88.979 56.6952 88.5583C56.6694 88.1376 56.5493 87.728 56.3438 87.36C56.1382 86.992 55.8525 86.675 55.5077 86.4324C55.163 86.1899 54.768 86.028 54.3522 85.9588L54.352 85.9591Z" fill="#FFB9B9"/>
<path d="M54.2822 95.5032C56.3566 103.747 55.4638 111.287 47.7391 117.208C38.474 114.654 32.3117 108.492 28.5515 99.5358C28.3178 98.979 28.1993 98.3805 28.2032 97.7767C28.2071 97.1728 28.3334 96.5759 28.5743 96.0222C28.8152 95.4684 29.1659 94.9692 29.6051 94.5547C30.0442 94.1402 30.5629 93.819 31.1296 93.6104C31.9812 93.2973 32.9079 93.2509 33.7866 93.4773C34.6652 93.7038 35.454 94.1924 36.0481 94.8781L45.1389 105.372L49.4036 94.7914L54.2822 95.5032Z" fill="#232334"/>
<path d="M101.754 138.755C93.2937 138.305 88.0383 135.401 86.7656 129.444L88.1283 126.946L103.728 134.052C104.122 134.232 104.454 134.524 104.681 134.893C104.908 135.261 105.021 135.689 105.004 136.121C104.988 136.554 104.843 136.971 104.589 137.321C104.334 137.671 103.981 137.938 103.575 138.087L101.754 138.755Z" fill="#E6E6E6"/>
<path d="M95.2161 138.815C90.8205 138.681 86.5934 138.723 82.5878 138.994C81.8852 139.042 81.192 138.811 80.6586 138.351C80.1252 137.891 79.7946 137.24 79.7385 136.538L79.4981 133.532L76.0918 128.081L79.0441 125.129C84.0053 130.07 89.4464 134.221 95.9086 136.688C96.1162 136.83 96.2722 137.036 96.3533 137.274C96.4343 137.513 96.436 137.771 96.358 138.01C96.2801 138.25 96.1268 138.457 95.9209 138.602C95.7151 138.747 95.4679 138.822 95.2163 138.814L95.2161 138.815Z" fill="#E6E6E6"/>
<path d="M71.3243 117.408C65.7113 127.451 60.1918 134.222 52.9287 137.847C43.9962 140.795 37.4659 136.889 32.377 128.877L47.1399 119.111L49.2974 121.269L68.8496 106.39C69.3273 105.938 69.9641 105.692 70.6218 105.707C71.2795 105.722 71.9048 105.995 72.3619 106.468L89.0391 126.946L86.9952 130.352L71.3243 117.408Z" fill="#090814"/>
<path opacity="0.798" d="M76.3189 129.217L68.5977 117.408L70.4143 114.002L80.6334 124.675L76.3189 129.217Z" fill="#090814"/>
<path d="M33.8536 98.1053L25.2246 95.153C26.5016 93.1238 27.0613 90.725 26.8143 88.3402H33.854C33.4532 91.8052 33.3931 95.0918 33.8536 98.1053Z" fill="#FFB9B9"/>
<path d="M50.1122 122.548C48.8185 123.079 50.8597 121.024 49.6363 121.609C43.7228 124.438 37.4666 126.734 33.172 130.806C23.1362 123.991 13.8342 102.824 25.905 93.5632C30.0244 95.9744 33.7058 97.6997 33.6262 93.5632L50.1122 122.548Z" fill="#232334"/>
<path opacity="0.2" d="M47.0244 109.687L42.8233 108.211L34.5344 114.683L30.8188 101.306C30.561 100.378 30.1434 100.848 29.5439 101.493C28.9188 100.914 28.1415 100.527 27.3035 100.376C26.4654 100.225 25.6017 100.316 24.814 100.64C24.0263 100.963 23.3476 101.505 22.8578 102.202C22.3679 102.899 22.0874 103.721 22.0493 104.571C21.6061 114.275 24.5331 122.483 31.8092 128.762C41.326 126.724 45.3647 120.295 47.0244 111.958L46.5745 111.658C46.7403 111.013 46.8902 110.356 47.0244 109.687Z" fill="black"/>
<path d="M47.3633 99.5635L54.4297 107.871L65.0295 95.3613L57.8675 86.6714L47.3633 99.5635Z" fill="#3F3D56"/>
<path d="M63.2158 95.6479L54.8125 88.7725C55.2895 87.6266 57.5818 88.0084 57.5818 88.0084L64.1598 94.6773C64.3889 94.9098 64.5853 95.1723 64.7436 95.4578L63.2158 95.6479Z" fill="#F2F2F2"/>
<path d="M63.5983 95.1708L54.049 87.7223L43.4492 103.766L53.43 110.497C54.384 110.879 55.3399 110.211 55.3399 110.211L65.0802 95.3141L63.5983 95.1708Z" fill="#3F3D56"/>
<path d="M55.2408 90.0474L55.1504 90.1731L61.2619 94.5686L61.3523 94.4429L55.2408 90.0474Z" fill="#232334"/>
<path d="M61.4383 96.0841L53.4121 108.211L53.5412 108.296L61.5675 96.1695L61.4383 96.0841Z" fill="#232334"/>
<path d="M46.0742 103.797L45.9824 103.922L52.4744 108.699L52.5662 108.574L46.0742 103.797Z" fill="#232334"/>
<path d="M54.0813 90.2569L45.7734 102.193L45.9005 102.282L54.2084 90.3454L54.0813 90.2569Z" fill="#232334"/>
<path d="M56.6485 87.9141L56.584 87.9844L64.1403 94.9194L64.2048 94.8491L56.6485 87.9141Z" fill="#B3B3B3"/>
<path d="M56.0184 87.9739L55.9551 88.0455L63.8524 95.0175L63.9157 94.9458L56.0184 87.9739Z" fill="#B3B3B3"/>
<path d="M55.5241 88.1125L55.4629 88.1859L63.6596 95.0165L63.7208 94.9431L55.5241 88.1125Z" fill="#B3B3B3"/>
<path d="M51.1791 102.003C50.8736 101.79 50.529 101.64 50.1651 101.562C49.8013 101.484 49.4256 101.479 49.0598 101.547C48.694 101.615 48.3454 101.755 48.0342 101.96C47.7231 102.164 47.4555 102.427 47.2472 102.736L43.1641 108.779L46.1163 111.277L51.4704 106.382C51.7816 106.098 52.0247 105.747 52.1818 105.356C52.3389 104.964 52.406 104.543 52.378 104.122C52.35 103.702 52.2277 103.293 52.0201 102.926C51.8126 102.559 51.5251 102.243 51.1791 102.003Z" fill="#FFB9B9"/>
<path d="M47.0245 110.595C45.3651 118.933 41.3262 125.362 31.8093 127.4C24.5332 121.121 21.6063 112.912 22.0493 103.209C22.0767 102.606 22.2262 102.015 22.4886 101.471C22.7509 100.927 23.1208 100.442 23.5758 100.045C24.0309 99.6477 24.5616 99.347 25.1361 99.1607C25.7105 98.9745 26.3167 98.9066 26.9181 98.9611C27.8217 99.0433 28.6789 99.3985 29.3757 99.9798C30.0724 100.561 30.5757 101.341 30.8185 102.215L34.5342 115.592L42.9223 107.861L47.0245 110.595Z" fill="#232334"/>
<path d="M30.9737 91.6309C35.3118 91.9352 39.0752 88.6651 39.3795 84.327C39.6837 79.9889 36.4137 76.2255 32.0756 75.9212C27.7374 75.6169 23.974 78.887 23.6698 83.2251C23.3655 87.5632 26.6356 91.3266 30.9737 91.6309Z" fill="#FFB9B9"/>
<path d="M19.4096 80.1078C23.2474 80.377 26.5767 77.4841 26.8459 73.6463C27.1151 69.8086 24.2222 66.4792 20.3844 66.2101C16.5467 65.9409 13.2173 68.8338 12.9481 72.6715C12.679 76.5093 15.5719 79.8386 19.4096 80.1078Z" fill="#090814"/>
<path d="M13.498 78.4928C14.3519 79.2055 15.3639 79.7035 16.4496 79.945C17.5352 80.1865 18.6629 80.1645 19.7384 79.881C20.8138 79.5975 21.8057 79.0606 22.6312 78.3152C23.4567 77.5698 24.0917 76.6377 24.4832 75.5966C24.2968 76.5417 23.9165 77.4379 23.3662 78.2285C22.8159 79.0191 22.1077 79.6871 21.2862 80.1901C20.4647 80.6931 19.5478 81.0203 18.5934 81.151C17.639 81.2817 16.6679 81.2131 15.7415 80.9494C14.815 80.6858 13.9532 80.2329 13.2106 79.6193C12.4681 79.0057 11.8608 78.2448 11.4272 77.3846C10.9936 76.5245 10.7431 75.5837 10.6915 74.6218C10.64 73.6599 10.7884 72.6978 11.1276 71.7962C10.8854 73.0224 10.9776 74.2912 11.3947 75.4695C11.8118 76.6478 12.5383 77.6921 13.498 78.4928Z" fill="#090814"/>
<path d="M40.9207 80.4226C39.86 78.1664 39.4594 77.2277 37.9881 75.7949C36.6867 74.5294 35.0094 74.0676 33.5591 75.0778C31.9412 74.2322 30.0894 73.9445 28.2912 74.2595C26.4931 74.5745 24.8493 75.4745 23.6152 76.8197C22.3811 78.1649 21.6258 79.8801 21.4667 81.6986C21.3075 83.5172 21.7534 85.3375 22.735 86.8766C23.7166 88.4157 25.1791 89.5876 26.8952 90.2102C28.6112 90.8328 30.4849 90.8712 32.2251 90.3195C33.9652 89.7678 35.4745 88.6568 36.5184 87.1592C37.5623 85.6616 38.0824 83.8612 37.9979 82.0376C39.2027 81.9547 39.716 80.5079 40.9207 80.4226Z" fill="#090814"/>
</svg>
