<svg width="94" height="137" viewBox="0 0 94 137" fill="none" xmlns="http://www.w3.org/2000/svg">
<path d="M17.1172 118.208L19.4794 118.947L35.3307 68.2943C34.6825 68.1292 33.9957 68.2187 33.4114 68.5444C32.8272 68.87 32.3898 69.407 32.1892 70.0451L17.1172 118.208Z" fill="#3F3D56"/>
<path d="M69.2135 52.1344H58.7637V21.4189H69.2135C71.2127 21.4211 73.1294 22.2163 74.5431 23.63C75.9568 25.0437 76.752 26.9603 76.7542 28.9596V44.5937C76.752 46.593 75.9568 48.5097 74.5431 49.9233C73.1294 51.337 71.2127 52.1322 69.2135 52.1344Z" fill="#2F2E41"/>
<path d="M67.7578 35.6795C67.4088 35.6792 67.0742 35.5403 66.8274 35.2936C66.5806 35.0468 66.4418 34.7122 66.4414 34.3632V22.9545H69.0742V34.3632C69.0738 34.7122 68.935 35.0468 68.6882 35.2936C68.4414 35.5403 68.1068 35.6792 67.7578 35.6795Z" fill="#3F3D56"/>
<path d="M70.9232 49.7208H63.2771C62.8365 49.7203 62.4141 49.5451 62.1025 49.2335C61.791 48.9219 61.6157 48.4995 61.6152 48.0589V43.4845C61.6157 43.0439 61.791 42.6215 62.1025 42.3099C62.4141 41.9984 62.8365 41.8231 63.2771 41.8226H70.9232C71.3638 41.8231 71.7862 41.9984 72.0978 42.3099C72.4093 42.6215 72.5846 43.0439 72.5851 43.4845V48.0589C72.5846 48.4995 72.4093 48.9219 72.0978 49.2335C71.7862 49.5451 71.3638 49.7203 70.9232 49.7208Z" fill="#3F3D56"/>
<path d="M48.6284 18.223C48.4487 18.2231 48.2746 18.1609 48.1355 18.0472C48.0493 17.977 47.9786 17.8898 47.9278 17.791C47.877 17.6922 47.8472 17.5839 47.8402 17.473C47.5936 13.5368 48.2773 9.59778 49.8361 5.97493C50.8924 3.52933 52.1075 1.95355 53.6602 1.01566C55.7315 -0.235373 58.5737 -0.335329 61.4579 0.741519C63.1062 1.3569 64.2949 2.16129 65.092 3.20054C66.1556 4.58717 66.4891 6.36622 66.6912 8.08208C66.9961 10.6782 67.0677 13.2964 66.9051 15.9053C66.8978 16.0402 66.8548 16.1706 66.7805 16.2833C66.7062 16.3961 66.6034 16.4871 66.4824 16.547C66.3516 16.611 66.2063 16.6396 66.061 16.63C65.9156 16.6204 65.7754 16.573 65.654 16.4925C65.6052 16.4604 65.5548 16.4309 65.5029 16.404C65.2402 16.2723 64.9497 16.2055 64.6558 16.2092C64.3619 16.2129 64.0732 16.2871 63.8138 16.4254C63.6236 16.5381 63.4435 16.6673 63.2759 16.8115L62.2389 17.651C62.111 17.7525 61.9549 17.8125 61.7919 17.8228C61.6288 17.8332 61.4665 17.7933 61.3267 17.7087C60.5746 17.2814 59.7342 17.0332 58.8706 16.9835C57.7241 16.9408 56.5763 17.0241 55.4479 17.2319L48.7456 18.2144C48.7068 18.2201 48.6676 18.223 48.6284 18.223Z" fill="#2F2E41"/>
<path d="M47.7331 130.009H44.1539L42.4512 116.203H47.7338L47.7331 130.009Z" fill="#FFB6B6"/>
<path d="M49.6604 136.805H47.1207L46.6673 134.407L45.5063 136.805H38.7702C38.4473 136.805 38.1328 136.702 37.8727 136.51C37.6127 136.319 37.4206 136.049 37.3245 135.741C37.2284 135.433 37.2333 135.102 37.3386 134.797C37.4439 134.492 37.644 134.228 37.9097 134.045L43.289 130.329V127.905L48.947 128.243L49.6604 136.805Z" fill="#2F2E41"/>
<path d="M88.9256 126.947L85.626 128.334L78.7051 116.268L83.5749 114.221L88.9256 126.947Z" fill="#FFB6B6"/>
<path d="M93.3355 132.465L90.9942 133.45L89.6469 131.415L89.506 134.076L83.2965 136.687C82.9989 136.812 82.669 136.839 82.3551 136.763C82.0412 136.687 81.7597 136.514 81.5516 136.267C81.3435 136.02 81.2198 135.713 81.1986 135.391C81.1773 135.068 81.2596 134.748 81.4335 134.476L84.9522 128.966L84.0126 126.731L89.3592 124.85L93.3355 132.465Z" fill="#2F2E41"/>
<path d="M46.0622 35.9843L45.0365 49.7255L38.234 70.2466L35.502 68.6586L39.2084 47.7885L40.4671 35.7487L46.0622 35.9843Z" fill="#FFB6B6"/>
<path d="M36.6462 73.2395C38.2274 73.2395 39.5093 71.9577 39.5093 70.3765C39.5093 68.7953 38.2274 67.5135 36.6462 67.5135C35.065 67.5135 33.7832 68.7953 33.7832 70.3765C33.7832 71.9577 35.065 73.2395 36.6462 73.2395Z" fill="#FFB6B6"/>
<path d="M63.5174 51.8105V55.601C63.5174 55.601 69.3844 65.9399 66.9954 70.3766L75.8037 94.4713C75.8037 94.4713 87.7488 106.416 86.7249 114.949L87.4075 117.679L79.5579 121.092L77.8515 118.703L64.5413 95.8365L53.2788 75.018L51.2311 99.5906C51.2311 99.5906 52.5963 118.703 48.8421 120.75L48.5008 123.822H40.5343V120.902C40.5343 120.902 37.5797 110.512 39.2861 102.662L38.6035 69.5574C38.6035 69.5574 41.6751 55.5647 45.4292 53.1757L46.7944 49.7628L63.5174 51.8105Z" fill="#2F2E41"/>
<path d="M69.7849 25.5368L62.3456 22.0537L60.1984 18.3117L52.9777 18.7211L50.7928 22.2878L44.3658 23.5899L45.3103 46.8192C44.8896 47.5476 44.7396 48.4013 44.8869 49.2295C45.1124 50.6854 46.2576 49.5402 45.1124 50.6854C43.9672 51.8306 43.1039 51.2551 43.6787 52.2586C44.2534 53.2621 42.8398 54.8267 42.8398 54.8267C42.8398 54.8267 61.1225 64.1387 66.2874 52.2586C66.2874 52.2586 67.3056 48.7836 65.5854 41.5033C63.8652 34.223 69.7849 25.5368 69.7849 25.5368Z" fill="#E4E4E4"/>
<path d="M46.4785 25.0692L44.3662 23.5898C44.3662 23.5898 41.4447 24.7891 41.3462 27.2156C41.2477 29.6421 39.5684 36.9036 39.5684 36.9036L46.2377 40.4889L46.4785 25.0692Z" fill="#E4E4E4"/>
<path d="M71.5429 37.1298L70.5176 50.8707L59.134 67.9565L56.4023 66.3685L64.6894 48.934L65.9481 36.8942L71.5429 37.1298Z" fill="#FFB6B6"/>
<path d="M66.3064 26.3136L69.7861 25.5368C69.7861 25.5368 71.8828 26.2065 72.1691 29.3558C72.4555 32.5051 72.6955 37.9864 72.6955 37.9864L65.3931 43.3565L63.5801 35.6545L66.3064 26.3136Z" fill="#E4E4E4"/>
<path d="M57.2595 70.9491C58.8407 70.9491 60.1225 69.6673 60.1225 68.0861C60.1225 66.5049 58.8407 65.2231 57.2595 65.2231C55.6783 65.2231 54.3965 66.5049 54.3965 68.0861C54.3965 69.6673 55.6783 70.9491 57.2595 70.9491Z" fill="#FFB6B6"/>
<path d="M55.9365 17.0851C59.6207 17.0851 62.6074 14.0984 62.6074 10.4142C62.6074 6.72995 59.6207 3.74329 55.9365 3.74329C52.2523 3.74329 49.2656 6.72995 49.2656 10.4142C49.2656 14.0984 52.2523 17.0851 55.9365 17.0851Z" fill="#FFB7B7"/>
<path d="M50.5031 9.40868H50.5027C49.653 9.40826 48.8021 9.40715 47.9502 9.40533C47.8487 9.40485 47.7483 9.38408 47.6549 9.34425C47.5615 9.30443 47.477 9.24634 47.4064 9.1734C47.3369 9.10205 47.2825 9.01734 47.2467 8.9244C47.2108 8.83147 47.1942 8.73223 47.1977 8.63268C47.2606 7.21906 47.6645 5.84164 48.3751 4.61798C49.0857 3.39433 50.0818 2.36077 51.2784 1.60553C52.5366 0.838252 53.9722 0.410441 55.4452 0.363874C56.9181 0.317308 58.378 0.653589 59.6821 1.33986C60.9862 2.02614 62.0901 3.03894 62.8858 4.27934C63.6815 5.51974 64.1418 6.94532 64.2219 8.41683C64.2275 8.51623 64.2133 8.61575 64.1801 8.7096C64.1468 8.80346 64.0953 8.88977 64.0284 8.96352C63.9615 9.03726 63.8806 9.09697 63.7905 9.13917C63.7003 9.18137 63.6026 9.20522 63.5031 9.20933C60.5509 9.33417 57.2761 9.39484 52.8846 9.40617H52.8825C52.733 9.4066 52.5869 9.36232 52.4628 9.27901C52.3387 9.1957 52.2424 9.07718 52.1863 8.93868L52.1156 8.76576C52.0784 8.67471 52.0133 8.59781 51.9296 8.54611C51.846 8.49441 51.7481 8.47058 51.65 8.47803C51.5519 8.48549 51.4587 8.52386 51.3839 8.58762C51.309 8.65137 51.2562 8.73724 51.2332 8.83286C51.1942 8.99706 51.1008 9.14326 50.9683 9.24777C50.8358 9.35228 50.6718 9.40898 50.5031 9.40868Z" fill="#2F2E41"/>
<path d="M65.4339 43.0509C63.6411 41.3639 62.8704 38.9159 62.8581 36.4985C62.844 33.7375 63.8434 31.1152 65.1358 28.7145C65.9175 27.2627 66.8081 25.8733 67.6993 24.4872C67.9991 24.0209 67.2559 23.5898 66.9576 24.0537C63.9424 28.7435 60.622 34.2984 62.5665 40.062C63.0127 41.4284 63.789 42.6636 64.8266 43.6583C65.2289 44.0369 65.8375 43.4307 65.4339 43.0509Z" fill="#3F3D56"/>
<path d="M17.162 94.304C15.6847 93.838 14.1059 93.7984 12.6071 94.1897C12.6036 94.1915 12.601 94.1907 12.5976 94.1925C11.4361 94.4943 10.3532 95.043 9.42287 95.8012C9.36884 95.8448 9.31751 95.8892 9.26604 95.9337C8.08728 96.9447 7.21702 98.2673 6.75488 99.7499L0.3811 120.117C-0.093047 121.625 -0.125445 123.237 0.287741 124.762C0.312718 124.848 0.337746 124.933 0.362826 125.019C0.672201 126.03 1.17013 126.973 1.83032 127.798C1.83445 127.802 1.83777 127.807 1.84011 127.813C2.87064 129.092 4.25851 130.036 5.82711 130.524L17.848 134.286L29.1829 98.0658L17.162 94.304Z" fill="#232334"/>
<path d="M36.1166 68.541L20.6349 118.013C20.5862 118.168 20.5686 118.331 20.583 118.493C20.5974 118.655 20.6436 118.812 20.7189 118.957C20.7943 119.101 20.8973 119.228 21.022 119.333C21.1468 119.437 21.2909 119.516 21.4461 119.564C21.6013 119.613 21.7645 119.63 21.9265 119.616C22.0884 119.601 22.2459 119.555 22.39 119.479C22.534 119.404 22.6618 119.301 22.7659 119.176C22.8701 119.051 22.9487 118.907 22.9971 118.752L37.6996 71.7703C37.8985 71.1317 37.8453 70.4412 37.5509 69.8406C37.2565 69.24 36.7433 68.7749 36.1166 68.541Z" fill="#3F3D56"/>
<path d="M16.8083 137C18.0324 137 19.0247 136.008 19.0247 134.784C19.0247 133.56 18.0324 132.567 16.8083 132.567C15.5841 132.567 14.5918 133.56 14.5918 134.784C14.5918 136.008 15.5841 137 16.8083 137Z" fill="#3F3D56"/>
<path d="M2.37272 132.482C3.59685 132.482 4.58919 131.49 4.58919 130.266C4.58919 129.042 3.59685 128.049 2.37272 128.049C1.1486 128.049 0.15625 129.042 0.15625 130.266C0.15625 131.49 1.1486 132.482 2.37272 132.482Z" fill="#3F3D56"/>
<path d="M12.6065 94.1896C10.3108 101.387 4.29725 120.208 1.83947 127.813C1.83714 127.807 1.83382 127.802 1.82969 127.798C1.1695 126.973 0.671569 126.03 0.362194 125.019C0.337204 124.933 0.312176 124.848 0.287109 124.762C2.9223 116.498 7.33585 102.56 9.26542 95.9336C9.31689 95.8892 9.36821 95.8447 9.42225 95.8011C10.3526 95.0429 11.4354 94.4942 12.597 94.1924C12.6004 94.1906 12.603 94.1914 12.6065 94.1896Z" fill="#3F3D56"/>
</svg>
