<svg width="392" height="258" viewBox="0 0 392 258" fill="none" xmlns="http://www.w3.org/2000/svg">
<g clip-path="url(#clip0_3363_3787)">
<path d="M0 16C0 7.16345 7.16344 0 16 0H376C384.837 0 392 7.16344 392 16V258H0V16Z" fill="url(#paint0_linear_3363_3787)"/>
<g opacity="0.1">
<path d="M456.968 215.054C454.451 215.635 451.967 216.442 449.418 216.764C437.384 218.345 425.318 220.087 413.252 221.249C398.83 222.636 384.344 223.636 369.923 224.604C360.954 225.185 351.953 225.346 342.984 225.798C330.498 226.443 318.045 227.25 305.592 227.927C301.462 228.153 297.365 228.314 293.235 228.476C284.266 228.863 275.265 229.185 266.296 229.637C253.326 230.315 240.357 231.089 227.387 231.766C218.773 232.218 210.159 232.541 201.577 232.96C188.091 233.67 174.638 234.444 161.184 235.122C155.183 235.412 149.215 235.735 143.214 235.767C110.242 235.928 77.2369 236.057 44.2645 236.122C38.5218 236.122 32.779 235.928 27.0363 235.799C26.5846 235.799 26.1329 235.638 25.3586 235.477C26.0039 233.25 27.0363 232.96 28.1332 232.702C38.3282 230.056 48.4587 227.056 58.6859 224.83C73.3654 221.604 88.0449 218.797 102.757 216.087C110.79 214.603 118.856 213.57 126.921 212.473C138.084 210.957 149.247 209.537 160.442 208.182C162.442 207.924 164.443 208.086 166.443 207.989C175.67 207.537 184.897 206.86 194.124 206.634C209.481 206.279 224.838 206.021 240.227 206.085C255.972 206.15 271.684 206.569 287.428 206.956C296.655 207.182 305.882 207.666 315.109 208.053C322.852 208.376 330.563 208.763 338.306 209.183C352.888 209.925 367.471 210.699 382.086 211.409C390.829 211.828 399.54 212.28 408.283 212.506C422.64 212.86 436.997 213.054 451.354 213.248C452.709 213.28 454.096 212.925 455.451 212.861C455.967 212.828 456.484 213.183 457 213.377C456.968 213.99 456.968 214.506 456.968 215.054Z" fill="white"/>
<path d="M402.702 184.921C399.637 185.276 396.604 185.824 393.539 185.921C381.312 186.373 369.084 186.792 356.857 187.083C329.756 187.696 302.656 188.534 275.555 188.696C260.585 188.793 245.583 187.696 230.613 187.147C225.258 186.954 219.87 186.76 214.514 186.566C197.286 185.986 180.058 185.405 162.829 184.792C148.731 184.276 134.632 183.824 120.533 183.179C107.564 182.566 94.594 181.792 81.6245 180.985C70.0422 180.275 58.4277 179.791 46.8777 178.63C37.0698 177.63 27.262 175.855 17.4864 174.178C15.7765 173.887 13.7762 173.79 12.2922 170.79C13.0342 170.371 13.5181 169.887 14.0343 169.854C22.8743 169.016 31.682 168.177 40.5219 167.435C50.7169 166.596 60.9442 165.886 71.1391 165.176C82.7214 164.402 94.3037 163.628 105.886 162.95C113.371 162.499 120.856 162.144 128.341 161.821C140.568 161.305 152.796 160.531 165.023 160.498C186.736 160.401 208.481 160.692 230.194 161.014C240.679 161.176 251.164 161.531 261.65 162.24C272.974 163.015 284.298 164.015 295.59 165.37C312.98 167.467 330.369 169.629 347.694 172.371C362.438 174.726 377.085 177.985 391.797 180.824C394.636 181.372 397.508 181.792 400.347 182.34C401.153 182.501 401.928 182.889 402.734 183.179C402.734 183.792 402.734 184.34 402.702 184.921Z" fill="white"/>
<path d="M-0.000144958 125.203C0.645107 121.493 2.06465 121.428 3.41968 121.17C7.51703 120.493 11.5821 119.622 15.6795 119.17C27.4876 117.815 39.2957 116.492 51.1038 115.363C64.525 114.105 77.9785 113.04 91.3998 111.976C101.24 111.169 111.048 110.362 120.888 109.782C135.212 108.911 149.569 107.878 163.894 107.556C189.478 107.039 215.062 106.588 240.647 106.943C253.713 107.104 266.779 108.846 279.846 110.201C292.267 111.459 304.688 112.718 317.077 114.718C337.757 118.041 358.373 121.945 379.021 125.655C380.15 125.849 381.279 126.494 382.376 126.913C382.376 127.3 382.344 127.687 382.344 128.075C381.699 128.333 381.086 128.817 380.44 128.849C369.084 129.268 357.727 129.655 346.371 130.01C327.659 130.591 308.946 131.236 290.202 131.623C265.489 132.14 240.776 132.656 216.03 132.656C192.801 132.656 169.572 131.978 146.375 131.623C134.632 131.43 122.888 131.333 111.177 131.107C97.207 130.817 83.2051 130.494 69.2354 129.978C52.2653 129.365 35.3274 128.559 18.3573 127.752C14.0018 127.558 9.64637 127.074 5.29092 126.59C3.581 126.397 1.90335 125.719 -0.000144958 125.203Z" fill="white"/>
<path d="M378.795 80.9389C376.827 80.7453 374.859 80.455 372.923 80.3259C359.083 79.3903 345.274 78.5192 331.434 77.5191C317.496 76.4867 303.559 75.293 289.589 74.2283C278.394 73.3895 267.167 72.8087 255.972 71.8731C245.648 71.002 235.323 69.8083 224.999 68.8404C215.288 67.9371 205.577 67.1628 195.866 66.324C185.671 65.4206 175.476 64.4205 165.249 63.6139C156.667 62.9364 148.053 62.4202 139.471 61.8717C128.147 61.1297 116.791 60.4199 105.467 59.7424C97.1105 59.2584 88.7545 58.9358 80.3985 58.4842C68.171 57.8067 55.9757 57.0323 43.7482 56.3225C36.6504 55.9031 29.5204 55.5483 22.4226 55.1611C21.9387 55.1289 21.3902 55.3224 20.9385 55.0965C20.1965 54.7094 19.0028 54.2254 18.8737 53.4834C18.5834 51.6767 19.6158 51.0315 20.7127 50.8701C26.7781 50.0313 32.8434 48.8376 38.9411 48.386C52.1365 47.4181 65.3641 46.4502 78.5595 46.1275C101.789 45.5791 124.985 45.3855 148.214 45.3533C159.184 45.3533 170.185 45.934 181.155 46.5147C189.865 46.9664 198.576 47.8053 207.287 48.515C216.74 49.2893 226.225 49.9023 235.646 50.9992C248.293 52.4833 260.94 54.2577 273.587 56.0967C283.362 57.5485 293.17 59.1294 302.914 61.0006C316.496 63.6139 330.079 66.2917 343.629 69.3889C354.211 71.8086 364.729 74.8412 375.279 77.6804C376.537 78.003 377.763 78.7451 378.989 79.2613C378.957 79.8098 378.892 80.3582 378.795 80.9389Z" fill="white"/>
<path d="M42.974 13.1226C46.6519 12.671 50.2976 11.9934 53.9755 11.7676C63.9447 11.1546 73.9138 10.8642 83.8829 10.1867C113.952 8.21871 144.02 7.83154 174.121 8.05738C190.608 8.15417 207.062 8.86392 223.548 9.54143C236.517 10.0899 249.487 10.832 262.424 11.7999C274.49 12.6709 286.557 13.8969 298.623 14.9938C307.205 15.7681 315.786 16.5425 324.368 17.349C335.822 18.446 347.243 19.4783 358.664 20.7366C365.987 21.5431 373.278 22.7369 380.602 23.8015C381.247 23.8983 381.86 24.4145 382.506 24.7371C382.473 25.092 382.409 25.4792 382.376 25.8341C378.344 25.9632 374.311 26.2535 370.31 26.2212C354.953 26.0277 339.596 26.1245 324.239 25.3179C281.427 23.124 238.582 24.0596 195.737 23.737C183.51 23.6402 171.282 23.1885 159.055 22.64C146.214 22.0593 133.374 21.2205 120.533 20.4139C103.821 19.3492 87.1415 18.2524 70.4617 17.0587C61.7508 16.4457 53.0399 15.6068 44.329 14.8325C43.8773 14.8003 43.4256 14.5744 42.974 14.4131C42.974 13.9292 42.974 13.542 42.974 13.1226Z" fill="white"/>
</g>
<rect y="257" width="392" height="1" fill="#E7E7ED"/>
</g>
<path d="M0.5 16C0.5 7.43959 7.43959 0.5 16 0.5H376C384.56 0.5 391.5 7.43959 391.5 16V257.5H0.5V16Z" stroke="#393953" stroke-opacity="0.2"/>
<defs>
<linearGradient id="paint0_linear_3363_3787" x1="196" y1="0" x2="196" y2="258" gradientUnits="userSpaceOnUse">
<stop stop-color="#98DBC4"/>
<stop offset="1" stop-color="#B5E7D6"/>
</linearGradient>
<clipPath id="clip0_3363_3787">
<path d="M0 16C0 7.16345 7.16344 0 16 0H376C384.837 0 392 7.16344 392 16V258H0V16Z" fill="white"/>
</clipPath>
</defs>
</svg>
