<svg width="365" height="460" viewBox="0 0 365 460" fill="none" xmlns="http://www.w3.org/2000/svg">
<path d="M75.1485 50.3087C77.7452 75.1329 99.9863 93.1627 124.81 90.566C134.843 89.5166 143.762 85.2581 150.668 78.8987L173.281 82.2181L161.967 62.6693C164.712 55.9906 165.868 48.5576 165.068 40.904C162.471 16.0788 140.23 -1.95 115.405 0.646702C90.5817 3.24341 72.5528 25.4845 75.1485 50.3087Z" fill="white"/>
<path d="M75.1488 50.3084C76.0931 58.5607 79.11 66.6492 84.2719 73.2208C85.4578 74.9425 86.9841 76.3805 88.3686 77.9373C89.9401 79.306 91.4044 80.8061 93.1387 81.9763C96.4445 84.5226 100.16 86.5195 104.042 88.0468C107.907 89.6729 112.065 90.4502 116.212 90.9481C118.303 91.0605 120.397 91.2517 122.491 91.0679C124.59 91.0206 126.679 90.7958 128.747 90.4166C137.018 88.9187 144.852 85.0467 151.109 79.3754L150.574 79.5403L173.165 83.0089L174.805 83.261L173.975 81.8156L162.728 62.2279L162.779 63.002C168.258 50.1004 167.023 34.7366 159.995 22.7153C156.492 16.6962 151.607 11.5091 145.839 7.64137C140.075 3.76207 133.391 1.32923 126.548 0.403787C119.698 -0.50485 112.65 0.118064 106.109 2.29249C99.5759 4.49213 93.5852 8.1918 88.6775 12.9808C78.6972 22.4674 73.6813 36.6988 75.1488 50.3084ZM75.1488 50.3084C73.7748 36.6862 78.8905 22.5409 88.8729 13.1825C93.8299 8.50168 99.829 4.95537 106.304 2.8986C112.789 0.869135 119.727 0.384879 126.407 1.39226C133.083 2.41644 139.547 4.90285 145.075 8.7664C150.589 12.6383 155.239 17.7026 158.599 23.5178C162.025 29.3205 163.799 35.9698 164.336 42.6433C164.759 49.3399 163.666 56.1163 161.154 62.3339L160.991 62.7384L161.207 63.1081L172.587 82.6191L173.396 81.4258L150.762 78.2556L150.45 78.2115L150.227 78.4205C144.244 84.0372 136.672 87.9575 128.583 89.5689C126.562 89.9765 124.512 90.2328 122.451 90.3147C120.393 90.5322 118.331 90.3798 116.266 90.3053C112.173 89.884 108.048 89.1918 104.195 87.6466C100.327 86.198 96.5863 84.2978 93.2921 81.7704C91.5588 80.6191 90.0924 79.1359 88.5189 77.785C87.1312 76.2461 85.5997 74.8238 84.4074 73.1157C79.2203 66.6051 76.1498 58.5555 75.1488 50.3084Z" fill="#263238"/>
<path d="M143.389 45.5719C143.389 47.8692 141.526 49.7317 139.229 49.7317C136.932 49.7317 135.069 47.8692 135.069 45.5719C135.069 43.2746 136.932 41.4121 139.229 41.4121C141.526 41.4121 143.389 43.2746 143.389 45.5719Z" fill="#263238"/>
<path d="M123.436 45.5719C123.436 47.8692 121.573 49.7317 119.276 49.7317C116.978 49.7317 115.116 47.8692 115.116 45.5719C115.116 43.2746 116.978 41.4121 119.276 41.4121C121.573 41.4121 123.436 43.2746 123.436 45.5719Z" fill="#263238"/>
<path d="M103.48 45.5719C103.48 47.8692 101.618 49.7317 99.3207 49.7317C97.0234 49.7317 95.1609 47.8692 95.1609 45.5719C95.1609 43.2746 97.0234 41.4121 99.3207 41.4121C101.618 41.4121 103.48 43.2746 103.48 45.5719Z" fill="#263238"/>
<path d="M244.475 272.69C244.475 272.69 244.36 273.109 244.157 273.898C244.12 274.037 244.081 274.191 244.043 274.368C244.03 274.419 244.018 274.458 244.005 274.508C243.967 274.635 243.928 274.775 243.891 274.927C243.776 275.359 243.649 275.867 243.497 276.427C243.42 276.707 243.344 277.012 243.268 277.329C242.568 280.012 241.577 283.775 240.369 288.44C240.23 288.986 240.09 289.546 239.938 290.118C239.9 290.232 239.861 290.359 239.836 290.486C238.883 294.16 237.802 298.316 236.607 302.881C236.353 303.821 236.098 304.787 235.857 305.766C234.84 309.694 233.746 313.877 232.602 318.287C232.526 318.554 232.45 318.821 232.386 319.1C230.302 327.147 228.026 335.931 225.623 345.173C218.568 372.401 210.471 403.686 203.123 432.313C202.868 433.28 202.627 434.246 202.373 435.212C202.271 435.555 202.183 435.911 202.106 436.266C201.889 437.106 201.674 437.945 201.47 438.771C201.343 439.241 201.229 439.711 201.102 440.181C200.91 440.919 200.72 441.656 200.529 442.394V442.406C199.767 445.356 199.029 448.279 198.292 451.152V451.165C198.126 451.8 197.973 452.423 197.809 453.046V453.059C197.237 455.284 196.677 457.47 196.118 459.63H104.617C114.609 424.037 127.841 380.04 138.977 343.684C151.244 303.54 160.969 272.688 160.969 272.688H244.475V272.69Z" fill="#455A64"/>
<path d="M232.119 272.696C214.069 334.449 197.176 397.27 181.849 459.756C199.91 398.005 216.783 335.179 232.119 272.696Z" fill="#263238"/>
<path opacity="0.1" d="M162.983 272.696C168.779 317.545 189.75 392.054 197.807 453.059C216.643 379.141 244.48 272.696 244.48 272.696H162.983Z" fill="black"/>
<path d="M292.109 459.633H199.083L189.702 356.251C184.694 353.937 176.508 350.098 176.508 350.098C176.47 349.984 170.8 319.966 167.317 298.966V298.928C165.157 285.898 163.376 275.067 163.034 273.033C163.021 272.894 162.996 272.804 162.996 272.741C162.983 272.704 162.983 272.691 162.983 272.691H271.033C271.033 272.691 281.543 318.403 282.454 333.956C282.746 338.946 281.109 353.902 281.109 353.902L292.109 459.633Z" fill="#455A64"/>
<path d="M169.156 346.71C181.204 350.593 192.868 356.213 204.031 362.126C204.469 362.358 204.197 363.036 203.723 362.843C191.984 358.072 180.018 353.522 168.555 348.111C167.656 347.686 168.232 346.411 169.156 346.71Z" fill="#263238"/>
<path d="M260.364 324.3C259.324 323.861 240.66 323.904 232.375 315.559C224.793 307.92 222.453 286.423 222.293 286.388C222.166 286.359 222.037 286.402 221.967 286.512C221.674 286.962 220.883 303.76 229.717 316.162C235.943 324.902 257.96 325.402 260.355 325.022C260.778 324.955 260.667 324.429 260.364 324.3Z" fill="#263238"/>
<path d="M150.446 314.808C151.331 314.086 155.546 313.444 159.647 305.428C161.053 302.681 162.23 299.321 163.112 295.465C163.581 293.409 165.116 283.373 165.241 283.325C165.292 283.305 165.34 283.351 165.362 283.455C165.509 284.151 164.56 293.333 164.141 295.683C163.353 300.102 162.308 304.159 160.603 307.174C156.658 314.15 151.327 315.94 150.412 315.469C150.251 315.388 150.321 314.911 150.446 314.808Z" fill="#263238"/>
<path d="M174.805 284.326C174.857 284.024 175.397 284.008 175.363 284.335C174.312 294.759 174.114 304 174.077 313.83C174.06 318.394 175.349 343.747 183.368 342.661C184.71 342.48 185.503 341.25 185.895 339.289C186.367 336.93 185.745 333.925 185.574 331.52C185.195 326.203 184.99 320.885 185.037 315.554C185.125 305.602 186.013 295.725 188.138 285.996C188.207 285.677 188.672 285.745 188.641 286.073C187.345 299.738 186.42 313.413 187.192 327.141C187.562 333.739 189.917 343.84 183.02 344.201C175.993 344.569 173.054 327.743 172.63 323.177C171.446 310.431 172.624 296.903 174.805 284.326Z" fill="#263238"/>
<path d="M183.097 343.315C183.649 345.061 184.054 346.862 184.375 348.665C184.623 350.064 184.997 351.587 184.708 352.995C184.652 353.268 184.283 353.26 184.154 353.059C183.343 351.805 183.105 350.172 182.72 348.74C182.275 347.081 181.793 345.429 181.394 343.758C181.129 342.651 182.758 342.237 183.097 343.315Z" fill="#263238"/>
<path d="M263.055 276.676C264.593 287.799 269.406 320.607 270.605 331.161C270.791 332.779 270.941 334.403 270.829 336.027C270.706 342.73 270.759 349.389 270.793 356.07C273.936 389.395 277.747 426.358 281.863 459.557C279.509 426.226 276.114 389.233 272.787 355.962C272.653 348.902 272.66 340.862 272.646 333.499C270.286 314.429 266.581 295.556 263.055 276.676Z" fill="#263238"/>
<path d="M202.583 185.44C183.36 224.345 161.71 264.892 145.437 268.244C131.753 271.062 101.726 272.522 63.736 270.044C56.7085 269.586 75.8865 215.576 80.7511 216.531C93.6853 219.072 132.636 219.574 134.431 217.926C136.792 215.759 164.291 187.59 183.365 169.633C209.042 145.466 212.523 165.321 202.583 185.44Z" fill="#EB9481"/>
<path d="M71.9448 269.707C66.0108 270.491 38.5017 271.689 30.7715 270.31C23.0412 268.931 1.08375 263.35 1.53964 257.323C1.99448 251.295 8.55348 252.416 8.55348 252.416C8.55348 252.416 -0.344864 248.591 0.665672 242.566C1.67725 236.54 11.8235 238.618 11.8235 238.618C11.8235 238.618 2.9714 234.024 4.40945 228.085C5.84647 222.148 15.6996 225.946 15.6996 225.946C15.6996 225.946 7.41058 222.122 10.6533 217.729C14.5547 212.444 29.0403 221.219 37.6887 222.101C39.653 222.302 77.7832 223.328 77.7832 223.328L71.9448 269.707Z" fill="#EB9481"/>
<path d="M14.8485 225.638C25.5168 232.066 31.2964 233.032 43.5541 232.778C43.7936 232.773 43.8555 233.128 43.6045 233.156C31.6231 234.499 24.1996 234.332 14.5092 226.138C14.0365 225.737 14.3401 225.332 14.8485 225.638Z" fill="#263238"/>
<path d="M10.9852 238.093C22.6483 243.801 28.9079 244.905 41.7664 245.583C41.9492 245.592 41.9513 245.901 41.7664 245.907C29.097 246.298 21.6945 245.962 10.7898 238.728C10.295 238.4 10.4505 237.832 10.9852 238.093Z" fill="#263238"/>
<path d="M9.20669 252.43C20.8982 257.141 27.7082 258.647 40.2758 257.703C40.573 257.681 40.6329 258.111 40.3377 258.162C27.6168 260.372 19.104 258.555 9.10164 252.801C8.41885 252.408 8.47138 252.134 9.20669 252.43Z" fill="#263238"/>
<path d="M85.2656 219.226C85.2656 219.226 72.6644 210.018 66.2368 207.195C59.8091 204.372 31.9806 202.665 31.2705 208.654C30.3545 216.388 46.2247 220.537 54.2638 221.554C54.2638 221.554 52.1272 239.44 62.8732 244.883C73.6193 250.326 85.2656 219.226 85.2656 219.226Z" fill="#EB9481"/>
<path d="M31.7173 210.861C35.9684 218.516 46.6063 219.17 54.3313 220.74C54.9185 220.859 55.0288 221.374 54.8492 221.805C54.4542 229.362 56.0982 240.136 62.405 245.037C62.5899 245.18 62.4113 245.462 62.2065 245.343C54.7284 241.006 52.2504 230.552 53.2126 222.303C45.2659 220.818 34.6249 219.694 31.6416 210.9C31.6248 210.849 31.691 210.812 31.7173 210.861Z" fill="#263238"/>
<path d="M85.7959 216.286L72.8995 274.199C72.8995 274.199 132.069 275.549 149.792 267.939C163.073 262.237 192.994 213.589 204.886 181.946C217.051 149.576 196.936 154.757 183.777 168.324C170.618 181.891 134.948 216.196 133.737 216.555C132.527 216.913 85.7959 216.286 85.7959 216.286Z" fill="#FFC727"/>
<path d="M93.6014 244.069C94.5458 239.914 95.5079 235.759 96.4975 231.613C97.4828 227.489 98.3263 223.265 99.6047 219.215C99.6635 219.031 99.9661 219.054 99.9398 219.259C99.4303 223.322 98.4723 227.384 97.6719 231.408C96.8231 235.678 95.9428 239.944 95.051 244.207C93.2883 252.641 91.2011 260.979 88.9794 269.308C88.9248 269.515 88.6485 269.424 88.6821 269.225C90.1318 260.802 91.7043 252.421 93.6014 244.069Z" fill="#263238"/>
<path opacity="0.1" d="M204.892 181.949C193.003 213.595 163.073 262.236 149.787 267.947C138.989 272.579 112.83 273.875 94.0348 274.204L200.719 157.88C207.996 156.783 212.084 162.8 204.892 181.949Z" fill="black"/>
<path d="M332.108 268.759C336.421 284.033 345.177 293.34 348.979 296.221C352.781 299.103 364.202 302.819 364.404 303.522C364.607 304.225 356.729 311.578 356.202 311.802C355.676 312.024 346.003 306.229 339.5 300.812C332.998 295.394 326.567 272.546 326.567 272.546L332.108 268.759Z" fill="#263238"/>
<path d="M276.721 293.024C270.693 288.454 265.133 258.808 253.256 228.648C241.378 198.489 225.134 162.459 226.78 159.953C229.247 156.2 251.018 156.863 259.972 162.774C271.332 170.273 292.593 194.757 292.593 194.757C292.593 194.757 304.126 200.125 307.445 205.571C308.316 207 310.458 211.868 313.137 218.316C313.886 220.119 321.142 224.33 321.959 226.338C326.651 237.879 331.316 248.522 334.668 257.807C336.601 263.163 332.22 268.203 332.108 268.759C331.649 271.049 328.628 292.843 325.657 295.627C322.683 298.411 301.171 311.558 276.721 293.024Z" fill="#37474F"/>
<g opacity="0.8">
<path d="M283.595 280.317C282.412 275.744 282.791 277.185 281.623 272.609C280.48 268.124 279.161 263.645 278.186 259.132C278.074 258.613 277.983 258.185 278.579 257.833C279.498 257.292 281.239 257.176 282.303 256.948C285.406 256.283 288.527 255.675 291.663 255.125C298.141 253.987 305.457 252.794 312.041 252.212C312.659 252.157 312.838 252.9 312.209 252.968C302.033 254.072 291.165 255.824 281.238 258.005C280.691 258.126 279.421 258.268 279.141 258.728C279.077 258.833 279.395 259.695 279.403 259.726C279.664 260.723 279.926 261.719 280.188 262.717C280.711 264.712 281.234 266.706 281.757 268.701C282.803 272.689 282.316 270.661 283.362 274.649C283.841 276.477 284.322 278.306 284.795 280.135C285.053 281.133 285.311 282.131 285.569 283.129C285.697 283.622 285.79 284.139 285.96 284.624C286.31 285.623 286.647 286.026 287.908 286.382C290.001 286.972 292.317 287.26 294.474 287.688C296.913 288.171 299.351 288.655 301.789 289.138C302.959 289.37 304.477 289.9 305.693 289.85C307.055 289.795 308.251 288.325 309.112 287.594L317.014 280.875C317.686 280.304 318.62 279.2 318.996 278.466C319.492 277.495 313.966 256.688 312.017 252.478C311.929 252.286 312.522 252.117 312.61 252.311C314.413 256.288 320.636 275.95 320.752 278.007C320.849 279.752 319.245 280.833 317.837 282.02C315.854 283.694 313.871 285.366 311.888 287.039C310.861 287.906 309.845 288.784 308.799 289.637C308.071 290.231 307.353 290.855 306.262 290.955C305.329 291.042 304.333 290.738 303.457 290.558C302.038 290.267 300.618 289.983 299.197 289.694L290.983 288.027C289.168 287.659 286.302 287.523 285.264 286.084C284.782 285.414 284.688 284.554 284.496 283.809C284.2 282.644 283.897 281.48 283.595 280.317Z" fill="#263238"/>
<path d="M279.768 260.28C285.667 262.067 291.584 263.807 297.621 265.298C298.399 265.491 299.176 265.694 299.962 265.866C301.496 266.198 302.09 265.912 303.104 265.005C304.102 264.112 305.053 263.186 306.043 262.289C308.314 260.232 310.62 258.201 312.908 256.154C313.078 256.002 313.404 256.164 313.241 256.334C310.901 258.765 308.566 261.192 306.147 263.575C304.498 265.2 303.02 267.483 300.043 266.837C296.658 266.103 293.336 265.017 290.072 264.015C286.558 262.936 283.079 261.746 279.691 260.446C279.566 260.399 279.632 260.239 279.768 260.28Z" fill="#263238"/>
<path d="M299.345 263.29C299.37 262.904 299.497 262.477 299.917 262.236C300.409 261.955 301.044 262.037 301.561 262.216C301.797 262.298 301.659 262.602 301.419 262.519C301.208 262.445 300.988 262.38 300.752 262.419C300.65 262.436 300.552 262.468 300.471 262.522C300.427 262.551 300.362 262.621 300.35 262.638C300.3 262.713 300.261 262.8 300.225 262.879C300.206 262.921 300.189 262.964 300.177 263.007C300.188 262.966 300.166 263.052 300.165 263.061C300.126 263.244 300.103 263.451 300.124 263.634C300.161 263.955 300.431 264.251 300.828 264.355C301.062 264.417 301.283 264.363 301.431 264.204C301.592 264.029 301.624 263.81 301.643 263.603C301.648 263.55 301.759 263.543 301.764 263.598C301.799 263.953 301.757 264.357 301.338 264.574C300.921 264.792 300.344 264.648 299.991 264.424C299.563 264.154 299.315 263.727 299.345 263.29Z" fill="#263238"/>
</g>
<path d="M313.488 219.334C313.488 219.334 319.865 238.385 320.141 240.329C320.416 242.274 327.262 263.38 328.917 264.557C330.573 265.733 331.318 266.853 331.318 266.853" fill="#263238"/>
<path d="M292.593 194.757C292.593 194.757 303.671 218.823 304.568 220.489C305.464 222.155 314.825 244.582 316.157 246.496C317.489 248.41 320.723 252.45 321.594 252.947" fill="#263238"/>
<path d="M146.619 312.34L282.574 313.204C282.624 313.152 281.856 309.546 280.456 303.463C280.456 303.463 285.573 293.341 284.168 287.549C274.859 249.149 248.718 178.5 235.192 160.539C225.815 148.086 200.58 148.995 191.124 165.052C181.63 181.173 153.897 248.641 143.942 286.63C143.039 290.074 149.708 302.653 149.708 302.653C147.409 311.537 146.619 312.34 146.619 312.34Z" fill="white"/>
<path d="M146.618 312.34C146.882 312.228 282.685 313.784 282.832 313.453C282.99 313.21 282.919 313.103 282.914 312.995L282.887 312.832L282.829 312.52L282.706 311.905L282.449 310.682C282.174 309.251 281.143 304.891 280.82 303.378C282.014 301.3 283.867 296.484 284.445 293.171C284.778 291.346 284.967 289.444 284.569 287.548L283.216 282.205C277.617 260.906 270.543 240.015 262.903 219.369C255.737 200.54 248.401 181.545 238.172 164.113L236.616 161.815C234.169 157.807 230.168 154.877 225.799 153.301C215.311 149.583 202.638 151.933 194.663 159.861C189.504 165.199 187.004 172.458 183.701 178.978C170.156 209.089 158.139 239.915 148.183 271.398C146.724 276.197 145.297 281.092 144.014 285.946L143.834 286.61L143.756 287.319C144.379 292.829 147.3 297.761 149.671 302.673C148.778 305.76 148.085 309.344 146.618 312.34ZM146.618 312.34C148.11 309.295 148.836 305.886 149.744 302.634C147.424 297.752 144.555 292.762 143.972 287.323L144.048 286.666L144.233 286.004C145.561 281.161 147.02 276.286 148.517 271.502C158.757 240.145 170.725 209.317 184.374 179.289C187.66 172.853 190.137 165.697 195.23 160.429C202.954 152.772 215.342 150.505 225.492 154.141C229.735 155.7 233.506 158.478 235.852 162.351L237.374 164.612C240.076 169.256 242.847 174.293 245.063 179.147C260.347 212.414 272.724 247.113 282.433 282.409L283.796 287.728C284.16 289.436 284 291.263 283.679 293.029C282.991 296.574 281.683 300.027 280.121 303.294L280.061 303.419L280.091 303.548C280.362 304.864 281.472 309.486 281.738 310.837L281.997 312.053L282.12 312.659L282.177 312.96L282.202 313.105L282.212 313.17C284.582 312.353 146.144 312.574 146.618 312.34Z" fill="#263238"/>
<path d="M280.451 303.463L282.568 313.204L146.614 312.34L149.704 302.654L280.451 303.463Z" fill="#FFC727"/>
<path d="M202.283 168.763C192.481 201.833 183.687 235.186 175.855 268.776C174.987 273.028 173.734 277.23 173.351 281.571C173.311 285.969 174.476 290.222 175.565 294.42C176.326 297.198 177.188 299.945 178.158 302.653C176.437 295.753 174.412 288.749 174.557 281.632C175.131 277.427 176.483 273.308 177.45 269.162C185.797 236.804 195.057 201.217 202.283 168.763Z" fill="#C7C7C7"/>
<path d="M200.501 190.534C200.55 194.133 205.931 194.275 206.053 190.534C205.934 186.786 200.549 186.933 200.501 190.534ZM200.501 190.534C200.607 187.48 204.969 187.624 205.003 190.534C204.972 193.448 200.607 193.589 200.501 190.534Z" fill="#C7C7C7"/>
<path d="M194.8 216.617C194.849 220.216 200.23 220.359 200.352 216.617C200.232 212.869 194.847 213.017 194.8 216.617ZM194.8 216.617C194.906 213.564 199.269 213.708 199.302 216.617C199.271 219.532 194.906 219.673 194.8 216.617Z" fill="#C7C7C7"/>
<path d="M189.103 242.702C189.152 246.301 194.532 246.444 194.654 242.702C194.535 238.954 189.15 239.102 189.103 242.702ZM189.103 242.702C189.209 239.648 193.57 239.792 193.605 242.702C193.573 245.616 189.209 245.758 189.103 242.702Z" fill="#C7C7C7"/>
<path d="M183.405 268.785C183.455 272.384 188.835 272.527 188.957 268.785C188.837 265.038 183.453 265.185 183.405 268.785ZM183.405 268.785C183.512 265.732 187.873 265.876 187.908 268.785C187.875 271.7 183.51 271.841 183.405 268.785Z" fill="#C7C7C7"/>
<path d="M181.487 293.357C181.537 296.955 186.917 297.098 187.039 293.357C186.919 289.609 181.535 289.757 181.487 293.357ZM181.487 293.357C181.594 290.303 185.955 290.447 185.99 293.357C185.958 296.272 181.594 296.412 181.487 293.357Z" fill="#C7C7C7"/>
<path d="M199.65 171.429C206.706 175.513 220.993 166.087 226.76 156.873C227.152 156.239 227.71 130.309 228.016 125.08C228.084 124.007 194.757 131.128 194.757 131.128C194.757 131.128 197.339 142.276 196.751 151.388C196.693 152.149 196.577 152.853 196.4 153.52C196.383 153.618 196.348 153.736 196.332 153.873C195.43 157.91 196.036 169.338 199.65 171.429Z" fill="#EB9481"/>
<path d="M196.331 153.876C197.36 154.073 198.473 154.212 199.691 154.246C216.917 154.876 224.32 134.184 226.76 125.034C220.693 125.588 194.748 131.118 194.748 131.118C194.748 131.118 197.342 142.27 196.742 151.397C196.697 152.149 196.577 152.865 196.403 153.516C196.391 153.612 196.338 153.736 196.331 153.876Z" fill="#263238"/>
<path d="M235.835 87.9103C238.378 99.8192 229.366 132.815 220.47 139.579C207.572 149.385 187.894 148.735 179.925 133.561C172.2 118.851 184.705 76.0591 194.509 70.06C208.948 61.2237 232.078 70.3185 235.835 87.9103Z" fill="#EB9481"/>
<path d="M203.388 106.317C203.427 106.238 203.537 106.467 203.511 106.558C202.882 108.774 202.535 111.42 204.372 112.667C204.429 112.706 204.394 112.817 204.322 112.788C201.94 111.825 202.436 108.317 203.388 106.317Z" fill="#263238"/>
<path d="M205.968 104.483C209.631 105.108 208.112 112.388 204.718 111.809C201.378 111.239 202.897 103.958 205.968 104.483Z" fill="#263238"/>
<path d="M190.621 103.877C190.622 103.787 190.423 103.946 190.407 104.04C190.008 106.31 189.168 108.842 186.973 109.166C186.905 109.176 186.887 109.291 186.964 109.296C189.527 109.464 190.607 106.09 190.621 103.877Z" fill="#263238"/>
<path d="M189.1 101.1C185.53 100.069 183.729 107.284 187.036 108.24C190.29 109.181 192.091 101.965 189.1 101.1Z" fill="#263238"/>
<path d="M209.851 101.631C208.834 101.387 207.939 100.994 206.959 100.65C205.854 100.262 204.933 100.066 204.199 99.0884C203.806 98.5632 203.957 97.6115 204.43 97.1819C205.534 96.1808 207.006 96.3205 208.356 96.7333C209.82 97.1819 210.835 97.9025 211.686 99.1735C212.51 100.404 211.19 101.951 209.851 101.631Z" fill="#263238"/>
<path d="M187.21 97.2344C188.253 97.2859 189.224 97.1588 190.26 97.102C191.432 97.038 192.369 97.1083 193.347 96.373C193.872 95.9791 193.994 95.0242 193.659 94.478C192.879 93.2091 191.428 92.9307 190.016 92.9496C188.483 92.9696 187.309 93.3771 186.135 94.3593C184.999 95.3121 185.834 97.1661 187.21 97.2344Z" fill="#263238"/>
<path d="M201.282 128.023C200.632 128.438 199.941 129.053 199.109 128.951C198.311 128.853 197.464 128.307 196.803 127.877C196.738 127.835 196.65 127.895 196.682 127.973C197.086 128.96 198.206 129.76 199.289 129.794C200.348 129.829 201.037 129.052 201.479 128.169C201.54 128.047 201.377 127.962 201.282 128.023Z" fill="#263238"/>
<path d="M199.91 120.456C198.24 122.15 196.161 122.833 194.073 122.804C193.139 122.796 192.19 122.63 191.284 122.354C191.103 122.312 190.925 122.254 190.769 122.184C190.608 122.129 190.464 122.079 190.29 122.005C190.035 121.912 189.936 121.664 189.942 121.406L189.946 121.39C189.965 121.308 189.98 121.242 190.016 121.164C190.016 121.164 190.016 121.164 190.019 121.147L190.064 120.95C190.378 119.204 191.098 116.599 191.098 116.599C190.397 116.784 186.859 117.564 187.099 116.667C189.113 109.251 191.354 101.003 194.927 94.0487C195.033 93.8134 195.399 93.95 195.327 94.1926C193.672 101.398 190.762 108.262 188.984 115.473C190.099 115.296 191.934 114.921 192.838 115.128C193.07 115.251 191.358 120.139 191.28 120.935C191.28 120.935 191.272 120.969 191.277 121.021C194.117 122.003 196.5 121.581 199.741 120.211C199.936 120.116 200.082 120.305 199.91 120.456Z" fill="#263238"/>
<path d="M192.657 122.337C192.657 122.337 194.004 124.641 196.083 125.647C196.849 126.02 197.695 126.227 198.621 126.085C200.522 125.801 200.753 124.11 200.573 122.622C200.428 121.398 199.987 120.31 199.987 120.31C199.987 120.31 197.013 122.542 192.657 122.337Z" fill="#263238"/>
<path d="M196.085 125.647C196.851 126.02 197.696 126.227 198.623 126.085C200.524 125.802 200.755 124.111 200.575 122.622C198.57 122.61 196.463 123.74 196.085 125.647Z" fill="#FF98B9"/>
<path d="M185.614 81.1004C195.311 92.1648 214.514 84.0837 214.514 84.0837C215.953 94.2467 225.419 95.4915 225.419 95.4915C225.419 95.4915 222.646 115.987 227.898 117.288C235.908 119.281 245.312 92.7719 244.155 86.7938C242.998 80.8157 236.564 77.718 236.564 77.718C236.564 77.718 237.123 73.4542 233.148 68.4152C228.757 62.8405 208.475 63.6546 208.475 63.6546C208.475 63.6546 208.077 59.8152 205.314 55.9065C203.556 53.439 200.482 53.0598 198.032 54.7415C198.614 56.2846 198.877 58.1177 198.696 60.1398C198.15 66.2072 193.391 64.9855 194.785 59.7112C195.407 57.3655 196.619 55.71 198.032 54.7415C196.565 50.6878 193.018 48.5828 190.216 49.838C185.131 52.1165 177.546 71.9037 185.614 81.1004Z" fill="#263238"/>
<path d="M228.153 89.482C228.327 89.1595 228.77 89.3969 228.616 89.7351C226.896 93.543 225.137 97.3876 224.348 101.543C223.573 105.627 223.123 116.269 229.197 116.558C229.469 116.571 229.491 116.967 229.216 117.023C224.949 117.878 223.569 112.326 223.189 108.62C222.497 101.905 225.025 95.2636 228.153 89.482Z" fill="#263238"/>
<path d="M190.591 49.6561C190.633 49.6277 190.673 49.6907 190.634 49.7212C182.559 55.9125 178.27 66.5567 181.698 76.5097C186.011 89.0321 202.035 85.7673 211.71 83.3712C212.183 83.2546 212.431 83.9647 211.954 84.096C202.478 86.6948 186.308 89.5846 181.431 77.9625C177.08 67.5946 181.711 55.8138 190.591 49.6561Z" fill="#263238"/>
<path d="M234.878 77.2672C242.52 80.1108 247.188 85.2601 245.836 93.7771C244.489 102.255 238.952 110.18 231.736 114.716C231.383 114.937 231.063 114.429 231.385 114.181C236.681 110.107 241.097 105.266 243.524 98.938C245.317 94.2614 246.118 88.7318 243.692 84.1088C241.946 80.7799 237.941 79.0667 234.736 77.5456C234.551 77.4563 234.695 77.199 234.878 77.2672Z" fill="#263238"/>
<path d="M205.694 64.7386C217.024 61.2343 237.886 60.5053 236.503 77.5877C236.491 77.7264 236.253 77.7106 236.256 77.5699C236.708 60.2217 217.06 63.0432 205.786 65.2092C205.516 65.2618 205.437 64.8185 205.694 64.7386Z" fill="#263238"/>
<path d="M223.946 113.086C223.946 113.086 232.464 102.902 237.149 106.031C241.834 109.161 234.773 124.38 228.812 126.03C222.852 127.68 221.217 122.192 221.217 122.192L223.946 113.086Z" fill="#EB9481"/>
<path d="M235.017 110.343C235.11 110.342 235.117 110.474 235.034 110.5C230.844 111.789 228.386 115.359 226.557 119.123C227.891 117.729 229.602 117.049 231.484 118.657C231.583 118.742 231.467 118.898 231.356 118.863C229.728 118.366 228.506 118.548 227.271 119.779C226.396 120.651 225.751 121.794 225.089 122.83C224.869 123.176 224.231 122.926 224.405 122.52C224.419 122.491 224.434 122.46 224.447 122.43C224.791 117.259 229.43 110.382 235.017 110.343Z" fill="#263238"/>
<path d="M228.017 156.846C228.505 156.113 229.818 146.041 229.139 145.253C228.307 144.285 209.559 157.827 206.897 159.729C204.235 161.63 201.493 171.016 201.493 171.016C201.493 171.016 200.984 161.079 200.248 159.791C199.512 158.503 195.893 153.349 195.586 153.349C195.279 153.349 195.156 163.944 195.34 165.18C195.524 166.415 197.302 172.053 201.22 172.837C205.901 173.776 219.051 170.341 228.017 156.846Z" fill="#FFC727"/>
<path d="M278.29 278.895C276.721 277.304 230.342 214.956 223.434 182.182C218.897 160.657 236.166 164.393 236.166 164.393L233.42 158.027C233.42 158.027 227.266 154.955 215.337 164.976C193.537 183.291 248.284 272.766 281.934 291.629L278.29 278.895Z" fill="#263238"/>
<path d="M248.895 172.237C282.348 216.549 319.205 278.763 307.941 294.284C295.394 311.571 252.619 270.216 251.369 267.224C249.971 263.877 234.337 222.2 227.557 183.285C220.123 140.603 240.623 161.278 248.895 172.237Z" fill="#EB9481"/>
<path d="M248.895 172.237C282.348 216.549 319.205 278.763 307.941 294.284C295.394 311.571 252.619 270.216 251.369 267.224C249.971 263.877 234.337 222.2 227.557 183.285C220.123 140.603 240.623 161.278 248.895 172.237Z" fill="#FFC727"/>
<path d="M251.373 267.224C243.931 240.982 234.684 213.93 228.314 187.417C229.859 201.232 233.527 214.711 237.448 228.014C241.485 241.291 246.005 254.42 251.373 267.224Z" fill="#263238"/>
<path d="M227.292 193.017C227.734 197.168 229.081 201.241 231.514 204.656C230.396 200.619 229.127 196.79 227.292 193.017Z" fill="#263238"/>
<path d="M299.284 297.773C284.337 301.104 250.429 291.651 198.658 260.007C191.494 255.628 228.113 208.1 236.004 212.383C245.942 217.777 283.342 240.865 285.864 242.9C307.132 260.055 309.423 295.513 299.284 297.773Z" fill="#EB9481"/>
<path d="M254.562 237.782C254.562 237.782 252.43 234.84 243.704 217.488C237.67 205.489 215.301 180.118 177.716 183.62C163.314 184.961 157.968 195.65 173.176 196.914C183.887 197.804 191.387 197.5 194.8 198.769C194.8 198.769 181.123 207.915 180.856 217.445C180.736 221.704 180.682 233.336 181.932 242.397C181.932 242.397 183.98 242.656 186.62 242.614C186.62 242.614 186.677 254.623 199.068 259.966L254.562 237.782Z" fill="#EB9481"/>
<path d="M236.113 206.956C229.594 204.299 215.684 198.896 202.769 198.435C188.423 197.922 160.649 200.803 160.38 211.398C160.183 219.166 170.884 218.998 170.884 218.998C170.884 218.998 159.655 222.608 161.012 229.664C162.248 236.094 170.518 235.469 170.518 235.469C170.518 235.469 164.083 238.83 166.468 244.793C169.335 251.967 182.35 243.746 191.532 248.502C193.594 249.572 236.113 206.956 236.113 206.956Z" fill="#EB9481"/>
<path d="M204.758 213.684C198.218 212.19 182.492 212.607 171.038 218.742C170.779 218.882 170.744 219.152 171.008 219.075C185.054 214.998 198.865 213.924 204.752 213.82C204.832 213.818 204.831 213.701 204.758 213.684Z" fill="#263238"/>
<path d="M203.821 228.151C198.046 227.441 181.857 228.595 170.464 235.211C170.209 235.359 170.193 235.633 170.454 235.545C184.954 230.681 197.953 228.741 203.824 228.286C203.904 228.28 203.896 228.161 203.821 228.151Z" fill="#263238"/>
<path d="M247.707 217.751L210.501 272.877C210.501 272.877 290.275 308.249 301.796 297.69C313.316 287.131 300.518 252.767 288.224 243.58C275.928 234.393 247.707 217.751 247.707 217.751Z" fill="#FFC727"/>
<path d="M293.247 253.327C291.687 251.049 288.388 243.874 280.454 237.855C273.53 232.601 252.935 220.003 247.55 217.883C247.414 217.83 247.341 217.95 247.469 218.027C251.992 220.745 271.692 233.157 279.131 238.68C286.907 244.456 291.464 251.332 293.085 253.39C293.168 253.495 293.319 253.434 293.247 253.327Z" fill="#263238"/>
<path d="M228.44 273.181C230.308 269.434 232.771 265.912 235.009 262.377C237.342 258.692 239.791 255.083 242.223 251.462C244.652 247.845 254.855 233.688 257.403 230.156C257.518 229.997 257.756 230.165 257.652 230.33C255.325 234.022 246.096 248.655 243.696 252.194C241.293 255.735 238.917 259.295 236.42 262.771C233.894 266.286 231.474 270.021 228.602 273.264C228.54 273.335 228.391 273.282 228.44 273.181Z" fill="#37474F"/>
<path d="M213.317 268.656C212.214 270.085 211.122 271.522 210.061 272.98L210.379 273.144C228.783 282.354 248.008 290.049 267.892 295.42C274.539 297.153 281.296 298.59 288.139 299.197C261.489 292.84 236.233 282.197 210.622 272.61L210.745 273.04C211.624 271.593 212.474 270.126 213.317 268.656Z" fill="#263238"/>
</svg>
