<svg width="206" height="450" viewBox="0 0 206 450" fill="none" xmlns="http://www.w3.org/2000/svg">
<path d="M0 450H87.5297C89.5378 442.039 91.7565 433.305 94.0933 424.064C94.8444 421.117 95.5966 418.124 96.3711 415.082C96.3711 415.082 96.3711 415.082 96.3711 415.07C96.4647 414.706 96.5583 414.33 96.653 413.967C97.111 412.182 97.569 410.385 98.027 408.578C98.485 406.769 98.943 404.95 99.4121 403.119C99.8702 401.287 100.339 399.443 100.81 397.6C101.268 395.792 101.726 393.984 102.195 392.164C103.862 385.59 105.552 378.944 107.243 372.286C107.748 370.291 108.252 368.283 108.769 366.287C110.025 361.343 111.282 356.412 112.526 351.528C112.831 350.307 113.137 349.085 113.453 347.865C114.38 344.213 115.309 340.597 116.212 337.016C116.518 335.83 116.811 334.644 117.116 333.458C117.597 331.568 118.079 329.689 118.548 327.833C119.218 325.168 119.886 322.538 120.556 319.944C120.779 319.074 121.002 318.218 121.214 317.361C121.601 315.846 121.977 314.343 122.365 312.852C122.411 312.664 122.458 312.464 122.505 312.277C122.74 311.373 122.963 310.469 123.198 309.577C123.809 307.17 124.42 304.798 125.006 302.474C125.205 301.676 125.405 300.889 125.604 300.102C126.825 295.359 127.975 290.839 129.056 286.576C129.22 285.919 129.385 285.261 129.549 284.615C129.619 284.369 129.678 284.121 129.737 283.875C130.206 282.079 130.653 280.317 131.076 278.626C131.239 277.981 131.404 277.358 131.557 276.736C131.593 276.643 131.604 276.56 131.627 276.467C131.839 275.657 132.038 274.859 132.238 274.072C132.414 273.379 132.59 272.698 132.755 272.029C133.177 270.409 133.565 268.859 133.941 267.391C134.104 266.723 134.269 266.089 134.434 265.455C134.528 265.126 134.61 264.786 134.693 264.457C134.858 263.823 135.01 263.201 135.163 262.602C135.316 262.003 135.468 261.416 135.609 260.841C136.114 258.869 136.572 257.119 136.947 255.605C137.111 254.96 137.264 254.372 137.405 253.821C137.651 252.835 137.875 252.001 138.039 251.32C138.086 251.132 138.133 250.945 138.18 250.78C138.239 250.533 138.297 250.322 138.345 250.134C138.38 249.982 138.415 249.852 138.45 249.735C138.533 249.43 138.567 249.266 138.567 249.266C138.567 249.255 138.567 249.255 138.567 249.255H56.5315C56.5326 249.25 18.8906 378.943 0 450Z" fill="#263238"/>
<path d="M74.1797 450H76.5399C77.749 445.209 78.9469 440.431 80.1449 435.64C83.1625 423.594 86.1802 411.548 89.1857 399.5C91.1113 391.821 93.0246 384.131 94.9391 376.441C96.5594 369.959 98.1797 363.466 99.7888 356.986C106.376 330.404 112.963 303.786 118.915 277.041C119.279 275.42 119.642 273.8 119.983 272.18C120.253 270.994 120.511 269.808 120.77 268.621C120.806 268.469 120.571 268.41 120.524 268.562C120.254 269.525 119.983 270.488 119.714 271.451C119.302 272.918 118.892 274.386 118.492 275.854C111.929 299.454 105.859 323.23 99.8947 346.981C98.134 353.991 96.3722 361.012 94.6226 368.033C92.4385 376.709 90.2666 385.398 88.1059 394.074C85.476 404.594 82.8572 415.115 80.2396 425.634C78.2193 433.762 76.2 441.875 74.1797 450Z" fill="#37474F"/>
<path d="M138.576 249.256C138.576 249.256 112.409 351.848 94.0996 424.065L59.1934 249.256H138.576Z" fill="#37474F"/>
<path d="M59.1855 249.214C59.1855 249.214 59.1855 249.226 59.1855 249.25V249.273C59.1978 249.814 59.268 254.087 59.5377 260.357C59.5845 261.472 59.6313 262.658 59.7026 263.903C60.5596 281.232 62.8262 309.106 68.6264 320.237C68.8616 320.695 69.1078 321.117 69.3664 321.516C69.4132 321.61 69.4722 321.692 69.5302 321.786C69.5302 321.786 70.2467 322.032 71.5851 322.584C71.6085 322.584 71.6318 322.596 71.6553 322.607C72.3127 322.877 73.1106 323.206 74.0389 323.617C77.2917 325.025 82.1759 327.326 88.2693 330.72C89.8784 331.612 91.5689 332.586 93.3296 333.644C93.3296 333.644 93.8701 347.898 94.6211 368.034C94.727 370.734 94.8329 373.54 94.9376 376.441C95.3834 388.335 95.877 401.672 96.3707 415.046C96.3707 415.058 96.3707 415.069 96.3707 415.069C96.3707 415.081 96.3707 415.081 96.3707 415.081C96.8053 427.022 97.2399 438.998 97.6266 450H182.48C180.284 418.922 177.137 377.498 174.179 339.375C174.179 339.375 181.892 317.795 181.035 306.899C178.969 280.482 167.123 249.25 167.123 249.25L59.1855 249.214Z" fill="#263238"/>
<path d="M85.8344 304.381C85.5079 302.21 85.1814 300.039 84.8493 297.868C84.2386 293.892 83.4296 289.943 82.732 285.98C81.1496 276.99 79.5093 267.971 77.5067 259.063C77.4588 258.847 77.0956 258.901 77.1178 259.125C77.4733 262.722 77.8856 266.315 78.3949 269.893C78.9053 273.476 79.2563 277.079 79.7622 280.659C80.764 287.761 81.7547 294.873 82.9627 301.942C83.4285 304.666 85.1279 309.549 81.2064 310.394C78.1018 311.062 75.8252 308.014 74.9125 305.457C73.7993 302.343 73.4048 298.895 72.8242 295.65C72.1846 292.065 71.6218 288.469 71.1137 284.863C70.0071 277.009 68.7902 269.189 67.5121 261.362C67.4753 261.138 67.1165 261.206 67.1231 261.424C67.375 269.489 67.7984 277.471 68.8604 285.478C69.3675 289.299 69.9358 293.111 70.5844 296.911C71.1895 300.461 71.6419 304.28 73.212 307.561C74.4434 310.134 76.7423 312.453 79.6998 312.769C79.76 312.775 79.8202 312.77 79.8815 312.774C79.8146 312.826 79.7633 312.898 79.7667 312.999C79.809 314.272 79.7845 315.56 79.9194 316.826C80.0531 318.081 80.3027 319.338 80.5412 320.576C80.7819 321.827 81.085 323.112 81.5129 324.312C81.7201 324.894 81.9341 325.473 82.2027 326.028C82.4846 326.611 82.8758 327.062 83.2156 327.607C83.3538 327.828 83.619 327.691 83.6335 327.475L83.6536 327.477C83.6346 327.266 83.6335 327.061 83.6279 326.855C83.6302 326.818 83.6224 326.782 83.6246 326.746C83.6246 326.744 83.6235 326.742 83.6235 326.742C83.6157 326.373 83.6068 326.004 83.5511 325.628C83.4597 325.015 83.3226 324.411 83.19 323.806C82.9237 322.598 82.5927 321.391 82.2695 320.198C81.9453 319.002 81.6867 317.791 81.378 316.592C81.0593 315.355 80.6548 314.149 80.3685 312.902C80.3562 312.845 80.3161 312.819 80.2826 312.785C82.5871 312.813 84.9195 311.59 85.7553 309.356C86.3604 307.736 86.0829 306.042 85.8344 304.381Z" fill="#37474F"/>
<path d="M100.337 335.543C97.8557 333.508 94.9327 331.821 92.1836 330.169C89.1904 328.372 86.0914 326.745 82.8887 325.353C76.6182 322.631 70.156 320.772 63.6838 318.632C63.4921 318.569 63.3617 318.89 63.5523 318.966C69.8183 321.458 75.827 324.767 81.8824 327.73C84.8622 329.189 87.8777 330.574 90.9121 331.917C93.952 333.262 96.982 334.831 100.101 335.971C100.337 336.059 100.526 335.699 100.337 335.543Z" fill="#37474F"/>
<path d="M149.274 287.11C144.863 287.092 129.61 285.999 125.093 280.938C122.481 278.012 120.739 274.341 119.45 270.762C117.993 266.716 116.94 262.599 116.026 258.403C115.981 258.196 115.678 258.266 115.673 258.46C115.532 263.164 116.204 267.956 117.451 272.49C118.515 276.361 119.95 280.684 123.078 283.398C126.369 286.253 130.839 287.256 135.051 287.777C139.808 288.364 144.549 288.225 149.286 287.579C149.578 287.539 149.584 287.111 149.274 287.11Z" fill="#37474F"/>
<path d="M49.3836 287.333C50.7442 287.314 54.7392 284.531 55.2195 283.806C58.5492 278.782 59.3626 262.822 59.6446 258.626C59.6579 258.419 59.7516 258.489 59.7538 258.683C59.7973 263.387 59.59 268.178 59.2044 272.713C58.8757 276.584 58.4333 280.907 57.4682 283.62C56.4519 286.475 50.8422 288.447 49.3802 287.802C49.2899 287.762 49.2888 287.336 49.3836 287.333Z" fill="#37474F"/>
<path d="M155.218 256.189C155.335 256.6 166.066 297.037 165.561 306.852C165.057 316.762 159.339 336.382 159.315 336.546C159.315 336.569 162.274 387.655 165.902 450H168.004L161.417 336.78C161.663 335.312 167.182 316.538 167.663 306.957C168.191 296.824 157.706 257.328 157.261 255.648C157.108 255.085 156.521 254.756 155.969 254.897C155.406 255.05 155.077 255.625 155.218 256.189Z" fill="#37474F"/>
<path d="M172.218 259.396L52.2227 259.399L63.1111 223.126C63.1111 223.126 57.0813 211.437 57.7209 202.752C59.0526 184.647 90.2859 142.296 92.772 140.081C102.768 131.201 115.86 130.989 123.409 137.855C146.706 159.046 158.424 225.893 158.424 225.893C166.757 237.073 172.218 259.396 172.218 259.396Z" fill="#EBEBEB"/>
<path d="M98.8356 216.571C93.6159 216.37 88.335 216.406 83.0529 217.249C80.4252 217.668 77.8154 218.247 75.1944 218.898C73.8884 219.224 72.5868 219.491 71.2785 219.75C69.9357 220.015 68.5082 220.231 67.1888 220.052C67.0696 220.036 67.0295 220.276 67.1453 220.301C68.409 220.578 69.6192 220.837 70.923 220.882C72.1611 220.924 73.427 220.787 74.6773 220.603C77.3429 220.211 80.0073 219.656 82.6729 219.228C88.0497 218.365 93.4253 217.503 98.7921 217.156C99.0406 217.14 99.083 216.579 98.8356 216.571Z" fill="#263238"/>
<path d="M110.308 225.002C106.232 223.669 102.023 222.585 97.8025 221.899C95.6797 221.554 93.5445 221.379 91.3871 221.279C90.3574 221.231 89.3244 221.208 88.2903 221.203C87.1525 221.196 85.9947 221.395 84.8603 221.367C84.7422 221.363 84.6965 221.609 84.8168 221.616C85.8833 221.687 86.9241 221.996 87.9783 222.15C89.0369 222.305 90.0989 222.449 91.1576 222.603C93.2793 222.911 95.3933 223.252 97.5195 223.533C101.776 224.096 106.003 224.714 110.225 225.478C110.455 225.518 110.518 225.071 110.308 225.002Z" fill="#263238"/>
<path d="M118.524 138.551C117.928 140.845 106.547 155.558 96.0095 154.807C92.5784 154.556 93.1111 135.766 93.1111 135.766L92.8325 134.37L88.959 114.825L112.151 100.728L115.499 98.8694C115.499 98.8694 116.206 104.286 117.02 111.04C117.059 111.354 117.098 111.667 117.136 112.002C117.191 112.383 117.249 112.742 117.285 113.1C117.42 114.107 117.552 115.136 117.664 116.164C117.751 116.947 117.841 117.707 117.902 118.531C117.986 119.358 118.05 120.159 118.133 120.985C118.78 129.144 118.764 137.576 118.524 138.551Z" fill="#D3766A"/>
<path d="M117.019 111.042C111.072 126.377 98.5592 132.384 92.8325 134.37L88.959 114.825L112.151 100.728L115.499 98.8694C115.499 98.8694 116.205 104.287 117.019 111.042Z" fill="#263238"/>
<path d="M63.4674 83.7841C58.4261 118.388 78.5826 125.316 86.0455 126.395C92.8197 127.376 116.013 129.85 124.605 95.9507C133.195 62.0529 118.7 48.7685 103.324 45.7085C87.9455 42.6485 68.5088 49.1786 63.4674 83.7841Z" fill="#D3766A"/>
<path d="M71.06 74.9395C71.9046 74.9094 72.678 74.7422 73.5093 74.6263C74.4476 74.4971 75.2099 74.4893 75.9476 73.8307C76.3432 73.4785 76.3766 72.6996 76.0713 72.2828C75.3569 71.3122 74.1679 71.1863 73.0313 71.2966C71.7977 71.417 70.8783 71.8248 70.0002 72.6951C69.1477 73.5398 69.9467 74.9785 71.06 74.9395Z" fill="#263238"/>
<path d="M94.5451 81.5219C93.716 81.357 92.9794 81.0661 92.1771 80.8187C91.2711 80.539 90.5223 80.4098 89.8993 79.6409C89.5661 79.2297 89.6575 78.4552 90.0275 78.093C90.8889 77.2494 92.0824 77.3174 93.1867 77.6094C94.3846 77.927 95.2271 78.4775 95.9536 79.4782C96.6568 80.4477 95.6372 81.7392 94.5451 81.5219Z" fill="#263238"/>
<path d="M85.5178 108.162C84.9139 108.709 84.3021 109.471 83.4173 109.512C82.5681 109.551 81.5897 109.131 80.8253 108.8C80.7495 108.768 80.6681 108.846 80.715 108.921C81.3111 109.879 82.6183 110.514 83.7527 110.359C84.8615 110.209 85.4432 109.278 85.7474 108.281C85.7909 108.141 85.6048 108.082 85.5178 108.162Z" fill="#263238"/>
<path d="M76.2481 97.5611C76.2481 97.5611 75.3187 101.691 75.1538 103.398C75.1404 103.559 81.0555 104.418 84.4465 100.934C84.5891 100.787 84.3796 100.582 84.2147 100.674C81.8055 102.111 79.3093 102.478 76.6315 102.267C76.5557 101.783 78.2517 96.02 77.9832 95.9743C77.0571 95.8049 75.1583 96.2651 74.0216 96.4824C75.5684 88.9906 78.3019 81.8074 79.7294 74.3233C79.7751 74.0559 79.3962 73.9378 79.2937 74.1707C75.8949 81.4965 73.9269 90.0793 72.1317 97.7762C71.8999 98.7335 75.5372 97.7863 76.2481 97.5611Z" fill="#263238"/>
<path d="M74.7599 85.5482C74.751 85.4546 74.5594 85.644 74.5516 85.7432C74.3755 88.1725 73.766 90.9261 71.4915 91.5011C71.4213 91.519 71.4158 91.6415 71.4971 91.6393C74.2106 91.5401 74.9839 87.8783 74.7599 85.5482Z" fill="#263238"/>
<path d="M72.8596 82.7935C68.995 82.0915 67.8762 89.872 71.4556 90.5216C74.9792 91.1613 76.098 83.3819 72.8596 82.7935Z" fill="#263238"/>
<path d="M71.2717 82.9852C70.5284 83.3273 69.7517 84.0093 68.9204 83.9714C67.9587 83.9291 67.3603 83.0109 66.8533 82.1383C66.8009 82.0481 66.724 82.1071 66.7073 82.2096C66.471 83.6973 66.8243 85.3087 68.39 85.7611C69.8186 86.1734 71.0555 85.0045 71.6428 83.5591C71.7531 83.2906 71.5704 82.8471 71.2717 82.9852Z" fill="#263238"/>
<path d="M88.3783 88.0004C88.4106 87.9113 88.5499 88.1431 88.5309 88.2411C88.0896 90.637 87.9871 93.4552 90.0431 94.5852C90.1066 94.6198 90.081 94.7401 90.003 94.7167C87.4021 93.9389 87.5759 90.1991 88.3783 88.0004Z" fill="#263238"/>
<path d="M90.9106 85.8129C94.8265 86.1071 93.9517 93.9177 90.3233 93.6458C86.7518 93.3783 87.6277 85.5666 90.9106 85.8129Z" fill="#263238"/>
<path d="M92.4772 86.5097C93.0478 86.9933 93.5738 87.8135 94.3059 87.945C95.1539 88.0965 95.8805 87.3231 96.5179 86.5743C96.5837 86.4974 96.6383 86.5698 96.6294 86.6724C96.5034 88.1701 95.8348 89.6689 94.3683 89.7959C93.0311 89.9107 92.2142 88.5222 92.0248 86.9944C91.9891 86.7114 92.2477 86.3158 92.4772 86.5097Z" fill="#263238"/>
<path d="M121.541 103.919C114.621 98.6398 116.01 90.5072 116.01 90.5072C107.325 84.3682 103.748 75.8177 103.375 74.9485C103.456 75.7163 104.03 81.2602 104.412 84.0762C83.1994 75.2148 79.9834 56.8412 79.9834 56.8412C71.2858 62.4587 68.4709 67.1089 66.9453 69.1694C66.9453 69.1694 70.0912 55.1964 79.005 47.612C89.9145 38.3238 101.104 42.925 101.104 42.925C101.104 42.925 119.365 41.4897 129.594 58.8426C140.597 77.555 121.541 103.919 121.541 103.919Z" fill="#263238"/>
<path d="M88.3976 76.8231C91.4922 79.5577 95.1217 81.7341 98.8414 83.4123C98.8726 83.4268 98.8904 83.38 98.8614 83.3633C93.0121 80.2676 88.1223 75.8079 84.7414 70.0834C83.3116 67.6641 82.1873 65.0955 81.3994 62.3976C80.5759 59.5772 79.8906 56.282 80.2672 53.3445C80.2951 53.1217 79.9485 53.0771 79.9195 53.3011C79.5217 56.4068 79.1874 59.2763 79.8092 62.3843C80.3987 65.334 81.5398 68.209 83.1523 70.7509C84.5909 73.0231 86.3817 75.0412 88.3976 76.8231Z" fill="#263238"/>
<path d="M113.326 95.8513C113.326 95.8513 121.579 85.3974 126.366 88.4028C131.152 91.4083 124.504 106.87 118.574 108.693C112.643 110.516 110.848 105.059 110.848 105.059L113.326 95.8513Z" fill="#D3766A"/>
<path d="M124.349 92.788C124.444 92.7846 124.453 92.9172 124.37 92.9451C120.205 94.357 117.842 98.0065 116.113 101.832C117.411 100.397 119.107 99.6669 121.042 101.225C121.143 101.306 121.032 101.467 120.919 101.435C119.273 100.981 118.053 101.2 116.85 102.47C115.997 103.369 115.382 104.532 114.748 105.591C114.536 105.943 113.89 105.71 114.054 105.299C114.066 105.269 114.08 105.238 114.093 105.206C114.29 100.013 118.746 92.9863 124.349 92.788Z" fill="#263238"/>
<path d="M117.408 50.7388C121.409 56.558 151.497 70.5132 166.975 44.8048C182.218 19.4854 149.817 -12.8791 124.676 5.30846C107.788 17.5252 108.911 38.3794 117.408 50.7388Z" fill="#263238"/>
<path d="M118.439 134.46C123.327 145.184 125.034 178.571 122.809 205.408C120.583 232.245 110.713 314.28 110.44 331.263C110.167 348.246 179.357 407.559 193.769 403.378C208.181 399.197 214.112 356.571 185.211 260.854C177.614 235.695 154.408 173.037 135.158 147.844C122.897 131.8 118.439 134.46 118.439 134.46Z" fill="#FFC727"/>
<path opacity="0.6" d="M118.439 134.46C123.327 145.184 125.034 178.571 122.809 205.408C120.583 232.245 110.713 314.28 110.44 331.263C110.167 348.246 179.357 407.559 193.769 403.378C208.181 399.197 214.112 356.571 185.211 260.854C177.614 235.695 154.408 173.037 135.158 147.844C122.897 131.8 118.439 134.46 118.439 134.46Z" fill="white"/>
<g opacity="0.1">
<path d="M124.372 274.492C127.954 276.891 131.527 279.395 134.923 282.053C138.086 284.528 141.241 287.017 144.526 289.333C147.74 291.598 151.055 293.719 154.562 295.505C158.162 297.337 161.862 298.605 165.783 299.535C165.922 299.567 165.937 299.8 165.775 299.803C153.113 299.991 141.891 291.271 132.833 283.383C129.773 280.719 126.8 277.894 123.922 275.034C123.599 274.712 123.995 274.24 124.372 274.492Z" fill="black"/>
<path d="M124.694 279.804C128.895 284.346 133.279 288.605 138.292 292.256C143.185 295.818 148.556 298.712 154.144 301.023C157.386 302.362 160.742 303.511 164.104 304.508C164.311 304.57 164.27 304.859 164.049 304.841C151.561 303.85 139.573 297.421 130.98 288.43C128.505 285.842 126.258 283.075 124.473 279.961C124.386 279.807 124.576 279.676 124.694 279.804Z" fill="black"/>
<path d="M125.084 286.576C125.326 295.203 126.973 310.066 127.674 313.266C128.314 316.188 129.128 319.145 130.872 321.621C134.138 326.257 139.846 329.506 145.124 331.293C150.077 332.971 156.307 333.532 160.677 330.108C163.317 328.04 163.689 324.563 164.144 321.458C164.704 317.628 165.048 313.756 165.002 309.884C165 309.712 165.262 309.68 165.272 309.856C165.46 313.372 165.579 316.888 165.452 320.407C165.337 323.568 165.379 327.089 163.638 329.859C160.527 334.81 153.984 335.8 148.635 334.96C145.326 334.441 142.135 333.176 139.202 331.583C136.445 330.085 133.749 328.318 131.525 326.088C129.311 323.867 127.984 321.161 126.731 318.28C124.83 313.906 123.728 294.785 124.884 286.597C124.901 286.467 125.081 286.445 125.084 286.576Z" fill="black"/>
</g>
<path d="M132.161 138.641C143.113 149.541 167.222 172.893 177.432 241.773L171.082 244.12C171.082 244.12 161.457 180.776 124.09 135.414C124.09 135.414 130.629 137.115 132.161 138.641Z" fill="#FFC727"/>
<g opacity="0.5">
<path d="M132.161 138.641C143.113 149.541 167.222 172.893 177.432 241.773L171.082 244.12C171.082 244.12 161.457 180.776 124.09 135.414C124.09 135.414 130.629 137.115 132.161 138.641Z" fill="black"/>
</g>
<path d="M116.952 136.368C116.952 136.368 96.2237 178.248 96.2794 247.881L102.905 249.266C102.905 249.266 107.69 170.696 124.091 135.413C124.091 135.413 122.012 134.572 121.228 134.497C117.551 134.148 116.952 136.368 116.952 136.368Z" fill="#FFC727"/>
<g opacity="0.5">
<path d="M116.952 136.368C116.952 136.368 96.2237 178.248 96.2794 247.881L102.905 249.266C102.905 249.266 107.69 170.696 124.091 135.413C124.091 135.413 122.012 134.572 121.228 134.497C117.551 134.148 116.952 136.368 116.952 136.368Z" fill="black"/>
</g>
<path d="M95.4196 245.732C89.0733 244.688 74.0985 358.135 83.7846 371.149C91.3477 381.309 163.783 389.886 199.714 364.846C213.16 355.475 182.263 245.241 178.977 241.095C175.69 236.947 152.211 255.072 95.4196 245.732Z" fill="#FFC727"/>
<path opacity="0.5" d="M95.4196 245.732C89.0733 244.688 74.0985 358.135 83.7846 371.149C91.3477 381.309 163.783 389.886 199.714 364.846C213.16 355.475 182.263 245.241 178.977 241.095C175.69 236.947 152.211 255.072 95.4196 245.732Z" fill="black"/>
<g opacity="0.1">
<path d="M119.239 349.382C113.674 348.32 108.392 347.161 103.209 345.631C102.863 341.017 102.775 336.369 103.055 331.651C103.06 331.586 102.948 331.576 102.942 331.641C102.484 336.188 102.258 340.776 102.313 345.355C100.472 344.795 98.6403 344.191 96.8139 343.516C96.4573 336.729 96.4127 329.936 97.1716 323.1C97.1928 322.905 96.893 322.836 96.8707 323.033C96.1341 329.668 95.5301 336.342 95.48 343.005C93.3014 342.161 91.124 341.241 88.9342 340.185C88.7871 340.114 88.6857 340.321 88.8183 340.407C90.9312 341.766 93.171 343.02 95.4922 344.153C95.4989 347.041 95.6215 349.926 95.8778 352.805C93.5232 351.903 91.1841 350.89 88.8495 349.737C88.6367 349.632 88.4796 349.942 88.6813 350.061C91.0225 351.451 93.4663 352.688 95.9748 353.783C96.2612 356.621 96.6802 359.452 97.2975 362.27C97.4123 362.791 98.257 362.621 98.2157 362.099C98.0129 359.549 97.7967 357.002 97.5884 354.457C99.4014 355.19 101.247 355.839 103.121 356.396C103.732 361.08 104.688 365.716 106.186 370.237C106.368 370.787 107.144 370.505 107.026 369.959C106.068 365.561 105.232 361.182 104.55 356.8C108.492 357.866 112.535 358.545 116.615 358.708C116.959 358.722 117.008 358.152 116.666 358.101C112.431 357.456 108.354 356.621 104.361 355.544C103.959 352.822 103.603 350.099 103.359 347.363C108.517 349.055 113.895 350.03 119.188 349.99C119.533 349.987 119.579 349.448 119.239 349.382ZM97.5014 353.393C97.2708 350.526 97.0546 347.66 96.8885 344.793C98.6671 345.609 100.488 346.346 102.344 346.993C102.421 349.729 102.655 352.451 102.97 355.165C101.13 354.638 99.31 354.044 97.5014 353.393Z" fill="black"/>
<path d="M190.325 292.888C188.893 293.302 187.478 293.69 186.064 294.043C185.658 292 185.225 289.961 184.777 287.927C186.069 287.574 187.344 287.144 188.575 286.545C188.862 286.404 188.628 285.95 188.335 286.047C187.082 286.461 185.834 286.79 184.587 287.08C183.67 282.952 182.704 278.838 181.786 274.734C181.742 274.541 181.45 274.638 181.494 274.831C182.415 278.95 183.146 283.101 183.807 287.264C182.69 287.502 181.572 287.697 180.451 287.854C179.223 281.437 177.677 275.063 176.162 268.805C176.106 268.575 175.769 268.695 175.815 268.92C177.084 275.255 178.043 281.649 179.022 288.037C175.587 288.428 172.115 288.512 168.525 288.484C168.425 288.483 168.437 288.631 168.533 288.638C172.018 288.879 175.621 289.11 179.153 288.86C179.48 290.99 179.82 293.117 180.168 295.243C177.57 295.641 174.937 295.855 172.198 295.771C172.072 295.766 172.088 295.953 172.208 295.962C174.862 296.162 177.581 296.157 180.273 295.897C180.741 298.723 181.235 301.543 181.801 304.349C181.898 304.833 182.674 304.669 182.644 304.192C182.468 301.372 182.157 298.552 181.761 295.734C182.85 295.586 183.927 295.377 184.993 295.129C185.844 301 186.671 306.875 187.76 312.706C187.852 313.201 188.65 313.031 188.621 312.545C188.264 306.591 187.351 300.696 186.209 294.837C187.664 294.437 189.088 293.935 190.463 293.308C190.717 293.192 190.605 292.806 190.325 292.888ZM181.652 295.002C181.347 292.906 181.004 290.811 180.615 288.72C181.74 288.593 182.856 288.418 183.953 288.159C184.274 290.212 184.577 292.268 184.876 294.324C183.803 294.576 182.73 294.806 181.652 295.002Z" fill="black"/>
</g>
<path d="M139.044 148.544C168.742 184.14 203.785 256.726 195.006 270.115C185.227 285.028 143.896 235.155 144.295 232.477C144.595 230.453 132.209 187.106 122.704 155.536C113.207 123.997 131.7 139.742 139.044 148.544Z" fill="#D3766A"/>
<path d="M143.986 232.503C142.981 227.895 125.979 170.678 121.259 152.64C117.022 136.448 120.479 130.236 132.738 141.077C155.309 161.036 198.378 220.025 204.835 249.218C211.055 277.34 188.143 277.686 170.576 263.495C156.194 251.878 143.986 232.503 143.986 232.503Z" fill="#FFC727"/>
<g opacity="0.6">
<path d="M143.986 232.503C142.981 227.895 125.979 170.678 121.259 152.64C117.022 136.448 120.479 130.236 132.738 141.077C155.309 161.036 198.378 220.025 204.835 249.218C211.055 277.34 188.143 277.686 170.576 263.495C156.194 251.878 143.986 232.503 143.986 232.503Z" fill="white"/>
</g>
<path d="M146.15 239.897C139.658 219.298 133.09 196.465 127.656 175.562C134.153 196.16 140.712 218.994 146.15 239.897Z" fill="#263238"/>
<path d="M131.019 188.072C129.107 185.792 127.605 183.213 126.879 180.312C128.644 182.709 130.102 185.228 131.019 188.072Z" fill="#263238"/>
<path d="M198.052 266.669C191.99 277.929 172.408 282.231 124.121 297.687C117.439 299.826 89.6578 256.731 96.6761 254.081C105.516 250.742 140.544 239.7 143.207 239.216C165.673 235.133 202.163 259.03 198.052 266.669Z" fill="#D3766A"/>
<path d="M104.715 253.723C104.715 253.723 84.8337 253.267 74.3141 256.259C60.2275 260.266 49.7168 269.526 45.5458 273.673C36.8393 282.328 21.7742 309.273 28.7769 314.967C35.1176 320.121 49.1262 291.799 49.1262 291.799C49.1262 291.799 30.0773 318.317 38.8529 323.12C47.6274 327.922 62.0194 294.12 62.0194 294.12C62.0194 294.12 43.0596 321.807 52.8916 325.327C60.3222 327.987 75.0808 298.106 75.0808 298.106C75.0808 298.106 58.9482 322.016 66.4723 325.082C74.7855 328.468 90.1403 301.742 90.1403 301.742C110.575 306.315 122.176 300.132 129.904 294.752C131.775 293.449 104.715 253.723 104.715 253.723Z" fill="#D3766A"/>
<path d="M55.1259 282.205C52.7758 285.238 50.3765 288.294 48.3038 291.527C46.2311 294.76 44.2698 298.067 42.508 301.478C38.1854 309.845 36.788 315.759 36.914 315.403C39.8971 306.985 47.1371 295.298 49.2109 292.064C51.2792 288.838 53.1859 285.508 55.253 282.279C55.3031 282.198 55.1817 282.133 55.1259 282.205Z" fill="#263238"/>
<path d="M66.9321 289.476C64.0994 293.48 61.1397 297.351 58.4819 301.482C55.8375 305.592 53.6891 309.724 51.3344 314.006C51.1528 314.335 51.3901 314.324 51.5851 314C54.1081 309.817 56.7647 306.143 59.3366 301.988C61.9008 297.848 64.3212 293.578 67.0335 289.536C67.0759 289.473 66.9756 289.416 66.9321 289.476Z" fill="#263238"/>
<path d="M78.1912 293.895C73.5477 299.792 69.9973 306.539 66.6743 313.241C66.5094 313.574 66.8136 313.526 67.0019 313.196C70.7094 306.692 73.5711 301.564 78.3962 294.055C78.4731 293.939 78.2893 293.771 78.1912 293.895Z" fill="#263238"/>
<path d="M103.881 246.01L155.373 299.633C155.373 299.633 200.981 276.607 204.244 265.053C206.576 256.793 169.052 235.012 144.025 238.73L103.881 246.01Z" fill="#FFC727"/>
<path opacity="0.6" d="M103.881 246.01L155.373 299.633C155.373 299.633 200.981 276.607 204.244 265.053C206.576 256.793 169.052 235.012 144.025 238.73L103.881 246.01Z" fill="white"/>
<path d="M175.076 244.819C171.011 241.924 158.485 236.755 143.992 238.692C143.865 238.708 143.863 238.916 143.995 238.911C154.93 238.513 170.832 242.547 174.983 245C175.09 245.065 175.178 244.892 175.076 244.819Z" fill="#263238"/>
<path d="M159.727 285.972C155.173 280.414 150.328 275.106 145.468 269.81C140.605 264.511 135.751 259.2 130.755 254.023C127.933 251.098 125.127 248.154 122.203 245.328C122.126 245.253 121.983 245.362 122.055 245.449C126.598 250.999 131.427 256.334 136.244 261.653C141.072 266.984 145.96 272.27 150.894 277.506C153.682 280.465 156.524 283.373 159.447 286.201C159.592 286.341 159.86 286.136 159.727 285.972Z" fill="#263238"/>
<path d="M103.797 245.38C106.45 244.477 109.203 243.991 111.953 243.453C114.699 242.915 117.456 242.423 120.215 241.958C125.703 241.032 137.229 238.443 147.378 238.388C147.49 238.387 146.92 238.937 146.808 238.932C141.974 238.71 107.403 245.881 104.562 246.108C104.674 246.291 104.785 246.477 104.873 246.684C104.932 246.823 104.795 247.006 104.643 246.907C104.285 246.67 104.029 246.373 103.691 246.112C103.413 245.897 103.454 245.497 103.797 245.38Z" fill="#263238"/>
<path d="M146.445 290.647C149.52 293.544 152.559 296.477 155.574 299.433L155.239 299.384L165.611 293.458C175.587 287.594 186.705 281.322 196.087 274.636C186.77 282.149 176.356 288.19 165.998 294.135C162.463 296.129 158.919 298.108 155.317 299.982C152.33 296.898 149.369 293.79 146.445 290.647Z" fill="#263238"/>
</svg>
