<svg width="327" height="450" viewBox="0 0 327 450" fill="none" xmlns="http://www.w3.org/2000/svg">
<path d="M177.941 450H292.046L292.599 418.042C296.241 403.494 297.901 371.643 296.446 360.715C291.029 320.025 276.554 286.843 276.554 286.843L273.711 286.816L185.16 285.911C185.16 285.911 181.209 367.196 177.941 450Z" fill="#37474F"/>
<path d="M188.939 450.001H191.166C191.282 443.545 191.41 437.077 191.552 430.621C191.693 424.006 191.847 417.391 192.028 410.789C192.028 410.576 192.04 410.363 192.04 410.15C192.863 378.738 193.983 347.352 195.192 315.953C195.204 315.527 194.562 315.54 194.536 315.966C191.835 360.594 190.046 405.291 188.939 450.001Z" fill="#37474F"/>
<path d="M75.8086 450H206.538C214.296 428.969 220.267 412.983 221.926 408.564C222.017 408.324 222.094 408.124 222.145 407.964C222.312 407.538 222.389 407.325 222.389 407.325C224.911 405.888 227.858 404.344 230.74 402.88C237.238 399.566 243.375 396.705 243.375 396.705C271.927 350.744 273.715 286.814 273.715 286.814L185.164 285.909L136.849 285.417C127.508 321.674 109.7 357.159 96.446 393.351C89.3837 412.663 82.4093 431.711 75.8086 450Z" fill="#37474F"/>
<path d="M127.42 450H130.546C137.507 433.707 144.34 417.363 150.529 400.751C162.598 368.353 172.351 333.853 171.477 298.806C171.477 298.447 170.975 298.434 170.963 298.793C170.718 303.105 170.358 307.418 169.984 311.73C166.961 347.083 155.432 381.37 142.385 413.941C137.56 426.027 132.515 438.021 127.42 450Z" fill="#263238"/>
<path d="M190.964 410.166C197.287 410.114 203.596 409.733 209.833 408.59C216.132 407.437 222.022 405.335 228.15 403.535C233.964 401.828 240.133 401.616 246.087 400.688C252.129 399.747 258.163 398.175 263.694 395.458C263.955 395.33 264.169 395.734 263.907 395.869C258.418 398.706 252.893 401.389 247.012 403.243C240.974 405.146 234.68 405.352 228.555 406.836C222.256 408.362 216.186 410.414 209.716 411.12C203.446 411.805 197.113 411.718 190.893 410.598C190.645 410.554 190.733 410.167 190.964 410.166Z" fill="#263238"/>
<path d="M204.805 450H208.317C210.337 444.237 212.319 438.46 214.223 432.683C216.874 424.644 219.782 416.684 221.995 408.552C222.059 408.365 222.111 408.166 222.148 407.966C222.265 407.553 222.381 407.154 222.483 406.741C222.534 406.502 222.149 406.395 222.046 406.621C221.711 407.341 221.377 408.059 221.055 408.791C217.105 417.483 213.939 426.415 210.453 435.239C208.523 440.151 206.645 445.061 204.805 450Z" fill="#263238"/>
<path d="M75.1038 212.252C58.897 194.744 37.6551 173.936 31.9142 147.639C30.7882 142.48 32.7262 138.948 32.7262 138.948C29.9443 127.208 34.6521 122.369 34.6521 122.369C35.4093 110.64 40.906 106.353 40.906 106.353C40.906 106.353 37.7907 92.5326 45.8312 89.2634C54.8365 85.5693 57.4499 105.701 65.6577 115.893C84.4632 139.245 117.724 167.178 123.817 173.374L75.1038 212.252Z" fill="#F7A9A0"/>
<path d="M68.1624 154.213C62.7659 147.231 57.2814 140.512 52.8581 132.835C48.005 124.413 44.748 115.493 41.204 106.495C41.0929 106.214 40.6923 106.339 40.757 106.633C44.5917 123.936 55.2273 142.072 67.8486 154.463C68.1539 154.764 68.4336 154.565 68.1624 154.213Z" fill="#263238"/>
<path d="M55.7204 167.612C50.8452 160.527 42.3577 148.019 34.9266 122.287C34.9022 122.202 34.752 122.217 34.7666 122.314C37.369 139.662 44.3581 154.388 55.3821 167.843C55.724 168.26 56.044 168.083 55.7204 167.612Z" fill="#263238"/>
<path d="M48.8958 174.687C41.0653 162.324 37.6935 153.536 32.8013 138.986C32.7732 138.904 32.6218 138.929 32.6426 139.024C36.4674 156.144 39.7952 161.92 48.5086 175.015C48.8078 175.466 49.2011 175.17 48.8958 174.687Z" fill="#263238"/>
<path d="M0 74.3352L64.5525 73.7454L113.871 45.1189L163.74 115.511L113.337 138.457L114.25 140.394L103.621 143.825L102.556 142.165L45.1363 143.58L0 74.3352Z" fill="#455A64"/>
<path d="M105.848 139.823C105.848 139.823 123.996 129.231 139.787 123.029C147.21 120.114 156.295 115.433 156.295 115.433L155.991 110.441C155.991 110.441 119.139 120.286 105.848 139.823Z" fill="#EBEBEB"/>
<path d="M63.4512 71.9765C63.4512 71.9765 69.4815 62.0798 84.7773 56.2717C91.7407 53.6278 102.859 52.4408 111.203 44.9376L155.989 110.442C155.989 110.442 122.964 120.857 105.847 139.825L63.4512 71.9765Z" fill="white"/>
<path d="M105.846 139.824L63.4502 71.9755C63.4502 71.9755 26.5241 63.797 13.8467 67.0625L1.74805 72.8316L46.7561 141.13L105.846 139.824Z" fill="white"/>
<path d="M13.8447 67.0625L55.2868 134.737C55.2868 134.737 89.448 135.581 105.844 139.824L46.7541 141.13L1.74609 72.8315L13.8447 67.0625Z" fill="#EBEBEB"/>
<path d="M63.4473 71.9766C67.117 77.5453 70.7489 83.1372 74.332 88.7597L85.0177 105.667L95.5311 122.683C99.0141 128.367 102.448 134.084 105.843 139.824C102.172 134.256 98.5403 128.663 94.9572 123.04L84.2727 106.131L73.7605 89.1151C70.2776 83.4315 66.8435 77.715 63.4473 71.9766Z" fill="#EBEBEB"/>
<path d="M71.8203 75.2427C74.3372 72.6208 77.2144 70.3542 80.259 68.3636C83.3059 66.3743 86.5531 64.6768 89.931 63.3176C93.315 61.9755 96.7686 60.8397 100.208 59.6796C101.928 59.1007 103.649 58.5231 105.354 57.9039C107.062 57.2994 108.772 56.6791 110.388 55.8486C107.197 57.6035 103.717 58.7405 100.303 59.9556C96.8785 61.1621 93.4457 62.3455 90.0946 63.723C86.7167 65.0297 83.4769 66.6686 80.4165 68.6079C77.3805 70.5752 74.4557 72.7441 71.8203 75.2427Z" fill="#263238"/>
<path d="M102.457 62.1439C105.566 60.7273 108.791 59.7161 111.926 58.4033C110.516 59.3803 108.915 60.019 107.336 60.6443C105.732 61.2158 104.122 61.7604 102.457 62.1439Z" fill="#263238"/>
<path d="M73.3594 77.7963C75.0202 76.0121 76.879 74.4172 78.8366 72.9602C80.7844 71.4899 82.8312 70.1502 84.9561 68.9437C89.2572 66.6063 93.8649 64.9332 98.5141 63.4995C96.2438 64.38 93.9699 65.2471 91.718 66.1593C89.4673 67.0777 87.2764 68.1267 85.1698 69.3259C83.0376 70.48 80.9761 71.7696 79.01 73.1935C77.0524 74.6309 75.1387 76.1354 73.3594 77.7963Z" fill="#263238"/>
<path d="M74.8984 80.35C77.4154 77.7281 80.2926 75.4615 83.3371 73.4697C86.384 71.4816 89.6312 69.7829 93.0091 68.4236C96.3931 67.0815 99.8468 65.9458 103.286 64.7857C105.006 64.2068 106.727 63.6292 108.432 63.01C110.14 62.4055 111.85 61.7851 113.466 60.9547C110.275 62.7096 106.796 63.8465 103.381 65.0616C99.9567 66.2682 96.5238 67.4516 93.1728 68.8291C89.7949 70.1358 86.5562 71.7747 83.4946 73.7139C80.4587 75.6825 77.5338 77.8514 74.8984 80.35Z" fill="#263238"/>
<path d="M76.4355 82.9046C78.9525 80.2827 81.8297 78.0161 84.8742 76.0255C87.9211 74.0374 91.1683 72.3387 94.5462 70.9795C97.9302 69.6373 101.384 68.5016 104.823 67.3415C106.543 66.7626 108.264 66.185 109.969 65.5658C111.678 64.9613 113.386 64.3409 115.003 63.5105C111.812 65.2654 108.333 66.4023 104.918 67.6174C101.494 68.824 98.0609 70.0074 94.7099 71.3849C91.332 72.6916 88.0921 74.3305 85.0317 76.2698C81.9958 78.2359 79.0709 80.4048 76.4355 82.9046Z" fill="#263238"/>
<path d="M92.4648 75.3514C94.4212 74.4612 96.3923 73.5892 98.378 72.7429C100.352 71.8636 102.409 71.2201 104.432 70.4812L110.544 68.4088C112.569 67.692 114.614 67.0166 116.546 66.0641C114.687 67.1632 112.668 67.9545 110.659 68.7276C108.644 69.492 106.603 70.1796 104.574 70.8964C102.542 71.5998 100.487 72.2483 98.4989 73.0568C96.5022 73.8457 94.4908 74.6065 92.4648 75.3514Z" fill="#263238"/>
<path d="M77.9746 85.4582C79.6355 83.5372 81.6065 81.913 83.6362 80.395C84.6755 79.6672 85.7184 78.943 86.8126 78.3007C87.8958 77.6412 89.0267 77.0636 90.1709 76.5214C85.8857 79.2166 81.7836 82.1231 77.9746 85.4582Z" fill="#263238"/>
<path d="M79.5156 88.0116C82.0338 85.3897 84.9097 83.1231 87.9542 81.1313C91.0012 79.1432 94.2485 77.4445 97.6263 76.0853C101.01 74.7432 104.464 73.6074 107.903 72.4473C109.624 71.8684 111.344 71.2908 113.049 70.6729C114.758 70.0684 116.466 69.448 118.083 68.6176C114.892 70.3724 111.413 71.5094 107.998 72.7245C104.574 73.9311 101.141 75.1144 97.79 76.4919C94.4121 77.7986 91.1722 79.4375 88.1118 81.3768C85.0758 83.3442 82.151 85.513 79.5156 88.0116Z" fill="#263238"/>
<path d="M82.5898 93.12C85.108 90.4981 87.9852 88.2315 91.0297 86.2397C94.0767 84.2516 97.3239 82.5529 100.702 81.1937C104.086 79.8516 107.539 78.7158 110.978 77.5557C112.699 76.9768 114.42 76.3992 116.125 75.78C117.833 75.1755 119.543 74.5552 121.158 73.7247C117.967 75.4796 114.488 76.6166 111.074 77.8317C107.649 79.0382 104.216 80.2216 100.865 81.5991C97.4875 82.9058 94.2476 84.5447 91.1872 86.4827C88.1501 88.4526 85.2252 90.6214 82.5898 93.12Z" fill="#263238"/>
<path d="M102.988 83.6812C104.755 82.8593 106.587 82.1925 108.413 81.5136C110.257 80.8834 112.096 80.2398 113.99 79.7574C112.217 80.5842 110.389 81.2473 108.566 81.9251C106.724 82.5553 104.887 83.1952 102.988 83.6812Z" fill="#263238"/>
<path d="M84.1309 95.6736C86.0995 93.4523 88.4296 91.5801 90.8451 89.8631C92.0761 89.0351 93.3206 88.223 94.6224 87.5123C95.912 86.7783 97.2578 86.1506 98.6182 85.5681C96.0402 87.0238 93.5013 88.521 91.0955 90.2246C89.8706 91.044 88.7007 91.9416 87.5356 92.8429C86.3767 93.7527 85.2263 94.6796 84.1309 95.6736Z" fill="#263238"/>
<path d="M85.668 98.2271C88.1861 95.6052 91.0633 93.3386 94.1066 91.348C97.1536 89.3599 100.401 87.6612 103.779 86.3019C107.163 84.9598 110.616 83.8241 114.055 82.6639C115.776 82.0851 117.497 81.5075 119.201 80.8883C120.91 80.2838 122.618 79.6634 124.235 78.833C121.044 80.5879 117.565 81.7248 114.15 82.9399C110.726 84.1465 107.293 85.3299 103.942 86.7074C100.564 88.0141 97.3245 89.6529 94.2641 91.591C91.2281 93.5596 88.3034 95.7285 85.668 98.2271Z" fill="#263238"/>
<path d="M88.7461 103.336C91.263 100.714 94.1402 98.4471 97.186 96.4565C100.233 94.4684 103.48 92.7697 106.858 91.4105C110.242 90.0684 113.696 88.9326 117.136 87.7725C118.857 87.1936 120.577 86.616 122.282 85.9968C123.991 85.3923 125.7 84.772 127.316 83.9415C124.125 85.6964 120.646 86.8334 117.231 88.0485C113.807 89.255 110.374 90.4384 107.023 91.8159C103.645 93.1226 100.406 94.7615 97.3447 96.7008C94.3063 98.6681 91.3815 100.837 88.7461 103.336Z" fill="#263238"/>
<path d="M90.2852 105.889C92.8021 103.267 95.6793 101.001 98.7238 99.009C101.771 97.0209 105.018 95.3222 108.396 93.963C111.78 92.6208 115.233 91.4851 118.672 90.325C120.393 89.7461 122.114 89.1685 123.819 88.5493C125.527 87.9448 127.237 87.3244 128.853 86.494C125.661 88.2489 122.182 89.3859 118.768 90.601C115.343 91.8075 111.911 92.9909 108.559 94.3684C105.182 95.6751 101.942 97.314 98.8813 99.252C95.8454 101.222 92.9206 103.391 90.2852 105.889Z" fill="#263238"/>
<path d="M118.625 96.6637C120.81 95.7136 123.058 94.9443 125.283 94.126L128.631 92.928C129.741 92.514 130.849 92.1001 131.93 91.603C129.915 92.8926 127.651 93.7072 125.431 94.54C123.181 95.3119 120.927 96.0568 118.625 96.6637Z" fill="#263238"/>
<path d="M104.666 102.555C105.567 101.993 106.483 101.447 107.415 100.928C108.346 100.406 109.327 99.988 110.299 99.552C112.272 98.7484 114.271 98.0157 116.331 97.4723C114.394 98.3601 112.411 99.1111 110.47 99.9574C108.491 100.723 106.636 101.731 104.666 102.555Z" fill="#263238"/>
<path d="M93.3652 110.997C94.4338 109.66 95.7271 108.533 97.0387 107.446C97.7189 106.932 98.3917 106.408 99.1049 105.939C99.8096 105.46 100.546 105.027 101.297 104.621C98.6372 106.757 95.9786 108.81 93.3652 110.997Z" fill="#263238"/>
<path d="M121.875 98.6279C123.776 97.7828 125.736 97.1038 127.673 96.3747L130.588 95.3135C131.554 94.9471 132.522 94.5832 133.47 94.157C131.725 95.3086 129.758 96.0474 127.824 96.7875C125.862 97.4714 123.894 98.1259 121.875 98.6279Z" fill="#263238"/>
<path d="M94.9023 113.551C96.4899 111.842 98.2583 110.302 100.127 108.903C101.987 107.491 103.928 106.184 105.948 105.005C110.041 102.728 114.421 101.038 118.871 99.6692C116.704 100.525 114.533 101.372 112.39 102.27C110.249 103.178 108.171 104.217 106.166 105.386C104.137 106.513 102.18 107.769 100.3 109.136C98.4329 110.516 96.6096 111.964 94.9023 113.551Z" fill="#263238"/>
<path d="M96.4375 116.104C98.9544 113.482 101.832 111.216 104.876 109.224C107.923 107.236 111.17 105.537 114.548 104.178C117.932 102.836 121.386 101.7 124.826 100.54C126.547 99.9609 128.266 99.3833 129.972 98.7642C131.681 98.1597 133.389 97.5393 135.006 96.7089C131.815 98.4637 128.336 99.6007 124.921 100.816C121.497 102.022 118.064 103.206 114.713 104.583C111.335 105.89 108.095 107.529 105.035 109.468C101.998 111.437 99.0729 113.606 96.4375 116.104Z" fill="#263238"/>
<path d="M112.463 108.553C116.282 106.54 120.374 105.12 124.428 103.684L130.541 101.611C132.569 100.901 134.606 100.207 136.544 99.2666C132.78 101.401 128.607 102.636 124.571 104.1L118.477 106.219C116.456 106.949 114.439 107.694 112.463 108.553Z" fill="#263238"/>
<path d="M97.9766 118.659C99.5715 116.803 101.467 115.232 103.415 113.758C104.414 113.053 105.414 112.349 106.465 111.724C107.506 111.083 108.591 110.517 109.69 109.987C105.591 112.635 101.654 115.45 97.9766 118.659Z" fill="#263238"/>
<path d="M99.5176 121.213C102.036 118.591 104.912 116.324 107.957 114.332C111.004 112.344 114.252 110.646 117.629 109.286C121.013 107.944 124.467 106.808 127.906 105.648C129.627 105.069 131.347 104.492 133.052 103.873C134.761 103.268 136.47 102.648 138.086 101.817C134.895 103.572 131.416 104.709 128.001 105.924C124.577 107.131 121.144 108.314 117.793 109.692C114.415 110.998 111.175 112.637 108.115 114.575C105.078 116.545 102.153 118.714 99.5176 121.213Z" fill="#263238"/>
<path d="M101.053 123.766C102.565 122.13 104.25 120.657 106.024 119.305C107.794 117.947 109.639 116.687 111.555 115.539C113.496 114.435 115.492 113.419 117.594 112.672C119.664 111.845 121.75 111.057 123.842 110.305C121.809 111.219 119.769 112.099 117.714 112.939C115.635 113.729 113.679 114.783 111.776 115.919C109.85 117.015 107.989 118.228 106.199 119.54C104.425 120.87 102.683 122.252 101.053 123.766Z" fill="#263238"/>
<path d="M24.6406 72.9913C30.7638 72.9473 36.8772 73.3943 42.9772 73.9011C46.023 74.2125 49.0614 74.5898 52.0912 75.0246C55.1259 75.4264 58.1387 75.982 61.1368 76.5951C58.1081 76.1518 55.0856 75.6975 52.0521 75.314C49.0198 74.9293 45.979 74.6033 42.9345 74.3383C39.8949 74.0208 36.8492 73.7497 33.7985 73.5372C30.7492 73.3393 27.6973 73.1415 24.6406 72.9913Z" fill="#263238"/>
<path d="M46.6211 76.5864C47.962 76.6512 49.3029 76.7305 50.6303 76.9162L54.6188 77.451C57.2689 77.8662 59.9238 78.268 62.5421 78.8383C59.8579 78.6283 57.2091 78.2509 54.5566 77.8858C51.9077 77.4889 49.2711 77.0163 46.6211 76.5864Z" fill="#263238"/>
<path d="M26.0449 75.2344C28.8769 75.1111 31.7077 75.2319 34.5336 75.3724C37.3571 75.5678 40.1793 75.7925 42.9796 76.2285C40.1476 76.1552 37.3302 75.9549 34.508 75.8108C31.6882 75.6203 28.8684 75.4738 26.0449 75.2344Z" fill="#263238"/>
<path d="M27.4531 77.4795C32.0706 77.394 36.6794 77.7079 41.2847 77.9924C45.8777 78.4321 50.4768 78.8729 55.0234 79.6716C50.4279 79.249 45.852 78.7154 41.2505 78.4296C36.6611 77.9888 32.0583 77.7714 27.4531 77.4795Z" fill="#263238"/>
<path d="M28.8555 79.7236C34.9787 79.6796 41.0921 80.1266 47.1921 80.6334C50.2378 80.9448 53.2762 81.3221 56.3073 81.7569C59.342 82.1587 62.3548 82.7143 65.3529 83.3274C62.3243 82.8841 59.3017 82.4298 56.2682 82.0463C53.2359 81.6616 50.1951 81.3356 47.1506 81.0706C44.111 80.7531 41.0652 80.482 38.0146 80.2695C34.964 80.0716 31.9122 79.8738 28.8555 79.7236Z" fill="#263238"/>
<path d="M56.4082 83.9711C58.1558 84.0578 59.885 84.313 61.6155 84.5548C63.3374 84.8467 65.063 85.1251 66.7544 85.5721C64.997 85.4854 63.2739 85.2301 61.5471 84.9883C59.8288 84.6965 58.1094 84.4168 56.4082 83.9711Z" fill="#263238"/>
<path d="M30.2559 81.9671C34.0453 81.8682 37.8323 82.0563 41.612 82.2932C45.388 82.5838 49.1616 82.9417 52.9034 83.5462C45.3477 83.0027 37.8164 82.4458 30.2559 81.9671Z" fill="#263238"/>
<path d="M59.4355 88.4872C61.1465 88.5702 62.8391 88.8194 64.5329 89.0563C66.2182 89.3433 67.9072 89.618 69.5631 90.0589C67.8424 89.9771 66.1559 89.7267 64.4658 89.4898C62.7829 89.2028 61.1001 88.9293 59.4355 88.4872Z" fill="#263238"/>
<path d="M49.3672 87.3934C50.7288 87.3531 52.0771 87.4814 53.4253 87.5962C54.7686 87.7622 56.1144 87.9149 57.4382 88.2361C56.0717 88.2764 54.7271 88.1482 53.3801 88.0334C52.038 87.8673 50.6959 87.7146 49.3672 87.3934Z" fill="#263238"/>
<path d="M33.0684 86.4565C35.0321 86.371 36.997 86.4541 38.9607 86.5237C40.922 86.6446 42.8857 86.7521 44.8348 87.0305C42.8613 87.1172 40.9025 87.0329 38.9424 86.9633C36.9836 86.8412 35.026 86.7325 33.0684 86.4565Z" fill="#263238"/>
<path d="M34.4727 88.6999C40.5959 88.6559 46.7093 89.1029 52.8093 89.6097C55.855 89.9211 58.8934 90.2985 61.9245 90.7332C64.9592 91.135 67.9719 91.6906 70.97 92.3037C67.9414 91.8604 64.9189 91.4061 61.8854 91.0226C58.8531 90.6379 55.8122 90.3119 52.7677 90.0469C49.7281 89.7294 46.6824 89.4583 43.6318 89.2458C40.58 89.0479 37.5281 88.8501 34.4727 88.6999Z" fill="#263238"/>
<path d="M35.875 90.9444C41.9982 90.9004 48.1116 91.3474 54.2116 91.8542C57.2574 92.1656 60.2957 92.543 63.3268 92.9777C66.3615 93.3795 69.3743 93.9351 72.3724 94.5482C69.3438 94.1049 66.3212 93.6518 63.2877 93.2671C60.2554 92.8825 57.2146 92.5564 54.1701 92.2914C51.1305 91.9739 48.0848 91.7028 45.0342 91.4903C41.9823 91.2924 38.9305 91.0946 35.875 90.9444Z" fill="#263238"/>
<path d="M37.2793 93.1881C41.4803 93.0989 45.6789 93.3187 49.8689 93.6033C54.0552 93.9403 58.2379 94.3653 62.3815 95.0577C58.1939 94.728 54.021 94.3275 49.8359 94.0405C45.6557 93.7071 41.4693 93.4616 37.2793 93.1881Z" fill="#263238"/>
<path d="M42.6328 98.3463L58.4342 124.786C58.4342 124.786 76.0661 125.367 91.2349 128.035L74.4627 101.804C74.4627 101.804 50.8565 97.8114 42.6328 98.3463Z" fill="#EBEBEB"/>
<path d="M90.0994 142.595C93.7533 144.666 94.8645 142.762 92.035 135.855C89.1871 128.859 72.1413 104.003 81.3444 98.7865C90.5707 93.5353 114.116 129.107 117.947 140.971C121.806 152.829 123.817 173.372 123.817 173.372C117.845 167.375 101.97 154.21 90.0994 142.595Z" fill="#F7A9A0"/>
<path d="M185.476 129.787C194.733 129.648 208.003 110.923 211.195 98.6095C211.409 97.7644 208.3 90.2332 204.954 80.9031C202.946 75.233 200.843 68.873 199.343 62.9293L164.355 81.3892C164.355 81.3892 171.163 92.9211 173.714 103.299C173.918 104.168 174.035 104.995 174.073 105.802C174.089 105.917 174.09 106.061 174.12 106.22C174.533 111.041 176.529 129.915 185.476 129.787Z" fill="#F7A9A0"/>
<path d="M174.069 105.798C174.089 105.904 174.091 106.07 174.12 106.23C175.338 106.089 176.62 105.854 178.012 105.461C199.733 99.0455 199.269 73.0288 198.319 63.4813L164.346 81.3965C164.346 81.3965 171.158 92.9345 173.721 103.292C173.908 104.17 174.034 105.003 174.069 105.798Z" fill="#263238"/>
<path d="M199.431 17.8025C205.691 30.6045 204.802 70.6224 196.613 80.822C184.746 95.6084 162.216 100.444 148.871 85.4699C135.933 70.9546 138.017 18.8234 147.449 9.23567C161.343 -4.88644 190.184 -1.10801 199.431 17.8025Z" fill="#F7A9A0"/>
<path d="M165.241 47.5516C165.259 47.449 165.455 47.6749 165.453 47.7848C165.43 50.4825 165.858 53.5758 168.317 54.4148C168.393 54.4392 168.388 54.576 168.298 54.565C165.312 54.2145 164.787 50.1027 165.241 47.5516Z" fill="#263238"/>
<path d="M167.583 44.6819C171.909 44.2532 172.449 52.9397 168.439 53.3366C164.493 53.7274 163.954 45.0409 167.583 44.6819Z" fill="#263238"/>
<path d="M150.294 48.5299C150.267 48.4285 150.092 48.6703 150.103 48.7802C150.354 51.4657 150.192 54.5835 147.813 55.6288C147.738 55.6618 147.754 55.7961 147.845 55.7778C150.789 55.1745 150.964 51.0334 150.294 48.5299Z" fill="#263238"/>
<path d="M147.717 45.869C143.368 45.8091 143.569 54.5103 147.597 54.5664C151.562 54.6202 151.362 45.919 147.717 45.869Z" fill="#263238"/>
<path d="M170.764 40.4966C169.562 40.2719 168.491 39.8653 167.326 39.5209C166.011 39.1313 164.924 38.9567 164.009 37.8564C163.52 37.2653 163.638 36.1442 164.167 35.6155C165.398 34.3808 167.127 34.4565 168.729 34.8607C170.468 35.2992 171.696 36.082 172.764 37.5157C173.802 38.9066 172.349 40.7922 170.764 40.4966Z" fill="#263238"/>
<path d="M145.09 41.8008C146.282 41.5297 147.336 41.0803 148.487 40.6907C149.787 40.2499 150.865 40.0337 151.735 38.898C152.202 38.2886 152.04 37.1736 151.49 36.6644C150.212 35.4786 148.487 35.6227 146.902 36.0892C145.183 36.5948 143.986 37.424 142.974 38.9004C141.993 40.3305 143.518 42.1586 145.09 41.8008Z" fill="#263238"/>
<path d="M168.353 71.9941C167.731 72.6475 167.116 73.539 166.142 73.655C165.206 73.7661 164.093 73.3814 163.222 73.0786C163.136 73.0493 163.053 73.1421 163.111 73.2215C163.847 74.2314 165.341 74.8273 166.581 74.5648C167.794 74.3083 168.36 73.2337 168.617 72.1077C168.654 71.9489 168.445 71.8989 168.353 71.9941Z" fill="#263238"/>
<path d="M164.765 64.3223C163.248 66.6572 161.026 67.9285 158.623 68.3852C157.551 68.5965 156.425 68.6295 155.321 68.5257C155.104 68.5208 154.887 68.4951 154.69 68.4512C154.493 68.4268 154.316 68.4035 154.1 68.3584C153.785 68.312 153.613 68.0518 153.562 67.7539V67.7343C153.564 67.6354 153.565 67.556 153.588 67.4583C153.588 67.4583 153.588 67.4583 153.588 67.4376L153.593 67.2019C153.543 65.1258 153.756 61.9702 153.756 61.9702C152.996 62.3476 149.122 64.0744 149.188 62.9887C149.755 54.014 150.384 44.0318 152.843 35.2195C152.911 34.9252 153.364 34.9948 153.336 35.2904C153.133 43.939 151.41 52.4924 151.068 61.1764C152.304 60.7123 154.32 59.8502 155.406 59.8758C155.701 59.9613 154.887 65.9685 154.983 66.899C154.983 66.899 154.983 66.9381 155 66.9979C158.486 67.4559 161.118 66.4105 164.512 64.0805C164.715 63.9266 164.927 64.1085 164.765 64.3223Z" fill="#263238"/>
<path d="M204.041 59.0687C198.922 58.7658 187.985 57.0634 186.002 51.0013C184.018 44.9392 186.103 26.3707 184.211 21.6678C181.866 15.8389 172.435 11.0384 169.15 11.4926C164.901 12.0813 157.059 21.5713 152.81 21.807C149.754 21.9768 149.284 18.2276 149.129 17.4021C148.817 15.7388 149.349 13.1877 148.344 13.2255C145.315 13.3391 142.378 22.1135 141.102 27.5235C141.102 27.5235 140.749 13.0021 148.342 7.39059C156.717 1.20026 177.707 -6.53002 195.368 9.58511C211.239 24.0675 204.041 59.0687 204.041 59.0687Z" fill="#263238"/>
<path d="M190.805 51.6009C190.805 51.6009 197.865 37.7597 204.026 40.1069C210.187 42.4541 206.103 61.6589 199.734 65.0966C193.364 68.5331 190.068 62.6993 190.068 62.6993L190.805 51.6009Z" fill="#F7A9A0"/>
<path d="M202.719 45.5828C202.826 45.5584 202.868 45.7061 202.78 45.7574C198.335 48.322 196.464 53.0358 195.359 57.8059C196.518 55.8678 198.291 54.6466 200.859 55.9887C200.994 56.0596 200.903 56.2684 200.767 56.2586C198.778 56.1133 197.434 56.6421 196.346 58.3701C195.575 59.5925 195.138 61.0641 194.653 62.4197C194.491 62.8715 193.699 62.7518 193.791 62.245C193.798 62.2072 193.807 62.1693 193.814 62.1314C192.858 56.1414 196.354 47.0861 202.719 45.5828Z" fill="#263238"/>
<path d="M129.17 308.533H288.595C288.595 308.533 302.851 296.254 300.341 285.921C294.229 260.637 260.781 133.088 213.714 96.173C205.402 89.6627 180.147 97.5285 171.986 105.978C153.652 124.959 133.017 225.973 123.086 284.493C120.968 296.97 129.17 308.533 129.17 308.533Z" fill="#FFC727"/>
<path d="M213.708 96.17L211.484 86.912L171.416 101.023L170.924 106.742L213.708 96.17Z" fill="#37474F"/>
<path d="M208.863 115.694C206.49 112.965 194.652 104.313 180.343 103.551C175.241 103.278 167.563 106.136 160.066 112.432C152.481 118.802 127.742 155.186 126.367 189.453C124.992 223.72 191.759 271.172 195.267 270.917C198.774 270.661 195.815 256.261 194.412 254.703C193.009 253.144 148.84 210.796 146.978 195.94C145.117 181.085 156.967 136.586 160.49 131.345C164.013 126.105 170.876 112.693 173.376 112.432C180.343 111.707 193.009 123.964 196.779 124.034C200.548 124.102 211.69 118.946 208.863 115.694Z" fill="#263238"/>
<path d="M245.776 114.993C246.789 114.003 241.274 99.4056 237.175 97.0231C233.077 94.6405 208.447 96.1548 205.917 101.077C203.388 105.999 208.312 120.766 210.097 120.923C211.883 121.081 216.566 120.308 217.404 119.217C218.242 118.127 214.879 108.859 216.129 107.069C217.77 104.715 231.736 103.941 233.164 105.298C234.592 106.655 236.666 114.927 236.97 115.446C237.274 115.965 244.142 116.591 245.776 114.993Z" fill="#263238"/>
<path d="M183.338 253.735C189.267 263.7 208.386 276.006 219.378 277.234C230.354 278.444 302.897 283.651 313.533 267.813C323.212 253.401 296.734 156.103 274.295 126.105C272.263 123.377 270.258 121.209 268.327 119.719C268.163 119.585 268.016 119.485 267.869 119.368C247.408 104.555 209.155 115.484 204.368 117.147C196.914 119.755 186.653 126.984 182.1 141.783C177.532 156.584 177.393 243.769 183.338 253.735Z" fill="#37474F"/>
<path d="M223.856 244.82C225.429 251.995 237.896 268.367 251.612 271.809C265.314 275.266 313.536 267.816 323.802 257.643C324.951 256.505 325.669 254.27 325.983 251.189C328.234 229.195 310.565 164.036 293.922 144.962C292.116 142.891 290.317 141.351 288.542 140.49C286.34 139.403 283.885 138.505 281.267 137.768C268.628 134.248 251.785 134.594 238.889 138.494C230.568 141.029 223.882 145.044 221.047 150.472C213.826 164.264 222.282 237.66 223.856 244.82Z" fill="#455A64"/>
<path opacity="0.4" d="M223.856 244.82C225.429 251.995 237.896 268.367 251.612 271.809C265.314 275.266 313.536 267.816 323.802 257.643C324.951 256.505 325.669 254.27 325.983 251.189C328.234 229.195 310.565 164.036 293.922 144.962C292.116 142.891 290.317 141.351 288.542 140.49C286.34 139.403 283.885 138.505 281.267 137.768C268.628 134.248 251.785 134.594 238.889 138.494C230.568 141.029 223.882 145.044 221.047 150.472C213.826 164.264 222.282 237.66 223.856 244.82Z" fill="white"/>
<path opacity="0.1" d="M223.856 244.82C225.429 251.995 237.897 268.367 251.612 271.809C265.314 275.266 313.537 267.816 323.802 257.643C324.952 256.505 325.67 254.27 325.984 251.189C317.804 256.898 308.041 260.199 298.211 261.729C291.041 262.845 283.702 263.192 276.458 263.009C269.258 262.811 261.817 261.74 255.65 257.599C244.003 249.797 239.147 233.849 236.787 220.407C234.233 205.739 234.254 190.509 234.611 175.667C234.911 163.155 235.965 150.623 238.889 138.494C230.567 141.029 223.881 145.044 221.046 150.472C213.827 164.264 222.282 237.66 223.856 244.82Z" fill="black"/>
<path d="M231.134 215.207L234.421 214.831C232.642 199.63 229.584 158.363 236.64 149.894C243.496 141.653 272.207 138.688 284.351 141.709C288.3 142.694 291.488 143.867 293.918 144.966C292.109 142.884 290.312 141.345 288.538 140.484C286.339 139.404 283.891 138.502 281.259 137.765C266.613 135.772 241.23 139.203 234.089 147.787C224.692 159.068 230.879 212.927 231.134 215.207Z" fill="#263238"/>
<path d="M191.434 204.522L194.735 204.427C193.204 142.963 195.97 140.535 207.6 130.318L208 129.959C219.331 120.02 247.485 119.523 258.592 120.833C267.507 121.872 273.849 125.819 274.291 126.105C272.259 123.377 270.253 121.209 268.322 119.719C265.709 118.8 262.534 117.972 258.991 117.554C251.197 116.626 219.313 115.631 205.833 127.494L205.433 127.836C193.153 138.607 189.854 141.507 191.434 204.522Z" fill="#263238"/>
<path d="M174.407 252.426C176.686 260.318 196.329 275.163 205.746 278.046C207.647 278.643 223.403 280.895 223.748 274.573C223.773 274.158 223.784 273.729 223.795 273.3C224.154 256.801 215.263 221.576 213.329 216.874C211.049 211.331 192.814 201.669 182.183 200.079C179.848 199.722 177.871 199.765 176.522 200.311C168.975 203.402 172.977 247.422 174.407 252.426Z" fill="#455A64"/>
<path d="M174.407 252.426C176.686 260.318 196.329 275.163 205.746 278.046C207.647 278.643 223.404 280.895 223.748 274.573C223.774 274.158 223.785 273.729 223.796 273.3C212.277 273.02 196.004 268.751 188.373 255.658C181.158 243.314 181.205 215.615 182.182 200.078C179.847 199.721 177.87 199.764 176.521 200.31C168.975 203.402 172.977 247.422 174.407 252.426Z" fill="#37474F"/>
<path d="M180.297 139.136C178.02 200.127 157.541 278.504 137.159 283.877C114.457 289.863 116.844 206.567 119.592 204.297C121.669 202.581 139.653 170.86 158.148 131.592C176.625 92.3602 180.86 124.054 180.297 139.136Z" fill="#F7A9A0"/>
<path d="M119.27 204.051C122.344 198.656 148.023 149.297 159.287 127.485C170.551 105.672 180.957 106.278 181.499 137.799C182.042 169.32 175.288 230.233 155.903 264.49C137.228 297.491 122.703 287.156 118.005 257.799C114.157 233.764 119.27 204.051 119.27 204.051Z" fill="#FFC727"/>
<path d="M133.031 284.189C115.969 280.443 103.569 259.238 65.1823 201.595C59.87 193.62 106.295 138.648 112.404 146.874C120.101 157.235 147.721 199.113 149.355 202.43C163.129 230.411 144.604 286.73 133.031 284.189Z" fill="#F7A9A0"/>
<path d="M130.937 167.024L78.0742 234.197C78.0742 234.197 115.605 282.648 133.27 284.909C144.897 286.399 165.605 229.508 148.033 199.748L130.937 167.024Z" fill="#FFC727"/>
<path d="M153.751 241.589C155.324 234.956 157.968 217.028 148.065 199.685C147.979 199.532 147.715 199.636 147.788 199.799C153.914 213.433 154.442 235.049 153.473 241.562C153.448 241.733 153.712 241.755 153.751 241.589Z" fill="#263238"/>
<path d="M94.3221 245.961C100.395 238.957 106.079 231.654 111.742 224.338C117.408 217.016 123.092 209.702 128.571 202.246C131.666 198.034 134.79 193.837 137.734 189.524C137.811 189.411 137.638 189.261 137.542 189.37C131.478 196.359 125.756 203.648 120.053 210.918C114.337 218.205 108.693 225.556 103.125 232.949C99.9788 237.128 96.9087 241.359 93.9619 245.673C93.8166 245.884 94.1451 246.166 94.3221 245.961Z" fill="#263238"/>
<path d="M131.038 166.282C133.546 169.176 143.354 185.02 151.648 207.302C151.701 207.446 151.607 212.041 151.556 211.896C145.019 193.752 132.258 171.101 130.511 167.621C130.335 167.858 130.157 168.093 129.942 168.31C129.796 168.457 129.494 168.376 129.542 168.134C129.657 167.56 129.903 167.083 130.058 166.521C130.186 166.059 130.714 165.907 131.038 166.282Z" fill="#263238"/>
<path d="M82.5982 228.455L78.2287 234.315L78.2311 234.083C89.757 248.1 101.743 262.013 115.528 273.823C121.749 278.608 130.3 286.773 138.519 282.576C161.026 269.85 174.164 209.196 178.089 184.206C179.579 175.22 180.655 166.167 181.53 157.088C181.189 166.205 180.346 175.304 179.237 184.371C176.088 210.104 163.45 271.799 139.494 284.61C130.177 289.241 120.997 280.881 114.225 275.346C100.564 263.098 88.907 248.931 77.9282 234.314L77.8379 234.193L77.9307 234.081L82.5982 228.455Z" fill="#263238"/>
</svg>
