<svg width="196" height="454" viewBox="0 0 196 454" fill="none" xmlns="http://www.w3.org/2000/svg">
<path d="M9.83263 453.694H103.887L138.715 239.907L46.789 239.847L9.83263 453.694Z" fill="#AD6359"/>
<path d="M46.7846 239.847C46.7846 239.847 48.0791 283.245 60.6475 319.402C61.4476 321.706 62.2639 323.949 63.1102 326.129C63.1102 326.129 66.4942 327.063 72.8839 329.897C73.6091 330.224 74.3643 330.568 75.1644 330.941C79.1375 332.778 84.0468 335.255 89.8174 338.539C89.8174 338.539 89.8323 338.912 89.8623 339.645C89.8773 339.941 89.8923 340.299 89.9072 340.703C90.0583 343.88 95.7752 437.451 96.5603 453.614H195.047C193.522 438.355 191.996 423.36 190.516 409.252C188.461 389.585 186.513 358.512 184.821 344.015C184.821 344.015 197.361 309.966 168.02 239.734L46.7846 239.847Z" fill="#AD6359"/>
<path d="M46.7846 239.847L9.82828 453.695H195.047L184.82 344.015C184.82 344.015 192.148 330.302 189.379 306.102C186.609 281.903 168.019 239.734 168.019 239.734L46.7846 239.847Z" fill="#263238"/>
<path d="M104.227 347.268C98.2488 338.901 91.8616 330.766 84.0202 324.025C76.5558 318.884 68.5135 314.673 60.2589 310.944C64.1634 313.781 68.164 316.436 72.1733 319.061C75.5298 321.371 80.8722 324.488 83.828 327.087C90.7307 333.483 97.3413 340.829 104.227 347.268Z" fill="#263238"/>
<path d="M68.8445 323.512C74.3017 328.464 80.9024 331.645 87.6641 334.413C85.4085 331.416 82.1781 329.474 79.0213 327.612C75.7921 325.851 72.4768 324.322 68.8445 323.512Z" fill="#263238"/>
<path d="M78.7935 7.88727C57.6735 27.9189 65.2053 55.2039 56.7386 70.6358C51.5609 80.0724 33.6875 90.6624 30.5682 101.393C25.4417 119.023 40.4467 124.508 37.6344 134.093C33.6501 147.67 15.7305 147.532 13.6098 169.524C11.4902 191.517 36.6758 213.531 93.9982 216.956C151.321 220.381 181.592 197.935 182.704 179.312C183.816 160.688 164.542 155.477 162.556 141.707C161.287 132.911 172.688 126.168 172.462 109.871C172.236 93.5745 156.12 89.0821 153.154 75.3828C150.176 61.6186 155.814 27.7441 134.653 11.6257C113.493 -4.49392 89.215 -1.99621 78.7935 7.88727Z" fill="#263238"/>
<path d="M81.376 8.25401C75.3146 12.9935 70.8035 18.9251 67.5718 25.8965C64.2153 33.14 62.1407 40.914 60.5492 48.7129C59.6081 53.3214 58.7693 58.0496 56.7958 62.3535C55.0858 66.0833 52.5019 69.2974 49.6173 72.1833C43.7319 78.0713 36.5832 82.6785 31.3607 89.2242C26.4127 95.4241 22.7316 103.569 25.2318 111.554C26.5924 115.895 29.6743 119.34 31.6814 123.356C33.5837 127.16 34.5162 131.96 31.3394 135.36C28.6258 138.263 24.559 139.738 21.436 142.163C18.3716 144.542 15.6692 147.413 13.5234 150.646C9.1459 157.244 7.50574 165.093 9.37683 172.834C13.6221 190.399 30.7677 199.648 46.4468 205.227C48.6337 206.006 50.828 206.759 53.0249 207.508C53.3632 207.623 53.6216 207.131 53.2746 206.996C37.5119 200.871 19.2154 193.672 12.4287 176.736C9.37183 169.107 9.83118 160.863 13.9366 153.721C15.9076 150.291 18.5925 147.243 21.6494 144.74C24.6352 142.295 28.144 140.711 31.1884 138.378C34.2715 136.014 35.9466 132.691 35.5647 128.767C35.1603 124.614 32.9422 121.08 30.7528 117.648C28.4336 114.013 26.4364 110.323 26.515 105.889C26.5887 101.734 28.3125 97.7296 30.5044 94.2683C34.958 87.232 41.8408 82.4163 47.9509 76.9516C54.0984 71.4531 58.9253 65.2245 60.8588 57.066C61.8374 52.9406 62.3604 48.7204 63.1755 44.5625C63.9307 40.7067 64.8407 36.8772 66.009 33.125C68.322 25.6968 71.7808 18.4433 77.0621 12.6528C78.4451 11.1362 79.9243 9.76936 81.5782 8.54984C81.7629 8.41128 81.5557 8.11296 81.376 8.25401Z" fill="#263238"/>
<path d="M184.552 165.598C183.695 162.635 182.223 159.824 180.19 157.499C178.081 155.087 175.577 153.084 173.263 150.88C171.072 148.793 168.975 146.421 168.215 143.415C167.304 139.808 168.657 136.235 170.21 133.017C171.84 129.638 173.676 126.421 174.813 122.826C175.909 119.358 176.432 115.724 176.45 112.09C176.487 104.488 173.896 97.4067 169.648 91.178C167.544 88.0924 165.205 85.1765 163.078 82.1071C160.736 78.7282 158.842 75.167 157.467 71.2875C154.469 62.8332 153.46 53.806 150.924 45.212C148.323 36.402 144.68 27.9252 140.366 19.823C140.259 19.622 139.965 19.8242 140.073 20.0252C143.985 27.3248 147.029 35.0252 149.342 42.9739C151.536 50.512 152.624 58.2485 154.359 65.8876C155.207 69.6286 156.239 73.3421 157.809 76.8521C159.277 80.135 161.209 83.1719 163.236 86.1339C167.403 92.2203 171.695 98.2206 173.132 105.613C174.554 112.927 173.675 120.384 170.528 127.136C167.816 132.954 163.933 139.412 166.886 145.917C169.386 151.423 174.913 154.521 178.704 158.998C182.883 163.934 184.359 170.483 183.466 176.823C181.199 192.939 165.601 201.661 150.664 203.203C150.197 203.252 150.248 203.961 150.719 203.932C163.732 203.123 177.609 196.687 183.102 184.191C185.652 178.401 186.321 171.708 184.552 165.598Z" fill="#263238"/>
<path d="M31.6792 253.494L163.457 259.748L162.557 278.721L30.7789 272.468L31.6792 253.494Z" fill="#FFC727"/>
<path opacity="0.1" d="M31.6792 253.494L163.457 259.748L162.557 278.721L30.7789 272.468L31.6792 253.494Z" fill="black"/>
<path d="M30.7788 272.468L162.557 278.721L159.334 346.631L27.5564 340.378L30.7788 272.468Z" fill="#FFC727"/>
<path d="M31.5874 255.463L163.365 261.717L162.652 276.752L30.874 270.499L31.5874 255.463Z" fill="white"/>
<path d="M154.275 273.247C114.815 270.993 70.5254 268.888 31.0289 267.4C70.4892 269.657 114.779 271.755 154.275 273.247Z" fill="#DBDBDB"/>
<path d="M154.42 270.298C114.96 268.044 70.6699 265.939 31.1734 264.451C70.6337 266.708 114.923 268.806 154.42 270.298Z" fill="#DBDBDB"/>
<path d="M154.557 267.348C115.096 265.094 70.8066 262.989 31.3102 261.501C70.7705 263.76 115.06 265.857 154.557 267.348Z" fill="#DBDBDB"/>
<path d="M154.699 264.398C115.239 262.144 70.9492 260.04 31.4527 258.552C70.913 260.809 115.203 262.907 154.699 264.398Z" fill="#DBDBDB"/>
<path d="M52.7118 216.77C54.9711 212.362 91.3657 138.287 98.8252 120.162C106.285 102.037 100.333 96.1145 80.5386 112.225C60.7442 128.336 16.5518 182.988 5.74466 212.471C-4.66558 240.873 49.7348 222.58 52.7118 216.77Z" fill="#FFC727"/>
<path d="M98.8338 120.158C91.3719 138.281 54.9773 212.365 52.713 216.775C51.8517 218.464 46.6453 221.202 39.9386 223.547C23.6005 229.273 -1.63994 232.62 5.74959 212.472C12.887 193.005 34.57 162.571 54.1871 139.501C64.2666 127.628 73.8218 117.707 80.5498 112.229C100.333 96.1136 106.295 102.034 98.8338 120.158Z" fill="#455A64"/>
<path d="M85.7394 108.285C84.978 108.809 84.1916 109.384 83.3677 110.008H101.817C101.891 109.396 101.929 108.822 101.941 108.285H85.7394ZM98.6835 120.505C98.4713 121.03 98.2217 121.604 97.9595 122.215H69.8494C70.4111 121.629 70.9853 121.055 71.5345 120.505H98.6835ZM93.2412 132.726C92.9916 133.287 92.7295 133.849 92.4549 134.436H58.5529C59.0522 133.861 59.564 133.287 60.0633 132.726H93.2412ZM87.5368 144.933C87.2747 145.507 87.0001 146.082 86.7255 146.656H48.2301C48.7044 146.082 49.1663 145.507 49.6406 144.933H87.5368ZM81.7326 157.153C81.4579 157.715 81.1833 158.289 80.9212 158.863H38.6062C39.0431 158.289 39.48 157.715 39.9169 157.153H81.7326ZM75.8659 169.361C75.5913 169.935 75.3167 170.509 75.042 171.084H29.6314C30.0309 170.509 30.4428 169.935 30.8547 169.361H75.8659ZM69.9618 181.581C69.6747 182.155 69.4 182.717 69.1254 183.291H21.3432C21.7052 182.73 22.0796 182.155 22.4541 181.581H69.9618ZM64.0202 193.789C63.7331 194.376 63.4585 194.95 63.1839 195.511H13.9037C14.2283 194.937 14.5528 194.363 14.8898 193.789H64.0202ZM58.0287 206.009C57.7416 206.608 57.467 207.17 57.1924 207.719H7.68757C7.92473 207.157 8.18685 206.583 8.46146 206.009H58.0287ZM51.2882 218.217C50.5767 218.754 49.6156 219.34 48.4672 219.939H4.47961C4.42968 219.403 4.41719 218.828 4.45464 218.217H51.2882Z" fill="#37474F"/>
<path opacity="0.1" d="M98.8299 120.158C91.368 138.281 54.9734 212.365 52.7091 216.775C51.8478 218.464 46.6414 221.202 39.9347 223.546L54.1832 139.499C64.2627 127.626 73.8179 117.705 80.5459 112.228C100.329 96.1133 106.291 102.034 98.8299 120.158Z" fill="black"/>
<path d="M168.434 240.989L46.7849 239.847L55.0619 197.321C55.0619 197.321 45.6864 176.829 50.8403 166.431C56.7969 154.413 74.1835 126.741 85.5174 115.4C113.127 87.7728 126.442 106.012 132.634 114.334C146.314 132.714 157.755 213.762 157.755 213.762L168.434 240.989Z" fill="#455A64"/>
<path d="M94.5943 196.359C88.8674 196.004 83.0818 195.858 77.3337 196.436C74.4741 196.723 71.6406 197.152 68.7983 197.648C67.3816 197.895 65.9686 198.091 64.5469 198.278C63.0877 198.471 61.5324 198.617 60.0795 198.413C59.9484 198.394 59.9147 198.608 60.0433 198.635C61.44 198.925 62.7781 199.198 64.2086 199.281C65.5667 199.361 66.9472 199.281 68.309 199.158C71.2124 198.896 74.1058 198.488 77.0067 198.196C82.8584 197.603 88.7089 197.013 94.573 196.882C94.8439 196.874 94.8651 196.375 94.5943 196.359Z" fill="#263238"/>
<path d="M107.542 204.291C103.018 202.961 98.3567 201.85 93.702 201.093C91.3603 200.714 89.0137 200.484 86.6458 200.323C85.5149 200.246 84.3827 200.191 83.2493 200.151C82.0024 200.106 80.7417 200.246 79.4984 200.182C79.3686 200.176 79.3299 200.393 79.4622 200.404C80.633 200.503 81.7877 200.815 82.9498 200.988C84.1169 201.162 85.2864 201.327 86.4535 201.5C88.7915 201.847 91.1232 202.223 93.4661 202.546C98.1544 203.193 102.814 203.889 107.474 204.713C107.726 204.758 107.777 204.36 107.542 204.291Z" fill="#263238"/>
<path d="M129.256 110.007H91.397C92.1335 109.396 92.8575 108.821 93.569 108.285H127.708C128.257 108.859 128.769 109.433 129.256 110.007Z" fill="#37474F"/>
<path d="M136.93 122.215H79.4861C79.9605 121.628 80.4348 121.054 80.8966 120.505H136.168C136.43 121.054 136.68 121.628 136.93 122.215Z" fill="#37474F"/>
<path d="M141.363 134.435H70.3889C70.7884 133.861 71.1878 133.287 71.5872 132.725H140.827C141.001 133.287 141.189 133.848 141.363 134.435Z" fill="#37474F"/>
<path d="M144.807 146.655H62.2862C62.6357 146.081 63.0101 145.507 63.3721 144.933H144.357C144.52 145.507 144.669 146.081 144.807 146.655Z" fill="#37474F"/>
<path d="M147.74 158.863H54.9094C55.2339 158.301 55.5585 157.74 55.8955 157.153H147.353C147.491 157.715 147.615 158.289 147.74 158.863Z" fill="#37474F"/>
<path d="M150.35 171.083H49.4926C49.5675 170.496 49.6799 169.922 49.8172 169.361H150C150.125 169.947 150.237 170.521 150.35 171.083Z" fill="#37474F"/>
<path d="M152.707 183.291H50.4021C50.2898 182.729 50.1649 182.155 50.0651 181.581H152.395C152.495 182.155 152.607 182.729 152.707 183.291Z" fill="#37474F"/>
<path d="M154.869 195.511H54.2868C54.0871 195.024 53.8624 194.437 53.6127 193.788H154.57C154.682 194.375 154.782 194.949 154.869 195.511Z" fill="#37474F"/>
<path d="M156.854 207.719H53.0383L53.3753 206.009H156.579C156.679 206.608 156.766 207.182 156.854 207.719Z" fill="#37474F"/>
<path d="M160.176 219.939H50.6561L50.9931 218.217H159.502L160.176 219.939Z" fill="#37474F"/>
<path d="M164.967 232.146H48.2823L48.6193 230.436H164.293L164.967 232.146Z" fill="#37474F"/>
<path d="M119.065 104.513C118.44 107.134 105.088 124.619 93.1051 124.006C89.2019 123.8 90.0844 107.574 90.0844 107.574L84.8905 83.8881L114.665 65.1621C114.665 65.1621 119.314 103.402 119.065 104.513Z" fill="#AD6359"/>
<path d="M84.9 83.8968L89.8367 106.461C96.4411 103.936 109.763 96.9482 116.504 80.4916C115.534 72.3082 114.655 65.1633 114.655 65.1633L84.9 83.8968Z" fill="#263238"/>
<path d="M55.2635 49.5018C49.3632 88.7823 72.2245 96.7523 80.6962 98.0142C88.3866 99.1601 114.718 102.087 124.645 63.6255C134.572 25.165 118.173 10.004 100.724 6.45155C83.2726 2.89909 61.1627 10.22 55.2635 49.5018Z" fill="#AD6359"/>
<path d="M64.802 46.9306C65.7382 46.8806 66.5945 46.6784 67.5157 46.5336C68.5555 46.3701 69.4018 46.3464 70.2069 45.6C70.64 45.2005 70.6612 44.3343 70.3117 43.8787C69.4991 42.8152 68.1748 42.7003 66.9153 42.8464C65.5472 43.0049 64.5349 43.478 63.5775 44.4616C62.6501 45.4152 63.5663 46.9967 64.802 46.9306Z" fill="#263238"/>
<path d="M92.4462 48.4871C91.5225 48.3211 90.6987 48.014 89.8025 47.7544C88.7914 47.4623 87.9563 47.3337 87.2486 46.4937C86.8691 46.0431 86.9553 45.1818 87.3584 44.7724C88.2971 43.8187 89.6252 43.8686 90.856 44.1707C92.1928 44.4978 93.139 45.0932 93.9666 46.1891C94.7704 47.2514 93.6645 48.7055 92.4462 48.4871Z" fill="#263238"/>
<path d="M86.0147 54.7631C86.0434 54.662 86.2144 54.9079 86.2019 55.019C85.8849 57.7052 85.9747 60.837 88.3339 61.9417C88.4075 61.9766 88.3876 62.1102 88.2977 62.0902C85.3606 61.4162 85.2832 57.2583 86.0147 54.7631Z" fill="#263238"/>
<path d="M88.6628 52.1556C93.0253 52.1993 92.6172 60.9207 88.5754 60.8807C84.5985 60.8408 85.0067 52.1194 88.6628 52.1556Z" fill="#263238"/>
<path d="M90.3546 52.6971C91.0923 53.2263 91.7988 54.1313 92.7125 54.2649C93.7697 54.4196 94.6148 53.5446 95.3512 52.6983C95.4274 52.6109 95.4985 52.6908 95.496 52.8057C95.4424 54.4783 94.7196 56.1622 92.9159 56.3282C91.2708 56.4792 90.1673 54.9451 89.8291 53.245C89.7654 52.9305 90.0575 52.4836 90.3546 52.6971Z" fill="#263238"/>
<path d="M70.0815 52.8879C70.0652 52.7843 69.8655 53.0065 69.8643 53.1188C69.8456 55.825 69.3675 58.9206 66.8872 59.722C66.8099 59.7469 66.8124 59.883 66.9047 59.8742C69.903 59.5709 70.4959 55.4555 70.0815 52.8879Z" fill="#263238"/>
<path d="M67.7817 49.9723C63.4478 49.473 62.7675 58.177 66.7818 58.64C70.7325 59.0957 71.414 50.3917 67.7817 49.9723Z" fill="#263238"/>
<path d="M65.9224 50.4033C65.1984 50.8115 64.452 51.5954 63.6269 51.5867C62.6708 51.5742 62.0392 50.5781 61.5012 49.6282C61.445 49.5296 61.3714 49.597 61.3589 49.7131C61.1841 51.3732 61.5986 53.1482 63.1713 53.5938C64.6068 53.9995 65.7889 52.6552 66.3144 51.0287C66.413 50.7254 66.2133 50.2398 65.9224 50.4033Z" fill="#263238"/>
<path d="M83.9378 78.3521C83.2888 78.9849 82.6409 79.8562 81.6598 79.9373C80.7186 80.0147 79.6165 79.5891 78.7539 79.2533C78.6691 79.2208 78.5829 79.3107 78.6366 79.3918C79.3369 80.4304 80.8135 81.0832 82.068 80.866C83.2925 80.6538 83.9004 79.5965 84.1975 78.4769C84.2399 78.3184 84.0327 78.2597 83.9378 78.3521Z" fill="#263238"/>
<path d="M72.1303 67.1006C72.1303 67.1006 71.3364 71.1012 71.2253 73.0022C71.2166 73.1807 71.6709 73.2918 72.315 73.368C72.345 73.3792 72.3624 73.3929 72.3899 73.3742C75.7177 74.0944 79.1678 73.1333 81.3697 70.5108C81.512 70.3323 81.2823 70.1226 81.1013 70.2312C78.4863 71.925 75.6877 72.2383 72.7057 72.1135C72.6021 71.5792 74.2935 65.3081 73.9926 65.2682C72.9579 65.1184 70.8683 65.7063 69.6163 65.9934C71.0268 57.614 73.7692 49.528 75.0499 41.1636C75.0911 40.864 74.6642 40.7492 74.5606 41.0113C71.0855 49.2821 69.2506 58.8897 67.5718 67.5063C67.3508 68.5797 71.3501 67.3802 72.1303 67.1006Z" fill="#263238"/>
<path d="M72.518 72.5663C72.518 72.5663 74.1195 75.3049 76.5897 76.4995C77.4997 76.9426 78.5057 77.1885 79.6054 77.02C81.8647 76.6817 82.1393 74.6733 81.9246 72.9046C81.7524 71.4504 81.2281 70.1572 81.2281 70.1572C81.2281 70.1572 77.6944 72.8085 72.518 72.5663Z" fill="#263238"/>
<path d="M76.5897 76.4996C77.4997 76.9427 78.5057 77.1886 79.6054 77.0201C81.8647 76.6818 82.1393 74.6734 81.9246 72.9047C79.5442 72.8885 77.0391 74.2315 76.5897 76.4996Z" fill="#FF98B9"/>
<path d="M81.094 12.8375C81.094 12.8375 79.5712 18.9338 81.7081 23.2976C86.1019 32.2674 96.8966 29.761 100.636 33.2835C104.143 36.5863 103.009 43.5327 106.188 46.8405C110.588 51.4203 116.481 49.5517 117.234 52.6623C117.987 55.7728 120.162 65.6788 124.133 66.8933C128.104 68.1078 145.506 1.83808 93.811 4.54674C93.811 4.54674 86.6786 1.72324 75.7341 7.4289C63.655 13.7275 58.5984 33.8727 58.5984 33.8727C58.5984 33.8727 58.8531 33.5956 60.6043 32.0078C63.0746 29.766 64.0157 27.7064 65.8282 26.2522C68.6754 23.9667 70.2631 24.7993 73.2252 22.5699C77.7438 19.176 81.094 12.8375 81.094 12.8375Z" fill="#263238"/>
<path d="M81.85 9.9541C81.0786 12.5554 80.583 15.2379 80.4307 17.9203C80.256 20.5728 80.4257 23.3514 81.6215 25.6319C82.8298 27.8512 85.1877 29.3429 87.6093 30.1979C90.0808 31.0779 92.7957 31.3038 95.4544 32.3349C96.7551 32.8941 98.047 33.6567 98.9507 34.9087C99.8345 36.142 100.204 37.5587 100.517 38.8831C101.096 41.5418 101.686 44.1619 103.467 46.0417C105.218 47.9215 107.792 49.0349 110.433 48.8814C113.039 48.8539 115.912 48.085 118.467 49.2034C115.828 48.2947 113.181 49.2634 110.462 49.5068C107.685 49.8001 104.79 48.7329 102.767 46.7295C100.626 44.7061 100.005 41.7153 99.3913 39.1602C99.0706 37.8633 98.6936 36.5988 97.9684 35.6314C97.2706 34.6778 96.1434 33.9988 94.9726 33.5219C92.5935 32.5446 89.8424 32.2587 87.2223 31.2976C85.913 30.8233 84.6385 30.1742 83.5126 29.3154C82.4067 28.4803 81.3207 27.4156 80.744 26.0812C79.5245 23.455 79.5095 20.5691 79.8054 17.8616C80.1711 15.1393 80.8801 12.4905 81.85 9.9541Z" fill="#263238"/>
<path d="M80.8887 12.3333C80.4206 14.8197 79.5868 17.2263 78.4646 19.528C77.3637 21.8285 75.6374 23.9755 73.3419 25.3186C72.1935 26.0064 70.8816 26.3671 69.7819 26.759C68.7284 27.1497 67.6162 27.83 67.0096 28.6738C66.3493 29.6412 65.7277 30.857 64.7965 31.7682C63.8616 32.6782 62.7294 33.346 61.5361 33.7317C62.6096 33.0801 63.6119 32.3311 64.3272 31.3475C65.111 30.4064 65.5442 29.3042 66.1833 28.1346C66.9422 26.8489 68.1255 26.2048 69.3425 25.6381C70.5758 25.1463 71.7029 24.8443 72.7015 24.2176C74.7449 23.0044 76.3252 21.1507 77.5646 19.025C78.8416 16.9205 79.8838 14.6412 80.8887 12.3333Z" fill="#263238"/>
<path d="M116.261 62.4359C116.261 62.4359 124.995 50.0822 130.605 53.2028C136.214 56.3246 129.602 74.2617 122.983 76.6857C116.366 79.1098 114.002 73.0284 114.002 73.0284L116.261 62.4359Z" fill="#AD6359"/>
<path d="M128.583 58.2977C128.689 58.289 128.709 58.4375 128.617 58.4737C123.976 60.3261 121.516 64.6075 119.784 69.0512C121.17 67.3449 123.051 66.415 125.338 68.0664C125.458 68.1525 125.342 68.341 125.212 68.3135C123.317 67.8966 121.946 68.2199 120.657 69.7315C119.743 70.8025 119.115 72.1593 118.46 73.3988C118.242 73.812 117.495 73.586 117.655 73.1105C117.667 73.0755 117.681 73.0393 117.694 73.0044C117.607 67.0978 122.241 58.8594 128.583 58.2977Z" fill="#263238"/>
<path d="M6.34644 214.843C2.07624 222.368 5.41151 262.337 16.1638 294.456C18.7526 302.19 71.5452 306.6 70.8088 297.91C69.8277 286.343 55.4081 220.725 53.703 218.08C42.9133 201.347 11.3244 206.072 6.34644 214.843Z" fill="#AD6359"/>
<path d="M79.1672 349.227C74.2791 352.309 69.7156 348.44 69.7156 348.44C69.7156 348.44 67.8308 352.651 63.7116 354.286C58.9933 356.16 53.9867 349.583 53.9867 349.583C53.9867 349.583 51.1969 353.45 46.6708 354.741C41.9749 356.079 35.9772 350.163 35.9772 350.163C35.9772 350.163 31.3987 352.338 26.6879 350.646C18.6343 347.757 15.857 334.985 14.0096 326.884C12.161 318.784 14.5089 294.075 14.4789 289.322L66.3679 277.017C66.3679 277.017 84.9877 310.986 85.8065 320.819C86.4981 329.103 84.6544 345.767 79.1672 349.227Z" fill="#AD6359"/>
<path d="M69.9104 348.267C71.2897 339.284 69.9366 330.383 69.0916 321.42C69.0729 321.221 68.7596 321.253 68.782 321.453C69.7257 330.357 68.8906 339.331 69.4785 348.254C69.4948 348.501 69.8742 348.51 69.9104 348.267Z" fill="#263238"/>
<path d="M54.3071 349.584C54.5567 347.543 54.1336 345.425 53.8415 343.407C53.5269 341.233 53.1725 339.068 52.788 336.906C52.0141 332.578 51.1428 328.268 50.1443 323.987C50.1006 323.797 49.7985 323.818 49.8334 324.019C50.5961 328.333 51.2951 332.659 51.8768 337.001C52.1676 339.174 52.4397 341.35 52.6969 343.526C52.9365 345.551 53.0214 347.708 53.7079 349.644C53.8103 349.93 54.2684 349.891 54.3071 349.584Z" fill="#263238"/>
<path d="M35.944 349.981C36.2336 348.216 35.5745 346.173 35.2275 344.441C34.8343 342.477 34.4511 340.511 34.0804 338.542C33.3364 334.605 32.5962 330.668 31.9896 326.709C31.9596 326.512 31.6513 326.542 31.6813 326.741C32.2754 330.768 32.8159 334.801 33.445 338.824C33.7546 340.799 34.0741 342.772 34.4061 344.743C34.687 346.42 34.8493 348.547 35.7468 350.027C35.7979 350.11 35.929 350.07 35.944 349.981Z" fill="#263238"/>
<path d="M66.3689 277.019C69.7578 283.533 73.0269 290.112 76.1825 296.741C80.5276 306.685 86.4442 316.595 85.498 327.804C85.0911 334.053 83.919 347.036 77.4881 349.82C74.9579 350.423 71.9098 349.91 69.784 348.359L69.6804 348.279L69.6205 348.392C68.0403 351.222 65.6387 354.809 61.9926 354.621C65.6649 354.881 68.1539 351.313 69.809 348.487L69.6467 348.521C71.0934 349.738 72.977 350.257 74.8144 350.462C81.1679 351.354 83.532 343.675 84.8414 338.82C86.3456 331.649 87.3778 323.948 85.4131 316.778C80.8084 302.772 73.5412 289.833 66.3689 277.019Z" fill="#263238"/>
<path d="M8.2379 291.961L71.9238 283.669C71.9238 283.669 70.7355 277.72 68.9093 269.334C68.1392 265.8 71.8864 261.835 70.9302 257.698C66.9833 240.616 57.1735 220.632 53.6485 216.253C47.2463 208.297 16.3813 195.962 5.90495 212.497C2.40117 218.028 -0.862953 243.075 1.21285 263.702C1.6023 267.569 6.55029 274.472 6.92476 277.77C7.94207 286.713 8.2379 291.961 8.2379 291.961Z" fill="#455A64"/>
<path d="M34.6927 206.009H13.7099C12.599 206.458 11.5255 207.033 10.5394 207.719H39.8728C38.2127 207.083 36.4776 206.496 34.6927 206.009ZM56.0374 219.939H3.39954C3.53684 219.34 3.67415 218.766 3.81145 218.217H55.0139C55.3384 218.728 55.6754 219.303 56.0374 219.939ZM62.0913 232.147H1.50222C1.56464 231.56 1.62705 230.999 1.68947 230.437H61.3299C61.5795 230.999 61.8417 231.56 62.0913 232.147ZM66.9594 244.367H0.653435C0.678398 243.793 0.703369 243.219 0.715851 242.645H66.3478C66.5475 243.206 66.7597 243.78 66.9594 244.367ZM70.6542 256.575H0.703354C0.678391 256.001 0.665916 255.439 0.653435 254.865H70.2173C70.3796 255.439 70.5294 256.013 70.6542 256.575ZM68.8317 268.795H3.00011C2.7255 268.208 2.45088 267.634 2.21372 267.072H68.9441C68.8193 267.659 68.7693 268.233 68.8317 268.795ZM71.3906 281.003H7.26906C7.21913 280.453 7.15672 279.879 7.09431 279.293H71.0286C71.1535 279.917 71.2783 280.491 71.3906 281.003ZM11.7752 291.5L8.23018 291.962C8.23018 291.962 8.21771 291.812 8.20523 291.5H11.7752Z" fill="#37474F"/>
<path d="M12.0036 275.755C20.9946 275.115 57.544 271.162 65.3217 269.772C65.861 269.676 65.8922 269.309 65.3093 269.336C38.2451 270.606 20.6863 274.325 11.9512 275.401C11.7315 275.428 11.7739 275.771 12.0036 275.755Z" fill="#263238"/>
<path d="M36.8124 206.326C42.9799 210.181 49.638 213.589 54.3026 219.176C59.6226 229.112 63.9265 239.711 68.3552 250.091C69.3475 252.58 70.3686 255.062 70.9315 257.699C70.9415 254.972 70.2151 252.305 69.5498 249.689C66.2232 238.649 62.0691 227.737 56.0651 217.854C51.006 212.189 43.669 209.078 36.8124 206.326Z" fill="#263238"/>
<path d="M140.446 127.554C147.494 150.219 161.227 201.22 162.553 216.195C163.796 230.248 151.094 286.081 151.243 294.687C151.43 305.524 93.984 297.796 95.0438 290.413C95.7952 285.178 116.584 217.549 117.632 211.686C119.752 199.819 119.408 151.554 121.46 127.92C123.583 103.462 135.624 112.05 140.446 127.554Z" fill="#AD6359"/>
<path d="M89.3528 357.351C94.5941 360.12 98.9579 355.804 98.9579 355.804C98.9579 355.804 101.216 359.964 105.559 361.313C110.531 362.86 115.136 355.74 115.136 355.74C115.136 355.74 118.294 359.476 123.024 360.441C127.932 361.441 133.603 354.92 133.603 354.92C133.603 354.92 138.457 356.783 143.143 354.685C151.154 351.098 152.993 337.815 154.246 329.385C155.5 320.954 151.16 295.866 150.818 291.003L96.7785 282.489C96.7785 282.489 80.3992 318.695 80.3318 328.816C80.2744 337.343 83.4686 354.243 89.3528 357.351Z" fill="#AD6359"/>
<path d="M98.7371 355.644C96.6213 346.564 97.3066 337.352 97.4676 328.119C97.4714 327.914 97.7934 327.922 97.7872 328.128C97.5201 337.309 99.0791 346.423 99.1777 355.595C99.1802 355.85 98.7933 355.889 98.7371 355.644Z" fill="#263238"/>
<path d="M114.8 355.766C114.384 353.698 114.65 351.497 114.791 349.41C114.942 347.162 115.134 344.919 115.359 342.677C115.811 338.19 116.365 333.713 117.051 329.255C117.08 329.058 117.391 329.055 117.37 329.264C116.928 333.736 116.552 338.216 116.299 342.702C116.172 344.948 116.064 347.195 115.972 349.442C115.886 351.532 115.97 353.744 115.418 355.779C115.335 356.081 114.864 356.077 114.8 355.766Z" fill="#263238"/>
<path d="M133.613 354.732C133.178 352.948 133.691 350.807 133.91 349.01C134.158 346.97 134.395 344.928 134.62 342.886C135.072 338.8 135.52 334.716 135.83 330.618C135.845 330.415 136.163 330.421 136.148 330.627C135.856 334.792 135.62 338.96 135.292 343.124C135.131 345.168 134.957 347.212 134.772 349.253C134.616 350.989 134.618 353.177 133.816 354.763C133.773 354.851 133.634 354.82 133.613 354.732Z" fill="#263238"/>
<path d="M96.7773 282.489C90.455 296.161 84.0391 309.967 80.4268 324.653C78.9813 332.138 80.6402 339.932 82.7397 347.147C84.4548 352.009 87.4768 359.677 93.8989 358.268C95.7625 357.914 97.6473 357.237 99.0316 355.88L98.8668 355.858C100.782 358.622 103.605 362.072 107.34 361.52C103.58 362.001 100.823 358.449 98.9792 355.641C97.5912 356.951 95.6926 357.569 93.8303 357.846C87.6465 358.992 85.1101 351.57 83.4974 346.902C81.479 339.846 79.9499 332.12 81.323 324.837C84.8605 310.264 91.0916 296.358 96.7773 282.489Z" fill="#263238"/>
<path d="M152.352 298.122L87.4443 288.382C87.4443 288.382 89.7211 281.687 92.9665 272.073C94.0525 268.856 91.8456 264.851 93.0988 261.122C100.76 238.324 115.667 204.466 116.551 200.144C118.011 193.002 117.459 150.116 116.816 134.75C115.094 93.5509 133.8 108.49 141.717 127.443C146.875 139.789 165.228 196.099 166.777 214.538C168.713 237.594 168.134 254.399 164.495 271.326C163.664 275.195 157.129 280.08 156.365 283.205C154.104 292.47 152.352 298.122 152.352 298.122Z" fill="#455A64"/>
<path d="M152.352 298.122L87.4443 288.382C87.4443 288.382 89.7211 281.687 92.9665 272.073C94.0525 268.856 91.8456 264.851 93.0988 261.122C100.76 238.324 115.667 204.466 116.551 200.144C118.011 193.002 117.459 150.116 116.816 134.75C115.094 93.5509 133.8 108.49 141.717 127.443C146.875 139.789 165.228 196.099 166.777 214.538C168.713 237.594 168.134 254.399 164.495 271.326C163.664 275.195 157.129 280.08 156.365 283.205C154.104 292.47 152.352 298.122 152.352 298.122Z" fill="#455A64"/>
<path d="M129.107 110.007H121.056C123.278 107.786 126.137 108.085 129.107 110.007Z" fill="#37474F"/>
<path d="M139.207 122.215H117.026C117.088 121.616 117.151 121.054 117.226 120.505H138.233C138.558 121.067 138.882 121.641 139.207 122.215Z" fill="#37474F"/>
<path d="M144.377 134.435H116.804C116.779 133.849 116.766 133.287 116.741 132.725H143.753C143.953 133.275 144.165 133.836 144.377 134.435Z" fill="#37474F"/>
<path d="M148.592 146.656H117.174C117.161 146.069 117.149 145.495 117.136 144.933H148.018C148.205 145.495 148.392 146.069 148.592 146.656Z" fill="#37474F"/>
<path d="M152.551 158.863H117.376C117.376 158.289 117.363 157.727 117.363 157.153H152.014C152.189 157.715 152.376 158.289 152.551 158.863Z" fill="#37474F"/>
<path d="M156.307 171.083H117.462C117.474 170.509 117.474 169.935 117.462 169.361H155.795C155.97 169.935 156.132 170.509 156.307 171.083Z" fill="#37474F"/>
<path d="M159.852 183.291H117.412C117.424 182.73 117.424 182.155 117.437 181.581H159.365C159.527 182.155 159.689 182.73 159.852 183.291Z" fill="#37474F"/>
<path d="M163.098 195.511H117.038C117.063 194.974 117.1 194.4 117.138 193.789H162.661C162.811 194.363 162.948 194.949 163.098 195.511Z" fill="#37474F"/>
<path d="M165.795 207.719H113.819C114.056 207.12 114.28 206.546 114.493 206.009H165.47C165.583 206.595 165.695 207.17 165.795 207.719Z" fill="#37474F"/>
<path d="M167.191 219.939H108.887C109.124 219.352 109.361 218.778 109.586 218.217H167.067C167.117 218.791 167.154 219.365 167.191 219.939Z" fill="#37474F"/>
<path d="M167.777 232.147H103.968C104.205 231.573 104.43 230.998 104.654 230.437H167.74C167.752 231.011 167.777 231.585 167.777 232.147Z" fill="#37474F"/>
<path d="M167.803 242.644C167.79 243.218 167.778 243.792 167.753 244.367H99.175C99.3997 243.792 99.6244 243.218 99.8491 242.644H167.803Z" fill="#37474F"/>
<path d="M167.066 254.865C167.004 255.439 166.954 256.013 166.892 256.575H94.6691C94.8688 256.013 95.0685 255.439 95.2807 254.865H167.066Z" fill="#37474F"/>
<path d="M165.342 267.072C165.229 267.646 165.13 268.22 165.005 268.795H93.2191C93.1692 268.233 93.0943 267.659 93.0069 267.072H165.342Z" fill="#37474F"/>
<path d="M158.879 279.292C158.38 279.879 157.918 280.453 157.518 281.002H89.9392C90.1389 280.466 90.3261 279.891 90.5258 279.292H158.879Z" fill="#37474F"/>
<path d="M154.236 291.5C154.062 292.112 153.912 292.686 153.762 293.223H119.735L108.252 291.5H154.236Z" fill="#37474F"/>
<path d="M97.3058 273.247C106.271 275.039 143.075 280.995 151.055 281.727C151.608 281.778 151.736 281.427 151.159 281.296C124.352 275.265 106.181 274.181 97.3495 272.887C97.1286 272.854 97.0774 273.201 97.3058 273.247Z" fill="#263238"/>
<path d="M98.8336 245.336C105.559 230.724 112.633 216.267 117.756 200.989C118.39 190.007 118.069 178.971 117.947 167.992C117.796 159.017 117.461 150.042 116.95 141.07C116.063 156.585 115.813 179.116 115.537 194.884C115.499 196.004 115.483 198.783 115.396 199.844C115.369 200.423 115.331 200.71 115.16 201.277C110.135 215.709 103.753 230.874 98.8336 245.336Z" fill="#263238"/>
<path d="M114.77 147.491C114.341 151.427 114.849 155.399 116.513 159.009C116.537 155.039 116.044 151.257 114.77 147.491Z" fill="#263238"/>
</svg>
